<?xml version="1.0" encoding="utf-8"?>
<!-- Generator: Adobe Illustrator 16.0.0, SVG Export Plug-In . SVG Version: 6.00 Build 0)  -->
<!DOCTYPE svg PUBLIC "-//W3C//DTD SVG 1.1//EN" "http://www.w3.org/Graphics/SVG/1.1/DTD/svg11.dtd">
<svg version="1.1" id="Layer_1" xmlns="http://www.w3.org/2000/svg" xmlns:xlink="http://www.w3.org/1999/xlink" x="0px" y="0px"
	 width="19.917px" height="19.917px" viewBox="0 0 19.917 19.917" enable-background="new 0 0 19.917 19.917" xml:space="preserve">
<g>
	<path fill="#333333" d="M9.958,2c4.388,0,7.958,3.57,7.958,7.958s-3.57,7.958-7.958,7.958S2,14.347,2,9.958S5.57,2,9.958,2
		 M9.958,0C4.459,0,0,4.459,0,9.958s4.459,9.958,9.958,9.958s9.958-4.459,9.958-9.958S15.458,0,9.958,0L9.958,0z"/>
</g>
<g>
	<defs>
		<rect id="SVGID_1_" x="7.271" y="5.374" width="5.375" height="9.17"/>
	</defs>
	<clipPath id="SVGID_2_">
		<use xlink:href="#SVGID_1_"  overflow="visible"/>
	</clipPath>
	<path clip-path="url(#SVGID_2_)" fill="#333333" d="M11.095,14.294c-0.33-0.322-3.559-3.713-3.559-3.713
		c-0.178-0.171-0.266-0.397-0.266-0.622c0-0.226,0.088-0.451,0.266-0.623c0,0,3.229-3.389,3.559-3.712
		c0.33-0.322,0.924-0.344,1.277,0c0.352,0.344,0.381,0.823,0,1.245l-2.963,3.09l2.963,3.089c0.381,0.422,0.352,0.902,0,1.246
		C12.019,14.638,11.425,14.616,11.095,14.294"/>
</g>
<g>
</g>
<g>
</g>
<g>
</g>
<g>
</g>
<g>
</g>
<g>
</g>
<g>
</g>
<g>
</g>
<g>
</g>
<g>
</g>
<g>
</g>
<g>
</g>
<g>
</g>
<g>
</g>
<g>
</g>
</svg>
