<?xml version="1.0" encoding="utf-8"?>
<!-- Generator: Adobe Illustrator 16.0.0, SVG Export Plug-In . SVG Version: 6.00 Build 0)  -->
<!DOCTYPE svg PUBLIC "-//W3C//DTD SVG 1.1//EN" "http://www.w3.org/Graphics/SVG/1.1/DTD/svg11.dtd">
<svg version="1.1" id="Layer_1" xmlns="http://www.w3.org/2000/svg" xmlns:xlink="http://www.w3.org/1999/xlink" x="0px" y="0px"
	 width="19.917px" height="19.917px" viewBox="0 0 19.917 19.917" enable-background="new 0 0 19.917 19.917" xml:space="preserve">
<g>
	<path fill="#333333" d="M2,9.958C2,5.569,5.57,2,9.958,2s7.958,3.569,7.958,7.958c0,4.388-3.568,7.958-7.958,7.958
		S2,14.345,2,9.958 M0,9.958c0,5.5,4.459,9.958,9.958,9.958c5.499,0,9.958-4.458,9.958-9.958c0-5.5-4.459-9.958-9.958-9.958
		C4.459,0,0,4.457,0,9.958L0,9.958z"/>
</g>
<circle fill="#333333" cx="9.958" cy="9.958" r="8.593"/>
<g>
	<g>
		<defs>
			<rect id="SVGID_1_" x="7.271" y="5.373" width="5.375" height="9.168"/>
		</defs>
		<clipPath id="SVGID_2_">
			<use xlink:href="#SVGID_1_"  overflow="visible"/>
		</clipPath>
		<path clip-path="url(#SVGID_2_)" fill="#FFFFFF" d="M11.095,14.292c-0.33-0.321-3.559-3.712-3.559-3.712
			C7.358,10.409,7.27,10.183,7.27,9.958c0-0.226,0.088-0.451,0.266-0.624c0,0,3.229-3.389,3.559-3.711s0.924-0.345,1.277,0
			c0.352,0.344,0.381,0.822,0,1.244l-2.963,3.09l2.963,3.089c0.381,0.422,0.352,0.901,0,1.245
			C12.019,14.636,11.425,14.615,11.095,14.292"/>
	</g>
</g>
</svg>
