<?xml version="1.0" encoding="utf-8"?>
<!-- Generator: Adobe Illustrator 16.0.0, SVG Export Plug-In . SVG Version: 6.00 Build 0)  -->
<!DOCTYPE svg PUBLIC "-//W3C//DTD SVG 1.1//EN" "http://www.w3.org/Graphics/SVG/1.1/DTD/svg11.dtd">
<svg version="1.1" id="Layer_1" xmlns="http://www.w3.org/2000/svg" xmlns:xlink="http://www.w3.org/1999/xlink" x="0px" y="0px"
	 width="19.917px" height="19.917px" viewBox="0 0 19.917 19.917" enable-background="new 0 0 19.917 19.917" xml:space="preserve">
<g>
	<path fill="#333333" d="M17.916,9.958c0,4.388-3.569,7.958-7.958,7.958C5.569,17.916,2,14.346,2,9.958C2,5.57,5.568,2,9.958,2
		C14.347,2,17.916,5.57,17.916,9.958 M19.916,9.958c0-5.5-4.459-9.958-9.958-9.958C4.459,0,0,4.458,0,9.958
		c0,5.5,4.459,9.958,9.958,9.958C15.457,19.916,19.916,15.458,19.916,9.958L19.916,9.958z"/>
</g>
<circle fill="#333333" cx="9.958" cy="9.958" r="8.593"/>
<g>
	<g>
		<defs>
			<rect id="SVGID_1_" x="7.27" y="5.374" width="5.375" height="9.168"/>
		</defs>
		<clipPath id="SVGID_2_">
			<use xlink:href="#SVGID_1_"  overflow="visible"/>
		</clipPath>
		<path clip-path="url(#SVGID_2_)" fill="#FFFFFF" d="M8.82,5.624c0.33,0.321,3.559,3.712,3.559,3.712
			c0.179,0.171,0.267,0.397,0.267,0.622c0,0.226-0.088,0.451-0.267,0.624c0,0-3.229,3.389-3.559,3.711s-0.924,0.345-1.277,0
			c-0.352-0.344-0.381-0.822,0-1.244l2.963-3.09L7.543,6.869c-0.381-0.422-0.352-0.901,0-1.245C7.896,5.279,8.49,5.301,8.82,5.624"
			/>
	</g>
</g>
</svg>
