<?xml version="1.0" encoding="utf-8"?>
<!-- Generator: Adobe Illustrator 16.0.0, SVG Export Plug-In . SVG Version: 6.00 Build 0)  -->
<!DOCTYPE svg PUBLIC "-//W3C//DTD SVG 1.1//EN" "http://www.w3.org/Graphics/SVG/1.1/DTD/svg11.dtd">
<svg version="1.1" id="Layer_1" xmlns="http://www.w3.org/2000/svg" xmlns:xlink="http://www.w3.org/1999/xlink" x="0px" y="0px"
	 width="13.226px" height="13.226px" viewBox="0 0 13.226 13.226" enable-background="new 0 0 13.226 13.226" xml:space="preserve">
<path fill="#333333" d="M0.633,10.207c-0.764,0.764-0.849,1.917-0.19,2.575l0,0c0.659,0.66,1.813,0.575,2.578-0.191l9.57-9.569
	c0.765-0.765,0.85-1.919,0.191-2.578l0,0c-0.659-0.659-1.813-0.574-2.578,0.191L0.633,10.207z"/>
<path fill="#333333" d="M10.207,12.592c0.764,0.764,1.917,0.849,2.575,0.19l0,0c0.66-0.659,0.575-1.813-0.191-2.578l-9.569-9.57
	C2.256-0.13,1.102-0.215,0.444,0.443l0,0c-0.659,0.659-0.574,1.813,0.19,2.578L10.207,12.592z"/>
</svg>
