<?xml version="1.0" encoding="utf-8"?>
<!-- Generator: Adobe Illustrator 16.0.0, SVG Export Plug-In . SVG Version: 6.00 Build 0)  -->
<!DOCTYPE svg PUBLIC "-//W3C//DTD SVG 1.1//EN" "http://www.w3.org/Graphics/SVG/1.1/DTD/svg11.dtd">
<svg version="1.1" id="Layer_1" xmlns="http://www.w3.org/2000/svg" xmlns:xlink="http://www.w3.org/1999/xlink" x="0px" y="0px"
	 width="9.249px" height="9.249px" viewBox="5.292 5.292 9.249 9.249" enable-background="new 5.292 5.292 9.249 9.249"
	 xml:space="preserve">
<g>
	<path fill="#333333" d="M17.916,9.958c0,4.388-3.569,7.958-7.958,7.958C5.569,17.916,2,14.346,2,9.958C2,5.57,5.568,2,9.958,2
		C14.347,2,17.916,5.57,17.916,9.958 M19.916,9.958c0-5.5-4.459-9.958-9.958-9.958C4.459,0,0,4.458,0,9.958
		c0,5.5,4.459,9.958,9.958,9.958C15.457,19.916,19.916,15.458,19.916,9.958L19.916,9.958z"/>
</g>
<circle fill="#333333" cx="32.417" cy="9.583" r="8.593"/>
<rect x="8.938" y="5.374" fill="#333333" width="2.042" height="9.168"/>
<rect x="5.375" y="8.937" fill="#333333" width="9.169" height="2.042"/>
</svg>
