<?xml version="1.0" encoding="utf-8"?>
<!-- Generator: Adobe Illustrator 16.0.0, SVG Export Plug-In . SVG Version: 6.00 Build 0)  -->
<!DOCTYPE svg PUBLIC "-//W3C//DTD SVG 1.1//EN" "http://www.w3.org/Graphics/SVG/1.1/DTD/svg11.dtd">
<svg version="1.1" id="All_glyphs" xmlns="http://www.w3.org/2000/svg" xmlns:xlink="http://www.w3.org/1999/xlink" x="0px" y="0px"
	 width="79px" height="79px" viewBox="0 0 79 79" enable-background="new 0 0 79 79" xml:space="preserve">
<g>
	<path fill="#333333" d="M77.225,66.836L58.33,47.942c2.849-4.681,4.489-10.177,4.489-16.058C62.819,14.802,48.017,0,30.932,0
		C13.85,0,0,13.85,0,30.934s14.802,31.885,31.884,31.885c5.681,0,11-1.538,15.574-4.21l18.997,18.997
		c1.859,1.859,4.873,1.859,6.73,0l4.712-4.71C79.757,71.035,79.083,68.695,77.225,66.836z M9.519,30.934
		c0-11.828,9.588-21.416,21.413-21.416c11.829,0,22.369,10.539,22.369,22.367c0,11.828-9.589,21.416-21.417,21.416
		C20.058,53.301,9.519,42.762,9.519,30.934z"/>
</g>
</svg>
