<?xml version="1.0" encoding="utf-8"?>
<!-- Generator: Adobe Illustrator 16.0.0, SVG Export Plug-In . SVG Version: 6.00 Build 0)  -->
<!DOCTYPE svg PUBLIC "-//W3C//DTD SVG 1.1//EN" "http://www.w3.org/Graphics/SVG/1.1/DTD/svg11.dtd">
<svg version="1.1" id="Layer_1" xmlns="http://www.w3.org/2000/svg" xmlns:xlink="http://www.w3.org/1999/xlink" x="0px" y="0px"
	 width="21.75px" height="20.626px" viewBox="0 0 21.75 20.626" enable-background="new 0 0 21.75 20.626" xml:space="preserve">
<g>
	<defs>
		<rect id="SVGID_1_" y="-31.652" width="595.28" height="592.139"/>
	</defs>
	<clipPath id="SVGID_2_">
		<use xlink:href="#SVGID_1_"  overflow="visible"/>
	</clipPath>
	<path clip-path="url(#SVGID_2_)" fill="#333333" d="M17.344,19.629c0-2.437-2.372-3.676-4.683-4.672
		c-2.303-0.992-3.038-1.827-3.038-3.617c0-1.073,0.703-0.724,1.011-2.691c0.13-0.816,0.751-0.013,0.87-1.875
		c0-0.742-0.339-0.926-0.339-0.926s0.172-1.099,0.24-1.945c0.069-0.887-0.523-2.464-2.426-3.452C8.5,0.203,7.764,0.157,8.407,0.153
		C5.975,0.167,6.42,0.16,5.125,1.095c-1.101,0.82-1.398,2.119-1.345,2.81c0.07,0.846,0.242,1.945,0.242,1.945
		s-0.34,0.184-0.34,0.926c0.119,1.863,0.742,1.06,0.871,1.875c0.308,1.968,1.012,1.619,1.012,2.691c0,1.79-0.23,2.397-2.534,3.389
		C0.72,15.726,0,17.32,0.012,19.629C0.016,20.32,0,20.574,0,20.574h17.355C17.356,20.574,17.344,20.32,17.344,19.629 M20.098,13.377
		c-1.231-0.496-1.741-1.087-1.741-2.241c0-0.695,0.454-0.468,0.653-1.739c0.083-0.525,0.485-0.008,0.562-1.209
		c0-0.478-0.219-0.598-0.219-0.598s0.111-0.711,0.155-1.257c0.054-0.68-0.395-2.438-2.46-2.438c-2.064,0-2.514,1.757-2.461,2.438
		c0.046,0.544,0.156,1.257,0.156,1.257s-0.219,0.118-0.219,0.598c0.077,1.201,0.478,0.685,0.562,1.209
		c0.2,1.271,0.653,1.045,0.653,1.739c0,1.154-0.475,1.694-1.962,2.334c-0.075,0.032-0.13,0.074-0.199,0.111
		c1.779,0.772,4.584,2.105,5.248,4.824h2.869V15.89C21.695,14.806,21.398,13.901,20.098,13.377"/>
</g>
</svg>
