<?xml version="1.0" encoding="utf-8"?>
<!-- Generator: Adobe Illustrator 16.0.0, SVG Export Plug-In . SVG Version: 6.00 Build 0)  -->
<!DOCTYPE svg PUBLIC "-//W3C//DTD SVG 1.1//EN" "http://www.w3.org/Graphics/SVG/1.1/DTD/svg11.dtd">
<svg version="1.1" id="Layer_1" xmlns="http://www.w3.org/2000/svg" xmlns:xlink="http://www.w3.org/1999/xlink" x="0px" y="0px"
	 width="19.917px" height="19.917px" viewBox="0 0 19.917 19.917" enable-background="new 0 0 19.917 19.917" xml:space="preserve">
<g>
	<path fill="#333333" d="M9.958,2c4.388,0,7.958,3.57,7.958,7.958s-3.57,7.958-7.958,7.958C5.57,17.917,2,14.347,2,9.959
		C2,5.57,5.57,2,9.958,2 M9.958,0C4.459,0,0,4.459,0,9.959c0,5.499,4.459,9.958,9.959,9.958c5.499,0,9.958-4.459,9.958-9.958
		S15.458,0,9.958,0L9.958,0z"/>
</g>
<g>
	<defs>
		<rect id="SVGID_1_" x="7.271" y="5.373" width="5.375" height="9.17"/>
	</defs>
	<clipPath id="SVGID_2_">
		<use xlink:href="#SVGID_1_"  overflow="visible"/>
	</clipPath>
	<path clip-path="url(#SVGID_2_)" fill="#333333" d="M8.822,5.623c0.33,0.322,3.559,3.713,3.559,3.713
		c0.178,0.171,0.266,0.397,0.266,0.622c0,0.226-0.088,0.451-0.266,0.623c0,0-3.229,3.389-3.559,3.712
		c-0.33,0.322-0.924,0.344-1.277,0c-0.352-0.344-0.381-0.823,0-1.245l2.963-3.09L7.545,6.869c-0.381-0.422-0.352-0.902,0-1.246
		C7.898,5.279,8.492,5.301,8.822,5.623"/>
</g>
<g>
</g>
<g>
</g>
<g>
</g>
<g>
</g>
<g>
</g>
<g>
</g>
<g>
</g>
<g>
</g>
<g>
</g>
<g>
</g>
<g>
</g>
<g>
</g>
<g>
</g>
<g>
</g>
<g>
</g>
</svg>
