<?xml version="1.0" encoding="utf-8"?>
<!-- Generator: Adobe Illustrator 16.0.0, SVG Export Plug-In . SVG Version: 6.00 Build 0)  -->
<!DOCTYPE svg PUBLIC "-//W3C//DTD SVG 1.1//EN" "http://www.w3.org/Graphics/SVG/1.1/DTD/svg11.dtd">
<svg version="1.1" id="Layer_1" xmlns="http://www.w3.org/2000/svg" xmlns:xlink="http://www.w3.org/1999/xlink" x="0px" y="0px"
	 width="19.917px" height="19.917px" viewBox="0 0 19.917 19.917" enable-background="new 0 0 19.917 19.917" xml:space="preserve">
<g>
	<path fill="#333333" d="M9.958,17.916C5.569,17.916,2,14.346,2,9.958C2,5.569,5.569,2,9.958,2c4.388,0,7.958,3.568,7.958,7.958
		C17.916,14.347,14.345,17.916,9.958,17.916 M9.958,19.916c5.5,0,9.958-4.459,9.958-9.958C19.916,4.459,15.458,0,9.958,0
		C4.457,0,0,4.459,0,9.958C0,15.457,4.457,19.916,9.958,19.916L9.958,19.916z"/>
</g>
<circle fill="#333333" cx="9.958" cy="9.958" r="8.593"/>
<g>
	<g>
		<defs>
			<rect id="SVGID_1_" x="5.373" y="7.27" width="9.168" height="5.375"/>
		</defs>
		<clipPath id="SVGID_2_">
			<use xlink:href="#SVGID_1_"  overflow="visible"/>
		</clipPath>
		<path clip-path="url(#SVGID_2_)" fill="#FFFFFF" d="M14.292,8.82c-0.321,0.33-3.712,3.559-3.712,3.559
			c-0.171,0.179-0.397,0.267-0.622,0.267c-0.226,0-0.451-0.088-0.624-0.267c0,0-3.389-3.229-3.711-3.559s-0.345-0.924,0-1.277
			c0.344-0.352,0.822-0.381,1.244,0l3.09,2.963l3.089-2.963c0.422-0.381,0.901-0.352,1.245,0C14.636,7.896,14.615,8.49,14.292,8.82"
			/>
	</g>
</g>
</svg>
