<?xml version="1.0" encoding="utf-8"?>
<!-- Generator: Adobe Illustrator 16.0.0, SVG Export Plug-In . SVG Version: 6.00 Build 0)  -->
<!DOCTYPE svg PUBLIC "-//W3C//DTD SVG 1.1//EN" "http://www.w3.org/Graphics/SVG/1.1/DTD/svg11.dtd">
<svg version="1.1" id="Layer_1" xmlns="http://www.w3.org/2000/svg" xmlns:xlink="http://www.w3.org/1999/xlink" x="0px" y="0px"
	 width="12px" height="15px" viewBox="0 0 12 15" enable-background="new 0 0 12 15" xml:space="preserve">
<g>
	<defs>
		<rect id="SVGID_1_" width="12" height="15"/>
	</defs>
	<clipPath id="SVGID_2_">
		<use xlink:href="#SVGID_1_"  overflow="visible"/>
	</clipPath>
	<path clip-path="url(#SVGID_2_)" fill="#339933" d="M8.727,0H2.394C1.073,0,0.001,1.069,0,2.39v10.219
		C0.002,13.931,1.073,15,2.394,15h7.213c1.32,0,2.391-1.07,2.393-2.391V3.744L8.727,0z M8.07,1.546l2.33,2.666H8.07V1.546z
		 M9.605,13.493H2.394c-0.485-0.003-0.877-0.397-0.876-0.882V2.39c-0.002-0.486,0.39-0.881,0.876-0.883h4.158v3.46
		c0,0.415,0.341,0.752,0.761,0.752h3.17v6.891C10.484,13.095,10.092,13.49,9.605,13.493"/>
</g>
</svg>
