<?xml version="1.0" encoding="utf-8"?>
<!-- Generator: Adobe Illustrator 16.0.0, SVG Export Plug-In . SVG Version: 6.00 Build 0)  -->
<!DOCTYPE svg PUBLIC "-//W3C//DTD SVG 1.1//EN" "http://www.w3.org/Graphics/SVG/1.1/DTD/svg11.dtd">
<svg version="1.1" id="Layer_1" xmlns="http://www.w3.org/2000/svg" xmlns:xlink="http://www.w3.org/1999/xlink" x="0px" y="0px"
	 width="19.201px" height="19.201px" viewBox="0 0 19.201 19.201" enable-background="new 0 0 19.201 19.201" xml:space="preserve">
<g>
	<defs>
		<rect id="SVGID_1_" width="19.201" height="19.201"/>
	</defs>
	<clipPath id="SVGID_2_">
		<use xlink:href="#SVGID_1_"  overflow="visible"/>
	</clipPath>
	<path clip-path="url(#SVGID_2_)" fill="#333333" d="M9.601,0C4.298,0,0,4.298,0,9.6c0,5.303,4.298,9.601,9.601,9.601
		c5.302,0,9.601-4.298,9.601-9.601C19.201,4.298,14.902,0,9.601,0 M2,9.6C2,5.403,5.402,2,9.6,2c1.829,0,3.507,0.647,4.817,1.723
		L3.723,14.417C2.647,13.105,2,11.429,2,9.6 M9.6,17.199c-1.828,0-3.504-0.646-4.814-1.722L15.479,4.784
		c1.075,1.312,1.723,2.987,1.723,4.816C17.201,13.797,13.797,17.199,9.6,17.199"/>
</g>
</svg>
