<?xml version="1.0" encoding="utf-8"?>
<!-- Generator: Adobe Illustrator 16.0.0, SVG Export Plug-In . SVG Version: 6.00 Build 0)  -->
<!DOCTYPE svg PUBLIC "-//W3C//DTD SVG 1.1//EN" "http://www.w3.org/Graphics/SVG/1.1/DTD/svg11.dtd">
<svg version="1.1" id="Layer_1" xmlns="http://www.w3.org/2000/svg" xmlns:xlink="http://www.w3.org/1999/xlink" x="0px" y="0px"
	 width="10.14px" height="5.945px" viewBox="0 0 10.14 5.945" enable-background="new 0 0 10.14 5.945" xml:space="preserve">
<g>
	<defs>
		<rect id="SVGID_1_" y="0" width="10.14" height="5.944"/>
	</defs>
	<clipPath id="SVGID_2_">
		<use xlink:href="#SVGID_1_"  overflow="visible"/>
	</clipPath>
	<path clip-path="url(#SVGID_2_)" fill="#36A548" d="M9.863,1.716C9.507,2.082,5.757,5.652,5.757,5.652
		C5.568,5.846,5.319,5.945,5.07,5.945c-0.25,0-0.499-0.099-0.689-0.293c0,0-3.748-3.57-4.104-3.936c-0.356-0.366-0.38-1.021,0-1.414
		c0.38-0.389,0.911-0.421,1.377,0L5.07,3.58l3.416-3.277c0.467-0.421,0.997-0.389,1.377,0C10.244,0.695,10.22,1.35,9.863,1.716"/>
</g>
<g>
</g>
<g>
</g>
<g>
</g>
<g>
</g>
<g>
</g>
<g>
</g>
<g>
</g>
<g>
</g>
<g>
</g>
<g>
</g>
<g>
</g>
<g>
</g>
<g>
</g>
<g>
</g>
<g>
</g>
</svg>
