<?xml version="1.0" encoding="utf-8"?>
<!-- Generator: Adobe Illustrator 16.0.0, SVG Export Plug-In . SVG Version: 6.00 Build 0)  -->
<!DOCTYPE svg PUBLIC "-//W3C//DTD SVG 1.1//EN" "http://www.w3.org/Graphics/SVG/1.1/DTD/svg11.dtd">
<svg version="1.1" id="Layer_1" xmlns="http://www.w3.org/2000/svg" xmlns:xlink="http://www.w3.org/1999/xlink" x="0px" y="0px"
	 width="300.593px" height="99.375px" viewBox="0 0 300.593 99.375" enable-background="new 0 0 300.593 99.375"
	 xml:space="preserve">
<g>

		<rect x="209.909" y="3.668" opacity="0.6" fill="#F69220" stroke="#CCCBCB" stroke-miterlimit="10" enable-background="new    " width="86.832" height="88.568"/>

		<rect x="3.25" y="5.405" opacity="0.6" fill="none" stroke="#CCCBCB" stroke-miterlimit="10" enable-background="new    " width="88.568" height="86.832"/>
	<g>
		<path fill="#373A96" d="M80.417,49.211c0,18.192-14.748,32.938-32.937,32.938c-18.191,0-32.939-14.746-32.939-32.938
			S29.29,16.272,47.481,16.272C65.67,16.271,80.417,31.019,80.417,49.211z"/>
		<path fill="#B1D9AD" d="M31.046,62.562c0,0.491-0.12,0.885-0.608,0.898v0.007c-0.26,0.021,0.064,0.032-0.147,0.032
			c-1.651,0-2.818-0.361-3.5-1.089c-0.685-0.724-1.027-1.953-1.027-3.69v-5.915c0-0.937-0.138-1.63-0.412-2.091
			c-0.271-0.453-0.745-0.777-1.418-0.98c-0.341-0.134-0.585-0.465-0.585-0.854c0-0.385,0.234-0.714,0.569-0.853v-0.002
			c1.231-0.326,1.846-1.294,1.846-2.903v-6.312c0-1.566,0.351-2.696,1.058-3.391c0.701-0.695,1.86-1.043,3.467-1.043h0.147v0.002
			c0.505,0.004,0.643,0.411,0.643,0.917c0,0.507-0.138,0.633-0.643,0.638v0.01c-1.21,0.021-2.025,0.225-2.444,0.615
			c-0.421,0.389-0.631,1.142-0.631,2.256v6.434c0,0.725-0.095,1.396-0.284,2.003c-0.22,0.685-0.785,1.251-1.688,1.704
			c0.726,0.388,1.235,0.861,1.531,1.419c0.293,0.557,0.441,1.347,0.441,2.364v6.197c0,1.2,0.2,1.994,0.599,2.391
			c0.399,0.394,1.226,0.596,2.476,0.607v0.014C30.927,61.957,31.046,62.073,31.046,62.562z"/>
		<path fill="#B1D9AD" d="M64.517,61.947v-0.014c1.252-0.012,2.077-0.214,2.477-0.607c0.401-0.396,0.601-1.19,0.601-2.391v-6.197
			c0-1.018,0.148-1.808,0.442-2.364c0.295-0.558,0.804-1.029,1.53-1.419c-0.905-0.453-1.468-1.02-1.69-1.704
			c-0.189-0.609-0.283-1.278-0.283-2.003v-6.434c0-1.114-0.209-1.868-0.631-2.256c-0.419-0.391-1.236-0.594-2.446-0.615v-0.01
			c-0.503-0.004-0.913-0.131-0.913-0.636c0-0.506,0.41-0.914,0.913-0.917v-0.002h0.146c1.612,0,2.769,0.347,3.473,1.042
			c0.704,0.695,1.057,1.825,1.057,3.392v6.312c0,1.609,0.616,2.576,1.846,2.903v0.002c0.333,0.141,0.569,0.47,0.569,0.853
			c0,0.39-0.243,0.721-0.587,0.854c-0.674,0.2-1.148,0.527-1.418,0.979c-0.273,0.46-0.41,1.155-0.41,2.092v5.915
			c0,1.736-0.341,2.966-1.025,3.69c-0.684,0.728-1.851,1.089-3.504,1.089c-0.209,0,0.117-0.011-0.146-0.03V63.46
			c-0.487-0.014-0.878-0.407-0.878-0.898C63.636,62.073,64.029,61.957,64.517,61.947z"/>
		<path fill="#FFFFFF" d="M43.017,46.122c0.958,0,1.775-0.334,2.451-1.002c0.678-0.669,1.016-1.473,1.016-2.412
			c0-0.935-0.338-1.733-1.018-2.396c-0.679-0.666-1.493-0.997-2.449-0.997c-0.953,0-1.768,0.331-2.441,0.992
			c-0.674,0.663-1.011,1.465-1.011,2.401c0,0.939,0.337,1.741,1.011,2.412C41.249,45.788,42.064,46.122,43.017,46.122z
			 M41.625,41.312c0.383-0.385,0.847-0.579,1.393-0.579c0.55,0,1.014,0.191,1.396,0.578c0.383,0.386,0.573,0.851,0.573,1.398
			c0,0.555-0.19,1.026-0.573,1.41c-0.38,0.386-0.846,0.578-1.396,0.578c-0.545,0-1.009-0.192-1.393-0.578
			c-0.384-0.386-0.577-0.852-0.577-1.398C41.048,42.169,41.241,41.702,41.625,41.312z M59.713,40.822
			c0.943,0,1.56,0.418,1.777,1.192h-3.522C58.246,41.238,58.851,40.822,59.713,40.822z M62.096,52.922
			c-0.622-0.651-1.388-0.978-2.296-0.978c-0.647,0-1.217,0.177-1.71,0.526c-0.122,0.092-0.224,0.176-0.31,0.247v-2.316l0,0
			c0-0.419-0.337-0.756-0.754-0.756c-0.417,0-0.753,0.337-0.753,0.756v7.648l0,0c0,0.392,0.315,0.706,0.705,0.706
			c0.391,0,0.705-0.315,0.709-0.706h0.005v-0.203c0.312,0.339,0.66,0.576,1.049,0.712c0.351,0.133,0.713,0.197,1.085,0.197
			c0.905,0,1.666-0.329,2.28-0.99c0.617-0.662,0.923-1.475,0.923-2.439C63.03,54.373,62.72,53.569,62.096,52.922z M60.907,56.696
			c-0.354,0.363-0.797,0.543-1.327,0.543c-0.527,0-0.971-0.175-1.325-0.53c-0.36-0.354-0.539-0.792-0.539-1.319
			c0-0.572,0.172-1.037,0.518-1.396c0.343-0.362,0.792-0.542,1.344-0.542c0.524,0,0.966,0.18,1.325,0.542
			c0.357,0.363,0.534,0.811,0.534,1.345C61.439,55.879,61.262,56.33,60.907,56.696z M53.489,52.724v5.326l0,0
			c-0.001,0.392-0.323,0.706-0.722,0.706c-0.398,0-0.721-0.317-0.721-0.706c0-0.028,0.003-0.051,0.005-0.074v-0.292
			c-0.132,0.173-0.238,0.302-0.316,0.385c-0.42,0.457-1.022,0.688-1.808,0.688c-0.519,0-0.99-0.108-1.414-0.333
			c-0.422-0.22-0.733-0.516-0.931-0.885c-0.177-0.327-0.282-0.729-0.323-1.208c-0.012-0.162-0.019-0.583-0.019-1.262v-2.345
			c0-0.002,0-0.002,0-0.002c0-0.416,0.343-0.757,0.769-0.757s0.769,0.34,0.769,0.757c0,0.04-0.006,0.083-0.012,0.122v2.225
			c0,0.441,0.002,0.706,0.012,0.801c0,0.309,0.058,0.583,0.174,0.827c0.195,0.426,0.61,0.638,1.235,0.638
			c1.171,0,1.758-0.756,1.758-2.266V52.72l0,0c0-0.415,0.343-0.755,0.768-0.755C53.137,51.965,53.489,52.308,53.489,52.724z
			 M53.919,37.097c-0.406,0-0.738,0.333-0.738,0.747l0,0v2.241c-0.358-0.309-0.71-0.518-1.061-0.632
			c-0.29-0.094-0.603-0.139-0.937-0.139c-0.905,0-1.664,0.323-2.275,0.971s-0.917,1.452-0.917,2.411
			c0,0.963,0.303,1.774,0.913,2.436c0.609,0.662,1.356,0.99,2.242,0.99c0.736,0,1.344-0.206,1.826-0.617
			c0.114-0.097,0.205-0.192,0.28-0.29v0.149h0.007l0,0c0,0.392,0.313,0.709,0.697,0.709c0.385,0,0.698-0.317,0.698-0.709l0,0l0,0
			v-7.522l0,0C54.66,37.43,54.33,37.097,53.919,37.097z M52.708,44.068c-0.349,0.361-0.789,0.541-1.316,0.541
			c-0.509,0-0.943-0.18-1.297-0.541c-0.353-0.361-0.53-0.807-0.53-1.333c0-0.543,0.175-0.997,0.528-1.363
			c0.352-0.366,0.782-0.549,1.299-0.549c0.545,0,0.988,0.178,1.33,0.532c0.339,0.354,0.511,0.809,0.511,1.37
			C53.231,43.26,53.057,43.71,52.708,44.068z M45.363,57.836c0,0.381-0.307,0.688-0.688,0.688h-3.803
			c-0.379,0-0.688-0.309-0.688-0.688c0-0.38,0.309-0.688,0.688-0.688c0.008,0,1.164,0,1.164,0v-5.853h-1.164v-0.007
			c-0.379,0-0.688-0.309-0.688-0.687c0-0.38,0.309-0.688,0.688-0.688h1.972c0.381,0,0.688,0.309,0.688,0.688
			c0,0.012-0.002,0.021-0.003,0.03l0.001,0.004v6.514c0,0,1.135,0,1.143,0C45.057,57.149,45.363,57.456,45.363,57.836z
			 M33.959,53.956c-0.366,0.38-0.55,0.882-0.55,1.384s0.184,1.002,0.55,1.384c0.733,0.764,1.926,0.764,2.659,0
			c0.274-0.284,0.901-0.284,1.195,0c0.295,0.285,0.295,0.75,0,1.035c-0.689,0.666-1.596,1-2.502,1c-0.907,0-1.813-0.334-2.502-1
			c-1.38-1.335-1.38-3.506,0-4.837c1.38-1.333,3.627-1.333,5.006,0c0.296,0.284,0.296,0.749,0,1.036
			c-0.293,0.285-0.92,0.285-1.195,0C35.885,53.193,34.69,53.193,33.959,53.956z M33.936,41.322
			c-0.364,0.382-0.545,0.882-0.545,1.384s0.181,1.002,0.545,1.384c0.726,0.763,1.907,0.763,2.635,0c0.269-0.286,0.891-0.286,1.183,0
			c0.292,0.285,0.292,0.747,0,1.034c-0.685,0.666-1.583,0.998-2.48,0.998c-0.896,0-1.793-0.332-2.476-0.998
			c-1.367-1.334-1.367-3.503,0-4.835c1.366-1.334,3.589-1.334,4.957,0c0.293,0.284,0.293,0.748,0,1.033
			c-0.292,0.287-0.913,0.287-1.183,0C35.843,40.56,34.662,40.56,33.936,41.322z M62.615,45.185c0.304-0.296,0.304-0.774,0-1.071
			c-0.304-0.297-0.86-0.296-1.143,0l0.002-0.002c-0.361,0.321-0.863,0.485-1.304,0.498c-0.017,0-0.226,0-0.243,0
			c-0.521,0-0.959-0.12-1.313-0.36c-0.358-0.24-0.579-0.58-0.662-0.991h4.269c0.476,0,0.861-0.396,0.861-0.883
			c0-0.023-0.003-0.042-0.003-0.063c0-0.005,0.003-0.01,0.003-0.014c-0.094-0.781-0.399-1.426-0.916-1.973
			c-0.631-0.674-1.425-1.011-2.388-1.011c-0.939,0-1.735,0.331-2.407,0.999c-0.674,0.666-1.011,1.478-1.011,2.435
			c0,0.976,0.327,1.781,0.976,2.419c0.65,0.64,1.477,0.957,2.476,0.957c0.003,0,0.008,0,0.009,0c0.068,0,0.315,0,0.323,0
			c0.896,0,1.792-0.319,2.49-0.961L62.615,45.185z"/>
	</g>
	<g>
		<path fill="#339847" d="M182.205,49.211c0,18.192-14.748,32.938-32.938,32.938c-18.193,0-32.939-14.746-32.939-32.938
			s14.748-32.938,32.939-32.938C167.457,16.271,182.205,31.019,182.205,49.211z"/>
		<path fill="#B1D9AD" d="M132.833,62.562c0,0.491-0.12,0.885-0.608,0.898v0.007c-0.26,0.021,0.064,0.032-0.147,0.032
			c-1.651,0-2.818-0.361-3.501-1.089c-0.685-0.724-1.026-1.953-1.026-3.69v-5.915c0-0.937-0.138-1.63-0.41-2.091
			c-0.271-0.453-0.744-0.777-1.419-0.98c-0.34-0.134-0.585-0.465-0.585-0.854c0-0.385,0.235-0.714,0.57-0.853v-0.002
			c1.229-0.326,1.846-1.294,1.846-2.903v-6.312c0-1.566,0.352-2.696,1.058-3.391c0.701-0.695,1.859-1.043,3.47-1.043h0.147v0.002
			c0.506,0.004,0.643,0.411,0.643,0.917c0,0.507-0.137,0.633-0.643,0.638v0.01c-1.209,0.021-2.023,0.225-2.445,0.615
			c-0.418,0.389-0.63,1.142-0.63,2.256v6.434c0,0.725-0.097,1.396-0.285,2.003c-0.221,0.685-0.785,1.251-1.688,1.704
			c0.726,0.388,1.234,0.861,1.53,1.419c0.294,0.557,0.441,1.347,0.441,2.364v6.197c0,1.2,0.199,1.994,0.597,2.391
			c0.401,0.394,1.227,0.596,2.477,0.607v0.014C132.713,61.957,132.833,62.073,132.833,62.562z"/>
		<path fill="#B1D9AD" d="M166.304,61.947v-0.014c1.252-0.012,2.076-0.214,2.476-0.607c0.4-0.396,0.603-1.19,0.603-2.391v-6.197
			c0-1.018,0.149-1.808,0.441-2.364c0.295-0.558,0.804-1.029,1.531-1.419c-0.906-0.453-1.469-1.02-1.689-1.704
			c-0.188-0.609-0.283-1.278-0.283-2.003v-6.434c0-1.114-0.21-1.868-0.631-2.256c-0.419-0.391-1.238-0.594-2.444-0.615v-0.01
			c-0.505-0.004-0.914-0.131-0.914-0.636c0-0.506,0.409-0.914,0.914-0.917v-0.002h0.146c1.611,0,2.768,0.347,3.473,1.042
			c0.702,0.695,1.056,1.825,1.056,3.392v6.312c0,1.609,0.613,2.576,1.845,2.903v0.002c0.334,0.141,0.57,0.47,0.57,0.853
			c0,0.39-0.244,0.721-0.587,0.854c-0.674,0.2-1.146,0.527-1.418,0.979c-0.273,0.46-0.41,1.155-0.41,2.092v5.915
			c0,1.736-0.34,2.966-1.024,3.69c-0.686,0.728-1.853,1.089-3.508,1.089c-0.207,0,0.117-0.011-0.146-0.03V63.46
			c-0.488-0.014-0.88-0.407-0.88-0.898C165.424,62.073,165.815,61.957,166.304,61.947z"/>
		<path fill="#FFFFFF" d="M144.803,46.122c0.959,0,1.775-0.334,2.452-1.002c0.678-0.669,1.015-1.473,1.015-2.412
			c0-0.935-0.339-1.733-1.018-2.396c-0.68-0.666-1.493-0.997-2.449-0.997c-0.953,0-1.768,0.331-2.441,0.992
			c-0.676,0.663-1.013,1.465-1.013,2.401c0,0.939,0.337,1.741,1.013,2.412C143.037,45.788,143.85,46.122,144.803,46.122z
			 M143.412,41.312c0.384-0.385,0.846-0.579,1.391-0.579c0.551,0,1.017,0.191,1.396,0.578c0.384,0.386,0.573,0.851,0.573,1.398
			c0,0.555-0.189,1.026-0.573,1.41c-0.38,0.386-0.846,0.578-1.396,0.578c-0.545,0-1.008-0.192-1.391-0.578
			c-0.386-0.386-0.576-0.852-0.576-1.398C142.836,42.169,143.026,41.702,143.412,41.312z M161.499,40.822
			c0.943,0,1.559,0.418,1.775,1.192h-3.521C160.032,41.238,160.638,40.822,161.499,40.822z M163.884,52.922
			c-0.622-0.651-1.389-0.978-2.298-0.978c-0.646,0-1.215,0.177-1.71,0.526c-0.12,0.092-0.224,0.176-0.309,0.247v-2.316l0,0
			c0-0.419-0.339-0.756-0.753-0.756c-0.419,0-0.753,0.337-0.753,0.756v7.648l0,0c0,0.392,0.315,0.706,0.702,0.706
			c0.39,0,0.704-0.315,0.707-0.706h0.007v-0.203c0.313,0.339,0.66,0.576,1.05,0.712c0.353,0.133,0.716,0.197,1.086,0.197
			c0.903,0,1.665-0.329,2.279-0.99c0.613-0.662,0.924-1.475,0.924-2.439C164.818,54.373,164.506,53.569,163.884,52.922z
			 M162.695,56.696c-0.356,0.363-0.798,0.543-1.328,0.543c-0.527,0-0.972-0.175-1.325-0.53c-0.359-0.354-0.539-0.792-0.539-1.319
			c0-0.572,0.173-1.037,0.52-1.396c0.346-0.362,0.793-0.542,1.343-0.542c0.525,0,0.967,0.18,1.326,0.542
			c0.356,0.363,0.536,0.811,0.536,1.345C163.228,55.879,163.051,56.33,162.695,56.696z M155.276,52.724v5.326h-0.001
			c-0.002,0.392-0.324,0.706-0.721,0.706c-0.397,0-0.721-0.317-0.721-0.706c0-0.028,0.003-0.051,0.006-0.074v-0.292
			c-0.13,0.173-0.237,0.302-0.314,0.385c-0.421,0.457-1.023,0.688-1.809,0.688c-0.521,0-0.99-0.108-1.414-0.333
			c-0.422-0.22-0.732-0.516-0.931-0.885c-0.175-0.327-0.283-0.729-0.321-1.208c-0.012-0.162-0.02-0.583-0.02-1.262v-2.345
			c0-0.002,0-0.002,0-0.002c0-0.416,0.345-0.757,0.771-0.757c0.425,0,0.769,0.34,0.769,0.757c0,0.04-0.005,0.083-0.012,0.122v2.225
			c0,0.441,0.002,0.706,0.012,0.801c0,0.309,0.06,0.583,0.174,0.827c0.196,0.426,0.61,0.638,1.235,0.638
			c1.171,0,1.758-0.756,1.758-2.266V52.72l0,0c0-0.415,0.346-0.755,0.77-0.755C154.929,51.965,155.276,52.308,155.276,52.724z
			 M155.708,37.097c-0.407,0-0.74,0.333-0.74,0.747l0,0v2.241c-0.355-0.309-0.709-0.518-1.06-0.632
			c-0.29-0.094-0.602-0.139-0.937-0.139c-0.903,0-1.663,0.323-2.274,0.971s-0.917,1.452-0.917,2.411
			c0,0.963,0.304,1.774,0.913,2.436c0.609,0.662,1.357,0.99,2.243,0.99c0.736,0,1.343-0.206,1.828-0.617
			c0.112-0.097,0.203-0.192,0.278-0.29v0.149h0.007l0,0c0,0.392,0.313,0.709,0.698,0.709c0.387,0,0.697-0.317,0.697-0.709l0,0l0,0
			v-7.522l0,0C156.447,37.43,156.114,37.097,155.708,37.097z M154.495,44.068c-0.348,0.361-0.785,0.541-1.316,0.541
			c-0.509,0-0.942-0.18-1.297-0.541c-0.353-0.361-0.529-0.807-0.529-1.333c0-0.543,0.175-0.997,0.527-1.363s0.783-0.549,1.299-0.549
			c0.545,0,0.989,0.178,1.328,0.532c0.341,0.354,0.513,0.809,0.513,1.37C155.02,43.26,154.845,43.71,154.495,44.068z M147.15,57.836
			c0,0.381-0.307,0.688-0.688,0.688h-3.803c-0.379,0-0.688-0.309-0.688-0.688c0-0.38,0.309-0.688,0.688-0.688
			c0.011,0,1.165,0,1.165,0v-5.853h-1.165v-0.007c-0.379,0-0.688-0.309-0.688-0.687c0-0.38,0.309-0.688,0.688-0.688h1.975
			c0.38,0,0.688,0.309,0.688,0.688c0,0.012-0.003,0.021-0.003,0.03l0.001,0.004v6.514c0,0,1.134,0,1.145,0
			C146.844,57.149,147.15,57.456,147.15,57.836z M135.745,53.956c-0.366,0.38-0.551,0.882-0.551,1.384s0.185,1.002,0.551,1.384
			c0.732,0.764,1.926,0.764,2.66,0c0.274-0.284,0.901-0.284,1.195,0c0.295,0.285,0.295,0.75,0,1.035c-0.689,0.666-1.596,1-2.505,1
			c-0.906,0-1.812-0.334-2.503-1c-1.38-1.335-1.38-3.506,0-4.837c1.381-1.333,3.629-1.333,5.008,0c0.295,0.284,0.295,0.749,0,1.036
			c-0.294,0.285-0.921,0.285-1.195,0C137.671,53.193,136.478,53.193,135.745,53.956z M135.723,41.322
			c-0.363,0.382-0.544,0.882-0.544,1.384s0.181,1.002,0.544,1.384c0.726,0.763,1.906,0.763,2.634,0c0.271-0.286,0.892-0.286,1.183,0
			c0.292,0.285,0.292,0.747,0,1.034c-0.684,0.666-1.582,0.998-2.48,0.998c-0.896,0-1.793-0.332-2.476-0.998
			c-1.367-1.334-1.367-3.503,0-4.835c1.367-1.334,3.59-1.334,4.956,0c0.294,0.284,0.294,0.748,0,1.033
			c-0.291,0.287-0.911,0.287-1.183,0C137.629,40.56,136.448,40.56,135.723,41.322z M164.401,45.185c0.305-0.296,0.305-0.774,0-1.071
			c-0.303-0.296-0.858-0.296-1.14,0v-0.002c-0.36,0.321-0.862,0.485-1.303,0.498c-0.018,0-0.228,0-0.244,0
			c-0.52,0-0.96-0.12-1.312-0.36c-0.356-0.24-0.577-0.58-0.662-0.991h4.268c0.477,0,0.861-0.396,0.861-0.883
			c0-0.023-0.004-0.042-0.004-0.063c0-0.005,0.004-0.01,0.004-0.014c-0.092-0.781-0.4-1.426-0.912-1.973
			c-0.633-0.674-1.429-1.011-2.389-1.011c-0.939,0-1.736,0.331-2.408,0.999c-0.675,0.666-1.011,1.478-1.011,2.435
			c0,0.976,0.326,1.781,0.976,2.419c0.647,0.64,1.477,0.957,2.478,0.957c0.004,0,0.007,0,0.007,0c0.071,0,0.318,0,0.324,0
			c0.896,0,1.792-0.319,2.491-0.961L164.401,45.185z"/>
	</g>
	<g>
		<path d="M116.597,75.542c1.016,0,1.7,0.387,2.033,0.622c0.185,0.141,0.192,0.315,0.071,0.509l-0.157,0.253
			c-0.124,0.202-0.29,0.221-0.501,0.088c-0.271-0.175-0.762-0.438-1.403-0.438c-1.359,0-2.087,0.99-2.087,2.139
			c0,1.167,0.755,2.229,2.098,2.229c0.702,0,1.236-0.334,1.524-0.544c0.193-0.14,0.369-0.14,0.51,0.062l0.175,0.235
			c0.132,0.177,0.124,0.359-0.052,0.509c-0.352,0.282-1.096,0.771-2.202,0.771c-1.955,0-3.22-1.41-3.22-3.244
			C113.386,76.93,114.711,75.542,116.597,75.542z"/>
		<path d="M121.876,77.296c1.359,0,2.465,0.975,2.465,2.342c0,1.377-1.107,2.342-2.465,2.342c-1.358,0-2.455-0.965-2.455-2.342
			C119.421,78.271,120.516,77.296,121.876,77.296z M121.876,81.033c0.728,0,1.334-0.56,1.334-1.394c0-0.824-0.606-1.395-1.334-1.395
			s-1.325,0.57-1.325,1.395C120.551,80.474,121.148,81.033,121.876,81.033z"/>
		<path d="M126.928,77.296c0.981,0,1.306,0.641,1.306,0.641h0.018c0,0-0.018-0.113-0.018-0.253v-1.667
			c0-0.237,0.124-0.368,0.359-0.368h0.386c0.237,0,0.359,0.131,0.359,0.368v5.491c0,0.244-0.122,0.368-0.359,0.368h-0.324
			c-0.236,0-0.359-0.113-0.359-0.334v-0.175c0-0.086,0.018-0.157,0.018-0.157h-0.018c0,0-0.377,0.77-1.404,0.77
			c-1.21,0-1.989-0.954-1.989-2.342C124.901,78.218,125.744,77.296,126.928,77.296z M127.138,81.044
			c0.578,0,1.122-0.421,1.122-1.413c0-0.693-0.359-1.377-1.115-1.377c-0.604,0-1.122,0.5-1.122,1.386
			C126.022,80.49,126.479,81.044,127.138,81.044z"/>
		<path d="M132.461,77.296c1.271,0,1.983,0.903,1.983,2.132c0,0.191-0.167,0.376-0.386,0.376h-2.729
			c0.069,0.81,0.668,1.228,1.341,1.228c0.412,0,0.756-0.157,0.966-0.29c0.219-0.104,0.377-0.077,0.491,0.122l0.105,0.175
			c0.106,0.202,0.071,0.379-0.121,0.492c-0.29,0.185-0.816,0.446-1.518,0.446c-1.483,0-2.403-1.068-2.403-2.343
			C130.189,78.262,131.118,77.296,132.461,77.296z M133.338,79.131c-0.018-0.623-0.394-0.991-0.902-0.991
			c-0.57,0-0.975,0.394-1.079,0.991H133.338z"/>
		<path d="M140.461,75.542c1.017,0,1.7,0.387,2.034,0.622c0.185,0.141,0.192,0.315,0.071,0.509l-0.158,0.253
			c-0.123,0.202-0.29,0.221-0.5,0.088c-0.271-0.175-0.763-0.438-1.403-0.438c-1.359,0-2.087,0.99-2.087,2.139
			c0,1.167,0.755,2.229,2.098,2.229c0.701,0,1.236-0.334,1.524-0.544c0.192-0.14,0.368-0.14,0.509,0.062l0.176,0.235
			c0.132,0.177,0.123,0.359-0.052,0.509c-0.352,0.282-1.097,0.771-2.202,0.771c-1.956,0-3.22-1.41-3.22-3.244
			C137.251,76.93,138.575,75.542,140.461,75.542z"/>
		<path d="M143.591,76.017c0-0.237,0.123-0.368,0.359-0.368h0.388c0.236,0,0.359,0.131,0.359,0.368v4.379
			c0,0.438,0.185,0.516,0.351,0.534c0.158,0.018,0.272,0.114,0.272,0.315v0.299c0,0.229-0.105,0.378-0.367,0.378
			c-0.598,0-1.36-0.159-1.36-1.441v-4.464H143.591z"/>
		<path d="M145.989,77.771c0-0.235,0.132-0.368,0.368-0.368h0.377c0.247,0,0.368,0.133,0.368,0.368v2.279
			c0,0.544,0.141,0.912,0.692,0.912c0.809,0,1.254-0.709,1.254-1.509v-1.685c0-0.235,0.123-0.368,0.368-0.368h0.377
			c0.238,0,0.369,0.133,0.369,0.368v3.736c0,0.246-0.133,0.37-0.369,0.37h-0.342c-0.236,0-0.359-0.124-0.359-0.37v-0.261
			c0-0.105,0.018-0.2,0.018-0.2h-0.018c-0.211,0.454-0.79,0.938-1.553,0.938c-0.955,0-1.553-0.483-1.553-1.701v-2.51H145.989z"/>
		<path d="M151.268,76.017c0-0.237,0.133-0.368,0.37-0.368h0.376c0.244,0,0.368,0.131,0.368,0.368v1.623
			c0,0.219-0.025,0.378-0.025,0.378h0.017c0,0,0.394-0.719,1.369-0.719c1.184,0,1.973,0.955,1.973,2.332
			c0,1.43-0.886,2.351-2.044,2.351c-1.009,0-1.369-0.753-1.369-0.753h-0.017c0,0,0.017,0.069,0.017,0.191v0.143
			c0,0.191-0.123,0.315-0.367,0.315h-0.301c-0.233,0-0.366-0.124-0.366-0.368V76.017L151.268,76.017z M153.454,81.044
			c0.622,0,1.131-0.502,1.131-1.388c0-0.841-0.456-1.402-1.105-1.402c-0.579,0-1.13,0.429-1.13,1.386
			C152.347,80.367,152.727,81.044,153.454,81.044z"/>
		<path d="M158.516,76.051c-0.061-0.246,0.051-0.402,0.315-0.402h0.439c0.211,0,0.343,0.105,0.396,0.324l0.902,3.982
			c0.079,0.351,0.098,0.658,0.098,0.658h0.018c0,0,0.034-0.299,0.132-0.658l1.035-3.991c0.061-0.21,0.193-0.315,0.41-0.315h0.299
			c0.217,0,0.349,0.105,0.395,0.315l1.026,3.991c0.099,0.359,0.132,0.658,0.132,0.658h0.018c0,0,0.026-0.308,0.106-0.658
			l0.957-3.982c0.042-0.219,0.174-0.324,0.401-0.324h0.414c0.263,0,0.387,0.158,0.325,0.402l-1.43,5.519
			c-0.061,0.21-0.191,0.307-0.412,0.307h-0.62c-0.221,0-0.352-0.106-0.404-0.316l-0.885-3.367c-0.105-0.401-0.166-0.815-0.166-0.815
			h-0.027c0,0-0.062,0.41-0.158,0.815l-0.894,3.367c-0.053,0.21-0.185,0.316-0.403,0.316h-0.631c-0.221,0-0.353-0.106-0.403-0.316
			L158.516,76.051z"/>
		<path d="M169.089,77.296c1.359,0,2.464,0.975,2.464,2.342c0,1.377-1.107,2.342-2.464,2.342c-1.358,0-2.456-0.965-2.456-2.342
			C166.633,78.271,167.729,77.296,169.089,77.296z M169.089,81.033c0.728,0,1.333-0.56,1.333-1.394c0-0.824-0.605-1.395-1.333-1.395
			s-1.326,0.57-1.326,1.395C167.763,80.474,168.359,81.033,169.089,81.033z"/>
		<path d="M172.375,77.771c0-0.235,0.122-0.368,0.359-0.368h0.343c0.236,0,0.368,0.133,0.368,0.368v0.422
			c0,0.167-0.025,0.308-0.025,0.308h0.017c0.177-0.534,0.667-1.133,1.3-1.133c0.247,0,0.332,0.123,0.332,0.369v0.343
			c0,0.234-0.139,0.366-0.377,0.366c-0.815,0-1.211,0.808-1.211,1.623v1.439c0,0.244-0.122,0.368-0.359,0.368h-0.383
			c-0.239,0-0.359-0.124-0.359-0.368v-3.737H172.375z"/>
		<path d="M175.658,76.017c0-0.237,0.126-0.368,0.359-0.368h0.389c0.236,0,0.359,0.131,0.359,0.368v4.379
			c0,0.438,0.186,0.516,0.352,0.534c0.157,0.018,0.271,0.114,0.271,0.315v0.299c0,0.229-0.105,0.378-0.366,0.378
			c-0.599,0-1.36-0.159-1.36-1.441v-4.464H175.658z"/>
		<path d="M179.883,77.296c0.982,0,1.307,0.641,1.307,0.641h0.019c0,0-0.019-0.113-0.019-0.253v-1.667
			c0-0.237,0.123-0.368,0.359-0.368h0.385c0.237,0,0.359,0.131,0.359,0.368v5.491c0,0.244-0.122,0.368-0.359,0.368h-0.324
			c-0.235,0-0.359-0.113-0.359-0.334v-0.175c0-0.086,0.017-0.157,0.017-0.157h-0.017c0,0-0.378,0.77-1.402,0.77
			c-1.211,0-1.991-0.954-1.991-2.342C177.856,78.218,178.697,77.296,179.883,77.296z M180.094,81.044
			c0.578,0,1.121-0.421,1.121-1.413c0-0.693-0.36-1.377-1.114-1.377c-0.605,0-1.121,0.5-1.121,1.386
			C178.979,80.49,179.436,81.044,180.094,81.044z"/>
	</g>
	<g>
		<path fill="#339847" d="M286.284,48.937c0,18.192-14.748,32.938-32.938,32.938c-18.193,0-32.94-14.746-32.94-32.938
			s14.747-32.938,32.94-32.938C271.533,15.999,286.284,30.744,286.284,48.937z"/>
		<path fill="#B1D9AD" d="M236.912,62.288c0,0.49-0.118,0.887-0.607,0.897v0.007c-0.261,0.023,0.062,0.035-0.148,0.035
			c-1.65,0-2.819-0.362-3.501-1.089c-0.687-0.726-1.027-1.957-1.027-3.691V52.53c0-0.932-0.138-1.63-0.411-2.088
			c-0.271-0.455-0.744-0.78-1.417-0.98c-0.343-0.136-0.587-0.465-0.587-0.854c0-0.385,0.237-0.714,0.569-0.854v-0.002
			c1.231-0.325,1.846-1.293,1.846-2.903V38.54c0-1.567,0.351-2.699,1.058-3.392c0.702-0.694,1.859-1.042,3.467-1.042h0.149v0.001
			c0.505,0.002,0.641,0.412,0.641,0.918c0,0.507-0.136,0.632-0.641,0.637v0.011c-1.209,0.022-2.023,0.226-2.444,0.615
			c-0.418,0.388-0.631,1.141-0.631,2.256v6.433c0,0.724-0.095,1.394-0.283,2.002c-0.22,0.684-0.783,1.252-1.688,1.705
			c0.726,0.389,1.236,0.861,1.531,1.419c0.293,0.557,0.44,1.347,0.44,2.368v6.193c0,1.197,0.2,1.994,0.599,2.39
			c0.4,0.398,1.229,0.599,2.479,0.608v0.011C236.79,61.687,236.912,61.798,236.912,62.288z"/>
		<path fill="#B1D9AD" d="M270.38,61.673v-0.014c1.255-0.012,2.079-0.21,2.478-0.609c0.402-0.395,0.603-1.191,0.603-2.39v-6.193
			c0-1.021,0.146-1.808,0.44-2.367c0.295-0.557,0.804-1.027,1.53-1.418c-0.904-0.453-1.469-1.021-1.689-1.705
			c-0.19-0.609-0.281-1.278-0.281-2.002V38.54c0-1.115-0.211-1.869-0.635-2.256c-0.417-0.391-1.234-0.594-2.442-0.615v-0.012
			c-0.503-0.005-0.914-0.131-0.914-0.636c0-0.507,0.409-0.915,0.914-0.917v-0.002h0.147c1.611,0,2.769,0.348,3.474,1.042
			c0.7,0.693,1.053,1.825,1.053,3.393v6.309c0,1.61,0.618,2.577,1.848,2.903v0.002c0.334,0.139,0.567,0.466,0.567,0.853
			c0,0.391-0.24,0.721-0.586,0.855c-0.672,0.199-1.146,0.527-1.418,0.979c-0.271,0.458-0.411,1.157-0.411,2.088v5.917
			c0,1.735-0.339,2.967-1.023,3.692c-0.686,0.726-1.853,1.089-3.504,1.089c-0.211,0,0.115-0.012-0.149-0.036v-0.007
			c-0.485-0.01-0.879-0.405-0.879-0.896C269.501,61.793,269.895,61.687,270.38,61.673z"/>
		<path fill="#FFFFFF" d="M248.882,45.85c0.957,0,1.772-0.335,2.452-1.004c0.676-0.668,1.015-1.473,1.015-2.41
			c0-0.935-0.339-1.733-1.018-2.398c-0.68-0.665-1.494-0.997-2.449-0.997c-0.953,0-1.769,0.332-2.442,0.993
			c-0.675,0.664-1.01,1.466-1.01,2.402c0,0.939,0.335,1.742,1.01,2.41C247.115,45.515,247.929,45.85,248.882,45.85z M247.491,41.041
			c0.384-0.388,0.845-0.58,1.391-0.58c0.552,0,1.018,0.19,1.399,0.578c0.383,0.386,0.571,0.853,0.571,1.4
			c0,0.555-0.188,1.025-0.571,1.41c-0.382,0.385-0.847,0.577-1.399,0.577c-0.544,0-1.007-0.192-1.391-0.577
			c-0.387-0.387-0.576-0.852-0.576-1.398C246.915,41.897,247.104,41.429,247.491,41.041z M265.577,40.547
			c0.942,0,1.56,0.419,1.777,1.193h-3.522C264.111,40.966,264.715,40.547,265.577,40.547z M267.961,52.648
			c-0.62-0.651-1.387-0.975-2.296-0.975c-0.647,0-1.218,0.174-1.71,0.521c-0.122,0.094-0.224,0.177-0.309,0.248v-2.316l0,0
			c0-0.417-0.337-0.753-0.754-0.753c-0.419,0-0.755,0.336-0.755,0.753v7.651l0,0c0.002,0.391,0.317,0.706,0.705,0.706
			c0.391,0,0.706-0.317,0.709-0.706h0.007v-0.205c0.309,0.338,0.658,0.575,1.048,0.714c0.352,0.129,0.714,0.197,1.084,0.197
			c0.904,0,1.665-0.332,2.281-0.994c0.615-0.658,0.923-1.472,0.923-2.436C268.896,54.102,268.586,53.298,267.961,52.648z
			 M266.771,56.422c-0.353,0.363-0.797,0.546-1.326,0.546c-0.527,0-0.972-0.178-1.326-0.53c-0.359-0.354-0.539-0.792-0.539-1.319
			c0-0.573,0.175-1.04,0.521-1.399c0.345-0.359,0.792-0.541,1.342-0.541c0.525,0,0.968,0.182,1.328,0.541
			c0.354,0.363,0.535,0.811,0.535,1.345C267.307,55.608,267.127,56.059,266.771,56.422z M259.356,52.45v5.328h-0.004
			c0,0.391-0.322,0.706-0.719,0.706c-0.398,0-0.723-0.319-0.723-0.709c0-0.027,0.004-0.048,0.007-0.071v-0.295
			c-0.132,0.173-0.237,0.302-0.315,0.387c-0.421,0.458-1.022,0.688-1.808,0.688c-0.52,0-0.99-0.112-1.411-0.332
			c-0.423-0.221-0.736-0.518-0.933-0.886c-0.177-0.329-0.281-0.732-0.322-1.208c-0.012-0.162-0.019-0.585-0.019-1.262V52.45
			c0-0.002,0-0.002,0-0.002c0-0.415,0.344-0.753,0.768-0.753c0.428,0,0.769,0.334,0.769,0.753c0,0.043-0.005,0.083-0.012,0.124
			v2.222c0,0.44,0.002,0.709,0.012,0.804c0,0.307,0.058,0.58,0.175,0.826c0.196,0.424,0.61,0.638,1.238,0.638
			c1.17,0,1.757-0.758,1.757-2.268V52.45l0,0c0-0.417,0.344-0.753,0.767-0.753C259.01,51.697,259.356,52.033,259.356,52.45z
			 M259.787,36.822c-0.41,0-0.739,0.336-0.739,0.747l0,0v2.242c-0.356-0.309-0.709-0.518-1.062-0.63
			c-0.289-0.095-0.601-0.14-0.937-0.14c-0.902,0-1.662,0.325-2.272,0.973c-0.614,0.647-0.916,1.452-0.916,2.41
			c0,0.964,0.302,1.774,0.912,2.437c0.611,0.662,1.354,0.991,2.242,0.991c0.736,0,1.344-0.206,1.826-0.618
			c0.112-0.096,0.206-0.192,0.28-0.29v0.149h0.007l0,0c0,0.392,0.312,0.709,0.697,0.709c0.387,0,0.697-0.317,0.697-0.709l0,0l0,0
			v-7.522l0,0C260.526,37.158,260.194,36.822,259.787,36.822z M258.572,43.795c-0.349,0.361-0.786,0.54-1.315,0.54
			c-0.509,0-0.943-0.181-1.296-0.542s-0.532-0.806-0.532-1.332c0-0.543,0.176-0.996,0.528-1.363c0.352-0.366,0.782-0.549,1.3-0.549
			c0.544,0,0.987,0.178,1.329,0.532c0.34,0.353,0.511,0.809,0.511,1.37C259.097,42.987,258.922,43.436,258.572,43.795z
			 M251.229,57.563c0,0.38-0.309,0.687-0.688,0.687h-3.803c-0.38,0-0.688-0.309-0.688-0.687s0.309-0.687,0.688-0.687
			c0.011,0,1.165,0,1.165,0v-5.854h-1.165v-0.007c-0.38,0-0.688-0.309-0.688-0.688c0-0.381,0.309-0.689,0.688-0.689h1.975
			c0.38,0,0.688,0.309,0.688,0.689c0,0.011-0.004,0.021-0.004,0.029v0.002v6.518c0,0,1.137,0,1.146,0
			C250.921,56.877,251.229,57.186,251.229,57.563z M239.822,53.682c-0.366,0.383-0.548,0.882-0.548,1.384s0.182,1.004,0.548,1.387
			c0.736,0.762,1.927,0.762,2.659,0c0.276-0.288,0.902-0.288,1.197,0c0.295,0.282,0.295,0.748,0,1.033
			c-0.69,0.665-1.598,0.999-2.505,0.999s-1.812-0.334-2.501-0.999c-1.381-1.335-1.381-3.506,0-4.835c1.38-1.333,3.626-1.333,5.006,0
			c0.297,0.286,0.297,0.748,0,1.032c-0.295,0.285-0.919,0.285-1.195,0C241.749,52.918,240.555,52.918,239.822,53.682z
			 M239.802,41.049c-0.364,0.383-0.546,0.883-0.546,1.383c0,0.502,0.182,1.002,0.546,1.386c0.727,0.763,1.906,0.763,2.633,0
			c0.271-0.286,0.894-0.286,1.185,0c0.292,0.285,0.292,0.747,0,1.031c-0.683,0.668-1.58,1.001-2.48,1.001
			c-0.897,0-1.793-0.332-2.477-1.001c-1.366-1.332-1.366-3.5,0-4.834c1.365-1.334,3.589-1.334,4.957,0
			c0.294,0.284,0.294,0.746,0,1.033c-0.291,0.284-0.91,0.284-1.185,0C241.708,40.285,240.528,40.285,239.802,41.049z M268.48,44.912
			c0.305-0.296,0.305-0.775,0-1.072c-0.304-0.297-0.858-0.295-1.144,0l0.004-0.002c-0.359,0.321-0.861,0.487-1.306,0.497
			c-0.018,0-0.225,0-0.241,0c-0.522,0-0.96-0.119-1.312-0.361c-0.358-0.239-0.58-0.58-0.661-0.989h4.267
			c0.475,0,0.861-0.396,0.861-0.885c0-0.021-0.003-0.041-0.003-0.062c0-0.005,0.003-0.01,0.003-0.016
			c-0.095-0.781-0.4-1.424-0.916-1.972c-0.631-0.675-1.424-1.011-2.388-1.011c-0.936,0-1.733,0.333-2.404,0.998
			c-0.676,0.667-1.011,1.478-1.011,2.435c0,0.977,0.325,1.782,0.977,2.419c0.647,0.64,1.476,0.957,2.476,0.957
			c0.004,0,0.007,0,0.009,0c0.067,0,0.317,0,0.324,0c0.896,0,1.791-0.319,2.491-0.961L268.48,44.912z"/>
	</g>

		<rect x="105.712" y="5.405" opacity="0.6" fill="none" stroke="#CCCBCB" stroke-miterlimit="10" enable-background="new    " width="86.831" height="86.832"/>
	<g>

			<rect x="288.729" y="1.504" transform="matrix(-0.7072 -0.707 0.707 -0.7072 490.4274 224.3218)" fill="#DF1F26" width="5.872" height="18.206"/>

			<rect x="289.144" y="1.508" transform="matrix(-0.7072 0.707 -0.707 -0.7072 506.1495 -188.3815)" fill="#DF1F26" width="5.873" height="18.205"/>
	</g>
	<g>

			<rect x="183.326" y="1.504" transform="matrix(-0.7073 -0.7069 0.7069 -0.7073 310.5011 149.7849)" fill="#DF1F26" width="5.872" height="18.206"/>

			<rect x="183.742" y="1.507" transform="matrix(-0.7071 0.7071 -0.7071 -0.7071 326.1738 -113.8971)" fill="#DF1F26" width="5.871" height="18.206"/>
	</g>
	<g>

			<rect x="81.221" y="1.503" transform="matrix(-0.7072 -0.707 0.707 -0.7072 136.1763 77.6029)" fill="#DF1F26" width="5.871" height="18.205"/>

			<rect x="81.637" y="1.509" transform="matrix(-0.7072 0.707 -0.707 -0.7072 151.8835 -41.6786)" fill="#DF1F26" width="5.871" height="18.206"/>
	</g>
</g>
</svg>
