<?xml version="1.0" encoding="utf-8"?>
<!-- Generator: Adobe Illustrator 16.0.0, SVG Export Plug-In . SVG Version: 6.00 Build 0)  -->
<!DOCTYPE svg PUBLIC "-//W3C//DTD SVG 1.1//EN" "http://www.w3.org/Graphics/SVG/1.1/DTD/svg11.dtd">
<svg version="1.1" id="Layer_1" xmlns="http://www.w3.org/2000/svg" xmlns:xlink="http://www.w3.org/1999/xlink" x="0px" y="0px"
	 width="300px" height="308px" viewBox="0 0 300 308" enable-background="new 0 0 300 308" xml:space="preserve">
<circle fill="#339933" cx="36.333" cy="8.333" r="5.333"/>
<rect x="-11.5" y="16.5" fill="#F5F6F9" stroke="#E0E0E0" stroke-miterlimit="10" width="324" height="306"/>
<g>
	<path fill="#FFFFFF" d="M81,84c0,2.209-1.791,4-4,4H35c-2.209,0-4-1.791-4-4V45c0-2.209,1.791-4,4-4h42c2.209,0,4,1.791,4,4V84z"/>
	<path fill="none" stroke="#E0E0E0" stroke-miterlimit="10" d="M81.5,83.5c0,2.209-1.791,4-4,4h-42c-2.209,0-4-1.791-4-4v-39
		c0-2.209,1.791-4,4-4h42c2.209,0,4,1.791,4,4V83.5z"/>
</g>
<g>
	<path fill="#FFFFFF" d="M263,192c0,2.209-1.791,4-4,4H95c-2.209,0-4-1.791-4-4V45c0-2.209,1.791-4,4-4h164c2.209,0,4,1.791,4,4V192
		z"/>
	<path fill="none" stroke="#E0E0E0" stroke-miterlimit="10" d="M263.5,191.5c0,2.209-1.791,4-4,4h-164c-2.209,0-4-1.791-4-4v-147
		c0-2.209,1.791-4,4-4h164c2.209,0,4,1.791,4,4V191.5z"/>
</g>
<rect y="225" fill="#333333" width="300" height="83"/>
<circle fill="#E18932" cx="275.833" cy="13.167" r="12.667"/>
<g>
	<path fill="#FFFFFF" d="M273.183,15.828c0-0.324,0.168-0.492,0.492-0.492h1.354V10.61c0-0.288,0.013-0.576,0.013-0.576h-0.024
		c0,0-0.107,0.228-0.323,0.432l-0.372,0.36c-0.24,0.216-0.479,0.216-0.695-0.024l-0.229-0.24c-0.228-0.228-0.216-0.48,0.012-0.708
		l1.512-1.451c0.191-0.167,0.372-0.251,0.623-0.251h0.504c0.324,0,0.492,0.18,0.492,0.503v6.681h1.343
		c0.324,0,0.504,0.167,0.504,0.492v0.335c0,0.336-0.18,0.504-0.504,0.504h-4.209c-0.324,0-0.492-0.168-0.492-0.504V15.828z"/>
</g>
<circle fill="#E18932" cx="178.833" cy="106.167" r="12.667"/>
<g>
	<path fill="#FFFFFF" d="M176.219,108.288l0.24-0.372c0.18-0.276,0.407-0.288,0.684-0.108c0.312,0.216,0.852,0.54,1.535,0.54
		c0.887,0,1.535-0.54,1.535-1.271c0-0.899-0.828-1.319-1.823-1.319h-0.18c-0.276,0-0.433-0.096-0.552-0.348l-0.048-0.096
		c-0.108-0.216-0.072-0.444,0.107-0.648l1.308-1.547c0.323-0.396,0.611-0.648,0.611-0.648v-0.024c0,0-0.264,0.036-0.756,0.036
		h-2.051c-0.323,0-0.491-0.168-0.491-0.492v-0.336c0-0.324,0.168-0.503,0.491-0.503h4.198c0.336,0,0.504,0.167,0.504,0.492v0.132
		c0,0.252-0.061,0.432-0.229,0.612l-1.858,2.146c1.187,0.168,2.326,1.007,2.326,2.483c0,1.451-1.091,2.794-2.998,2.794
		c-1.188,0-2.039-0.516-2.459-0.828C176.062,108.792,176.039,108.54,176.219,108.288z"/>
</g>
<circle fill="#E18932" cx="268.833" cy="268.167" r="12.667"/>
<g>
	<path fill="#FFFFFF" d="M266.219,270.288l0.24-0.372c0.18-0.276,0.407-0.288,0.684-0.108c0.312,0.216,0.852,0.54,1.535,0.54
		c0.887,0,1.535-0.54,1.535-1.271c0-0.899-0.828-1.319-1.823-1.319h-0.18c-0.276,0-0.433-0.096-0.552-0.348l-0.048-0.096
		c-0.108-0.216-0.072-0.444,0.107-0.648l1.308-1.547c0.323-0.396,0.611-0.648,0.611-0.648v-0.024c0,0-0.264,0.036-0.756,0.036
		h-2.051c-0.323,0-0.491-0.168-0.491-0.492v-0.336c0-0.324,0.168-0.503,0.491-0.503h4.198c0.336,0,0.504,0.167,0.504,0.492v0.132
		c0,0.252-0.061,0.432-0.229,0.612l-1.858,2.146c1.187,0.168,2.326,1.007,2.326,2.483c0,1.451-1.091,2.794-2.998,2.794
		c-1.188,0-2.039-0.516-2.459-0.828C266.062,270.792,266.039,270.54,266.219,270.288z"/>
</g>
<line fill="none" stroke="#E0E0E0" stroke-miterlimit="10" x1="31" y1="52.5" x2="81" y2="52.5"/>
<line fill="none" stroke="#E0E0E0" stroke-miterlimit="10" x1="31" y1="64.5" x2="81" y2="64.5"/>
<line fill="none" stroke="#E0E0E0" stroke-miterlimit="10" x1="31" y1="75.5" x2="81" y2="75.5"/>
<circle fill="#E18932" cx="37.833" cy="89.167" r="12.667"/>
<g>
	<path fill="#FFFFFF" d="M35.183,91.912c0-3.07,3.981-3.562,3.981-5.253c0-0.744-0.575-1.188-1.295-1.188
		c-0.611,0-1.043,0.372-1.259,0.636c-0.229,0.228-0.468,0.312-0.708,0.108l-0.324-0.251c-0.252-0.192-0.312-0.42-0.132-0.672
		c0.372-0.492,1.164-1.283,2.555-1.283c1.487,0,2.771,0.912,2.771,2.519c0,2.734-3.813,3.202-3.886,4.81h3.514
		c0.336,0,0.504,0.167,0.504,0.492v0.335c0,0.336-0.168,0.504-0.504,0.504h-4.677c-0.312,0-0.54-0.168-0.54-0.504V91.912z"/>
</g>
</svg>
