<?xml version="1.0" encoding="utf-8"?>
<!-- Generator: Adobe Illustrator 16.0.0, SVG Export Plug-In . SVG Version: 6.00 Build 0)  -->
<!DOCTYPE svg PUBLIC "-//W3C//DTD SVG 1.1//EN" "http://www.w3.org/Graphics/SVG/1.1/DTD/svg11.dtd">
<svg version="1.1" id="Layer_1" xmlns="http://www.w3.org/2000/svg" xmlns:xlink="http://www.w3.org/1999/xlink" x="0px" y="0px"
	 width="387.542px" height="216.167px" viewBox="0 0 387.542 216.167" enable-background="new 0 0 387.542 216.167"
	 xml:space="preserve">
<path fill="#F38F2F" d="M64.167-11.167h-65l-3,3h-8l-3-3h-10c-1.65,0-3,1.537-3,3.188V8.02c0,1.65,1.35,2.813,3,2.813h10l3,3h8l3-3
	h65c1.65,0,3-1.163,3-2.813V-7.979C67.167-9.63,65.816-11.167,64.167-11.167"/>
<path fill="#F38F2F" d="M355.167-11.167h-65l-3,3h-8l-3-3h-10c-1.65,0-3,1.537-3,3.188V8.02c0,1.65,1.35,2.813,3,2.813h10l3,3h8l3-3
	h65c1.65,0,3-1.163,3-2.813V-7.979C358.167-9.63,356.817-11.167,355.167-11.167"/>
<path fill="#F38F2F" d="M64.167,36.833h-65l-3,3h-8l-3-3h-10c-1.65,0-3,1.537-3,3.188V56.02c0,1.65,1.35,2.813,3,2.813h10l3,3h8l3-3
	h65c1.65,0,3-1.163,3-2.813V40.021C67.167,38.37,65.816,36.833,64.167,36.833"/>
<path fill="#F38F2F" d="M258.167-11.167h-65l-3,3h-8l-3-3h-10c-1.65,0-3,1.537-3,3.188V8.02c0,1.65,1.35,2.813,3,2.813h30l3,3h8l3-3
	h45c1.65,0,3-1.163,3-2.813V-7.979C261.167-9.63,259.817-11.167,258.167-11.167"/>
<path fill="#F38F2F" d="M275.167,36.833h-62l-3,3h-8l-3-3h-30c-1.65,0-3,1.537-3,3.188V56.02c0,1.65,1.35,2.813,3,2.813h30l3,3h8
	l3-3h62c1.65,0,3-1.163,3-2.813V40.021C278.167,38.37,276.817,36.833,275.167,36.833"/>
<path fill="#F38F2F" d="M355.167,36.833h-45l-3,3h-8l-3-3h-13c-1.65,0-3,1.537-3,3.188V56.02c0,1.65,1.35,2.813,3,2.813h13l3,3h8
	l3-3h45c1.65,0,3-1.163,3-2.813V40.021C358.167,38.37,356.817,36.833,355.167,36.833"/>
<path fill="#F38F2F" d="M161.167-11.167h-65l-3,3h-8l-3-3h-10c-1.65,0-3,1.537-3,3.188V8.02c0,1.65,1.35,2.813,3,2.813h10l3,3h8l3-3
	h65c1.65,0,3-1.163,3-2.813V-7.979C164.167-9.63,162.817-11.167,161.167-11.167"/>
<path fill="#F38F2F" d="M161.167,36.833h-65l-3,3h-8l-3-3h-10c-1.65,0-3,1.537-3,3.188V56.02c0,1.65,1.35,2.813,3,2.813h10l3,3h8
	l3-3h65c1.65,0,3-1.163,3-2.813V40.021C164.167,38.37,162.817,36.833,161.167,36.833"/>
<path fill="#F38F2F" d="M44.167,12.833h-45l-3,3h-8l-3-3h-10c-1.65,0-3,1.537-3,3.188V32.02c0,1.65,1.35,2.813,3,2.813h10l3,3h8l3-3
	h45c1.65,0,3-1.163,3-2.813V16.021C47.167,14.37,45.816,12.833,44.167,12.833"/>
<path fill="#F38F2F" d="M258.167,12.833h-45l-3,3h-8l-3-3h-10c-1.65,0-3,1.537-3,3.188V32.02c0,1.65,1.35,2.813,3,2.813h10l3,3h8
	l3-3h45c1.65,0,3-1.163,3-2.813V16.021C261.167,14.37,259.817,12.833,258.167,12.833"/>
<path fill="#F38F2F" d="M335.167,12.833h-45l-3,3h-8l-3-3h-10c-1.65,0-3,1.537-3,3.188V32.02c0,1.65,1.35,2.813,3,2.813h30l3,3h8
	l3-3h25c1.65,0,3-1.163,3-2.813V16.021C338.167,14.37,336.817,12.833,335.167,12.833"/>
<path fill="#F38F2F" d="M181.167,12.833h-85l-3,3h-8l-3-3h-30c-1.65,0-3,1.537-3,3.188V32.02c0,1.65,1.35,2.813,3,2.813h30l3,3h8
	l3-3h85c1.65,0,3-1.163,3-2.813V16.021C184.167,14.37,182.817,12.833,181.167,12.833"/>
<path fill="#F38F2F" d="M44.167,60.833h-45l-3,3h-8l-3-3h-10c-1.65,0-3,1.537-3,3.188V80.02c0,1.65,1.35,2.813,3,2.813h10l3,3h8l3-3
	h45c1.65,0,3-1.163,3-2.813V64.021C47.167,62.37,45.816,60.833,44.167,60.833"/>
<path fill="#F38F2F" d="M452.167-11.167h-65l-3,3h-8l-3-3h-10c-1.65,0-3,1.537-3,3.188V8.02c0,1.65,1.35,2.813,3,2.813h10l3,3h8l3-3
	h65c1.65,0,3-1.163,3-2.813V-7.979C455.167-9.63,453.817-11.167,452.167-11.167"/>
<path fill="#F38F2F" d="M452.167,36.833h-65l-3,3h-8l-3-3h-10c-1.65,0-3,1.537-3,3.188V56.02c0,1.65,1.35,2.813,3,2.813h10l3,3h8
	l3-3h65c1.65,0,3-1.163,3-2.813V40.021C455.167,38.37,453.817,36.833,452.167,36.833"/>
<path fill="#F38F2F" d="M64.167,84.833h-65l-3,3h-8l-3-3h-10c-1.65,0-3,1.537-3,3.188v15.999c0,1.65,1.35,2.813,3,2.813h10l3,3h8
	l3-3h65c1.65,0,3-1.163,3-2.813V88.021C67.167,86.37,65.816,84.833,64.167,84.833"/>
<path fill="#F38F2F" d="M275.167,84.833h-62l-3,3h-8l-3-3h-30c-1.65,0-3,1.537-3,3.188v15.999c0,1.65,1.35,2.813,3,2.813h30l3,3h8
	l3-3h62c1.65,0,3-1.163,3-2.813V88.021C278.167,86.37,276.817,84.833,275.167,84.833"/>
<path fill="#F38F2F" d="M355.167,84.833h-45l-3,3h-8l-3-3h-13c-1.65,0-3,1.537-3,3.188v15.999c0,1.65,1.35,2.813,3,2.813h13l3,3h8
	l3-3h45c1.65,0,3-1.163,3-2.813V88.021C358.167,86.37,356.817,84.833,355.167,84.833"/>
<path fill="#F38F2F" d="M161.167,84.833h-65l-3,3h-8l-3-3h-10c-1.65,0-3,1.537-3,3.188v15.999c0,1.65,1.35,2.813,3,2.813h10l3,3h8
	l3-3h65c1.65,0,3-1.163,3-2.813V88.021C164.167,86.37,162.817,84.833,161.167,84.833"/>
<path fill="#F38F2F" d="M452.167,84.833h-65l-3,3h-8l-3-3h-10c-1.65,0-3,1.537-3,3.188v15.999c0,1.65,1.35,2.813,3,2.813h10l3,3h8
	l3-3h65c1.65,0,3-1.163,3-2.813V88.021C455.167,86.37,453.817,84.833,452.167,84.833"/>
<path fill="#F38F2F" d="M64.167,132.833h-45l-3,3h-8l-3-3h-30c-1.65,0-3,1.537-3,3.188v15.998c0,1.65,1.35,2.813,3,2.813h10l3,3h8
	l3-3h65c1.65,0,3-1.163,3-2.813v-15.998C67.167,134.37,65.816,132.833,64.167,132.833"/>
<path fill="#F38F2F" d="M275.167,132.833h-42l-3,3h-8l-3-3h-50c-1.65,0-3,1.537-3,3.188v15.998c0,1.65,1.35,2.813,3,2.813h30l3,3h8
	l3-3h62c1.65,0,3-1.163,3-2.813v-15.998C278.167,134.37,276.817,132.833,275.167,132.833"/>
<path fill="#F38F2F" d="M355.167,132.833h-50l-3,3h-8l-3-3h-8c-1.65,0-3,1.537-3,3.188v15.998c0,1.65,1.35,2.813,3,2.813h13l3,3h8
	l3-3h45c1.65,0,3-1.163,3-2.813v-15.998C358.167,134.37,356.817,132.833,355.167,132.833"/>
<path fill="#F38F2F" d="M161.167,132.833h-45l-3,3h-8l-3-3h-30c-1.65,0-3,1.537-3,3.188v15.998c0,1.65,1.35,2.813,3,2.813h10l3,3h8
	l3-3h65c1.65,0,3-1.163,3-2.813v-15.998C164.167,134.37,162.817,132.833,161.167,132.833"/>
<path fill="#F38F2F" d="M452.167,132.833h-45l-3,3h-8l-3-3h-30c-1.65,0-3,1.537-3,3.188v15.998c0,1.65,1.35,2.813,3,2.813h10l3,3h8
	l3-3h65c1.65,0,3-1.163,3-2.813v-15.998C455.167,134.37,453.817,132.833,452.167,132.833"/>
<path fill="#F38F2F" d="M64.167,180.833h-59l-3,3h-8l-3-3h-16c-1.65,0-3,1.537-3,3.188v15.998c0,1.65,1.35,2.813,3,2.813h10l3,3h8
	l3-3h65c1.65,0,3-1.163,3-2.813v-15.998C67.167,182.37,65.816,180.833,64.167,180.833"/>
<path fill="#F38F2F" d="M275.167,180.833h-56l-3,3h-8l-3-3h-36c-1.65,0-3,1.537-3,3.188v15.998c0,1.65,1.35,2.813,3,2.813h30l3,3h8
	l3-3h62c1.65,0,3-1.163,3-2.813v-15.998C278.167,182.37,276.817,180.833,275.167,180.833"/>
<path fill="#F38F2F" d="M355.167,180.833h-50l-3,3h-8l-3-3h-8c-1.65,0-3,1.537-3,3.188v15.998c0,1.65,1.35,2.813,3,2.813h13l3,3h8
	l3-3h45c1.65,0,3-1.163,3-2.813v-15.998C358.167,182.37,356.817,180.833,355.167,180.833"/>
<path fill="#F38F2F" d="M161.167,180.833h-59l-3,3h-8l-3-3h-16c-1.65,0-3,1.537-3,3.188v15.998c0,1.65,1.35,2.813,3,2.813h10l3,3h8
	l3-3h65c1.65,0,3-1.163,3-2.813v-15.998C164.167,182.37,162.817,180.833,161.167,180.833"/>
<path fill="#F38F2F" d="M452.167,180.833h-59l-3,3h-8l-3-3h-16c-1.65,0-3,1.537-3,3.188v15.998c0,1.65,1.35,2.813,3,2.813h10l3,3h8
	l3-3h65c1.65,0,3-1.163,3-2.813v-15.998C455.167,182.37,453.817,180.833,452.167,180.833"/>
<path fill="#F38F2F" d="M432.167,12.833h-45l-3,3h-8l-3-3h-30c-1.65,0-3,1.537-3,3.188V32.02c0,1.65,1.35,2.813,3,2.813h30l3,3h8
	l3-3h45c1.65,0,3-1.163,3-2.813V16.021C435.167,14.37,433.817,12.833,432.167,12.833"/>
<path fill="#F38F2F" d="M432.167,60.833h-45l-3,3h-8l-3-3h-30c-1.65,0-3,1.537-3,3.188V80.02c0,1.65,1.35,2.813,3,2.813h30l3,3h8
	l3-3h45c1.65,0,3-1.163,3-2.813V64.021C435.167,62.37,433.817,60.833,432.167,60.833"/>
<path fill="#F38F2F" d="M258.167,60.833h-45l-3,3h-8l-3-3h-10c-1.65,0-3,1.537-3,3.188V80.02c0,1.65,1.35,2.813,3,2.813h10l3,3h8
	l3-3h45c1.65,0,3-1.163,3-2.813V64.021C261.167,62.37,259.817,60.833,258.167,60.833"/>
<path fill="#F38F2F" d="M335.167,60.833h-25l-3,3h-8l-3-3h-30c-1.65,0-3,1.537-3,3.188V80.02c0,1.65,1.35,2.813,3,2.813h30l3,3h8
	l3-3h25c1.65,0,3-1.163,3-2.813V64.021C338.167,62.37,336.817,60.833,335.167,60.833"/>
<path fill="#F38F2F" d="M181.167,60.833h-85l-3,3h-8l-3-3h-30c-1.65,0-3,1.537-3,3.188V80.02c0,1.65,1.35,2.813,3,2.813h30l3,3h8
	l3-3h85c1.65,0,3-1.163,3-2.813V64.021C184.167,62.37,182.817,60.833,181.167,60.833"/>
<path fill="#F38F2F" d="M44.167,204.833h-45l-3,3h-8l-3-3h-10c-1.65,0-3,1.537-3,3.188v15.998c0,1.65,1.35,2.813,3,2.813h10l3,3h8
	l3-3h45c1.65,0,3-1.163,3-2.813v-15.998C47.167,206.37,45.816,204.833,44.167,204.833"/>
<path fill="#F38F2F" d="M432.167,204.833h-45l-3,3h-8l-3-3h-30c-1.65,0-3,1.537-3,3.188v15.998c0,1.65,1.35,2.813,3,2.813h30l3,3h8
	l3-3h45c1.65,0,3-1.163,3-2.813v-15.998C435.167,206.37,433.817,204.833,432.167,204.833"/>
<path fill="#F38F2F" d="M258.167,204.833h-45l-3,3h-8l-3-3h-10c-1.65,0-3,1.537-3,3.188v15.998c0,1.65,1.35,2.813,3,2.813h10l3,3h8
	l3-3h45c1.65,0,3-1.163,3-2.813v-15.998C261.167,206.37,259.817,204.833,258.167,204.833"/>
<path fill="#F38F2F" d="M335.167,204.833h-25l-3,3h-8l-3-3h-30c-1.65,0-3,1.537-3,3.188v15.998c0,1.65,1.35,2.813,3,2.813h30l3,3h8
	l3-3h25c1.65,0,3-1.163,3-2.813v-15.998C338.167,206.37,336.817,204.833,335.167,204.833"/>
<path fill="#F38F2F" d="M181.167,204.833h-85l-3,3h-8l-3-3h-30c-1.65,0-3,1.537-3,3.188v15.998c0,1.65,1.35,2.813,3,2.813h30l3,3h8
	l3-3h85c1.65,0,3-1.163,3-2.813v-15.998C184.167,206.37,182.817,204.833,181.167,204.833"/>
<path fill="#F38F2F" d="M44.167,108.833h-45l-3,3h-8l-3-3h-10c-1.65,0-3,1.537-3,3.188v15.998c0,1.65,1.35,2.813,3,2.813h30l3,3h8
	l3-3h25c1.65,0,3-1.163,3-2.813v-15.998C47.167,110.37,45.816,108.833,44.167,108.833"/>
<path fill="#F38F2F" d="M432.167,108.833h-45l-3,3h-8l-3-3h-30c-1.65,0-3,1.537-3,3.188v15.998c0,1.65,1.35,2.813,3,2.813h50l3,3h8
	l3-3h25c1.65,0,3-1.163,3-2.813v-15.998C435.167,110.37,433.817,108.833,432.167,108.833"/>
<path fill="#F38F2F" d="M258.167,108.833h-45l-3,3h-8l-3-3h-10c-1.65,0-3,1.537-3,3.188v15.998c0,1.65,1.35,2.813,3,2.813h30l3,3h8
	l3-3h25c1.65,0,3-1.163,3-2.813v-15.998C261.167,110.37,259.817,108.833,258.167,108.833"/>
<path fill="#F38F2F" d="M335.167,108.833h-25l-3,3h-8l-3-3h-30c-1.65,0-3,1.537-3,3.188v15.998c0,1.65,1.35,2.813,3,2.813h25l3,3h8
	l3-3h30c1.65,0,3-1.163,3-2.813v-15.998C338.167,110.37,336.817,108.833,335.167,108.833"/>
<path fill="#F38F2F" d="M181.167,108.833h-85l-3,3h-8l-3-3h-30c-1.65,0-3,1.537-3,3.188v15.998c0,1.65,1.35,2.813,3,2.813h50l3,3h8
	l3-3h65c1.65,0,3-1.163,3-2.813v-15.998C184.167,110.37,182.817,108.833,181.167,108.833"/>
<path fill="#F38F2F" d="M44.167,156.833h-45l-3,3h-8l-3-3h-10c-1.65,0-3,1.537-3,3.188v15.998c0,1.65,1.35,2.813,3,2.813h16l3,3h8
	l3-3h39c1.65,0,3-1.163,3-2.813v-15.998C47.167,158.37,45.816,156.833,44.167,156.833"/>
<path fill="#F38F2F" d="M432.167,156.833h-45l-3,3h-8l-3-3h-30c-1.65,0-3,1.537-3,3.188v15.998c0,1.65,1.35,2.813,3,2.813h36l3,3h8
	l3-3h39c1.65,0,3-1.163,3-2.813v-15.998C435.167,158.37,433.817,156.833,432.167,156.833"/>
<path fill="#F38F2F" d="M258.167,156.833h-45l-3,3h-8l-3-3h-10c-1.65,0-3,1.537-3,3.188v15.998c0,1.65,1.35,2.813,3,2.813h16l3,3h8
	l3-3h39c1.65,0,3-1.163,3-2.813v-15.998C261.167,158.37,259.817,156.833,258.167,156.833"/>
<path fill="#F38F2F" d="M335.167,156.833h-25l-3,3h-8l-3-3h-30c-1.65,0-3,1.537-3,3.188v15.998c0,1.65,1.35,2.813,3,2.813h25l3,3h8
	l3-3h30c1.65,0,3-1.163,3-2.813v-15.998C338.167,158.37,336.817,156.833,335.167,156.833"/>
<path fill="#F38F2F" d="M181.167,156.833h-85l-3,3h-8l-3-3h-30c-1.65,0-3,1.537-3,3.188v15.998c0,1.65,1.35,2.813,3,2.813h36l3,3h8
	l3-3h79c1.65,0,3-1.163,3-2.813v-15.998C184.167,158.37,182.817,156.833,181.167,156.833"/>
<rect x="-27.833" y="-11.167" fill="none" width="483" height="241"/>
</svg>
