<?xml version="1.0" encoding="utf-8"?>
<!-- Generator: Adobe Illustrator 16.0.0, SVG Export Plug-In . SVG Version: 6.00 Build 0)  -->
<!DOCTYPE svg PUBLIC "-//W3C//DTD SVG 1.1//EN" "http://www.w3.org/Graphics/SVG/1.1/DTD/svg11.dtd">
<svg version="1.1" id="Layer_1" xmlns="http://www.w3.org/2000/svg" xmlns:xlink="http://www.w3.org/1999/xlink" x="0px" y="0px"
	 width="20px" height="120px" viewBox="0 0 20 120" enable-background="new 0 0 20 120" xml:space="preserve">
<g>
	<g>
		<g>
			<defs>
				<rect id="SVGID_1_" x="0.399" y="2.062" width="19.201" height="15.675"/>
			</defs>
			<clipPath id="SVGID_2_">
				<use xlink:href="#SVGID_1_"  overflow="visible"/>
			</clipPath>
			<path clip-path="url(#SVGID_2_)" fill="#333333" d="M16.826,5.001c0-0.979-0.975-0.979-0.975-0.979H4.149
				c0,0-0.975,0-0.975,0.979v0.98h13.652V5.001z M13.901,2.062H6.099c0,0-0.975,0-0.975,0.98h9.751
				C14.876,2.062,13.901,2.062,13.901,2.062 M18.776,5.981l-0.577-0.58v1.56H1.8v-1.56l-0.577,0.58
				c-0.577,0.58-0.991,0.735-0.758,1.96c0.231,1.22,1.35,7.911,1.517,8.816c0.183,0.993,1.192,0.98,1.192,0.98h13.652
				c0,0,1.009,0.013,1.192-0.98c0.166-0.905,1.284-7.596,1.517-8.816C19.767,6.717,19.354,6.561,18.776,5.981 M13.9,11.271
				c0,0,0,0.98-0.976,0.98H7.074c-0.975,0-0.975-0.98-0.975-0.98V9.312h1.365v1.567h5.067V9.312H13.9V11.271z"/>
		</g>
	</g>
	<g>
		<g>
			<defs>
				<rect id="SVGID_3_" x="0.399" y="22.05" width="19.201" height="15.675"/>
			</defs>
			<clipPath id="SVGID_4_">
				<use xlink:href="#SVGID_3_"  overflow="visible"/>
			</clipPath>
			<path clip-path="url(#SVGID_4_)" fill="#C2C2C2" d="M16.826,24.989c0-0.979-0.975-0.979-0.975-0.979H4.149
				c0,0-0.975,0-0.975,0.979v0.98h13.652V24.989z M13.901,22.05H6.099c0,0-0.975,0-0.975,0.98h9.751
				C14.876,22.05,13.901,22.05,13.901,22.05 M18.776,25.969l-0.577-0.58v1.56H1.8v-1.56l-0.577,0.58
				c-0.577,0.58-0.991,0.735-0.758,1.96c0.231,1.22,1.35,7.911,1.517,8.816c0.183,0.993,1.192,0.98,1.192,0.98h13.652
				c0,0,1.009,0.013,1.192-0.98c0.166-0.905,1.284-7.596,1.517-8.816C19.767,26.704,19.354,26.548,18.776,25.969 M13.9,31.259
				c0,0,0,0.98-0.976,0.98H7.074c-0.975,0-0.975-0.98-0.975-0.98V29.3h1.365v1.567h5.067V29.3H13.9V31.259z"/>
		</g>
	</g>
	<g>
		<g>
			<defs>
				<rect id="SVGID_5_" x="0.399" y="42.038" width="19.201" height="15.675"/>
			</defs>
			<clipPath id="SVGID_6_">
				<use xlink:href="#SVGID_5_"  overflow="visible"/>
			</clipPath>
			<path clip-path="url(#SVGID_6_)" fill="#FFFFFF" d="M16.826,44.977c0-0.979-0.975-0.979-0.975-0.979H4.149
				c0,0-0.975,0-0.975,0.979v0.98h13.652V44.977z M13.901,42.038H6.099c0,0-0.975,0-0.975,0.98h9.751
				C14.876,42.038,13.901,42.038,13.901,42.038 M18.776,45.957l-0.577-0.58v1.56H1.8v-1.56l-0.577,0.58
				c-0.577,0.58-0.991,0.735-0.758,1.96c0.231,1.22,1.35,7.911,1.517,8.816c0.183,0.993,1.192,0.98,1.192,0.98h13.652
				c0,0,1.009,0.013,1.192-0.98c0.166-0.905,1.284-7.596,1.517-8.816C19.767,46.692,19.354,46.536,18.776,45.957 M13.9,51.247
				c0,0,0,0.98-0.976,0.98H7.074c-0.975,0-0.975-0.98-0.975-0.98v-1.959h1.365v1.567h5.067v-1.567H13.9V51.247z"/>
		</g>
	</g>
	<g>
		<g>
			<defs>
				<rect id="SVGID_7_" x="0.399" y="62.025" width="19.201" height="15.675"/>
			</defs>
			<clipPath id="SVGID_8_">
				<use xlink:href="#SVGID_7_"  overflow="visible"/>
			</clipPath>
			<path clip-path="url(#SVGID_8_)" fill="#339933" d="M16.826,64.965c0-0.98-0.975-0.98-0.975-0.98H4.149c0,0-0.975,0-0.975,0.98
				v0.979h13.652V64.965z M13.901,62.025H6.099c0,0-0.975,0-0.975,0.98h9.751C14.876,62.025,13.901,62.025,13.901,62.025
				 M18.776,65.944l-0.577-0.58v1.56H1.8v-1.56l-0.577,0.58c-0.577,0.579-0.991,0.735-0.758,1.96c0.231,1.22,1.35,7.911,1.517,8.816
				C2.165,77.713,3.174,77.7,3.174,77.7h13.652c0,0,1.009,0.013,1.192-0.979c0.166-0.905,1.284-7.597,1.517-8.816
				C19.767,66.68,19.354,66.523,18.776,65.944 M13.9,71.234c0,0,0,0.98-0.976,0.98H7.074c-0.975,0-0.975-0.98-0.975-0.98v-1.959
				h1.365v1.567h5.067v-1.567H13.9V71.234z"/>
		</g>
	</g>
	<g>
		<g>
			<defs>
				<rect id="SVGID_9_" x="0.399" y="82.013" width="19.201" height="15.675"/>
			</defs>
			<clipPath id="SVGID_10_">
				<use xlink:href="#SVGID_9_"  overflow="visible"/>
			</clipPath>
			<path clip-path="url(#SVGID_10_)" fill="#5290D2" d="M16.826,84.952c0-0.98-0.975-0.98-0.975-0.98H4.149c0,0-0.975,0-0.975,0.98
				v0.979h13.652V84.952z M13.901,82.013H6.099c0,0-0.975,0-0.975,0.98h9.751C14.876,82.013,13.901,82.013,13.901,82.013
				 M18.776,85.932l-0.577-0.58v1.56H1.8v-1.56l-0.577,0.58c-0.577,0.579-0.991,0.735-0.758,1.96c0.231,1.22,1.35,7.911,1.517,8.816
				c0.183,0.992,1.192,0.979,1.192,0.979h13.652c0,0,1.009,0.013,1.192-0.979c0.166-0.905,1.284-7.597,1.517-8.816
				C19.767,86.667,19.354,86.511,18.776,85.932 M13.9,91.222c0,0,0,0.98-0.976,0.98H7.074c-0.975,0-0.975-0.98-0.975-0.98v-1.959
				h1.365v1.567h5.067v-1.567H13.9V91.222z"/>
		</g>
	</g>
	<g>
		<g>
			<defs>
				<rect id="SVGID_11_" x="0.399" y="102" width="19.201" height="15.675"/>
			</defs>
			<clipPath id="SVGID_12_">
				<use xlink:href="#SVGID_11_"  overflow="visible"/>
			</clipPath>
			<path clip-path="url(#SVGID_12_)" fill="#FF5252" d="M16.826,104.939c0-0.98-0.975-0.98-0.975-0.98H4.149c0,0-0.975,0-0.975,0.98
				v0.979h13.652V104.939z M13.901,102H6.099c0,0-0.975,0-0.975,0.98h9.751C14.876,102,13.901,102,13.901,102 M18.776,105.919
				l-0.577-0.58v1.56H1.8v-1.56l-0.577,0.58c-0.577,0.579-0.991,0.735-0.758,1.96c0.231,1.22,1.35,7.911,1.517,8.816
				c0.183,0.992,1.192,0.979,1.192,0.979h13.652c0,0,1.009,0.013,1.192-0.979c0.166-0.905,1.284-7.597,1.517-8.816
				C19.767,106.654,19.354,106.498,18.776,105.919 M13.9,111.209c0,0,0,0.98-0.976,0.98H7.074c-0.975,0-0.975-0.98-0.975-0.98
				v-1.959h1.365v1.567h5.067v-1.567H13.9V111.209z"/>
		</g>
	</g>
</g>
</svg>
