<?xml version="1.0" encoding="utf-8"?>
<!-- Generator: Adobe Illustrator 16.0.0, SVG Export Plug-In . SVG Version: 6.00 Build 0)  -->
<!DOCTYPE svg PUBLIC "-//W3C//DTD SVG 1.1//EN" "http://www.w3.org/Graphics/SVG/1.1/DTD/svg11.dtd">
<svg version="1.1" id="Layer_1" xmlns="http://www.w3.org/2000/svg" xmlns:xlink="http://www.w3.org/1999/xlink" x="0px" y="0px"
	 width="20px" height="120px" viewBox="0 0 20 120" enable-background="new 0 0 20 120" xml:space="preserve">
<g>
	<path fill="#333333" d="M10.005,2c4.388,0,7.958,3.57,7.958,7.958s-3.57,7.958-7.958,7.958s-7.958-3.568-7.958-7.958
		S5.618,2,10.005,2 M10.005,0C4.506,0,0.047,4.459,0.047,9.958s4.459,9.958,9.958,9.958c5.5,0,9.958-4.459,9.958-9.958
		C19.964,4.459,15.507,0,10.005,0L10.005,0z"/>
</g>
<g>
	<g>
		<g>
			<defs>
				<rect id="SVGID_1_" x="7.318" y="5.373" width="5.374" height="9.171"/>
			</defs>
			<clipPath id="SVGID_2_">
				<use xlink:href="#SVGID_1_"  overflow="visible"/>
			</clipPath>
			<path clip-path="url(#SVGID_2_)" fill="#333333" d="M11.143,14.294c-0.33-0.322-3.559-3.713-3.559-3.713
				c-0.179-0.172-0.267-0.398-0.267-0.623c0-0.227,0.088-0.451,0.267-0.623c0,0,3.229-3.389,3.559-3.712
				c0.33-0.322,0.924-0.345,1.276,0c0.353,0.344,0.381,0.823,0,1.245l-2.962,3.09l2.962,3.09c0.381,0.422,0.353,0.902,0,1.246
				C12.064,14.638,11.473,14.616,11.143,14.294"/>
		</g>
	</g>
</g>
<g>
	<path fill="#C2C2C2" d="M10.004,22c4.389,0,7.958,3.57,7.958,7.958s-3.569,7.958-7.958,7.958c-4.388,0-7.958-3.568-7.958-7.958
		S5.616,22,10.004,22 M10.004,20c-5.499,0-9.958,4.459-9.958,9.958s4.459,9.958,9.958,9.958s9.958-4.459,9.958-9.958
		S15.505,20,10.004,20L10.004,20z"/>
</g>
<g>
	<g>
		<g>
			<defs>
				<rect id="SVGID_3_" x="7.317" y="25.373" width="5.375" height="9.171"/>
			</defs>
			<clipPath id="SVGID_4_">
				<use xlink:href="#SVGID_3_"  overflow="visible"/>
			</clipPath>
			<path clip-path="url(#SVGID_4_)" fill="#C2C2C2" d="M11.143,34.294c-0.33-0.322-3.56-3.713-3.56-3.713
				c-0.179-0.172-0.267-0.398-0.267-0.623c0-0.227,0.088-0.451,0.267-0.623c0,0,3.229-3.389,3.56-3.712
				c0.33-0.322,0.924-0.345,1.276,0c0.353,0.344,0.381,0.823,0,1.245l-2.963,3.09l2.963,3.09c0.381,0.422,0.353,0.902,0,1.246
				C12.064,34.638,11.473,34.616,11.143,34.294"/>
		</g>
	</g>
</g>
<g>
	<path fill="#FFFFFF" d="M10.005,42.001c4.388,0,7.958,3.57,7.958,7.958s-3.57,7.958-7.958,7.958s-7.958-3.568-7.958-7.958
		S5.617,42.001,10.005,42.001 M10.005,40.001c-5.499,0-9.958,4.459-9.958,9.958s4.459,9.958,9.958,9.958s9.958-4.459,9.958-9.958
		S15.506,40.001,10.005,40.001L10.005,40.001z"/>
</g>
<g>
	<g>
		<g>
			<defs>
				<rect id="SVGID_5_" x="7.318" y="45.374" width="5.375" height="9.171"/>
			</defs>
			<clipPath id="SVGID_6_">
				<use xlink:href="#SVGID_5_"  overflow="visible"/>
			</clipPath>
			<path clip-path="url(#SVGID_6_)" fill="#FFFFFF" d="M11.143,54.295c-0.33-0.322-3.559-3.713-3.559-3.713
				c-0.179-0.172-0.267-0.398-0.267-0.623c0-0.227,0.088-0.451,0.267-0.623c0,0,3.229-3.389,3.559-3.712
				c0.33-0.322,0.924-0.345,1.277,0c0.352,0.344,0.381,0.823,0,1.245l-2.963,3.09l2.963,3.09c0.381,0.422,0.352,0.902,0,1.246
				C12.066,54.639,11.473,54.617,11.143,54.295"/>
		</g>
	</g>
</g>
<g>
	<path fill="#339933" d="M10.004,62c4.389,0,7.958,3.57,7.958,7.959s-3.569,7.957-7.958,7.957c-4.388,0-7.958-3.568-7.958-7.957
		S5.616,62,10.004,62 M10.004,60.001c-5.499,0-9.958,4.458-9.958,9.958c0,5.498,4.459,9.957,9.958,9.957s9.958-4.459,9.958-9.957
		C19.962,64.459,15.505,60.001,10.004,60.001L10.004,60.001z"/>
</g>
<g>
	<g>
		<g>
			<defs>
				<rect id="SVGID_7_" x="7.318" y="65.374" width="5.375" height="9.171"/>
			</defs>
			<clipPath id="SVGID_8_">
				<use xlink:href="#SVGID_7_"  overflow="visible"/>
			</clipPath>
			<path clip-path="url(#SVGID_8_)" fill="#339933" d="M11.143,74.295c-0.33-0.322-3.559-3.713-3.559-3.713
				c-0.18-0.172-0.268-0.398-0.268-0.623c0-0.227,0.088-0.451,0.268-0.623c0,0,3.229-3.389,3.559-3.712
				c0.33-0.322,0.924-0.345,1.277,0c0.352,0.344,0.381,0.823,0,1.245l-2.963,3.09l2.963,3.09c0.381,0.422,0.352,0.902,0,1.246
				C12.066,74.639,11.473,74.617,11.143,74.295"/>
		</g>
	</g>
</g>
<g>
	<path fill="#5290D2" d="M10.004,82c4.389,0,7.958,3.57,7.958,7.959s-3.569,7.957-7.958,7.957c-4.388,0-7.958-3.568-7.958-7.957
		C2.046,85.568,5.616,82,10.004,82 M10.004,80c-5.499,0-9.958,4.459-9.958,9.959c0,5.498,4.459,9.957,9.958,9.957
		s9.958-4.459,9.958-9.957C19.962,84.459,15.505,80,10.004,80L10.004,80z"/>
</g>
<g>
	<g>
		<g>
			<defs>
				<rect id="SVGID_9_" x="7.317" y="85.374" width="5.375" height="9.171"/>
			</defs>
			<clipPath id="SVGID_10_">
				<use xlink:href="#SVGID_9_"  overflow="visible"/>
			</clipPath>
			<path clip-path="url(#SVGID_10_)" fill="#5290D2" d="M11.143,94.295c-0.33-0.322-3.56-3.713-3.56-3.713
				c-0.179-0.172-0.267-0.398-0.267-0.623c0-0.227,0.088-0.451,0.267-0.623c0,0,3.229-3.389,3.56-3.712
				c0.33-0.322,0.924-0.345,1.276,0c0.353,0.344,0.381,0.823,0,1.245l-2.963,3.09l2.963,3.09c0.381,0.422,0.353,0.902,0,1.246
				C12.064,94.639,11.473,94.617,11.143,94.295"/>
		</g>
	</g>
</g>
<g>
	<path fill="#FF5252" d="M10.005,102c4.388,0,7.958,3.57,7.958,7.959s-3.57,7.957-7.958,7.957s-7.958-3.568-7.958-7.957
		C2.047,105.568,5.617,102,10.005,102 M10.005,100c-5.499,0-9.958,4.459-9.958,9.959c0,5.498,4.459,9.957,9.958,9.957
		s9.958-4.459,9.958-9.957C19.963,104.459,15.506,100,10.005,100L10.005,100z"/>
</g>
<g>
	<g>
		<g>
			<defs>
				<rect id="SVGID_11_" x="7.318" y="105.374" width="5.375" height="9.171"/>
			</defs>
			<clipPath id="SVGID_12_">
				<use xlink:href="#SVGID_11_"  overflow="visible"/>
			</clipPath>
			<path clip-path="url(#SVGID_12_)" fill="#FF5252" d="M11.143,114.295c-0.33-0.322-3.559-3.713-3.559-3.713
				c-0.179-0.172-0.267-0.398-0.267-0.623c0-0.227,0.088-0.451,0.267-0.623c0,0,3.229-3.389,3.559-3.712
				c0.33-0.322,0.924-0.345,1.277,0c0.352,0.344,0.381,0.823,0,1.245l-2.963,3.09l2.963,3.09c0.381,0.422,0.352,0.902,0,1.246
				C12.066,114.639,11.473,114.617,11.143,114.295"/>
		</g>
	</g>
</g>
</svg>
