<?xml version="1.0" encoding="utf-8"?>
<!-- Generator: Adobe Illustrator 16.0.0, SVG Export Plug-In . SVG Version: 6.00 Build 0)  -->
<!DOCTYPE svg PUBLIC "-//W3C//DTD SVG 1.1//EN" "http://www.w3.org/Graphics/SVG/1.1/DTD/svg11.dtd">
<svg version="1.1" id="Layer_1" xmlns="http://www.w3.org/2000/svg" xmlns:xlink="http://www.w3.org/1999/xlink" x="0px" y="0px"
	 width="20px" height="120px" viewBox="0 0 20 120" enable-background="new 0 0 20 120" xml:space="preserve">
<path fill="#FF5252" d="M10.001,119.999c5.522,0,10-4.478,10-10s-4.478-10-10-10c-5.523,0-10,4.478-10,10
	S4.478,119.999,10.001,119.999z M5.759,110.252l3.535-3.535c0.391-0.391,1.023-0.392,1.414,0l3.535,3.535
	c0.391,0.391,0.391,1.023,0,1.414c-0.392,0.391-1.022,0.391-1.414,0l-2.828-2.828l-2.828,2.828c-0.391,0.391-1.023,0.391-1.414,0
	C5.368,111.275,5.368,110.643,5.759,110.252z"/>
<path fill="#5290D2" d="M10.001,100.001c5.522,0,10-4.478,10-10s-4.479-10-10-10c-5.523,0-10,4.478-10,10
	S4.478,100.001,10.001,100.001z M5.759,90.254l3.535-3.535c0.391-0.391,1.023-0.392,1.414,0l3.535,3.535
	c0.391,0.391,0.391,1.023,0,1.414c-0.392,0.391-1.022,0.391-1.414,0l-2.828-2.828l-2.828,2.828c-0.391,0.391-1.023,0.391-1.414,0
	C5.368,91.277,5.368,90.645,5.759,90.254z"/>
<path fill="#339933" d="M10.001,79.96c5.522,0,10-4.478,10-10s-4.478-10-10-10c-5.523,0-10,4.478-10,10S4.478,79.96,10.001,79.96z
	 M5.759,70.213l3.535-3.535c0.391-0.391,1.023-0.392,1.414,0l3.535,3.535c0.391,0.391,0.391,1.023,0,1.414
	c-0.392,0.391-1.022,0.391-1.414,0l-2.828-2.828l-2.828,2.828c-0.391,0.391-1.023,0.391-1.414,0
	C5.368,71.236,5.368,70.604,5.759,70.213z"/>
<path fill="#FFFFFF" d="M10,60.044c5.523,0,10-4.477,10-10s-4.477-10-10-10c-5.521,0-10,4.477-10,10S4.479,60.044,10,60.044z
	 M5.758,50.297l3.535-3.535c0.391-0.391,1.023-0.392,1.414,0l3.537,3.535c0.391,0.391,0.391,1.023,0,1.414s-1.023,0.391-1.414,0
	L10,48.883l-2.828,2.828c-0.391,0.391-1.023,0.391-1.414,0C5.367,51.32,5.368,50.688,5.758,50.297z"/>
<path fill="#C2C2C2" d="M10,39.958c5.523,0,10-4.477,10-10s-4.477-10-10-10c-5.522,0-10,4.477-10,10S4.478,39.958,10,39.958z
	 M5.758,30.211l3.535-3.535c0.391-0.391,1.023-0.392,1.414,0l3.536,3.535c0.391,0.391,0.391,1.023,0,1.414
	c-0.392,0.391-1.022,0.391-1.414,0L10,28.797l-2.828,2.828c-0.391,0.391-1.023,0.391-1.414,0
	C5.367,31.234,5.368,30.602,5.758,30.211z"/>
<path fill="#333333" d="M10,20c5.523,0,10-4.477,10-10S15.523,0,10,0C4.478,0,0,4.477,0,10S4.479,20,10,20z M5.759,10.252
	l3.535-3.535c0.391-0.391,1.023-0.392,1.414,0l3.536,3.535c0.391,0.391,0.391,1.023,0,1.414s-1.023,0.391-1.414,0L10,8.838
	l-2.828,2.828c-0.391,0.391-1.023,0.391-1.414,0C5.367,11.275,5.368,10.643,5.759,10.252z"/>
</svg>
