<?xml version="1.0" encoding="utf-8"?>
<!-- Generator: Adobe Illustrator 16.0.0, SVG Export Plug-In . SVG Version: 6.00 Build 0)  -->
<!DOCTYPE svg PUBLIC "-//W3C//DTD SVG 1.1//EN" "http://www.w3.org/Graphics/SVG/1.1/DTD/svg11.dtd">
<svg version="1.1" id="Layer_1" xmlns="http://www.w3.org/2000/svg" xmlns:xlink="http://www.w3.org/1999/xlink" x="0px" y="0px"
	 width="20px" height="120px" viewBox="0 0 20 120" enable-background="new 0 0 20 120" xml:space="preserve">
<g>
	<path fill="#333333" d="M15.518,10.259c-0.408,0.42-4.697,4.525-4.697,4.525c-0.217,0.224-0.502,0.337-0.787,0.337
		c-0.285,0-0.57-0.113-0.787-0.337c0,0-4.289-4.105-4.696-4.525c-0.408-0.42-0.436-1.175,0-1.623c0.435-0.448,1.042-0.483,1.575,0
		l3.909,3.765l3.905-3.765c0.535-0.483,1.143-0.448,1.578,0C15.953,9.084,15.925,9.839,15.518,10.259"/>
	<path fill="#333333" d="M10.101,14.271C9.493,14.271,9,13.776,9,13.166V1.106C9,0.495,9.493,0,10.101,0s1.1,0.495,1.1,1.106v12.06
		C11.2,13.776,10.708,14.271,10.101,14.271"/>
	<path fill="#333333" d="M1.1,19.899c-0.607,0-1.1-0.495-1.1-1.104v-3.619c0-0.611,0.492-1.105,1.1-1.105s1.1,0.494,1.1,1.105v3.619
		C2.2,19.404,1.707,19.899,1.1,19.899"/>
	<path fill="#333333" d="M18.9,19.899c-0.608,0-1.102-0.495-1.102-1.104v-3.619c0-0.611,0.492-1.105,1.102-1.105
		c0.606,0,1.1,0.495,1.1,1.105v3.619C20,19.404,19.508,19.899,18.9,19.899"/>
	<path fill="#333333" d="M18.8,20H1.2c-0.607,0-1.1-0.495-1.1-1.106c0-0.61,0.492-1.105,1.1-1.105h17.6
		c0.607,0,1.101,0.495,1.101,1.105C19.898,19.505,19.407,20,18.8,20"/>
</g>
<g>
	<path fill="#C2C2C2" d="M15.518,30.259c-0.408,0.42-4.697,4.525-4.697,4.525c-0.217,0.224-0.502,0.337-0.787,0.337
		c-0.285,0-0.57-0.113-0.787-0.337c0,0-4.289-4.105-4.696-4.525c-0.408-0.42-0.436-1.175,0-1.623c0.435-0.448,1.042-0.483,1.575,0
		l3.909,3.765l3.905-3.765c0.535-0.483,1.143-0.448,1.578,0C15.953,29.084,15.925,29.839,15.518,30.259"/>
	<path fill="#C2C2C2" d="M10.101,34.271C9.493,34.271,9,33.776,9,33.166v-12.06C9,20.495,9.493,20,10.101,20s1.1,0.495,1.1,1.106
		v12.06C11.2,33.776,10.708,34.271,10.101,34.271"/>
	<path fill="#C2C2C2" d="M1.1,39.899c-0.607,0-1.1-0.495-1.1-1.104v-3.619c0-0.611,0.492-1.105,1.1-1.105s1.1,0.494,1.1,1.105v3.619
		C2.2,39.404,1.707,39.899,1.1,39.899"/>
	<path fill="#C2C2C2" d="M18.9,39.899c-0.608,0-1.102-0.495-1.102-1.104v-3.619c0-0.611,0.492-1.105,1.102-1.105
		c0.606,0,1.1,0.495,1.1,1.105v3.619C20,39.404,19.508,39.899,18.9,39.899"/>
	<path fill="#C2C2C2" d="M18.8,40H1.2c-0.607,0-1.1-0.495-1.1-1.106c0-0.61,0.492-1.105,1.1-1.105h17.6
		c0.607,0,1.101,0.495,1.101,1.105C19.898,39.505,19.407,40,18.8,40"/>
</g>
<g>
	<path fill="#FFFFFF" d="M15.518,50.259c-0.408,0.42-4.697,4.525-4.697,4.525c-0.217,0.224-0.502,0.337-0.787,0.337
		c-0.285,0-0.57-0.113-0.787-0.337c0,0-4.289-4.105-4.696-4.525c-0.408-0.42-0.436-1.175,0-1.623c0.435-0.448,1.042-0.483,1.575,0
		l3.909,3.765l3.905-3.765c0.535-0.483,1.143-0.448,1.578,0C15.952,49.084,15.925,49.839,15.518,50.259"/>
	<path fill="#FFFFFF" d="M10.101,54.271C9.493,54.271,9,53.776,9,53.166v-12.06C9,40.495,9.493,40,10.101,40s1.1,0.495,1.1,1.106
		v12.06C11.2,53.776,10.708,54.271,10.101,54.271"/>
	<path fill="#FFFFFF" d="M1.1,59.899c-0.607,0-1.1-0.495-1.1-1.104v-3.619c0-0.611,0.492-1.105,1.1-1.105s1.1,0.494,1.1,1.105v3.619
		C2.2,59.404,1.707,59.899,1.1,59.899"/>
	<path fill="#FFFFFF" d="M18.9,59.899c-0.608,0-1.102-0.495-1.102-1.104v-3.619c0-0.611,0.492-1.105,1.102-1.105
		c0.605,0,1.099,0.495,1.099,1.105v3.619C19.999,59.404,19.507,59.899,18.9,59.899"/>
	<path fill="#FFFFFF" d="M18.8,60H1.2c-0.607,0-1.1-0.495-1.1-1.106c0-0.61,0.492-1.105,1.1-1.105h17.6
		c0.607,0,1.101,0.495,1.101,1.105C19.898,59.505,19.407,60,18.8,60"/>
</g>
<g>
	<path fill="#339933" d="M15.518,70.26c-0.408,0.42-4.697,4.525-4.697,4.525c-0.217,0.223-0.502,0.336-0.787,0.336
		c-0.285,0-0.57-0.113-0.787-0.336c0,0-4.289-4.105-4.696-4.525c-0.408-0.42-0.436-1.176,0-1.623c0.435-0.449,1.042-0.484,1.575,0
		l3.909,3.766l3.905-3.766c0.535-0.484,1.143-0.449,1.578,0C15.953,69.084,15.925,69.84,15.518,70.26"/>
	<path fill="#339933" d="M10.101,74.271C9.493,74.271,9,73.777,9,73.166V61.105C9,60.496,9.493,60,10.101,60s1.1,0.496,1.1,1.105
		v12.061C11.2,73.777,10.708,74.271,10.101,74.271"/>
	<path fill="#339933" d="M1.1,79.898c-0.607,0-1.1-0.494-1.1-1.104v-3.619c0-0.609,0.492-1.105,1.1-1.105s1.1,0.494,1.1,1.105v3.619
		C2.2,79.404,1.707,79.898,1.1,79.898"/>
	<path fill="#339933" d="M18.9,79.898c-0.608,0-1.102-0.494-1.102-1.104v-3.619c0-0.609,0.492-1.105,1.102-1.105
		c0.606,0,1.1,0.496,1.1,1.105v3.619C20,79.404,19.508,79.898,18.9,79.898"/>
	<path fill="#339933" d="M18.8,80H1.2c-0.607,0-1.1-0.494-1.1-1.105c0-0.608,0.492-1.104,1.1-1.104h17.6
		c0.607,0,1.101,0.496,1.101,1.104C19.898,79.506,19.407,80,18.8,80"/>
</g>
<g>
	<path fill="#5290D2" d="M15.518,90.26c-0.408,0.42-4.697,4.525-4.697,4.525c-0.217,0.223-0.502,0.336-0.787,0.336
		c-0.285,0-0.57-0.113-0.787-0.336c0,0-4.289-4.105-4.696-4.525c-0.408-0.42-0.436-1.176,0-1.623c0.435-0.449,1.042-0.484,1.575,0
		l3.909,3.766l3.905-3.766c0.535-0.484,1.143-0.449,1.578,0C15.953,89.084,15.925,89.84,15.518,90.26"/>
	<path fill="#5290D2" d="M10.101,94.271C9.493,94.271,9,93.777,9,93.166V81.105C9,80.496,9.493,80,10.101,80s1.1,0.496,1.1,1.105
		v12.061C11.2,93.777,10.708,94.271,10.101,94.271"/>
	<path fill="#5290D2" d="M1.1,99.898c-0.607,0-1.1-0.494-1.1-1.104v-3.619c0-0.609,0.492-1.105,1.1-1.105s1.1,0.494,1.1,1.105v3.619
		C2.2,99.404,1.707,99.898,1.1,99.898"/>
	<path fill="#5290D2" d="M18.9,99.898c-0.608,0-1.102-0.494-1.102-1.104v-3.619c0-0.609,0.492-1.105,1.102-1.105
		c0.606,0,1.1,0.496,1.1,1.105v3.619C20,99.404,19.508,99.898,18.9,99.898"/>
	<path fill="#5290D2" d="M18.8,100H1.2c-0.607,0-1.1-0.494-1.1-1.105c0-0.608,0.492-1.104,1.1-1.104h17.6
		c0.607,0,1.101,0.496,1.101,1.104C19.898,99.506,19.407,100,18.8,100"/>
</g>
<g>
	<path fill="#FF5252" d="M15.518,110.26c-0.408,0.42-4.697,4.525-4.697,4.525c-0.217,0.223-0.502,0.336-0.787,0.336
		c-0.285,0-0.57-0.113-0.787-0.336c0,0-4.289-4.105-4.696-4.525c-0.408-0.42-0.436-1.176,0-1.623c0.435-0.449,1.042-0.484,1.575,0
		l3.909,3.766l3.905-3.766c0.535-0.484,1.143-0.449,1.578,0C15.953,109.084,15.925,109.84,15.518,110.26"/>
	<path fill="#FF5252" d="M10.101,114.271c-0.607,0-1.101-0.494-1.101-1.105v-12.061C9,100.496,9.493,100,10.101,100
		s1.1,0.496,1.1,1.105v12.061C11.2,113.777,10.708,114.271,10.101,114.271"/>
	<path fill="#FF5252" d="M1.1,119.898c-0.607,0-1.1-0.494-1.1-1.104v-3.619c0-0.609,0.492-1.105,1.1-1.105s1.101,0.496,1.101,1.105
		v3.619C2.2,119.404,1.707,119.898,1.1,119.898"/>
	<path fill="#FF5252" d="M18.9,119.898c-0.608,0-1.102-0.494-1.102-1.104v-3.619c0-0.609,0.492-1.105,1.102-1.105
		c0.606,0,1.1,0.496,1.1,1.105v3.619C20,119.404,19.508,119.898,18.9,119.898"/>
	<path fill="#FF5252" d="M18.8,120H1.2c-0.607,0-1.1-0.494-1.1-1.105c0-0.608,0.492-1.104,1.1-1.104h17.6
		c0.607,0,1.101,0.496,1.101,1.104C19.898,119.506,19.407,120,18.8,120"/>
</g>
</svg>
