<?xml version="1.0" encoding="utf-8"?>
<!-- Generator: Adobe Illustrator 16.0.0, SVG Export Plug-In . SVG Version: 6.00 Build 0)  -->
<!DOCTYPE svg PUBLIC "-//W3C//DTD SVG 1.1//EN" "http://www.w3.org/Graphics/SVG/1.1/DTD/svg11.dtd">
<svg version="1.1" id="Layer_1" xmlns="http://www.w3.org/2000/svg" xmlns:xlink="http://www.w3.org/1999/xlink" x="0px" y="0px"
	 width="20px" height="120px" viewBox="0 0 20 120" enable-background="new 0 0 20 120" xml:space="preserve">
<g>
	<path fill="#333333" d="M0.66,5.206c0.542,0.292,8.054,4.326,8.333,4.477C9.272,9.834,9.635,9.905,10,9.905
		s0.727-0.072,1.007-0.223c0.279-0.15,7.791-4.185,8.333-4.477C19.883,4.915,20.396,4,19.398,4H0.601
		C-0.396,4,0.117,4.915,0.66,5.206z M19.57,7.428c-0.616,0.322-8.188,4.28-8.563,4.477c-0.377,0.197-0.642,0.223-1.007,0.223
		s-0.629-0.025-1.007-0.223C8.616,11.708,1.047,7.75,0.43,7.428C-0.004,7.202,0,7.467,0,7.672s0,8.151,0,8.151
		c0,0.466,0.62,1.065,1.102,1.065h17.794c0.482,0,1.104-0.6,1.104-1.065c0,0,0-7.946,0-8.151S20.004,7.202,19.57,7.428z"/>
</g>
<g>
	<path fill="#C2C2C2" d="M0.66,25.206c0.542,0.292,8.054,4.326,8.333,4.477c0.279,0.151,0.642,0.222,1.007,0.222
		s0.727-0.072,1.007-0.223c0.279-0.15,7.791-4.185,8.333-4.477C19.883,24.915,20.396,24,19.398,24H0.601
		C-0.396,24,0.117,24.915,0.66,25.206z M19.57,27.428c-0.616,0.322-8.188,4.28-8.563,4.477c-0.377,0.197-0.642,0.223-1.007,0.223
		s-0.629-0.025-1.007-0.223c-0.377-0.196-7.946-4.155-8.563-4.477C-0.004,27.202,0,27.467,0,27.672s0,8.151,0,8.151
		c0,0.466,0.62,1.065,1.102,1.065h17.794c0.482,0,1.104-0.6,1.104-1.065c0,0,0-7.946,0-8.151S20.004,27.202,19.57,27.428z"/>
</g>
<g>
	<path fill="#FFFFFF" d="M0.66,45.206c0.542,0.292,8.054,4.326,8.333,4.477c0.279,0.151,0.642,0.222,1.007,0.222
		s0.727-0.072,1.007-0.223c0.279-0.15,7.791-4.185,8.333-4.477C19.883,44.915,20.396,44,19.398,44H0.601
		C-0.396,44,0.117,44.915,0.66,45.206z M19.57,47.428c-0.616,0.322-8.188,4.28-8.563,4.477c-0.377,0.197-0.642,0.223-1.007,0.223
		s-0.629-0.025-1.007-0.223c-0.377-0.196-7.946-4.155-8.563-4.477C-0.004,47.202,0,47.467,0,47.672s0,8.151,0,8.151
		c0,0.466,0.62,1.065,1.102,1.065h17.794c0.482,0,1.104-0.6,1.104-1.065c0,0,0-7.946,0-8.151S20.004,47.202,19.57,47.428z"/>
</g>
<g>
	<path fill="#339933" d="M0.66,65.206c0.542,0.292,8.054,4.326,8.333,4.478c0.279,0.15,0.642,0.221,1.007,0.221
		s0.727-0.071,1.007-0.223c0.279-0.149,7.791-4.185,8.333-4.477C19.883,64.915,20.396,64,19.398,64H0.601
		C-0.396,64,0.117,64.915,0.66,65.206z M19.57,67.428c-0.616,0.322-8.188,4.281-8.563,4.477c-0.377,0.197-0.642,0.224-1.007,0.224
		s-0.629-0.024-1.007-0.224c-0.377-0.194-7.946-4.153-8.563-4.477C-0.004,67.202,0,67.467,0,67.672s0,8.151,0,8.151
		c0,0.466,0.62,1.065,1.102,1.065h17.794c0.482,0,1.104-0.601,1.104-1.065c0,0,0-7.946,0-8.151S20.004,67.202,19.57,67.428z"/>
</g>
<g>
	<path fill="#5290D2" d="M0.66,85.206c0.542,0.292,8.054,4.326,8.333,4.478c0.279,0.15,0.642,0.221,1.007,0.221
		s0.727-0.071,1.007-0.223c0.279-0.149,7.791-4.185,8.333-4.477C19.883,84.915,20.396,84,19.398,84H0.601
		C-0.396,84,0.117,84.915,0.66,85.206z M19.57,87.428c-0.616,0.322-8.188,4.281-8.563,4.477c-0.377,0.197-0.642,0.224-1.007,0.224
		s-0.629-0.024-1.007-0.224c-0.377-0.194-7.946-4.153-8.563-4.477C-0.004,87.202,0,87.467,0,87.672s0,8.151,0,8.151
		c0,0.466,0.62,1.065,1.102,1.065h17.794c0.482,0,1.104-0.601,1.104-1.065c0,0,0-7.946,0-8.151S20.004,87.202,19.57,87.428z"/>
</g>
<g>
	<path fill="#FF5252" d="M0.66,105.206c0.542,0.292,8.054,4.326,8.333,4.478c0.279,0.15,0.642,0.223,1.007,0.223
		s0.727-0.072,1.007-0.223c0.279-0.15,7.791-4.186,8.333-4.478C19.883,104.915,20.396,104,19.4,104H0.601
		C-0.396,104,0.117,104.915,0.66,105.206z M19.57,107.428c-0.616,0.322-8.188,4.281-8.563,4.477
		c-0.377,0.197-0.642,0.224-1.007,0.224s-0.629-0.024-1.007-0.224c-0.377-0.194-7.946-4.153-8.563-4.477
		c-0.434-0.226-0.43,0.039-0.43,0.244s0,8.151,0,8.151c0,0.466,0.62,1.065,1.102,1.065h17.794c0.482,0,1.104-0.601,1.104-1.065
		c0,0,0-7.946,0-8.151S20.004,107.202,19.57,107.428z"/>
</g>
</svg>
