<?xml version="1.0" encoding="utf-8"?>
<!-- Generator: Adobe Illustrator 16.0.0, SVG Export Plug-In . SVG Version: 6.00 Build 0)  -->
<!DOCTYPE svg PUBLIC "-//W3C//DTD SVG 1.1//EN" "http://www.w3.org/Graphics/SVG/1.1/DTD/svg11.dtd">
<svg version="1.1" id="Layer_1" xmlns="http://www.w3.org/2000/svg" xmlns:xlink="http://www.w3.org/1999/xlink" x="0px" y="0px"
	 width="20px" height="120px" viewBox="0 0 20 120" enable-background="new 0 0 20 120" xml:space="preserve">
<path fill="#333333" d="M9.865,0.001C4.344,0.074-0.074,4.612,0.001,10.135c0.072,5.519,4.61,9.936,10.133,9.864
	c5.521-0.074,9.938-4.611,9.865-10.133C19.927,4.345,15.389-0.072,9.865,0.001z M10.975,3.334c1.018,0,1.317,0.589,1.317,1.264
	c0,0.844-0.673,1.623-1.825,1.623c-0.964,0-1.422-0.485-1.395-1.285C9.072,4.261,9.637,3.334,10.975,3.334z M8.369,16.25
	c-0.694,0-1.203-0.422-0.719-2.276l0.798-3.288c0.139-0.527,0.162-0.738,0-0.738c-0.209,0-1.111,0.365-1.644,0.722l-0.347-0.567
	c1.689-1.412,3.633-2.24,4.467-2.24c0.694,0,0.811,0.822,0.463,2.085l-0.913,3.456c-0.162,0.613-0.093,0.822,0.069,0.822
	c0.208,0,0.891-0.255,1.562-0.781l0.393,0.529C10.857,15.618,9.063,16.25,8.369,16.25z"/>
<path fill="#C2C2C2" d="M9.865,20.001c-5.521,0.073-9.939,4.611-9.864,10.134c0.072,5.519,4.61,9.936,10.133,9.864
	c5.521-0.074,9.938-4.611,9.865-10.133C19.927,24.345,15.389,19.928,9.865,20.001z M10.975,23.334c1.018,0,1.317,0.589,1.317,1.264
	c0,0.844-0.673,1.623-1.825,1.623c-0.964,0-1.422-0.485-1.395-1.285C9.072,24.261,9.637,23.334,10.975,23.334z M8.369,36.25
	c-0.694,0-1.203-0.422-0.719-2.276l0.798-3.288c0.139-0.527,0.162-0.738,0-0.738c-0.209,0-1.111,0.365-1.644,0.722l-0.347-0.567
	c1.689-1.412,3.633-2.24,4.467-2.24c0.694,0,0.811,0.822,0.463,2.085l-0.913,3.456c-0.162,0.613-0.093,0.822,0.069,0.822
	c0.208,0,0.891-0.255,1.562-0.781l0.393,0.529C10.857,35.618,9.063,36.25,8.369,36.25z"/>
<path fill="#FFFFFF" d="M9.865,40.001c-5.521,0.073-9.939,4.611-9.864,10.134c0.072,5.519,4.61,9.936,10.133,9.864
	c5.521-0.074,9.938-4.611,9.865-10.133C19.927,44.345,15.389,39.928,9.865,40.001z M10.975,43.334c1.018,0,1.317,0.589,1.317,1.264
	c0,0.844-0.673,1.623-1.825,1.623c-0.964,0-1.422-0.485-1.395-1.285C9.072,44.261,9.637,43.334,10.975,43.334z M8.369,56.25
	c-0.694,0-1.203-0.422-0.719-2.276l0.798-3.288c0.139-0.527,0.162-0.738,0-0.738c-0.209,0-1.111,0.365-1.644,0.722l-0.347-0.567
	c1.689-1.412,3.633-2.24,4.467-2.24c0.694,0,0.811,0.822,0.463,2.085l-0.913,3.456c-0.162,0.613-0.093,0.822,0.069,0.822
	c0.208,0,0.891-0.255,1.562-0.781l0.393,0.529C10.857,55.618,9.063,56.25,8.369,56.25z"/>
<path fill="#339933" d="M9.865,60.001c-5.521,0.073-9.939,4.61-9.864,10.134c0.072,5.52,4.61,9.936,10.133,9.864
	c5.521-0.073,9.938-4.61,9.865-10.133C19.927,64.346,15.389,59.928,9.865,60.001z M10.975,63.334c1.018,0,1.317,0.59,1.317,1.264
	c0,0.844-0.673,1.623-1.825,1.623c-0.964,0-1.422-0.484-1.395-1.285C9.072,64.261,9.637,63.334,10.975,63.334z M8.369,76.25
	c-0.694,0-1.203-0.422-0.719-2.275l0.798-3.287c0.139-0.526,0.162-0.738,0-0.738c-0.209,0-1.111,0.363-1.644,0.722l-0.347-0.567
	c1.689-1.412,3.633-2.238,4.467-2.238c0.694,0,0.811,0.822,0.463,2.085l-0.913,3.456c-0.162,0.613-0.093,0.822,0.069,0.822
	c0.208,0,0.891-0.256,1.562-0.781l0.393,0.529C10.857,75.617,9.063,76.25,8.369,76.25z"/>
<path fill="#5290D2" d="M9.865,80.001c-5.521,0.073-9.939,4.61-9.864,10.134c0.072,5.52,4.61,9.936,10.133,9.864
	c5.521-0.073,9.938-4.61,9.865-10.133C19.927,84.346,15.389,79.928,9.865,80.001z M10.975,83.334c1.018,0,1.317,0.59,1.317,1.264
	c0,0.844-0.673,1.623-1.825,1.623c-0.964,0-1.422-0.484-1.395-1.285C9.072,84.261,9.637,83.334,10.975,83.334z M8.369,96.25
	c-0.694,0-1.203-0.422-0.719-2.275l0.798-3.287c0.139-0.526,0.162-0.738,0-0.738c-0.209,0-1.111,0.363-1.644,0.722l-0.347-0.567
	c1.689-1.412,3.633-2.238,4.467-2.238c0.694,0,0.811,0.822,0.463,2.085l-0.913,3.456c-0.162,0.613-0.093,0.822,0.069,0.822
	c0.208,0,0.891-0.256,1.562-0.781l0.393,0.529C10.857,95.617,9.063,96.25,8.369,96.25z"/>
<path fill="#FF5252" d="M9.865,100.001c-5.521,0.073-9.939,4.61-9.864,10.134c0.072,5.52,4.61,9.936,10.133,9.864
	c5.521-0.073,9.938-4.61,9.865-10.133C19.927,104.346,15.389,99.928,9.865,100.001z M10.975,103.334c1.018,0,1.317,0.59,1.317,1.264
	c0,0.844-0.673,1.623-1.825,1.623c-0.964,0-1.422-0.484-1.395-1.285C9.072,104.261,9.637,103.334,10.975,103.334z M8.369,116.25
	c-0.694,0-1.203-0.422-0.719-2.275l0.798-3.287c0.139-0.526,0.162-0.738,0-0.738c-0.209,0-1.111,0.363-1.644,0.722l-0.347-0.567
	c1.689-1.412,3.633-2.238,4.467-2.238c0.694,0,0.811,0.822,0.463,2.085l-0.913,3.456c-0.162,0.613-0.093,0.822,0.069,0.822
	c0.208,0,0.891-0.256,1.562-0.781l0.393,0.529C10.857,115.617,9.063,116.25,8.369,116.25z"/>
</svg>
