<?xml version="1.0" encoding="utf-8"?>
<!-- Generator: Adobe Illustrator 16.0.0, SVG Export Plug-In . SVG Version: 6.00 Build 0)  -->
<!DOCTYPE svg PUBLIC "-//W3C//DTD SVG 1.1//EN" "http://www.w3.org/Graphics/SVG/1.1/DTD/svg11.dtd">
<svg version="1.1" id="Layer_1" xmlns="http://www.w3.org/2000/svg" xmlns:xlink="http://www.w3.org/1999/xlink" x="0px" y="0px"
	 width="20px" height="120px" viewBox="0 0 20 120" enable-background="new 0 0 20 120" xml:space="preserve">
<g>
	<g>
		<path fill="#333333" d="M7.572,19.971c-0.62,0-1.206-0.29-1.583-0.788L0.9,12.463c-0.662-0.875-0.489-2.119,0.385-2.781
			c0.875-0.662,2.12-0.489,2.781,0.385l3.348,4.42L15.83,0.969c0.58-0.93,1.804-1.214,2.736-0.636
			c0.932,0.58,1.215,1.804,0.635,2.735L9.258,19.035c-0.346,0.555-0.942,0.904-1.595,0.934C7.632,19.97,7.602,19.971,7.572,19.971z"
			/>
	</g>
</g>
<g>
	<g>
		<path fill="#C2C2C2" d="M7.572,40.002c-0.62,0-1.206-0.29-1.583-0.788L0.9,32.494c-0.662-0.875-0.489-2.119,0.385-2.781
			c0.875-0.662,2.12-0.489,2.781,0.385l3.348,4.42L15.83,21c0.58-0.93,1.804-1.214,2.736-0.636c0.932,0.58,1.215,1.804,0.635,2.735
			L9.258,39.066C8.912,39.622,8.316,39.971,7.663,40C7.632,40.001,7.602,40.002,7.572,40.002z"/>
	</g>
</g>
<g>
	<g>
		<path fill="#FFFFFF" d="M7.572,59.969c-0.62,0-1.206-0.29-1.583-0.787L0.9,52.461c-0.662-0.875-0.489-2.119,0.385-2.781
			c0.875-0.662,2.12-0.489,2.781,0.385l3.348,4.42l8.417-13.518c0.58-0.93,1.804-1.214,2.735-0.636
			c0.933,0.58,1.216,1.804,0.636,2.735L9.258,59.033c-0.346,0.555-0.942,0.904-1.595,0.934C7.632,59.969,7.602,59.969,7.572,59.969z
			"/>
	</g>
</g>
<g>
	<g>
		<path fill="#339933" d="M7.572,79.969c-0.62,0-1.206-0.289-1.583-0.787L0.9,72.461c-0.662-0.875-0.489-2.119,0.385-2.781
			c0.875-0.662,2.12-0.488,2.781,0.385l3.348,4.42l8.417-13.518c0.58-0.93,1.804-1.215,2.735-0.636
			c0.933,0.579,1.216,1.804,0.636,2.735L9.258,79.033c-0.346,0.555-0.942,0.904-1.595,0.934C7.632,79.969,7.602,79.969,7.572,79.969
			z"/>
	</g>
</g>
<g>
	<g>
		<path fill="#5290D2" d="M7.572,99.967c-0.62,0-1.206-0.29-1.583-0.787L0.9,92.459c-0.662-0.875-0.489-2.119,0.385-2.781
			c0.875-0.662,2.12-0.488,2.781,0.385l3.348,4.42l8.417-13.518c0.58-0.93,1.804-1.215,2.735-0.636
			c0.933,0.579,1.216,1.804,0.636,2.735L9.258,99.031c-0.346,0.555-0.942,0.904-1.595,0.934C7.632,99.967,7.602,99.967,7.572,99.967
			z"/>
	</g>
</g>
<g>
	<g>
		<path fill="#FF5252" d="M7.572,119.968c-0.62,0-1.206-0.29-1.583-0.786L0.9,112.46c-0.662-0.875-0.489-2.119,0.385-2.78
			c0.875-0.662,2.12-0.488,2.781,0.385l3.348,4.42l8.417-13.519c0.58-0.93,1.804-1.215,2.735-0.636
			c0.933,0.579,1.216,1.804,0.636,2.734l-9.943,15.968c-0.346,0.555-0.942,0.903-1.595,0.934
			C7.632,119.968,7.602,119.968,7.572,119.968z"/>
	</g>
</g>
</svg>
