<?xml version="1.0" encoding="utf-8"?>
<!-- Generator: Adobe Illustrator 16.0.0, SVG Export Plug-In . SVG Version: 6.00 Build 0)  -->
<!DOCTYPE svg PUBLIC "-//W3C//DTD SVG 1.1//EN" "http://www.w3.org/Graphics/SVG/1.1/DTD/svg11.dtd">
<svg version="1.1" id="Layer_1" xmlns="http://www.w3.org/2000/svg" xmlns:xlink="http://www.w3.org/1999/xlink" x="0px" y="0px"
	 width="98px" height="80px" viewBox="0 0 98 80" enable-background="new 0 0 98 80" xml:space="preserve">
<g>
	<defs>
		<rect id="SVGID_1_" width="98" height="80"/>
	</defs>
	<clipPath id="SVGID_2_">
		<use xlink:href="#SVGID_1_"  overflow="visible"/>
	</clipPath>
	<path clip-path="url(#SVGID_2_)" fill="#333333" d="M83.84,15c0-5-4.977-5-4.977-5H19.136c0,0-4.976,0-4.976,5v5h69.68V15z
		 M68.908,0H29.09c0,0-4.977,0-4.977,5h49.771C73.885,0,68.908,0,68.908,0 M93.793,20l-2.945-2.959V25H7.15v-7.959L4.205,20
		C1.26,22.959-0.85,23.754,0.336,30.004c1.179,6.226,6.89,40.375,7.74,44.997C9.008,80.066,14.16,80,14.16,80h69.68
		c0,0,5.15,0.066,6.082-4.999c0.85-4.622,6.561-38.771,7.742-44.997C98.85,23.754,96.738,22.959,93.793,20 M68.906,47
		c0,0,0,5-4.978,5h-29.86c-4.976,0-4.976-5-4.976-5V37h6.968v8h25.866v-8h6.98V47z"/>
</g>
</svg>
