<?xml version="1.0" encoding="utf-8"?>
<!-- Generator: Adobe Illustrator 16.0.0, SVG Export Plug-In . SVG Version: 6.00 Build 0)  -->
<!DOCTYPE svg PUBLIC "-//W3C//DTD SVG 1.1//EN" "http://www.w3.org/Graphics/SVG/1.1/DTD/svg11.dtd">
<svg version="1.1" id="Layer_1" xmlns="http://www.w3.org/2000/svg" xmlns:xlink="http://www.w3.org/1999/xlink" x="0px" y="0px"
	 width="19.917px" height="19.917px" viewBox="0 0 19.917 19.917" enable-background="new 0 0 19.917 19.917" xml:space="preserve">
<g>
	<path fill="#333333" d="M9.958,2c4.388,0,7.958,3.57,7.958,7.958s-3.569,7.958-7.958,7.958S2,14.347,2,9.958S5.57,2,9.958,2
		 M9.958,0C4.458,0,0,4.459,0,9.958c0,5.499,4.458,9.958,9.958,9.958c5.5,0,9.958-4.459,9.958-9.958C19.916,4.459,15.458,0,9.958,0
		L9.958,0z"/>
</g>
<circle fill="#333333" cx="9.958" cy="9.958" r="8.593"/>
<g>
	<g>
		<defs>
			<rect id="SVGID_1_" x="5.374" y="7.271" width="9.168" height="5.375"/>
		</defs>
		<clipPath id="SVGID_2_">
			<use xlink:href="#SVGID_1_"  overflow="visible"/>
		</clipPath>
		<path clip-path="url(#SVGID_2_)" fill="#FFFFFF" d="M5.624,11.095c0.322-0.33,3.712-3.559,3.712-3.559
			C9.507,7.358,9.733,7.27,9.958,7.27c0.226,0,0.451,0.088,0.624,0.266c0,0,3.389,3.229,3.711,3.559s0.345,0.924,0,1.277
			c-0.344,0.352-0.822,0.381-1.244,0l-3.09-2.963l-3.089,2.963c-0.422,0.381-0.901,0.352-1.245,0
			C5.28,12.019,5.301,11.425,5.624,11.095"/>
	</g>
</g>
</svg>
