<?xml version="1.0" encoding="utf-8"?>
<!-- Generator: Adobe Illustrator 16.0.0, SVG Export Plug-In . SVG Version: 6.00 Build 0)  -->
<!DOCTYPE svg PUBLIC "-//W3C//DTD SVG 1.1//EN" "http://www.w3.org/Graphics/SVG/1.1/DTD/svg11.dtd">
<svg version="1.1" id="Layer_1" xmlns="http://www.w3.org/2000/svg" xmlns:xlink="http://www.w3.org/1999/xlink" x="0px" y="0px"
	 width="20px" height="120px" viewBox="0 0 20 120" enable-background="new 0 0 20 120" xml:space="preserve">
<polyline fill="none" points="4.759,7 15.24,7 15.24,12.999 4.759,12.999 "/>
<polyline fill="none" stroke="#383838" stroke-width="1.5" stroke-linecap="round" stroke-linejoin="round" stroke-miterlimit="10" points="
	7.75,5.509 12.249,10.007 7.75,14.49 "/>
<polyline fill="none" points="4.759,26.958 15.24,26.958 15.24,32.958 4.759,32.958 "/>
<polyline fill="none" stroke="#C2C2C2" stroke-width="1.5" stroke-linecap="round" stroke-linejoin="round" stroke-miterlimit="10" points="
	7.75,25.468 12.249,29.966 7.75,34.448 "/>
<polyline fill="none" points="4.759,47.044 15.24,47.044 15.24,53.043 4.759,53.043 "/>
<polyline fill="none" stroke="#FFFFFF" stroke-width="1.5" stroke-linecap="round" stroke-linejoin="round" stroke-miterlimit="10" points="
	7.75,45.553 12.249,50.052 7.75,54.534 "/>
<polyline fill="none" points="4.759,66.96 15.24,66.96 15.24,72.959 4.759,72.959 "/>
<polyline fill="none" stroke="#339933" stroke-width="1.5" stroke-linecap="round" stroke-linejoin="round" stroke-miterlimit="10" points="
	7.75,65.469 12.249,69.968 7.75,74.45 "/>
<polyline fill="none" points="4.759,86.959 15.24,86.959 15.24,92.958 4.759,92.958 "/>
<polyline fill="none" stroke="#5290D2" stroke-width="1.5" stroke-linecap="round" stroke-linejoin="round" stroke-miterlimit="10" points="
	7.75,85.468 12.249,89.967 7.75,94.449 "/>
<polyline fill="none" points="4.759,107.001 15.24,107.001 15.24,113 4.759,113 "/>
<polyline fill="none" stroke="#FF5252" stroke-width="1.5" stroke-linecap="round" stroke-linejoin="round" stroke-miterlimit="10" points="
	7.75,105.51 12.249,110.009 7.75,114.491 "/>
</svg>
