<?xml version="1.0" encoding="utf-8"?>
<!-- Generator: Adobe Illustrator 16.0.0, SVG Export Plug-In . SVG Version: 6.00 Build 0)  -->
<!DOCTYPE svg PUBLIC "-//W3C//DTD SVG 1.1//EN" "http://www.w3.org/Graphics/SVG/1.1/DTD/svg11.dtd">
<svg version="1.1" id="Layer_1" xmlns="http://www.w3.org/2000/svg" xmlns:xlink="http://www.w3.org/1999/xlink" x="0px" y="0px"
	 width="20px" height="120px" viewBox="0 0 20 120" enable-background="new 0 0 20 120" xml:space="preserve">
<g>
	<path fill="#333333" d="M10.001,2c4.388,0,7.958,3.57,7.958,7.958s-3.57,7.958-7.958,7.958c-4.388,0-7.958-3.568-7.958-7.958
		S5.613,2,10.001,2 M10.001,0C4.502,0,0.043,4.459,0.043,9.958s4.459,9.958,9.958,9.958s9.958-4.459,9.958-9.958S15.502,0,10.001,0
		L10.001,0z"/>
</g>
<g>
	<g>
		<g>
			<defs>
				<rect id="SVGID_1_" x="7.314" y="5.373" width="5.375" height="9.171"/>
			</defs>
			<clipPath id="SVGID_2_">
				<use xlink:href="#SVGID_1_"  overflow="visible"/>
			</clipPath>
			<path clip-path="url(#SVGID_2_)" fill="#333333" d="M8.865,5.623c0.33,0.322,3.559,3.712,3.559,3.712
				c0.18,0.172,0.268,0.398,0.268,0.623c0,0.227-0.088,0.451-0.268,0.623c0,0-3.229,3.389-3.559,3.712
				c-0.329,0.322-0.924,0.345-1.277,0c-0.352-0.344-0.381-0.823,0-1.245l2.962-3.09l-2.962-3.09c-0.381-0.422-0.352-0.902,0-1.246
				C7.941,5.279,8.536,5.301,8.865,5.623"/>
		</g>
	</g>
</g>
<g>
	<path fill="#C2C2C2" d="M10,22c4.389,0,7.958,3.57,7.958,7.958S14.389,37.916,10,37.916c-4.388,0-7.958-3.568-7.958-7.958
		S5.612,22,10,22 M10,20c-5.499,0-9.958,4.459-9.958,9.958S4.501,39.916,10,39.916s9.958-4.459,9.958-9.958S15.501,20,10,20L10,20z"
		/>
</g>
<g>
	<g>
		<g>
			<defs>
				<rect id="SVGID_3_" x="7.313" y="25.373" width="5.375" height="9.171"/>
			</defs>
			<clipPath id="SVGID_4_">
				<use xlink:href="#SVGID_3_"  overflow="visible"/>
			</clipPath>
			<path clip-path="url(#SVGID_4_)" fill="#C2C2C2" d="M8.864,25.623c0.33,0.322,3.559,3.713,3.559,3.713
				c0.179,0.172,0.267,0.398,0.267,0.623c0,0.227-0.088,0.451-0.267,0.623c0,0-3.229,3.389-3.559,3.712
				c-0.329,0.322-0.924,0.345-1.276,0c-0.353-0.344-0.381-0.823,0-1.245l2.962-3.09l-2.962-3.09c-0.381-0.422-0.353-0.902,0-1.246
				C7.941,25.279,8.535,25.301,8.864,25.623"/>
		</g>
	</g>
</g>
<g>
	<path fill="#FFFFFF" d="M10.001,42.001c4.388,0,7.958,3.57,7.958,7.958c0,4.389-3.57,7.957-7.958,7.957
		c-4.388,0-7.958-3.568-7.958-7.957S5.613,42.001,10.001,42.001 M10.001,40.001c-5.499,0-9.958,4.459-9.958,9.958
		c0,5.498,4.459,9.957,9.958,9.957s9.958-4.459,9.958-9.957C19.959,44.46,15.502,40.001,10.001,40.001L10.001,40.001z"/>
</g>
<g>
	<g>
		<g>
			<defs>
				<rect id="SVGID_5_" x="7.314" y="45.374" width="5.375" height="9.171"/>
			</defs>
			<clipPath id="SVGID_6_">
				<use xlink:href="#SVGID_5_"  overflow="visible"/>
			</clipPath>
			<path clip-path="url(#SVGID_6_)" fill="#FFFFFF" d="M8.865,45.624c0.33,0.322,3.559,3.713,3.559,3.713
				c0.18,0.172,0.268,0.398,0.268,0.623c0,0.227-0.088,0.451-0.268,0.623c0,0-3.229,3.388-3.559,3.712
				c-0.329,0.322-0.924,0.345-1.276,0c-0.353-0.344-0.381-0.823,0-1.245l2.962-3.09l-2.962-3.09c-0.381-0.422-0.353-0.902,0-1.246
				C7.942,45.28,8.536,45.302,8.865,45.624"/>
		</g>
	</g>
</g>
<g>
	<path fill="#339933" d="M10,62c4.389,0,7.958,3.57,7.958,7.959S14.389,77.916,10,77.916c-4.388,0-7.958-3.568-7.958-7.957
		S5.612,62,10,62 M10,60.001c-5.499,0-9.958,4.458-9.958,9.958c0,5.498,4.459,9.957,9.958,9.957s9.958-4.459,9.958-9.957
		C19.958,64.459,15.501,60.001,10,60.001L10,60.001z"/>
</g>
<g>
	<g>
		<g>
			<defs>
				<rect id="SVGID_7_" x="7.313" y="65.374" width="5.375" height="9.171"/>
			</defs>
			<clipPath id="SVGID_8_">
				<use xlink:href="#SVGID_7_"  overflow="visible"/>
			</clipPath>
			<path clip-path="url(#SVGID_8_)" fill="#339933" d="M8.864,65.624c0.33,0.321,3.559,3.713,3.559,3.713
				c0.181,0.172,0.269,0.397,0.269,0.623c0,0.228-0.088,0.451-0.269,0.623c0,0-3.229,3.39-3.559,3.712
				c-0.33,0.322-0.924,0.346-1.277,0c-0.352-0.344-0.381-0.822,0-1.245l2.963-3.09l-2.963-3.09c-0.381-0.422-0.352-0.902,0-1.246
				C7.94,65.279,8.534,65.302,8.864,65.624"/>
		</g>
	</g>
</g>
<g>
	<path fill="#5290D2" d="M10,82c4.389,0,7.958,3.57,7.958,7.959S14.389,97.916,10,97.916c-4.388,0-7.958-3.568-7.958-7.957
		C2.042,85.568,5.612,82,10,82 M10,80c-5.499,0-9.958,4.459-9.958,9.959c0,5.498,4.459,9.957,9.958,9.957s9.958-4.459,9.958-9.957
		C19.958,84.459,15.501,80,10,80L10,80z"/>
</g>
<g>
	<g>
		<g>
			<defs>
				<rect id="SVGID_9_" x="7.313" y="85.373" width="5.375" height="9.171"/>
			</defs>
			<clipPath id="SVGID_10_">
				<use xlink:href="#SVGID_9_"  overflow="visible"/>
			</clipPath>
			<path clip-path="url(#SVGID_10_)" fill="#5290D2" d="M8.864,85.623c0.33,0.322,3.559,3.713,3.559,3.713
				c0.179,0.172,0.267,0.398,0.267,0.623c0,0.227-0.088,0.451-0.267,0.623c0,0-3.229,3.389-3.559,3.712
				c-0.33,0.322-0.924,0.345-1.277,0c-0.352-0.344-0.381-0.823,0-1.245l2.963-3.09l-2.963-3.09c-0.381-0.422-0.352-0.902,0-1.246
				C7.94,85.279,8.534,85.301,8.864,85.623"/>
		</g>
	</g>
</g>
<g>
	<path fill="#FF5252" d="M10.001,102c4.388,0,7.958,3.57,7.958,7.959s-3.57,7.957-7.958,7.957c-4.388,0-7.958-3.568-7.958-7.957
		C2.043,105.568,5.613,102,10.001,102 M10.001,100c-5.499,0-9.958,4.459-9.958,9.959c0,5.498,4.459,9.957,9.958,9.957
		s9.958-4.459,9.958-9.957C19.959,104.459,15.502,100,10.001,100L10.001,100z"/>
</g>
<g>
	<g>
		<g>
			<defs>
				<rect id="SVGID_11_" x="7.314" y="105.373" width="5.375" height="9.171"/>
			</defs>
			<clipPath id="SVGID_12_">
				<use xlink:href="#SVGID_11_"  overflow="visible"/>
			</clipPath>
			<path clip-path="url(#SVGID_12_)" fill="#FF5252" d="M8.865,105.623c0.33,0.322,3.559,3.713,3.559,3.713
				c0.18,0.172,0.268,0.398,0.268,0.623c0,0.227-0.088,0.451-0.268,0.623c0,0-3.229,3.389-3.559,3.712
				c-0.33,0.322-0.924,0.345-1.277,0c-0.352-0.344-0.381-0.823,0-1.245l2.963-3.09l-2.963-3.09c-0.381-0.422-0.352-0.902,0-1.246
				C7.941,105.279,8.535,105.301,8.865,105.623"/>
		</g>
	</g>
</g>
</svg>
