<?xml version="1.0" encoding="utf-8"?>
<!-- Generator: Adobe Illustrator 16.0.0, SVG Export Plug-In . SVG Version: 6.00 Build 0)  -->
<!DOCTYPE svg PUBLIC "-//W3C//DTD SVG 1.1//EN" "http://www.w3.org/Graphics/SVG/1.1/DTD/svg11.dtd">
<svg version="1.1" id="Layer_1" xmlns="http://www.w3.org/2000/svg" xmlns:xlink="http://www.w3.org/1999/xlink" x="0px" y="0px"
	 width="20px" height="120px" viewBox="0 0 20 120" enable-background="new 0 0 20 120" xml:space="preserve">
<g>
	<path fill="#333333" d="M10.001,2.043c4.388,0,7.958,3.57,7.958,7.958s-3.57,7.958-7.958,7.958c-4.388,0-7.958-3.568-7.958-7.958
		S5.613,2.043,10.001,2.043 M10.001,0.043c-5.499,0-9.958,4.459-9.958,9.958s4.459,9.958,9.958,9.958s9.958-4.459,9.958-9.958
		S15.502,0.043,10.001,0.043L10.001,0.043z"/>
</g>
<g>
	<g>
		<g>
			<defs>
				<rect id="SVGID_1_" x="5.417" y="7.313" width="9.171" height="5.375"/>
			</defs>
			<clipPath id="SVGID_2_">
				<use xlink:href="#SVGID_1_"  overflow="visible"/>
			</clipPath>
			<path clip-path="url(#SVGID_2_)" fill="#333333" d="M5.667,11.137c0.322-0.33,3.712-3.559,3.712-3.559
				C9.551,7.4,9.778,7.312,10.002,7.312c0.227,0,0.451,0.088,0.623,0.267c0,0,3.389,3.229,3.712,3.559
				c0.322,0.329,0.345,0.924,0,1.277c-0.344,0.352-0.823,0.381-1.245,0l-3.09-2.962l-3.09,2.962c-0.422,0.381-0.902,0.352-1.246,0
				C5.323,12.061,5.345,11.467,5.667,11.137"/>
		</g>
	</g>
</g>
<g>
	<path fill="#C2C2C2" d="M10,22.043c4.389,0,7.958,3.57,7.958,7.958S14.389,37.959,10,37.959c-4.388,0-7.958-3.568-7.958-7.958
		S5.612,22.043,10,22.043 M10,20.043c-5.499,0-9.958,4.459-9.958,9.958S4.501,39.959,10,39.959s9.958-4.459,9.958-9.958
		S15.501,20.043,10,20.043L10,20.043z"/>
</g>
<g>
	<g>
		<g>
			<defs>
				<rect id="SVGID_3_" x="5.415" y="27.313" width="9.171" height="5.375"/>
			</defs>
			<clipPath id="SVGID_4_">
				<use xlink:href="#SVGID_3_"  overflow="visible"/>
			</clipPath>
			<path clip-path="url(#SVGID_4_)" fill="#C2C2C2" d="M5.665,31.138c0.322-0.33,3.713-3.559,3.713-3.559
				c0.172-0.179,0.398-0.267,0.623-0.267c0.227,0,0.451,0.088,0.623,0.267c0,0,3.39,3.229,3.712,3.559
				c0.322,0.329,0.346,0.924,0,1.276c-0.344,0.353-0.822,0.381-1.245,0l-3.09-2.962l-3.09,2.962c-0.422,0.381-0.902,0.353-1.246,0
				C5.321,32.061,5.343,31.467,5.665,31.138"/>
		</g>
	</g>
</g>
<g>
	<path fill="#FFFFFF" d="M10.001,42.044c4.388,0,7.958,3.57,7.958,7.958c0,4.389-3.57,7.957-7.958,7.957
		c-4.388,0-7.958-3.568-7.958-7.957S5.613,42.044,10.001,42.044 M10.001,40.044c-5.499,0-9.958,4.459-9.958,9.958
		c0,5.498,4.459,9.957,9.958,9.957s9.958-4.459,9.958-9.957C19.959,44.503,15.502,40.044,10.001,40.044L10.001,40.044z"/>
</g>
<g>
	<g>
		<g>
			<defs>
				<rect id="SVGID_5_" x="5.416" y="47.314" width="9.171" height="5.375"/>
			</defs>
			<clipPath id="SVGID_6_">
				<use xlink:href="#SVGID_5_"  overflow="visible"/>
			</clipPath>
			<path clip-path="url(#SVGID_6_)" fill="#FFFFFF" d="M5.666,51.139c0.322-0.33,3.713-3.559,3.713-3.559
				c0.172-0.18,0.398-0.268,0.623-0.268c0.227,0,0.451,0.088,0.623,0.268c0,0,3.389,3.229,3.712,3.559
				c0.322,0.329,0.345,0.924,0,1.276c-0.344,0.353-0.823,0.381-1.245,0l-3.09-2.962l-3.09,2.962c-0.422,0.381-0.902,0.353-1.246,0
				C5.322,52.062,5.344,51.468,5.666,51.139"/>
		</g>
	</g>
</g>
<g>
	<path fill="#339933" d="M10,62.043c4.389,0,7.958,3.57,7.958,7.959S14.389,77.959,10,77.959c-4.388,0-7.958-3.568-7.958-7.957
		S5.612,62.043,10,62.043 M10,60.044c-5.499,0-9.958,4.458-9.958,9.958c0,5.498,4.459,9.957,9.958,9.957s9.958-4.459,9.958-9.957
		C19.958,64.502,15.501,60.044,10,60.044L10,60.044z"/>
</g>
<g>
	<g>
		<g>
			<defs>
				<rect id="SVGID_7_" x="5.415" y="67.312" width="9.171" height="5.375"/>
			</defs>
			<clipPath id="SVGID_8_">
				<use xlink:href="#SVGID_7_"  overflow="visible"/>
			</clipPath>
			<path clip-path="url(#SVGID_8_)" fill="#339933" d="M5.665,71.139c0.322-0.33,3.713-3.56,3.713-3.56
				c0.172-0.181,0.398-0.269,0.623-0.269c0.227,0,0.451,0.088,0.623,0.269c0,0,3.39,3.229,3.712,3.56
				c0.322,0.329,0.346,0.924,0,1.276c-0.344,0.353-0.822,0.381-1.245,0l-3.09-2.963l-3.09,2.963c-0.422,0.381-0.902,0.353-1.246,0
				C5.321,72.062,5.342,71.468,5.665,71.139"/>
		</g>
	</g>
</g>
<g>
	<path fill="#5290D2" d="M10,82.043c4.389,0,7.958,3.57,7.958,7.959S14.389,97.959,10,97.959c-4.388,0-7.958-3.568-7.958-7.957
		C2.042,85.611,5.612,82.043,10,82.043 M10,80.043c-5.499,0-9.958,4.459-9.958,9.959c0,5.498,4.459,9.957,9.958,9.957
		s9.958-4.459,9.958-9.957C19.958,84.502,15.501,80.043,10,80.043L10,80.043z"/>
</g>
<g>
	<g>
		<g>
			<defs>
				<rect id="SVGID_9_" x="5.415" y="87.312" width="9.171" height="5.375"/>
			</defs>
			<clipPath id="SVGID_10_">
				<use xlink:href="#SVGID_9_"  overflow="visible"/>
			</clipPath>
			<path clip-path="url(#SVGID_10_)" fill="#5290D2" d="M5.665,91.137c0.322-0.33,3.713-3.559,3.713-3.559
				c0.172-0.18,0.398-0.268,0.623-0.268c0.227,0,0.451,0.088,0.623,0.268c0,0,3.39,3.229,3.712,3.559s0.346,0.924,0,1.277
				c-0.344,0.352-0.822,0.381-1.245,0l-3.09-2.963l-3.09,2.963c-0.422,0.381-0.902,0.352-1.246,0
				C5.321,92.061,5.342,91.467,5.665,91.137"/>
		</g>
	</g>
</g>
<g>
	<path fill="#FF5252" d="M10.001,102.043c4.388,0,7.958,3.57,7.958,7.959s-3.57,7.957-7.958,7.957c-4.388,0-7.958-3.568-7.958-7.957
		C2.043,105.611,5.613,102.043,10.001,102.043 M10.001,100.043c-5.499,0-9.958,4.459-9.958,9.959c0,5.498,4.459,9.957,9.958,9.957
		s9.958-4.459,9.958-9.957C19.959,104.502,15.502,100.043,10.001,100.043L10.001,100.043z"/>
</g>
<g>
	<g>
		<g>
			<defs>
				<rect id="SVGID_11_" x="5.416" y="107.312" width="9.171" height="5.375"/>
			</defs>
			<clipPath id="SVGID_12_">
				<use xlink:href="#SVGID_11_"  overflow="visible"/>
			</clipPath>
			<path clip-path="url(#SVGID_12_)" fill="#FF5252" d="M5.666,111.137c0.322-0.33,3.713-3.559,3.713-3.559
				c0.172-0.18,0.398-0.268,0.623-0.268c0.227,0,0.451,0.088,0.623,0.268c0,0,3.389,3.229,3.712,3.559
				c0.322,0.33,0.345,0.924,0,1.277c-0.344,0.352-0.823,0.381-1.245,0l-3.09-2.963l-3.09,2.963c-0.422,0.381-0.902,0.352-1.246,0
				C5.322,112.061,5.343,111.467,5.666,111.137"/>
		</g>
	</g>
</g>
</svg>
