<?xml version="1.0" encoding="utf-8"?>
<!-- Generator: Adobe Illustrator 16.0.0, SVG Export Plug-In . SVG Version: 6.00 Build 0)  -->
<!DOCTYPE svg PUBLIC "-//W3C//DTD SVG 1.1//EN" "http://www.w3.org/Graphics/SVG/1.1/DTD/svg11.dtd">
<svg version="1.1" id="Layer_1" xmlns="http://www.w3.org/2000/svg" xmlns:xlink="http://www.w3.org/1999/xlink" x="0px" y="0px"
	 width="20px" height="120px" viewBox="0 0 20 120" enable-background="new 0 0 20 120" xml:space="preserve">
<polyline fill="none" points="4.76,7 15.24,7 15.24,12.999 4.76,12.999 "/>
<polyline fill="none" stroke="#383838" stroke-width="1.5" stroke-linecap="round" stroke-linejoin="round" stroke-miterlimit="10" points="
	12.25,14.489 7.751,9.99 12.25,5.508 "/>
<polyline fill="none" points="4.76,26.959 15.24,26.959 15.24,32.957 4.76,32.957 "/>
<polyline fill="none" stroke="#C2C2C2" stroke-width="1.5" stroke-linecap="round" stroke-linejoin="round" stroke-miterlimit="10" points="
	12.25,34.447 7.751,29.949 12.25,25.467 "/>
<polyline fill="none" points="4.76,47.044 15.24,47.044 15.24,53.043 4.76,53.043 "/>
<polyline fill="none" stroke="#FFFFFF" stroke-width="1.5" stroke-linecap="round" stroke-linejoin="round" stroke-miterlimit="10" points="
	12.25,54.533 7.751,50.034 12.25,45.552 "/>
<polyline fill="none" points="4.76,66.96 15.24,66.96 15.24,72.959 4.76,72.959 "/>
<polyline fill="none" stroke="#339933" stroke-width="1.5" stroke-linecap="round" stroke-linejoin="round" stroke-miterlimit="10" points="
	12.25,74.448 7.751,69.949 12.25,65.467 "/>
<polyline fill="none" points="4.76,86.959 15.24,86.959 15.24,92.958 4.76,92.958 "/>
<polyline fill="none" stroke="#5290D2" stroke-width="1.5" stroke-linecap="round" stroke-linejoin="round" stroke-miterlimit="10" points="
	12.25,94.447 7.751,89.948 12.25,85.466 "/>
<polyline fill="none" points="4.76,107.001 15.24,107.001 15.24,113 4.76,113 "/>
<polyline fill="none" stroke="#FF5252" stroke-width="1.5" stroke-linecap="round" stroke-linejoin="round" stroke-miterlimit="10" points="
	12.25,114.489 7.751,109.99 12.25,105.508 "/>
</svg>
