<?xml version="1.0" encoding="utf-8"?>
<!-- Generator: Adobe Illustrator 16.0.0, SVG Export Plug-In . SVG Version: 6.00 Build 0)  -->
<!DOCTYPE svg PUBLIC "-//W3C//DTD SVG 1.1//EN" "http://www.w3.org/Graphics/SVG/1.1/DTD/svg11.dtd">
<svg version="1.1" id="Layer_1" xmlns="http://www.w3.org/2000/svg" xmlns:xlink="http://www.w3.org/1999/xlink" x="0px" y="0px"
	 width="20px" height="120px" viewBox="0 0 20 120" enable-background="new 0 0 20 120" xml:space="preserve">
<path fill="#FF5252" d="M0,109.998c0,5.523,4.477,10,10,10c5.523,0,10-4.477,10-10c0-5.521-4.477-10-10-10
	C4.477,99.998,0,104.477,0,109.998z M9.747,105.756l3.535,3.535c0.391,0.391,0.392,1.023,0,1.414l-3.535,3.535
	c-0.391,0.391-1.023,0.391-1.414,0s-0.391-1.023,0-1.414l2.828-2.828l-2.828-2.828c-0.391-0.391-0.391-1.023,0-1.414
	S9.356,105.365,9.747,105.756z"/>
<path fill="#5290D2" d="M0,90c0,5.523,4.477,10,10,10c5.523,0,10-4.479,10-10s-4.477-10-10-10C4.477,80,0,84.479,0,90z
	 M9.747,85.758l3.535,3.535c0.391,0.391,0.392,1.023,0,1.414l-3.535,3.535c-0.391,0.391-1.023,0.391-1.414,0s-0.391-1.023,0-1.414
	L11.161,90l-2.828-2.828c-0.391-0.391-0.391-1.023,0-1.414S9.356,85.367,9.747,85.758z"/>
<path fill="#339933" d="M0,69.959c0,5.523,4.477,10,10,10c5.523,0,10-4.477,10-10c0-5.521-4.477-10-10-10
	C4.477,59.959,0,64.438,0,69.959z M9.747,65.717l3.535,3.535c0.391,0.391,0.392,1.023,0,1.414l-3.535,3.535
	c-0.391,0.391-1.023,0.391-1.414,0s-0.391-1.023,0-1.414l2.828-2.828l-2.828-2.828c-0.391-0.391-0.391-1.023,0-1.414
	S9.356,65.326,9.747,65.717z"/>
<path fill="#FFFFFF" d="M0,50.043c0,5.523,4.477,10,10,10c5.523,0,10-4.477,10-10c0-5.522-4.477-10-10-10
	C4.477,40.043,0,44.521,0,50.043z M9.747,45.801l3.535,3.535c0.391,0.391,0.392,1.023,0,1.414l-3.535,3.536
	c-0.391,0.391-1.023,0.391-1.414,0c-0.391-0.391-0.391-1.023,0-1.414l2.828-2.829l-2.828-2.828c-0.391-0.391-0.391-1.023,0-1.414
	C8.724,45.41,9.356,45.411,9.747,45.801z"/>
<path fill="#C2C2C2" d="M0,29.957c0,5.523,4.477,10,10,10c5.523,0,10-4.477,10-10c0-5.522-4.477-10-10-10
	C4.477,19.957,0,24.435,0,29.957z M9.747,25.715l3.535,3.535c0.391,0.391,0.392,1.023,0,1.414L9.747,34.2
	c-0.391,0.391-1.023,0.391-1.414,0c-0.391-0.391-0.391-1.023,0-1.414l2.828-2.829l-2.828-2.828c-0.391-0.391-0.391-1.023,0-1.414
	C8.724,25.324,9.356,25.324,9.747,25.715z"/>
<path fill="#333333" d="M0,9.999c0,5.523,4.477,10,10,10c5.523,0,10-4.477,10-10c0-5.522-4.477-10-10-10
	C4.477-0.001,0,4.476,0,9.999z M9.747,5.756l3.535,3.535c0.391,0.391,0.392,1.023,0,1.414l-3.535,3.536
	c-0.391,0.391-1.023,0.391-1.414,0c-0.391-0.391-0.391-1.023,0-1.414l2.828-2.829L8.333,7.17c-0.391-0.391-0.391-1.023,0-1.414
	C8.724,5.365,9.356,5.366,9.747,5.756z"/>
</svg>
