<?xml version="1.0" encoding="utf-8"?>
<!-- Generator: Adobe Illustrator 16.0.0, SVG Export Plug-In . SVG Version: 6.00 Build 0)  -->
<!DOCTYPE svg PUBLIC "-//W3C//DTD SVG 1.1//EN" "http://www.w3.org/Graphics/SVG/1.1/DTD/svg11.dtd">
<svg version="1.1" id="Layer_1" xmlns="http://www.w3.org/2000/svg" xmlns:xlink="http://www.w3.org/1999/xlink" x="0px" y="0px"
	 width="20px" height="120px" viewBox="0 0 20 120" enable-background="new 0 0 20 120" xml:space="preserve">
<g>
	<path fill="#333333" d="M10.001,2c4.388,0,7.958,3.57,7.958,7.958s-3.57,7.958-7.958,7.958c-4.388,0-7.958-3.568-7.958-7.958
		S5.613,2,10.001,2 M10.001,0C4.502,0,0.043,4.459,0.043,9.958s4.459,9.958,9.958,9.958s9.958-4.459,9.958-9.958S15.502,0,10.001,0
		L10.001,0z"/>
</g>
<g>
	<g>
		<g>
			<defs>
				<rect id="SVGID_1_" x="5.417" y="7.271" width="9.171" height="5.375"/>
			</defs>
			<clipPath id="SVGID_2_">
				<use xlink:href="#SVGID_1_"  overflow="visible"/>
			</clipPath>
			<path clip-path="url(#SVGID_2_)" fill="#333333" d="M14.338,8.822c-0.322,0.33-3.713,3.559-3.713,3.559
				c-0.172,0.179-0.398,0.267-0.623,0.267c-0.227,0-0.451-0.088-0.623-0.267c0,0-3.389-3.229-3.712-3.559
				c-0.322-0.33-0.345-0.924,0-1.277c0.344-0.352,0.823-0.381,1.245,0l3.09,2.962l3.09-2.962c0.422-0.381,0.902-0.352,1.246,0
				C14.682,7.898,14.66,8.492,14.338,8.822"/>
		</g>
	</g>
</g>
<g>
	<path fill="#C2C2C2" d="M10,22c4.389,0,7.958,3.57,7.958,7.958S14.389,37.916,10,37.916c-4.388,0-7.958-3.568-7.958-7.958
		S5.612,22,10,22 M10,20c-5.499,0-9.958,4.459-9.958,9.958S4.501,39.916,10,39.916s9.958-4.459,9.958-9.958S15.501,20,10,20L10,20z"
		/>
</g>
<g>
	<g>
		<g>
			<defs>
				<rect id="SVGID_3_" x="5.416" y="27.271" width="9.171" height="5.375"/>
			</defs>
			<clipPath id="SVGID_4_">
				<use xlink:href="#SVGID_3_"  overflow="visible"/>
			</clipPath>
			<path clip-path="url(#SVGID_4_)" fill="#C2C2C2" d="M14.337,28.822c-0.321,0.33-3.713,3.559-3.713,3.559
				c-0.172,0.179-0.398,0.267-0.623,0.267c-0.227,0-0.451-0.088-0.623-0.267c0,0-3.389-3.229-3.712-3.559
				c-0.322-0.33-0.345-0.924,0-1.277c0.344-0.352,0.823-0.381,1.245,0l3.09,2.962l3.09-2.962c0.423-0.381,0.902-0.352,1.246,0
				C14.682,27.898,14.659,28.492,14.337,28.822"/>
		</g>
	</g>
</g>
<g>
	<path fill="#FFFFFF" d="M10.001,42.001c4.388,0,7.958,3.57,7.958,7.958s-3.57,7.958-7.958,7.958c-4.388,0-7.958-3.568-7.958-7.958
		S5.613,42.001,10.001,42.001 M10.001,40.001c-5.499,0-9.958,4.459-9.958,9.958s4.459,9.958,9.958,9.958s9.958-4.459,9.958-9.958
		S15.502,40.001,10.001,40.001L10.001,40.001z"/>
</g>
<g>
	<g>
		<g>
			<defs>
				<rect id="SVGID_5_" x="5.417" y="47.272" width="9.171" height="5.375"/>
			</defs>
			<clipPath id="SVGID_6_">
				<use xlink:href="#SVGID_5_"  overflow="visible"/>
			</clipPath>
			<path clip-path="url(#SVGID_6_)" fill="#FFFFFF" d="M14.338,48.823c-0.322,0.33-3.713,3.559-3.713,3.559
				c-0.172,0.179-0.398,0.267-0.623,0.267c-0.227,0-0.451-0.088-0.623-0.267c0,0-3.389-3.229-3.712-3.559
				c-0.322-0.33-0.345-0.924,0-1.277c0.344-0.352,0.823-0.381,1.245,0l3.09,2.962l3.09-2.962c0.422-0.381,0.902-0.352,1.246,0
				C14.682,47.899,14.66,48.493,14.338,48.823"/>
		</g>
	</g>
</g>
<g>
	<path fill="#339933" d="M10,62c4.389,0,7.958,3.57,7.958,7.959S14.389,77.916,10,77.916c-4.388,0-7.958-3.568-7.958-7.957
		S5.612,62,10,62 M10,60.001c-5.499,0-9.958,4.458-9.958,9.958c0,5.498,4.459,9.957,9.958,9.957s9.958-4.459,9.958-9.957
		C19.958,64.459,15.501,60.001,10,60.001L10,60.001z"/>
</g>
<g>
	<g>
		<g>
			<defs>
				<rect id="SVGID_7_" x="5.416" y="67.271" width="9.171" height="5.375"/>
			</defs>
			<clipPath id="SVGID_8_">
				<use xlink:href="#SVGID_7_"  overflow="visible"/>
			</clipPath>
			<path clip-path="url(#SVGID_8_)" fill="#339933" d="M14.337,68.822c-0.321,0.33-3.713,3.559-3.713,3.559
				c-0.172,0.18-0.398,0.268-0.623,0.268c-0.227,0-0.451-0.088-0.623-0.268c0,0-3.389-3.229-3.712-3.559
				c-0.322-0.33-0.345-0.924,0-1.277c0.344-0.352,0.823-0.381,1.245,0l3.09,2.963l3.09-2.963c0.423-0.381,0.902-0.352,1.246,0
				C14.682,67.898,14.659,68.492,14.337,68.822"/>
		</g>
	</g>
</g>
<g>
	<path fill="#5290D2" d="M10,82c4.389,0,7.958,3.57,7.958,7.959S14.389,97.916,10,97.916c-4.388,0-7.958-3.568-7.958-7.957
		C2.042,85.568,5.612,82,10,82 M10,80c-5.499,0-9.958,4.459-9.958,9.959c0,5.498,4.459,9.957,9.958,9.957s9.958-4.459,9.958-9.957
		C19.958,84.459,15.501,80,10,80L10,80z"/>
</g>
<g>
	<g>
		<g>
			<defs>
				<rect id="SVGID_9_" x="5.416" y="87.271" width="9.171" height="5.375"/>
			</defs>
			<clipPath id="SVGID_10_">
				<use xlink:href="#SVGID_9_"  overflow="visible"/>
			</clipPath>
			<path clip-path="url(#SVGID_10_)" fill="#5290D2" d="M14.337,88.822c-0.321,0.33-3.713,3.559-3.713,3.559
				c-0.172,0.18-0.398,0.268-0.623,0.268c-0.227,0-0.451-0.088-0.623-0.268c0,0-3.389-3.229-3.712-3.559
				c-0.322-0.33-0.345-0.924,0-1.277c0.344-0.352,0.823-0.381,1.245,0l3.09,2.963l3.09-2.963c0.423-0.381,0.902-0.352,1.246,0
				C14.682,87.898,14.659,88.492,14.337,88.822"/>
		</g>
	</g>
</g>
<g>
	<path fill="#FF5252" d="M10.001,102c4.388,0,7.958,3.57,7.958,7.959s-3.57,7.957-7.958,7.957c-4.388,0-7.958-3.568-7.958-7.957
		C2.043,105.568,5.613,102,10.001,102 M10.001,100c-5.499,0-9.958,4.459-9.958,9.959c0,5.498,4.459,9.957,9.958,9.957
		s9.958-4.459,9.958-9.957C19.959,104.459,15.502,100,10.001,100L10.001,100z"/>
</g>
<g>
	<g>
		<g>
			<defs>
				<rect id="SVGID_11_" x="5.417" y="107.271" width="9.171" height="5.375"/>
			</defs>
			<clipPath id="SVGID_12_">
				<use xlink:href="#SVGID_11_"  overflow="visible"/>
			</clipPath>
			<path clip-path="url(#SVGID_12_)" fill="#FF5252" d="M14.338,108.822c-0.322,0.33-3.713,3.559-3.713,3.559
				c-0.172,0.18-0.398,0.268-0.623,0.268c-0.227,0-0.451-0.088-0.623-0.268c0,0-3.389-3.229-3.712-3.559
				c-0.322-0.33-0.345-0.924,0-1.277c0.344-0.352,0.823-0.381,1.245,0l3.09,2.963l3.09-2.963c0.422-0.381,0.902-0.352,1.246,0
				C14.682,107.898,14.66,108.492,14.338,108.822"/>
		</g>
	</g>
</g>
</svg>
