<?xml version="1.0" encoding="utf-8"?>
<!-- Generator: Adobe Illustrator 16.0.0, SVG Export Plug-In . SVG Version: 6.00 Build 0)  -->
<!DOCTYPE svg PUBLIC "-//W3C//DTD SVG 1.1//EN" "http://www.w3.org/Graphics/SVG/1.1/DTD/svg11.dtd">
<svg version="1.1" id="Layer_1" xmlns="http://www.w3.org/2000/svg" xmlns:xlink="http://www.w3.org/1999/xlink" x="0px" y="0px"
	 width="20px" height="120px" viewBox="0 0 20 120" enable-background="new 0 0 20 120" xml:space="preserve">
<path fill="#FF5252" d="M10,99.998c-5.523,0-10,4.477-10,10s4.477,10,10,10c5.521,0,10-4.477,10-10S15.521,99.998,10,99.998z
	 M14.242,109.745l-3.535,3.534c-0.391,0.392-1.023,0.393-1.414,0l-3.536-3.534c-0.391-0.392-0.391-1.022,0-1.414
	c0.391-0.392,1.023-0.392,1.414,0L10,111.159l2.828-2.828c0.391-0.392,1.023-0.392,1.414,0S14.633,109.354,14.242,109.745z"/>
<path fill="#5290D2" d="M10,80C4.477,80,0,84.477,0,90s4.477,10,10,10c5.521,0,10-4.477,10-10S15.521,80,10,80z M14.242,89.747
	l-3.535,3.535c-0.391,0.391-1.023,0.392-1.414,0l-3.536-3.535c-0.391-0.392-0.391-1.022,0-1.414c0.391-0.392,1.023-0.392,1.414,0
	L10,91.161l2.828-2.828c0.391-0.392,1.023-0.392,1.414,0S14.633,89.355,14.242,89.747z"/>
<path fill="#339933" d="M10,59.959c-5.523,0-10,4.477-10,10s4.477,10,10,10c5.521,0,10-4.477,10-10S15.521,59.959,10,59.959z
	 M14.242,69.706l-3.535,3.535c-0.391,0.391-1.023,0.392-1.414,0l-3.536-3.535c-0.391-0.392-0.391-1.022,0-1.414
	c0.391-0.392,1.023-0.392,1.414,0L10,71.12l2.828-2.828c0.391-0.392,1.023-0.392,1.414,0S14.633,69.314,14.242,69.706z"/>
<path fill="#FFFFFF" d="M10,40.043c-5.523,0-10,4.477-10,10s4.477,10,10,10c5.521,0,10-4.477,10-10S15.521,40.043,10,40.043z
	 M14.242,49.791l-3.535,3.535c-0.391,0.391-1.023,0.392-1.414,0l-3.536-3.535c-0.391-0.391-0.391-1.023,0-1.414
	c0.391-0.391,1.023-0.391,1.414,0L10,51.205l2.828-2.828c0.391-0.391,1.023-0.391,1.414,0S14.633,49.4,14.242,49.791z"/>
<path fill="#C2C2C2" d="M10,19.957c-5.523,0-10,4.477-10,10s4.477,10,10,10c5.521,0,10-4.477,10-10S15.521,19.957,10,19.957z
	 M14.242,29.704l-3.535,3.535c-0.391,0.391-1.023,0.392-1.414,0l-3.536-3.535c-0.391-0.391-0.391-1.023,0-1.414
	c0.391-0.391,1.023-0.391,1.414,0L10,31.118l2.828-2.828c0.391-0.391,1.023-0.391,1.414,0S14.633,29.313,14.242,29.704z"/>
<path fill="#333333" d="M10-0.001c-5.523,0-10,4.477-10,10s4.477,10,10,10c5.521,0,10-4.477,10-10S15.521-0.001,10-0.001z
	 M14.242,9.746l-3.535,3.535c-0.391,0.391-1.023,0.392-1.414,0L5.757,9.746c-0.391-0.391-0.391-1.023,0-1.414
	c0.391-0.391,1.023-0.391,1.414,0L10,11.16l2.828-2.828c0.391-0.391,1.023-0.391,1.414,0S14.633,9.355,14.242,9.746z"/>
</svg>
