<?xml version="1.0" encoding="utf-8"?>
<!-- Generator: Adobe Illustrator 16.0.0, SVG Export Plug-In . SVG Version: 6.00 Build 0)  -->
<!DOCTYPE svg PUBLIC "-//W3C//DTD SVG 1.1//EN" "http://www.w3.org/Graphics/SVG/1.1/DTD/svg11.dtd">
<svg version="1.1" id="Layer_1" xmlns="http://www.w3.org/2000/svg" xmlns:xlink="http://www.w3.org/1999/xlink" x="0px" y="0px"
	 width="20px" height="120px" viewBox="0 0 20 120" enable-background="new 0 0 20 120" xml:space="preserve">
<path fill="#FF5252" d="M20.002,110c0-5.523-4.477-10-10-10c-5.523,0-10,4.477-10,10s4.477,10,10,10
	C15.525,120,20.002,115.523,20.002,110z M10.253,114.242l-3.535-3.535c-0.391-0.391-0.391-1.023,0-1.414l3.535-3.535
	c0.392-0.391,1.024-0.391,1.415,0s0.391,1.023,0,1.414L8.839,110l2.829,2.828c0.391,0.391,0.391,1.023,0,1.414
	S10.645,114.633,10.253,114.242z"/>
<path fill="#5290D2" d="M20.002,90.002c0-5.523-4.477-10-10-10c-5.523,0-10,4.479-10,10c0,5.523,4.477,10,10,10
	C15.525,100.002,20.002,95.525,20.002,90.002z M10.253,94.244l-3.535-3.535c-0.391-0.391-0.391-1.023,0-1.414l3.535-3.535
	c0.392-0.391,1.024-0.391,1.415,0s0.391,1.023,0,1.414l-2.829,2.828l2.829,2.828c0.391,0.391,0.391,1.023,0,1.414
	S10.645,94.635,10.253,94.244z"/>
<path fill="#339933" d="M20.001,69.96c0-5.522-4.478-10-10-10c-5.523,0-10,4.476-10,10s4.477,10.001,10,10.001
	C15.523,79.961,20.001,75.482,20.001,69.96z M10.253,74.202l-3.535-3.535c-0.391-0.392-0.391-1.022,0-1.414l3.535-3.535
	c0.392-0.391,1.022-0.391,1.414,0c0.392,0.392,0.392,1.023,0,1.414L8.839,69.96l2.828,2.828c0.392,0.392,0.392,1.022,0,1.414
	C11.275,74.593,10.645,74.593,10.253,74.202z"/>
<path fill="#FFFFFF" d="M20.001,50.045c0-5.524-4.478-10-10-10c-5.523,0-10,4.477-10,10c0,5.521,4.477,10,10,10
	C15.523,60.045,20.001,55.566,20.001,50.045z M10.254,54.287l-3.535-3.535c-0.391-0.391-0.392-1.023,0-1.414l3.535-3.537
	c0.391-0.391,1.023-0.391,1.414,0c0.391,0.391,0.391,1.023,0,1.414l-2.828,2.83l2.828,2.828c0.391,0.391,0.391,1.023,0,1.414
	S10.645,54.678,10.254,54.287z"/>
<path fill="#C2C2C2" d="M20.001,29.959c0-5.524-4.478-10-10-10c-5.523,0-10,4.477-10,10c0,5.522,4.477,10,10,10
	C15.523,39.959,20.001,35.481,20.001,29.959z M10.254,34.201l-3.535-3.535c-0.391-0.391-0.392-1.023,0-1.414l3.535-3.536
	c0.391-0.391,1.023-0.391,1.414,0c0.391,0.391,0.391,1.023,0,1.414L8.84,29.959l2.828,2.828c0.391,0.391,0.391,1.023,0,1.414
	C11.277,34.592,10.645,34.592,10.254,34.201z"/>
<path fill="#333333" d="M20.001,10c0-5.523-4.478-10-10-10c-5.523,0-10,4.477-10,10c0,5.522,4.477,10,10,10
	C15.523,20,20.001,15.522,20.001,10z M10.253,14.242l-3.535-3.535c-0.391-0.391-0.392-1.023,0-1.414l3.535-3.536
	c0.392-0.391,1.022-0.391,1.414,0c0.392,0.391,0.392,1.023,0,1.414L8.839,10l2.828,2.828c0.392,0.391,0.392,1.023,0,1.414
	C11.275,14.633,10.645,14.633,10.253,14.242z"/>
</svg>
