<?xml version="1.0" encoding="utf-8"?>
<!-- Generator: Adobe Illustrator 16.0.0, SVG Export Plug-In . SVG Version: 6.00 Build 0)  -->
<!DOCTYPE svg PUBLIC "-//W3C//DTD SVG 1.1//EN" "http://www.w3.org/Graphics/SVG/1.1/DTD/svg11.dtd">
<svg version="1.1" id="Layer_1" xmlns="http://www.w3.org/2000/svg" xmlns:xlink="http://www.w3.org/1999/xlink" x="0px" y="0px"
	 width="20px" height="120px" viewBox="0 0 20 120" enable-background="new 0 0 20 120" xml:space="preserve">
<g>
	<g>
		<g>
			<g>
				<defs>
					<rect id="SVGID_1_" x="1" y="1" width="18" height="18"/>
				</defs>
				<clipPath id="SVGID_2_">
					<use xlink:href="#SVGID_1_"  overflow="visible"/>
				</clipPath>
				<path clip-path="url(#SVGID_2_)" fill="#333333" d="M17,3h-1v2h-3V3H7v2H4V3H3C1.899,3,1,3.9,1,5v12c0,1.1,0.899,2,2,2h14
					c1.1,0,2-0.9,2-2V5C19,3.9,18.1,3,17,3 M17,17H3V9h14V17z M6.5,1h-2v3.5h2V1z M15.5,1h-2v3.5h2V1z"/>
			</g>
		</g>
	</g>
</g>
<g>
	<g>
		<g>
			<g>
				<defs>
					<rect id="SVGID_3_" x="1" y="21" width="18" height="18"/>
				</defs>
				<clipPath id="SVGID_4_">
					<use xlink:href="#SVGID_3_"  overflow="visible"/>
				</clipPath>
				<path clip-path="url(#SVGID_4_)" fill="#C2C2C2" d="M17,23h-1v2h-3v-2H7v2H4v-2H3c-1.101,0-2,0.9-2,2v12c0,1.1,0.899,2,2,2h14
					c1.1,0,2-0.9,2-2V25C19,23.9,18.1,23,17,23 M17,37H3v-8h14V37z M6.5,21h-2v3.5h2V21z M15.5,21h-2v3.5h2V21z"/>
			</g>
		</g>
	</g>
</g>
<g>
	<g>
		<g>
			<g>
				<defs>
					<rect id="SVGID_5_" x="1" y="41" width="18" height="18"/>
				</defs>
				<clipPath id="SVGID_6_">
					<use xlink:href="#SVGID_5_"  overflow="visible"/>
				</clipPath>
				<path clip-path="url(#SVGID_6_)" fill="#FFFFFF" d="M17,43h-1v2h-3v-2H7v2H4v-2H3c-1.101,0-2,0.9-2,2v12c0,1.1,0.899,2,2,2h14
					c1.1,0,2-0.9,2-2V45C19,43.9,18.1,43,17,43 M17,57H3v-8h14V57z M6.5,41h-2v3.5h2V41z M15.5,41h-2v3.5h2V41z"/>
			</g>
		</g>
	</g>
</g>
<g>
	<g>
		<g>
			<g>
				<defs>
					<rect id="SVGID_7_" x="1" y="61.045" width="18" height="18"/>
				</defs>
				<clipPath id="SVGID_8_">
					<use xlink:href="#SVGID_7_"  overflow="visible"/>
				</clipPath>
				<path clip-path="url(#SVGID_8_)" fill="#339933" d="M17,63.045h-1v2h-3v-2H7v2H4v-2H3c-1.101,0-2,0.9-2,2v12c0,1.1,0.899,2,2,2
					h14c1.1,0,2-0.9,2-2v-12C19,63.945,18.1,63.045,17,63.045 M17,77.045H3v-8h14V77.045z M6.5,61.045h-2v3.5h2V61.045z
					 M15.5,61.045h-2v3.5h2V61.045z"/>
			</g>
		</g>
	</g>
</g>
<g>
	<g>
		<g>
			<g>
				<defs>
					<rect id="SVGID_9_" x="1" y="80.938" width="18" height="18"/>
				</defs>
				<clipPath id="SVGID_10_">
					<use xlink:href="#SVGID_9_"  overflow="visible"/>
				</clipPath>
				<path clip-path="url(#SVGID_10_)" fill="#5290D2" d="M17,82.938h-1v2h-3v-2H7v2H4v-2H3c-1.101,0-2,0.9-2,2v12
					c0,1.101,0.899,2,2,2h14c1.1,0,2-0.899,2-2v-12C19,83.838,18.1,82.938,17,82.938 M17,96.938H3v-8h14V96.938z M6.5,80.938h-2v3.5
					h2V80.938z M15.5,80.938h-2v3.5h2V80.938z"/>
			</g>
		</g>
	</g>
</g>
<g>
	<g>
		<g>
			<g>
				<defs>
					<rect id="SVGID_11_" x="1" y="101" width="18" height="18"/>
				</defs>
				<clipPath id="SVGID_12_">
					<use xlink:href="#SVGID_11_"  overflow="visible"/>
				</clipPath>
				<path clip-path="url(#SVGID_12_)" fill="#FF5252" d="M17,103h-1v2h-3v-2H7v2H4v-2H3c-1.101,0-2,0.9-2,2v12c0,1.1,0.899,2,2,2h14
					c1.1,0,2-0.9,2-2v-12C19,103.9,18.1,103,17,103 M17,117H3v-8h14V117z M6.5,101h-2v3.5h2V101z M15.5,101h-2v3.5h2V101z"/>
			</g>
		</g>
	</g>
</g>
</svg>
