<?xml version="1.0" encoding="utf-8"?>
<!-- Generator: Adobe Illustrator 16.0.0, SVG Export Plug-In . SVG Version: 6.00 Build 0)  -->
<!DOCTYPE svg PUBLIC "-//W3C//DTD SVG 1.1//EN" "http://www.w3.org/Graphics/SVG/1.1/DTD/svg11.dtd">
<svg version="1.1" id="Layer_1" xmlns="http://www.w3.org/2000/svg" xmlns:xlink="http://www.w3.org/1999/xlink" x="0px" y="0px"
	 width="20px" height="120px" viewBox="0 0 20 120" enable-background="new 0 0 20 120" xml:space="preserve">
<path fill="#333333" d="M4.021,13.207c-0.764,0.765-0.849,1.917-0.189,2.575l0,0c0.659,0.66,1.812,0.575,2.578-0.191l9.568-9.568
	c0.766-0.766,0.851-1.919,0.19-2.578l0,0c-0.659-0.659-1.813-0.574-2.578,0.19L4.021,13.207z"/>
<path fill="#333333" d="M13.594,15.591c0.766,0.765,1.917,0.85,2.575,0.19l0,0c0.66-0.659,0.575-1.813-0.19-2.578l-9.569-9.57
	c-0.767-0.764-1.92-0.849-2.578-0.19l0,0C3.171,4.102,3.256,5.255,4.02,6.021L13.594,15.591z"/>
<path fill="#C2C2C2" d="M4.021,33.207c-0.764,0.765-0.849,1.917-0.189,2.575l0,0c0.659,0.66,1.812,0.575,2.578-0.191l9.568-9.568
	c0.766-0.766,0.851-1.919,0.19-2.578l0,0c-0.659-0.659-1.813-0.574-2.578,0.19L4.021,33.207z"/>
<path fill="#C2C2C2" d="M13.594,35.591c0.766,0.765,1.917,0.85,2.575,0.19l0,0c0.66-0.659,0.575-1.813-0.19-2.578l-9.569-9.57
	c-0.767-0.764-1.92-0.849-2.578-0.19l0,0c-0.659,0.659-0.574,1.812,0.189,2.578L13.594,35.591z"/>
<path fill="#FFFFFF" d="M4.021,53.207c-0.764,0.765-0.849,1.917-0.189,2.575l0,0c0.659,0.66,1.812,0.575,2.578-0.191l9.568-9.568
	c0.766-0.766,0.851-1.919,0.19-2.578l0,0c-0.659-0.659-1.813-0.574-2.578,0.19L4.021,53.207z"/>
<path fill="#FFFFFF" d="M13.594,55.591c0.766,0.765,1.917,0.85,2.575,0.19l0,0c0.66-0.659,0.575-1.813-0.19-2.578l-9.569-9.57
	c-0.767-0.764-1.92-0.849-2.578-0.19l0,0c-0.659,0.659-0.574,1.812,0.189,2.578L13.594,55.591z"/>
<path fill="#339933" d="M4.021,73.207c-0.764,0.764-0.849,1.916-0.189,2.574l0,0c0.659,0.66,1.812,0.576,2.578-0.191l9.568-9.568
	c0.766-0.766,0.851-1.918,0.19-2.578l0,0c-0.659-0.657-1.813-0.573-2.578,0.191L4.021,73.207z"/>
<path fill="#339933" d="M13.594,75.592c0.766,0.764,1.917,0.85,2.575,0.189l0,0c0.66-0.658,0.575-1.812-0.19-2.578l-9.569-9.57
	c-0.767-0.764-1.92-0.848-2.578-0.189l0,0c-0.659,0.658-0.574,1.812,0.189,2.578L13.594,75.592z"/>
<path fill="#5290D2" d="M4.021,93.207c-0.764,0.764-0.849,1.916-0.189,2.574l0,0c0.659,0.66,1.812,0.576,2.578-0.191l9.568-9.568
	c0.766-0.766,0.851-1.918,0.19-2.578l0,0c-0.659-0.657-1.813-0.573-2.578,0.191L4.021,93.207z"/>
<path fill="#5290D2" d="M13.594,95.592c0.766,0.764,1.917,0.85,2.575,0.189l0,0c0.66-0.658,0.575-1.812-0.19-2.578l-9.569-9.57
	c-0.767-0.764-1.92-0.848-2.578-0.189l0,0c-0.659,0.658-0.574,1.812,0.189,2.578L13.594,95.592z"/>
<path fill="#FF5252" d="M4.021,113.207c-0.764,0.764-0.849,1.916-0.189,2.574l0,0c0.659,0.66,1.812,0.576,2.578-0.191l9.568-9.568
	c0.766-0.766,0.851-1.918,0.19-2.578l0,0c-0.659-0.657-1.813-0.573-2.578,0.191L4.021,113.207z"/>
<path fill="#FF5252" d="M13.594,115.592c0.766,0.764,1.917,0.85,2.575,0.189l0,0c0.66-0.658,0.575-1.812-0.19-2.578l-9.569-9.57
	c-0.767-0.764-1.92-0.848-2.578-0.189l0,0c-0.659,0.658-0.574,1.812,0.189,2.578L13.594,115.592z"/>
</svg>
