<?xml version="1.0" encoding="utf-8"?>
<!-- Generator: Adobe Illustrator 16.0.0, SVG Export Plug-In . SVG Version: 6.00 Build 0)  -->
<!DOCTYPE svg PUBLIC "-//W3C//DTD SVG 1.1//EN" "http://www.w3.org/Graphics/SVG/1.1/DTD/svg11.dtd">
<svg version="1.1" id="Layer_1" xmlns="http://www.w3.org/2000/svg" xmlns:xlink="http://www.w3.org/1999/xlink" x="0px" y="0px"
	 width="20px" height="120px" viewBox="0 0 20 120" enable-background="new 0 0 20 120" xml:space="preserve">
<g>
	<g>
		<g>
			<defs>
				<rect id="SVGID_1_" x="2" width="16" height="20.001"/>
			</defs>
			<clipPath id="SVGID_2_">
				<use xlink:href="#SVGID_1_"  overflow="visible"/>
			</clipPath>
			<path clip-path="url(#SVGID_2_)" fill="#333333" d="M13.636,0H5.192C3.431,0,2,1.428,2,3.186v13.63
				c0,1.755,1.431,3.185,3.192,3.185h9.619c1.758,0,3.188-1.43,3.188-3.185V4.991L13.636,0z M12.758,2.062l3.109,3.555h-3.109V2.062
				z M14.809,17.992H5.192c-0.645,0-1.168-0.527-1.168-1.176V3.186c0-0.649,0.523-1.176,1.168-1.176h5.544v4.612
				c0,0.555,0.453,1.004,1.011,1.004h4.229v9.19C15.977,17.464,15.453,17.992,14.809,17.992"/>
		</g>
	</g>
</g>
<g>
	<g>
		<g>
			<defs>
				<rect id="SVGID_3_" x="2" y="20" width="16" height="20.001"/>
			</defs>
			<clipPath id="SVGID_4_">
				<use xlink:href="#SVGID_3_"  overflow="visible"/>
			</clipPath>
			<path clip-path="url(#SVGID_4_)" fill="#C2C2C2" d="M13.636,20H5.192C3.431,20,2,21.428,2,23.186v13.63
				c0,1.755,1.431,3.185,3.192,3.185h9.619c1.758,0,3.188-1.43,3.188-3.185V24.991L13.636,20z M12.758,22.062l3.109,3.555h-3.109
				V22.062z M14.809,37.992H5.192c-0.645,0-1.168-0.527-1.168-1.176v-13.63c0-0.649,0.523-1.176,1.168-1.176h5.544v4.612
				c0,0.555,0.453,1.004,1.011,1.004h4.229v9.19C15.977,37.464,15.453,37.992,14.809,37.992"/>
		</g>
	</g>
</g>
<g>
	<g>
		<g>
			<defs>
				<rect id="SVGID_5_" x="2" y="40" width="16" height="20.001"/>
			</defs>
			<clipPath id="SVGID_6_">
				<use xlink:href="#SVGID_5_"  overflow="visible"/>
			</clipPath>
			<path clip-path="url(#SVGID_6_)" fill="#FFFFFF" d="M13.636,40H5.192C3.431,40,2,41.427,2,43.185v13.63
				C2,58.571,3.431,60,5.192,60h9.619C16.568,60,18,58.571,18,56.815V44.991L13.636,40z M12.758,42.061l3.109,3.555h-3.109V42.061z
				 M14.809,57.991H5.192c-0.645,0-1.168-0.527-1.168-1.176v-13.63c0-0.649,0.523-1.176,1.168-1.176h5.544v4.612
				c0,0.555,0.453,1.004,1.011,1.004h4.229v9.19C15.977,57.464,15.453,57.991,14.809,57.991"/>
		</g>
	</g>
</g>
<g>
	<g>
		<g>
			<defs>
				<rect id="SVGID_7_" x="2" y="60" width="16" height="20"/>
			</defs>
			<clipPath id="SVGID_8_">
				<use xlink:href="#SVGID_7_"  overflow="visible"/>
			</clipPath>
			<path clip-path="url(#SVGID_8_)" fill="#339933" d="M13.637,60H5.192C3.431,60,2,61.427,2,63.186v13.631
				C2,78.57,3.431,80,5.192,80h9.619C16.57,80,18,78.57,18,76.814V64.99L13.637,60z M12.758,62.061l3.109,3.556h-3.109V62.061z
				 M14.809,77.991H5.192c-0.645,0-1.168-0.527-1.168-1.177V63.186c0-0.649,0.523-1.177,1.168-1.177h5.544v4.611
				c0,0.555,0.455,1.004,1.012,1.004h4.229v9.19C15.977,77.464,15.453,77.991,14.809,77.991"/>
		</g>
	</g>
</g>
<g>
	<g>
		<g>
			<defs>
				<rect id="SVGID_9_" x="2" y="79.999" width="16" height="20.001"/>
			</defs>
			<clipPath id="SVGID_10_">
				<use xlink:href="#SVGID_9_"  overflow="visible"/>
			</clipPath>
			<path clip-path="url(#SVGID_10_)" fill="#5290D2" d="M13.635,79.999H5.192C3.431,79.999,2,81.427,2,83.186v13.631
				C2,98.57,3.431,100,5.192,100h9.619C16.568,100,18,98.57,18,96.814V84.99L13.635,79.999z M12.758,82.061l3.109,3.556h-3.109
				V82.061z M14.807,97.991H5.192c-0.645,0-1.168-0.527-1.168-1.177V83.186c0-0.649,0.523-1.177,1.168-1.177h5.544v4.611
				c0,0.555,0.453,1.004,1.011,1.004h4.229v9.19C15.977,97.464,15.453,97.991,14.807,97.991"/>
		</g>
	</g>
</g>
<g>
	<g>
		<g>
			<defs>
				<rect id="SVGID_11_" x="2" y="99.999" width="16" height="20.001"/>
			</defs>
			<clipPath id="SVGID_12_">
				<use xlink:href="#SVGID_11_"  overflow="visible"/>
			</clipPath>
			<path clip-path="url(#SVGID_12_)" fill="#FF5252" d="M13.636,99.999H5.192C3.43,99.999,2,101.427,2,103.186v13.631
				C2,118.57,3.431,120,5.192,120h9.619c1.758,0,3.188-1.43,3.188-3.186V104.99L13.636,99.999z M12.758,102.061l3.109,3.556h-3.109
				V102.061z M14.809,117.991H5.192c-0.645,0-1.168-0.527-1.168-1.177v-13.631c0-0.648,0.523-1.176,1.168-1.176h5.544v4.611
				c0,0.555,0.453,1.004,1.011,1.004h4.229v9.191C15.977,117.464,15.453,117.991,14.809,117.991"/>
		</g>
	</g>
</g>
</svg>
