<?xml version="1.0" encoding="utf-8"?>
<!-- Generator: Adobe Illustrator 16.0.0, SVG Export Plug-In . SVG Version: 6.00 Build 0)  -->
<!DOCTYPE svg PUBLIC "-//W3C//DTD SVG 1.1//EN" "http://www.w3.org/Graphics/SVG/1.1/DTD/svg11.dtd">
<svg version="1.1" id="All_glyphs" xmlns="http://www.w3.org/2000/svg" xmlns:xlink="http://www.w3.org/1999/xlink" x="0px" y="0px"
	 width="90px" height="58px" viewBox="0 0 90 58" enable-background="new 0 0 90 58" xml:space="preserve">
<g>
	<path fill="#333333" d="M2.97,5.428c2.441,1.312,36.241,19.468,37.499,20.144c1.259,0.676,2.889,1.002,4.531,1.002
		s3.272-0.326,4.531-1.002C50.789,24.896,84.589,6.741,87.03,5.428C89.473,4.117,91.784,0,87.297,0H2.703
		C-1.781,0,0.527,4.117,2.97,5.428z M88.064,15.428c-2.773,1.447-36.835,19.259-38.533,20.144c-1.699,0.887-2.889,1.002-4.531,1.002
		s-2.832-0.115-4.531-1.002C38.771,34.687,4.711,16.875,1.936,15.428C-0.017,14.411,0,15.604,0,16.526s0,36.679,0,36.679
		C0,55.301,2.792,58,4.959,58h80.082C87.208,58,90,55.301,90,53.205c0,0,0-35.757,0-36.679S90.019,14.411,88.064,15.428z"/>
</g>
</svg>
