<?xml version="1.0" encoding="utf-8"?>
<!-- Generator: Adobe Illustrator 16.0.0, SVG Export Plug-In . SVG Version: 6.00 Build 0)  -->
<!DOCTYPE svg PUBLIC "-//W3C//DTD SVG 1.1//EN" "http://www.w3.org/Graphics/SVG/1.1/DTD/svg11.dtd">
<svg version="1.1" id="Layer_1" xmlns="http://www.w3.org/2000/svg" xmlns:xlink="http://www.w3.org/1999/xlink" x="0px" y="0px"
	 width="20px" height="120px" viewBox="0 0 20 120" enable-background="new 0 0 20 120" xml:space="preserve">
<g>
	<g>
		<g>
			<defs>
				<rect id="SVGID_1_" width="20" height="20"/>
			</defs>
			<clipPath id="SVGID_2_">
				<use xlink:href="#SVGID_1_"  overflow="visible"/>
			</clipPath>
			<path clip-path="url(#SVGID_2_)" fill="#333333" d="M10,0C4.477,0,0,4.477,0,10c0,5.524,4.477,10,10,10c5.523,0,10-4.477,10-10
				S15.521,0,10,0 M2.083,10c0-4.372,3.543-7.917,7.917-7.917c1.904,0,3.652,0.674,5.018,1.795L3.878,15.017
				C2.757,13.65,2.083,11.904,2.083,10 M10,17.915c-1.904,0-3.65-0.672-5.014-1.793L16.123,4.983
				C17.242,6.35,17.918,8.094,17.918,10C17.917,14.371,14.371,17.915,10,17.915"/>
		</g>
	</g>
</g>
<g>
	<g>
		<g>
			<defs>
				<rect id="SVGID_3_" y="20" width="20" height="20"/>
			</defs>
			<clipPath id="SVGID_4_">
				<use xlink:href="#SVGID_3_"  overflow="visible"/>
			</clipPath>
			<path clip-path="url(#SVGID_4_)" fill="#C2C2C2" d="M10,20C4.477,20,0,24.477,0,30c0,5.524,4.477,10,10,10
				c5.523,0,10-4.477,10-10S15.521,20,10,20 M2.083,30c0-4.372,3.543-7.917,7.917-7.917c1.904,0,3.652,0.674,5.018,1.795
				L3.878,35.017C2.757,33.65,2.083,31.904,2.083,30 M10,37.915c-1.904,0-3.65-0.672-5.014-1.793l11.138-11.138
				c1.119,1.366,1.795,3.111,1.795,5.016C17.917,34.371,14.371,37.915,10,37.915"/>
		</g>
	</g>
</g>
<g>
	<g>
		<g>
			<defs>
				<rect id="SVGID_5_" y="40" width="20" height="20"/>
			</defs>
			<clipPath id="SVGID_6_">
				<use xlink:href="#SVGID_5_"  overflow="visible"/>
			</clipPath>
			<path clip-path="url(#SVGID_6_)" fill="#FFFFFF" d="M10,40C4.477,40,0,44.477,0,50c0,5.524,4.477,10,10,10
				c5.523,0,10-4.477,10-10S15.521,40,10,40 M2.083,50c0-4.372,3.543-7.917,7.917-7.917c1.904,0,3.652,0.674,5.018,1.795
				L3.878,55.017C2.757,53.65,2.083,51.904,2.083,50 M10,57.915c-1.904,0-3.65-0.672-5.014-1.793l11.138-11.138
				c1.119,1.366,1.795,3.111,1.795,5.016C17.917,54.371,14.371,57.915,10,57.915"/>
		</g>
	</g>
</g>
<g>
	<g>
		<g>
			<defs>
				<rect id="SVGID_7_" y="60" width="20" height="20"/>
			</defs>
			<clipPath id="SVGID_8_">
				<use xlink:href="#SVGID_7_"  overflow="visible"/>
			</clipPath>
			<path clip-path="url(#SVGID_8_)" fill="#339933" d="M10,60C4.477,60,0,64.477,0,70s4.477,10,10,10c5.523,0,10-4.477,10-10
				S15.521,60,10,60 M2.083,70c0-4.373,3.543-7.917,7.917-7.917c1.904,0,3.652,0.675,5.018,1.795l-11.14,11.14
				C2.757,73.65,2.083,71.904,2.083,70 M10,77.914c-1.904,0-3.65-0.672-5.014-1.793l11.138-11.139
				c1.119,1.367,1.795,3.11,1.795,5.018C17.917,74.371,14.371,77.914,10,77.914"/>
		</g>
	</g>
</g>
<g>
	<g>
		<g>
			<defs>
				<rect id="SVGID_9_" y="80" width="20" height="20"/>
			</defs>
			<clipPath id="SVGID_10_">
				<use xlink:href="#SVGID_9_"  overflow="visible"/>
			</clipPath>
			<path clip-path="url(#SVGID_10_)" fill="#5290D2" d="M10,80C4.477,80,0,84.477,0,90s4.477,10,10,10c5.523,0,10-4.477,10-10
				S15.521,80,10,80 M2.083,90c0-4.373,3.543-7.917,7.917-7.917c1.904,0,3.652,0.675,5.018,1.795l-11.14,11.14
				C2.757,93.65,2.083,91.904,2.083,90 M10,97.914c-1.904,0-3.65-0.672-5.014-1.793l11.138-11.139
				c1.119,1.367,1.795,3.11,1.795,5.018C17.917,94.371,14.371,97.914,10,97.914"/>
		</g>
	</g>
</g>
<g>
	<g>
		<g>
			<defs>
				<rect id="SVGID_11_" y="100" width="20" height="20"/>
			</defs>
			<clipPath id="SVGID_12_">
				<use xlink:href="#SVGID_11_"  overflow="visible"/>
			</clipPath>
			<path clip-path="url(#SVGID_12_)" fill="#FF5252" d="M10,100c-5.524,0-10,4.477-10,10s4.477,10,10,10c5.523,0,10-4.477,10-10
				S15.521,100,10,100 M2.083,110c0-4.373,3.543-7.917,7.917-7.917c1.904,0,3.652,0.675,5.018,1.795l-11.14,11.14
				C2.757,113.65,2.083,111.904,2.083,110 M10,117.914c-1.904,0-3.65-0.672-5.014-1.793l11.138-11.139
				c1.119,1.367,1.795,3.11,1.795,5.018C17.917,114.371,14.371,117.914,10,117.914"/>
		</g>
	</g>
</g>
</svg>
