<?xml version="1.0" encoding="utf-8"?>
<!-- Generator: Adobe Illustrator 16.0.0, SVG Export Plug-In . SVG Version: 6.00 Build 0)  -->
<!DOCTYPE svg PUBLIC "-//W3C//DTD SVG 1.1//EN" "http://www.w3.org/Graphics/SVG/1.1/DTD/svg11.dtd">
<svg version="1.1" id="Layer_1" xmlns="http://www.w3.org/2000/svg" xmlns:xlink="http://www.w3.org/1999/xlink" x="0px" y="0px"
	 width="20px" height="120px" viewBox="0 0 20 120" enable-background="new 0 0 20 120" xml:space="preserve">
<g>
	<defs>
		<rect id="SVGID_1_" x="0" width="20" height="20"/>
	</defs>
	<clipPath id="SVGID_2_">
		<use xlink:href="#SVGID_1_"  overflow="visible"/>
	</clipPath>
	<path clip-path="url(#SVGID_2_)" fill="#333333" d="M17.777,0H2.222C1,0,0,1,0,2.222v15.556C0,19,1,20,2.222,20H10v-7.778H7.777
		v-2.75H10V7.194c0-2.404,1.346-4.093,4.185-4.093l2.003,0.002v2.894h-1.331c-1.104,0-1.523,0.829-1.523,1.598v1.877h2.854
		l-0.632,2.749h-2.223V20h4.444C19,20,20,19,20,17.778V2.222C20,1,19,0,17.777,0"/>
</g>
<g>
	<defs>
		<rect id="SVGID_3_" x="0" y="20" width="20" height="20"/>
	</defs>
	<clipPath id="SVGID_4_">
		<use xlink:href="#SVGID_3_"  overflow="visible"/>
	</clipPath>
	<path clip-path="url(#SVGID_4_)" fill="#C2C2C2" d="M17.777,20H2.222C1,20,0,21,0,22.222v15.556C0,39,1,40,2.222,40H10v-7.778
		H7.777v-2.75H10v-2.278c0-2.404,1.346-4.093,4.185-4.093l2.003,0.002v2.894h-1.331c-1.104,0-1.523,0.829-1.523,1.598v1.877h2.854
		l-0.632,2.749h-2.223V40h4.444C19,40,20,39,20,37.778V22.222C20,21,19,20,17.777,20"/>
</g>
<g>
	<defs>
		<rect id="SVGID_5_" x="0" y="40" width="20" height="20"/>
	</defs>
	<clipPath id="SVGID_6_">
		<use xlink:href="#SVGID_5_"  overflow="visible"/>
	</clipPath>
	<path clip-path="url(#SVGID_6_)" fill="#FFFFFF" d="M17.777,40H2.222C1,40,0,41,0,42.222v15.556C0,59,1,60,2.222,60H10v-7.778
		H7.777v-2.75H10v-2.278c0-2.404,1.346-4.093,4.185-4.093l2.003,0.002v2.894h-1.331c-1.104,0-1.523,0.829-1.523,1.598v1.877h2.854
		l-0.632,2.749h-2.223V60h4.444C19,60,20,59,20,57.778V42.222C20,41,19,40,17.777,40"/>
</g>
<g>
	<defs>
		<rect id="SVGID_7_" x="0" y="60" width="20" height="20"/>
	</defs>
	<clipPath id="SVGID_8_">
		<use xlink:href="#SVGID_7_"  overflow="visible"/>
	</clipPath>
	<path clip-path="url(#SVGID_8_)" fill="#339933" d="M17.777,60H2.222C1,60,0,61,0,62.223v15.555C0,79,1,80,2.222,80H10v-7.777
		H7.777v-2.75H10v-2.278c0-2.404,1.346-4.093,4.185-4.093l2.003,0.002v2.895h-1.331c-1.104,0-1.523,0.828-1.523,1.598v1.877h2.854
		l-0.632,2.75h-2.223V80h4.444C19,80,20,79,20,77.777V62.223C20,61,19,60,17.777,60"/>
</g>
<g>
	<defs>
		<rect id="SVGID_9_" x="0" y="80" width="20" height="20"/>
	</defs>
	<clipPath id="SVGID_10_">
		<use xlink:href="#SVGID_9_"  overflow="visible"/>
	</clipPath>
	<path clip-path="url(#SVGID_10_)" fill="#5290D2" d="M17.777,80H2.222C1,80,0,81,0,82.223v15.555C0,99,1,100,2.222,100H10v-7.777
		H7.777v-2.75H10v-2.278c0-2.404,1.346-4.093,4.185-4.093l2.003,0.002v2.895h-1.331c-1.104,0-1.523,0.828-1.523,1.598v1.877h2.854
		l-0.632,2.75h-2.223V100h4.444C19,100,20,99,20,97.777V82.223C20,81,19,80,17.777,80"/>
</g>
<g>
	<defs>
		<rect id="SVGID_11_" x="0" y="100" width="20" height="20"/>
	</defs>
	<clipPath id="SVGID_12_">
		<use xlink:href="#SVGID_11_"  overflow="visible"/>
	</clipPath>
	<path clip-path="url(#SVGID_12_)" fill="#FF5252" d="M17.777,100H2.222C1,100,0,101,0,102.223v15.555C0,119,1,120,2.222,120H10
		v-7.777H7.777v-2.75H10v-2.278c0-2.404,1.346-4.093,4.185-4.093l2.003,0.002v2.895h-1.331c-1.104,0-1.523,0.828-1.523,1.598v1.877
		h2.854l-0.632,2.75h-2.223V120h4.444C19,120,20,119,20,117.777v-15.555C20,101,19,100,17.777,100"/>
</g>
</svg>
