<?xml version="1.0" encoding="utf-8"?>
<!-- Generator: Adobe Illustrator 16.0.0, SVG Export Plug-In . SVG Version: 6.00 Build 0)  -->
<!DOCTYPE svg PUBLIC "-//W3C//DTD SVG 1.1//EN" "http://www.w3.org/Graphics/SVG/1.1/DTD/svg11.dtd">
<svg version="1.1" id="Layer_1" xmlns="http://www.w3.org/2000/svg" xmlns:xlink="http://www.w3.org/1999/xlink" x="0px" y="0px"
	 width="20px" height="120px" viewBox="0 0 20 120" enable-background="new 0 0 20 120" xml:space="preserve">
<g>
	<g>
		<g>
			<defs>
				<rect id="SVGID_1_" y="2.224" width="20" height="17.776"/>
			</defs>
			<clipPath id="SVGID_2_">
				<use xlink:href="#SVGID_1_"  overflow="visible"/>
			</clipPath>
			<path clip-path="url(#SVGID_2_)" fill="#333333" d="M17.5,2.224h-15C1.125,2.224,0,3.625,0,5v8.75c0,1.375,1.125,2.475,2.5,2.475
				h5L12,20v-3.775h5.5c1.375,0,2.5-1.1,2.5-2.475V5C20,3.625,18.875,2.224,17.5,2.224 M5,10.719c-0.811,0-1.469-0.658-1.469-1.47
				C3.531,8.438,4.189,7.78,5,7.78s1.469,0.659,1.469,1.47S5.811,10.719,5,10.719 M10,10.719c-0.811,0-1.469-0.658-1.469-1.47
				C8.531,8.438,9.189,7.78,10,7.78c0.811,0,1.469,0.658,1.469,1.469C11.469,10.061,10.811,10.719,10,10.719 M15,10.719
				c-0.811,0-1.469-0.658-1.469-1.47c0-0.811,0.658-1.469,1.469-1.469s1.469,0.658,1.469,1.469
				C16.469,10.061,15.811,10.719,15,10.719"/>
		</g>
	</g>
</g>
<g>
	<g>
		<g>
			<defs>
				<rect id="SVGID_3_" y="22.224" width="20" height="17.776"/>
			</defs>
			<clipPath id="SVGID_4_">
				<use xlink:href="#SVGID_3_"  overflow="visible"/>
			</clipPath>
			<path clip-path="url(#SVGID_4_)" fill="#C2C2C2" d="M17.5,22.224h-15c-1.375,0-2.5,1.4-2.5,2.775v8.75
				c0,1.375,1.125,2.475,2.5,2.475h5L12,40v-3.775h5.5c1.375,0,2.5-1.1,2.5-2.475V25C20,23.625,18.875,22.224,17.5,22.224 M5,30.719
				c-0.811,0-1.469-0.658-1.469-1.47c0-0.811,0.658-1.469,1.469-1.469s1.469,0.658,1.469,1.469C6.469,30.061,5.811,30.719,5,30.719
				 M10,30.719c-0.811,0-1.469-0.658-1.469-1.47c0-0.811,0.658-1.469,1.469-1.469c0.811,0,1.469,0.658,1.469,1.469
				C11.469,30.061,10.811,30.719,10,30.719 M15,30.719c-0.811,0-1.469-0.658-1.469-1.47c0-0.811,0.658-1.469,1.469-1.469
				s1.469,0.658,1.469,1.469C16.469,30.061,15.811,30.719,15,30.719"/>
		</g>
	</g>
</g>
<g>
	<g>
		<g>
			<defs>
				<rect id="SVGID_5_" y="42.224" width="20" height="17.776"/>
			</defs>
			<clipPath id="SVGID_6_">
				<use xlink:href="#SVGID_5_"  overflow="visible"/>
			</clipPath>
			<path clip-path="url(#SVGID_6_)" fill="#FFFFFF" d="M17.5,42.224h-15c-1.375,0-2.5,1.4-2.5,2.775v8.75
				c0,1.375,1.125,2.475,2.5,2.475h5L12,60v-3.775h5.5c1.375,0,2.5-1.1,2.5-2.475V45C20,43.625,18.875,42.224,17.5,42.224 M5,50.719
				c-0.811,0-1.469-0.658-1.469-1.47c0-0.811,0.658-1.469,1.469-1.469s1.469,0.658,1.469,1.469C6.469,50.061,5.811,50.719,5,50.719
				 M10,50.719c-0.811,0-1.469-0.658-1.469-1.47c0-0.811,0.658-1.469,1.469-1.469c0.811,0,1.469,0.658,1.469,1.469
				C11.469,50.061,10.811,50.719,10,50.719 M15,50.719c-0.811,0-1.469-0.658-1.469-1.47c0-0.811,0.658-1.469,1.469-1.469
				s1.469,0.658,1.469,1.469C16.469,50.061,15.811,50.719,15,50.719"/>
		</g>
	</g>
</g>
<g>
	<g>
		<g>
			<defs>
				<rect id="SVGID_7_" y="62.225" width="20" height="17.775"/>
			</defs>
			<clipPath id="SVGID_8_">
				<use xlink:href="#SVGID_7_"  overflow="visible"/>
			</clipPath>
			<path clip-path="url(#SVGID_8_)" fill="#339933" d="M17.5,62.225h-15c-1.375,0-2.5,1.4-2.5,2.775v8.75
				c0,1.375,1.125,2.475,2.5,2.475h5L12,80v-3.775h5.5c1.375,0,2.5-1.1,2.5-2.475V65C20,63.625,18.875,62.225,17.5,62.225 M5,70.719
				c-0.811,0-1.469-0.658-1.469-1.469S4.189,67.781,5,67.781s1.469,0.658,1.469,1.469S5.811,70.719,5,70.719 M10,70.719
				c-0.811,0-1.469-0.658-1.469-1.469S9.189,67.781,10,67.781c0.811,0,1.469,0.658,1.469,1.469S10.811,70.719,10,70.719 M15,70.719
				c-0.811,0-1.469-0.658-1.469-1.469s0.658-1.469,1.469-1.469s1.469,0.658,1.469,1.469S15.811,70.719,15,70.719"/>
		</g>
	</g>
</g>
<g>
	<g>
		<g>
			<defs>
				<rect id="SVGID_9_" y="82.225" width="20" height="17.775"/>
			</defs>
			<clipPath id="SVGID_10_">
				<use xlink:href="#SVGID_9_"  overflow="visible"/>
			</clipPath>
			<path clip-path="url(#SVGID_10_)" fill="#5290D2" d="M17.5,82.225h-15c-1.375,0-2.5,1.4-2.5,2.775v8.75
				c0,1.375,1.125,2.475,2.5,2.475h5L12,100v-3.775h5.5c1.375,0,2.5-1.1,2.5-2.475V85C20,83.625,18.875,82.225,17.5,82.225
				 M5,90.719c-0.811,0-1.469-0.658-1.469-1.469S4.189,87.781,5,87.781s1.469,0.658,1.469,1.469S5.811,90.719,5,90.719 M10,90.719
				c-0.811,0-1.469-0.658-1.469-1.469S9.189,87.781,10,87.781c0.811,0,1.469,0.658,1.469,1.469S10.811,90.719,10,90.719 M15,90.719
				c-0.811,0-1.469-0.658-1.469-1.469s0.658-1.469,1.469-1.469s1.469,0.658,1.469,1.469S15.811,90.719,15,90.719"/>
		</g>
	</g>
</g>
<g>
	<g>
		<g>
			<defs>
				<rect id="SVGID_11_" y="102.225" width="20" height="17.775"/>
			</defs>
			<clipPath id="SVGID_12_">
				<use xlink:href="#SVGID_11_"  overflow="visible"/>
			</clipPath>
			<path clip-path="url(#SVGID_12_)" fill="#FF5252" d="M17.5,102.225h-15c-1.375,0-2.5,1.4-2.5,2.775v8.75
				c0,1.375,1.125,2.475,2.5,2.475h5L12,120v-3.775h5.5c1.375,0,2.5-1.1,2.5-2.475V105C20,103.625,18.875,102.225,17.5,102.225
				 M5,110.719c-0.811,0-1.469-0.658-1.469-1.469s0.658-1.469,1.469-1.469s1.469,0.658,1.469,1.469S5.811,110.719,5,110.719
				 M10,110.719c-0.811,0-1.469-0.658-1.469-1.469s0.658-1.469,1.469-1.469c0.811,0,1.469,0.658,1.469,1.469
				S10.811,110.719,10,110.719 M15,110.719c-0.811,0-1.469-0.658-1.469-1.469s0.658-1.469,1.469-1.469s1.469,0.658,1.469,1.469
				S15.811,110.719,15,110.719"/>
		</g>
	</g>
</g>
</svg>
