<?xml version="1.0" encoding="utf-8"?>
<!-- Generator: Adobe Illustrator 16.0.0, SVG Export Plug-In . SVG Version: 6.00 Build 0)  -->
<!DOCTYPE svg PUBLIC "-//W3C//DTD SVG 1.1//EN" "http://www.w3.org/Graphics/SVG/1.1/DTD/svg11.dtd">
<svg version="1.1" id="Layer_1" xmlns="http://www.w3.org/2000/svg" xmlns:xlink="http://www.w3.org/1999/xlink" x="0px" y="0px"
	 width="20px" height="17.776px" viewBox="0 0 20 17.776" enable-background="new 0 0 20 17.776" xml:space="preserve">
<g>
	<defs>
		<rect id="SVGID_1_" y="0" width="20" height="17.777"/>
	</defs>
	<clipPath id="SVGID_2_">
		<use xlink:href="#SVGID_1_"  overflow="visible"/>
	</clipPath>
	<path clip-path="url(#SVGID_2_)" fill="#333333" d="M17.5,0h-15C1.125,0,0,1.401,0,2.776v8.75C0,12.901,1.125,14,2.5,14h5
		l4.5,3.776V14h5.5c1.375,0,2.5-1.099,2.5-2.474v-8.75C20,1.401,18.875,0,17.5,0 M5,8.495c-0.811,0-1.469-0.658-1.469-1.469
		S4.189,5.557,5,5.557s1.469,0.658,1.469,1.469S5.811,8.495,5,8.495 M10,8.495c-0.811,0-1.469-0.658-1.469-1.469
		S9.189,5.557,10,5.557c0.811,0,1.469,0.658,1.469,1.469S10.811,8.495,10,8.495 M15,8.495c-0.811,0-1.469-0.658-1.469-1.469
		S14.189,5.557,15,5.557s1.469,0.658,1.469,1.469S15.811,8.495,15,8.495"/>
</g>
</svg>
