<?xml version="1.0" encoding="utf-8"?>
<!-- Generator: Adobe Illustrator 16.0.0, SVG Export Plug-In . SVG Version: 6.00 Build 0)  -->
<!DOCTYPE svg PUBLIC "-//W3C//DTD SVG 1.1//EN" "http://www.w3.org/Graphics/SVG/1.1/DTD/svg11.dtd">
<svg version="1.1" id="Layer_1" xmlns="http://www.w3.org/2000/svg" xmlns:xlink="http://www.w3.org/1999/xlink" x="0px" y="0px"
	 width="20px" height="120px" viewBox="0 0 20 120" enable-background="new 0 0 20 120" xml:space="preserve">
<g>
	<defs>
		<rect id="SVGID_1_" y="0.25" width="19.9" height="19.5"/>
	</defs>
	<clipPath id="SVGID_2_">
		<use xlink:href="#SVGID_1_"  overflow="visible"/>
	</clipPath>
	<path clip-path="url(#SVGID_2_)" fill="#333333" d="M1.053,5.113c0,1.655,0.553,2.849,1.642,3.551
		C3.587,9.24,4.623,9.326,5.161,9.326c0.13,0,0.236-0.007,0.31-0.011c0,0-0.171,1.112,0.653,2.212H6.086
		C4.658,11.527,0,11.824,0,15.656c0,3.896,4.278,4.094,5.137,4.094c0.067,0,0.106-0.002,0.106-0.002c0.009,0,0.07,0.002,0.175,0.002
		c0.552,0,1.975-0.068,3.297-0.712c1.715-0.831,2.585-2.282,2.585-4.305c0-1.954-1.326-3.118-2.293-3.968
		c-0.59-0.52-1.101-0.967-1.101-1.403c0-0.443,0.372-0.777,0.844-1.199c0.763-0.682,1.483-1.653,1.483-3.49
		c0-1.614-0.21-2.699-1.501-3.387c0.134-0.069,0.61-0.119,0.846-0.151c0.699-0.096,1.722-0.204,1.722-0.775V0.25H6.207
		C6.154,0.251,1.053,0.44,1.053,5.113 M9.278,15.099c0.097,1.558-1.236,2.707-3.237,2.852c-2.033,0.149-3.707-0.766-3.804-2.322
		c-0.047-0.75,0.282-1.48,0.925-2.064c0.652-0.591,1.549-0.956,2.524-1.028c0.116-0.006,0.229-0.014,0.343-0.014
		C7.912,12.523,9.186,13.629,9.278,15.099 M7.947,4.046c0.5,1.759-0.254,3.596-1.458,3.936C6.352,8.021,6.208,8.04,6.063,8.04
		c-1.102,0-2.192-1.115-2.598-2.651c-0.226-0.86-0.208-1.616,0.052-2.34C3.771,2.333,4.23,1.854,4.806,1.691
		c0.139-0.039,0.281-0.059,0.426-0.059C6.562,1.632,7.418,2.184,7.947,4.046 M16.576,7.784V4.46H14.36v3.324h-3.324V10h3.324v3.324
		h2.216V10H19.9V7.784H16.576z"/>
</g>
<g>
	<defs>
		<rect id="SVGID_3_" y="20.25" width="19.9" height="19.5"/>
	</defs>
	<clipPath id="SVGID_4_">
		<use xlink:href="#SVGID_3_"  overflow="visible"/>
	</clipPath>
	<path clip-path="url(#SVGID_4_)" fill="#C2C2C2" d="M1.053,25.113c0,1.655,0.553,2.849,1.642,3.551
		c0.893,0.576,1.928,0.663,2.466,0.663c0.13,0,0.236-0.007,0.31-0.011c0,0-0.171,1.112,0.653,2.212H6.086
		C4.658,31.527,0,31.825,0,35.656c0,3.896,4.278,4.094,5.137,4.094c0.067,0,0.106-0.002,0.106-0.002c0.009,0,0.07,0.002,0.175,0.002
		c0.552,0,1.975-0.068,3.296-0.712c1.716-0.831,2.586-2.282,2.586-4.305c0-1.954-1.326-3.118-2.293-3.968
		c-0.59-0.52-1.101-0.967-1.101-1.403c0-0.443,0.372-0.777,0.845-1.199c0.762-0.682,1.482-1.653,1.482-3.49
		c0-1.614-0.209-2.699-1.5-3.387c0.134-0.069,0.609-0.119,0.846-0.151c0.699-0.096,1.722-0.204,1.722-0.775v-0.11H6.207
		C6.154,20.252,1.053,20.44,1.053,25.113 M9.278,35.099c0.097,1.558-1.235,2.707-3.237,2.852c-2.033,0.149-3.707-0.766-3.804-2.322
		c-0.047-0.75,0.282-1.48,0.925-2.064c0.652-0.591,1.549-0.956,2.524-1.028c0.116-0.006,0.229-0.014,0.343-0.014
		C7.912,32.524,9.186,33.629,9.278,35.099 M7.947,24.046c0.5,1.759-0.254,3.596-1.458,3.936c-0.138,0.039-0.281,0.058-0.426,0.058
		c-1.102,0-2.192-1.115-2.598-2.651c-0.226-0.86-0.208-1.616,0.052-2.34c0.254-0.715,0.712-1.194,1.289-1.357
		c0.139-0.039,0.281-0.059,0.426-0.059C6.562,21.633,7.418,22.185,7.947,24.046 M16.576,27.785V24.46H14.36v3.324h-3.324V30h3.324
		v3.324h2.216V30H19.9v-2.216H16.576z"/>
</g>
<g>
	<defs>
		<rect id="SVGID_5_" y="40.25" width="19.9" height="19.5"/>
	</defs>
	<clipPath id="SVGID_6_">
		<use xlink:href="#SVGID_5_"  overflow="visible"/>
	</clipPath>
	<path clip-path="url(#SVGID_6_)" fill="#FFFFFF" d="M1.053,45.113c0,1.655,0.553,2.849,1.642,3.551
		c0.893,0.576,1.928,0.663,2.466,0.663c0.13,0,0.236-0.007,0.31-0.011c0,0-0.171,1.112,0.653,2.212H6.086
		C4.658,51.527,0,51.825,0,55.656c0,3.896,4.278,4.094,5.137,4.094c0.067,0,0.106-0.002,0.106-0.002c0.009,0,0.07,0.002,0.175,0.002
		c0.552,0,1.975-0.068,3.296-0.712c1.716-0.831,2.586-2.282,2.586-4.305c0-1.954-1.326-3.118-2.293-3.968
		c-0.59-0.52-1.101-0.967-1.101-1.403c0-0.443,0.372-0.777,0.845-1.199c0.762-0.682,1.482-1.653,1.482-3.49
		c0-1.614-0.209-2.699-1.5-3.387c0.134-0.069,0.609-0.119,0.846-0.151c0.699-0.096,1.722-0.204,1.722-0.775v-0.11H6.207
		C6.154,40.252,1.053,40.44,1.053,45.113 M9.278,55.099c0.097,1.558-1.235,2.707-3.237,2.852c-2.033,0.149-3.707-0.766-3.804-2.322
		c-0.047-0.75,0.282-1.48,0.925-2.064c0.652-0.591,1.549-0.956,2.524-1.028c0.116-0.006,0.229-0.014,0.343-0.014
		C7.912,52.524,9.186,53.629,9.278,55.099 M7.947,44.046c0.5,1.759-0.254,3.596-1.458,3.936c-0.138,0.039-0.281,0.058-0.426,0.058
		c-1.102,0-2.192-1.115-2.598-2.651c-0.226-0.86-0.208-1.616,0.052-2.34c0.254-0.715,0.712-1.194,1.289-1.357
		c0.139-0.039,0.281-0.059,0.426-0.059C6.562,41.633,7.418,42.185,7.947,44.046 M16.576,47.785V44.46H14.36v3.324h-3.324V50h3.324
		v3.324h2.216V50H19.9v-2.216H16.576z"/>
</g>
<g>
	<defs>
		<rect id="SVGID_7_" y="60.251" width="19.9" height="19.5"/>
	</defs>
	<clipPath id="SVGID_8_">
		<use xlink:href="#SVGID_7_"  overflow="visible"/>
	</clipPath>
	<path clip-path="url(#SVGID_8_)" fill="#339933" d="M1.053,65.114c0,1.654,0.553,2.849,1.642,3.551
		c0.893,0.576,1.928,0.662,2.466,0.662c0.13,0,0.236-0.007,0.31-0.012c0,0-0.171,1.113,0.653,2.213H6.086
		C4.658,71.528,0,71.825,0,75.657c0,3.896,4.278,4.094,5.137,4.094c0.067,0,0.106-0.002,0.106-0.002c0.009,0,0.07,0.002,0.175,0.002
		c0.552,0,1.975-0.068,3.297-0.712c1.715-0.831,2.585-2.282,2.585-4.306c0-1.953-1.326-3.117-2.293-3.968
		c-0.59-0.521-1.101-0.968-1.101-1.403c0-0.443,0.372-0.776,0.844-1.199c0.762-0.682,1.483-1.652,1.483-3.489
		c0-1.614-0.209-2.699-1.5-3.388c0.134-0.068,0.61-0.118,0.846-0.15c0.699-0.097,1.722-0.205,1.722-0.775v-0.109H6.207
		C6.154,60.253,1.053,60.44,1.053,65.114 M9.278,75.1c0.097,1.558-1.236,2.707-3.237,2.853c-2.033,0.148-3.707-0.767-3.804-2.322
		c-0.047-0.75,0.282-1.48,0.925-2.064c0.652-0.592,1.549-0.957,2.524-1.028c0.116-0.007,0.229-0.015,0.343-0.015
		C7.912,72.524,9.186,73.63,9.278,75.1 M7.947,64.047c0.5,1.759-0.254,3.596-1.458,3.937c-0.138,0.039-0.281,0.058-0.426,0.058
		c-1.102,0-2.192-1.115-2.598-2.651c-0.226-0.859-0.208-1.615,0.052-2.34c0.254-0.715,0.712-1.195,1.289-1.357
		c0.139-0.039,0.281-0.059,0.426-0.059C6.562,61.634,7.418,62.185,7.947,64.047 M16.576,67.785v-3.324H14.36v3.324h-3.324v2.216
		h3.324v3.324h2.216v-3.324H19.9v-2.216H16.576z"/>
</g>
<g>
	<defs>
		<rect id="SVGID_9_" y="80.25" width="19.9" height="19.5"/>
	</defs>
	<clipPath id="SVGID_10_">
		<use xlink:href="#SVGID_9_"  overflow="visible"/>
	</clipPath>
	<path clip-path="url(#SVGID_10_)" fill="#5290D2" d="M1.053,85.113c0,1.654,0.553,2.849,1.642,3.551
		c0.893,0.576,1.928,0.662,2.466,0.662c0.13,0,0.236-0.007,0.31-0.012c0,0-0.171,1.113,0.653,2.213H6.086
		C4.658,91.527,0,91.824,0,95.656c0,3.896,4.278,4.094,5.137,4.094c0.067,0,0.106-0.002,0.106-0.002c0.009,0,0.07,0.002,0.175,0.002
		c0.552,0,1.975-0.068,3.297-0.712c1.715-0.831,2.585-2.282,2.585-4.306c0-1.953-1.326-3.117-2.293-3.968
		c-0.59-0.521-1.101-0.968-1.101-1.403c0-0.443,0.372-0.776,0.844-1.199c0.762-0.682,1.483-1.652,1.483-3.489
		c0-1.614-0.209-2.699-1.5-3.388c0.134-0.068,0.61-0.118,0.846-0.15c0.699-0.097,1.722-0.205,1.722-0.775V80.25H6.207
		C6.154,80.252,1.053,80.439,1.053,85.113 M9.278,95.099c0.097,1.558-1.236,2.707-3.237,2.853c-2.033,0.148-3.707-0.767-3.804-2.322
		c-0.047-0.75,0.282-1.48,0.925-2.064c0.652-0.592,1.549-0.957,2.524-1.028c0.116-0.007,0.229-0.015,0.343-0.015
		C7.912,92.523,9.186,93.629,9.278,95.099 M7.947,84.046c0.5,1.759-0.254,3.596-1.458,3.937c-0.138,0.039-0.281,0.058-0.426,0.058
		c-1.102,0-2.192-1.115-2.598-2.651c-0.226-0.859-0.208-1.615,0.052-2.34c0.254-0.715,0.712-1.195,1.289-1.357
		c0.139-0.039,0.281-0.059,0.426-0.059C6.562,81.633,7.418,82.184,7.947,84.046 M16.576,87.784V84.46H14.36v3.324h-3.324V90h3.324
		v3.324h2.216V90H19.9v-2.216H16.576z"/>
</g>
<g>
	<defs>
		<rect id="SVGID_11_" x="0.05" y="100.25" width="19.9" height="19.5"/>
	</defs>
	<clipPath id="SVGID_12_">
		<use xlink:href="#SVGID_11_"  overflow="visible"/>
	</clipPath>
	<path clip-path="url(#SVGID_12_)" fill="#FF5252" d="M1.103,105.113c0,1.654,0.553,2.849,1.642,3.551
		c0.893,0.576,1.928,0.662,2.466,0.662c0.13,0,0.236-0.007,0.31-0.012c0,0-0.171,1.113,0.653,2.213H6.136
		c-1.428,0-6.086,0.297-6.086,4.129c0,3.896,4.278,4.094,5.137,4.094c0.067,0,0.106-0.002,0.106-0.002
		c0.009,0,0.07,0.002,0.175,0.002c0.552,0,1.975-0.068,3.296-0.712c1.716-0.831,2.586-2.282,2.586-4.306
		c0-1.953-1.326-3.117-2.293-3.968c-0.59-0.521-1.101-0.968-1.101-1.403c0-0.443,0.372-0.776,0.845-1.199
		c0.762-0.682,1.482-1.652,1.482-3.489c0-1.614-0.209-2.699-1.5-3.388c0.134-0.068,0.609-0.118,0.846-0.15
		c0.699-0.097,1.722-0.205,1.722-0.775v-0.109H6.256C6.204,100.252,1.103,100.439,1.103,105.113 M9.328,115.099
		c0.097,1.558-1.235,2.707-3.237,2.853c-2.033,0.148-3.707-0.767-3.804-2.322c-0.047-0.75,0.282-1.48,0.925-2.064
		c0.652-0.592,1.549-0.957,2.524-1.028c0.116-0.007,0.229-0.015,0.343-0.015C7.961,112.523,9.235,113.629,9.328,115.099
		 M7.997,104.046c0.5,1.759-0.254,3.596-1.458,3.937c-0.138,0.039-0.281,0.058-0.426,0.058c-1.102,0-2.192-1.115-2.598-2.651
		c-0.226-0.859-0.208-1.615,0.052-2.34c0.254-0.715,0.712-1.195,1.289-1.357c0.139-0.039,0.281-0.059,0.426-0.059
		C6.612,101.633,7.468,102.184,7.997,104.046 M16.626,107.784v-3.324H14.41v3.324h-3.324V110h3.324v3.324h2.216V110h3.324v-2.216
		H16.626z"/>
</g>
</svg>
