<?xml version="1.0" encoding="utf-8"?>
<!-- Generator: Adobe Illustrator 16.0.0, SVG Export Plug-In . SVG Version: 6.00 Build 0)  -->
<!DOCTYPE svg PUBLIC "-//W3C//DTD SVG 1.1//EN" "http://www.w3.org/Graphics/SVG/1.1/DTD/svg11.dtd">
<svg version="1.1" id="Layer_1" xmlns="http://www.w3.org/2000/svg" xmlns:xlink="http://www.w3.org/1999/xlink" x="0px" y="0px"
	 width="20px" height="120px" viewBox="0 0 20 120" enable-background="new 0 0 20 120" xml:space="preserve">
<path fill="#333333" d="M9.867-0.003C4.345,0.071-0.072,4.608,0.001,10.131c0.074,5.52,4.611,9.938,10.134,9.864
	c5.521-0.074,9.938-4.611,9.865-10.134C19.926,4.341,15.389-0.077,9.867-0.003z M9.838,16.083l-0.056-0.001
	c-0.851-0.025-1.45-0.652-1.426-1.489c0.023-0.824,0.638-1.421,1.46-1.421h0.05c0.874,0.026,1.467,0.646,1.442,1.508
	C11.284,15.506,10.68,16.083,9.838,16.083z M13.415,8.983c-0.2,0.284-0.642,0.637-1.194,1.068l-0.609,0.421
	c-0.336,0.26-0.537,0.505-0.613,0.747c-0.061,0.19-0.089,0.24-0.094,0.626l-0.002,0.098H8.573l0.007-0.197
	c0.028-0.811,0.049-1.287,0.384-1.681c0.527-0.619,1.688-1.367,1.739-1.399c0.166-0.125,0.307-0.268,0.411-0.421
	c0.245-0.337,0.353-0.603,0.353-0.863c0-0.362-0.107-0.697-0.318-0.995C10.941,6.1,10.555,5.954,9.993,5.954
	c-0.556,0-0.937,0.177-1.164,0.539C8.595,6.866,8.476,7.256,8.476,7.656v0.099H6.073l0.005-0.104c0.062-1.471,0.587-2.53,1.56-3.149
	c0.612-0.393,1.373-0.593,2.26-0.593c1.163,0,2.144,0.283,2.917,0.839c0.781,0.564,1.18,1.41,1.18,2.512
	C13.994,7.877,13.799,8.457,13.415,8.983z"/>
<path fill="#C2C2C2" d="M9.867,19.997c-5.522,0.074-9.939,4.611-9.866,10.134c0.074,5.52,4.611,9.938,10.134,9.864
	c5.521-0.074,9.938-4.611,9.865-10.134C19.926,24.341,15.389,19.923,9.867,19.997z M9.838,36.083l-0.056-0.001
	c-0.851-0.025-1.45-0.652-1.426-1.489c0.023-0.824,0.638-1.421,1.46-1.421h0.05c0.874,0.026,1.467,0.646,1.442,1.508
	C11.284,35.506,10.68,36.083,9.838,36.083z M13.415,28.983c-0.2,0.284-0.642,0.637-1.194,1.068l-0.609,0.421
	c-0.336,0.26-0.537,0.505-0.613,0.747c-0.061,0.19-0.089,0.24-0.094,0.626l-0.002,0.098H8.573l0.007-0.197
	c0.028-0.811,0.049-1.287,0.384-1.681c0.527-0.619,1.688-1.367,1.739-1.399c0.166-0.125,0.307-0.268,0.411-0.421
	c0.245-0.337,0.353-0.603,0.353-0.863c0-0.362-0.107-0.697-0.318-0.995c-0.205-0.288-0.592-0.434-1.153-0.434
	c-0.556,0-0.937,0.177-1.164,0.539c-0.234,0.373-0.354,0.763-0.354,1.163v0.099H6.073l0.005-0.104
	c0.062-1.472,0.587-2.531,1.56-3.149c0.612-0.394,1.373-0.593,2.261-0.593c1.162,0,2.144,0.283,2.916,0.839
	c0.783,0.564,1.181,1.41,1.181,2.512C13.994,27.877,13.799,28.457,13.415,28.983z"/>
<path fill="#FFFFFF" d="M9.867,40.001c-5.522,0.074-9.939,4.611-9.866,10.134c0.074,5.52,4.611,9.938,10.134,9.864
	c5.521-0.074,9.938-4.611,9.865-10.134C19.926,44.345,15.389,39.927,9.867,40.001z M9.838,56.087l-0.056-0.001
	c-0.851-0.025-1.45-0.652-1.426-1.489c0.023-0.824,0.638-1.421,1.46-1.421h0.05c0.874,0.026,1.467,0.646,1.442,1.508
	C11.284,55.51,10.68,56.087,9.838,56.087z M13.415,48.987c-0.2,0.284-0.642,0.637-1.194,1.068l-0.609,0.421
	c-0.336,0.26-0.537,0.505-0.613,0.747c-0.061,0.19-0.089,0.24-0.094,0.626l-0.002,0.098H8.573L8.58,51.75
	c0.028-0.811,0.049-1.287,0.384-1.681c0.527-0.619,1.688-1.367,1.739-1.399c0.166-0.125,0.307-0.268,0.411-0.421
	c0.245-0.337,0.353-0.603,0.353-0.863c0-0.362-0.107-0.697-0.318-0.995c-0.205-0.288-0.592-0.434-1.153-0.434
	c-0.556,0-0.937,0.177-1.164,0.539C8.595,46.87,8.476,47.26,8.476,47.66v0.099H6.073l0.005-0.104
	c0.062-1.472,0.587-2.531,1.56-3.149c0.612-0.394,1.373-0.593,2.261-0.593c1.162,0,2.144,0.283,2.916,0.839
	c0.783,0.564,1.181,1.41,1.181,2.512C13.994,47.881,13.799,48.46,13.415,48.987z"/>
<path fill="#339933" d="M9.867,60.001c-5.522,0.074-9.939,4.61-9.866,10.134c0.074,5.52,4.611,9.938,10.134,9.864
	c5.521-0.074,9.938-4.61,9.865-10.134C19.926,64.346,15.389,59.927,9.867,60.001z M9.838,76.087l-0.056-0.001
	c-0.851-0.025-1.45-0.652-1.426-1.488c0.023-0.824,0.638-1.422,1.46-1.422h0.05c0.874,0.025,1.467,0.646,1.442,1.508
	C11.284,75.51,10.68,76.087,9.838,76.087z M13.415,68.986c-0.2,0.285-0.642,0.638-1.194,1.068l-0.609,0.422
	c-0.336,0.26-0.537,0.506-0.613,0.746c-0.061,0.19-0.089,0.239-0.094,0.627l-0.002,0.098H8.573L8.58,71.75
	c0.028-0.811,0.049-1.287,0.384-1.682c0.527-0.617,1.688-1.366,1.739-1.398c0.166-0.125,0.307-0.268,0.411-0.42
	c0.245-0.338,0.353-0.604,0.353-0.863c0-0.361-0.107-0.697-0.318-0.994c-0.205-0.289-0.592-0.435-1.153-0.435
	c-0.556,0-0.937,0.177-1.164,0.539c-0.234,0.372-0.354,0.763-0.354,1.163v0.1H6.073l0.005-0.104c0.062-1.473,0.587-2.531,1.56-3.15
	c0.612-0.393,1.373-0.593,2.261-0.593c1.162,0,2.144,0.282,2.916,0.839c0.783,0.564,1.181,1.41,1.181,2.514
	C13.994,67.881,13.799,68.461,13.415,68.986z"/>
<path fill="#5290D2" d="M9.868,80.001c-5.522,0.073-9.939,4.61-9.866,10.134c0.074,5.52,4.611,9.938,10.134,9.864
	c5.521-0.074,9.939-4.61,9.865-10.134C19.926,84.346,15.389,79.928,9.868,80.001z M9.838,96.087l-0.056-0.001
	c-0.851-0.025-1.45-0.652-1.426-1.488c0.023-0.824,0.638-1.422,1.46-1.422h0.05c0.874,0.025,1.467,0.646,1.442,1.508
	C11.285,95.51,10.68,96.087,9.838,96.087z M13.416,88.986c-0.201,0.285-0.641,0.638-1.195,1.068l-0.609,0.422
	c-0.336,0.26-0.536,0.506-0.613,0.746c-0.061,0.19-0.089,0.239-0.094,0.627l-0.002,0.098H8.573L8.58,91.75
	c0.028-0.811,0.049-1.287,0.384-1.682c0.527-0.617,1.688-1.366,1.739-1.398c0.166-0.125,0.307-0.268,0.411-0.42
	c0.245-0.338,0.354-0.604,0.354-0.863c0-0.361-0.106-0.697-0.319-0.994c-0.205-0.289-0.592-0.435-1.153-0.435
	c-0.556,0-0.937,0.177-1.164,0.539c-0.234,0.372-0.354,0.763-0.354,1.163v0.1H6.074l0.005-0.104c0.062-1.473,0.587-2.531,1.56-3.15
	c0.612-0.393,1.373-0.593,2.261-0.593c1.163,0,2.144,0.282,2.917,0.839c0.783,0.564,1.18,1.41,1.18,2.514
	C13.994,87.881,13.799,88.461,13.416,88.986z"/>
<path fill="#FF5252" d="M9.867,100.001c-5.522,0.073-9.939,4.61-9.866,10.134c0.074,5.52,4.611,9.938,10.134,9.864
	c5.522-0.074,9.938-4.61,9.866-10.134C19.926,104.346,15.389,99.928,9.867,100.001z M9.837,116.087l-0.056-0.001
	c-0.851-0.025-1.45-0.652-1.426-1.488c0.023-0.824,0.638-1.422,1.46-1.422h0.05c0.874,0.025,1.466,0.646,1.443,1.508
	C11.283,115.51,10.68,116.087,9.837,116.087z M13.414,108.986c-0.199,0.285-0.641,0.638-1.193,1.068l-0.611,0.422
	c-0.334,0.26-0.536,0.506-0.612,0.746c-0.06,0.19-0.089,0.239-0.095,0.627v0.098H8.572l0.007-0.197
	c0.028-0.811,0.049-1.287,0.384-1.682c0.527-0.617,1.689-1.366,1.739-1.398c0.166-0.125,0.306-0.268,0.412-0.42
	c0.243-0.338,0.352-0.604,0.352-0.863c0-0.361-0.106-0.697-0.317-0.994c-0.205-0.289-0.592-0.435-1.154-0.435
	c-0.556,0-0.937,0.177-1.164,0.539c-0.234,0.372-0.354,0.763-0.354,1.163v0.1H6.073l0.005-0.104c0.062-1.473,0.587-2.531,1.56-3.15
	c0.612-0.393,1.373-0.593,2.261-0.593c1.164,0,2.143,0.282,2.917,0.839c0.781,0.564,1.18,1.41,1.18,2.514
	C13.994,107.881,13.799,108.461,13.414,108.986z"/>
</svg>
