<?xml version="1.0" encoding="utf-8"?>
<!-- Generator: Adobe Illustrator 16.0.0, SVG Export Plug-In . SVG Version: 6.00 Build 0)  -->
<!DOCTYPE svg PUBLIC "-//W3C//DTD SVG 1.1//EN" "http://www.w3.org/Graphics/SVG/1.1/DTD/svg11.dtd">
<svg version="1.1" id="Layer_1" xmlns="http://www.w3.org/2000/svg" xmlns:xlink="http://www.w3.org/1999/xlink" x="0px" y="0px"
	 width="20px" height="120px" viewBox="0 0 20 120" enable-background="new 0 0 20 120" xml:space="preserve">
<g>
	<g>
		<g>
			<g>
				<defs>
					<path id="SVGID_1_" d="M10.834,3.328c0.865,0,1.298,0.589,1.298,1.265c0,0.843-0.752,1.624-1.731,1.624
						c-0.819,0-1.298-0.485-1.275-1.287C9.126,4.254,9.696,3.328,10.834,3.328 M8.17,16.255c-0.686,0-1.185-0.422-0.706-2.277
						l0.784-3.291c0.137-0.527,0.161-0.739,0-0.739c-0.204,0-1.091,0.366-1.618,0.723l-0.342-0.568
						C7.951,8.69,9.864,7.86,10.686,7.86c0.683,0,0.799,0.823,0.457,2.086l-0.899,3.458c-0.16,0.614-0.092,0.825,0.068,0.825
						c0.205,0,0.876-0.254,1.539-0.781l0.389,0.527C10.619,15.623,8.853,16.255,8.17,16.255"/>
				</defs>
				<clipPath id="SVGID_2_">
					<use xlink:href="#SVGID_1_"  overflow="visible"/>
				</clipPath>
				<path clip-path="url(#SVGID_2_)" fill="#333333" d="M20,10c0,5.523-4.477,10-10,10l0,0C4.477,20,0,15.523,0,10l0,0
					C0,4.478,4.477,0,10,0l0,0C15.523,0,20,4.478,20,10L20,10z"/>
			</g>
		</g>
	</g>
	<g>
		<path fill="#333333" d="M10,2.222c4.288,0,7.777,3.489,7.777,7.778c0,4.288-3.489,7.778-7.777,7.778S2.222,14.288,2.222,10
			C2.222,5.711,5.712,2.222,10,2.222 M10,0C4.477,0,0,4.477,0,10s4.477,10,10,10c5.523,0,10-4.477,10-10S15.523,0,10,0L10,0z"/>
	</g>
</g>
<g>
	<g>
		<g>
			<g>
				<defs>
					<path id="SVGID_3_" d="M10.834,23.328c0.865,0,1.299,0.589,1.299,1.265c0,0.843-0.752,1.624-1.731,1.624
						c-0.819,0-1.298-0.485-1.274-1.287C9.127,24.254,9.696,23.328,10.834,23.328 M8.17,36.255c-0.686,0-1.184-0.422-0.705-2.277
						l0.783-3.291c0.137-0.527,0.161-0.739,0-0.739c-0.203,0-1.091,0.366-1.617,0.723l-0.342-0.568
						c1.662-1.412,3.575-2.242,4.396-2.242c0.682,0,0.797,0.823,0.455,2.086l-0.898,3.458c-0.16,0.614-0.092,0.825,0.068,0.825
						c0.206,0,0.877-0.254,1.538-0.781l0.389,0.527C10.619,35.623,8.854,36.255,8.17,36.255"/>
				</defs>
				<clipPath id="SVGID_4_">
					<use xlink:href="#SVGID_3_"  overflow="visible"/>
				</clipPath>
				<path clip-path="url(#SVGID_4_)" fill="#C2C2C2" d="M20,30c0,5.523-4.477,10-10,10l0,0C4.477,40,0,35.523,0,30l0,0
					c0-5.522,4.477-10,10-10l0,0C15.523,20,20,24.478,20,30L20,30z"/>
			</g>
		</g>
	</g>
	<g>
		<path fill="#C2C2C2" d="M10,22.222c4.288,0,7.777,3.489,7.777,7.778c0,4.288-3.489,7.778-7.777,7.778S2.222,34.288,2.222,30
			C2.222,25.711,5.712,22.222,10,22.222 M10,20C4.477,20,0,24.477,0,30s4.477,10,10,10c5.523,0,10-4.477,10-10S15.523,20,10,20
			L10,20z"/>
	</g>
</g>
<g>
	<g>
		<g>
			<g>
				<defs>
					<path id="SVGID_5_" d="M10.834,43.328c0.865,0,1.299,0.589,1.299,1.265c0,0.843-0.752,1.624-1.731,1.624
						c-0.819,0-1.298-0.485-1.274-1.287C9.127,44.254,9.696,43.328,10.834,43.328 M8.17,56.255c-0.686,0-1.184-0.422-0.705-2.277
						l0.783-3.291c0.137-0.527,0.161-0.739,0-0.739c-0.203,0-1.091,0.366-1.617,0.723l-0.342-0.568
						c1.662-1.412,3.575-2.242,4.396-2.242c0.682,0,0.797,0.823,0.455,2.086l-0.898,3.458c-0.16,0.614-0.092,0.825,0.068,0.825
						c0.206,0,0.877-0.254,1.538-0.781l0.389,0.527C10.619,55.623,8.854,56.255,8.17,56.255"/>
				</defs>
				<clipPath id="SVGID_6_">
					<use xlink:href="#SVGID_5_"  overflow="visible"/>
				</clipPath>
				<path clip-path="url(#SVGID_6_)" fill="#FFFFFF" d="M20,50c0,5.523-4.477,10-10,10l0,0C4.477,60,0,55.523,0,50l0,0
					c0-5.522,4.477-10,10-10l0,0C15.523,40,20,44.478,20,50L20,50z"/>
			</g>
		</g>
	</g>
	<g>
		<path fill="#FFFFFF" d="M10,42.222c4.288,0,7.777,3.489,7.777,7.778c0,4.288-3.489,7.778-7.777,7.778S2.222,54.288,2.222,50
			C2.222,45.711,5.712,42.222,10,42.222 M10,40C4.477,40,0,44.477,0,50s4.477,10,10,10c5.523,0,10-4.477,10-10S15.523,40,10,40
			L10,40z"/>
	</g>
</g>
<g>
	<g>
		<g>
			<g>
				<defs>
					<path id="SVGID_7_" d="M10.834,63.328c0.865,0,1.299,0.59,1.299,1.266c0,0.844-0.752,1.623-1.731,1.623
						c-0.819,0-1.298-0.484-1.274-1.287C9.127,64.254,9.696,63.328,10.834,63.328 M8.17,76.256c-0.686,0-1.184-0.422-0.705-2.277
						l0.783-3.291c0.137-0.526,0.161-0.739,0-0.739c-0.203,0-1.091,0.366-1.617,0.723l-0.342-0.567
						c1.662-1.412,3.575-2.242,4.396-2.242c0.682,0,0.797,0.824,0.455,2.088l-0.898,3.457c-0.16,0.615-0.092,0.824,0.068,0.824
						c0.206,0,0.877-0.254,1.538-0.78l0.389,0.526C10.619,75.623,8.854,76.256,8.17,76.256"/>
				</defs>
				<clipPath id="SVGID_8_">
					<use xlink:href="#SVGID_7_"  overflow="visible"/>
				</clipPath>
				<path clip-path="url(#SVGID_8_)" fill="#339933" d="M20,70c0,5.523-4.477,10-10,10l0,0C4.477,80,0,75.523,0,70l0,0
					c0-5.521,4.477-10,10-10l0,0C15.523,60,20,64.479,20,70L20,70z"/>
			</g>
		</g>
	</g>
	<g>
		<path fill="#339933" d="M10,62.223c4.288,0,7.777,3.488,7.777,7.777c0,4.288-3.489,7.777-7.777,7.777S2.222,74.288,2.222,70
			C2.222,65.711,5.712,62.223,10,62.223 M10,60C4.477,60,0,64.477,0,70s4.477,10,10,10c5.523,0,10-4.477,10-10S15.523,60,10,60
			L10,60z"/>
	</g>
</g>
<g>
	<g>
		<g>
			<g>
				<defs>
					<path id="SVGID_9_" d="M10.834,83.328c0.865,0,1.299,0.59,1.299,1.266c0,0.844-0.752,1.623-1.731,1.623
						c-0.819,0-1.298-0.484-1.274-1.287C9.127,84.254,9.696,83.328,10.834,83.328 M8.17,96.256c-0.686,0-1.184-0.422-0.705-2.277
						l0.783-3.291c0.137-0.526,0.161-0.739,0-0.739c-0.203,0-1.091,0.366-1.617,0.723l-0.342-0.567
						c1.662-1.412,3.575-2.242,4.396-2.242c0.682,0,0.797,0.824,0.455,2.088l-0.898,3.457c-0.16,0.615-0.092,0.824,0.068,0.824
						c0.206,0,0.877-0.254,1.538-0.78l0.389,0.526C10.619,95.623,8.854,96.256,8.17,96.256"/>
				</defs>
				<clipPath id="SVGID_10_">
					<use xlink:href="#SVGID_9_"  overflow="visible"/>
				</clipPath>
				<path clip-path="url(#SVGID_10_)" fill="#5290D2" d="M20,90c0,5.523-4.477,10-10,10l0,0c-5.523,0-10-4.477-10-10l0,0
					c0-5.521,4.477-10,10-10l0,0C15.523,80,20,84.479,20,90L20,90z"/>
			</g>
		</g>
	</g>
	<g>
		<path fill="#5290D2" d="M10,82.223c4.288,0,7.777,3.488,7.777,7.777c0,4.288-3.489,7.777-7.777,7.777S2.222,94.288,2.222,90
			C2.222,85.711,5.712,82.223,10,82.223 M10,80C4.477,80,0,84.477,0,90s4.477,10,10,10c5.523,0,10-4.477,10-10S15.523,80,10,80
			L10,80z"/>
	</g>
</g>
<g>
	<g>
		<g>
			<g>
				<defs>
					<path id="SVGID_11_" d="M10.834,103.37c0.865,0,1.299,0.59,1.299,1.266c0,0.843-0.752,1.623-1.731,1.623
						c-0.819,0-1.298-0.485-1.274-1.286C9.127,104.296,9.696,103.37,10.834,103.37 M8.17,116.298c-0.686,0-1.184-0.422-0.705-2.276
						l0.783-3.291c0.137-0.527,0.161-0.74,0-0.74c-0.203,0-1.091,0.365-1.617,0.723l-0.342-0.568c1.662-1.412,3.575-2.24,4.396-2.24
						c0.682,0,0.797,0.822,0.455,2.087l-0.898,3.457c-0.16,0.614-0.092,0.825,0.068,0.825c0.206,0,0.877-0.254,1.538-0.781
						l0.389,0.527C10.619,115.665,8.854,116.298,8.17,116.298"/>
				</defs>
				<clipPath id="SVGID_12_">
					<use xlink:href="#SVGID_11_"  overflow="visible"/>
				</clipPath>
				<path clip-path="url(#SVGID_12_)" fill="#FF5252" d="M20,110.042c0,5.522-4.477,10-10,10l0,0c-5.523,0-10-4.478-10-10l0,0
					c0-5.522,4.477-10,10-10l0,0C15.523,100.042,20,104.52,20,110.042L20,110.042z"/>
			</g>
		</g>
	</g>
	<g>
		<path fill="#FF5252" d="M10,102.266c4.288,0,7.777,3.487,7.777,7.776c0,4.288-3.489,7.776-7.777,7.776s-7.778-3.488-7.778-7.776
			C2.222,105.753,5.712,102.266,10,102.266 M10,100.042c-5.523,0-10,4.478-10,10s4.477,10,10,10c5.523,0,10-4.478,10-10
			S15.523,100.042,10,100.042L10,100.042z"/>
	</g>
</g>
</svg>
