<?xml version="1.0" encoding="utf-8"?>
<!-- Generator: Adobe Illustrator 16.0.0, SVG Export Plug-In . SVG Version: 6.00 Build 0)  -->
<!DOCTYPE svg PUBLIC "-//W3C//DTD SVG 1.1//EN" "http://www.w3.org/Graphics/SVG/1.1/DTD/svg11.dtd">
<svg version="1.1" id="Layer_1" xmlns="http://www.w3.org/2000/svg" xmlns:xlink="http://www.w3.org/1999/xlink" x="0px" y="0px"
	 width="18px" height="18px" viewBox="0 0 18 18" enable-background="new 0 0 18 18" xml:space="preserve">
<g>
	<defs>
		<path id="SVGID_1_" d="M9.751,2.995c0.779,0,1.169,0.531,1.169,1.139c0,0.759-0.677,1.461-1.558,1.461
			c-0.738,0-1.169-0.437-1.148-1.158C8.214,3.829,8.726,2.995,9.751,2.995 M7.353,14.63c-0.616,0-1.066-0.38-0.635-2.05l0.706-2.962
			c0.123-0.474,0.144-0.665,0-0.665c-0.184,0-0.983,0.329-1.456,0.65L5.66,9.092c1.496-1.271,3.218-2.018,3.957-2.018
			c0.614,0,0.718,0.741,0.411,1.878l-0.81,3.113c-0.144,0.552-0.083,0.742,0.062,0.742c0.184,0,0.789-0.229,1.384-0.704l0.349,0.475
			C9.557,14.06,7.968,14.63,7.353,14.63"/>
	</defs>
	<clipPath id="SVGID_2_">
		<use xlink:href="#SVGID_1_"  overflow="visible"/>
	</clipPath>
	<path clip-path="url(#SVGID_2_)" fill="#333333" d="M18,9c0,4.971-4.029,9-9,9l0,0c-4.97,0-9-4.029-9-9l0,0c0-4.97,4.03-9,9-9l0,0
		C13.971,0,18,4.03,18,9L18,9z"/>
</g>
<g>
	<path fill="#333333" d="M9,2c3.859,0,7,3.14,7,7c0,3.859-3.141,7-7,7c-3.86,0-7-3.141-7-7C2,5.14,5.14,2,9,2 M9,0
		C4.029,0,0,4.029,0,9s4.029,9,9,9s9-4.029,9-9S13.971,0,9,0L9,0z"/>
</g>
</svg>
