<?xml version="1.0" encoding="utf-8"?>
<!-- Generator: Adobe Illustrator 16.0.0, SVG Export Plug-In . SVG Version: 6.00 Build 0)  -->
<!DOCTYPE svg PUBLIC "-//W3C//DTD SVG 1.1//EN" "http://www.w3.org/Graphics/SVG/1.1/DTD/svg11.dtd">
<svg version="1.1" id="Layer_1" xmlns="http://www.w3.org/2000/svg" xmlns:xlink="http://www.w3.org/1999/xlink" x="0px" y="0px"
	 width="20px" height="120px" viewBox="0 0 20 120" enable-background="new 0 0 20 120" xml:space="preserve">
<g>
	<g>
		<g>
			<path fill="#333333" d="M16.35,10.157c0.361-0.361,0.723-0.723,1.084-1.083c0.135-0.134,0.268-0.268,0.402-0.402
				c0.383-0.383,0.711-0.842,0.934-1.337c0.256-0.577,0.406-1.161,0.441-1.794c0.031-0.544-0.047-1.112-0.215-1.63
				c-0.371-1.151-1.174-2.145-2.242-2.724c-1.039-0.564-2.262-0.711-3.408-0.435c-0.861,0.208-1.635,0.684-2.256,1.307
				c-0.794,0.793-1.587,1.587-2.38,2.38c-0.341,0.34-0.682,0.681-1.022,1.021C7.102,6.045,6.663,6.727,6.414,7.52
				C6.119,8.456,6.14,9.532,6.478,10.454c0.097,0.269,0.213,0.535,0.354,0.784c0.142,0.253,0.319,0.481,0.5,0.706
				c0.365,0.454,0.848,0.834,1.36,1.108c0.449,0.241,1.018,0.109,1.278-0.342c0.249-0.432,0.107-1.039-0.342-1.279
				c-0.181-0.097-0.352-0.207-0.515-0.33c0.063,0.048,0.126,0.098,0.19,0.146c-0.266-0.204-0.504-0.44-0.71-0.704
				c0.05,0.063,0.1,0.127,0.149,0.191c-0.204-0.265-0.371-0.554-0.5-0.862c0.032,0.077,0.064,0.155,0.097,0.232
				C8.21,9.793,8.125,9.468,8.081,9.135c0.011,0.083,0.022,0.166,0.032,0.249c-0.041-0.331-0.04-0.665,0.004-0.996
				C8.106,8.469,8.095,8.549,8.083,8.629c0.045-0.324,0.13-0.639,0.254-0.94C8.307,7.762,8.276,7.835,8.245,7.91
				C8.37,7.61,8.532,7.33,8.727,7.071C8.678,7.135,8.63,7.199,8.582,7.262C8.821,6.95,9.114,6.68,9.392,6.403
				c0.441-0.441,0.882-0.882,1.323-1.324c0.432-0.431,0.863-0.862,1.295-1.294c0.27-0.271,0.533-0.556,0.836-0.791
				c-0.064,0.049-0.129,0.099-0.191,0.149c0.264-0.204,0.551-0.372,0.861-0.5c-0.078,0.032-0.156,0.064-0.232,0.097
				c0.311-0.127,0.637-0.214,0.969-0.257c-0.084,0.01-0.166,0.021-0.25,0.032c0.332-0.042,0.666-0.041,0.996,0.003
				c-0.08-0.011-0.16-0.021-0.24-0.033c0.324,0.044,0.639,0.129,0.941,0.254c-0.074-0.031-0.148-0.062-0.223-0.093
				c0.299,0.125,0.58,0.287,0.84,0.482c-0.064-0.049-0.129-0.097-0.191-0.145c0.266,0.203,0.502,0.439,0.707,0.703
				c-0.049-0.064-0.098-0.128-0.146-0.192c0.201,0.265,0.369,0.554,0.5,0.862c-0.033-0.078-0.064-0.155-0.098-0.232
				c0.127,0.311,0.213,0.636,0.258,0.968c-0.012-0.083-0.021-0.167-0.031-0.249c0.041,0.331,0.039,0.664-0.004,0.995
				c0.01-0.08,0.021-0.16,0.033-0.241c-0.047,0.324-0.131,0.638-0.254,0.941c0.029-0.074,0.061-0.147,0.092-0.221
				c-0.125,0.299-0.287,0.58-0.482,0.838c0.049-0.063,0.098-0.127,0.145-0.19c-0.277,0.363-0.627,0.677-0.949,1
				c-0.291,0.291-0.584,0.583-0.875,0.874c-0.359,0.36-0.354,0.967,0.008,1.324C15.391,10.524,15.99,10.517,16.35,10.157
				L16.35,10.157z"/>
		</g>
	</g>
	<g>
		<g>
			<path fill="#333333" d="M3.65,9.842c-0.361,0.362-0.722,0.722-1.083,1.083c-0.134,0.135-0.268,0.268-0.402,0.402
				c-0.383,0.383-0.712,0.842-0.932,1.337c-0.258,0.577-0.408,1.161-0.443,1.794c-0.031,0.544,0.048,1.112,0.215,1.63
				c0.372,1.151,1.176,2.146,2.242,2.725c1.039,0.563,2.262,0.711,3.409,0.435c0.862-0.207,1.633-0.684,2.256-1.306
				c0.793-0.794,1.587-1.587,2.379-2.38c0.342-0.342,0.682-0.682,1.023-1.021c0.584-0.587,1.023-1.269,1.273-2.062
				c0.293-0.936,0.273-2.012-0.064-2.933c-0.098-0.269-0.213-0.536-0.354-0.785c-0.143-0.252-0.32-0.48-0.5-0.706
				c-0.365-0.453-0.85-0.834-1.359-1.108c-0.451-0.241-1.019-0.109-1.28,0.343c-0.25,0.432-0.107,1.038,0.342,1.279
				c0.18,0.097,0.352,0.207,0.516,0.33c-0.064-0.049-0.127-0.097-0.191-0.146c0.266,0.205,0.504,0.44,0.711,0.705
				c-0.051-0.064-0.098-0.127-0.148-0.191c0.203,0.265,0.371,0.554,0.5,0.862c-0.033-0.077-0.064-0.154-0.098-0.231
				c0.127,0.31,0.213,0.635,0.258,0.969c-0.01-0.084-0.021-0.167-0.031-0.25c0.041,0.332,0.039,0.665-0.004,0.996
				c0.012-0.081,0.021-0.16,0.033-0.24c-0.045,0.322-0.129,0.638-0.254,0.939c0.029-0.073,0.061-0.146,0.092-0.221
				c-0.125,0.299-0.287,0.58-0.482,0.838c0.049-0.062,0.098-0.127,0.145-0.189c-0.238,0.312-0.531,0.581-0.809,0.858
				c-0.441,0.441-0.882,0.882-1.324,1.323c-0.432,0.432-0.863,0.863-1.294,1.295c-0.27,0.27-0.533,0.556-0.835,0.791
				c0.064-0.05,0.127-0.1,0.192-0.148c-0.265,0.203-0.554,0.371-0.862,0.5c0.077-0.032,0.155-0.064,0.232-0.097
				c-0.312,0.127-0.636,0.214-0.969,0.258c0.082-0.011,0.166-0.021,0.249-0.032c-0.332,0.041-0.665,0.039-0.996-0.004
				c0.08,0.011,0.16,0.021,0.24,0.033c-0.323-0.045-0.638-0.13-0.94-0.254c0.073,0.031,0.146,0.062,0.221,0.092
				c-0.299-0.124-0.58-0.287-0.838-0.481c0.063,0.049,0.126,0.097,0.19,0.145c-0.265-0.203-0.502-0.438-0.708-0.702
				c0.05,0.063,0.1,0.127,0.149,0.191c-0.203-0.266-0.371-0.554-0.5-0.862c0.033,0.077,0.064,0.155,0.097,0.231
				c-0.127-0.311-0.214-0.636-0.257-0.969c0.011,0.084,0.021,0.167,0.032,0.249c-0.041-0.331-0.04-0.663,0.004-0.995
				c-0.011,0.08-0.022,0.161-0.034,0.24c0.045-0.322,0.13-0.638,0.254-0.94c-0.031,0.074-0.062,0.147-0.092,0.222
				c0.125-0.299,0.287-0.58,0.481-0.839c-0.048,0.063-0.096,0.127-0.145,0.19c0.278-0.363,0.627-0.677,0.95-0.999
				c0.292-0.292,0.583-0.583,0.875-0.874c0.36-0.36,0.355-0.967-0.007-1.324C4.61,9.475,4.011,9.481,3.65,9.842L3.65,9.842z"/>
		</g>
	</g>
</g>
<g>
	<g>
		<g>
			<path fill="#C2C2C2" d="M16.35,30.157c0.361-0.361,0.723-0.723,1.084-1.083c0.135-0.134,0.268-0.268,0.402-0.402
				c0.383-0.383,0.711-0.842,0.934-1.337c0.256-0.577,0.406-1.161,0.441-1.794c0.031-0.544-0.047-1.112-0.215-1.63
				c-0.371-1.151-1.174-2.145-2.242-2.724c-1.039-0.564-2.262-0.711-3.408-0.435c-0.861,0.208-1.635,0.684-2.256,1.307
				c-0.794,0.793-1.587,1.587-2.38,2.38c-0.341,0.34-0.682,0.681-1.022,1.021c-0.585,0.586-1.024,1.268-1.274,2.061
				c-0.295,0.936-0.273,2.012,0.064,2.934c0.097,0.269,0.213,0.535,0.354,0.784c0.142,0.253,0.319,0.481,0.5,0.706
				c0.365,0.454,0.848,0.834,1.36,1.108c0.449,0.241,1.018,0.109,1.278-0.342c0.249-0.432,0.107-1.039-0.342-1.279
				c-0.181-0.097-0.352-0.207-0.515-0.33c0.063,0.048,0.126,0.098,0.19,0.146c-0.266-0.204-0.504-0.44-0.71-0.704
				c0.05,0.063,0.1,0.127,0.149,0.191c-0.204-0.265-0.371-0.554-0.5-0.862c0.032,0.077,0.064,0.155,0.097,0.232
				c-0.128-0.311-0.214-0.636-0.258-0.969c0.011,0.083,0.022,0.166,0.032,0.249c-0.041-0.331-0.04-0.665,0.004-0.996
				c-0.011,0.081-0.022,0.161-0.034,0.241c0.045-0.324,0.13-0.639,0.254-0.94c-0.031,0.073-0.062,0.146-0.093,0.221
				c0.125-0.299,0.287-0.58,0.482-0.838c-0.049,0.063-0.097,0.127-0.146,0.19c0.239-0.312,0.533-0.582,0.81-0.859
				c0.441-0.441,0.882-0.882,1.323-1.324c0.432-0.431,0.863-0.862,1.295-1.294c0.27-0.271,0.533-0.556,0.836-0.791
				c-0.064,0.049-0.129,0.099-0.191,0.149c0.264-0.204,0.551-0.372,0.861-0.5c-0.078,0.032-0.156,0.064-0.232,0.097
				c0.311-0.127,0.637-0.214,0.969-0.257c-0.084,0.01-0.166,0.021-0.25,0.032c0.332-0.042,0.666-0.041,0.996,0.003
				c-0.08-0.011-0.16-0.021-0.24-0.033c0.324,0.044,0.639,0.129,0.941,0.254c-0.074-0.031-0.148-0.062-0.223-0.093
				c0.299,0.125,0.58,0.287,0.84,0.482c-0.064-0.049-0.129-0.097-0.191-0.145c0.266,0.203,0.502,0.439,0.707,0.703
				c-0.049-0.064-0.098-0.128-0.146-0.192c0.201,0.265,0.369,0.554,0.5,0.862c-0.033-0.078-0.064-0.155-0.098-0.232
				c0.127,0.311,0.213,0.636,0.258,0.968c-0.012-0.083-0.021-0.167-0.031-0.249c0.041,0.331,0.039,0.664-0.004,0.995
				c0.01-0.08,0.021-0.16,0.033-0.241c-0.047,0.324-0.131,0.638-0.254,0.941c0.029-0.074,0.061-0.147,0.092-0.221
				c-0.125,0.299-0.287,0.58-0.482,0.838c0.049-0.063,0.098-0.127,0.145-0.19c-0.277,0.363-0.627,0.677-0.949,1
				c-0.291,0.291-0.584,0.583-0.875,0.874c-0.359,0.36-0.354,0.967,0.008,1.324C15.391,30.524,15.99,30.517,16.35,30.157
				L16.35,30.157z"/>
		</g>
	</g>
	<g>
		<g>
			<path fill="#C2C2C2" d="M3.65,29.842c-0.361,0.362-0.722,0.722-1.083,1.083c-0.134,0.135-0.268,0.268-0.402,0.402
				c-0.383,0.383-0.712,0.842-0.932,1.337c-0.258,0.577-0.408,1.161-0.443,1.794c-0.031,0.544,0.048,1.112,0.215,1.63
				c0.372,1.151,1.176,2.146,2.242,2.725c1.039,0.563,2.262,0.711,3.409,0.435c0.862-0.207,1.633-0.684,2.256-1.306
				c0.793-0.794,1.587-1.587,2.379-2.38c0.342-0.342,0.682-0.682,1.023-1.021c0.584-0.587,1.023-1.269,1.273-2.062
				c0.293-0.936,0.273-2.012-0.064-2.933c-0.098-0.269-0.213-0.536-0.354-0.785c-0.143-0.252-0.32-0.48-0.5-0.706
				c-0.365-0.453-0.85-0.834-1.359-1.108c-0.451-0.241-1.019-0.109-1.28,0.343c-0.25,0.432-0.107,1.038,0.342,1.279
				c0.18,0.097,0.352,0.207,0.516,0.33c-0.064-0.049-0.127-0.097-0.191-0.146c0.266,0.205,0.504,0.44,0.711,0.705
				c-0.051-0.064-0.098-0.127-0.148-0.191c0.203,0.265,0.371,0.554,0.5,0.862c-0.033-0.077-0.064-0.154-0.098-0.231
				c0.127,0.31,0.213,0.635,0.258,0.969c-0.01-0.084-0.021-0.167-0.031-0.25c0.041,0.332,0.039,0.665-0.004,0.996
				c0.012-0.081,0.021-0.16,0.033-0.24c-0.045,0.322-0.129,0.638-0.254,0.939c0.029-0.073,0.061-0.146,0.092-0.221
				c-0.125,0.299-0.287,0.58-0.482,0.838c0.049-0.062,0.098-0.127,0.145-0.189c-0.238,0.312-0.531,0.581-0.809,0.858
				c-0.441,0.441-0.882,0.882-1.324,1.323c-0.432,0.432-0.863,0.863-1.294,1.295c-0.27,0.27-0.533,0.556-0.835,0.791
				c0.064-0.05,0.127-0.1,0.192-0.148c-0.265,0.203-0.554,0.371-0.862,0.5c0.077-0.032,0.155-0.064,0.232-0.097
				c-0.312,0.127-0.636,0.214-0.969,0.258c0.082-0.011,0.166-0.021,0.249-0.032c-0.332,0.041-0.665,0.039-0.996-0.004
				c0.08,0.011,0.16,0.021,0.24,0.033c-0.323-0.045-0.638-0.13-0.94-0.254c0.073,0.031,0.146,0.062,0.221,0.092
				c-0.299-0.124-0.58-0.287-0.838-0.481c0.063,0.049,0.126,0.097,0.19,0.145c-0.265-0.203-0.502-0.438-0.708-0.702
				c0.05,0.063,0.1,0.127,0.149,0.191c-0.203-0.266-0.371-0.554-0.5-0.862c0.033,0.077,0.064,0.155,0.097,0.231
				c-0.127-0.311-0.214-0.636-0.257-0.969c0.011,0.084,0.021,0.167,0.032,0.249c-0.041-0.331-0.04-0.663,0.004-0.995
				c-0.011,0.08-0.022,0.161-0.034,0.24c0.045-0.322,0.13-0.638,0.254-0.94c-0.031,0.074-0.062,0.147-0.092,0.222
				c0.125-0.299,0.287-0.58,0.481-0.839c-0.048,0.063-0.096,0.127-0.145,0.19c0.278-0.363,0.627-0.677,0.95-0.999
				c0.292-0.292,0.583-0.583,0.875-0.874c0.36-0.36,0.355-0.967-0.007-1.324C4.61,29.475,4.011,29.481,3.65,29.842L3.65,29.842z"/>
		</g>
	</g>
</g>
<g>
	<g>
		<g>

				<path fill="none" stroke="#FFFFFF" stroke-width="1.5" stroke-linecap="round" stroke-linejoin="round" stroke-miterlimit="10" d="
				M16.35,50.157c0.361-0.361,0.723-0.723,1.084-1.083c0.135-0.134,0.268-0.268,0.402-0.402c0.383-0.383,0.711-0.842,0.934-1.337
				c0.256-0.577,0.406-1.161,0.441-1.794c0.031-0.544-0.047-1.112-0.215-1.63c-0.371-1.151-1.174-2.145-2.242-2.724
				c-1.039-0.564-2.262-0.711-3.408-0.435c-0.861,0.208-1.635,0.684-2.256,1.307c-0.794,0.793-1.587,1.587-2.38,2.38
				c-0.341,0.34-0.682,0.681-1.022,1.021c-0.585,0.586-1.024,1.268-1.274,2.061c-0.295,0.936-0.273,2.012,0.064,2.934
				c0.097,0.269,0.213,0.535,0.354,0.784c0.142,0.253,0.319,0.481,0.5,0.706c0.365,0.454,0.848,0.834,1.36,1.108
				c0.449,0.241,1.018,0.109,1.278-0.342c0.249-0.432,0.107-1.039-0.342-1.279c-0.181-0.097-0.352-0.207-0.515-0.33
				c0.063,0.048,0.126,0.098,0.19,0.146c-0.266-0.204-0.504-0.44-0.71-0.704c0.05,0.063,0.1,0.127,0.149,0.191
				c-0.204-0.265-0.371-0.554-0.5-0.862c0.032,0.077,0.064,0.155,0.097,0.232c-0.128-0.311-0.214-0.636-0.258-0.969
				c0.011,0.083,0.022,0.166,0.032,0.249c-0.041-0.331-0.04-0.665,0.004-0.996c-0.011,0.081-0.022,0.161-0.034,0.241
				c0.045-0.324,0.13-0.639,0.254-0.94c-0.031,0.073-0.062,0.146-0.093,0.221c0.125-0.299,0.287-0.58,0.482-0.838
				c-0.049,0.063-0.097,0.127-0.146,0.19c0.239-0.312,0.533-0.582,0.81-0.859c0.441-0.441,0.882-0.882,1.323-1.324
				c0.432-0.431,0.863-0.862,1.295-1.294c0.27-0.271,0.533-0.556,0.836-0.791c-0.064,0.049-0.129,0.099-0.191,0.149
				c0.264-0.204,0.551-0.372,0.861-0.5c-0.078,0.032-0.156,0.064-0.232,0.097c0.311-0.127,0.637-0.214,0.969-0.257
				c-0.084,0.01-0.166,0.021-0.25,0.032c0.332-0.042,0.666-0.041,0.996,0.003c-0.08-0.011-0.16-0.021-0.24-0.033
				c0.324,0.044,0.639,0.129,0.941,0.254c-0.074-0.031-0.148-0.062-0.223-0.093c0.299,0.125,0.58,0.287,0.84,0.482
				c-0.064-0.049-0.129-0.097-0.191-0.145c0.266,0.203,0.502,0.439,0.707,0.703c-0.049-0.064-0.098-0.128-0.146-0.192
				c0.201,0.265,0.369,0.554,0.5,0.862c-0.033-0.078-0.064-0.155-0.098-0.232c0.127,0.311,0.213,0.636,0.258,0.968
				c-0.012-0.083-0.021-0.167-0.031-0.249c0.041,0.331,0.039,0.664-0.004,0.995c0.01-0.08,0.021-0.16,0.033-0.241
				c-0.047,0.324-0.131,0.638-0.254,0.941c0.029-0.074,0.061-0.147,0.092-0.221c-0.125,0.299-0.287,0.58-0.482,0.838
				c0.049-0.063,0.098-0.127,0.145-0.19c-0.277,0.363-0.627,0.677-0.949,1c-0.291,0.291-0.584,0.583-0.875,0.874
				c-0.359,0.36-0.354,0.967,0.008,1.324C15.391,50.524,15.99,50.517,16.35,50.157L16.35,50.157z"/>
		</g>
	</g>
	<g>
		<g>

				<path fill="none" stroke="#FFFFFF" stroke-width="1.5" stroke-linecap="round" stroke-linejoin="round" stroke-miterlimit="10" d="
				M3.65,49.842c-0.361,0.362-0.722,0.722-1.083,1.083c-0.134,0.135-0.268,0.268-0.402,0.402c-0.383,0.383-0.712,0.842-0.932,1.337
				c-0.258,0.577-0.408,1.161-0.443,1.794c-0.031,0.544,0.048,1.112,0.215,1.63c0.372,1.151,1.176,2.146,2.242,2.725
				c1.039,0.563,2.262,0.711,3.409,0.435c0.862-0.207,1.633-0.684,2.256-1.306c0.793-0.794,1.587-1.587,2.379-2.38
				c0.342-0.342,0.682-0.682,1.023-1.021c0.584-0.587,1.023-1.269,1.273-2.062c0.293-0.936,0.273-2.012-0.064-2.933
				c-0.098-0.269-0.213-0.536-0.354-0.785c-0.143-0.252-0.32-0.48-0.5-0.706c-0.365-0.453-0.85-0.834-1.359-1.108
				c-0.451-0.241-1.019-0.109-1.28,0.343c-0.25,0.432-0.107,1.038,0.342,1.279c0.18,0.097,0.352,0.207,0.516,0.33
				c-0.064-0.049-0.127-0.097-0.191-0.146c0.266,0.205,0.504,0.44,0.711,0.705c-0.051-0.064-0.098-0.127-0.148-0.191
				c0.203,0.265,0.371,0.554,0.5,0.862c-0.033-0.077-0.064-0.154-0.098-0.231c0.127,0.31,0.213,0.635,0.258,0.969
				c-0.01-0.084-0.021-0.167-0.031-0.25c0.041,0.332,0.039,0.665-0.004,0.996c0.012-0.081,0.021-0.16,0.033-0.24
				c-0.045,0.322-0.129,0.638-0.254,0.939c0.029-0.073,0.061-0.146,0.092-0.221c-0.125,0.299-0.287,0.58-0.482,0.838
				c0.049-0.062,0.098-0.127,0.145-0.189c-0.238,0.312-0.531,0.581-0.809,0.858c-0.441,0.441-0.882,0.882-1.324,1.323
				c-0.432,0.432-0.863,0.863-1.294,1.295c-0.27,0.27-0.533,0.556-0.835,0.791c0.064-0.05,0.127-0.1,0.192-0.148
				c-0.265,0.203-0.554,0.371-0.862,0.5c0.077-0.032,0.155-0.064,0.232-0.097c-0.312,0.127-0.636,0.214-0.969,0.258
				c0.082-0.011,0.166-0.021,0.249-0.032c-0.332,0.041-0.665,0.039-0.996-0.004c0.08,0.011,0.16,0.021,0.24,0.033
				c-0.323-0.045-0.638-0.13-0.94-0.254c0.073,0.031,0.146,0.062,0.221,0.092c-0.299-0.124-0.58-0.287-0.838-0.481
				c0.063,0.049,0.126,0.097,0.19,0.145c-0.265-0.203-0.502-0.438-0.708-0.702c0.05,0.063,0.1,0.127,0.149,0.191
				c-0.203-0.266-0.371-0.554-0.5-0.862c0.033,0.077,0.064,0.155,0.097,0.231c-0.127-0.311-0.214-0.636-0.257-0.969
				c0.011,0.084,0.021,0.167,0.032,0.249c-0.041-0.331-0.04-0.663,0.004-0.995c-0.011,0.08-0.022,0.161-0.034,0.24
				c0.045-0.322,0.13-0.638,0.254-0.94c-0.031,0.074-0.062,0.147-0.092,0.222c0.125-0.299,0.287-0.58,0.481-0.839
				c-0.048,0.063-0.096,0.127-0.145,0.19c0.278-0.363,0.627-0.677,0.95-0.999c0.292-0.292,0.583-0.583,0.875-0.874
				c0.36-0.36,0.355-0.967-0.007-1.324C4.61,49.475,4.011,49.481,3.65,49.842L3.65,49.842z"/>
		</g>
	</g>
</g>
<g>
	<g>
		<g>
			<path fill="#339933" d="M16.35,70.158c0.361-0.361,0.723-0.723,1.084-1.084c0.135-0.133,0.268-0.268,0.402-0.402
				c0.383-0.383,0.711-0.842,0.934-1.336c0.256-0.578,0.406-1.161,0.441-1.795c0.031-0.543-0.047-1.111-0.215-1.629
				c-0.371-1.152-1.174-2.146-2.242-2.725c-1.039-0.564-2.262-0.711-3.408-0.436c-0.861,0.209-1.635,0.684-2.256,1.307
				c-0.794,0.793-1.587,1.588-2.38,2.381c-0.341,0.34-0.682,0.68-1.022,1.021c-0.585,0.586-1.024,1.268-1.274,2.061
				c-0.295,0.936-0.273,2.012,0.064,2.934c0.097,0.268,0.213,0.535,0.354,0.783c0.142,0.254,0.319,0.482,0.5,0.707
				c0.365,0.453,0.848,0.834,1.36,1.107c0.449,0.242,1.018,0.109,1.278-0.342c0.249-0.432,0.107-1.039-0.342-1.279
				c-0.181-0.096-0.352-0.207-0.515-0.33c0.063,0.049,0.126,0.098,0.19,0.146c-0.266-0.205-0.504-0.441-0.71-0.705
				c0.05,0.064,0.1,0.127,0.149,0.191c-0.204-0.265-0.371-0.554-0.5-0.861c0.032,0.076,0.064,0.154,0.097,0.232
				c-0.128-0.312-0.214-0.637-0.258-0.969c0.011,0.082,0.022,0.165,0.032,0.248c-0.041-0.331-0.04-0.664,0.004-0.996
				c-0.011,0.082-0.022,0.161-0.034,0.242c0.045-0.324,0.13-0.639,0.254-0.941c-0.031,0.074-0.062,0.146-0.093,0.221
				c0.125-0.299,0.287-0.58,0.482-0.838c-0.049,0.063-0.097,0.127-0.146,0.19c0.239-0.312,0.533-0.581,0.81-0.858
				c0.441-0.441,0.882-0.883,1.323-1.324c0.432-0.431,0.863-0.862,1.295-1.294c0.27-0.271,0.533-0.556,0.836-0.791
				c-0.064,0.05-0.129,0.099-0.191,0.149c0.264-0.205,0.551-0.373,0.861-0.501c-0.078,0.032-0.156,0.063-0.232,0.097
				c0.311-0.127,0.637-0.214,0.969-0.258c-0.084,0.01-0.166,0.021-0.25,0.033c0.332-0.042,0.666-0.041,0.996,0.002
				c-0.08-0.01-0.16-0.021-0.24-0.032c0.324,0.044,0.639,0.13,0.941,0.254c-0.074-0.03-0.148-0.062-0.223-0.093
				c0.299,0.125,0.58,0.287,0.84,0.482c-0.064-0.049-0.129-0.098-0.191-0.145c0.266,0.203,0.502,0.438,0.707,0.703
				c-0.049-0.064-0.098-0.129-0.146-0.192c0.201,0.265,0.369,0.554,0.5,0.862c-0.033-0.078-0.064-0.154-0.098-0.232
				c0.127,0.311,0.213,0.637,0.258,0.969c-0.012-0.082-0.021-0.166-0.031-0.248c0.041,0.33,0.039,0.664-0.004,0.994
				c0.01-0.08,0.021-0.16,0.033-0.24c-0.047,0.324-0.131,0.639-0.254,0.941c0.029-0.074,0.061-0.148,0.092-0.222
				c-0.125,0.3-0.287,0.579-0.482,0.839c0.049-0.064,0.098-0.127,0.145-0.191c-0.277,0.363-0.627,0.678-0.949,1
				c-0.291,0.291-0.584,0.583-0.875,0.875c-0.359,0.359-0.354,0.967,0.008,1.323C15.391,70.525,15.99,70.518,16.35,70.158
				L16.35,70.158z"/>
		</g>
	</g>
	<g>
		<g>
			<path fill="#339933" d="M3.65,69.843c-0.361,0.362-0.722,0.722-1.083,1.083c-0.134,0.135-0.268,0.268-0.402,0.402
				c-0.383,0.383-0.712,0.842-0.932,1.338c-0.258,0.576-0.408,1.16-0.443,1.793c-0.031,0.545,0.048,1.113,0.215,1.631
				c0.372,1.15,1.176,2.145,2.242,2.725c1.039,0.562,2.262,0.711,3.409,0.434c0.862-0.207,1.633-0.684,2.256-1.305
				c0.793-0.795,1.587-1.588,2.379-2.381c0.342-0.342,0.682-0.682,1.023-1.021c0.584-0.586,1.023-1.268,1.273-2.061
				c0.293-0.936,0.273-2.012-0.064-2.934c-0.098-0.27-0.213-0.535-0.354-0.785c-0.143-0.252-0.32-0.48-0.5-0.705
				c-0.365-0.453-0.85-0.834-1.359-1.109c-0.451-0.24-1.019-0.109-1.28,0.344c-0.25,0.432-0.107,1.037,0.342,1.278
				c0.18,0.097,0.352,0.206,0.516,0.329c-0.064-0.049-0.127-0.096-0.191-0.145c0.266,0.204,0.504,0.439,0.711,0.704
				c-0.051-0.063-0.098-0.128-0.148-0.191c0.203,0.265,0.371,0.554,0.5,0.862c-0.033-0.078-0.064-0.154-0.098-0.232
				c0.127,0.311,0.213,0.635,0.258,0.969c-0.01-0.084-0.021-0.166-0.031-0.25c0.041,0.332,0.039,0.666-0.004,0.996
				c0.012-0.08,0.021-0.16,0.033-0.24c-0.045,0.322-0.129,0.639-0.254,0.939c0.029-0.072,0.061-0.146,0.092-0.221
				c-0.125,0.299-0.287,0.58-0.482,0.838c0.049-0.062,0.098-0.127,0.145-0.189c-0.238,0.312-0.531,0.582-0.809,0.859
				c-0.441,0.441-0.882,0.881-1.324,1.322c-0.432,0.432-0.863,0.863-1.294,1.295c-0.27,0.27-0.533,0.557-0.835,0.791
				c0.064-0.049,0.127-0.1,0.192-0.148c-0.265,0.203-0.554,0.371-0.862,0.5c0.077-0.031,0.155-0.064,0.232-0.096
				c-0.312,0.127-0.636,0.213-0.969,0.258c0.082-0.012,0.166-0.021,0.249-0.033c-0.332,0.041-0.665,0.039-0.996-0.004
				c0.08,0.012,0.16,0.021,0.24,0.033c-0.323-0.045-0.638-0.129-0.94-0.254c0.073,0.031,0.146,0.062,0.221,0.092
				c-0.299-0.123-0.58-0.287-0.838-0.48c0.063,0.049,0.126,0.096,0.19,0.145c-0.265-0.203-0.502-0.439-0.708-0.703
				c0.05,0.064,0.1,0.127,0.149,0.191c-0.203-0.266-0.371-0.553-0.5-0.861c0.033,0.076,0.064,0.154,0.097,0.23
				c-0.127-0.311-0.214-0.635-0.257-0.969c0.011,0.084,0.021,0.168,0.032,0.25c-0.041-0.332-0.04-0.664,0.004-0.996
				c-0.011,0.08-0.022,0.162-0.034,0.24c0.045-0.322,0.13-0.637,0.254-0.939c-0.031,0.074-0.062,0.146-0.092,0.221
				c0.125-0.299,0.287-0.58,0.481-0.838c-0.048,0.062-0.096,0.127-0.145,0.189c0.278-0.363,0.627-0.676,0.95-0.998
				c0.292-0.293,0.583-0.584,0.875-0.875c0.36-0.359,0.355-0.967-0.007-1.324C4.61,69.477,4.011,69.482,3.65,69.843L3.65,69.843z"/>
		</g>
	</g>
</g>
<g>
	<g>
		<g>
			<path fill="#5290D2" d="M16.35,90.158c0.361-0.361,0.723-0.723,1.084-1.084c0.135-0.133,0.268-0.268,0.402-0.402
				c0.383-0.383,0.711-0.842,0.934-1.336c0.256-0.578,0.406-1.161,0.441-1.795c0.031-0.543-0.047-1.111-0.215-1.629
				c-0.371-1.152-1.174-2.146-2.242-2.725c-1.039-0.564-2.262-0.712-3.408-0.436c-0.861,0.209-1.635,0.684-2.256,1.307
				c-0.794,0.793-1.587,1.588-2.38,2.381c-0.341,0.34-0.682,0.68-1.022,1.021c-0.585,0.586-1.024,1.268-1.274,2.061
				c-0.295,0.936-0.273,2.012,0.064,2.934c0.097,0.268,0.213,0.535,0.354,0.783c0.142,0.254,0.319,0.482,0.5,0.707
				c0.365,0.453,0.848,0.834,1.36,1.107c0.449,0.242,1.018,0.109,1.278-0.342c0.249-0.432,0.107-1.039-0.342-1.279
				c-0.181-0.096-0.352-0.207-0.515-0.33c0.063,0.049,0.126,0.098,0.19,0.146c-0.266-0.205-0.504-0.441-0.71-0.705
				c0.05,0.064,0.1,0.127,0.149,0.191c-0.204-0.265-0.371-0.554-0.5-0.861c0.032,0.076,0.064,0.154,0.097,0.232
				c-0.128-0.312-0.214-0.637-0.258-0.969c0.011,0.082,0.022,0.165,0.032,0.248c-0.041-0.331-0.04-0.664,0.004-0.996
				c-0.011,0.082-0.022,0.161-0.034,0.242c0.045-0.324,0.13-0.639,0.254-0.941c-0.031,0.074-0.062,0.146-0.093,0.221
				c0.125-0.299,0.287-0.58,0.482-0.838c-0.049,0.063-0.097,0.127-0.146,0.19c0.239-0.312,0.533-0.581,0.81-0.858
				c0.441-0.441,0.882-0.883,1.323-1.324c0.432-0.431,0.863-0.862,1.295-1.294c0.27-0.271,0.533-0.556,0.836-0.791
				c-0.064,0.05-0.129,0.099-0.191,0.149c0.264-0.205,0.551-0.373,0.861-0.501c-0.078,0.032-0.156,0.063-0.232,0.097
				c0.311-0.127,0.637-0.214,0.969-0.258c-0.084,0.01-0.166,0.021-0.25,0.033c0.332-0.042,0.666-0.041,0.996,0.002
				c-0.08-0.01-0.16-0.021-0.24-0.032c0.324,0.044,0.639,0.13,0.941,0.254c-0.074-0.03-0.148-0.062-0.223-0.093
				c0.299,0.125,0.58,0.287,0.84,0.482c-0.064-0.049-0.129-0.098-0.191-0.145c0.266,0.203,0.502,0.438,0.707,0.703
				c-0.049-0.064-0.098-0.129-0.146-0.192c0.201,0.265,0.369,0.554,0.5,0.862c-0.033-0.078-0.064-0.154-0.098-0.232
				c0.127,0.311,0.213,0.637,0.258,0.969c-0.012-0.082-0.021-0.166-0.031-0.248c0.041,0.33,0.039,0.664-0.004,0.994
				c0.01-0.08,0.021-0.16,0.033-0.24c-0.047,0.324-0.131,0.639-0.254,0.941c0.029-0.074,0.061-0.148,0.092-0.222
				c-0.125,0.3-0.287,0.579-0.482,0.839c0.049-0.064,0.098-0.127,0.145-0.191c-0.277,0.363-0.627,0.678-0.949,1
				c-0.291,0.291-0.584,0.583-0.875,0.875c-0.359,0.359-0.354,0.967,0.008,1.323C15.391,90.525,15.99,90.518,16.35,90.158
				L16.35,90.158z"/>
		</g>
	</g>
	<g>
		<g>
			<path fill="#5290D2" d="M3.65,89.843c-0.361,0.362-0.722,0.722-1.083,1.083c-0.134,0.135-0.268,0.268-0.402,0.402
				c-0.383,0.383-0.712,0.842-0.932,1.338c-0.258,0.576-0.408,1.16-0.443,1.793c-0.031,0.545,0.048,1.113,0.215,1.631
				c0.372,1.15,1.176,2.145,2.242,2.725c1.039,0.562,2.262,0.711,3.409,0.434c0.862-0.207,1.633-0.684,2.256-1.305
				c0.793-0.795,1.587-1.588,2.379-2.381c0.342-0.342,0.682-0.682,1.023-1.021c0.584-0.586,1.023-1.268,1.273-2.061
				c0.293-0.936,0.273-2.012-0.064-2.934c-0.098-0.27-0.213-0.535-0.354-0.785c-0.143-0.252-0.32-0.48-0.5-0.705
				c-0.365-0.453-0.85-0.834-1.359-1.109c-0.451-0.24-1.019-0.109-1.28,0.344c-0.25,0.432-0.107,1.037,0.342,1.278
				c0.18,0.097,0.352,0.206,0.516,0.329c-0.064-0.049-0.127-0.096-0.191-0.145c0.266,0.204,0.504,0.439,0.711,0.704
				c-0.051-0.063-0.098-0.128-0.148-0.191c0.203,0.265,0.371,0.554,0.5,0.862c-0.033-0.078-0.064-0.154-0.098-0.232
				c0.127,0.311,0.213,0.635,0.258,0.969c-0.01-0.084-0.021-0.166-0.031-0.25c0.041,0.332,0.039,0.666-0.004,0.996
				c0.012-0.08,0.021-0.16,0.033-0.24c-0.045,0.322-0.129,0.639-0.254,0.939c0.029-0.072,0.061-0.146,0.092-0.221
				c-0.125,0.299-0.287,0.58-0.482,0.838c0.049-0.062,0.098-0.127,0.145-0.189c-0.238,0.312-0.531,0.582-0.809,0.859
				c-0.441,0.441-0.882,0.881-1.324,1.322c-0.432,0.432-0.863,0.863-1.294,1.295c-0.27,0.27-0.533,0.557-0.835,0.791
				c0.064-0.049,0.127-0.1,0.192-0.148c-0.265,0.203-0.554,0.371-0.862,0.5c0.077-0.031,0.155-0.064,0.232-0.096
				c-0.312,0.127-0.636,0.213-0.969,0.258c0.082-0.012,0.166-0.021,0.249-0.033c-0.332,0.041-0.665,0.039-0.996-0.004
				c0.08,0.012,0.16,0.021,0.24,0.033c-0.323-0.045-0.638-0.129-0.94-0.254c0.073,0.031,0.146,0.062,0.221,0.092
				c-0.299-0.123-0.58-0.287-0.838-0.48c0.063,0.049,0.126,0.096,0.19,0.145c-0.265-0.203-0.502-0.439-0.708-0.703
				c0.05,0.064,0.1,0.127,0.149,0.191c-0.203-0.266-0.371-0.553-0.5-0.861c0.033,0.076,0.064,0.154,0.097,0.23
				c-0.127-0.311-0.214-0.635-0.257-0.969c0.011,0.084,0.021,0.168,0.032,0.25c-0.041-0.332-0.04-0.664,0.004-0.996
				c-0.011,0.08-0.022,0.162-0.034,0.24c0.045-0.322,0.13-0.637,0.254-0.939c-0.031,0.074-0.062,0.146-0.092,0.221
				c0.125-0.299,0.287-0.58,0.481-0.838c-0.048,0.062-0.096,0.127-0.145,0.189c0.278-0.363,0.627-0.676,0.95-0.998
				c0.292-0.293,0.583-0.584,0.875-0.875c0.36-0.359,0.355-0.967-0.007-1.324C4.61,89.477,4.011,89.482,3.65,89.843L3.65,89.843z"/>
		</g>
	</g>
</g>
<g>
	<g>
		<g>
			<path fill="#FF5252" d="M16.35,110.158c0.361-0.361,0.723-0.723,1.084-1.084c0.135-0.133,0.268-0.268,0.402-0.402
				c0.383-0.383,0.711-0.842,0.934-1.336c0.256-0.578,0.406-1.161,0.441-1.795c0.031-0.543-0.047-1.111-0.215-1.629
				c-0.371-1.152-1.174-2.146-2.242-2.725c-1.039-0.564-2.262-0.712-3.408-0.436c-0.861,0.209-1.635,0.684-2.256,1.307
				c-0.794,0.793-1.587,1.588-2.38,2.381c-0.341,0.34-0.682,0.68-1.022,1.021c-0.585,0.586-1.024,1.268-1.274,2.061
				c-0.295,0.936-0.273,2.012,0.064,2.934c0.097,0.268,0.213,0.535,0.354,0.783c0.142,0.254,0.319,0.482,0.5,0.707
				c0.365,0.453,0.848,0.834,1.36,1.107c0.449,0.242,1.018,0.109,1.278-0.342c0.249-0.432,0.107-1.039-0.342-1.279
				c-0.181-0.096-0.352-0.207-0.515-0.33c0.063,0.049,0.126,0.098,0.19,0.146c-0.266-0.205-0.504-0.441-0.71-0.705
				c0.05,0.064,0.1,0.127,0.149,0.191c-0.204-0.265-0.371-0.554-0.5-0.861c0.032,0.076,0.064,0.154,0.097,0.232
				c-0.128-0.312-0.214-0.637-0.258-0.969c0.011,0.082,0.022,0.165,0.032,0.248c-0.041-0.331-0.04-0.664,0.004-0.996
				c-0.011,0.082-0.022,0.161-0.034,0.242c0.045-0.324,0.13-0.639,0.254-0.941c-0.031,0.074-0.062,0.146-0.093,0.221
				c0.125-0.299,0.287-0.58,0.482-0.838c-0.049,0.063-0.097,0.127-0.146,0.19c0.239-0.312,0.533-0.581,0.81-0.858
				c0.441-0.441,0.882-0.883,1.323-1.324c0.432-0.431,0.863-0.862,1.295-1.294c0.27-0.271,0.533-0.556,0.836-0.791
				c-0.064,0.05-0.129,0.099-0.191,0.149c0.264-0.205,0.551-0.373,0.861-0.501c-0.078,0.032-0.156,0.063-0.232,0.097
				c0.311-0.127,0.637-0.214,0.969-0.258c-0.084,0.01-0.166,0.021-0.25,0.033c0.332-0.042,0.666-0.041,0.996,0.002
				c-0.08-0.01-0.16-0.021-0.24-0.032c0.324,0.044,0.639,0.13,0.941,0.254c-0.074-0.03-0.148-0.062-0.223-0.093
				c0.299,0.125,0.58,0.287,0.84,0.482c-0.064-0.049-0.129-0.098-0.191-0.145c0.266,0.203,0.502,0.438,0.707,0.703
				c-0.049-0.064-0.098-0.129-0.146-0.192c0.201,0.265,0.369,0.554,0.5,0.862c-0.033-0.078-0.064-0.154-0.098-0.232
				c0.127,0.311,0.213,0.637,0.258,0.969c-0.012-0.082-0.021-0.166-0.031-0.248c0.041,0.33,0.039,0.664-0.004,0.994
				c0.01-0.08,0.021-0.16,0.033-0.24c-0.047,0.324-0.131,0.639-0.254,0.941c0.029-0.074,0.061-0.148,0.092-0.222
				c-0.125,0.3-0.287,0.579-0.482,0.839c0.049-0.064,0.098-0.127,0.145-0.191c-0.277,0.363-0.627,0.678-0.949,1
				c-0.291,0.291-0.584,0.583-0.875,0.875c-0.359,0.359-0.354,0.967,0.008,1.323C15.391,110.525,15.99,110.518,16.35,110.158
				L16.35,110.158z"/>
		</g>
	</g>
	<g>
		<g>
			<path fill="#FF5252" d="M3.65,109.843c-0.361,0.362-0.722,0.722-1.083,1.083c-0.134,0.135-0.268,0.268-0.402,0.402
				c-0.383,0.383-0.712,0.842-0.932,1.338c-0.258,0.576-0.408,1.16-0.443,1.793c-0.031,0.545,0.048,1.113,0.215,1.631
				c0.372,1.15,1.176,2.145,2.242,2.725c1.039,0.562,2.262,0.711,3.409,0.434c0.862-0.207,1.633-0.684,2.256-1.305
				c0.793-0.795,1.587-1.588,2.379-2.381c0.342-0.342,0.682-0.682,1.023-1.021c0.584-0.586,1.023-1.268,1.273-2.061
				c0.293-0.936,0.273-2.012-0.064-2.934c-0.098-0.27-0.213-0.535-0.354-0.785c-0.143-0.252-0.32-0.48-0.5-0.705
				c-0.365-0.453-0.85-0.834-1.359-1.109c-0.451-0.24-1.019-0.109-1.28,0.344c-0.25,0.432-0.107,1.037,0.342,1.278
				c0.18,0.097,0.352,0.206,0.516,0.329c-0.064-0.049-0.127-0.096-0.191-0.145c0.266,0.204,0.504,0.439,0.711,0.704
				c-0.051-0.063-0.098-0.128-0.148-0.191c0.203,0.265,0.371,0.554,0.5,0.862c-0.033-0.078-0.064-0.154-0.098-0.232
				c0.127,0.311,0.213,0.635,0.258,0.969c-0.01-0.084-0.021-0.166-0.031-0.25c0.041,0.332,0.039,0.666-0.004,0.996
				c0.012-0.08,0.021-0.16,0.033-0.24c-0.045,0.322-0.129,0.639-0.254,0.939c0.029-0.072,0.061-0.146,0.092-0.221
				c-0.125,0.299-0.287,0.58-0.482,0.838c0.049-0.062,0.098-0.127,0.145-0.189c-0.238,0.312-0.531,0.582-0.809,0.859
				c-0.441,0.441-0.882,0.881-1.324,1.322c-0.432,0.432-0.863,0.863-1.294,1.295c-0.27,0.27-0.533,0.557-0.835,0.791
				c0.064-0.049,0.127-0.1,0.192-0.148c-0.265,0.203-0.554,0.371-0.862,0.5c0.077-0.031,0.155-0.064,0.232-0.096
				c-0.312,0.127-0.636,0.213-0.969,0.258c0.082-0.012,0.166-0.021,0.249-0.033c-0.332,0.041-0.665,0.039-0.996-0.004
				c0.08,0.012,0.16,0.021,0.24,0.033c-0.323-0.045-0.638-0.129-0.94-0.254c0.073,0.031,0.146,0.062,0.221,0.092
				c-0.299-0.123-0.58-0.287-0.838-0.48c0.063,0.049,0.126,0.096,0.19,0.145c-0.265-0.203-0.502-0.439-0.708-0.703
				c0.05,0.064,0.1,0.127,0.149,0.191c-0.203-0.266-0.371-0.553-0.5-0.861c0.033,0.076,0.064,0.154,0.097,0.23
				c-0.127-0.311-0.214-0.635-0.257-0.969c0.011,0.084,0.021,0.168,0.032,0.25c-0.041-0.332-0.04-0.664,0.004-0.996
				c-0.011,0.08-0.022,0.162-0.034,0.24c0.045-0.322,0.13-0.637,0.254-0.939c-0.031,0.074-0.062,0.146-0.092,0.221
				c0.125-0.299,0.287-0.58,0.481-0.838c-0.048,0.062-0.096,0.127-0.145,0.189c0.278-0.363,0.627-0.676,0.95-0.998
				c0.292-0.293,0.583-0.584,0.875-0.875c0.36-0.359,0.355-0.967-0.007-1.324C4.61,109.477,4.011,109.482,3.65,109.843L3.65,109.843
				z"/>
		</g>
	</g>
</g>
</svg>
