<?xml version="1.0" encoding="utf-8"?>
<!-- Generator: Adobe Illustrator 16.0.0, SVG Export Plug-In . SVG Version: 6.00 Build 0)  -->
<!DOCTYPE svg PUBLIC "-//W3C//DTD SVG 1.1//EN" "http://www.w3.org/Graphics/SVG/1.1/DTD/svg11.dtd">
<svg version="1.1" id="Layer_1" xmlns="http://www.w3.org/2000/svg" xmlns:xlink="http://www.w3.org/1999/xlink" x="0px" y="0px"
	 width="20px" height="120px" viewBox="0 0 20 120" enable-background="new 0 0 20 120" xml:space="preserve">
<g>
	<path fill="#333333" d="M10,0C6.548,0,3.75,2.798,3.75,6.25C3.75,12.218,10,20,10,20s6.25-7.782,6.25-13.75
		C16.25,2.798,13.452,0,10,0z M10,9.7c-1.864,0-3.375-1.511-3.375-3.375C6.625,4.461,8.136,2.95,10,2.95s3.375,1.511,3.375,3.375
		C13.375,8.189,11.864,9.7,10,9.7z"/>
</g>
<g>
	<path fill="#C2C2C2" d="M10,20c-3.452,0-6.25,2.798-6.25,6.25C3.75,32.218,10,40,10,40s6.25-7.782,6.25-13.75
		C16.25,22.798,13.452,20,10,20z M10,29.7c-1.864,0-3.375-1.511-3.375-3.375c0-1.864,1.511-3.375,3.375-3.375
		s3.375,1.511,3.375,3.375C13.375,28.189,11.864,29.7,10,29.7z"/>
</g>
<g>
	<path fill="#FFFFFF" d="M10,40c-3.452,0-6.25,2.798-6.25,6.25C3.75,52.218,10,60,10,60s6.25-7.782,6.25-13.75
		C16.25,42.798,13.452,40,10,40z M10,49.7c-1.864,0-3.375-1.511-3.375-3.375c0-1.864,1.511-3.375,3.375-3.375
		s3.375,1.511,3.375,3.375C13.375,48.189,11.864,49.7,10,49.7z"/>
</g>
<g>
	<path fill="#339933" d="M10,60c-3.452,0-6.25,2.799-6.25,6.25C3.75,72.218,10,80,10,80s6.25-7.782,6.25-13.75
		C16.25,62.799,13.452,60,10,60z M10,69.7c-1.864,0-3.375-1.511-3.375-3.375S8.136,62.95,10,62.95s3.375,1.511,3.375,3.375
		S11.864,69.7,10,69.7z"/>
</g>
<g>
	<path fill="#5290D2" d="M10,80c-3.452,0-6.25,2.799-6.25,6.25C3.75,92.218,10,100,10,100s6.25-7.782,6.25-13.75
		C16.25,82.799,13.452,80,10,80z M10,89.7c-1.864,0-3.375-1.511-3.375-3.375S8.136,82.95,10,82.95s3.375,1.511,3.375,3.375
		S11.864,89.7,10,89.7z"/>
</g>
<g>
	<path fill="#FF5252" d="M10,100c-3.452,0-6.25,2.799-6.25,6.25C3.75,112.218,10,120,10,120s6.25-7.782,6.25-13.75
		C16.25,102.799,13.452,100,10,100z M10,109.7c-1.864,0-3.375-1.511-3.375-3.375S8.136,102.95,10,102.95s3.375,1.511,3.375,3.375
		S11.864,109.7,10,109.7z"/>
</g>
</svg>
