<?xml version="1.0" encoding="utf-8"?>
<!-- Generator: Adobe Illustrator 16.0.0, SVG Export Plug-In . SVG Version: 6.00 Build 0)  -->
<!DOCTYPE svg PUBLIC "-//W3C//DTD SVG 1.1//EN" "http://www.w3.org/Graphics/SVG/1.1/DTD/svg11.dtd">
<svg version="1.1" id="Layer_1" xmlns="http://www.w3.org/2000/svg" xmlns:xlink="http://www.w3.org/1999/xlink" x="0px" y="0px"
	 width="20px" height="120px" viewBox="0 0 20 120" enable-background="new 0 0 20 120" xml:space="preserve">
<g>
	<g>
		<g>
			<defs>
				<rect id="SVGID_1_" x="2.223" width="15.554" height="20"/>
			</defs>
			<clipPath id="SVGID_2_">
				<use xlink:href="#SVGID_1_"  overflow="visible"/>
			</clipPath>
			<path clip-path="url(#SVGID_2_)" fill="#333333" d="M16.445,7.778h-2.002V5.111C14.443,1.893,12.961,0,10,0
				C7.038,0,5.556,1.893,5.556,5.111v2.667H3.334c-0.615,0-1.111,0.718-1.111,1.332v8.668c0,0.61,0.476,1.266,1.057,1.452l1.33,0.43
				C5.191,19.845,6.167,20,6.778,20h6.445c0.608,0,1.586-0.155,2.166-0.341l1.329-0.43c0.582-0.185,1.06-0.841,1.06-1.451V9.11
				C17.777,8.496,17.059,7.778,16.445,7.778 M12.223,7.778H7.778V4.666c0-1.605,0.885-2.443,2.222-2.443
				c1.336,0,2.223,0.837,2.223,2.443V7.778z"/>
		</g>
	</g>
</g>
<g>
	<g>
		<g>
			<defs>
				<rect id="SVGID_3_" x="2.223" y="20" width="15.554" height="20"/>
			</defs>
			<clipPath id="SVGID_4_">
				<use xlink:href="#SVGID_3_"  overflow="visible"/>
			</clipPath>
			<path clip-path="url(#SVGID_4_)" fill="#C2C2C2" d="M16.445,27.778h-2.002v-2.667C14.443,21.893,12.961,20,10,20
				c-2.962,0-4.444,1.893-4.444,5.111v2.667H3.334c-0.615,0-1.111,0.718-1.111,1.332v8.668c0,0.61,0.476,1.266,1.057,1.452
				l1.33,0.43C5.191,39.845,6.167,40,6.778,40h6.445c0.608,0,1.586-0.155,2.166-0.341l1.329-0.43c0.582-0.185,1.06-0.841,1.06-1.451
				V29.11C17.777,28.496,17.059,27.778,16.445,27.778 M12.223,27.778H7.778v-3.112c0-1.605,0.885-2.443,2.222-2.443
				c1.335,0,2.223,0.837,2.223,2.443V27.778L12.223,27.778z"/>
		</g>
	</g>
</g>
<g>
	<g>
		<g>
			<defs>
				<rect id="SVGID_5_" x="2.223" y="40" width="15.554" height="20"/>
			</defs>
			<clipPath id="SVGID_6_">
				<use xlink:href="#SVGID_5_"  overflow="visible"/>
			</clipPath>
			<path clip-path="url(#SVGID_6_)" fill="#FFFFFF" d="M16.445,47.778h-2.002v-2.667C14.443,41.893,12.961,40,10,40
				c-2.963,0-4.444,1.893-4.444,5.111v2.667H3.334c-0.615,0-1.111,0.718-1.111,1.332v8.668c0,0.61,0.476,1.266,1.057,1.452
				l1.33,0.43C5.191,59.845,6.166,60,6.777,60h6.446c0.608,0,1.586-0.155,2.166-0.341l1.329-0.43c0.582-0.185,1.06-0.841,1.06-1.451
				V49.11C17.777,48.496,17.059,47.778,16.445,47.778 M12.223,47.778H7.777v-3.112c0-1.605,0.886-2.443,2.223-2.443
				c1.336,0,2.223,0.837,2.223,2.443V47.778z"/>
		</g>
	</g>
</g>
<g>
	<g>
		<g>
			<defs>
				<rect id="SVGID_7_" x="2.223" y="60" width="15.554" height="20"/>
			</defs>
			<clipPath id="SVGID_8_">
				<use xlink:href="#SVGID_7_"  overflow="visible"/>
			</clipPath>
			<path clip-path="url(#SVGID_8_)" fill="#339933" d="M16.445,67.777h-2.002v-2.666C14.443,61.893,12.961,60,10,60
				c-2.963,0-4.444,1.893-4.444,5.111v2.666H3.334c-0.615,0-1.111,0.719-1.111,1.332v8.668c0,0.609,0.476,1.266,1.057,1.453
				l1.33,0.43C5.191,79.846,6.167,80,6.778,80h6.445c0.608,0,1.586-0.154,2.166-0.342l1.329-0.43c0.582-0.187,1.06-0.842,1.06-1.451
				v-8.668C17.777,68.496,17.059,67.777,16.445,67.777 M12.223,67.777H7.777v-3.111c0-1.605,0.886-2.443,2.223-2.443
				c1.336,0,2.223,0.838,2.223,2.443V67.777z"/>
		</g>
	</g>
</g>
<g>
	<g>
		<g>
			<defs>
				<rect id="SVGID_9_" x="2.223" y="80" width="15.554" height="20"/>
			</defs>
			<clipPath id="SVGID_10_">
				<use xlink:href="#SVGID_9_"  overflow="visible"/>
			</clipPath>
			<path clip-path="url(#SVGID_10_)" fill="#5290D2" d="M16.445,87.777h-2.002v-2.666C14.443,81.893,12.961,80,10,80
				c-2.962,0-4.444,1.893-4.444,5.111v2.666H3.334c-0.615,0-1.111,0.719-1.111,1.332v8.668c0,0.609,0.476,1.266,1.057,1.453
				l1.33,0.43C5.191,99.846,6.167,100,6.778,100h6.445c0.608,0,1.586-0.154,2.166-0.342l1.329-0.43
				c0.582-0.187,1.06-0.842,1.06-1.451v-8.668C17.777,88.496,17.059,87.777,16.445,87.777 M12.223,87.777H7.778v-3.111
				c0-1.605,0.885-2.443,2.222-2.443c1.336,0,2.223,0.838,2.223,2.443V87.777z"/>
		</g>
	</g>
</g>
<g>
	<g>
		<g>
			<defs>
				<rect id="SVGID_11_" x="2.223" y="100" width="15.554" height="20"/>
			</defs>
			<clipPath id="SVGID_12_">
				<use xlink:href="#SVGID_11_"  overflow="visible"/>
			</clipPath>
			<path clip-path="url(#SVGID_12_)" fill="#FF5252" d="M16.445,107.777h-2.002v-2.666c0-3.219-1.482-5.111-4.443-5.111
				c-2.962,0-4.444,1.893-4.444,5.111v2.666H3.334c-0.615,0-1.111,0.719-1.111,1.332v8.668c0,0.609,0.476,1.266,1.057,1.453
				l1.33,0.43c0.582,0.186,1.558,0.34,2.169,0.34h6.444c0.609,0,1.586-0.154,2.166-0.342l1.33-0.43
				c0.582-0.187,1.059-0.842,1.059-1.451v-8.668C17.777,108.496,17.059,107.777,16.445,107.777 M12.223,107.777H7.778v-3.111
				c0-1.605,0.885-2.443,2.222-2.443c1.336,0,2.223,0.838,2.223,2.443V107.777z"/>
		</g>
	</g>
</g>
</svg>
