<?xml version="1.0" encoding="utf-8"?>
<!-- Generator: Adobe Illustrator 16.0.0, SVG Export Plug-In . SVG Version: 6.00 Build 0)  -->
<!DOCTYPE svg PUBLIC "-//W3C//DTD SVG 1.1//EN" "http://www.w3.org/Graphics/SVG/1.1/DTD/svg11.dtd">
<svg version="1.1" id="Layer_1" xmlns="http://www.w3.org/2000/svg" xmlns:xlink="http://www.w3.org/1999/xlink" x="0px" y="0px"
	 width="416.696px" height="535.752px" viewBox="0 0 416.696 535.752" enable-background="new 0 0 416.696 535.752"
	 xml:space="preserve">
<g>
	<defs>
		<rect id="SVGID_1_" width="416.696" height="535.752"/>
	</defs>
	<clipPath id="SVGID_2_">
		<use xlink:href="#SVGID_1_"  overflow="visible"/>
	</clipPath>
	<path clip-path="url(#SVGID_2_)" fill="#333333" d="M380.979,208.348h-53.574v-71.434C327.404,50.688,287.669,0,208.348,0
		C128.997,0,89.292,50.688,89.292,136.914v71.434H29.764C13.304,208.348,0,227.576,0,244.035v232.188
		c0,16.341,12.739,33.901,28.306,38.902l35.627,11.518c15.596,4.972,41.729,9.108,58.099,9.108h172.632
		c16.34,0,42.503-4.137,58.069-9.138l35.598-11.519c15.596-4.971,28.365-22.531,28.365-38.872V244.035
		C416.696,227.576,397.409,208.348,380.979,208.348 M267.876,208.348H148.82v-83.369c0-43.009,23.722-65.451,59.528-65.451
		c35.807,0,59.528,22.442,59.528,65.451V208.348z"/>
</g>
</svg>
