<?xml version="1.0" encoding="utf-8"?>
<!-- Generator: Adobe Illustrator 16.0.0, SVG Export Plug-In . SVG Version: 6.00 Build 0)  -->
<!DOCTYPE svg PUBLIC "-//W3C//DTD SVG 1.1//EN" "http://www.w3.org/Graphics/SVG/1.1/DTD/svg11.dtd">
<svg version="1.1" id="Layer_1" xmlns="http://www.w3.org/2000/svg" xmlns:xlink="http://www.w3.org/1999/xlink" x="0px" y="0px"
	 width="20px" height="120px" viewBox="0 0 20 120" enable-background="new 0 0 20 120" xml:space="preserve">
<g>
	<g>
		<g>
			<path fill="#333333" d="M20,3.5C20,4.325,19.325,5,18.5,5h-17C0.675,5,0,4.325,0,3.5l0,0C0,2.675,0.675,2,1.5,2h17
				C19.325,2,20,2.675,20,3.5L20,3.5z"/>
		</g>
		<g>
			<path fill="#333333" d="M20,9.5c0,0.825-0.675,1.5-1.5,1.5h-17C0.675,11,0,10.325,0,9.5l0,0C0,8.675,0.675,8,1.5,8h17
				C19.325,8,20,8.675,20,9.5L20,9.5z"/>
		</g>
		<g>
			<path fill="#333333" d="M20,15.5c0,0.825-0.675,1.5-1.5,1.5h-17C0.675,17,0,16.325,0,15.5l0,0C0,14.675,0.675,14,1.5,14h17
				C19.325,14,20,14.675,20,15.5L20,15.5z"/>
		</g>
	</g>
</g>
<g>
	<g>
		<g>
			<path fill="#C2C2C2" d="M20,24.5c0,0.825-0.675,1.5-1.5,1.5h-17C0.675,26,0,25.325,0,24.5l0,0C0,23.675,0.675,23,1.5,23h17
				C19.325,23,20,23.675,20,24.5L20,24.5z"/>
		</g>
		<g>
			<path fill="#C2C2C2" d="M20,30.5c0,0.825-0.675,1.5-1.5,1.5h-17C0.675,32,0,31.325,0,30.5l0,0C0,29.675,0.675,29,1.5,29h17
				C19.325,29,20,29.675,20,30.5L20,30.5z"/>
		</g>
		<g>
			<path fill="#C2C2C2" d="M20,36.5c0,0.825-0.675,1.5-1.5,1.5h-17C0.675,38,0,37.325,0,36.5l0,0C0,35.675,0.675,35,1.5,35h17
				C19.325,35,20,35.675,20,36.5L20,36.5z"/>
		</g>
	</g>
</g>
<g>
	<g>
		<g>
			<path fill="#FFFFFF" d="M20,43.5c0,0.825-0.675,1.5-1.5,1.5h-17C0.675,45,0,44.325,0,43.5l0,0C0,42.675,0.675,42,1.5,42h17
				C19.325,42,20,42.675,20,43.5L20,43.5z"/>
		</g>
		<g>
			<path fill="#FFFFFF" d="M20,49.5c0,0.825-0.675,1.5-1.5,1.5h-17C0.675,51,0,50.325,0,49.5l0,0C0,48.675,0.675,48,1.5,48h17
				C19.325,48,20,48.675,20,49.5L20,49.5z"/>
		</g>
		<g>
			<path fill="#FFFFFF" d="M20,55.5c0,0.825-0.675,1.5-1.5,1.5h-17C0.675,57,0,56.325,0,55.5l0,0C0,54.675,0.675,54,1.5,54h17
				C19.325,54,20,54.675,20,55.5L20,55.5z"/>
		</g>
	</g>
</g>
<g>
	<g>
		<g>
			<path fill="#339933" d="M20,64.5c0,0.825-0.675,1.5-1.5,1.5h-17C0.675,66,0,65.325,0,64.5l0,0C0,63.675,0.675,63,1.5,63h17
				C19.325,63,20,63.675,20,64.5L20,64.5z"/>
		</g>
		<g>
			<path fill="#339933" d="M20,70.5c0,0.825-0.675,1.5-1.5,1.5h-17C0.675,72,0,71.325,0,70.5l0,0C0,69.675,0.675,69,1.5,69h17
				C19.325,69,20,69.675,20,70.5L20,70.5z"/>
		</g>
		<g>
			<path fill="#339933" d="M20,76.5c0,0.825-0.675,1.5-1.5,1.5h-17C0.675,78,0,77.325,0,76.5l0,0C0,75.675,0.675,75,1.5,75h17
				C19.325,75,20,75.675,20,76.5L20,76.5z"/>
		</g>
	</g>
</g>
<g>
	<g>
		<g>
			<path fill="#5290D2" d="M20,84.5c0,0.825-0.675,1.5-1.5,1.5h-17C0.675,86,0,85.325,0,84.5l0,0C0,83.675,0.675,83,1.5,83h17
				C19.325,83,20,83.675,20,84.5L20,84.5z"/>
		</g>
		<g>
			<path fill="#5290D2" d="M20,90.5c0,0.825-0.675,1.5-1.5,1.5h-17C0.675,92,0,91.325,0,90.5l0,0C0,89.675,0.675,89,1.5,89h17
				C19.325,89,20,89.675,20,90.5L20,90.5z"/>
		</g>
		<g>
			<path fill="#5290D2" d="M20,96.5c0,0.825-0.675,1.5-1.5,1.5h-17C0.675,98,0,97.325,0,96.5l0,0C0,95.675,0.675,95,1.5,95h17
				C19.325,95,20,95.675,20,96.5L20,96.5z"/>
		</g>
	</g>
</g>
<g>
	<g>
		<g>
			<path fill="#FF5252" d="M20,104.5c0,0.825-0.675,1.5-1.5,1.5h-17c-0.825,0-1.5-0.675-1.5-1.5l0,0c0-0.825,0.675-1.5,1.5-1.5h17
				C19.325,103,20,103.675,20,104.5L20,104.5z"/>
		</g>
		<g>
			<path fill="#FF5252" d="M20,110.5c0,0.825-0.675,1.5-1.5,1.5h-17c-0.825,0-1.5-0.675-1.5-1.5l0,0c0-0.825,0.675-1.5,1.5-1.5h17
				C19.325,109,20,109.675,20,110.5L20,110.5z"/>
		</g>
		<g>
			<path fill="#FF5252" d="M20,116.5c0,0.825-0.675,1.5-1.5,1.5h-17c-0.825,0-1.5-0.675-1.5-1.5l0,0c0-0.825,0.675-1.5,1.5-1.5h17
				C19.325,115,20,115.675,20,116.5L20,116.5z"/>
		</g>
	</g>
</g>
</svg>
