<?xml version="1.0" encoding="utf-8"?>
<!-- Generator: Adobe Illustrator 16.0.0, SVG Export Plug-In . SVG Version: 6.00 Build 0)  -->
<!DOCTYPE svg PUBLIC "-//W3C//DTD SVG 1.1//EN" "http://www.w3.org/Graphics/SVG/1.1/DTD/svg11.dtd">
<svg version="1.1" id="Layer_1" xmlns="http://www.w3.org/2000/svg" xmlns:xlink="http://www.w3.org/1999/xlink" x="0px" y="0px"
	 width="20px" height="120px" viewBox="0 0 20 120" enable-background="new 0 0 20 120" xml:space="preserve">
<g>
	<g>
		<path fill="#333333" d="M17.992,10c0,4.407-3.584,7.991-7.992,7.991S2.008,14.407,2.008,10S5.591,2.008,10,2.008
			C14.408,2.008,17.992,5.593,17.992,10 M20,10c0-5.523-4.479-10-10-10C4.478,0,0,4.477,0,10c0,5.524,4.478,10,10,10
			C15.521,20,20,15.524,20,10L20,10z"/>
	</g>
	<rect x="8.976" y="5.396" fill="#333333" width="2.051" height="9.208"/>
	<rect x="5.397" y="8.975" fill="#333333" width="9.208" height="2.051"/>
</g>
<g>
	<g>
		<path fill="#C2C2C2" d="M17.992,30c0,4.407-3.584,7.991-7.992,7.991S2.008,34.407,2.008,30S5.591,22.008,10,22.008
			C14.408,22.008,17.992,25.593,17.992,30 M20,30c0-5.523-4.479-10-10-10C4.478,20,0,24.477,0,30c0,5.524,4.478,10,10,10
			C15.521,40,20,35.524,20,30L20,30z"/>
	</g>
	<rect x="8.976" y="25.396" fill="#C2C2C2" width="2.051" height="9.208"/>
	<rect x="5.397" y="28.975" fill="#C2C2C2" width="9.208" height="2.051"/>
</g>
<g>
	<g>
		<path fill="#FFFFFF" d="M17.992,50c0,4.407-3.584,7.991-7.992,7.991S2.008,54.407,2.008,50S5.591,42.008,10,42.008
			C14.408,42.008,17.992,45.593,17.992,50 M20,50c0-5.523-4.479-10-10-10C4.478,40,0,44.477,0,50c0,5.524,4.478,10,10,10
			C15.521,60,20,55.524,20,50L20,50z"/>
	</g>
	<rect x="8.976" y="45.396" fill="#FFFFFF" width="2.051" height="9.208"/>
	<rect x="5.397" y="48.975" fill="#FFFFFF" width="9.208" height="2.051"/>
</g>
<g>
	<g>
		<path fill="#339933" d="M17.994,70c0,4.406-3.584,7.991-7.992,7.991S2.01,74.406,2.01,70s3.583-7.992,7.992-7.992
			C14.41,62.008,17.994,65.594,17.994,70 M20.002,70c0-5.523-4.479-10-10-10c-5.522,0-10,4.477-10,10s4.478,10,10,10
			C15.523,80,20.002,75.523,20.002,70L20.002,70z"/>
	</g>
	<rect x="8.978" y="65.396" fill="#339933" width="2.051" height="9.207"/>
	<rect x="5.399" y="68.975" fill="#339933" width="9.208" height="2.051"/>
</g>
<g>
	<g>
		<path fill="#5290D2" d="M17.992,90c0,4.406-3.584,7.991-7.992,7.991S2.008,94.406,2.008,90S5.591,82.008,10,82.008
			C14.408,82.008,17.992,85.594,17.992,90 M20,90c0-5.523-4.479-10-10-10C4.478,80,0,84.477,0,90s4.478,10,10,10
			C15.521,100,20,95.523,20,90L20,90z"/>
	</g>
	<rect x="8.976" y="85.396" fill="#5290D2" width="2.051" height="9.207"/>
	<rect x="5.397" y="88.975" fill="#5290D2" width="9.208" height="2.051"/>
</g>
<g>
	<g>
		<path fill="#FF5252" d="M17.994,110c0,4.406-3.584,7.991-7.992,7.991S2.01,114.406,2.01,110s3.583-7.992,7.992-7.992
			C14.41,102.008,17.994,105.594,17.994,110 M20.002,110c0-5.523-4.479-10-10-10c-5.522,0-10,4.477-10,10s4.478,10,10,10
			C15.523,120,20.002,115.523,20.002,110L20.002,110z"/>
	</g>
	<rect x="8.978" y="105.396" fill="#FF5252" width="2.051" height="9.207"/>
	<rect x="5.399" y="108.975" fill="#FF5252" width="9.208" height="2.051"/>
</g>
</svg>
