<?xml version="1.0" encoding="utf-8"?>
<!-- Generator: Adobe Illustrator 16.0.0, SVG Export Plug-In . SVG Version: 6.00 Build 0)  -->
<!DOCTYPE svg PUBLIC "-//W3C//DTD SVG 1.1//EN" "http://www.w3.org/Graphics/SVG/1.1/DTD/svg11.dtd">
<svg version="1.1" id="Layer_1" xmlns="http://www.w3.org/2000/svg" xmlns:xlink="http://www.w3.org/1999/xlink" x="0px" y="0px"
	 width="20px" height="120px" viewBox="0 0 20 120" enable-background="new 0 0 20 120" xml:space="preserve">
<path fill="#333333" d="M19.355,7.372l-7.444-1.995l-1.304-4.862c-0.108-0.406-0.543-0.643-0.972-0.528L0.56,2.419
	C0.132,2.533-0.126,2.956-0.017,3.362l3.229,12.052c0.109,0.407,0.544,0.643,0.972,0.529l3.613-0.968l-0.493,1.838
	c-0.109,0.406,0.149,0.829,0.577,0.944l8.111,2.173c0.428,0.115,0.861-0.122,0.972-0.529l2.97-11.085
	C20.043,7.909,19.783,7.487,19.355,7.372z M1.591,3.589L9.42,1.494l2.898,10.818L4.49,14.407L1.591,3.589z M15.637,18.422
	l-6.815-1.863l0.537-2.003l3.901-1.045c0.43-0.114,0.688-0.537,0.579-0.944L12.33,6.94l5.947,1.631L15.637,18.422z"/>
<path fill="#C2C2C2" d="M19.398,27.414l-7.445-1.995l-1.303-4.862c-0.109-0.406-0.544-0.643-0.972-0.528l-9.076,2.432
	c-0.428,0.114-0.686,0.537-0.577,0.943l3.229,12.052c0.109,0.407,0.544,0.643,0.972,0.529l3.613-0.968l-0.493,1.838
	c-0.109,0.406,0.149,0.829,0.577,0.944l8.111,2.173c0.428,0.115,0.862-0.122,0.972-0.529l2.971-11.085
	C20.085,27.951,19.825,27.529,19.398,27.414z M1.633,23.631l7.829-2.095l2.899,10.818l-7.829,2.095L1.633,23.631z M15.68,38.464
	l-6.815-1.863L9.4,34.597l3.901-1.045c0.43-0.114,0.688-0.537,0.579-0.944l-1.509-5.627l5.947,1.631L15.68,38.464z"/>
<path fill="#FFFFFF" d="M19.398,47.414l-7.445-1.995l-1.303-4.862c-0.109-0.406-0.544-0.643-0.972-0.528l-9.076,2.432
	c-0.428,0.114-0.686,0.537-0.577,0.943l3.229,12.052c0.109,0.407,0.544,0.643,0.972,0.529l3.613-0.968l-0.493,1.838
	c-0.109,0.406,0.149,0.829,0.577,0.944l8.111,2.173c0.428,0.115,0.862-0.122,0.972-0.529l2.971-11.085
	C20.085,47.951,19.825,47.529,19.398,47.414z M1.633,43.631l7.829-2.095l2.899,10.818l-7.829,2.095L1.633,43.631z M15.68,58.464
	l-6.815-1.863L9.4,54.597l3.901-1.045c0.43-0.114,0.688-0.537,0.579-0.944l-1.509-5.627l5.947,1.631L15.68,58.464z"/>
<path fill="#339933" d="M19.398,67.414l-7.445-1.995l-1.303-4.862c-0.109-0.406-0.544-0.643-0.972-0.528l-9.076,2.432
	c-0.428,0.114-0.686,0.537-0.577,0.941l3.229,12.054c0.109,0.405,0.544,0.644,0.972,0.528l3.613-0.969l-0.493,1.838
	c-0.109,0.406,0.149,0.83,0.577,0.943l8.111,2.174c0.428,0.114,0.862-0.121,0.972-0.529l2.971-11.084
	C20.085,67.951,19.825,67.527,19.398,67.414z M1.633,63.632l7.829-2.096l2.899,10.817l-7.829,2.096L1.633,63.632z M15.68,78.464
	l-6.815-1.862L9.4,74.598l3.901-1.046c0.43-0.114,0.688-0.536,0.579-0.942l-1.509-5.629l5.947,1.631L15.68,78.464z"/>
<path fill="#5290D2" d="M19.398,87.413l-7.445-1.995l-1.303-4.861c-0.109-0.406-0.544-0.644-0.972-0.529L0.602,82.46
	c-0.428,0.114-0.686,0.537-0.577,0.942l3.229,12.053c0.109,0.406,0.544,0.643,0.972,0.527l3.613-0.967l-0.493,1.838
	c-0.109,0.405,0.149,0.828,0.577,0.942l8.111,2.175c0.428,0.113,0.862-0.123,0.972-0.529l2.971-11.086
	C20.085,87.95,19.825,87.527,19.398,87.413z M1.633,83.631l7.829-2.096l2.899,10.818l-7.829,2.095L1.633,83.631z M15.68,98.463
	L8.863,96.6L9.4,94.596l3.901-1.045c0.43-0.113,0.688-0.537,0.579-0.943l-1.509-5.627l5.947,1.631L15.68,98.463z"/>
<path fill="#FF5252" d="M19.398,107.413l-7.445-1.995l-1.303-4.861c-0.109-0.406-0.544-0.644-0.972-0.529l-9.076,2.434
	c-0.428,0.114-0.686,0.537-0.577,0.941l3.229,12.054c0.109,0.405,0.544,0.644,0.972,0.528l3.613-0.969l-0.493,1.838
	c-0.109,0.406,0.149,0.83,0.577,0.943l8.111,2.174c0.428,0.114,0.862-0.121,0.972-0.529l2.971-11.084
	C20.085,107.95,19.825,107.527,19.398,107.413z M1.633,103.631l7.829-2.096l2.899,10.818l-7.829,2.095L1.633,103.631z
	 M15.68,118.463L8.863,116.6l0.537-2.004l3.901-1.045c0.43-0.113,0.688-0.537,0.579-0.943l-1.509-5.627l5.947,1.631L15.68,118.463z"
	/>
</svg>
