<?xml version="1.0" encoding="utf-8"?>
<!-- Generator: Adobe Illustrator 16.0.0, SVG Export Plug-In . SVG Version: 6.00 Build 0)  -->
<!DOCTYPE svg PUBLIC "-//W3C//DTD SVG 1.1//EN" "http://www.w3.org/Graphics/SVG/1.1/DTD/svg11.dtd">
<svg version="1.1" id="Layer_1" xmlns="http://www.w3.org/2000/svg" xmlns:xlink="http://www.w3.org/1999/xlink" x="0px" y="0px"
	 width="20px" height="120px" viewBox="0 0 20 120" enable-background="new 0 0 20 120" xml:space="preserve">
<g>
	<path fill="#333333" d="M19.551,16.878l-4.783-4.783c0.722-1.185,1.137-2.576,1.137-4.065c0-4.324-3.747-8.072-8.072-8.072
		S0,3.464,0,7.79c0,4.325,3.747,8.072,8.072,8.072c1.438,0,2.786-0.389,3.942-1.065l4.812,4.809c0.471,0.471,1.233,0.471,1.704,0
		l1.191-1.192C20.191,17.941,20.021,17.349,19.551,16.878z M2.41,7.79c0-2.995,2.427-5.422,5.421-5.422
		c2.995,0,5.663,2.668,5.663,5.663c0,2.994-2.428,5.421-5.422,5.421C5.078,13.452,2.41,10.784,2.41,7.79z"/>
</g>
<g>
	<path fill="#C2C2C2" d="M19.551,36.92l-4.783-4.783c0.722-1.185,1.137-2.576,1.137-4.065c0-4.324-3.747-8.072-8.072-8.072
		S0,23.506,0,27.832c0,4.325,3.747,8.072,8.072,8.072c1.438,0,2.786-0.389,3.942-1.065l4.812,4.809c0.471,0.471,1.233,0.471,1.704,0
		l1.191-1.192C20.191,37.983,20.021,37.391,19.551,36.92z M2.41,27.832c0-2.995,2.427-5.422,5.421-5.422
		c2.995,0,5.663,2.668,5.663,5.663c0,2.994-2.428,5.421-5.422,5.421C5.078,33.494,2.41,30.826,2.41,27.832z"/>
</g>
<g>
	<path fill="#FFFFFF" d="M19.551,56.92l-4.783-4.783c0.722-1.185,1.137-2.576,1.137-4.065c0-4.324-3.747-8.072-8.072-8.072
		S0,43.506,0,47.832c0,4.325,3.747,8.072,8.072,8.072c1.438,0,2.786-0.389,3.942-1.065l4.812,4.809c0.471,0.471,1.233,0.471,1.704,0
		l1.191-1.192C20.191,57.983,20.021,57.391,19.551,56.92z M2.41,47.832c0-2.995,2.427-5.422,5.421-5.422
		c2.995,0,5.663,2.668,5.663,5.663c0,2.994-2.428,5.421-5.422,5.421C5.078,53.494,2.41,50.826,2.41,47.832z"/>
</g>
<g>
	<path fill="#339933" d="M19.551,76.921l-4.783-4.782c0.722-1.187,1.137-2.576,1.137-4.066c0-4.324-3.747-8.071-8.072-8.071
		S0,63.507,0,67.831c0,4.325,3.747,8.071,8.072,8.071c1.438,0,2.786-0.389,3.942-1.064l4.812,4.811c0.471,0.471,1.233,0.471,1.704,0
		l1.191-1.192C20.191,77.982,20.021,77.393,19.551,76.921z M2.41,67.831c0-2.994,2.427-5.422,5.421-5.422
		c2.995,0,5.663,2.668,5.663,5.663c0,2.994-2.428,5.421-5.422,5.421C5.078,73.493,2.41,70.825,2.41,67.831z"/>
</g>
<g>
	<path fill="#5290D2" d="M19.551,96.919l-4.783-4.783c0.722-1.186,1.137-2.575,1.137-4.065c0-4.324-3.747-8.071-8.072-8.071
		S0,83.505,0,87.829C0,92.154,3.747,95.9,8.072,95.9c1.438,0,2.786-0.389,3.942-1.064l4.812,4.811c0.471,0.471,1.233,0.471,1.704,0
		l1.191-1.192C20.191,97.98,20.021,97.391,19.551,96.919z M2.41,87.829c0-2.994,2.427-5.422,5.421-5.422
		c2.995,0,5.663,2.668,5.663,5.663c0,2.994-2.428,5.421-5.422,5.421C5.078,93.491,2.41,90.823,2.41,87.829z"/>
</g>
<g>
	<path fill="#FF5252" d="M19.551,116.92l-4.783-4.783c0.722-1.186,1.137-2.576,1.137-4.066c0-4.323-3.747-8.07-8.072-8.07
		S0,103.506,0,107.83s3.747,8.072,8.072,8.072c1.438,0,2.786-0.389,3.942-1.065l4.812,4.81c0.471,0.472,1.233,0.472,1.704,0
		l1.191-1.191C20.191,117.982,20.021,117.391,19.551,116.92z M2.41,107.83c0-2.994,2.427-5.422,5.421-5.422
		c2.995,0,5.663,2.668,5.663,5.662s-2.428,5.422-5.422,5.422C5.078,113.492,2.41,110.824,2.41,107.83z"/>
</g>
</svg>
