<?xml version="1.0" encoding="utf-8"?>
<!-- Generator: Adobe Illustrator 16.0.0, SVG Export Plug-In . SVG Version: 6.00 Build 0)  -->
<!DOCTYPE svg PUBLIC "-//W3C//DTD SVG 1.1//EN" "http://www.w3.org/Graphics/SVG/1.1/DTD/svg11.dtd">
<svg version="1.1" id="Layer_1" xmlns="http://www.w3.org/2000/svg" xmlns:xlink="http://www.w3.org/1999/xlink" x="0px" y="0px"
	 width="20px" height="120px" viewBox="0 0 20 120" enable-background="new 0 0 20 120" xml:space="preserve">
<g>
	<g>
		<g>
			<defs>
				<rect id="SVGID_1_" y="0.033" width="20" height="20"/>
			</defs>
			<clipPath id="SVGID_2_">
				<use xlink:href="#SVGID_1_"  overflow="visible"/>
			</clipPath>
			<path clip-path="url(#SVGID_2_)" fill="#333333" d="M18.073,10.033c0-1.249,0.769-2.232,1.925-2.908
				c-0.21-0.695-0.484-1.363-0.824-1.99c-1.296,0.339-2.345-0.168-3.227-1.051c-0.883-0.881-1.152-1.93-0.813-3.227
				c-0.627-0.339-1.295-0.617-1.989-0.823c-0.677,1.155-1.898,1.922-3.146,1.922S7.53,1.188,6.853,0.034
				C6.156,0.239,5.491,0.517,4.864,0.856c0.339,1.297,0.07,2.346-0.814,3.227c-0.881,0.883-1.93,1.39-3.227,1.051
				C0.483,5.761,0.208,6.429,0,7.125c1.155,0.676,1.923,1.659,1.923,2.908c0,1.246-0.768,2.469-1.923,3.146
				c0.208,0.695,0.483,1.362,0.823,1.991c1.297-0.339,2.346-0.07,3.227,0.812c0.882,0.883,1.153,1.932,0.814,3.228
				c0.627,0.339,1.294,0.616,1.991,0.825c0.675-1.16,1.898-1.927,3.145-1.927c1.246,0,2.469,0.768,3.146,1.925
				c0.694-0.209,1.36-0.486,1.989-0.825c-0.34-1.295-0.069-2.344,0.812-3.228c0.883-0.881,1.931-1.388,3.228-1.051
				c0.34-0.627,0.615-1.293,0.823-1.991C18.842,12.262,18.073,11.279,18.073,10.033 M9.999,14.38c-2.402,0-4.349-1.946-4.349-4.347
				c0-2.402,1.948-4.35,4.349-4.35c2.401,0,4.347,1.949,4.347,4.35C14.346,12.435,12.4,14.38,9.999,14.38"/>
		</g>
	</g>
</g>
<g>
	<g>
		<g>
			<defs>
				<rect id="SVGID_3_" y="20" width="20" height="20"/>
			</defs>
			<clipPath id="SVGID_4_">
				<use xlink:href="#SVGID_3_"  overflow="visible"/>
			</clipPath>
			<path clip-path="url(#SVGID_4_)" fill="#C2C2C2" d="M18.072,30c0-1.249,0.77-2.232,1.926-2.908
				c-0.211-0.695-0.484-1.363-0.824-1.99c-1.297,0.339-2.346-0.168-3.227-1.051c-0.883-0.881-1.152-1.93-0.814-3.227
				c-0.627-0.339-1.295-0.617-1.99-0.823c-0.676,1.155-1.897,1.922-3.144,1.922c-1.247,0-2.469-0.768-3.146-1.922
				c-0.696,0.206-1.361,0.483-1.989,0.823c0.339,1.297,0.07,2.346-0.814,3.227c-0.881,0.883-1.93,1.39-3.227,1.051
				C0.483,25.728,0.207,26.396,0,27.091C1.154,27.768,1.922,28.75,1.922,30c0,1.246-0.768,2.469-1.923,3.146
				c0.208,0.695,0.483,1.362,0.823,1.991c1.297-0.339,2.346-0.07,3.227,0.812c0.882,0.883,1.153,1.932,0.814,3.228
				C5.491,39.514,6.158,39.792,6.854,40C7.53,38.842,8.752,38.075,10,38.075c1.247,0,2.469,0.768,3.146,1.925
				c0.695-0.209,1.361-0.486,1.99-0.825c-0.34-1.295-0.07-2.344,0.812-3.228c0.883-0.881,1.93-1.388,3.227-1.051
				c0.34-0.627,0.615-1.293,0.824-1.991C18.842,32.229,18.072,31.246,18.072,30 M9.999,34.347C7.596,34.347,5.65,32.4,5.65,30
				c0-2.402,1.948-4.35,4.349-4.35c2.401,0,4.347,1.949,4.347,4.35C14.346,32.402,12.4,34.347,9.999,34.347"/>
		</g>
	</g>
</g>
<g>
	<g>
		<g>
			<defs>
				<rect id="SVGID_5_" x="-0.001" y="40" width="20" height="20"/>
			</defs>
			<clipPath id="SVGID_6_">
				<use xlink:href="#SVGID_5_"  overflow="visible"/>
			</clipPath>
			<path clip-path="url(#SVGID_6_)" fill="#FFFFFF" d="M18.072,50c0-1.249,0.769-2.232,1.925-2.908
				c-0.21-0.695-0.483-1.363-0.824-1.99c-1.296,0.339-2.345-0.168-3.228-1.051c-0.881-0.881-1.151-1.93-0.812-3.227
				c-0.627-0.339-1.295-0.617-1.99-0.823c-0.676,1.155-1.897,1.922-3.145,1.922s-2.469-0.768-3.146-1.922
				c-0.696,0.206-1.361,0.483-1.989,0.823c0.339,1.297,0.07,2.346-0.814,3.227c-0.881,0.883-1.93,1.39-3.227,1.051
				c-0.339,0.627-0.615,1.295-0.823,1.99C1.154,47.768,1.922,48.75,1.922,50c0,1.246-0.768,2.469-1.923,3.146
				c0.208,0.695,0.483,1.362,0.823,1.991c1.297-0.339,2.346-0.07,3.227,0.812c0.882,0.883,1.153,1.932,0.814,3.228
				C5.49,59.514,6.157,59.792,6.854,60C7.53,58.842,8.752,58.075,10,58.075c1.246,0,2.469,0.768,3.146,1.925
				c0.694-0.209,1.36-0.486,1.989-0.825c-0.34-1.295-0.069-2.344,0.812-3.228c0.883-0.881,1.931-1.388,3.228-1.051
				c0.34-0.627,0.615-1.293,0.823-1.991C18.841,52.229,18.072,51.246,18.072,50 M9.998,54.347c-2.402,0-4.349-1.946-4.349-4.347
				c0-2.402,1.948-4.35,4.349-4.35c2.402,0,4.348,1.949,4.348,4.35C14.346,52.402,12.4,54.347,9.998,54.347"/>
		</g>
	</g>
</g>
<g>
	<g>
		<g>
			<defs>
				<rect id="SVGID_7_" y="60" width="20" height="20"/>
			</defs>
			<clipPath id="SVGID_8_">
				<use xlink:href="#SVGID_7_"  overflow="visible"/>
			</clipPath>
			<path clip-path="url(#SVGID_8_)" fill="#339933" d="M18.073,70c0-1.25,0.769-2.232,1.925-2.908
				c-0.21-0.695-0.484-1.363-0.824-1.99c-1.296,0.338-2.345-0.168-3.227-1.052c-0.883-0.881-1.152-1.93-0.813-3.227
				c-0.627-0.339-1.295-0.617-1.989-0.823c-0.677,1.154-1.898,1.922-3.146,1.922S7.53,61.154,6.853,60
				c-0.696,0.206-1.361,0.483-1.989,0.823c0.339,1.297,0.07,2.346-0.814,3.227c-0.881,0.884-1.93,1.39-3.227,1.052
				c-0.34,0.627-0.615,1.295-0.823,1.99C1.155,67.768,1.923,68.75,1.923,70c0,1.246-0.768,2.469-1.923,3.146
				c0.208,0.694,0.483,1.361,0.823,1.99c1.297-0.34,2.346-0.07,3.227,0.812c0.882,0.884,1.153,1.933,0.814,3.229
				c0.627,0.337,1.294,0.614,1.99,0.823C7.53,78.842,8.753,78.075,10,78.075c1.246,0,2.469,0.768,3.146,1.925
				c0.694-0.209,1.36-0.486,1.989-0.824c-0.34-1.296-0.069-2.345,0.812-3.229c0.883-0.881,1.931-1.387,3.228-1.051
				c0.34-0.627,0.615-1.293,0.823-1.99C18.842,72.229,18.073,71.246,18.073,70 M9.999,74.348C7.597,74.348,5.65,72.4,5.65,70
				c0-2.402,1.948-4.352,4.349-4.352c2.401,0,4.347,1.949,4.347,4.352S12.4,74.348,9.999,74.348"/>
		</g>
	</g>
</g>
<g>
	<g>
		<g>
			<defs>
				<rect id="SVGID_9_" y="79.998" width="20" height="20"/>
			</defs>
			<clipPath id="SVGID_10_">
				<use xlink:href="#SVGID_9_"  overflow="visible"/>
			</clipPath>
			<path clip-path="url(#SVGID_10_)" fill="#5290D2" d="M18.073,89.998c0-1.25,0.769-2.232,1.925-2.908
				c-0.21-0.695-0.484-1.363-0.824-1.99c-1.296,0.338-2.345-0.168-3.227-1.052c-0.883-0.881-1.152-1.93-0.813-3.228
				c-0.627-0.34-1.295-0.616-1.989-0.822c-0.677,1.154-1.898,1.922-3.146,1.922s-2.469-0.768-3.146-1.922
				c-0.696,0.206-1.361,0.482-1.989,0.822c0.339,1.298,0.07,2.347-0.814,3.228c-0.881,0.884-1.93,1.39-3.227,1.052
				C0.483,85.727,0.208,86.395,0,87.09c1.155,0.676,1.923,1.658,1.923,2.908c0,1.246-0.768,2.469-1.923,3.146
				c0.208,0.694,0.483,1.361,0.823,1.99c1.297-0.34,2.346-0.07,3.227,0.811c0.882,0.885,1.153,1.934,0.814,3.229
				c0.627,0.339,1.294,0.615,1.991,0.824C7.53,98.84,8.753,98.073,10,98.073c1.246,0,2.469,0.768,3.146,1.925
				c0.694-0.209,1.36-0.486,1.989-0.824c-0.34-1.296-0.069-2.345,0.812-3.229c0.883-0.881,1.931-1.387,3.228-1.051
				c0.34-0.627,0.615-1.293,0.823-1.99C18.842,92.227,18.073,91.244,18.073,89.998 M9.999,94.346c-2.402,0-4.349-1.947-4.349-4.348
				c0-2.402,1.948-4.352,4.349-4.352c2.401,0,4.347,1.949,4.347,4.352S12.4,94.346,9.999,94.346"/>
		</g>
	</g>
</g>
<g>
	<g>
		<g>
			<defs>
				<rect id="SVGID_11_" y="99.999" width="20" height="20"/>
			</defs>
			<clipPath id="SVGID_12_">
				<use xlink:href="#SVGID_11_"  overflow="visible"/>
			</clipPath>
			<path clip-path="url(#SVGID_12_)" fill="#FF5252" d="M18.073,109.999c0-1.25,0.769-2.231,1.925-2.908
				c-0.21-0.694-0.484-1.362-0.824-1.989c-1.296,0.338-2.345-0.168-3.227-1.053c-0.883-0.881-1.152-1.93-0.813-3.229
				c-0.627-0.338-1.295-0.615-1.989-0.821c-0.677,1.153-1.898,1.922-3.146,1.922s-2.469-0.769-3.146-1.922
				c-0.696,0.206-1.361,0.483-1.989,0.821c0.339,1.299,0.07,2.348-0.814,3.229c-0.881,0.885-1.93,1.391-3.227,1.053
				c-0.339,0.627-0.615,1.295-0.823,1.989c1.155,0.677,1.923,1.658,1.923,2.908c0,1.246-0.768,2.469-1.923,3.146
				c0.208,0.695,0.483,1.362,0.823,1.991c1.297-0.34,2.346-0.069,3.227,0.812c0.882,0.884,1.153,1.933,0.814,3.229
				c0.627,0.338,1.294,0.615,1.991,0.824c0.676-1.158,1.898-1.925,3.146-1.925c1.246,0,2.47,0.768,3.146,1.925
				c0.695-0.209,1.361-0.486,1.99-0.824c-0.34-1.296-0.07-2.345,0.812-3.229c0.883-0.881,1.931-1.387,3.228-1.051
				c0.339-0.627,0.615-1.293,0.823-1.99C18.842,112.229,18.073,111.245,18.073,109.999 M9.999,114.346
				c-2.402,0-4.349-1.945-4.349-4.347s1.948-4.351,4.349-4.351c2.401,0,4.347,1.947,4.347,4.351S12.4,114.346,9.999,114.346"/>
		</g>
	</g>
</g>
</svg>
