<?xml version="1.0" encoding="utf-8"?>
<!-- Generator: Adobe Illustrator 16.0.0, SVG Export Plug-In . SVG Version: 6.00 Build 0)  -->
<!DOCTYPE svg PUBLIC "-//W3C//DTD SVG 1.1//EN" "http://www.w3.org/Graphics/SVG/1.1/DTD/svg11.dtd">
<svg version="1.1" id="Layer_1" xmlns="http://www.w3.org/2000/svg" xmlns:xlink="http://www.w3.org/1999/xlink" x="0px" y="0px"
	 width="500.095px" height="500.065px" viewBox="0 0 500.095 500.065" enable-background="new 0 0 500.095 500.065"
	 xml:space="preserve">
<g>
	<defs>
		<rect id="SVGID_1_" width="500.095" height="500.065"/>
	</defs>
	<clipPath id="SVGID_2_">
		<use xlink:href="#SVGID_1_"  overflow="visible"/>
	</clipPath>
	<path clip-path="url(#SVGID_2_)" fill="#333333" d="M451.906,250.018c0-31.223,19.229-55.808,48.129-72.714
		c-5.238-17.382-12.113-34.079-20.597-49.765c-32.413,8.483-58.635-4.197-80.689-26.282c-22.056-22.025-28.812-48.247-20.329-80.69
		C362.733,12.083,346.036,5.148,328.654,0c-16.905,28.871-47.474,48.069-78.637,48.069c-31.193,0-61.731-19.198-78.666-48.069
		c-17.412,5.149-34.05,12.084-49.736,20.567c8.483,32.443,1.756,58.665-20.358,80.69c-22.026,22.085-48.248,34.765-80.691,26.282
		C12.084,143.225,5.179,159.921,0,177.304c28.871,16.906,48.069,41.491,48.069,72.714c0,31.163-19.198,61.73-48.069,78.667
		c5.209,17.382,12.085,34.05,20.567,49.766c32.443-8.483,58.665-1.757,80.691,20.299c22.055,22.084,28.841,48.307,20.358,80.69
		c15.686,8.482,32.354,15.418,49.765,20.626c16.906-28.96,47.474-48.128,78.667-48.128c31.163,0,61.729,19.197,78.666,48.128
		c17.382-5.238,34.05-12.144,49.765-20.626c-8.482-32.384-1.756-58.606,20.329-80.69c22.055-22.026,48.277-34.705,80.69-26.282
		c8.482-15.686,15.388-32.323,20.597-49.765C471.135,305.766,451.906,281.18,451.906,250.018 M250.018,358.715
		c-60.064,0-108.728-48.664-108.728-108.698c0-60.064,48.694-108.758,108.728-108.758c60.064,0,108.698,48.724,108.698,108.758
		C358.716,310.082,310.082,358.715,250.018,358.715"/>
</g>
</svg>
