<?xml version="1.0" encoding="utf-8"?>
<!-- Generator: Adobe Illustrator 16.0.0, SVG Export Plug-In . SVG Version: 6.00 Build 0)  -->
<!DOCTYPE svg PUBLIC "-//W3C//DTD SVG 1.1//EN" "http://www.w3.org/Graphics/SVG/1.1/DTD/svg11.dtd">
<svg version="1.1" id="Layer_1" xmlns="http://www.w3.org/2000/svg" xmlns:xlink="http://www.w3.org/1999/xlink" x="0px" y="0px"
	 width="20px" height="120px" viewBox="0 0 20 120" enable-background="new 0 0 20 120" xml:space="preserve">
<path fill="#333333" d="M10,2.3C0.171,2.3,0,3.174,0,10c0,6.826,0.172,7.7,10,7.7c9.829,0,10-0.874,10-7.7
	C20,3.174,19.828,2.3,10,2.3 M13.205,10.333L8.714,12.43C8.322,12.612,8,12.408,8,11.974V8.026C8,7.593,8.322,7.388,8.714,7.57
	l4.491,2.096C13.598,9.85,13.598,10.15,13.205,10.333"/>
<path fill="#C2C2C2" d="M10,22.3c-9.829,0-10,0.874-10,7.7c0,6.826,0.172,7.7,10,7.7c9.828,0,10-0.874,10-7.7
	C20,23.174,19.828,22.3,10,22.3 M13.205,30.334l-4.49,2.097C8.323,32.612,8,32.408,8,31.975v-3.948c0-0.433,0.322-0.638,0.715-0.456
	l4.49,2.096C13.598,29.85,13.598,30.15,13.205,30.334"/>
<path fill="#FFFFFF" d="M10,42.3c-9.829,0-10,0.874-10,7.7c0,6.826,0.172,7.7,10,7.7c9.828,0,10-0.874,10-7.7
	C20,43.174,19.828,42.3,10,42.3 M13.205,50.334l-4.49,2.097C8.322,52.612,8,52.408,8,51.975v-3.948c0-0.433,0.322-0.638,0.715-0.456
	l4.49,2.096C13.598,49.85,13.598,50.15,13.205,50.334"/>
<path fill="#339933" d="M10,62.301c-9.829,0-10,0.874-10,7.7S0.171,77.7,10,77.7c9.828,0,10-0.873,10-7.699S19.828,62.301,10,62.301
	 M13.205,70.335l-4.49,2.096C8.322,72.612,8,72.409,8,71.976v-3.949c0-0.433,0.322-0.638,0.715-0.455l4.49,2.096
	C13.598,69.851,13.598,70.151,13.205,70.335"/>
<path fill="#5290D2" d="M10,82.301c-9.829,0-10,0.874-10,7.7S0.172,97.7,10,97.7c9.828,0,10-0.873,10-7.699S19.828,82.301,10,82.301
	 M13.205,90.335l-4.49,2.096C8.323,92.612,8,92.409,8,91.976v-3.949c0-0.433,0.322-0.638,0.715-0.455l4.49,2.096
	C13.598,89.851,13.598,90.151,13.205,90.335"/>
<path fill="#FF5252" d="M10,102.301c-9.829,0-10,0.874-10,7.7s0.172,7.699,10,7.699c9.828,0,10-0.873,10-7.699
	S19.828,102.301,10,102.301 M13.205,110.335l-4.49,2.096C8.322,112.612,8,112.409,8,111.976v-3.949c0-0.433,0.322-0.638,0.715-0.455
	l4.49,2.096C13.598,109.851,13.598,110.151,13.205,110.335"/>
</svg>
