<?xml version="1.0" encoding="utf-8"?>
<!-- Generator: Adobe Illustrator 16.0.0, SVG Export Plug-In . SVG Version: 6.00 Build 0)  -->
<!DOCTYPE svg PUBLIC "-//W3C//DTD SVG 1.1//EN" "http://www.w3.org/Graphics/SVG/1.1/DTD/svg11.dtd">
<svg version="1.1" id="Layer_1" xmlns="http://www.w3.org/2000/svg" xmlns:xlink="http://www.w3.org/1999/xlink" x="0px" y="0px"
	 width="20px" height="120px" viewBox="0 0 20 120" enable-background="new 0 0 20 120" xml:space="preserve">
<path fill="#333333" d="M17.957,6.052c0.01,0.177,0.013,0.354,0.013,0.531c0,5.432-4.134,11.693-11.691,11.693
	c-2.322,0-4.48-0.681-6.299-1.848c0.322,0.038,0.649,0.059,0.979,0.059c1.927,0,3.697-0.658,5.103-1.758
	c-1.797-0.034-3.316-1.221-3.837-2.854c0.25,0.047,0.508,0.071,0.772,0.071c0.376,0,0.74-0.049,1.084-0.143
	c-1.88-0.378-3.297-2.038-3.297-4.03V7.723C1.338,8.03,1.973,8.215,2.646,8.237C1.542,7.5,0.816,6.243,0.816,4.816
	c0-0.752,0.203-1.459,0.558-2.066C3.4,5.237,6.429,6.873,9.843,7.044C9.774,6.742,9.738,6.431,9.738,6.106
	C9.738,3.839,11.577,2,13.846,2c1.182,0,2.25,0.497,3.001,1.296C17.78,3.111,18.661,2.77,19.454,2.3
	c-0.306,0.958-0.958,1.764-1.806,2.272c0.832-0.1,1.621-0.318,2.36-0.646C19.457,4.751,18.761,5.474,17.957,6.052"/>
<path fill="#C2C2C2" d="M17.956,26.052c0.01,0.177,0.014,0.354,0.014,0.531c0,5.432-4.135,11.693-11.691,11.693
	c-2.322,0-4.481-0.681-6.3-1.848c0.322,0.038,0.649,0.059,0.979,0.059c1.927,0,3.697-0.658,5.104-1.758
	c-1.797-0.034-3.316-1.221-3.838-2.854c0.25,0.047,0.508,0.071,0.772,0.071c0.376,0,0.74-0.049,1.084-0.143
	c-1.88-0.378-3.297-2.038-3.297-4.03v-0.051c0.555,0.307,1.189,0.492,1.862,0.515c-1.103-0.738-1.829-1.995-1.829-3.421
	c0-0.752,0.203-1.459,0.558-2.066c2.026,2.487,5.055,4.123,8.47,4.294c-0.069-0.302-0.105-0.614-0.105-0.938
	c0-2.268,1.839-4.106,4.107-4.106c1.182,0,2.25,0.497,3.002,1.296c0.934-0.185,1.814-0.527,2.607-0.997
	c-0.307,0.958-0.959,1.764-1.807,2.272c0.832-0.1,1.621-0.318,2.361-0.646C19.456,24.751,18.761,25.474,17.956,26.052"/>
<path fill="#FFFFFF" d="M17.955,46.052c0.01,0.177,0.014,0.354,0.014,0.53c0,5.433-4.135,11.693-11.69,11.693
	c-2.322,0-4.481-0.681-6.3-1.848c0.322,0.038,0.649,0.059,0.979,0.059c1.927,0,3.697-0.658,5.104-1.758
	c-1.797-0.034-3.316-1.221-3.838-2.854c0.25,0.047,0.508,0.071,0.772,0.071c0.376,0,0.74-0.05,1.084-0.143
	c-1.88-0.378-3.297-2.038-3.297-4.03v-0.051c0.555,0.307,1.189,0.492,1.862,0.515c-1.103-0.737-1.829-1.995-1.829-3.421
	c0-0.753,0.203-1.459,0.558-2.066c2.026,2.487,5.055,4.123,8.47,4.295c-0.069-0.303-0.105-0.614-0.105-0.938
	c0-2.268,1.839-4.106,4.106-4.106c1.182,0,2.25,0.497,3.002,1.297c0.934-0.186,1.814-0.527,2.607-0.997
	c-0.307,0.958-0.959,1.764-1.807,2.272c0.832-0.1,1.621-0.318,2.361-0.646C19.455,44.751,18.76,45.474,17.955,46.052"/>
<path fill="#339933" d="M17.962,66.052c0.01,0.177,0.014,0.354,0.014,0.53c0,5.433-4.135,11.693-11.691,11.693
	c-2.322,0-4.48-0.681-6.299-1.848c0.322,0.038,0.649,0.059,0.979,0.059c1.927,0,3.697-0.658,5.103-1.758
	c-1.797-0.034-3.316-1.221-3.837-2.854c0.25,0.047,0.508,0.071,0.772,0.071c0.376,0,0.74-0.05,1.084-0.143
	c-1.88-0.378-3.297-2.038-3.297-4.03v-0.051c0.555,0.307,1.189,0.492,1.862,0.515c-1.103-0.737-1.829-1.995-1.829-3.421
	c0-0.753,0.203-1.459,0.558-2.066c2.026,2.487,5.055,4.123,8.469,4.295c-0.068-0.303-0.105-0.614-0.105-0.938
	c0-2.268,1.84-4.106,4.107-4.106c1.182,0,2.25,0.497,3.002,1.297c0.934-0.186,1.814-0.527,2.607-0.997
	c-0.307,0.958-0.959,1.764-1.807,2.272c0.832-0.1,1.621-0.318,2.361-0.646C19.462,64.751,18.767,65.474,17.962,66.052"/>
<path fill="#5290D2" d="M17.963,86.052c0.01,0.177,0.013,0.354,0.013,0.53c0,5.433-4.134,11.693-11.691,11.693
	c-2.322,0-4.48-0.681-6.299-1.848c0.322,0.038,0.649,0.059,0.979,0.059c1.927,0,3.697-0.658,5.103-1.758
	c-1.797-0.034-3.316-1.221-3.837-2.854c0.25,0.047,0.508,0.071,0.772,0.071c0.376,0,0.74-0.05,1.084-0.143
	c-1.88-0.378-3.297-2.038-3.297-4.03v-0.051c0.555,0.307,1.189,0.492,1.862,0.515c-1.103-0.737-1.829-1.995-1.829-3.421
	c0-0.753,0.203-1.459,0.558-2.066c2.026,2.487,5.055,4.123,8.47,4.295c-0.069-0.303-0.105-0.614-0.105-0.938
	c0-2.268,1.839-4.106,4.107-4.106c1.182,0,2.25,0.497,3.001,1.297c0.934-0.186,1.814-0.527,2.607-0.997
	c-0.306,0.958-0.958,1.764-1.806,2.272c0.832-0.1,1.621-0.318,2.36-0.646C19.463,84.751,18.767,85.474,17.963,86.052"/>
<path fill="#FF5252" d="M17.963,106.052c0.01,0.177,0.013,0.354,0.013,0.53c0,5.433-4.134,11.693-11.691,11.693
	c-2.322,0-4.48-0.681-6.299-1.848c0.322,0.038,0.649,0.059,0.979,0.059c1.927,0,3.697-0.658,5.103-1.758
	c-1.797-0.034-3.316-1.221-3.837-2.854c0.25,0.047,0.508,0.071,0.772,0.071c0.376,0,0.74-0.05,1.084-0.143
	c-1.88-0.378-3.297-2.038-3.297-4.03v-0.051c0.555,0.307,1.189,0.492,1.862,0.515c-1.103-0.737-1.829-1.995-1.829-3.421
	c0-0.753,0.203-1.459,0.558-2.066c2.026,2.487,5.055,4.123,8.47,4.295c-0.069-0.303-0.105-0.614-0.105-0.938
	c0-2.268,1.839-4.106,4.107-4.106c1.182,0,2.25,0.497,3.001,1.297c0.934-0.186,1.814-0.527,2.607-0.997
	c-0.306,0.958-0.958,1.764-1.806,2.272c0.832-0.1,1.621-0.318,2.36-0.646C19.463,104.751,18.767,105.474,17.963,106.052"/>
</svg>
