<?xml version="1.0" encoding="utf-8"?>
<!-- Generator: Adobe Illustrator 16.0.0, SVG Export Plug-In . SVG Version: 6.00 Build 0)  -->
<!DOCTYPE svg PUBLIC "-//W3C//DTD SVG 1.1//EN" "http://www.w3.org/Graphics/SVG/1.1/DTD/svg11.dtd">
<svg version="1.1" id="Layer_1" xmlns="http://www.w3.org/2000/svg" xmlns:xlink="http://www.w3.org/1999/xlink" x="0px" y="0px"
	 width="20px" height="120px" viewBox="0 0 20 120" enable-background="new 0 0 20 120" xml:space="preserve">
<polygon fill="#333333" points="10,0.033 7.286,7.672 0,7.672 5.945,12.159 3.82,20.033 10,15.312 16.182,20.033 14.055,12.159 
	20,7.672 12.714,7.672 "/>
<polygon fill="#C2C2C2" points="10,20.033 7.286,27.672 0,27.672 5.945,32.159 3.82,40.033 10,35.312 16.182,40.033 14.055,32.159 
	20,27.672 12.714,27.672 "/>
<polygon fill="#FFFFFF" points="10,40 7.286,47.639 0,47.639 5.945,52.125 3.82,60 10,55.278 16.182,60 14.055,52.125 20,47.639 
	12.714,47.639 "/>
<polygon fill="#339933" points="10,60 7.287,67.639 0,67.639 5.946,72.125 3.821,80 10,75.277 16.182,80 14.055,72.125 20,67.639 
	12.715,67.639 "/>
<polygon fill="#5290D2" points="10,79.998 7.286,87.637 0,87.637 5.945,92.123 3.82,99.998 10,95.275 16.18,99.998 14.055,92.123 
	20,87.637 12.713,87.637 "/>
<polygon fill="#FF5252" points="10,99.999 7.286,107.639 0,107.639 5.945,112.124 3.82,119.999 10,115.277 16.18,119.999 
	14.055,112.124 20,107.639 12.713,107.639 "/>
</svg>
