<?xml version="1.0" encoding="utf-8"?>
<!-- Generator: Adobe Illustrator 16.0.0, SVG Export Plug-In . SVG Version: 6.00 Build 0)  -->
<!DOCTYPE svg PUBLIC "-//W3C//DTD SVG 1.1//EN" "http://www.w3.org/Graphics/SVG/1.1/DTD/svg11.dtd">
<svg version="1.1" id="Layer_1" xmlns="http://www.w3.org/2000/svg" xmlns:xlink="http://www.w3.org/1999/xlink" x="0px" y="0px"
	 width="20px" height="120px" viewBox="0 0 20 120" enable-background="new 0 0 20 120" xml:space="preserve">
<path fill="#333333" d="M10,0.033c-5.523,0-10,4.477-10,10c0,5.521,4.477,10,10,10c5.521,0,10-4.479,10-10
	C20,4.51,15.521,0.033,10,0.033z M13.962,7.048l-4.28,6.874c-0.156,0.252-0.432,0.403-0.727,0.403c-0.268,0-0.52-0.126-0.682-0.339
	l-2.19-2.893c-0.285-0.377-0.211-0.914,0.166-1.198c0.376-0.285,0.913-0.211,1.198,0.166l1.441,1.903l3.625-5.82
	c0.25-0.4,0.774-0.523,1.176-0.274C14.089,6.12,14.212,6.647,13.962,7.048z"/>
<path fill="#C2C2C2" d="M10,20.033c-5.523,0-10,4.477-10,10c0,5.521,4.477,10,10,10c5.521,0,10-4.479,10-10
	C20,24.51,15.521,20.033,10,20.033z M13.962,27.048l-4.28,6.874c-0.156,0.252-0.432,0.403-0.727,0.403
	c-0.268,0-0.52-0.126-0.682-0.339l-2.19-2.893c-0.285-0.377-0.211-0.914,0.166-1.198c0.376-0.285,0.913-0.211,1.198,0.166
	l1.441,1.903l3.625-5.82c0.25-0.4,0.774-0.523,1.176-0.274C14.089,26.12,14.212,26.647,13.962,27.048z"/>
<path fill="#FFFFFF" d="M10,40C4.477,40,0,44.477,0,50c0,5.521,4.477,10,10,10c5.521,0,10-4.479,10-10C20,44.477,15.521,40,10,40z
	 M13.962,47.015l-4.28,6.874c-0.156,0.252-0.432,0.403-0.727,0.403c-0.268,0-0.52-0.126-0.682-0.339l-2.19-2.893
	c-0.285-0.377-0.211-0.914,0.166-1.198c0.376-0.285,0.913-0.211,1.198,0.166l1.441,1.903l3.625-5.82
	c0.25-0.4,0.774-0.523,1.176-0.274C14.089,46.087,14.212,46.614,13.962,47.015z"/>
<path fill="#339933" d="M10,60C4.477,60,0,64.477,0,70c0,5.521,4.477,10,10,10c5.521,0,10-4.479,10-10C20,64.477,15.521,60,10,60z
	 M13.962,67.016l-4.28,6.873c-0.156,0.252-0.432,0.403-0.727,0.403c-0.268,0-0.52-0.126-0.682-0.339l-2.19-2.893
	c-0.285-0.377-0.211-0.914,0.166-1.197c0.376-0.285,0.913-0.211,1.198,0.166l1.441,1.902l3.625-5.82
	c0.25-0.399,0.774-0.522,1.176-0.273C14.089,66.087,14.212,66.614,13.962,67.016z"/>
<path fill="#5290D2" d="M10,79.998c-5.523,0-10,4.477-10,10c0,5.521,4.477,10,10,10c5.521,0,10-4.479,10-10
	C20,84.475,15.521,79.998,10,79.998z M13.962,87.014l-4.28,6.873C9.525,94.139,9.25,94.29,8.955,94.29
	c-0.268,0-0.52-0.126-0.682-0.339l-2.19-2.893c-0.285-0.377-0.211-0.914,0.166-1.197c0.376-0.285,0.913-0.211,1.198,0.166
	l1.441,1.902l3.625-5.82c0.25-0.399,0.774-0.522,1.176-0.273C14.089,86.085,14.212,86.611,13.962,87.014z"/>
<path fill="#FF5252" d="M10,99.999c-5.523,0-10,4.478-10,10c0,5.521,4.477,10,10,10c5.521,0,10-4.479,10-10
	C20,104.477,15.521,99.999,10,99.999z M13.962,107.016l-4.28,6.873c-0.156,0.252-0.432,0.402-0.727,0.402
	c-0.268,0-0.52-0.126-0.682-0.339l-2.19-2.894c-0.285-0.377-0.211-0.914,0.166-1.197c0.376-0.284,0.913-0.211,1.198,0.166
	l1.441,1.902l3.625-5.82c0.25-0.398,0.774-0.521,1.176-0.272C14.089,106.086,14.212,106.613,13.962,107.016z"/>
</svg>
