<?xml version="1.0" encoding="utf-8"?>
<!-- Generator: Adobe Illustrator 16.0.0, SVG Export Plug-In . SVG Version: 6.00 Build 0)  -->
<!DOCTYPE svg PUBLIC "-//W3C//DTD SVG 1.1//EN" "http://www.w3.org/Graphics/SVG/1.1/DTD/svg11.dtd">
<svg version="1.1" id="Layer_1" xmlns="http://www.w3.org/2000/svg" xmlns:xlink="http://www.w3.org/1999/xlink" x="0px" y="0px"
	 width="20px" height="20px" viewBox="0 0 20 20" enable-background="new 0 0 20 20" xml:space="preserve">
<path fill="#FFFFFF" d="M10,0C4.477,0,0,4.477,0,10c0,5.522,4.477,10,10,10c5.522,0,10-4.478,10-10C20,4.477,15.522,0,10,0z
	 M13.962,7.015l-4.281,6.874c-0.156,0.251-0.431,0.403-0.726,0.403c-0.268,0-0.52-0.126-0.681-0.339L6.083,11.06
	c-0.285-0.376-0.211-0.913,0.166-1.197c0.376-0.285,0.913-0.211,1.198,0.166l1.441,1.903l3.625-5.82
	c0.25-0.4,0.776-0.523,1.177-0.274C14.089,6.087,14.212,6.614,13.962,7.015z"/>
</svg>
