<?xml version="1.0" encoding="utf-8"?>
<!-- Generator: Adobe Illustrator 16.0.0, SVG Export Plug-In . SVG Version: 6.00 Build 0)  -->
<!DOCTYPE svg PUBLIC "-//W3C//DTD SVG 1.1//EN" "http://www.w3.org/Graphics/SVG/1.1/DTD/svg11.dtd">
<svg version="1.1" id="Layer_1" xmlns="http://www.w3.org/2000/svg" xmlns:xlink="http://www.w3.org/1999/xlink" x="0px" y="0px"
	 width="20.312px" height="20.312px" viewBox="0 0 20.312 20.312" enable-background="new 0 0 20.312 20.312" xml:space="preserve">
<g>
	<polygon fill="#333333" points="7.531,6.219 13.531,10.219 7.531,14.219 	"/>
	<g>
		<path fill="#333333" d="M10.178,2.26c4.388,0,7.957,3.57,7.957,7.958c0,4.39-3.569,7.96-7.957,7.96c-4.39,0-7.96-3.57-7.96-7.96
			C2.219,5.831,5.789,2.26,10.178,2.26 M10.178,0.26c-5.5,0-9.96,4.458-9.96,9.958s4.458,9.96,9.96,9.96
			c5.498,0,9.957-4.46,9.957-9.96S15.677,0.26,10.178,0.26L10.178,0.26z"/>
	</g>
</g>
</svg>
