<?xml version="1.0" encoding="utf-8"?>
<!-- Generator: Adobe Illustrator 16.0.0, SVG Export Plug-In . SVG Version: 6.00 Build 0)  -->
<!DOCTYPE svg PUBLIC "-//W3C//DTD SVG 1.1//EN" "http://www.w3.org/Graphics/SVG/1.1/DTD/svg11.dtd">
<svg version="1.1" id="Layer_1" xmlns="http://www.w3.org/2000/svg" xmlns:xlink="http://www.w3.org/1999/xlink" x="0px" y="0px"
	 width="20px" height="120px" viewBox="0 0 20 120" enable-background="new 0 0 20 120" xml:space="preserve">
<g>
	<polygon fill="#333333" points="7.344,5.983 13.369,10 7.344,14.017 	"/>
	<g>
		<path fill="#333333" d="M10.003,2.009c4.406,0,7.989,3.585,7.989,7.99c0,4.408-3.583,7.993-7.989,7.993
			c-4.409,0-7.994-3.585-7.994-7.993C2.01,5.595,5.595,2.009,10.003,2.009 M10.003,0C4.479,0,0,4.477,0,9.999S4.477,20,10.003,20
			C15.521,20,20,15.521,20,9.999S15.523,0,10.003,0L10.003,0z"/>
	</g>
</g>
<g>
	<polygon fill="#C2C2C2" points="7.344,26.017 13.369,30.033 7.344,34.05 	"/>
	<g>
		<path fill="#C2C2C2" d="M10.003,22.042c4.406,0,7.989,3.585,7.989,7.99c0,4.408-3.583,7.993-7.989,7.993
			c-4.409,0-7.994-3.585-7.994-7.993C2.01,25.628,5.595,22.042,10.003,22.042 M10.003,20.033C4.479,20.033,0,24.51,0,30.032
			c0,5.522,4.477,10.001,10.003,10.001c5.521,0,9.997-4.479,9.997-10.001C20,24.51,15.523,20.033,10.003,20.033L10.003,20.033z"/>
	</g>
</g>
<g>
	<polygon fill="#FFFFFF" points="7.344,45.983 13.369,50 7.344,54.017 	"/>
	<g>
		<path fill="#FFFFFF" d="M10.003,42.009c4.406,0,7.989,3.585,7.989,7.99c0,4.408-3.583,7.993-7.989,7.993
			c-4.409,0-7.994-3.585-7.994-7.993C2.01,45.595,5.595,42.009,10.003,42.009 M10.003,40C4.479,40,0,44.477,0,49.999
			S4.477,60,10.003,60C15.521,60,20,55.521,20,49.999S15.523,40,10.003,40L10.003,40z"/>
	</g>
</g>
<g>
	<polygon fill="#339933" points="7.344,65.982 13.369,70 7.344,74.018 	"/>
	<g>
		<path fill="#339933" d="M10.003,62.009c4.406,0,7.989,3.585,7.989,7.99c0,4.408-3.583,7.993-7.989,7.993
			c-4.409,0-7.994-3.585-7.994-7.993C2.01,65.596,5.595,62.009,10.003,62.009 M10.003,60C4.479,60,0,64.477,0,69.999
			S4.477,80,10.003,80C15.521,80,20,75.521,20,69.999S15.523,60,10.003,60L10.003,60z"/>
	</g>
</g>
<g>
	<polygon fill="#5290D2" points="7.344,85.98 13.369,89.998 7.344,94.016 	"/>
	<g>
		<path fill="#5290D2" d="M10.003,82.007c4.406,0,7.989,3.585,7.989,7.99c0,4.407-3.583,7.993-7.989,7.993
			c-4.409,0-7.994-3.586-7.994-7.993C2.01,85.593,5.595,82.007,10.003,82.007 M10.003,79.998C4.479,79.998,0,84.475,0,89.997
			s4.477,10.001,10.003,10.001c5.521,0,9.997-4.479,9.997-10.001S15.523,79.998,10.003,79.998L10.003,79.998z"/>
	</g>
</g>
<g>
	<polygon fill="#FF5252" points="7.344,105.982 13.369,109.999 7.344,114.016 	"/>
	<g>
		<path fill="#FF5252" d="M10.003,102.008c4.406,0,7.989,3.585,7.989,7.99c0,4.408-3.583,7.993-7.989,7.993
			c-4.409,0-7.994-3.585-7.994-7.993C2.01,105.594,5.595,102.008,10.003,102.008 M10.003,99.999C4.479,99.999,0,104.477,0,109.998
			s4.477,10.001,10.003,10.001c5.521,0,9.997-4.479,9.997-10.001S15.523,99.999,10.003,99.999L10.003,99.999z"/>
	</g>
</g>
</svg>
