<?xml version="1.0" encoding="utf-8"?>
<!-- Generator: Adobe Illustrator 16.0.0, SVG Export Plug-In . SVG Version: 6.00 Build 0)  -->
<!DOCTYPE svg PUBLIC "-//W3C//DTD SVG 1.1//EN" "http://www.w3.org/Graphics/SVG/1.1/DTD/svg11.dtd">
<svg version="1.1" id="Layer_1" xmlns="http://www.w3.org/2000/svg" xmlns:xlink="http://www.w3.org/1999/xlink" x="0px" y="0px"
	 width="20px" height="120px" viewBox="0 0 20 120" enable-background="new 0 0 20 120" xml:space="preserve">
<path fill="#333333" d="M15.911,17.868c0-2.236-2.175-3.373-4.296-4.286c-2.113-0.91-2.787-1.677-2.787-3.318
	c0-0.984,0.645-0.664,0.927-2.469c0.119-0.748,0.689-0.012,0.798-1.72c0-0.68-0.311-0.849-0.311-0.849s0.158-1.008,0.22-1.785
	c0.063-0.813-0.479-2.259-2.225-3.166C7.798,0.047,7.123,0.005,7.713,0C5.481,0.014,5.89,0.007,4.702,0.866
	C3.692,1.617,3.42,2.809,3.468,3.443C3.532,4.219,3.69,5.227,3.69,5.227S3.378,5.396,3.378,6.076
	c0.109,1.709,0.681,0.973,0.799,1.72c0.282,1.806,0.928,1.485,0.928,2.469c0,1.641-0.211,2.198-2.325,3.108
	C0.661,14.288,0,15.75,0.011,17.868C0.015,18.502,0,18.735,0,18.735h15.922C15.922,18.735,15.911,18.502,15.911,17.868
	 M18.438,12.132c-1.129-0.455-1.597-0.998-1.597-2.057c0-0.636,0.416-0.428,0.599-1.595c0.076-0.48,0.445-0.006,0.517-1.108
	c0-0.438-0.201-0.548-0.201-0.548s0.103-0.652,0.142-1.153c0.051-0.625-0.361-2.237-2.256-2.237c-1.894,0-2.307,1.613-2.259,2.237
	c0.042,0.499,0.144,1.153,0.144,1.153s-0.2,0.108-0.2,0.548C13.396,8.474,13.764,8,13.84,8.481c0.184,1.167,0.6,0.958,0.6,1.595
	c0,1.059-0.437,1.555-1.799,2.143c-0.07,0.029-0.121,0.066-0.184,0.101c1.632,0.709,4.205,1.932,4.814,4.426h2.631V14.44
	C19.902,13.444,19.631,12.613,18.438,12.132"/>
<path fill="#C2C2C2" d="M15.911,37.868c0-2.236-2.175-3.373-4.296-4.286c-2.113-0.91-2.787-1.677-2.787-3.318
	c0-0.984,0.645-0.664,0.927-2.469c0.119-0.748,0.689-0.012,0.798-1.72c0-0.68-0.311-0.849-0.311-0.849s0.158-1.008,0.22-1.785
	c0.063-0.813-0.479-2.259-2.225-3.166C7.798,20.047,7.123,20.005,7.713,20c-2.231,0.014-1.823,0.007-3.011,0.866
	c-1.01,0.751-1.282,1.943-1.234,2.577c0.064,0.776,0.222,1.785,0.222,1.785s-0.312,0.169-0.312,0.849
	c0.109,1.709,0.681,0.973,0.799,1.72c0.282,1.806,0.928,1.485,0.928,2.469c0,1.641-0.211,2.198-2.325,3.108
	C0.661,34.288,0,35.75,0.011,37.868C0.015,38.502,0,38.735,0,38.735h15.922C15.922,38.735,15.911,38.502,15.911,37.868
	 M18.438,32.132c-1.129-0.455-1.597-0.998-1.597-2.057c0-0.636,0.416-0.428,0.599-1.595c0.076-0.481,0.445-0.007,0.518-1.109
	c0-0.438-0.201-0.548-0.201-0.548s0.102-0.652,0.143-1.153c0.05-0.625-0.362-2.237-2.258-2.237c-1.893,0-2.306,1.613-2.258,2.237
	c0.042,0.499,0.145,1.153,0.145,1.153s-0.201,0.108-0.201,0.548c0.07,1.102,0.438,0.629,0.516,1.109
	c0.184,1.167,0.6,0.958,0.6,1.595c0,1.059-0.437,1.555-1.799,2.143c-0.069,0.029-0.121,0.066-0.184,0.101
	c1.632,0.709,4.205,1.932,4.814,4.426h2.631v-2.306C19.902,33.444,19.631,32.613,18.438,32.132"/>
<path fill="#FFFFFF" d="M15.911,57.964c0-2.236-2.175-3.373-4.296-4.286C9.502,52.768,8.828,52,8.828,50.359
	c0-0.984,0.645-0.664,0.927-2.469c0.119-0.748,0.689-0.012,0.798-1.72c0-0.68-0.311-0.849-0.311-0.849s0.158-1.008,0.22-1.785
	c0.063-0.813-0.479-2.259-2.225-3.166c-0.439-0.228-1.114-0.27-0.524-0.274c-2.231,0.014-1.823,0.007-3.011,0.866
	c-1.01,0.751-1.282,1.943-1.234,2.577c0.064,0.776,0.222,1.785,0.222,1.785s-0.312,0.169-0.312,0.849
	c0.109,1.709,0.681,0.973,0.799,1.72c0.282,1.806,0.928,1.485,0.928,2.469c0,1.641-0.211,2.198-2.325,3.108
	c-2.12,0.914-2.781,2.376-2.77,4.494C0.015,58.598,0,58.831,0,58.831h15.922C15.922,58.831,15.911,58.598,15.911,57.964
	 M18.438,52.228c-1.129-0.455-1.597-0.998-1.597-2.057c0-0.636,0.416-0.428,0.599-1.595c0.076-0.481,0.445-0.007,0.518-1.109
	c0-0.438-0.201-0.548-0.201-0.548s0.102-0.652,0.143-1.153c0.05-0.625-0.362-2.237-2.258-2.237c-1.893,0-2.306,1.613-2.258,2.237
	c0.042,0.499,0.145,1.153,0.145,1.153s-0.201,0.108-0.201,0.548c0.07,1.102,0.438,0.629,0.516,1.109
	c0.184,1.167,0.6,0.958,0.6,1.595c0,1.059-0.437,1.555-1.799,2.143c-0.069,0.029-0.121,0.066-0.184,0.101
	c1.632,0.709,4.205,1.932,4.814,4.426h2.631v-2.306C19.902,53.54,19.631,52.708,18.438,52.228"/>
<path fill="#339933" d="M15.911,77.868c0-2.236-2.175-3.372-4.296-4.286c-2.113-0.91-2.787-1.678-2.787-3.318
	c0-0.984,0.645-0.664,0.927-2.469c0.119-0.748,0.689-0.012,0.798-1.721c0-0.68-0.311-0.85-0.311-0.85s0.158-1.009,0.22-1.785
	c0.063-0.812-0.479-2.258-2.225-3.166C7.798,60.047,7.123,60.005,7.713,60c-2.231,0.014-1.823,0.008-3.011,0.865
	c-1.01,0.752-1.282,1.943-1.234,2.576c0.064,0.776,0.222,1.785,0.222,1.785s-0.312,0.17-0.312,0.85
	c0.109,1.709,0.681,0.973,0.799,1.721c0.282,1.807,0.928,1.484,0.928,2.469c0,1.642-0.211,2.198-2.325,3.108
	C0.661,74.288,0,75.75,0.011,77.868C0.015,78.502,0,78.734,0,78.734h15.922C15.922,78.734,15.911,78.502,15.911,77.868
	 M18.438,72.133c-1.129-0.455-1.597-0.998-1.597-2.057c0-0.637,0.416-0.43,0.599-1.596c0.076-0.48,0.445-0.008,0.518-1.109
	c0-0.438-0.201-0.548-0.201-0.548s0.102-0.651,0.143-1.153c0.05-0.624-0.362-2.236-2.258-2.236c-1.893,0-2.306,1.612-2.258,2.236
	c0.042,0.5,0.145,1.153,0.145,1.153s-0.201,0.108-0.201,0.548c0.07,1.104,0.438,0.629,0.516,1.109c0.184,1.166,0.6,0.959,0.6,1.596
	c0,1.059-0.437,1.555-1.799,2.143c-0.069,0.028-0.121,0.066-0.184,0.1c1.632,0.711,4.205,1.933,4.814,4.427h2.631v-2.306
	C19.902,73.443,19.631,72.613,18.438,72.133"/>
<path fill="#5290D2" d="M15.911,97.868c0-2.236-2.175-3.372-4.296-4.286c-2.113-0.91-2.787-1.678-2.787-3.318
	c0-0.984,0.645-0.664,0.927-2.469c0.119-0.748,0.689-0.012,0.798-1.721c0-0.68-0.311-0.85-0.311-0.85s0.158-1.009,0.22-1.785
	c0.063-0.812-0.479-2.258-2.225-3.166C7.798,80.047,7.123,80.005,7.713,80c-2.231,0.014-1.823,0.008-3.011,0.865
	c-1.01,0.752-1.282,1.943-1.234,2.576c0.064,0.776,0.222,1.785,0.222,1.785s-0.312,0.17-0.312,0.85
	c0.109,1.709,0.681,0.973,0.799,1.721c0.282,1.807,0.928,1.484,0.928,2.469c0,1.642-0.211,2.198-2.325,3.108
	C0.661,94.288,0,95.75,0.011,97.868C0.015,98.502,0,98.734,0,98.734h15.922C15.922,98.734,15.911,98.502,15.911,97.868
	 M18.438,92.133c-1.129-0.455-1.597-0.998-1.597-2.057c0-0.637,0.416-0.43,0.599-1.596c0.076-0.48,0.445-0.008,0.518-1.109
	c0-0.438-0.201-0.548-0.201-0.548s0.102-0.651,0.143-1.153c0.05-0.624-0.362-2.236-2.258-2.236c-1.893,0-2.306,1.612-2.258,2.236
	c0.042,0.5,0.145,1.153,0.145,1.153s-0.201,0.108-0.201,0.548c0.07,1.104,0.438,0.629,0.516,1.109c0.184,1.166,0.6,0.959,0.6,1.596
	c0,1.059-0.437,1.555-1.799,2.143c-0.069,0.028-0.121,0.066-0.184,0.1c1.632,0.711,4.205,1.933,4.814,4.427h2.631v-2.306
	C19.902,93.443,19.631,92.613,18.438,92.133"/>
<path fill="#FF5252" d="M15.911,117.866c0-2.236-2.175-3.372-4.296-4.286c-2.113-0.91-2.787-1.678-2.787-3.318
	c0-0.984,0.645-0.664,0.927-2.469c0.119-0.748,0.689-0.012,0.798-1.721c0-0.68-0.311-0.85-0.311-0.85s0.158-1.009,0.22-1.785
	c0.063-0.812-0.479-2.258-2.225-3.166c-0.439-0.228-1.114-0.27-0.524-0.273c-2.231,0.014-1.823,0.008-3.011,0.865
	c-1.01,0.752-1.282,1.943-1.234,2.576c0.064,0.776,0.222,1.785,0.222,1.785s-0.312,0.17-0.312,0.85
	c0.109,1.709,0.681,0.973,0.799,1.721c0.282,1.807,0.928,1.484,0.928,2.469c0,1.641-0.211,2.198-2.325,3.108
	c-2.12,0.914-2.781,2.376-2.77,4.494C0.015,118.5,0,118.732,0,118.732h15.922C15.922,118.732,15.911,118.5,15.911,117.866
	 M18.438,112.131c-1.129-0.455-1.597-0.998-1.597-2.057c0-0.637,0.416-0.43,0.599-1.596c0.076-0.48,0.445-0.008,0.518-1.109
	c0-0.438-0.201-0.549-0.201-0.549s0.102-0.65,0.143-1.152c0.05-0.624-0.362-2.236-2.258-2.236c-1.893,0-2.306,1.612-2.258,2.236
	c0.042,0.5,0.145,1.152,0.145,1.152s-0.201,0.109-0.201,0.549c0.07,1.104,0.438,0.629,0.516,1.109c0.184,1.166,0.6,0.959,0.6,1.596
	c0,1.059-0.437,1.555-1.799,2.143c-0.069,0.028-0.121,0.066-0.184,0.1c1.632,0.711,4.205,1.933,4.814,4.427h2.631v-2.306
	C19.902,113.441,19.631,112.611,18.438,112.131"/>
</svg>
