<?xml version="1.0" encoding="utf-8"?>
<!-- Generator: Adobe Illustrator 16.0.0, SVG Export Plug-In . SVG Version: 6.00 Build 0)  -->
<!DOCTYPE svg PUBLIC "-//W3C//DTD SVG 1.1//EN" "http://www.w3.org/Graphics/SVG/1.1/DTD/svg11.dtd">
<svg version="1.1" id="Layer_1" xmlns="http://www.w3.org/2000/svg" xmlns:xlink="http://www.w3.org/1999/xlink" x="0px" y="0px"
	 width="20px" height="120px" viewBox="0 0 20 120" enable-background="new 0 0 20 120" xml:space="preserve">
<g>
	<path fill="#333333" d="M19.825,17.508L10.624,1.36C10.498,1.138,10.259,1,10,1C9.742,1,9.503,1.138,9.376,1.36l-9.2,16.148
		c-0.125,0.219-0.123,0.486,0.006,0.703c0.128,0.217,0.364,0.35,0.618,0.35h18.402c0.254,0,0.489-0.133,0.618-0.35
		C19.947,17.994,19.949,17.727,19.825,17.508z M11.137,16.495H8.864v-2.066h2.271L11.137,16.495L11.137,16.495z M11.137,12.879
		H8.864V6.681h2.271L11.137,12.879L11.137,12.879z"/>
</g>
<g>
	<path fill="#C2C2C2" d="M19.825,37.508L10.624,21.36C10.498,21.138,10.259,21,10,21c-0.258,0-0.496,0.138-0.623,0.36L0.176,37.508
		c-0.125,0.219-0.123,0.486,0.006,0.703c0.128,0.217,0.364,0.35,0.618,0.35h18.402c0.254,0,0.489-0.133,0.618-0.35
		C19.947,37.994,19.949,37.727,19.825,37.508z M11.137,36.495H8.864v-2.066h2.271L11.137,36.495L11.137,36.495z M11.137,32.879
		H8.864v-6.198h2.271L11.137,32.879L11.137,32.879z"/>
</g>
<g>
	<path fill="#FFFFFF" d="M19.825,57.604l-9.201-16.147c-0.126-0.223-0.365-0.36-0.624-0.36c-0.258,0-0.496,0.138-0.623,0.36
		L0.176,57.604c-0.125,0.219-0.123,0.486,0.006,0.703c0.128,0.217,0.364,0.35,0.618,0.35h18.4c0.254,0,0.489-0.133,0.618-0.35
		C19.945,58.09,19.948,57.822,19.825,57.604z M11.136,56.59H8.864v-2.066h2.271L11.136,56.59L11.136,56.59z M11.136,52.975H8.864
		v-6.198h2.271L11.136,52.975L11.136,52.975z"/>
</g>
<g>
	<path fill="#339933" d="M19.825,77.508l-9.201-16.148C10.498,61.139,10.259,61,10,61c-0.258,0-0.496,0.139-0.623,0.359
		L0.176,77.508c-0.125,0.219-0.123,0.486,0.006,0.703s0.364,0.35,0.618,0.35h18.4c0.254,0,0.489-0.133,0.618-0.35
		C19.945,77.994,19.948,77.727,19.825,77.508z M11.136,76.494H8.864V74.43h2.271L11.136,76.494L11.136,76.494z M11.136,72.879H8.864
		v-6.197h2.271L11.136,72.879L11.136,72.879z"/>
</g>
<g>
	<path fill="#5290D2" d="M19.825,97.508l-9.201-16.148C10.498,81.139,10.259,81,10,81s-0.497,0.139-0.624,0.359l-9.2,16.148
		c-0.125,0.219-0.123,0.486,0.006,0.703s0.364,0.35,0.618,0.35h18.4c0.254,0,0.489-0.133,0.618-0.35
		C19.945,97.994,19.948,97.727,19.825,97.508z M11.136,96.494H8.864V94.43h2.271L11.136,96.494L11.136,96.494z M11.136,92.879H8.864
		v-6.197h2.271L11.136,92.879L11.136,92.879z"/>
</g>
<g>
	<path fill="#FF5252" d="M19.825,117.508l-9.201-16.146C10.498,101.139,10.259,101,10,101s-0.497,0.139-0.624,0.359l-9.201,16.147
		c-0.125,0.22-0.123,0.486,0.006,0.703c0.129,0.217,0.364,0.351,0.618,0.351h18.402c0.254,0,0.488-0.134,0.617-0.351
		C19.947,117.994,19.949,117.727,19.825,117.508z M11.137,116.494H8.864v-2.064h2.271L11.137,116.494L11.137,116.494z
		 M11.137,112.879H8.864v-6.197h2.271L11.137,112.879L11.137,112.879z"/>
</g>
</svg>
