<?xml version="1.0" encoding="utf-8"?>
<!-- Generator: Adobe Illustrator 16.0.0, SVG Export Plug-In . SVG Version: 6.00 Build 0)  -->
<!DOCTYPE svg PUBLIC "-//W3C//DTD SVG 1.1//EN" "http://www.w3.org/Graphics/SVG/1.1/DTD/svg11.dtd">
<svg version="1.1" id="Layer_1" xmlns="http://www.w3.org/2000/svg" xmlns:xlink="http://www.w3.org/1999/xlink" x="0px" y="0px"
	 width="184.875px" height="80.5px" viewBox="0 0 184.875 80.5" enable-background="new 0 0 184.875 80.5" xml:space="preserve">
<g>
	<g>
		<path fill="#339847" d="M77.22,38.495c0,20.711-16.788,37.495-37.497,37.495c-20.707,0-37.495-16.784-37.495-37.495
			C2.228,17.786,19.016,1,39.723,1C60.432,1,77.22,17.786,77.22,38.495z"/>
		<path fill="#B1D9AD" d="M21.018,53.694c0,0.559-0.136,1.008-0.692,1.021v0.008c-0.298,0.027,0.071,0.038-0.168,0.038
			c-1.879,0-3.208-0.413-3.988-1.239c-0.778-0.826-1.168-2.228-1.168-4.204v-6.732c0-1.063-0.156-1.855-0.466-2.38
			c-0.309-0.514-0.848-0.887-1.617-1.115c-0.388-0.156-0.665-0.532-0.665-0.975c0-0.439,0.27-0.812,0.649-0.971v-0.002
			c1.399-0.372,2.101-1.473,2.101-3.306v-7.184c0-1.783,0.402-3.072,1.204-3.861c0.803-0.79,2.12-1.187,3.952-1.187h0.168l0,0
			c0.575,0.004,0.729,0.47,0.729,1.045c0,0.577-0.154,0.719-0.729,0.723v0.013c-1.375,0.027-2.305,0.259-2.783,0.702
			c-0.479,0.439-0.718,1.296-0.718,2.567v7.322c0,0.826-0.108,1.587-0.324,2.279c-0.249,0.781-0.892,1.428-1.922,1.939
			c0.827,0.442,1.406,0.982,1.742,1.614c0.334,0.636,0.502,1.535,0.502,2.695v7.051c0,1.366,0.228,2.274,0.682,2.722
			c0.455,0.452,1.394,0.682,2.819,0.693v0.016C20.882,53.009,21.018,53.137,21.018,53.694z"/>
		<path fill="#B1D9AD" d="M59.119,52.994v-0.016c1.425-0.012,2.364-0.241,2.819-0.691c0.454-0.449,0.684-1.357,0.684-2.722v-7.053
			c0-1.16,0.168-2.06,0.503-2.695c0.334-0.632,0.915-1.17,1.741-1.614c-1.03-0.514-1.671-1.16-1.924-1.939
			c-0.216-0.694-0.322-1.453-0.322-2.279v-7.322c0-1.271-0.241-2.127-0.72-2.567c-0.479-0.445-1.405-0.677-2.783-0.702V23.38
			c-0.576-0.004-1.04-0.146-1.04-0.721c0-0.577,0.464-1.042,1.04-1.047l0,0h0.168c1.833,0,3.149,0.395,3.951,1.187
			c0.802,0.789,1.202,2.078,1.202,3.861v7.185c0,1.832,0.7,2.932,2.102,3.305v0.002c0.382,0.158,0.648,0.534,0.648,0.971
			c0,0.442-0.279,0.818-0.666,0.971c-0.768,0.229-1.307,0.604-1.617,1.115c-0.311,0.522-0.467,1.316-0.467,2.38v6.734
			c0,1.977-0.39,3.374-1.166,4.2c-0.779,0.83-2.107,1.239-3.987,1.239c-0.239,0,0.131-0.011-0.168-0.036v-0.008
			c-0.556-0.014-1.002-0.462-1.002-1.021S58.565,53.009,59.119,52.994z"/>
		<path fill="#FFFFFF" d="M34.645,34.979c1.089,0,2.021-0.379,2.792-1.141c0.771-0.761,1.154-1.676,1.154-2.745
			c0-1.062-0.386-1.972-1.158-2.729c-0.773-0.756-1.701-1.134-2.788-1.134c-1.085,0-2.013,0.376-2.779,1.128
			c-0.768,0.756-1.153,1.67-1.153,2.735c0,1.069,0.383,1.984,1.153,2.745C32.632,34.6,33.56,34.979,34.645,34.979z M33.06,29.507
			c0.436-0.44,0.964-0.662,1.585-0.662c0.626,0,1.154,0.217,1.59,0.658c0.434,0.441,0.651,0.969,0.651,1.592
			c0,0.632-0.217,1.168-0.651,1.605c-0.434,0.439-0.963,0.66-1.59,0.66c-0.621,0-1.149-0.221-1.585-0.66
			c-0.438-0.439-0.654-0.97-0.654-1.592C32.406,30.481,32.623,29.949,33.06,29.507z M53.651,28.945c1.073,0,1.775,0.477,2.022,1.36
			h-4.01C51.98,29.422,52.671,28.945,53.651,28.945z M56.365,42.72c-0.71-0.738-1.582-1.108-2.615-1.108
			c-0.737,0-1.387,0.201-1.947,0.595c-0.139,0.108-0.256,0.2-0.353,0.281v-2.637l0,0c0-0.475-0.383-0.859-0.857-0.859
			s-0.86,0.383-0.86,0.859v8.711l0,0c0.002,0.445,0.362,0.803,0.805,0.803c0.445,0,0.803-0.359,0.805-0.803h0.008v-0.235
			c0.354,0.382,0.752,0.656,1.194,0.811c0.4,0.148,0.813,0.224,1.235,0.224c1.03,0,1.896-0.374,2.598-1.127
			c0.702-0.753,1.052-1.676,1.052-2.772C57.427,44.372,57.075,43.461,56.365,42.72z M55.012,47.017
			c-0.405,0.413-0.907,0.62-1.513,0.62c-0.6,0-1.104-0.201-1.509-0.604c-0.407-0.401-0.611-0.903-0.611-1.502
			c0-0.652,0.198-1.182,0.59-1.593c0.391-0.407,0.903-0.614,1.53-0.614c0.599,0,1.102,0.207,1.508,0.616
			c0.407,0.413,0.61,0.923,0.61,1.531C55.617,46.09,55.416,46.6,55.012,47.017z M46.565,42.493v6.068l0,0
			c-0.002,0.443-0.367,0.801-0.822,0.801c-0.453,0-0.82-0.363-0.82-0.805c0-0.031,0.006-0.059,0.008-0.085v-0.334
			c-0.151,0.198-0.271,0.346-0.358,0.441c-0.479,0.52-1.164,0.782-2.06,0.782c-0.591,0-1.126-0.125-1.609-0.376
			c-0.48-0.255-0.834-0.591-1.06-1.012c-0.2-0.373-0.322-0.832-0.366-1.375c-0.015-0.186-0.023-0.664-0.023-1.435v-2.67
			c0-0.004,0-0.004,0-0.004c0-0.473,0.393-0.856,0.875-0.856c0.482,0,0.875,0.382,0.875,0.856c0,0.051-0.006,0.097-0.014,0.144
			v2.528c0,0.502,0.004,0.806,0.014,0.913c0,0.35,0.067,0.66,0.198,0.94c0.224,0.482,0.694,0.726,1.408,0.726
			c1.335,0,2.001-0.86,2.001-2.579v-2.676l0,0c0-0.471,0.391-0.856,0.874-0.856C46.174,41.639,46.565,42.021,46.565,42.493z
			 M47.058,24.705c-0.464,0-0.842,0.38-0.842,0.85l0,0v2.553c-0.407-0.352-0.809-0.589-1.206-0.718
			c-0.33-0.109-0.687-0.158-1.066-0.158c-1.03,0-1.894,0.368-2.59,1.105c-0.696,0.737-1.043,1.654-1.043,2.745
			c0,1.098,0.346,2.021,1.04,2.772c0.694,0.753,1.542,1.126,2.552,1.126c0.838,0,1.53-0.233,2.08-0.701
			c0.126-0.111,0.233-0.22,0.32-0.328v0.17h0.008l0,0c0,0.444,0.356,0.805,0.793,0.805c0.438,0,0.795-0.362,0.795-0.805l0,0l0,0
			v-8.564l0,0C47.898,25.087,47.522,24.705,47.058,24.705z M45.676,32.642c-0.398,0.409-0.896,0.617-1.496,0.617
			c-0.582,0-1.075-0.206-1.477-0.617c-0.401-0.413-0.604-0.919-0.604-1.516c0-0.619,0.202-1.135,0.602-1.554
			c0.398-0.415,0.893-0.625,1.481-0.625c0.619,0,1.123,0.204,1.511,0.606c0.388,0.401,0.583,0.922,0.583,1.559
			C46.273,31.721,46.076,32.232,45.676,32.642z M37.318,48.318c0,0.432-0.353,0.781-0.783,0.781h-4.332
			c-0.431,0-0.783-0.354-0.783-0.781c0-0.433,0.35-0.784,0.783-0.784c0.012,0,1.327,0,1.327,0v-6.662h-1.327v-0.008
			c-0.431,0-0.783-0.354-0.783-0.782c0-0.433,0.35-0.783,0.783-0.783h2.246c0.433,0,0.783,0.351,0.783,0.783
			c0,0.012-0.002,0.023-0.004,0.035l0.002,0.002v7.417c0,0,1.292,0,1.303,0C36.965,47.534,37.318,47.884,37.318,48.318z
			 M24.332,43.896c-0.417,0.435-0.627,1.004-0.627,1.576c0,0.571,0.21,1.141,0.627,1.575c0.836,0.868,2.192,0.868,3.028,0
			c0.315-0.324,1.024-0.324,1.36,0c0.338,0.324,0.338,0.854,0,1.178c-0.785,0.757-1.817,1.139-2.849,1.139s-2.064-0.382-2.849-1.139
			c-1.571-1.518-1.571-3.989,0-5.506c1.572-1.516,4.127-1.518,5.699,0c0.338,0.328,0.338,0.854,0,1.179
			c-0.334,0.325-1.045,0.325-1.36,0C26.526,43.028,25.168,43.028,24.332,43.896z M24.306,29.517
			c-0.413,0.435-0.619,1.005-0.619,1.576c0,0.568,0.206,1.14,0.619,1.575c0.827,0.868,2.173,0.868,3,0
			c0.308-0.326,1.013-0.326,1.346,0c0.332,0.324,0.332,0.853,0,1.177c-0.779,0.759-1.799,1.136-2.821,1.136s-2.042-0.377-2.82-1.136
			c-1.556-1.519-1.556-3.987,0-5.504c1.555-1.517,4.086-1.519,5.642,0c0.332,0.324,0.332,0.852,0,1.178
			c-0.333,0.324-1.039,0.324-1.346,0C26.479,28.646,25.134,28.646,24.306,29.517z M56.954,33.911c0.346-0.336,0.346-0.881,0-1.217
			c-0.344-0.339-0.979-0.339-1.299,0l0.002-0.004c-0.411,0.364-0.982,0.553-1.484,0.566c-0.018,0-0.257,0-0.274,0
			c-0.594,0-1.094-0.136-1.497-0.411c-0.405-0.272-0.656-0.66-0.751-1.125h4.857c0.541,0,0.982-0.452,0.982-1.008
			c0-0.025-0.004-0.048-0.006-0.071c0-0.006,0.006-0.013,0.006-0.017c-0.109-0.889-0.455-1.622-1.043-2.245
			c-0.719-0.769-1.624-1.15-2.718-1.15c-1.069,0-1.975,0.378-2.741,1.136c-0.768,0.76-1.15,1.683-1.15,2.771
			c0,1.111,0.371,2.028,1.11,2.754c0.741,0.728,1.681,1.089,2.821,1.089c0.002,0,0.006,0,0.01,0c0.08,0,0.359,0,0.368,0
			c1.02,0,2.04-0.363,2.834-1.094L56.954,33.911z"/>
	</g>
	<g>
		<path fill="#36A549" d="M89.064,30.562c0-0.609,0.314-0.947,0.922-0.947h1.037c0.605,0,0.923,0.338,0.923,0.947v14.086
			c0,0.631-0.317,0.947-0.923,0.947h-1.037c-0.607,0-0.922-0.316-0.922-0.947V30.562z"/>
		<path fill="#36A549" d="M95.633,30.562c0-0.609,0.317-0.947,0.923-0.947h4.321c1.575,0,2.362,0.135,3.038,0.429
			c1.618,0.675,2.676,2.205,2.676,4.365c0,1.89-0.988,3.689-2.654,4.365v0.043c0,0,0.203,0.249,0.52,0.834l2.633,4.817
			c0.381,0.652,0.089,1.123-0.652,1.123h-1.216c-0.518,0-0.857-0.202-1.104-0.652l-2.811-5.311h-2.792v5.018
			c0,0.629-0.316,0.945-0.923,0.945h-1.035c-0.605,0-0.923-0.312-0.923-0.945V30.562z M101.124,37.112
			c1.552,0,2.521-0.97,2.521-2.545c0-1.013-0.383-1.822-1.263-2.183c-0.381-0.18-0.877-0.27-1.73-0.27h-2.139v4.995h2.61V37.112z"/>
		<path fill="#36A549" d="M109.719,30.562c0-0.609,0.312-0.947,0.919-0.947h7.697c0.607,0,0.943,0.338,0.943,0.947v0.629
			c0,0.608-0.336,0.924-0.943,0.924h-5.736v4.184h4.452c0.61,0,0.948,0.315,0.948,0.924v0.629c0,0.63-0.338,0.947-0.948,0.947
			h-4.452v4.297h6.097c0.608,0,0.944,0.314,0.944,0.923v0.63c0,0.631-0.336,0.947-0.944,0.947h-8.058
			c-0.606,0-0.919-0.316-0.919-0.947V30.562z"/>
		<path fill="#36A549" d="M122.248,30.562c0-0.609,0.312-0.947,0.919-0.947h1.038c0.606,0,0.923,0.338,0.923,0.947v12.533h5.962
			c0.629,0,0.946,0.314,0.946,0.923v0.63c0,0.631-0.317,0.947-0.946,0.947h-7.923c-0.606,0-0.919-0.316-0.919-0.947V30.562z"/>
		<path fill="#36A549" d="M137.48,30.38c0.177-0.517,0.517-0.765,1.058-0.765h1.44c0.54,0,0.899,0.248,1.058,0.765l4.996,14.131
			c0.224,0.654-0.069,1.081-0.767,1.081h-1.036c-0.539,0-0.899-0.247-1.059-0.765l-1.123-3.332h-5.603l-1.104,3.31
			c-0.158,0.54-0.518,0.787-1.058,0.787h-1.033c-0.697,0-0.99-0.429-0.765-1.083L137.48,30.38z M141.327,39.137l-1.417-4.276
			c-0.271-0.9-0.631-2.476-0.631-2.476h-0.043c0,0-0.358,1.575-0.631,2.476l-1.442,4.276H141.327z"/>
		<path fill="#36A549" d="M148.231,30.562c0-0.609,0.314-0.947,0.921-0.947h1.216c0.541,0,0.877,0.18,1.124,0.629l5.672,8.598
			c0.608,0.947,1.328,2.476,1.328,2.476h0.044c0,0-0.158-1.528-0.158-2.476v-8.279c0-0.609,0.338-0.947,0.944-0.947h1.014
			c0.608,0,0.944,0.338,0.944,0.947v14.086c0,0.631-0.336,0.947-0.944,0.947h-1.217c-0.494,0-0.854-0.182-1.102-0.629l-5.695-8.575
			c-0.583-0.946-1.328-2.477-1.328-2.477h-0.041c0,0,0.158,1.53,0.158,2.477v8.259c0,0.629-0.316,0.945-0.923,0.945h-1.034
			c-0.606,0-0.921-0.312-0.921-0.945V30.562H148.231z"/>
		<path fill="#36A549" d="M164.948,30.562c0-0.609,0.314-0.947,0.921-0.947h4.523c4.928,0,8.146,2.924,8.146,7.965
			c0,5.043-3.217,8.012-8.146,8.012h-4.523c-0.606,0-0.921-0.312-0.921-0.945V30.562z M170.235,43.096
			c3.242,0,5.312-1.913,5.312-5.514c0-3.554-2.114-5.467-5.312-5.467h-2.407v10.98H170.235z"/>
	</g>
</g>
</svg>
