<?xml version="1.0" encoding="utf-8"?>
<!-- Generator: Adobe Illustrator 16.0.0, SVG Export Plug-In . SVG Version: 6.00 Build 0)  -->
<!DOCTYPE svg PUBLIC "-//W3C//DTD SVG 1.1//EN" "http://www.w3.org/Graphics/SVG/1.1/DTD/svg11.dtd">
<svg version="1.1" id="Layer_1" xmlns="http://www.w3.org/2000/svg" xmlns:xlink="http://www.w3.org/1999/xlink" x="0px" y="0px"
	 width="323.25px" height="124px" viewBox="0 0 323.25 124" enable-background="new 0 0 323.25 124" xml:space="preserve">
<g>
	<rect x="20.25" y="1" fill="none" stroke="#CCCBCB" stroke-miterlimit="10" width="104" height="108"/>
	<line fill="none" stroke="#000000" stroke-miterlimit="10" x1="126.75" y1="43" x2="21.75" y2="43"/>
	<g>
		<path fill="#339847" d="M109.236,42.863c0,19.233-15.594,34.823-34.824,34.823c-19.232,0-34.823-15.59-34.823-34.823
			c0-19.234,15.591-34.824,34.823-34.824C93.642,8.039,109.236,23.629,109.236,42.863z"/>
		<path fill="#B1D9AD" d="M57.039,56.979c0,0.518-0.128,0.936-0.643,0.95v0.008c-0.276,0.022,0.065,0.032-0.156,0.032
			c-1.746,0-2.979-0.381-3.702-1.151c-0.723-0.766-1.083-2.067-1.083-3.902V46.66c0-0.987-0.146-1.725-0.436-2.21
			c-0.289-0.477-0.789-0.823-1.501-1.035c-0.36-0.144-0.619-0.493-0.619-0.904c0-0.407,0.25-0.755,0.601-0.901v-0.002
			c1.302-0.345,1.955-1.368,1.955-3.07v-6.67c0-1.659,0.369-2.853,1.118-3.588c0.744-0.733,1.968-1.101,3.668-1.101h0.156l0,0
			c0.533,0.003,0.678,0.437,0.678,0.97c0,0.534-0.146,0.668-0.678,0.674v0.011c-1.278,0.021-2.14,0.239-2.584,0.651
			c-0.446,0.411-0.666,1.207-0.666,2.385v6.8c0,0.768-0.102,1.474-0.302,2.118c-0.233,0.724-0.829,1.325-1.784,1.804
			c0.766,0.409,1.306,0.911,1.616,1.501c0.311,0.587,0.47,1.423,0.47,2.5v6.552c0,1.27,0.208,2.11,0.632,2.526
			c0.421,0.418,1.295,0.633,2.619,0.642v0.015C56.911,56.342,57.039,56.461,57.039,56.979z"/>
		<path fill="#B1D9AD" d="M92.425,56.328v-0.015c1.324-0.008,2.196-0.224,2.618-0.642c0.424-0.416,0.635-1.256,0.635-2.526v-6.552
			c0-1.077,0.156-1.913,0.467-2.5c0.31-0.59,0.85-1.089,1.618-1.501c-0.958-0.479-1.552-1.08-1.786-1.804
			c-0.2-0.644-0.299-1.35-0.299-2.118v-6.8c0-1.178-0.222-1.974-0.668-2.385c-0.442-0.412-1.306-0.629-2.584-0.651v-0.011
			c-0.533-0.006-0.966-0.14-0.966-0.672c0-0.535,0.433-0.968,0.966-0.972l0,0h0.155c1.701,0,2.925,0.368,3.671,1.101
			c0.744,0.735,1.117,1.929,1.117,3.588v6.67c0,1.702,0.651,2.725,1.953,3.07v0.002c0.351,0.146,0.6,0.495,0.6,0.901
			c0,0.411-0.258,0.76-0.618,0.904c-0.712,0.211-1.213,0.558-1.502,1.035c-0.289,0.486-0.433,1.223-0.433,2.21v6.256
			c0,1.834-0.362,3.136-1.086,3.902c-0.723,0.77-1.956,1.151-3.703,1.151c-0.221,0,0.12-0.009-0.155-0.032v-0.008
			c-0.515-0.014-0.93-0.432-0.93-0.95C91.495,56.461,91.91,56.342,92.425,56.328z"/>
		<path fill="#FFFFFF" d="M69.693,39.599c1.013,0,1.878-0.354,2.592-1.061c0.716-0.707,1.074-1.557,1.074-2.549
			c0-0.986-0.36-1.831-1.077-2.534c-0.719-0.702-1.581-1.054-2.589-1.054c-1.006,0-1.868,0.352-2.582,1.051
			c-0.712,0.701-1.067,1.547-1.067,2.537c0,0.993,0.355,1.843,1.067,2.549C67.825,39.245,68.687,39.599,69.693,39.599z
			 M68.223,34.515c0.405-0.409,0.896-0.615,1.471-0.615c0.583,0,1.072,0.203,1.476,0.612c0.404,0.409,0.606,0.9,0.606,1.478
			c0,0.588-0.202,1.086-0.606,1.492c-0.404,0.409-0.893,0.613-1.476,0.613c-0.575,0-1.066-0.205-1.471-0.613
			c-0.406-0.405-0.61-0.9-0.61-1.478C67.613,35.422,67.816,34.927,68.223,34.515z M87.346,33.995c0.998,0,1.649,0.443,1.877,1.261
			h-3.722C85.795,34.438,86.434,33.995,87.346,33.995z M89.867,46.786c-0.657-0.687-1.469-1.029-2.428-1.029
			c-0.687,0-1.289,0.185-1.809,0.552c-0.129,0.099-0.238,0.187-0.327,0.262v-2.45l0,0c0-0.441-0.358-0.797-0.799-0.797
			c-0.439,0-0.795,0.356-0.795,0.797v8.09l0,0c0,0.412,0.335,0.746,0.746,0.746c0.413,0,0.746-0.334,0.748-0.746h0.008v-0.217
			c0.329,0.356,0.695,0.608,1.109,0.753c0.371,0.138,0.754,0.208,1.145,0.208c0.957,0,1.762-0.348,2.412-1.048
			c0.653-0.698,0.977-1.555,0.977-2.575C90.853,48.322,90.524,47.474,89.867,46.786z M88.609,50.777
			c-0.377,0.384-0.844,0.578-1.404,0.578c-0.558,0-1.024-0.187-1.403-0.561c-0.377-0.373-0.567-0.837-0.567-1.393
			c0-0.604,0.184-1.098,0.549-1.479c0.365-0.379,0.838-0.571,1.421-0.571c0.556,0,1.022,0.192,1.401,0.576
			c0.376,0.38,0.566,0.854,0.566,1.42C89.173,49.916,88.985,50.394,88.609,50.777z M80.766,46.578v5.633h-0.001
			c-0.003,0.412-0.341,0.746-0.763,0.746c-0.419,0-0.762-0.337-0.762-0.75c0-0.026,0.004-0.051,0.007-0.077V51.82
			c-0.141,0.185-0.252,0.319-0.333,0.409c-0.445,0.484-1.081,0.728-1.911,0.728c-0.549,0-1.047-0.119-1.494-0.351
			c-0.447-0.235-0.776-0.545-0.984-0.937c-0.186-0.35-0.3-0.772-0.34-1.276c-0.014-0.172-0.021-0.617-0.021-1.334V46.58v-0.001
			c0-0.441,0.363-0.796,0.812-0.796c0.449,0,0.814,0.355,0.814,0.796c0,0.044-0.006,0.087-0.013,0.131v2.35
			c0,0.467,0.004,0.75,0.013,0.849c0,0.325,0.062,0.615,0.184,0.873c0.208,0.448,0.644,0.676,1.308,0.676
			c1.238,0,1.859-0.801,1.859-2.397v-2.481l0,0c0-0.441,0.363-0.796,0.812-0.796C80.401,45.782,80.766,46.137,80.766,46.578z
			 M81.223,30.056c-0.433,0-0.783,0.353-0.783,0.789l0,0v2.371c-0.378-0.327-0.75-0.547-1.12-0.667
			c-0.307-0.099-0.637-0.147-0.989-0.147c-0.957,0-1.758,0.342-2.405,1.027s-0.97,1.535-0.97,2.55c0,1.018,0.322,1.875,0.966,2.575
			c0.643,0.699,1.432,1.046,2.371,1.046c0.778,0,1.419-0.218,1.932-0.654c0.118-0.103,0.215-0.203,0.295-0.305v0.158h0.006V38.8
			c0,0.411,0.331,0.746,0.739,0.746c0.406,0,0.739-0.335,0.739-0.746v-0.001l0,0v-7.954l0,0
			C82.004,30.409,81.653,30.056,81.223,30.056z M79.938,37.428c-0.366,0.38-0.832,0.57-1.389,0.57c-0.54,0-0.998-0.19-1.372-0.574
			c-0.374-0.384-0.56-0.854-0.56-1.408c0-0.575,0.187-1.054,0.558-1.441c0.372-0.387,0.827-0.581,1.374-0.581
			c0.575,0,1.042,0.187,1.403,0.561c0.36,0.373,0.542,0.855,0.542,1.447C80.495,36.571,80.308,37.048,79.938,37.428z M72.176,51.986
			c0,0.401-0.327,0.728-0.728,0.728h-4.022c-0.402,0-0.725-0.326-0.725-0.728c0-0.403,0.323-0.727,0.725-0.727
			c0.012,0,1.231,0,1.231,0V45.07h-1.231v-0.007c-0.402,0-0.725-0.327-0.725-0.728c0-0.402,0.323-0.728,0.725-0.728h2.088
			c0.401,0,0.725,0.326,0.725,0.728c0,0.011-0.001,0.023-0.001,0.032l0.001,0.001v6.891c0,0,1.2,0,1.209,0
			C71.85,51.259,72.176,51.583,72.176,51.986z M60.117,47.881c-0.388,0.402-0.583,0.931-0.583,1.461s0.195,1.06,0.583,1.463
			c0.775,0.809,2.036,0.809,2.811,0c0.29-0.301,0.95-0.301,1.263,0s0.313,0.792,0,1.094c-0.727,0.703-1.689,1.058-2.646,1.058
			c-0.959,0-1.917-0.354-2.648-1.058c-1.458-1.409-1.458-3.703,0-5.114c1.46-1.407,3.836-1.407,5.294,0
			c0.313,0.304,0.313,0.793,0,1.096c-0.311,0.3-0.973,0.3-1.263,0C62.153,47.073,60.893,47.073,60.117,47.881z M60.092,34.525
			c-0.383,0.403-0.576,0.931-0.576,1.461c0,0.529,0.193,1.06,0.576,1.463c0.768,0.809,2.018,0.809,2.785,0
			c0.288-0.301,0.94-0.301,1.251,0c0.308,0.303,0.308,0.791,0,1.092c-0.723,0.707-1.671,1.058-2.621,1.058
			c-0.948,0-1.898-0.351-2.619-1.058c-1.444-1.407-1.444-3.702,0-5.109c1.444-1.41,3.795-1.41,5.24,0
			c0.311,0.301,0.311,0.788,0,1.093c-0.308,0.3-0.963,0.3-1.251,0C62.11,33.717,60.86,33.717,60.092,34.525z M90.414,38.606
			c0.321-0.312,0.321-0.819,0-1.132c-0.32-0.313-0.909-0.313-1.207,0l0.003-0.003c-0.384,0.339-0.914,0.514-1.381,0.527
			c-0.016,0-0.238,0-0.253,0c-0.551,0-1.016-0.127-1.39-0.382c-0.376-0.253-0.61-0.613-0.699-1.045h4.512
			c0.503,0,0.912-0.418,0.912-0.936c0-0.021-0.004-0.043-0.004-0.064c0-0.007,0.004-0.013,0.004-0.016
			c-0.101-0.826-0.424-1.506-0.968-2.087c-0.667-0.712-1.508-1.067-2.524-1.067c-0.993,0-1.834,0.353-2.546,1.056
			c-0.712,0.705-1.068,1.562-1.068,2.572c0,1.033,0.345,1.885,1.032,2.559c0.687,0.674,1.56,1.011,2.619,1.011
			c0.001,0,0.004,0,0.009,0c0.073,0,0.333,0,0.34,0c0.948,0,1.896-0.338,2.632-1.016L90.414,38.606z"/>
	</g>
	<g>
		<path fill="#36A549" d="M14.811,88.039c0-0.376,0.195-0.585,0.571-0.585h0.627c0.39,0,0.585,0.209,0.585,0.585v5.74
			c0,1.337,0.864,2.09,2.188,2.09c1.323,0,2.201-0.752,2.201-2.09v-5.74c0-0.376,0.195-0.585,0.571-0.585h0.641
			c0.376,0,0.571,0.209,0.571,0.585v5.754c0,2.215-1.588,3.719-3.971,3.719c-2.396,0-3.984-1.504-3.984-3.719V88.039z"/>
		<path fill="#36A549" d="M24.938,88.039c0-0.376,0.195-0.585,0.571-0.585h0.752c0.334,0,0.543,0.111,0.697,0.39l3.51,5.322
			c0.376,0.585,0.822,1.532,0.822,1.532h0.028c0,0-0.098-0.947-0.098-1.532v-5.127c0-0.376,0.209-0.585,0.585-0.585h0.627
			c0.376,0,0.585,0.209,0.585,0.585v8.721c0,0.39-0.209,0.585-0.585,0.585H31.68c-0.307,0-0.53-0.111-0.683-0.39l-3.525-5.308
			c-0.362-0.585-0.822-1.533-0.822-1.533h-0.028c0,0,0.098,0.947,0.098,1.533v5.113c0,0.39-0.195,0.585-0.571,0.585h-0.641
			c-0.376,0-0.571-0.195-0.571-0.585V88.039z"/>
		<path fill="#36A549" d="M35.287,88.039c0-0.376,0.195-0.585,0.571-0.585h0.641c0.376,0,0.571,0.209,0.571,0.585v8.721
			c0,0.39-0.195,0.585-0.571,0.585h-0.641c-0.376,0-0.571-0.195-0.571-0.585V88.039z"/>
		<path fill="#36A549" d="M41.542,89h-2.661c-0.39,0-0.585-0.195-0.585-0.571v-0.39c0-0.376,0.195-0.585,0.585-0.585h7.104
			c0.376,0,0.571,0.209,0.571,0.585v0.39c0,0.376-0.195,0.571-0.571,0.571h-2.661v7.76c0,0.39-0.195,0.585-0.585,0.585h-0.627
			c-0.376,0-0.571-0.195-0.571-0.585V89z"/>
		<path fill="#36A549" d="M47.782,88.039c0-0.376,0.195-0.585,0.571-0.585h4.765c0.376,0,0.585,0.209,0.585,0.585v0.39
			c0,0.376-0.209,0.571-0.585,0.571h-3.552v2.591h2.758c0.376,0,0.585,0.195,0.585,0.571v0.39c0,0.39-0.209,0.585-0.585,0.585
			h-2.758v2.661h3.775c0.376,0,0.585,0.195,0.585,0.571v0.39c0,0.39-0.209,0.585-0.585,0.585h-4.988
			c-0.376,0-0.571-0.195-0.571-0.585V88.039z"/>
		<path fill="#36A549" d="M55.54,88.039c0-0.376,0.195-0.585,0.571-0.585h2.8c3.051,0,5.043,1.811,5.043,4.932
			s-1.992,4.959-5.043,4.959h-2.8c-0.376,0-0.571-0.195-0.571-0.585V88.039z M58.813,95.798c2.006,0,3.288-1.184,3.288-3.413
			c0-2.201-1.31-3.385-3.288-3.385h-1.49v6.798H58.813z"/>
		<path fill="#36A549" d="M69.163,88.039c0-0.376,0.195-0.585,0.571-0.585h0.641c0.376,0,0.571,0.209,0.571,0.585v3.441h1.295
			l2.09-3.622c0.153-0.278,0.362-0.404,0.683-0.404h0.683c0.459,0,0.627,0.306,0.404,0.696l-2.396,4.012v0.028l2.577,4.458
			c0.237,0.404,0.056,0.697-0.404,0.697h-0.767c-0.32,0-0.529-0.125-0.683-0.404l-2.187-3.915h-1.295v3.734
			c0,0.39-0.195,0.585-0.571,0.585h-0.641c-0.376,0-0.571-0.195-0.571-0.585V88.039z"/>
		<path fill="#36A549" d="M77.911,88.039c0-0.376,0.195-0.585,0.571-0.585h0.641c0.376,0,0.571,0.209,0.571,0.585v8.721
			c0,0.39-0.195,0.585-0.571,0.585h-0.641c-0.376,0-0.571-0.195-0.571-0.585V88.039z"/>
		<path fill="#36A549" d="M81.978,88.039c0-0.376,0.195-0.585,0.571-0.585h0.752c0.334,0,0.543,0.111,0.697,0.39l3.51,5.322
			c0.376,0.585,0.822,1.532,0.822,1.532h0.028c0,0-0.098-0.947-0.098-1.532v-5.127c0-0.376,0.209-0.585,0.585-0.585h0.627
			c0.376,0,0.585,0.209,0.585,0.585v8.721c0,0.39-0.209,0.585-0.585,0.585h-0.752c-0.307,0-0.529-0.111-0.683-0.39l-3.525-5.308
			c-0.362-0.585-0.822-1.533-0.822-1.533h-0.028c0,0,0.098,0.947,0.098,1.533v5.113c0,0.39-0.195,0.585-0.571,0.585h-0.641
			c-0.376,0-0.571-0.195-0.571-0.585V88.039z"/>
		<path fill="#36A549" d="M96.855,87.286c1.63,0,2.814,0.613,3.232,0.906c0.307,0.237,0.334,0.488,0.125,0.808l-0.25,0.39
			c-0.209,0.32-0.46,0.348-0.808,0.153c-0.432-0.25-1.143-0.613-2.201-0.613c-2.159,0-3.357,1.561-3.357,3.427
			c0,2.076,1.463,3.511,3.302,3.511c1.658,0,2.507-1.087,2.507-1.087v-1.101h-0.947c-0.376,0-0.585-0.209-0.585-0.585V92.72
			c0-0.39,0.209-0.585,0.585-0.585h1.979c0.376,0,0.571,0.195,0.571,0.585v4.04c0,0.39-0.195,0.585-0.571,0.585h-0.349
			c-0.376,0-0.571-0.195-0.571-0.474v-0.237c0-0.125,0.014-0.237,0.014-0.237h-0.028c0,0-0.989,1.114-2.897,1.114
			c-2.619,0-4.862-2.048-4.862-5.071C91.742,89.487,93.902,87.286,96.855,87.286z"/>
		<path fill="#36A549" d="M102.83,88.039c0-0.376,0.195-0.585,0.571-0.585h2.8c3.051,0,5.043,1.811,5.043,4.932
			s-1.992,4.959-5.043,4.959h-2.8c-0.376,0-0.571-0.195-0.571-0.585V88.039z M106.104,95.798c2.006,0,3.288-1.184,3.288-3.413
			c0-2.201-1.31-3.385-3.288-3.385h-1.49v6.798H106.104z"/>
		<path fill="#36A549" d="M117.498,87.286c2.995,0,5.113,2.215,5.113,5.043c0,2.912-2.118,5.182-5.113,5.182
			s-5.113-2.271-5.113-5.182C112.385,89.501,114.503,87.286,117.498,87.286z M117.498,95.868c1.895,0,3.26-1.533,3.26-3.539
			c0-1.923-1.366-3.399-3.26-3.399s-3.26,1.477-3.26,3.399C114.238,94.335,115.604,95.868,117.498,95.868z"/>
		<path fill="#36A549" d="M124.699,88.011c0.042-0.362,0.237-0.557,0.599-0.557h0.878c0.334,0,0.543,0.153,0.655,0.474l1.769,4.416
			c0.223,0.585,0.501,1.449,0.501,1.449h0.028c0,0,0.265-0.864,0.488-1.449l1.769-4.416c0.112-0.32,0.321-0.474,0.669-0.474h0.864
			c0.362,0,0.571,0.195,0.599,0.557l0.71,8.735c0.028,0.376-0.167,0.599-0.557,0.599h-0.627c-0.362,0-0.571-0.195-0.599-0.557
			l-0.376-4.974c-0.042-0.655-0.014-1.532-0.014-1.532h-0.028c0,0-0.307,0.961-0.529,1.532l-1.435,3.372
			c-0.111,0.306-0.32,0.459-0.655,0.459h-0.585c-0.349,0-0.558-0.153-0.669-0.459l-1.421-3.372
			c-0.223-0.571-0.543-1.546-0.543-1.546h-0.028c0,0,0.028,0.892-0.014,1.546l-0.376,4.974c-0.028,0.362-0.223,0.557-0.599,0.557
			h-0.627c-0.39,0-0.585-0.223-0.558-0.599L124.699,88.011z"/>
	</g>
	<rect x="219.25" y="1" fill="none" stroke="#CCCBCB" stroke-miterlimit="10" width="104" height="123"/>
	<g>
		<path fill="#339847" d="M307.73,41.703c0,19.232-15.594,34.824-34.823,34.824c-19.233,0-34.824-15.592-34.824-34.824
			c0-19.233,15.591-34.823,34.824-34.823C292.136,6.879,307.73,22.47,307.73,41.703z"/>
		<path fill="#B1D9AD" d="M255.533,55.817c0,0.52-0.127,0.938-0.642,0.95v0.009c-0.276,0.022,0.065,0.033-0.156,0.033
			c-1.747,0-2.979-0.384-3.703-1.151s-1.084-2.069-1.084-3.901V45.5c0-0.988-0.145-1.725-0.435-2.211
			c-0.289-0.479-0.79-0.823-1.502-1.036c-0.36-0.144-0.618-0.492-0.618-0.902c0-0.409,0.249-0.755,0.6-0.902v-0.003
			c1.302-0.344,1.955-1.368,1.955-3.069v-6.67c0-1.657,0.37-2.851,1.118-3.586c0.744-0.735,1.968-1.103,3.669-1.103h0.156v0.002
			c0.532,0.003,0.677,0.438,0.677,0.97c0,0.535-0.145,0.669-0.677,0.673v0.01c-1.278,0.023-2.141,0.24-2.585,0.651
			c-0.447,0.411-0.667,1.207-0.667,2.387v6.801c0,0.766-0.102,1.474-0.302,2.117c-0.233,0.723-0.829,1.324-1.784,1.802
			c0.767,0.411,1.306,0.913,1.617,1.501c0.311,0.59,0.469,1.423,0.469,2.503v6.552c0,1.268,0.208,2.108,0.632,2.526
			c0.422,0.417,1.295,0.631,2.619,0.642v0.013C255.406,55.181,255.533,55.301,255.533,55.817z"/>
		<path fill="#B1D9AD" d="M290.919,55.167v-0.013c1.324-0.011,2.197-0.224,2.619-0.642c0.424-0.418,0.635-1.259,0.635-2.526v-6.552
			c0-1.08,0.156-1.913,0.467-2.503c0.31-0.588,0.85-1.089,1.62-1.501c-0.959-0.479-1.554-1.079-1.787-1.802
			c-0.2-0.644-0.299-1.352-0.299-2.117V30.71c0-1.18-0.223-1.976-0.669-2.387c-0.442-0.411-1.306-0.627-2.584-0.651v-0.01
			c-0.532-0.004-0.966-0.138-0.966-0.673c0-0.532,0.434-0.966,0.966-0.97v-0.002h0.157c1.699,0,2.924,0.368,3.67,1.103
			c0.743,0.735,1.118,1.929,1.118,3.586v6.67c0,1.702,0.65,2.725,1.952,3.069v0.003c0.352,0.147,0.601,0.493,0.601,0.902
			c0,0.41-0.258,0.758-0.619,0.902c-0.711,0.213-1.212,0.558-1.5,1.036c-0.291,0.486-0.433,1.223-0.433,2.211v6.256
			c0,1.832-0.363,3.134-1.086,3.901s-1.956,1.151-3.701,1.151c-0.223,0,0.12-0.011-0.157-0.033v-0.009
			c-0.515-0.012-0.93-0.431-0.93-0.95C289.989,55.301,290.404,55.181,290.919,55.167z"/>
		<path fill="#FFFFFF" d="M268.188,38.438c1.013,0,1.877-0.354,2.591-1.06c0.716-0.708,1.074-1.556,1.074-2.55
			c0-0.986-0.361-1.833-1.077-2.535c-0.719-0.703-1.58-1.053-2.589-1.053c-1.007,0-1.869,0.35-2.582,1.05
			c-0.712,0.702-1.068,1.546-1.068,2.537c0,0.994,0.356,1.842,1.068,2.55C266.32,38.084,267.181,38.438,268.188,38.438z
			 M266.717,33.354c0.406-0.41,0.896-0.615,1.472-0.615c0.582,0,1.072,0.202,1.476,0.611c0.404,0.407,0.606,0.9,0.606,1.477
			c0,0.588-0.202,1.086-0.606,1.492c-0.403,0.409-0.894,0.611-1.476,0.611c-0.576,0-1.065-0.203-1.472-0.611
			c-0.406-0.406-0.609-0.9-0.609-1.478C266.107,34.26,266.311,33.765,266.717,33.354z M285.84,32.833
			c0.998,0,1.649,0.445,1.878,1.261h-3.723C284.289,33.277,284.929,32.833,285.84,32.833z M288.361,45.626
			c-0.657-0.687-1.468-1.031-2.427-1.031c-0.687,0-1.288,0.185-1.809,0.554c-0.129,0.097-0.239,0.187-0.326,0.26v-2.448l0,0
			c0-0.442-0.359-0.798-0.798-0.798c-0.44,0-0.796,0.355-0.796,0.798v8.088l0,0c0,0.413,0.335,0.746,0.746,0.746
			c0.413,0,0.746-0.333,0.748-0.746h0.007v-0.215c0.329,0.357,0.696,0.608,1.109,0.753c0.371,0.138,0.755,0.208,1.145,0.208
			c0.957,0,1.762-0.348,2.412-1.049c0.654-0.698,0.977-1.556,0.977-2.575C289.347,47.163,289.019,46.314,288.361,45.626z
			 M287.103,49.616c-0.376,0.385-0.843,0.577-1.404,0.577c-0.558,0-1.024-0.184-1.403-0.56c-0.376-0.375-0.567-0.837-0.567-1.395
			c0-0.604,0.184-1.098,0.549-1.478s0.839-0.572,1.421-0.572c0.556,0,1.023,0.193,1.401,0.576c0.377,0.382,0.567,0.855,0.567,1.422
			C287.668,48.756,287.48,49.231,287.103,49.616z M279.261,45.416v5.633h-0.002c-0.003,0.413-0.34,0.746-0.762,0.746
			c-0.42,0-0.762-0.335-0.762-0.748c0-0.027,0.004-0.052,0.007-0.077v-0.31c-0.141,0.183-0.252,0.317-0.334,0.407
			c-0.443,0.484-1.081,0.728-1.911,0.728c-0.549,0-1.047-0.119-1.493-0.35c-0.446-0.235-0.775-0.547-0.984-0.938
			c-0.186-0.348-0.299-0.771-0.34-1.277c-0.014-0.172-0.021-0.616-0.021-1.332v-2.482v-0.001c0-0.439,0.363-0.796,0.811-0.796
			c0.449,0,0.814,0.356,0.814,0.796c0,0.045-0.006,0.088-0.013,0.131v2.353c0,0.464,0.004,0.75,0.013,0.848
			c0,0.323,0.062,0.613,0.184,0.871c0.209,0.45,0.644,0.676,1.308,0.676c1.238,0,1.86-0.799,1.86-2.396v-2.483l0,0
			c0-0.439,0.363-0.796,0.811-0.796C278.896,44.62,279.261,44.977,279.261,45.416z M279.717,28.894
			c-0.433,0-0.783,0.355-0.783,0.791l0,0v2.369c-0.378-0.324-0.75-0.544-1.12-0.665c-0.307-0.099-0.637-0.147-0.988-0.147
			c-0.957,0-1.759,0.341-2.406,1.027c-0.646,0.683-0.97,1.533-0.97,2.548c0,1.019,0.322,1.875,0.965,2.576
			c0.644,0.699,1.433,1.046,2.372,1.046c0.778,0,1.419-0.217,1.932-0.653c0.118-0.102,0.215-0.204,0.295-0.307v0.16h0.006l0,0
			c0,0.413,0.331,0.748,0.74,0.748c0.405,0,0.738-0.335,0.738-0.748l0,0l0,0v-7.954l0,0
			C280.499,29.249,280.147,28.894,279.717,28.894z M278.434,36.267c-0.367,0.38-0.832,0.57-1.39,0.57
			c-0.54,0-0.998-0.19-1.372-0.572c-0.374-0.384-0.56-0.854-0.56-1.409c0-0.574,0.186-1.054,0.558-1.441
			c0.371-0.386,0.827-0.582,1.373-0.582c0.576,0,1.043,0.188,1.403,0.562c0.361,0.375,0.542,0.857,0.542,1.449
			C278.989,35.411,278.803,35.888,278.434,36.267z M270.67,50.824c0,0.402-0.326,0.728-0.727,0.728h-4.022
			c-0.401,0-0.726-0.326-0.726-0.728s0.325-0.726,0.726-0.726c0.012,0,1.231,0,1.231,0v-6.189h-1.231v-0.007
			c-0.401,0-0.726-0.326-0.726-0.726c0-0.401,0.325-0.728,0.726-0.728h2.088c0.402,0,0.726,0.326,0.726,0.728
			c0,0.011-0.002,0.021-0.002,0.032h0.002v6.891c0,0,1.199,0,1.208,0C270.344,50.098,270.67,50.422,270.67,50.824z M258.612,46.719
			c-0.388,0.404-0.583,0.933-0.583,1.463s0.195,1.06,0.583,1.463c0.775,0.809,2.036,0.809,2.812,0c0.291-0.301,0.95-0.301,1.262,0
			c0.313,0.301,0.313,0.791,0,1.092c-0.727,0.705-1.689,1.058-2.646,1.058c-0.959,0-1.918-0.351-2.648-1.058
			c-1.458-1.409-1.458-3.701,0-5.112c1.46-1.41,3.836-1.41,5.294,0c0.313,0.303,0.313,0.792,0,1.093
			c-0.31,0.301-0.972,0.301-1.262,0C260.648,45.911,259.387,45.911,258.612,46.719z M258.586,33.363
			c-0.383,0.404-0.575,0.933-0.575,1.463c0,0.529,0.192,1.058,0.575,1.463c0.77,0.809,2.019,0.806,2.785,0
			c0.288-0.304,0.94-0.304,1.252,0c0.308,0.301,0.308,0.791,0,1.092c-0.724,0.707-1.671,1.056-2.622,1.056
			c-0.948,0-1.897-0.35-2.619-1.056c-1.444-1.408-1.444-3.703,0-5.11c1.444-1.411,3.796-1.411,5.241,0
			c0.31,0.301,0.31,0.789,0,1.092c-0.309,0.301-0.964,0.301-1.252,0C260.605,32.557,259.356,32.557,258.586,33.363z M288.908,37.446
			c0.322-0.312,0.322-0.819,0-1.133c-0.32-0.312-0.909-0.312-1.207,0l0.003-0.002c-0.383,0.339-0.914,0.515-1.381,0.525
			c-0.016,0-0.238,0-0.254,0c-0.551,0-1.016-0.125-1.39-0.38c-0.376-0.255-0.61-0.615-0.698-1.047h4.512
			c0.503,0,0.911-0.418,0.911-0.934c0-0.023-0.004-0.045-0.004-0.066c0-0.005,0.004-0.011,0.004-0.017
			c-0.1-0.825-0.423-1.506-0.968-2.085c-0.667-0.712-1.508-1.067-2.523-1.067c-0.993,0-1.834,0.354-2.546,1.056
			c-0.712,0.705-1.068,1.562-1.068,2.573c0,1.031,0.344,1.885,1.032,2.557c0.687,0.676,1.56,1.012,2.618,1.012
			c0.002,0,0.005,0,0.009,0c0.072,0,0.333,0,0.34,0c0.947,0,1.895-0.337,2.632-1.015L288.908,37.446z"/>
	</g>
	<g>
		<path fill="#36A549" d="M248.559,86.878c0-0.376,0.195-0.585,0.571-0.585h0.627c0.39,0,0.585,0.209,0.585,0.585v5.74
			c0,1.337,0.864,2.09,2.188,2.09c1.323,0,2.201-0.752,2.201-2.09v-5.74c0-0.376,0.195-0.585,0.571-0.585h0.641
			c0.376,0,0.571,0.209,0.571,0.585v5.754c0,2.215-1.588,3.719-3.971,3.719c-2.396,0-3.984-1.504-3.984-3.719V86.878z"/>
		<path fill="#36A549" d="M258.686,86.878c0-0.376,0.195-0.585,0.571-0.585h0.752c0.334,0,0.543,0.111,0.697,0.39l3.51,5.322
			c0.376,0.585,0.822,1.532,0.822,1.532h0.028c0,0-0.098-0.947-0.098-1.532v-5.127c0-0.376,0.209-0.585,0.585-0.585h0.627
			c0.376,0,0.585,0.209,0.585,0.585V95.6c0,0.39-0.209,0.585-0.585,0.585h-0.752c-0.307,0-0.53-0.111-0.683-0.39l-3.525-5.308
			c-0.362-0.585-0.822-1.533-0.822-1.533h-0.028c0,0,0.098,0.947,0.098,1.533V95.6c0,0.39-0.195,0.585-0.571,0.585h-0.641
			c-0.376,0-0.571-0.195-0.571-0.585V86.878z"/>
		<path fill="#36A549" d="M269.035,86.878c0-0.376,0.195-0.585,0.571-0.585h0.641c0.376,0,0.571,0.209,0.571,0.585V95.6
			c0,0.39-0.195,0.585-0.571,0.585h-0.641c-0.376,0-0.571-0.195-0.571-0.585V86.878z"/>
		<path fill="#36A549" d="M275.29,87.84h-2.661c-0.39,0-0.585-0.195-0.585-0.571v-0.39c0-0.376,0.195-0.585,0.585-0.585h7.104
			c0.376,0,0.571,0.209,0.571,0.585v0.39c0,0.376-0.195,0.571-0.571,0.571h-2.661v7.76c0,0.39-0.195,0.585-0.585,0.585h-0.627
			c-0.376,0-0.571-0.195-0.571-0.585V87.84z"/>
		<path fill="#36A549" d="M281.53,86.878c0-0.376,0.195-0.585,0.571-0.585h4.765c0.376,0,0.585,0.209,0.585,0.585v0.39
			c0,0.376-0.209,0.571-0.585,0.571h-3.552v2.591h2.758c0.376,0,0.585,0.195,0.585,0.571v0.39c0,0.39-0.209,0.585-0.585,0.585
			h-2.758v2.661h3.775c0.376,0,0.585,0.195,0.585,0.571v0.39c0,0.39-0.209,0.585-0.585,0.585h-4.988
			c-0.376,0-0.571-0.195-0.571-0.585V86.878z"/>
		<path fill="#36A549" d="M289.288,86.878c0-0.376,0.195-0.585,0.571-0.585h2.8c3.051,0,5.043,1.811,5.043,4.932
			s-1.992,4.959-5.043,4.959h-2.8c-0.376,0-0.571-0.195-0.571-0.585V86.878z M292.562,94.638c2.006,0,3.288-1.184,3.288-3.413
			c0-2.201-1.31-3.385-3.288-3.385h-1.49v6.798H292.562z"/>
		<path fill="#36A549" d="M240.536,103.594c0-0.376,0.195-0.585,0.571-0.585h0.641c0.376,0,0.571,0.209,0.571,0.585v3.441h1.295
			l2.09-3.622c0.153-0.278,0.362-0.404,0.683-0.404h0.683c0.459,0,0.627,0.307,0.404,0.696l-2.396,4.012v0.028l2.577,4.458
			c0.237,0.404,0.056,0.697-0.404,0.697h-0.767c-0.32,0-0.529-0.125-0.683-0.404l-2.187-3.915h-1.295v3.734
			c0,0.39-0.195,0.585-0.571,0.585h-0.641c-0.376,0-0.571-0.195-0.571-0.585V103.594z"/>
		<path fill="#36A549" d="M249.283,103.594c0-0.376,0.195-0.585,0.571-0.585h0.641c0.376,0,0.571,0.209,0.571,0.585v8.721
			c0,0.39-0.195,0.585-0.571,0.585h-0.641c-0.376,0-0.571-0.195-0.571-0.585V103.594z"/>
		<path fill="#36A549" d="M253.351,103.594c0-0.376,0.195-0.585,0.571-0.585h0.752c0.334,0,0.543,0.111,0.697,0.39l3.51,5.322
			c0.376,0.585,0.822,1.532,0.822,1.532h0.028c0,0-0.098-0.947-0.098-1.532v-5.127c0-0.376,0.209-0.585,0.585-0.585h0.627
			c0.376,0,0.585,0.209,0.585,0.585v8.721c0,0.39-0.209,0.585-0.585,0.585h-0.752c-0.307,0-0.53-0.111-0.683-0.39l-3.525-5.308
			c-0.362-0.585-0.822-1.533-0.822-1.533h-0.028c0,0,0.098,0.947,0.098,1.533v5.113c0,0.39-0.195,0.585-0.571,0.585h-0.641
			c-0.376,0-0.571-0.195-0.571-0.585V103.594z"/>
		<path fill="#36A549" d="M268.228,102.841c1.63,0,2.814,0.613,3.232,0.906c0.307,0.237,0.334,0.488,0.125,0.808l-0.25,0.39
			c-0.209,0.32-0.46,0.348-0.808,0.153c-0.432-0.251-1.143-0.613-2.201-0.613c-2.159,0-3.357,1.561-3.357,3.427
			c0,2.076,1.463,3.511,3.302,3.511c1.658,0,2.507-1.087,2.507-1.087v-1.101h-0.947c-0.376,0-0.585-0.209-0.585-0.585v-0.376
			c0-0.39,0.209-0.585,0.585-0.585h1.979c0.376,0,0.571,0.195,0.571,0.585v4.04c0,0.39-0.195,0.585-0.571,0.585h-0.349
			c-0.376,0-0.571-0.195-0.571-0.474v-0.237c0-0.125,0.014-0.237,0.014-0.237h-0.028c0,0-0.989,1.114-2.897,1.114
			c-2.619,0-4.862-2.048-4.862-5.071C263.115,105.042,265.274,102.841,268.228,102.841z"/>
		<path fill="#36A549" d="M274.203,103.594c0-0.376,0.195-0.585,0.571-0.585h2.8c3.051,0,5.043,1.811,5.043,4.932
			s-1.992,4.959-5.043,4.959h-2.8c-0.376,0-0.571-0.195-0.571-0.585V103.594z M277.476,111.354c2.006,0,3.288-1.184,3.288-3.413
			c0-2.201-1.31-3.385-3.288-3.385h-1.49v6.798H277.476z"/>
		<path fill="#36A549" d="M288.871,102.841c2.995,0,5.113,2.215,5.113,5.043c0,2.912-2.118,5.182-5.113,5.182
			s-5.113-2.271-5.113-5.182C283.758,105.057,285.875,102.841,288.871,102.841z M288.871,111.423c1.895,0,3.26-1.533,3.26-3.539
			c0-1.923-1.366-3.399-3.26-3.399s-3.26,1.477-3.26,3.399C285.611,109.891,286.976,111.423,288.871,111.423z"/>
		<path fill="#36A549" d="M296.071,103.566c0.042-0.362,0.237-0.557,0.599-0.557h0.878c0.334,0,0.543,0.153,0.655,0.474l1.769,4.416
			c0.223,0.585,0.501,1.449,0.501,1.449h0.028c0,0,0.265-0.864,0.488-1.449l1.769-4.416c0.112-0.32,0.321-0.474,0.669-0.474h0.864
			c0.362,0,0.571,0.195,0.599,0.557l0.71,8.735c0.028,0.376-0.167,0.599-0.557,0.599h-0.627c-0.362,0-0.571-0.195-0.599-0.557
			l-0.376-4.974c-0.042-0.655-0.014-1.532-0.014-1.532h-0.028c0,0-0.307,0.961-0.529,1.532l-1.435,3.372
			c-0.111,0.306-0.32,0.459-0.655,0.459h-0.585c-0.349,0-0.558-0.153-0.669-0.459l-1.421-3.372
			c-0.223-0.571-0.543-1.546-0.543-1.546h-0.028c0,0,0.028,0.892-0.014,1.546l-0.376,4.974c-0.028,0.362-0.223,0.557-0.599,0.557
			h-0.626c-0.39,0-0.585-0.223-0.558-0.599L296.071,103.566z"/>
	</g>
	<g>
		<path d="M2.726,45.263c0-2.342,3.215-2.676,3.215-4.219c0-0.65-0.492-1.087-1.18-1.087c-0.595,0-0.985,0.381-1.162,0.604
			c-0.13,0.14-0.279,0.195-0.437,0.065l-0.167-0.13c-0.158-0.121-0.195-0.26-0.083-0.418c0.251-0.353,0.855-0.985,1.915-0.985
			c1.199,0,2.072,0.752,2.072,1.886c0,2.156-3.141,2.49-3.169,3.986h2.964C6.889,44.965,7,45.068,7,45.272v0.186
			c0,0.205-0.112,0.307-0.307,0.307H3.051c-0.186,0-0.326-0.102-0.326-0.307V45.263z"/>
		<path d="M8.028,44.743l0.148-0.205c0.121-0.158,0.26-0.158,0.418-0.037c0.204,0.195,0.595,0.501,1.208,0.501
			c0.771,0,1.44-0.529,1.44-1.329c0-0.79-0.651-1.348-1.496-1.348c-0.409,0-0.734,0.149-0.901,0.232
			c-0.149,0.056-0.279,0.065-0.409,0.019l-0.083-0.028c-0.158-0.065-0.242-0.186-0.223-0.362l0.279-2.695
			c0.019-0.195,0.121-0.288,0.316-0.288h2.713c0.205,0,0.307,0.102,0.307,0.307v0.186c0,0.195-0.102,0.307-0.307,0.307H9.236
			l-0.158,1.384c-0.009,0.195-0.046,0.344-0.046,0.344H9.05c0,0,0.363-0.204,0.846-0.204c1.385,0,2.286,0.957,2.286,2.137
			c0,1.264-1.004,2.211-2.323,2.211c-0.938,0-1.533-0.455-1.803-0.715C7.907,45.04,7.907,44.882,8.028,44.743z"/>
		<path d="M13.015,40.468c0-0.752,0.632-1.375,1.413-1.375c0.771,0,1.413,0.623,1.413,1.375c0,0.762-0.641,1.375-1.413,1.375
			C13.646,41.843,13.015,41.23,13.015,40.468z M18.042,39.381c0.093-0.121,0.205-0.177,0.372-0.177h0.167
			c0.26,0,0.344,0.167,0.186,0.372l-4.591,6.003c-0.102,0.13-0.204,0.186-0.372,0.186h-0.167c-0.26,0-0.344-0.167-0.186-0.372
			L18.042,39.381z M15.115,40.468c0-0.381-0.307-0.697-0.688-0.697c-0.39,0-0.688,0.316-0.688,0.697
			c0,0.391,0.297,0.688,0.688,0.688C14.808,41.155,15.115,40.858,15.115,40.468z M17.791,43.125c0.781,0,1.413,0.623,1.413,1.375
			c0,0.762-0.632,1.375-1.413,1.375c-0.78,0-1.403-0.613-1.403-1.375C16.388,43.748,17.011,43.125,17.791,43.125z M17.791,45.188
			c0.391,0,0.688-0.297,0.688-0.688c0-0.381-0.297-0.697-0.688-0.697c-0.381,0-0.678,0.316-0.678,0.697
			C17.113,44.891,17.41,45.188,17.791,45.188z"/>
	</g>
	<g>
		<path d="M131.961,45.263c0-2.342,3.215-2.676,3.215-4.219c0-0.65-0.492-1.087-1.18-1.087c-0.595,0-0.985,0.381-1.162,0.604
			c-0.13,0.14-0.279,0.195-0.437,0.065l-0.167-0.13c-0.158-0.121-0.195-0.26-0.083-0.418c0.251-0.353,0.855-0.985,1.915-0.985
			c1.199,0,2.072,0.752,2.072,1.886c0,2.156-3.141,2.49-3.169,3.986h2.964c0.195,0,0.307,0.103,0.307,0.307v0.186
			c0,0.205-0.112,0.307-0.307,0.307h-3.643c-0.186,0-0.326-0.102-0.326-0.307V45.263z"/>
		<path d="M137.264,44.743l0.148-0.205c0.121-0.158,0.26-0.158,0.418-0.037c0.204,0.195,0.595,0.501,1.208,0.501
			c0.771,0,1.44-0.529,1.44-1.329c0-0.79-0.651-1.348-1.496-1.348c-0.409,0-0.734,0.149-0.901,0.232
			c-0.149,0.056-0.279,0.065-0.409,0.019l-0.083-0.028c-0.158-0.065-0.242-0.186-0.223-0.362l0.279-2.695
			c0.019-0.195,0.121-0.288,0.316-0.288h2.713c0.205,0,0.307,0.102,0.307,0.307v0.186c0,0.195-0.102,0.307-0.307,0.307h-2.202
			l-0.158,1.384c-0.009,0.195-0.046,0.344-0.046,0.344h0.019c0,0,0.363-0.204,0.846-0.204c1.385,0,2.286,0.957,2.286,2.137
			c0,1.264-1.004,2.211-2.323,2.211c-0.938,0-1.533-0.455-1.803-0.715C137.143,45.04,137.143,44.882,137.264,44.743z"/>
		<path d="M142.25,40.468c0-0.752,0.632-1.375,1.413-1.375c0.771,0,1.413,0.623,1.413,1.375c0,0.762-0.641,1.375-1.413,1.375
			C142.882,41.843,142.25,41.23,142.25,40.468z M147.277,39.381c0.093-0.121,0.205-0.177,0.372-0.177h0.167
			c0.26,0,0.344,0.167,0.186,0.372l-4.591,6.003c-0.102,0.13-0.204,0.186-0.372,0.186h-0.167c-0.26,0-0.344-0.167-0.186-0.372
			L147.277,39.381z M144.35,40.468c0-0.381-0.307-0.697-0.688-0.697c-0.39,0-0.688,0.316-0.688,0.697
			c0,0.391,0.297,0.688,0.688,0.688C144.043,41.155,144.35,40.858,144.35,40.468z M147.026,43.125c0.781,0,1.413,0.623,1.413,1.375
			c0,0.762-0.632,1.375-1.413,1.375c-0.78,0-1.403-0.613-1.403-1.375C145.624,43.748,146.246,43.125,147.026,43.125z
			 M147.026,45.188c0.391,0,0.688-0.297,0.688-0.688c0-0.381-0.297-0.697-0.688-0.697c-0.381,0-0.678,0.316-0.678,0.697
			C146.348,44.891,146.646,45.188,147.026,45.188z"/>
	</g>
	<line fill="none" stroke="#000000" stroke-miterlimit="10" x1="20.25" y1="38.5" x2="20.25" y2="48.5"/>
	<line fill="none" stroke="#000000" stroke-miterlimit="10" x1="124.25" y1="38.5" x2="124.25" y2="48.5"/>
	<g>
		<line fill="none" stroke="#000000" stroke-miterlimit="10" x1="164.75" y1="46" x2="203.75" y2="46"/>
		<polygon stroke="#000000" stroke-miterlimit="10" points="203.053,43.706 197.25,46.657 197.25,40.754 		"/>
	</g>
</g>
<g>
</g>
<g>
</g>
<g>
</g>
<g>
</g>
<g>
</g>
<g>
</g>
<g>
</g>
<g>
</g>
<g>
</g>
<g>
</g>
<g>
</g>
<g>
</g>
<g>
</g>
<g>
</g>
<g>
</g>
</svg>
