<svg xmlns="http://www.w3.org/2000/svg" width="91.436" height="123.375" viewBox="0 0 91.436 123.375"><path fill="#339847" d="M91.436 46.42c0 24.882-20.174 45.055-45.056 45.055-24.884 0-45.056-20.173-45.056-45.056 0-24.886 20.172-45.057 45.056-45.057 24.882 0 45.056 20.17 45.056 45.056z"/><path fill="#B1D9AD" d="M23.903 64.686c0 .668-.165 1.206-.832 1.228v.01c-.355.034.087.043-.2.043-2.26 0-3.856-.496-4.792-1.49-.937-.992-1.4-2.67-1.4-5.048v-8.093c0-1.28-.19-2.232-.564-2.86-.37-.62-1.02-1.063-1.943-1.34-.464-.184-.8-.64-.8-1.165 0-.528.323-.977.78-1.17 1.684-.446 2.527-1.77 2.527-3.97v-8.635c0-2.142.48-3.69 1.446-4.638.962-.95 2.546-1.427 4.746-1.427h.2c.692.004.878.562.878 1.254s-.186.865-.877.87v.014c-1.652.032-2.77.312-3.344.842-.577.534-.862 1.562-.862 3.085V41c0 .992-.13 1.907-.392 2.738-.3.938-1.074 1.715-2.31 2.33.99.533 1.69 1.178 2.095 1.94.403.763.605 1.844.605 3.238v8.477c0 1.64.27 2.727.816 3.27.546.538 1.677.816 3.388.83v.017c.67.017.837.173.837.846zM69.685 63.84v-.018c1.714-.014 2.842-.292 3.387-.83.55-.543.823-1.63.823-3.27v-8.477c0-1.395.202-2.476.604-3.237.402-.764 1.1-1.408 2.094-1.94-1.238-.62-2.01-1.396-2.31-2.33-.26-.835-.39-1.747-.39-2.74v-8.802c0-1.523-.286-2.55-.864-3.083-.57-.534-1.688-.814-3.34-.843v-.015c-.69-.004-1.25-.178-1.25-.867 0-.693.56-1.25 1.25-1.256h.2c2.198 0 3.785.473 4.75 1.426.96.947 1.445 2.496 1.445 4.638v8.634c0 2.2.842 3.522 2.526 3.97.455.194.775.643.775 1.17 0 .527-.33.984-.798 1.166-.924.276-1.573.723-1.94 1.34-.377.628-.563 1.58-.563 2.86v8.092c0 2.377-.47 4.056-1.403 5.05-.937.992-2.532 1.488-4.792 1.488-.288 0 .158-.01-.2-.042v-.01a1.236 1.236 0 0 1-1.206-1.23c0-.67.535-.827 1.203-.845z"/><path fill="#FFF" d="M40.277 42.197c1.31 0 2.428-.458 3.354-1.372.928-.915 1.388-2.015 1.388-3.3 0-1.276-.463-2.37-1.392-3.28-.928-.91-2.043-1.364-3.35-1.364-1.304 0-2.417.456-3.34 1.362-.92.907-1.382 2-1.382 3.283 0 1.285.46 2.385 1.382 3.3.923.914 2.037 1.372 3.34 1.372zm-1.906-6.58a2.578 2.578 0 0 1 1.907-.795c.753 0 1.387.262 1.91.79.522.53.783 1.162.783 1.913 0 .76-.26 1.405-.784 1.93a2.582 2.582 0 0 1-1.91.79c-.745 0-1.38-.264-1.905-.79a2.614 2.614 0 0 1-.787-1.916c0-.75.265-1.39.788-1.922zm24.742-.672c1.29 0 2.132.573 2.43 1.632h-4.816c.382-1.058 1.208-1.632 2.386-1.632zm3.262 16.55c-.852-.89-1.897-1.334-3.14-1.334-.89 0-1.665.242-2.342.718-.165.128-.307.24-.422.34v-3.17a1.032 1.032 0 0 0-2.065 0v10.465a.968.968 0 0 0 1.933 0h.01v-.277c.424.458.902.785 1.436.973.478.178.975.27 1.48.27 1.238 0 2.277-.452 3.12-1.358.842-.902 1.264-2.014 1.264-3.33.004-1.308-.422-2.406-1.274-3.297zm-1.626 5.165c-.487.496-1.09.746-1.818.746-.72 0-1.325-.245-1.814-.728-.49-.485-.733-1.083-.733-1.805 0-.78.237-1.42.705-1.913.474-.49 1.086-.738 1.84-.738.722 0 1.325.247 1.812.74.487.495.735 1.107.735 1.84.004.74-.24 1.362-.727 1.858zm-10.146-5.435v7.288H54.6a.977.977 0 0 1-.986.965.98.98 0 0 1-.986-.968c0-.034.005-.065.01-.1v-.4c-.18.237-.323.412-.432.53-.576.626-1.4.94-2.474.94-.712 0-1.354-.15-1.933-.452-.577-.305-1.003-.706-1.272-1.214-.24-.45-.388-.998-.44-1.648-.016-.227-.025-.8-.025-1.73V51.23v-.003c0-.567.47-1.03 1.053-1.03.582 0 1.052.46 1.052 1.03 0 .057-.01.114-.02.168v3.042c0 .605.006.97.02 1.097 0 .42.08.796.236 1.13.27.584.835.875 1.69.875 1.6 0 2.406-1.035 2.406-3.102v-3.212c0-.568.47-1.03 1.05-1.03.578 0 1.052.46 1.052 1.032zm.588-21.377c-.562 0-1.012.456-1.012 1.02v3.065c-.49-.42-.972-.708-1.45-.862a4.232 4.232 0 0 0-1.28-.19c-1.236 0-2.275.447-3.11 1.334-.837.884-1.256 1.983-1.256 3.3 0 1.315.417 2.425 1.246 3.33.838.902 1.855 1.354 3.07 1.354 1.008 0 1.84-.282 2.5-.845.15-.133.28-.265.383-.396v.204h.01v.006c0 .53.427.964.956.964a.962.962 0 0 0 .953-.964V30.873a1.015 1.015 0 0 0-1.01-1.024zm-1.66 9.54c-.475.49-1.077.737-1.8.737a2.39 2.39 0 0 1-1.773-.742c-.482-.496-.724-1.103-.724-1.82 0-.742.24-1.365.72-1.866.48-.5 1.073-.748 1.778-.748.746 0 1.354.24 1.817.726.466.48.7 1.104.7 1.87 0 .732-.237 1.348-.716 1.842zM43.487 58.223c0 .52-.42.94-.94.94H37.34a.94.94 0 0 1 0-1.88h1.596v-8.007H37.34v-.01a.94.94 0 0 1 0-1.882h2.702c.52 0 .94.424.94.94a.2.2 0 0 1-.005.046l.003.002v8.913h1.564a.933.933 0 0 1 .942.938zM27.884 52.91a2.725 2.725 0 0 0-.753 1.89c0 .688.253 1.373.754 1.896a2.51 2.51 0 0 0 3.638 0c.374-.39 1.23-.39 1.634 0a.978.978 0 0 1 0 1.415 4.925 4.925 0 0 1-3.425 1.367c-1.24 0-2.48-.455-3.423-1.366a4.57 4.57 0 0 1 0-6.615c1.89-1.82 4.963-1.82 6.852 0a.98.98 0 0 1 0 1.416c-.405.39-1.26.39-1.636 0a2.507 2.507 0 0 0-3.64 0zm-.03-17.28a2.748 2.748 0 0 0-.743 1.893c0 .685.25 1.37.744 1.894a2.46 2.46 0 0 0 3.603 0c.37-.39 1.22-.39 1.618 0 .4.392.4 1.024 0 1.414a4.834 4.834 0 0 1-3.392 1.368 4.828 4.828 0 0 1-3.388-1.367 4.597 4.597 0 0 1 0-6.61c1.87-1.827 4.91-1.827 6.78 0 .4.39.4 1.02 0 1.413-.4.39-1.248.39-1.62 0a2.462 2.462 0 0 0-3.6-.003zm39.228 5.283a1.015 1.015 0 0 0 0-1.466c-.413-.404-1.174-.404-1.56 0v-.002c-.49.44-1.183.664-1.786.68h-.327c-.713 0-1.313-.163-1.8-.492a2.093 2.093 0 0 1-.9-1.353h5.833c.654 0 1.184-.544 1.184-1.21 0-.032-.005-.058-.005-.087 0-.007.005-.014.005-.02-.13-1.068-.548-1.95-1.253-2.7-.862-.92-1.953-1.383-3.267-1.383-1.285 0-2.373.457-3.294 1.37-.923.91-1.382 2.02-1.382 3.326 0 1.335.446 2.438 1.335 3.312.888.875 2.02 1.31 3.39 1.31 0 0 .004-.003.01-.003l.44.002a5.02 5.02 0 0 0 3.404-1.315l-.028.03z"/><g fill="#36A549"><path d="M10.904 105.04c0-.488.252-.76.74-.76h.83c.486 0 .738.27.738.76v11.275c0 .503-.252.756-.74.756h-.83c-.486 0-.738-.252-.738-.755V105.04zM16.17 105.04c0-.488.25-.76.736-.76h3.46c1.26 0 1.89.11 2.432.346 1.298.54 2.144 1.765 2.144 3.496 0 1.512-.79 2.953-2.127 3.493v.04s.162.196.413.665l2.108 3.855c.306.522.07.9-.523.9h-.975c-.413 0-.684-.162-.883-.524l-2.252-4.25H18.47v4.017c0 .504-.25.757-.74.757h-.826c-.486 0-.74-.253-.74-.757V105.04h.005zm4.392 5.24c1.242 0 2.02-.776 2.02-2.033 0-.812-.307-1.46-1.01-1.747-.306-.146-.704-.218-1.387-.218h-1.71v4h2.087v-.003zM27.45 105.04c0-.488.25-.76.737-.76h6.163c.487 0 .755.27.755.76v.502c0 .487-.27.74-.755.74h-4.595v3.352h3.565c.487 0 .755.25.755.738v.506c0 .503-.27.756-.755.756h-3.565v3.438h4.882c.487 0 .755.252.755.74v.505c0 .504-.27.757-.755.757h-6.45c-.486 0-.738-.253-.738-.757V105.04zM37.488 105.04c0-.488.25-.76.738-.76h.83c.486 0 .738.27.738.76v10.032h4.77c.506 0 .76.252.76.74v.505c0 .504-.252.757-.76.757h-6.34c-.486 0-.737-.253-.737-.757V105.04zM49.688 104.893c.145-.413.413-.612.845-.612h1.15c.434 0 .724.2.847.613l4.002 11.313c.18.522-.054.865-.612.865h-.83c-.433 0-.72-.196-.845-.61l-.9-2.67H48.86l-.885 2.65c-.126.434-.413.63-.846.63h-.83c-.56 0-.794-.345-.613-.864l4-11.313zm3.08 7.01l-1.136-3.422c-.216-.72-.504-1.98-.504-1.98h-.034s-.293 1.26-.506 1.98l-1.15 3.423h3.33zM58.304 105.04c0-.488.25-.76.737-.76h.976c.432 0 .703.148.9.506l4.537 6.88c.487.757 1.067 1.983 1.067 1.983h.034s-.127-1.228-.127-1.984v-6.627c0-.488.273-.76.756-.76h.812c.486 0 .756.27.756.76v11.275c0 .503-.27.756-.755.756h-.975c-.4 0-.687-.145-.887-.505l-4.556-6.864c-.47-.753-1.062-1.98-1.062-1.98h-.037s.125 1.228.125 1.98v6.612c0 .504-.25.754-.737.754h-.828c-.487 0-.74-.25-.74-.754V105.04h.006zM71.693 105.04c0-.488.25-.76.738-.76h3.622c3.945 0 6.52 2.343 6.52 6.38 0 4.036-2.574 6.414-6.52 6.414h-3.62c-.488 0-.74-.253-.74-.757V105.04zm4.232 10.032c2.594 0 4.255-1.534 4.255-4.415 0-2.847-1.693-4.378-4.255-4.378H74v8.792h1.925z"/></g></svg>