<svg xmlns="http://www.w3.org/2000/svg" width="184.875" height="80.5" viewBox="0 0 184.875 80.5"><path fill="#339847" d="M77.22 38.495c0 20.71-16.788 37.495-37.497 37.495-20.707 0-37.495-16.784-37.495-37.495C2.228 17.785 19.016 1 39.723 1 60.433 1 77.22 17.786 77.22 38.495z"/><path fill="#B1D9AD" d="M21.018 53.694c0 .56-.136 1.008-.692 1.02v.01c-.298.026.07.037-.168.037-1.88 0-3.208-.412-3.988-1.238-.778-.826-1.168-2.228-1.168-4.204v-6.732c0-1.063-.156-1.855-.466-2.38-.31-.514-.848-.887-1.617-1.115a1.053 1.053 0 0 1-.666-.974c0-.44.27-.812.65-.97v-.003c1.398-.372 2.1-1.473 2.1-3.306v-7.184c0-1.783.402-3.072 1.204-3.86.803-.79 2.12-1.188 3.952-1.188h.168c.575.004.73.47.73 1.045 0 .577-.155.72-.73.723v.013c-1.375.027-2.305.26-2.783.702-.48.44-.718 1.296-.718 2.567v7.322c0 .826-.108 1.587-.324 2.28-.25.78-.892 1.427-1.922 1.938.828.442 1.407.982 1.743 1.614.334.635.502 1.534.502 2.694v7.05c0 1.367.228 2.275.682 2.723.455.452 1.394.682 2.82.693v.016c.555.023.69.15.69.708zM59.12 52.994v-.016c1.424-.012 2.363-.24 2.818-.69.454-.45.684-1.358.684-2.723v-7.053c0-1.16.168-2.06.503-2.695.334-.632.915-1.17 1.74-1.614-1.03-.514-1.67-1.16-1.923-1.94a7.636 7.636 0 0 1-.322-2.278v-7.322c0-1.27-.24-2.127-.72-2.567-.48-.445-1.405-.677-2.783-.702v-.014c-.576-.004-1.04-.146-1.04-.72 0-.578.464-1.043 1.04-1.048h.168c1.833 0 3.15.395 3.95 1.187.803.788 1.203 2.077 1.203 3.86v7.185c0 1.832.7 2.932 2.102 3.305v.002c.382.158.648.534.648.97 0 .443-.28.82-.666.972-.768.23-1.307.604-1.617 1.115-.31.52-.467 1.315-.467 2.38v6.733c0 1.977-.39 3.374-1.166 4.2-.78.83-2.107 1.24-3.987 1.24-.24 0 .13-.012-.168-.037v-.008c-.556-.014-1.002-.462-1.002-1.02s.45-.69 1.004-.704z"/><path fill="#FFF" d="M34.645 34.98c1.09 0 2.02-.38 2.792-1.142.77-.76 1.154-1.676 1.154-2.745 0-1.062-.385-1.972-1.157-2.73-.773-.755-1.7-1.133-2.788-1.133-1.085 0-2.013.376-2.78 1.128-.767.756-1.152 1.67-1.152 2.735 0 1.07.383 1.984 1.153 2.745.766.762 1.694 1.14 2.78 1.14zm-1.585-5.473a2.15 2.15 0 0 1 1.585-.662c.626 0 1.154.217 1.59.658.434.44.65.97.65 1.592 0 .632-.216 1.168-.65 1.605a2.15 2.15 0 0 1-1.59.66c-.62 0-1.15-.22-1.585-.66a2.17 2.17 0 0 1-.654-1.592c0-.627.217-1.16.654-1.6zm20.59-.562c1.074 0 1.776.477 2.023 1.36h-4.01c.317-.883 1.008-1.36 1.988-1.36zm2.715 13.775c-.71-.738-1.582-1.108-2.615-1.108-.737 0-1.387.2-1.947.595-.14.108-.256.2-.353.28v-2.636a.86.86 0 0 0-1.717 0v8.712a.805.805 0 0 0 1.61 0h.008v-.235c.355.382.753.656 1.195.81.4.15.813.225 1.235.225 1.03 0 1.896-.374 2.598-1.127s1.052-1.676 1.052-2.772c-.003-1.09-.355-2.002-1.065-2.743zm-1.353 4.297c-.405.413-.907.62-1.513.62-.6 0-1.105-.2-1.51-.604-.407-.4-.61-.903-.61-1.502 0-.65.197-1.18.59-1.592.39-.407.902-.614 1.53-.614.598 0 1.1.207 1.507.616.407.413.61.923.61 1.53 0 .62-.2 1.13-.605 1.547zm-8.447-4.524v6.068a.812.812 0 0 1-.822.802.814.814 0 0 1-.82-.805c0-.03.006-.06.008-.085v-.334c-.15.198-.27.346-.357.44-.48.52-1.164.783-2.06.783-.59 0-1.126-.124-1.61-.375-.48-.255-.833-.59-1.06-1.012-.2-.373-.32-.832-.365-1.375a25.545 25.545 0 0 1-.023-1.435v-2.67-.004c0-.474.393-.857.875-.857s.875.382.875.856c0 .05-.006.096-.014.143v2.528c0 .503.005.807.015.914 0 .35.067.66.198.94.224.482.694.726 1.408.726 1.336 0 2.002-.86 2.002-2.58v-2.675c0-.47.39-.856.874-.856.488.01.88.39.88.863zm.493-17.788a.846.846 0 0 0-.842.85v2.553c-.407-.352-.81-.59-1.206-.718a3.386 3.386 0 0 0-1.066-.158c-1.03 0-1.894.368-2.59 1.105s-1.043 1.654-1.043 2.745c0 1.098.347 2.02 1.04 2.772.695.753 1.543 1.126 2.553 1.126.838 0 1.53-.233 2.08-.7.126-.112.233-.22.32-.33v.17h.008a.8.8 0 0 0 .794.806.802.802 0 0 0 .795-.805v-8.563a.848.848 0 0 0-.842-.852zm-1.382 7.937c-.398.41-.896.617-1.496.617a1.988 1.988 0 0 1-1.477-.618c-.4-.413-.604-.92-.604-1.516 0-.62.2-1.135.6-1.554a1.973 1.973 0 0 1 1.482-.625c.62 0 1.123.204 1.51.606.39.4.584.922.584 1.56-.003.608-.2 1.12-.6 1.53zm-8.358 15.676c0 .432-.353.78-.783.78h-4.332a.783.783 0 0 1 0-1.565h1.327v-6.66h-1.327v-.01a.782.782 0 0 1 0-1.565h2.246c.432 0 .782.352.782.784 0 .012-.002.023-.004.035l.002.002v7.416h1.303a.782.782 0 0 1 .785.782zm-12.986-4.422a2.27 2.27 0 0 0-.627 1.576c0 .57.21 1.14.627 1.575a2.086 2.086 0 0 0 3.028 0c.315-.324 1.024-.324 1.36 0a.81.81 0 0 1 0 1.178c-.785.757-1.817 1.14-2.85 1.14s-2.063-.383-2.848-1.14a3.805 3.805 0 0 1 0-5.506c1.572-1.517 4.127-1.52 5.7 0a.812.812 0 0 1 0 1.178c-.335.325-1.046.325-1.36 0a2.086 2.086 0 0 0-3.03-.002zm-.026-14.38a2.282 2.282 0 0 0-.62 1.577c0 .568.207 1.14.62 1.575a2.054 2.054 0 0 0 3 0c.308-.326 1.013-.326 1.346 0a.82.82 0 0 1 0 1.177c-.78.76-1.8 1.136-2.82 1.136s-2.043-.376-2.82-1.135a3.828 3.828 0 0 1 0-5.504c1.554-1.516 4.085-1.518 5.64 0a.82.82 0 0 1 0 1.18c-.332.323-1.038.323-1.345 0a2.048 2.048 0 0 0-3-.003zm32.648 4.395a.843.843 0 0 0 0-1.216c-.344-.34-.98-.34-1.3 0l.003-.004c-.41.364-.982.553-1.484.566H53.9c-.595 0-1.095-.136-1.498-.41a1.74 1.74 0 0 1-.75-1.126h4.856c.54 0 .982-.452.982-1.008 0-.025-.004-.048-.006-.07 0-.007.006-.014.006-.018a3.84 3.84 0 0 0-1.043-2.245c-.72-.77-1.624-1.15-2.718-1.15-1.07 0-1.976.377-2.742 1.135-.768.76-1.15 1.683-1.15 2.77 0 1.112.37 2.03 1.11 2.755.74.728 1.68 1.09 2.82 1.09h.38c1.02 0 2.04-.364 2.833-1.095l-.026.026z"/><g fill="#36A549"><path d="M89.064 30.562c0-.61.314-.947.922-.947h1.037c.605 0 .923.338.923.947v14.086c0 .63-.317.947-.923.947h-1.037c-.607 0-.922-.316-.922-.947V30.562zM95.633 30.562c0-.61.317-.947.923-.947h4.32c1.576 0 2.363.135 3.04.43 1.617.674 2.675 2.204 2.675 4.364 0 1.89-.987 3.688-2.653 4.364v.043s.203.25.52.834l2.633 4.818c.38.652.09 1.123-.652 1.123h-1.216c-.518 0-.857-.2-1.104-.65l-2.81-5.312h-2.793v5.018c0 .63-.316.945-.923.945h-1.035c-.605 0-.923-.31-.923-.944V30.562zm5.49 6.55c1.553 0 2.522-.97 2.522-2.545 0-1.013-.383-1.822-1.263-2.183-.38-.18-.877-.27-1.73-.27h-2.14v4.995h2.61v.002zM109.72 30.562c0-.61.31-.947.918-.947h7.697c.607 0 .943.338.943.947v.63c0 .607-.336.923-.943.923H112.6V36.3h4.45c.61 0 .95.314.95.923v.63c0 .63-.34.946-.95.946h-4.45v4.296h6.096c.608 0 .944.314.944.923v.63c0 .63-.336.946-.944.946h-8.058c-.606 0-.92-.316-.92-.947V30.56zM122.248 30.562c0-.61.312-.947.92-.947h1.037c.606 0 .923.338.923.947v12.533h5.962c.63 0 .946.314.946.923v.63c0 .63-.317.947-.946.947h-7.923c-.606 0-.92-.316-.92-.947V30.562zM137.48 30.38c.177-.517.517-.765 1.058-.765h1.44c.54 0 .9.248 1.058.765l4.996 14.13c.224.655-.07 1.082-.767 1.082h-1.036c-.54 0-.9-.247-1.06-.765l-1.123-3.332h-5.603l-1.104 3.31c-.158.54-.518.787-1.058.787h-1.033c-.698 0-.99-.43-.766-1.083l4.996-14.13zm3.847 8.757l-1.417-4.276c-.27-.9-.63-2.475-.63-2.475h-.044s-.358 1.575-.63 2.476l-1.443 4.277h4.164zM148.23 30.562c0-.61.315-.947.922-.947h1.216c.54 0 .877.18 1.124.63l5.672 8.597c.608.947 1.328 2.476 1.328 2.476h.044s-.158-1.528-.158-2.476v-8.28c0-.608.338-.946.944-.946h1.014c.608 0 .944.338.944.947V44.65c0 .63-.336.946-.944.946h-1.217c-.495 0-.855-.182-1.103-.63l-5.695-8.574c-.583-.946-1.328-2.477-1.328-2.477h-.04s.157 1.53.157 2.477v8.26c0 .628-.315.944-.922.944h-1.034c-.606 0-.92-.312-.92-.945V30.563h-.003zM164.948 30.562c0-.61.314-.947.92-.947h4.524c4.928 0 8.146 2.924 8.146 7.965 0 5.043-3.217 8.012-8.146 8.012h-4.523c-.607 0-.922-.312-.922-.945V30.562zm5.287 12.534c3.242 0 5.312-1.913 5.312-5.514 0-3.554-2.114-5.467-5.312-5.467h-2.407v10.98h2.407z"/></g></svg>