<?xml version="1.0" encoding="utf-8"?>
<!-- Generator: Adobe Illustrator 16.0.0, SVG Export Plug-In . SVG Version: 6.00 Build 0)  -->
<!DOCTYPE svg PUBLIC "-//W3C//DTD SVG 1.1//EN" "http://www.w3.org/Graphics/SVG/1.1/DTD/svg11.dtd">
<svg version="1.1" id="Layer_1" xmlns="http://www.w3.org/2000/svg" xmlns:xlink="http://www.w3.org/1999/xlink" x="0px" y="0px"
	 width="91.436px" height="123.375px" viewBox="0 0 91.436 123.375" enable-background="new 0 0 91.436 123.375"
	 xml:space="preserve">
<g>
	<g>
		<path fill="#339847" d="M91.436,46.419c0,24.883-20.174,45.056-45.056,45.056c-24.884,0-45.056-20.173-45.056-45.056
			c0-24.885,20.172-45.056,45.056-45.056C71.262,1.363,91.436,21.534,91.436,46.419z"/>
		<path fill="#B1D9AD" d="M23.903,64.686c0,0.668-0.165,1.206-0.832,1.228v0.011c-0.356,0.033,0.086,0.042-0.202,0.042
			c-2.259,0-3.855-0.496-4.791-1.489c-0.937-0.993-1.401-2.672-1.401-5.049v-8.092c0-1.28-0.188-2.232-0.563-2.86
			c-0.37-0.619-1.019-1.063-1.943-1.34c-0.465-0.184-0.8-0.639-0.8-1.165c0-0.528,0.322-0.977,0.779-1.17l0,0
			c1.684-0.446,2.527-1.77,2.527-3.971v-8.634c0-2.142,0.479-3.69,1.446-4.638c0.962-0.95,2.546-1.426,4.746-1.426h0.202l0,0
			c0.691,0.004,0.877,0.562,0.877,1.254s-0.186,0.865-0.877,0.869v0.015c-1.653,0.031-2.77,0.311-3.345,0.841
			c-0.577,0.534-0.862,1.562-0.862,3.085v8.802c0,0.993-0.131,1.908-0.392,2.739c-0.299,0.938-1.074,1.715-2.309,2.331
			c0.99,0.532,1.69,1.177,2.094,1.94c0.403,0.762,0.605,1.843,0.605,3.237v8.477c0,1.639,0.27,2.727,0.816,3.27
			c0.546,0.538,1.677,0.816,3.388,0.83v0.017C23.736,63.857,23.903,64.013,23.903,64.686z"/>
		<path fill="#B1D9AD" d="M69.685,63.839v-0.017c1.714-0.014,2.842-0.292,3.387-0.83c0.55-0.543,0.823-1.631,0.823-3.27v-8.477
			c0-1.395,0.202-2.476,0.604-3.237c0.403-0.764,1.1-1.408,2.095-1.94c-1.238-0.619-2.009-1.396-2.311-2.331
			c-0.26-0.834-0.388-1.746-0.388-2.739v-8.802c0-1.523-0.287-2.551-0.865-3.083c-0.57-0.534-1.688-0.814-3.34-0.843v-0.015
			c-0.691-0.004-1.251-0.178-1.251-0.867c0-0.693,0.56-1.251,1.251-1.256l0,0h0.199c2.199,0,3.786,0.473,4.751,1.426
			c0.96,0.947,1.445,2.496,1.445,4.638v8.634c0,2.201,0.842,3.522,2.526,3.971l0,0c0.454,0.193,0.774,0.642,0.774,1.17
			c0,0.526-0.331,0.983-0.798,1.165c-0.924,0.276-1.573,0.723-1.941,1.34c-0.376,0.628-0.562,1.58-0.562,2.86v8.092
			c0,2.377-0.471,4.056-1.403,5.049c-0.938,0.993-2.533,1.489-4.793,1.489c-0.288,0,0.158-0.009-0.199-0.042v-0.011
			c-0.668-0.021-1.207-0.558-1.207-1.228C68.482,64.013,69.017,63.857,69.685,63.839z"/>
		<path fill="#FFFFFF" d="M40.277,42.197c1.311,0,2.428-0.458,3.354-1.372c0.927-0.915,1.387-2.015,1.387-3.3
			c0-1.276-0.463-2.369-1.392-3.28c-0.928-0.909-2.043-1.364-3.349-1.364c-1.305,0-2.418,0.455-3.341,1.361
			c-0.921,0.907-1.382,2-1.382,3.283c0,1.285,0.461,2.385,1.382,3.3C37.859,41.739,38.973,42.197,40.277,42.197z M38.371,35.618
			c0.526-0.532,1.16-0.796,1.906-0.796c0.753,0,1.387,0.262,1.909,0.791c0.523,0.529,0.784,1.161,0.784,1.912
			c0,0.761-0.261,1.405-0.784,1.929c-0.522,0.527-1.156,0.791-1.909,0.791c-0.746,0-1.38-0.264-1.906-0.791
			c-0.523-0.525-0.788-1.163-0.788-1.915C37.583,36.789,37.848,36.149,38.371,35.618z M63.112,34.945
			c1.29,0,2.132,0.573,2.429,1.632h-4.815C61.108,35.519,61.934,34.945,63.112,34.945z M66.374,51.495
			c-0.852-0.889-1.897-1.334-3.139-1.334c-0.891,0-1.666,0.241-2.343,0.717c-0.165,0.128-0.307,0.24-0.422,0.34v-3.171l0,0
			c0-0.568-0.465-1.033-1.033-1.033c-0.57,0-1.032,0.462-1.032,1.033v10.466l0,0c0,0.534,0.437,0.965,0.966,0.965
			c0.533,0,0.965-0.433,0.967-0.965h0.01v-0.277c0.424,0.458,0.902,0.785,1.436,0.973c0.478,0.179,0.975,0.27,1.48,0.27
			c1.238,0,2.277-0.451,3.12-1.357c0.842-0.902,1.264-2.014,1.264-3.33C67.652,53.484,67.226,52.386,66.374,51.495z M64.748,56.66
			c-0.487,0.496-1.091,0.746-1.818,0.746c-0.72,0-1.325-0.245-1.814-0.728c-0.489-0.485-0.733-1.083-0.733-1.805
			c0-0.779,0.237-1.421,0.705-1.913c0.474-0.489,1.086-0.738,1.84-0.738c0.722,0,1.325,0.247,1.812,0.741
			c0.487,0.494,0.735,1.106,0.735,1.838C65.479,55.543,65.235,56.164,64.748,56.66z M54.602,51.225v7.288h-0.003
			c-0.002,0.534-0.443,0.965-0.985,0.965c-0.543,0-0.986-0.435-0.986-0.968c0-0.034,0.005-0.065,0.009-0.1v-0.401
			c-0.179,0.238-0.322,0.413-0.431,0.53c-0.576,0.627-1.399,0.94-2.474,0.94c-0.712,0-1.354-0.149-1.933-0.451
			c-0.576-0.305-1.002-0.706-1.271-1.214c-0.24-0.449-0.388-0.998-0.44-1.648c-0.016-0.227-0.025-0.801-0.025-1.729v-3.209
			c0,0,0,0,0-0.003c0-0.567,0.47-1.031,1.053-1.031c0.582,0,1.052,0.461,1.052,1.031c0,0.057-0.01,0.114-0.019,0.168v3.042
			c0,0.605,0.005,0.971,0.019,1.097c0,0.42,0.079,0.796,0.236,1.131c0.27,0.583,0.835,0.874,1.689,0.874
			c1.601,0,2.407-1.035,2.407-3.102v-3.212l0,0c0-0.568,0.469-1.031,1.049-1.031C54.128,50.193,54.602,50.654,54.602,51.225z
			 M55.19,29.848c-0.562,0-1.012,0.456-1.012,1.021l0,0v3.064c-0.489-0.421-0.972-0.708-1.45-0.862
			c-0.396-0.125-0.823-0.19-1.28-0.19c-1.236,0-2.275,0.446-3.11,1.333c-0.837,0.884-1.256,1.983-1.256,3.3
			c0,1.315,0.417,2.425,1.246,3.33c0.838,0.902,1.855,1.354,3.071,1.354c1.007,0,1.838-0.282,2.499-0.845
			c0.15-0.133,0.28-0.265,0.383-0.396v0.204h0.009c0,0.002,0,0.002,0,0.005c0,0.531,0.427,0.964,0.956,0.964
			c0.526,0,0.953-0.436,0.953-0.964c0-0.003,0-0.003,0-0.005l0,0V30.872l0,0C56.201,30.306,55.747,29.848,55.19,29.848z
			 M53.531,39.388c-0.476,0.489-1.078,0.737-1.8,0.737c-0.698,0-1.29-0.248-1.774-0.742c-0.482-0.496-0.724-1.103-0.724-1.821
			c0-0.741,0.241-1.364,0.721-1.865c0.48-0.499,1.072-0.748,1.777-0.748c0.745,0,1.353,0.242,1.816,0.727
			c0.466,0.481,0.7,1.104,0.7,1.869C54.248,38.278,54.01,38.894,53.531,39.388z M43.486,58.223c0,0.521-0.421,0.94-0.941,0.94
			h-5.204c-0.518,0-0.938-0.422-0.938-0.94c0-0.522,0.421-0.94,0.938-0.94c0.015,0,1.595,0,1.595,0v-8.007h-1.595v-0.011
			c-0.518,0-0.938-0.422-0.938-0.94c0-0.518,0.421-0.941,0.938-0.941h2.701c0.52,0,0.94,0.424,0.94,0.941
			c0,0.018-0.002,0.031-0.005,0.045l0.003,0.002v8.913c0,0,1.551,0,1.564,0C43.065,57.279,43.486,57.7,43.486,58.223z
			 M27.884,52.909c-0.501,0.522-0.753,1.206-0.753,1.891c0,0.688,0.252,1.373,0.753,1.896c1.002,1.041,2.634,1.041,3.638,0
			c0.374-0.39,1.23-0.39,1.634,0c0.404,0.389,0.404,1.025,0,1.415c-0.942,0.909-2.185,1.366-3.425,1.366
			c-1.241,0-2.481-0.455-3.424-1.366c-1.889-1.827-1.889-4.792,0-6.616c1.889-1.821,4.963-1.821,6.852,0
			c0.403,0.392,0.403,1.026,0,1.416c-0.404,0.39-1.26,0.39-1.635,0C30.518,51.866,28.89,51.866,27.884,52.909z M27.854,35.63
			c-0.494,0.522-0.743,1.206-0.743,1.893c0,0.685,0.249,1.371,0.743,1.894c0.995,1.046,2.609,1.046,3.603,0
			c0.371-0.39,1.22-0.39,1.618,0c0.399,0.392,0.399,1.024,0,1.414c-0.936,0.914-2.162,1.367-3.392,1.367
			c-1.226,0-2.454-0.453-3.388-1.367c-1.87-1.825-1.87-4.792,0-6.611c1.869-1.827,4.91-1.827,6.779,0
			c0.401,0.39,0.401,1.021,0,1.413c-0.398,0.39-1.247,0.39-1.618,0C30.463,34.587,28.849,34.587,27.854,35.63z M67.082,40.913
			c0.417-0.404,0.417-1.062,0-1.466c-0.413-0.404-1.174-0.404-1.56,0v-0.002c-0.491,0.439-1.183,0.664-1.786,0.68
			c-0.021,0-0.306,0-0.327,0c-0.712,0-1.312-0.163-1.798-0.492c-0.487-0.328-0.789-0.796-0.902-1.353h5.834
			c0.654,0,1.184-0.544,1.184-1.211c0-0.031-0.005-0.057-0.005-0.086c0-0.007,0.005-0.014,0.005-0.021
			c-0.13-1.067-0.548-1.949-1.253-2.699c-0.862-0.921-1.953-1.383-3.267-1.383c-1.285,0-2.373,0.457-3.294,1.369
			c-0.923,0.911-1.382,2.021-1.382,3.327c0,1.335,0.445,2.438,1.334,3.312c0.888,0.875,2.02,1.309,3.389,1.309
			c0,0,0.005-0.002,0.01-0.002c0.097,0,0.434,0.002,0.44,0.002c1.229,0,2.452-0.44,3.405-1.315L67.082,40.913z"/>
	</g>
	<g>
		<path fill="#36A549" d="M10.904,105.039c0-0.487,0.252-0.759,0.739-0.759h0.83c0.487,0,0.739,0.271,0.739,0.759v11.276
			c0,0.503-0.252,0.756-0.739,0.756h-0.83c-0.487,0-0.739-0.253-0.739-0.756V105.039z"/>
		<path fill="#36A549" d="M16.169,105.039c0-0.487,0.251-0.759,0.737-0.759h3.459c1.262,0,1.892,0.111,2.433,0.346
			c1.298,0.54,2.144,1.765,2.144,3.496c0,1.512-0.791,2.953-2.127,3.493v0.039c0,0,0.162,0.197,0.413,0.666l2.108,3.855
			c0.306,0.522,0.07,0.9-0.523,0.9h-0.975c-0.413,0-0.684-0.162-0.883-0.524l-2.252-4.25H18.47v4.016
			c0,0.504-0.251,0.757-0.739,0.757h-0.827c-0.486,0-0.739-0.253-0.739-0.757v-11.278H16.169z M20.562,110.279
			c1.242,0,2.02-0.775,2.02-2.032c0-0.812-0.307-1.459-1.01-1.747c-0.306-0.146-0.704-0.218-1.387-0.218h-1.711v3.999h2.088V110.279
			z"/>
		<path fill="#36A549" d="M27.449,105.039c0-0.487,0.252-0.759,0.738-0.759h6.163c0.487,0,0.755,0.271,0.755,0.759v0.503
			c0,0.487-0.271,0.74-0.755,0.74h-4.595v3.352h3.565c0.487,0,0.755,0.251,0.755,0.738v0.506c0,0.503-0.27,0.756-0.755,0.756h-3.565
			v3.438h4.882c0.487,0,0.755,0.252,0.755,0.739v0.506c0,0.504-0.271,0.757-0.755,0.757h-6.45c-0.486,0-0.738-0.253-0.738-0.757
			V105.039z"/>
		<path fill="#36A549" d="M37.488,105.039c0-0.487,0.251-0.759,0.738-0.759h0.829c0.487,0,0.739,0.271,0.739,0.759v10.033h4.771
			c0.505,0,0.759,0.252,0.759,0.739v0.506c0,0.504-0.252,0.757-0.759,0.757h-6.34c-0.487,0-0.738-0.253-0.738-0.757V105.039z"/>
		<path fill="#36A549" d="M49.688,104.893c0.145-0.413,0.413-0.612,0.845-0.612h1.15c0.434,0,0.724,0.199,0.847,0.612l4.002,11.313
			c0.181,0.522-0.054,0.865-0.612,0.865h-0.831c-0.432,0-0.719-0.197-0.844-0.612l-0.9-2.668h-4.486l-0.884,2.649
			c-0.126,0.434-0.413,0.631-0.846,0.631h-0.829c-0.559,0-0.794-0.346-0.613-0.865L49.688,104.893z M52.769,111.903l-1.137-3.422
			c-0.216-0.722-0.504-1.981-0.504-1.981h-0.034c0,0-0.293,1.26-0.506,1.981l-1.15,3.422H52.769z"/>
		<path fill="#36A549" d="M58.304,105.039c0-0.487,0.25-0.759,0.737-0.759h0.975c0.432,0,0.703,0.148,0.9,0.506l4.537,6.88
			c0.487,0.757,1.067,1.983,1.067,1.983h0.034c0,0-0.127-1.227-0.127-1.983v-6.627c0-0.487,0.273-0.759,0.756-0.759h0.812
			c0.486,0,0.756,0.271,0.756,0.759v11.276c0,0.503-0.27,0.756-0.756,0.756h-0.975c-0.399,0-0.687-0.146-0.887-0.506l-4.556-6.864
			c-0.469-0.754-1.062-1.98-1.062-1.98h-0.037c0,0,0.125,1.227,0.125,1.98v6.611c0,0.504-0.25,0.754-0.737,0.754h-0.828
			c-0.487,0-0.74-0.25-0.74-0.754v-11.273H58.304z"/>
		<path fill="#36A549" d="M71.693,105.039c0-0.487,0.251-0.759,0.738-0.759h3.621c3.945,0,6.521,2.343,6.521,6.379
			c0,4.037-2.575,6.415-6.521,6.415h-3.621c-0.487,0-0.738-0.253-0.738-0.757V105.039z M75.925,115.072
			c2.594,0,4.255-1.534,4.255-4.415c0-2.847-1.693-4.378-4.255-4.378h-1.926v8.793H75.925z"/>
	</g>
</g>
</svg>
