<svg xmlns="http://www.w3.org/2000/svg" width="323.25" height="124" viewBox="0 0 323.25 124"><path fill="none" stroke="#CCCBCB" stroke-miterlimit="10" d="M20.25 1h104v108h-104z"/><path fill="none" stroke="#000" stroke-miterlimit="10" d="M126.75 43h-105"/><path fill="#339847" d="M109.236 42.863c0 19.233-15.594 34.823-34.824 34.823-19.232 0-34.823-15.59-34.823-34.823C39.59 23.63 55.18 8.04 74.41 8.04c19.23 0 34.824 15.59 34.824 34.823z"/><path fill="#B1D9AD" d="M57.04 56.98c0 .517-.13.935-.644.95v.007c-.276.022.065.032-.156.032-1.746 0-2.98-.382-3.702-1.152-.723-.766-1.083-2.067-1.083-3.902V46.66c0-.987-.146-1.725-.436-2.21-.29-.477-.79-.823-1.502-1.035a.977.977 0 0 1-.62-.904c0-.406.25-.754.602-.9v-.002c1.302-.345 1.955-1.368 1.955-3.07v-6.67c0-1.66.37-2.853 1.118-3.588.744-.733 1.968-1.1 3.668-1.1h.157c.533.002.678.436.678.97 0 .533-.146.667-.678.673v.01c-1.278.022-2.14.24-2.584.652-.446.41-.666 1.207-.666 2.385v6.8c0 .768-.102 1.474-.302 2.118-.233.724-.83 1.325-1.784 1.804.767.41 1.307.91 1.617 1.5.31.588.47 1.424.47 2.5v6.553c0 1.27.208 2.11.632 2.526.42.42 1.294.634 2.618.643v.015c.513.014.64.133.64.65zM92.425 56.328v-.015c1.324-.008 2.196-.224 2.618-.642.424-.415.635-1.255.635-2.525v-6.552c0-1.077.156-1.913.467-2.5.31-.59.85-1.09 1.618-1.5-.958-.48-1.552-1.08-1.786-1.805-.2-.644-.3-1.35-.3-2.118v-6.8c0-1.178-.22-1.974-.667-2.385-.442-.412-1.306-.63-2.584-.65v-.012c-.533-.006-.966-.14-.966-.672 0-.534.433-.967.966-.97h.155c1.702 0 2.926.367 3.672 1.1.744.735 1.117 1.93 1.117 3.588v6.67c0 1.702.65 2.725 1.952 3.07v.002c.35.146.6.495.6.9 0 .412-.258.76-.618.905-.712.21-1.213.558-1.502 1.035-.29.486-.433 1.223-.433 2.21v6.256c0 1.834-.363 3.136-1.087 3.902-.723.77-1.956 1.15-3.703 1.15-.22 0 .12-.008-.155-.03v-.01a.953.953 0 0 1-.93-.95c0-.517.415-.636.93-.65z"/><path fill="#FFF" d="M69.693 39.6c1.013 0 1.878-.355 2.592-1.062.716-.707 1.074-1.557 1.074-2.55 0-.985-.36-1.83-1.078-2.533a3.573 3.573 0 0 0-2.59-1.054 3.562 3.562 0 0 0-2.58 1.052c-.713.7-1.068 1.547-1.068 2.537 0 .992.355 1.842 1.067 2.548a3.54 3.54 0 0 0 2.583 1.06zm-1.47-5.085c.405-.41.896-.615 1.47-.615a1.99 1.99 0 0 1 1.477.612c.404.41.606.9.606 1.478 0 .588-.202 1.086-.606 1.492a1.99 1.99 0 0 1-1.476.613 1.998 1.998 0 0 1-1.47-.613c-.407-.405-.61-.9-.61-1.478 0-.582.202-1.077.61-1.49zm19.123-.52c.998 0 1.65.443 1.877 1.26H85.5c.295-.817.934-1.26 1.846-1.26zm2.52 12.79c-.656-.686-1.468-1.028-2.427-1.028-.688 0-1.29.185-1.81.552-.13.098-.238.186-.327.26v-2.45a.798.798 0 0 0-1.594 0v8.09a.747.747 0 0 0 1.493 0h.008v-.216c.33.356.696.608 1.11.753.37.138.754.208 1.145.208.957 0 1.762-.348 2.412-1.048.653-.698.977-1.555.977-2.575 0-1.01-.33-1.858-.987-2.546zm-1.257 3.992a1.89 1.89 0 0 1-1.405.578c-.558 0-1.024-.187-1.403-.56-.377-.374-.567-.838-.567-1.394 0-.603.184-1.097.55-1.478.364-.38.837-.57 1.42-.57a1.89 1.89 0 0 1 1.4.575c.377.38.567.854.567 1.42 0 .57-.187 1.047-.563 1.43zm-7.844-4.2v5.634a.756.756 0 0 1-.764.747.758.758 0 0 1-.762-.75c0-.026.004-.05.007-.077v-.31c-.14.185-.252.32-.333.41-.445.483-1.08.727-1.91.727-.55 0-1.048-.12-1.495-.35-.448-.236-.777-.546-.985-.938-.186-.35-.3-.773-.34-1.277-.014-.172-.02-.617-.02-1.334v-2.48c0-.442.362-.797.81-.797.45 0 .815.355.815.796a.83.83 0 0 1-.013.13v2.35c0 .467.004.75.013.85 0 .324.062.614.184.872.208.448.644.676 1.308.676 1.238 0 1.86-.8 1.86-2.397v-2.48c0-.44.362-.796.81-.796a.8.8 0 0 1 .814.794zm.457-16.52a.785.785 0 0 0-.783.788v2.37c-.378-.326-.75-.546-1.12-.666a3.206 3.206 0 0 0-.99-.148c-.956 0-1.757.342-2.404 1.027s-.97 1.534-.97 2.55c0 1.017.322 1.874.966 2.574.643.7 1.432 1.046 2.37 1.046.78 0 1.42-.218 1.933-.654.118-.103.215-.203.295-.305v.16h.006c0 .41.33.746.74.746.405 0 .738-.335.738-.746v-7.955c0-.436-.35-.79-.78-.79zm-1.285 7.37c-.366.38-.832.57-1.39.57-.54 0-.997-.19-1.37-.573a1.942 1.942 0 0 1-.56-1.408c0-.575.186-1.054.557-1.44.372-.388.827-.582 1.374-.582.574 0 1.04.187 1.402.56.36.374.542.856.542 1.448 0 .57-.186 1.046-.556 1.426zm-7.762 14.56a.73.73 0 0 1-.728.727h-4.022a.726.726 0 0 1-.725-.728c0-.403.324-.727.726-.727h1.23v-6.19h-1.23v-.007a.726.726 0 0 1-.725-.728c0-.402.324-.728.726-.728h2.088c.4 0 .725.326.725.728l-.002.032v6.892h1.21c.402 0 .728.323.728.726zm-12.06-4.106c-.387.403-.582.932-.582 1.462s.195 1.06.583 1.463a1.93 1.93 0 0 0 2.81 0c.29-.3.95-.3 1.264 0s.314.792 0 1.094a3.805 3.805 0 0 1-2.645 1.057 3.81 3.81 0 0 1-2.648-1.058 3.536 3.536 0 0 1 0-5.115c1.46-1.407 3.836-1.407 5.294 0a.757.757 0 0 1 0 1.096c-.31.3-.972.3-1.262 0a1.933 1.933 0 0 0-2.81 0zm-.024-13.355c-.383.403-.576.93-.576 1.46 0 .53.193 1.06.576 1.464a1.9 1.9 0 0 0 2.785 0c.288-.302.94-.302 1.25 0a.76.76 0 0 1 0 1.09 3.734 3.734 0 0 1-2.62 1.06 3.73 3.73 0 0 1-2.62-1.06 3.554 3.554 0 0 1 0-5.108c1.445-1.41 3.796-1.41 5.24 0 .312.3.312.788 0 1.093-.307.3-.962.3-1.25 0a1.903 1.903 0 0 0-2.785 0zm30.322 4.08a.786.786 0 0 0 0-1.13c-.32-.314-.91-.314-1.207 0l.003-.004c-.384.34-.914.515-1.38.528h-.254c-.55 0-1.016-.127-1.39-.382a1.622 1.622 0 0 1-.7-1.045H90a.924.924 0 0 0 .91-.935l-.003-.064c0-.006.004-.012.004-.015a3.588 3.588 0 0 0-.967-2.087c-.667-.712-1.508-1.067-2.524-1.067-.994 0-1.835.354-2.547 1.057-.712.705-1.068 1.562-1.068 2.572 0 1.032.345 1.884 1.032 2.558.687.674 1.56 1.01 2.62 1.01H87.804c.948 0 1.896-.337 2.632-1.015l-.023.023z"/><g fill="#36A549"><path d="M14.81 88.04c0-.377.196-.586.572-.586h.627c.39 0 .584.21.584.585v5.74c0 1.336.864 2.09 2.188 2.09 1.323 0 2.2-.753 2.2-2.09v-5.74c0-.377.196-.586.572-.586h.64c.377 0 .572.21.572.585v5.753c0 2.215-1.588 3.72-3.97 3.72-2.397 0-3.985-1.505-3.985-3.72V88.04zM24.938 88.04c0-.377.195-.586.57-.586h.753c.335 0 .544.11.698.39l3.51 5.322c.376.585.822 1.532.822 1.532h.028s-.098-.947-.098-1.532V88.04c0-.377.21-.586.585-.586h.627c.376 0 .585.21.585.585v8.72c0 .39-.21.585-.585.585h-.752c-.307 0-.53-.11-.683-.39l-3.525-5.308c-.362-.585-.822-1.533-.822-1.533h-.028s.098.947.098 1.533v5.113c0 .39-.195.585-.57.585h-.642c-.376 0-.57-.195-.57-.585v-8.72zM35.287 88.04c0-.377.195-.586.57-.586h.642c.375 0 .57.21.57.585v8.72c0 .39-.195.585-.57.585h-.642c-.376 0-.57-.195-.57-.585v-8.72zM41.542 89h-2.66c-.39 0-.586-.195-.586-.57v-.39c0-.377.195-.586.585-.586h7.105c.376 0 .57.21.57.585v.39c0 .375-.194.57-.57.57h-2.66v7.76c0 .39-.196.585-.586.585h-.628c-.376 0-.57-.195-.57-.585V89zM47.782 88.04c0-.377.195-.586.57-.586h4.766c.376 0 .585.21.585.585v.39c0 .375-.21.57-.585.57h-3.552v2.59h2.758c.376 0 .585.196.585.572v.39c0 .39-.21.585-.586.585h-2.758v2.66h3.775c.377 0 .586.196.586.572v.39c0 .39-.21.584-.585.584h-4.987c-.376 0-.57-.195-.57-.585v-8.72zM55.54 88.04c0-.377.195-.586.57-.586h2.8c3.052 0 5.044 1.81 5.044 4.932s-1.992 4.96-5.043 4.96h-2.8c-.375 0-.57-.196-.57-.586v-8.72zm3.273 7.758c2.006 0 3.288-1.184 3.288-3.413 0-2.2-1.31-3.385-3.287-3.385h-1.49v6.798h1.49zM69.163 88.04c0-.377.195-.586.57-.586h.642c.376 0 .57.21.57.585v3.44h1.296l2.09-3.622c.154-.278.363-.404.684-.404h.683c.46 0 .627.306.404.696l-2.395 4.012v.028l2.577 4.458c.237.404.056.697-.404.697h-.767c-.32 0-.528-.125-.682-.404l-2.187-3.914h-1.294v3.734c0 .39-.195.585-.57.585h-.642c-.376 0-.57-.195-.57-.585v-8.72zM77.91 88.04c0-.377.196-.586.572-.586h.64c.377 0 .572.21.572.585v8.72c0 .39-.195.585-.57.585h-.642c-.376 0-.57-.195-.57-.585v-8.72zM81.978 88.04c0-.377.195-.586.57-.586h.753c.335 0 .544.11.698.39l3.51 5.322c.376.585.822 1.532.822 1.532h.028s-.098-.947-.098-1.532V88.04c0-.377.21-.586.585-.586h.627c.376 0 .585.21.585.585v8.72c0 .39-.21.585-.585.585h-.752c-.307 0-.53-.11-.683-.39l-3.525-5.308c-.362-.585-.822-1.533-.822-1.533h-.028s.098.947.098 1.533v5.113c0 .39-.195.585-.57.585h-.642c-.376 0-.57-.195-.57-.585v-8.72zM96.855 87.286c1.63 0 2.814.613 3.232.906.307.237.334.488.125.808l-.25.39c-.21.32-.46.348-.808.153-.432-.25-1.143-.613-2.2-.613-2.16 0-3.358 1.56-3.358 3.427 0 2.076 1.463 3.51 3.302 3.51 1.658 0 2.507-1.086 2.507-1.086v-1.1h-.947c-.376 0-.585-.21-.585-.585v-.375c0-.39.21-.585.585-.585h1.98c.375 0 .57.195.57.585v4.04c0 .39-.195.585-.57.585h-.35c-.376 0-.57-.195-.57-.474v-.236c0-.125.013-.237.013-.237h-.027s-.99 1.114-2.897 1.114c-2.62 0-4.862-2.047-4.862-5.07-.002-2.953 2.158-5.154 5.11-5.154zM102.83 88.04c0-.377.195-.586.57-.586h2.8c3.052 0 5.044 1.81 5.044 4.932s-1.992 4.96-5.043 4.96h-2.8c-.375 0-.57-.196-.57-.586v-8.72zm3.274 7.758c2.006 0 3.288-1.184 3.288-3.413 0-2.2-1.31-3.385-3.288-3.385h-1.49v6.798h1.49zM117.498 87.286c2.995 0 5.113 2.215 5.113 5.043 0 2.91-2.117 5.18-5.112 5.18s-5.113-2.27-5.113-5.18c0-2.83 2.118-5.044 5.113-5.044zm0 8.582c1.895 0 3.26-1.533 3.26-3.54 0-1.922-1.366-3.398-3.26-3.398s-3.26 1.477-3.26 3.4c0 2.005 1.366 3.538 3.26 3.538zM124.7 88.01c.04-.36.236-.556.598-.556h.878c.334 0 .543.153.655.474l1.77 4.416c.223.585.5 1.45.5 1.45h.03s.264-.865.487-1.45l1.77-4.416c.11-.32.32-.474.668-.474h.864c.36 0 .57.195.598.557l.71 8.736c.028.376-.167.6-.557.6h-.626c-.362 0-.57-.196-.6-.558l-.375-4.974c-.043-.655-.015-1.532-.015-1.532h-.028s-.307.96-.53 1.532l-1.434 3.372c-.11.306-.32.46-.655.46h-.585c-.35 0-.558-.154-.67-.46l-1.42-3.372c-.223-.57-.543-1.546-.543-1.546h-.028s.028.892-.014 1.546l-.376 4.974c-.028.362-.223.557-.6.557h-.626c-.39 0-.585-.223-.558-.6l.71-8.734z"/></g><path fill="none" stroke="#CCCBCB" stroke-miterlimit="10" d="M219.25 1h104v123h-104z"/><path fill="#339847" d="M307.73 41.703c0 19.232-15.594 34.824-34.823 34.824-19.233 0-34.824-15.592-34.824-34.824 0-19.233 15.59-34.823 34.824-34.823 19.23 0 34.823 15.59 34.823 34.823z"/><path fill="#B1D9AD" d="M255.533 55.817c0 .52-.127.938-.642.95v.01c-.275.02.066.032-.155.032-1.747 0-2.98-.385-3.703-1.152s-1.084-2.07-1.084-3.9V45.5c0-.988-.145-1.725-.435-2.21-.29-.48-.79-.824-1.502-1.037a.975.975 0 0 1-.617-.902c0-.408.25-.754.6-.9v-.004c1.302-.344 1.955-1.368 1.955-3.07v-6.67c0-1.656.37-2.85 1.118-3.585.744-.734 1.968-1.102 3.67-1.102h.155v.002c.533.003.678.438.678.97 0 .535-.145.67-.677.673v.01c-1.277.023-2.14.24-2.584.65-.447.412-.667 1.208-.667 2.388v6.802a7.11 7.11 0 0 1-.303 2.117c-.233.722-.83 1.323-1.784 1.8.767.412 1.306.914 1.617 1.502.31.59.47 1.423.47 2.503v6.552c0 1.268.207 2.108.63 2.526.423.417 1.296.63 2.62.642v.013c.516.013.643.133.643.65zM290.92 55.167v-.013c1.323-.01 2.196-.224 2.618-.642.424-.418.635-1.26.635-2.526v-6.552c0-1.08.156-1.913.467-2.503.31-.587.85-1.088 1.62-1.5-.96-.48-1.554-1.08-1.787-1.802a7.12 7.12 0 0 1-.3-2.117v-6.8c0-1.18-.222-1.976-.668-2.387-.442-.41-1.306-.627-2.584-.65v-.01c-.53-.005-.965-.14-.965-.674 0-.533.434-.967.966-.97v-.003h.158c1.7 0 2.924.368 3.67 1.103.743.735 1.118 1.93 1.118 3.586v6.67c0 1.702.65 2.725 1.952 3.07v.002a.974.974 0 0 1-.018 1.804c-.71.213-1.212.558-1.5 1.036-.29.486-.433 1.223-.433 2.21v6.257c0 1.832-.363 3.134-1.086 3.9s-1.955 1.152-3.7 1.152c-.223 0 .12-.01-.157-.033v-.01a.95.95 0 0 1-.93-.95c-.004-.513.41-.633.926-.647z"/><path fill="#FFF" d="M268.188 38.438c1.013 0 1.877-.354 2.59-1.06.717-.708 1.075-1.556 1.075-2.55 0-.986-.36-1.833-1.077-2.535a3.567 3.567 0 0 0-2.59-1.053c-1.006 0-1.868.35-2.58 1.05-.713.702-1.07 1.546-1.07 2.537 0 .994.357 1.842 1.07 2.55a3.54 3.54 0 0 0 2.582 1.06zm-1.47-5.084c.405-.41.895-.615 1.47-.615a1.99 1.99 0 0 1 1.477.61c.404.407.606.9.606 1.477 0 .588-.2 1.086-.605 1.492a1.99 1.99 0 0 1-1.476.61 2 2 0 0 1-1.473-.61c-.406-.407-.61-.9-.61-1.48s.204-1.075.61-1.486zm19.122-.52c.998 0 1.65.444 1.878 1.26h-3.723c.294-.817.934-1.26 1.845-1.26zm2.52 12.792c-.656-.687-1.467-1.03-2.426-1.03-.687 0-1.288.184-1.81.553a7.75 7.75 0 0 0-.325.26v-2.45a.798.798 0 0 0-.8-.797.795.795 0 0 0-.795.798v8.09a.746.746 0 0 0 1.494 0h.006v-.216c.33.357.696.608 1.11.753.37.138.754.208 1.144.208.957 0 1.762-.348 2.412-1.05.654-.697.977-1.555.977-2.574-.003-1.007-.33-1.856-.99-2.544zm-1.257 3.99c-.376.385-.843.577-1.404.577-.56 0-1.025-.184-1.404-.56a1.89 1.89 0 0 1-.567-1.395c0-.604.183-1.098.548-1.478s.84-.572 1.42-.572c.557 0 1.024.193 1.402.576.377.382.567.855.567 1.422 0 .57-.187 1.045-.564 1.43zm-7.842-4.2v5.633a.755.755 0 0 1-.763.745.756.756 0 0 1-.762-.748c0-.027.004-.052.007-.077v-.31c-.14.183-.252.317-.334.407-.443.484-1.08.728-1.91.728a3.2 3.2 0 0 1-1.494-.35c-.446-.235-.775-.547-.984-.938-.186-.348-.3-.77-.34-1.277-.014-.172-.02-.616-.02-1.332v-2.482c0-.44.362-.797.81-.797.45 0 .814.355.814.795a.808.808 0 0 1-.013.13V47.9c0 .463.005.75.014.847 0 .323.062.613.184.87.21.45.644.677 1.308.677 1.238 0 1.86-.8 1.86-2.396v-2.483c0-.44.363-.796.81-.796.45 0 .815.357.815.796zm.457-16.522a.787.787 0 0 0-.783.79v2.37c-.378-.324-.75-.544-1.12-.665a3.204 3.204 0 0 0-.988-.148c-.957 0-1.76.34-2.406 1.027-.646.682-.97 1.532-.97 2.547 0 1.02.322 1.875.965 2.576.644.7 1.433 1.046 2.372 1.046.778 0 1.42-.218 1.932-.654.117-.102.214-.204.294-.307v.16h.006c0 .412.33.747.74.747a.745.745 0 0 0 .738-.748v-7.955c0-.436-.35-.79-.78-.79zm-1.283 7.373c-.367.38-.832.57-1.39.57-.54 0-.998-.19-1.372-.572a1.943 1.943 0 0 1-.56-1.41c0-.573.186-1.053.558-1.44a1.83 1.83 0 0 1 1.373-.582c.576 0 1.043.188 1.403.562.36.375.542.857.542 1.45 0 .566-.185 1.043-.554 1.422zm-7.764 14.557a.728.728 0 0 1-.727.728h-4.022a.727.727 0 0 1 0-1.454h1.232v-6.19h-1.23v-.006a.727.727 0 0 1 0-1.454h2.087c.4 0 .725.326.725.728l-.002.032h.002v6.89h1.208c.4 0 .727.324.727.726zm-12.058-4.105c-.388.403-.583.932-.583 1.462s.194 1.06.582 1.463c.775.81 2.036.81 2.812 0 .29-.3.95-.3 1.262 0 .313.3.313.79 0 1.092a3.796 3.796 0 0 1-2.646 1.058c-.96 0-1.918-.35-2.648-1.058a3.534 3.534 0 0 1 0-5.112c1.46-1.41 3.836-1.41 5.294 0a.754.754 0 0 1 0 1.093c-.31.3-.972.3-1.262 0a1.935 1.935 0 0 0-2.812 0zm-.026-13.357a2.12 2.12 0 0 0-.575 1.463c0 .53.193 1.058.576 1.463.77.808 2.02.805 2.785 0 .29-.305.94-.305 1.253 0a.76.76 0 0 1 0 1.09A3.734 3.734 0 0 1 260 38.438c-.947 0-1.896-.35-2.618-1.056a3.555 3.555 0 0 1 0-5.11c1.444-1.41 3.796-1.41 5.24 0 .31.302.31.79 0 1.093-.308.3-.963.3-1.25 0a1.906 1.906 0 0 0-2.786 0zm30.322 4.083a.785.785 0 0 0 0-1.133c-.32-.312-.91-.312-1.207 0l.004-.002a2.22 2.22 0 0 1-1.38.526h-.255c-.552 0-1.017-.125-1.39-.38a1.626 1.626 0 0 1-.7-1.047h4.513c.503 0 .91-.42.91-.935 0-.023-.003-.045-.003-.066 0-.006.004-.012.004-.018a3.567 3.567 0 0 0-.968-2.085c-.667-.712-1.508-1.067-2.523-1.067-.993 0-1.834.354-2.546 1.056-.712.705-1.068 1.562-1.068 2.573 0 1.03.343 1.884 1.03 2.556.688.676 1.56 1.012 2.62 1.012H286.297c.947 0 1.895-.337 2.632-1.015l-.022.023z"/><g fill="#36A549"><path d="M248.56 86.878c0-.376.194-.585.57-.585h.627c.39 0 .585.21.585.585v5.74c0 1.337.864 2.09 2.188 2.09 1.323 0 2.2-.752 2.2-2.09v-5.74c0-.376.196-.585.572-.585h.64c.377 0 .572.21.572.585v5.754c0 2.215-1.588 3.72-3.97 3.72-2.397 0-3.985-1.505-3.985-3.72v-5.754zM258.686 86.878c0-.376.195-.585.57-.585h.753c.333 0 .542.11.696.39l3.51 5.322c.376.585.822 1.532.822 1.532h.028s-.098-.947-.098-1.532v-5.127c0-.376.21-.585.585-.585h.627c.376 0 .585.21.585.585V95.6c0 .39-.21.585-.585.585h-.752c-.307 0-.53-.11-.683-.39l-3.525-5.308c-.362-.585-.822-1.533-.822-1.533h-.028s.098.947.098 1.533V95.6c0 .39-.195.585-.57.585h-.642c-.376 0-.57-.195-.57-.585v-8.722zM269.035 86.878c0-.376.195-.585.57-.585h.642c.376 0 .57.21.57.585V95.6c0 .39-.194.585-.57.585h-.64c-.377 0-.572-.195-.572-.585v-8.722zM275.29 87.84h-2.66c-.39 0-.586-.195-.586-.57v-.39c0-.377.195-.586.585-.586h7.103c.376 0 .57.21.57.585v.39c0 .375-.194.57-.57.57h-2.66v7.76c0 .39-.196.585-.586.585h-.627c-.376 0-.57-.195-.57-.585v-7.76zM281.53 86.878c0-.376.195-.585.57-.585h4.766c.376 0 .585.21.585.585v.39c0 .376-.208.57-.584.57h-3.552v2.592h2.758c.376 0 .585.195.585.57v.39c0 .39-.21.586-.585.586h-2.758v2.66h3.775c.375 0 .584.196.584.572v.39c0 .39-.21.585-.585.585h-4.99c-.375 0-.57-.195-.57-.585v-8.72zM289.288 86.878c0-.376.195-.585.57-.585h2.8c3.052 0 5.044 1.81 5.044 4.932s-1.992 4.96-5.043 4.96h-2.8c-.377 0-.572-.196-.572-.586v-8.722zm3.274 7.76c2.006 0 3.288-1.184 3.288-3.413 0-2.2-1.31-3.385-3.288-3.385h-1.49v6.798h1.49zM240.536 103.594c0-.376.195-.585.57-.585h.642c.376 0 .57.208.57.584v3.44h1.296l2.09-3.62c.153-.28.362-.405.683-.405h.683c.46 0 .627.306.404.695l-2.396 4.012v.028l2.577 4.458c.237.404.056.697-.404.697h-.766c-.32 0-.53-.125-.683-.404l-2.186-3.915h-1.295v3.735c0 .39-.196.585-.572.585h-.64c-.377 0-.572-.195-.572-.585v-8.72zM249.283 103.594c0-.376.195-.585.57-.585h.642c.376 0 .57.208.57.584v8.72c0 .39-.194.586-.57.586h-.64c-.377 0-.572-.195-.572-.585v-8.72zM253.35 103.594c0-.376.196-.585.572-.585h.752c.334 0 .543.11.697.39l3.51 5.32c.377.586.823 1.533.823 1.533h.028s-.097-.947-.097-1.532v-5.126c0-.376.21-.585.585-.585h.627c.376 0 .585.208.585.584v8.72c0 .39-.21.586-.585.586h-.752c-.307 0-.53-.11-.683-.39l-3.525-5.308c-.362-.585-.822-1.533-.822-1.533h-.028s.098.946.098 1.532v5.113c0 .39-.195.585-.57.585h-.642c-.375 0-.57-.195-.57-.585v-8.72zM268.228 102.84c1.63 0 2.814.614 3.232.907.307.237.334.488.125.808l-.25.39c-.21.32-.46.348-.808.153a4.197 4.197 0 0 0-2.2-.613c-2.16 0-3.358 1.56-3.358 3.427 0 2.076 1.462 3.51 3.3 3.51 1.66 0 2.508-1.086 2.508-1.086v-1.1h-.947c-.375 0-.584-.21-.584-.586v-.376c0-.39.21-.585.585-.585h1.98c.376 0 .57.194.57.584v4.04c0 .39-.194.585-.57.585h-.35c-.375 0-.57-.196-.57-.475v-.237c0-.125.014-.237.014-.237h-.028s-.99 1.115-2.897 1.115c-2.62 0-4.863-2.048-4.863-5.07-.002-2.953 2.157-5.154 5.11-5.154zM274.203 103.594c0-.376.195-.585.57-.585h2.8c3.052 0 5.044 1.81 5.044 4.93s-1.992 4.96-5.043 4.96h-2.8c-.376 0-.57-.195-.57-.585v-8.72zm3.273 7.76c2.006 0 3.288-1.184 3.288-3.413 0-2.2-1.31-3.384-3.288-3.384h-1.49v6.798h1.49zM288.87 102.84c2.996 0 5.114 2.216 5.114 5.044 0 2.912-2.118 5.182-5.113 5.182s-5.112-2.27-5.112-5.182c0-2.827 2.117-5.043 5.113-5.043zm0 8.583c1.896 0 3.26-1.533 3.26-3.54 0-1.922-1.365-3.398-3.26-3.398s-3.26 1.477-3.26 3.4c0 2.006 1.366 3.538 3.26 3.538zM296.07 103.566c.043-.362.238-.557.6-.557h.878c.334 0 .543.152.655.473l1.77 4.416c.222.584.5 1.448.5 1.448h.028s.266-.864.49-1.45l1.768-4.415c.112-.32.32-.474.67-.474h.863c.363 0 .572.194.6.556l.71 8.735c.028.377-.167.6-.557.6h-.627c-.362 0-.57-.195-.6-.557l-.375-4.974c-.04-.656-.013-1.533-.013-1.533h-.028s-.308.96-.53 1.532l-1.435 3.37c-.11.307-.32.46-.655.46h-.585c-.35 0-.558-.153-.67-.46l-1.42-3.37c-.223-.572-.543-1.547-.543-1.547h-.028s.028.892-.014 1.546l-.376 4.973c-.028.362-.223.557-.6.557h-.625c-.39 0-.586-.223-.56-.6l.71-8.734z"/></g><path d="M2.726 45.263c0-2.342 3.215-2.676 3.215-4.22 0-.65-.49-1.086-1.18-1.086-.594 0-.984.38-1.16.604-.13.14-.28.196-.438.066l-.167-.13c-.158-.12-.195-.26-.083-.418.25-.353.855-.985 1.915-.985 1.2 0 2.072.752 2.072 1.886 0 2.155-3.142 2.49-3.17 3.985h2.964c.195 0 .306.103.306.307v.186c0 .205-.112.307-.307.307H3.05c-.185 0-.325-.102-.325-.307v-.195zM8.028 44.743l.148-.205c.12-.158.26-.158.418-.037.204.196.595.502 1.208.502.77 0 1.44-.53 1.44-1.33 0-.79-.65-1.347-1.496-1.347-.41 0-.734.15-.9.232a.57.57 0 0 1-.41.02l-.083-.03c-.158-.064-.242-.185-.223-.36l.28-2.696c.018-.194.12-.287.315-.287h2.713c.205 0 .307.102.307.307v.186c0 .195-.102.307-.307.307H9.236l-.158 1.384c-.01.195-.046.344-.046.344h.018s.363-.203.846-.203c1.385 0 2.286.957 2.286 2.137 0 1.264-1.004 2.21-2.323 2.21a2.563 2.563 0 0 1-1.804-.714c-.15-.12-.15-.278-.028-.417zM13.015 40.468c0-.752.632-1.375 1.413-1.375.77 0 1.413.623 1.413 1.375 0 .762-.64 1.375-1.412 1.375-.782 0-1.413-.613-1.413-1.375zm5.027-1.087a.427.427 0 0 1 .372-.176h.167c.26 0 .345.167.187.372l-4.59 6.003a.423.423 0 0 1-.373.185h-.167c-.26 0-.344-.167-.186-.372l4.592-6.012zm-2.927 1.088a.694.694 0 0 0-.688-.697.69.69 0 0 0-.688.698c0 .39.296.688.687.688.38 0 .688-.298.688-.688zm2.676 2.657c.782 0 1.414.623 1.414 1.375 0 .762-.632 1.375-1.413 1.375-.78 0-1.402-.613-1.402-1.375 0-.752.623-1.375 1.403-1.375zm0 2.063c.392 0 .69-.297.69-.688a.688.688 0 0 0-.69-.697.686.686 0 0 0-.677.697c0 .39.297.688.678.688z"/><g><path d="M131.96 45.263c0-2.342 3.216-2.676 3.216-4.22 0-.65-.492-1.086-1.18-1.086-.595 0-.985.38-1.162.604-.13.14-.28.196-.437.066l-.167-.13c-.158-.12-.195-.26-.083-.418.25-.353.855-.985 1.915-.985 1.2 0 2.072.752 2.072 1.886 0 2.155-3.14 2.49-3.17 3.985h2.965c.194 0 .306.103.306.307v.186c0 .205-.112.307-.307.307h-3.644c-.186 0-.326-.102-.326-.307v-.195zM137.264 44.743l.148-.205c.12-.158.26-.158.418-.037.204.196.595.502 1.208.502.77 0 1.44-.53 1.44-1.33 0-.79-.65-1.347-1.496-1.347-.41 0-.734.15-.9.232a.57.57 0 0 1-.41.02l-.083-.03c-.16-.064-.243-.185-.224-.36l.28-2.696c.018-.194.12-.287.315-.287h2.714c.205 0 .307.102.307.307v.186c0 .195-.1.307-.306.307h-2.202l-.158 1.384c-.01.195-.046.344-.046.344h.02s.362-.203.845-.203c1.385 0 2.286.957 2.286 2.137 0 1.264-1.005 2.21-2.324 2.21a2.563 2.563 0 0 1-1.803-.714c-.15-.12-.15-.278-.03-.417zM142.25 40.468c0-.752.632-1.375 1.413-1.375.77 0 1.413.623 1.413 1.375 0 .762-.64 1.375-1.413 1.375-.78 0-1.413-.613-1.413-1.375zm5.027-1.087a.427.427 0 0 1 .372-.176h.166c.26 0 .344.167.186.372l-4.59 6.003a.423.423 0 0 1-.373.185h-.168c-.26 0-.344-.167-.186-.372l4.59-6.012zm-2.927 1.088a.694.694 0 0 0-.688-.697.69.69 0 0 0-.688.698c0 .39.297.688.688.688.38 0 .688-.298.688-.688zm2.676 2.657c.78 0 1.413.623 1.413 1.375 0 .762-.633 1.375-1.414 1.375-.78 0-1.403-.613-1.403-1.375a1.39 1.39 0 0 1 1.403-1.375zm0 2.063c.39 0 .688-.297.688-.688a.688.688 0 0 0-.688-.697.686.686 0 0 0-.678.697c0 .39.298.688.678.688z"/></g><path fill="none" stroke="#000" stroke-miterlimit="10" d="M20.25 38.5v10M124.25 38.5v10"/><g stroke="#000" stroke-miterlimit="10"><path fill="none" d="M164.75 46h39"/><path d="M203.053 43.706l-5.803 2.95v-5.902z"/></g></svg>