<?xml version="1.0" encoding="utf-8"?>
<!-- Generator: Adobe Illustrator 16.0.0, SVG Export Plug-In . SVG Version: 6.00 Build 0)  -->
<!DOCTYPE svg PUBLIC "-//W3C//DTD SVG 1.1//EN" "http://www.w3.org/Graphics/SVG/1.1/DTD/svg11.dtd">
<svg version="1.1" id="Layer_1" xmlns="http://www.w3.org/2000/svg" xmlns:xlink="http://www.w3.org/1999/xlink" x="0px" y="0px"
	 width="185.574px" height="166.25px" viewBox="0 0 185.574 166.25" enable-background="new 0 0 185.574 166.25"
	 xml:space="preserve">
<g>
	
		<rect x="27.681" y="18.542" opacity="0.6" fill="none" stroke="#CCCBCB" stroke-miterlimit="10" enable-background="new    " width="130.108" height="130.108"/>
	<line fill="none" stroke="#000000" stroke-miterlimit="10" x1="158.645" y1="85.308" x2="28.537" y2="85.308"/>
	<g>
		<path d="M2.599,98.036c0-0.238,0.12-0.357,0.356-0.357h1.33V92.75c0-0.239,0.01-0.465,0.01-0.465h-0.02
			c0,0-0.098,0.173-0.336,0.411l-0.485,0.476c-0.173,0.163-0.346,0.163-0.499-0.011l-0.15-0.151c-0.173-0.173-0.163-0.347,0-0.509
			l1.384-1.353c0.13-0.122,0.261-0.174,0.431-0.174h0.346c0.238,0,0.356,0.117,0.356,0.354v6.35h1.32
			c0.228,0,0.356,0.119,0.356,0.354v0.217c0,0.238-0.13,0.354-0.356,0.354H2.957c-0.238,0-0.356-0.116-0.356-0.354v-0.214H2.599z"/>
		<path d="M7.85,94.779c0-2.194,0.671-3.935,2.705-3.935c2.043,0,2.703,1.74,2.703,3.935c0,2.207-0.66,3.958-2.703,3.958
			C8.519,98.737,7.85,96.986,7.85,94.779z M12.153,94.779c0-1.654-0.346-2.952-1.601-2.952c-1.245,0-1.601,1.298-1.601,2.952
			c0,1.666,0.356,2.973,1.601,2.973C11.808,97.756,12.153,96.445,12.153,94.779z"/>
		<path d="M14.396,92.444c0-0.876,0.735-1.6,1.643-1.6c0.897,0,1.644,0.724,1.644,1.6c0,0.888-0.747,1.6-1.644,1.6
			C15.132,94.044,14.396,93.332,14.396,92.444z M20.248,91.179c0.108-0.141,0.238-0.204,0.433-0.204h0.195
			c0.303,0,0.399,0.194,0.216,0.432l-5.343,6.988c-0.118,0.15-0.237,0.214-0.432,0.214h-0.194c-0.304,0-0.4-0.194-0.216-0.432
			L20.248,91.179z M16.84,92.444c0-0.443-0.356-0.811-0.799-0.811c-0.456,0-0.802,0.367-0.802,0.811
			c0,0.453,0.346,0.799,0.802,0.799C16.483,93.243,16.84,92.897,16.84,92.444z M19.954,95.539c0.91,0,1.644,0.722,1.644,1.6
			c0,0.888-0.735,1.6-1.644,1.6c-0.907,0-1.632-0.712-1.632-1.6C18.323,96.261,19.047,95.539,19.954,95.539z M19.954,97.938
			c0.456,0,0.802-0.346,0.802-0.801c0-0.444-0.346-0.812-0.802-0.812c-0.443,0-0.789,0.368-0.789,0.812
			C19.165,97.592,19.513,97.938,19.954,97.938z"/>
	</g>
	<g>
		<path d="M166.572,87.21c0-0.237,0.12-0.354,0.356-0.354h1.33v-4.932c0-0.237,0.011-0.464,0.011-0.464h-0.022
			c0,0-0.097,0.174-0.334,0.412l-0.486,0.476c-0.173,0.163-0.347,0.163-0.498-0.01l-0.15-0.152c-0.173-0.172-0.162-0.345,0-0.508
			l1.386-1.353c0.13-0.118,0.259-0.172,0.432-0.172h0.344c0.237,0,0.357,0.117,0.357,0.355v6.347h1.319
			c0.228,0,0.356,0.12,0.356,0.357v0.216c0,0.237-0.131,0.356-0.356,0.356h-3.687c-0.237,0-0.355-0.119-0.355-0.356V87.21H166.572z"
			/>
		<path d="M171.823,83.955c0-2.195,0.671-3.936,2.704-3.936c2.046,0,2.704,1.74,2.704,3.936c0,2.206-0.658,3.957-2.704,3.957
			C172.492,87.912,171.823,86.161,171.823,83.955z M176.127,83.955c0-1.653-0.347-2.953-1.6-2.953c-1.246,0-1.603,1.298-1.603,2.953
			c0,1.666,0.356,2.974,1.603,2.974C175.78,86.931,176.127,85.621,176.127,83.955z"/>
		<path d="M178.369,81.62c0-0.877,0.736-1.601,1.645-1.601c0.896,0,1.642,0.724,1.642,1.601c0,0.887-0.745,1.601-1.642,1.601
			C179.105,83.221,178.369,82.507,178.369,81.62z M184.22,80.354c0.109-0.141,0.239-0.206,0.435-0.206h0.194
			c0.305,0,0.399,0.196,0.218,0.435l-5.344,6.984c-0.118,0.152-0.239,0.218-0.431,0.218h-0.198c-0.301,0-0.399-0.196-0.214-0.432
			L184.22,80.354z M180.814,81.62c0-0.444-0.355-0.812-0.801-0.812c-0.455,0-0.799,0.367-0.799,0.812
			c0,0.453,0.344,0.798,0.799,0.798C180.459,82.418,180.814,82.073,180.814,81.62z M183.93,84.712c0.909,0,1.645,0.726,1.645,1.602
			c0,0.887-0.737,1.602-1.645,1.602c-0.906,0-1.632-0.715-1.632-1.602C182.298,85.438,183.02,84.712,183.93,84.712z M183.93,87.113
			c0.456,0,0.802-0.345,0.802-0.8c0-0.442-0.346-0.811-0.802-0.811c-0.443,0-0.79,0.368-0.79,0.811
			C183.14,86.769,183.488,87.113,183.93,87.113z"/>
	</g>
	<line fill="none" stroke="#000000" stroke-miterlimit="10" x1="29.393" y1="81.027" x2="29.393" y2="87.875"/>
	<line fill="none" stroke="#000000" stroke-miterlimit="10" x1="157.789" y1="81.027" x2="157.789" y2="87.875"/>
	<line fill="none" stroke="#000000" stroke-miterlimit="10" x1="94.446" y1="17.686" x2="94.446" y2="147.793"/>
	<line fill="none" stroke="#000000" stroke-miterlimit="10" x1="90.167" y1="146.938" x2="98.727" y2="146.938"/>
	<line fill="none" stroke="#000000" stroke-miterlimit="10" x1="90.167" y1="18.542" x2="98.727" y2="18.542"/>
	<g>
		<path fill="#339847" d="M148.275,81.898c0,29.887-24.228,54.117-54.115,54.117c-29.889,0-54.119-24.229-54.119-54.117
			s24.23-54.116,54.119-54.116C124.048,27.781,148.275,52.01,148.275,81.898z"/>
		<path fill="#B1D9AD" d="M67.161,103.834c0,0.808-0.197,1.455-0.998,1.475v0.011c-0.428,0.036,0.104,0.053-0.243,0.053
			c-2.711,0-4.629-0.593-5.752-1.787c-1.123-1.191-1.686-3.213-1.686-6.063v-9.72c0-1.535-0.225-2.682-0.675-3.435
			c-0.445-0.745-1.225-1.278-2.332-1.611c-0.559-0.221-0.962-0.763-0.962-1.403c0-0.632,0.387-1.173,0.936-1.4v-0.003
			c2.021-0.536,3.034-2.127,3.034-4.771V64.81c0-2.572,0.578-4.432,1.738-5.572c1.154-1.142,3.058-1.712,5.699-1.712h0.243v0.002
			c0.83,0.005,1.056,0.678,1.056,1.506c0,0.833-0.226,1.039-1.056,1.047v0.019c-1.987,0.034-3.324,0.37-4.017,1.011
			c-0.688,0.638-1.035,1.874-1.035,3.708v10.569c0,1.191-0.155,2.29-0.468,3.29c-0.36,1.125-1.287,2.058-2.773,2.801
			c1.192,0.638,2.03,1.417,2.516,2.333c0.483,0.917,0.726,2.212,0.726,3.888v10.181c0,1.972,0.327,3.279,0.983,3.93
			c0.656,0.648,2.014,0.976,4.068,0.996v0.02C66.964,102.845,67.161,103.032,67.161,103.834z"/>
		<path fill="#B1D9AD" d="M122.155,102.821v-0.021c2.055-0.018,3.41-0.348,4.065-0.998c0.659-0.648,0.987-1.957,0.987-3.927V87.694
			c0-1.675,0.243-2.971,0.726-3.887c0.484-0.916,1.32-1.692,2.514-2.334c-1.484-0.742-2.41-1.675-2.773-2.8
			c-0.312-1-0.466-2.101-0.466-3.291V64.815c0-1.832-0.345-3.068-1.037-3.708c-0.69-0.641-2.033-0.977-4.016-1.011v-0.019
			c-0.829-0.007-1.501-0.214-1.501-1.045s0.672-1.503,1.501-1.508v-0.001h0.241c2.646,0,4.547,0.569,5.705,1.712
			c1.157,1.14,1.735,2.997,1.735,5.572v10.367c0,2.645,1.012,4.235,3.035,4.771v0.004c0.548,0.229,0.936,0.768,0.936,1.399
			c0,0.641-0.399,1.182-0.963,1.403c-1.106,0.333-1.888,0.868-2.334,1.612c-0.447,0.754-0.674,1.897-0.674,3.434v9.72
			c0,2.853-0.56,4.874-1.683,6.064c-1.124,1.195-3.043,1.787-5.758,1.787c-0.345,0,0.19-0.017-0.241-0.052v-0.011
			c-0.803-0.021-1.448-0.668-1.448-1.478C120.707,103.032,121.352,102.845,122.155,102.821z"/>
		<path fill="#FFFFFF" d="M86.83,76.824c1.571,0,2.915-0.549,4.026-1.646c1.11-1.1,1.667-2.419,1.667-3.962
			c0-1.533-0.557-2.849-1.672-3.939c-1.116-1.09-2.455-1.638-4.023-1.638c-1.566,0-2.905,0.545-4.013,1.631
			c-1.107,1.091-1.662,2.408-1.662,3.948c0,1.542,0.555,2.862,1.662,3.962C83.925,76.275,85.264,76.824,86.83,76.824z
			 M84.541,68.924c0.63-0.635,1.39-0.955,2.287-0.955c0.904,0,1.668,0.315,2.293,0.949c0.629,0.634,0.941,1.399,0.941,2.298
			c0,0.912-0.312,1.685-0.941,2.318c-0.625,0.636-1.389,0.952-2.293,0.952c-0.897,0-1.657-0.316-2.287-0.952
			c-0.631-0.632-0.946-1.396-0.946-2.295C83.595,70.331,83.91,69.562,84.541,68.924z M114.261,68.116
			c1.548,0,2.562,0.686,2.919,1.96h-5.787C111.851,68.802,112.844,68.116,114.261,68.116z M118.177,87.995
			c-1.021-1.069-2.28-1.602-3.772-1.602c-1.062,0-1.999,0.288-2.812,0.859c-0.2,0.15-0.369,0.288-0.508,0.405v-3.806l0,0
			c0-0.687-0.552-1.24-1.237-1.24s-1.237,0.554-1.237,1.24v12.57l0,0c0,0.641,0.52,1.157,1.158,1.157
			c0.641,0,1.159-0.517,1.162-1.157h0.01v-0.337c0.512,0.555,1.087,0.944,1.723,1.172c0.578,0.214,1.175,0.322,1.782,0.322
			c1.486,0,2.734-0.543,3.748-1.63c1.012-1.085,1.518-2.418,1.518-4.004C119.711,90.383,119.201,89.062,118.177,87.995z
			 M116.224,94.194c-0.583,0.597-1.312,0.896-2.18,0.896c-0.866,0-1.595-0.289-2.179-0.871c-0.589-0.58-0.883-1.303-0.883-2.168
			c0-0.94,0.284-1.702,0.853-2.294c0.567-0.594,1.301-0.89,2.209-0.89c0.862,0,1.586,0.298,2.177,0.893
			c0.585,0.594,0.879,1.329,0.879,2.21C117.1,92.858,116.809,93.598,116.224,94.194z M104.036,87.67v8.755l0,0
			c-0.003,0.641-0.53,1.157-1.186,1.157c-0.653,0-1.186-0.521-1.186-1.162c0-0.042,0.007-0.082,0.011-0.119v-0.481
			c-0.218,0.284-0.39,0.495-0.519,0.632c-0.688,0.751-1.679,1.132-2.969,1.132c-0.856,0-1.629-0.182-2.324-0.543
			c-0.693-0.364-1.205-0.853-1.528-1.456c-0.291-0.54-0.466-1.204-0.529-1.986c-0.023-0.266-0.033-0.959-0.033-2.071v-3.854
			c0-0.003,0-0.003,0-0.003c0-0.685,0.566-1.237,1.265-1.237c0.695,0,1.263,0.553,1.263,1.237c0,0.071-0.01,0.137-0.021,0.203v3.653
			c0,0.726,0.005,1.164,0.021,1.321c0,0.503,0.095,0.952,0.286,1.354c0.32,0.699,1.001,1.05,2.032,1.05
			c1.923,0,2.888-1.242,2.888-3.723V87.67l0,0c0-0.685,0.564-1.237,1.262-1.237C103.468,86.433,104.036,86.985,104.036,87.67z
			 M104.745,61.994c-0.672,0-1.214,0.55-1.214,1.228l0,0v3.683c-0.587-0.506-1.169-0.85-1.744-1.038
			c-0.477-0.152-0.989-0.228-1.536-0.228c-1.484,0-2.733,0.533-3.738,1.596c-1.003,1.064-1.505,2.386-1.505,3.959
			c0,1.584,0.499,2.918,1.5,4.003c1.002,1.087,2.227,1.628,3.684,1.628c1.21,0,2.21-0.338,3.002-1.015
			c0.183-0.159,0.335-0.316,0.46-0.477v0.248h0.012l0,0c0,0.641,0.515,1.163,1.146,1.163c0.634,0,1.147-0.522,1.147-1.163l0,0l0,0
			V63.222l0,0C105.959,62.545,105.415,61.994,104.745,61.994z M102.752,73.45c-0.571,0.593-1.294,0.889-2.163,0.889
			c-0.836,0-1.548-0.296-2.132-0.892c-0.578-0.598-0.871-1.326-0.871-2.188c0-0.892,0.289-1.639,0.866-2.241
			c0.578-0.601,1.287-0.901,2.135-0.901c0.895,0,1.624,0.289,2.186,0.871c0.559,0.581,0.839,1.33,0.839,2.25
			C103.611,72.121,103.327,72.859,102.752,73.45z M90.686,96.072c0,0.623-0.506,1.132-1.128,1.132h-6.25
			c-0.624,0-1.131-0.509-1.131-1.132c0-0.625,0.507-1.129,1.131-1.129c0.015,0,1.913,0,1.913,0v-9.616h-1.913v-0.01
			c-0.624,0-1.131-0.507-1.131-1.13c0-0.622,0.507-1.131,1.131-1.131h3.244c0.622,0,1.127,0.505,1.127,1.131
			c0,0.017-0.003,0.035-0.005,0.048l0.004,0.005v10.703c0,0,1.863,0,1.88,0C90.18,94.942,90.686,95.447,90.686,96.072z
			 M71.944,89.694c-0.603,0.625-0.905,1.449-0.905,2.273s0.303,1.648,0.905,2.275c1.206,1.254,3.164,1.254,4.37,0
			c0.451-0.47,1.479-0.47,1.963,0c0.486,0.468,0.486,1.229,0,1.697c-1.133,1.093-2.623,1.642-4.114,1.642s-2.979-0.549-4.111-1.642
			c-2.27-2.19-2.27-5.755,0-7.945c2.27-2.188,5.959-2.188,8.226,0c0.486,0.47,0.486,1.229,0,1.699c-0.484,0.47-1.512,0.47-1.963,0
			C75.11,88.44,73.15,88.44,71.944,89.694z M71.908,68.939c-0.599,0.627-0.895,1.448-0.895,2.273s0.296,1.646,0.895,2.275
			c1.191,1.253,3.134,1.251,4.326,0c0.444-0.472,1.462-0.472,1.943,0c0.479,0.467,0.479,1.228,0,1.696
			c-1.123,1.096-2.599,1.642-4.072,1.642c-1.475,0-2.946-0.546-4.069-1.642c-2.246-2.189-2.246-5.752,0-7.943s5.897-2.189,8.142,0
			c0.482,0.467,0.482,1.228,0,1.698c-0.479,0.467-1.498,0.467-1.943,0C75.042,67.685,73.103,67.685,71.908,68.939z M119.029,75.284
			c0.498-0.487,0.498-1.274,0-1.76c-0.502-0.486-1.413-0.486-1.879,0l0.003-0.004c-0.594,0.527-1.418,0.8-2.144,0.818
			c-0.026,0-0.369,0-0.397,0c-0.856,0-1.575-0.198-2.157-0.593c-0.587-0.394-0.951-0.953-1.088-1.625h7.014
			c0.782,0,1.414-0.649,1.414-1.452c0-0.037-0.004-0.068-0.004-0.103c0-0.01,0.004-0.018,0.004-0.024
			c-0.154-1.284-0.657-2.341-1.502-3.243c-1.038-1.105-2.344-1.658-3.925-1.658c-1.542,0-2.849,0.548-3.956,1.642
			c-1.106,1.096-1.658,2.428-1.658,3.999c0,1.603,0.533,2.928,1.602,3.975c1.068,1.051,2.426,1.57,4.069,1.57
			c0.005,0,0.01,0,0.017,0c0.11,0,0.519,0,0.528,0c1.472,0,2.944-0.523,4.091-1.578L119.029,75.284z"/>
	</g>
	<g>
		<path d="M85.032,160.811c0-0.238,0.12-0.354,0.356-0.354h1.33v-4.933c0-0.237,0.011-0.463,0.011-0.463h-0.021
			c0,0-0.099,0.172-0.336,0.41l-0.486,0.478c-0.173,0.161-0.346,0.161-0.498-0.012l-0.15-0.152c-0.173-0.174-0.163-0.346,0-0.508
			l1.385-1.353c0.13-0.119,0.26-0.172,0.432-0.172h0.345c0.238,0,0.356,0.117,0.356,0.354v6.35h1.32
			c0.228,0,0.355,0.118,0.355,0.354v0.217c0,0.237-0.129,0.354-0.355,0.354h-3.686c-0.238,0-0.356-0.117-0.356-0.354v-0.217H85.032z
			"/>
		<path d="M90.283,157.555c0-2.194,0.671-3.937,2.705-3.937c2.043,0,2.702,1.742,2.702,3.937c0,2.207-0.659,3.958-2.702,3.958
			C90.952,161.513,90.283,159.762,90.283,157.555z M94.587,157.555c0-1.653-0.346-2.954-1.601-2.954
			c-1.245,0-1.601,1.298-1.601,2.954c0,1.665,0.355,2.975,1.601,2.975C94.241,160.529,94.587,159.22,94.587,157.555z"/>
		<path d="M96.83,155.22c0-0.876,0.737-1.602,1.646-1.602c0.896,0,1.642,0.726,1.642,1.602c0,0.886-0.745,1.602-1.642,1.602
			C97.566,156.817,96.83,156.105,96.83,155.22z M102.682,153.956c0.107-0.141,0.237-0.208,0.432-0.208h0.195
			c0.303,0,0.399,0.196,0.216,0.435l-5.343,6.985c-0.117,0.15-0.237,0.217-0.432,0.217h-0.193c-0.305,0-0.401-0.195-0.218-0.435
			L102.682,153.956z M99.274,155.22c0-0.443-0.357-0.812-0.799-0.812c-0.456,0-0.803,0.368-0.803,0.812
			c0,0.454,0.347,0.799,0.803,0.799C98.917,156.019,99.274,155.674,99.274,155.22z M102.391,158.312
			c0.908,0,1.643,0.726,1.643,1.602c0,0.886-0.736,1.602-1.643,1.602c-0.909,0-1.635-0.716-1.635-1.602
			C100.756,159.038,101.481,158.312,102.391,158.312z M102.391,160.713c0.455,0,0.8-0.344,0.8-0.801c0-0.442-0.345-0.811-0.8-0.811
			c-0.444,0-0.789,0.368-0.789,0.811C101.602,160.369,101.946,160.713,102.391,160.713z"/>
	</g>
	<g>
		<path d="M85.032,10.004c0-0.238,0.12-0.356,0.356-0.356h1.33V4.717c0-0.237,0.011-0.464,0.011-0.464h-0.021
			c0,0-0.099,0.173-0.336,0.412l-0.486,0.472C85.714,5.3,85.541,5.3,85.389,5.126l-0.15-0.152c-0.173-0.173-0.163-0.346,0-0.509
			l1.385-1.353c0.13-0.118,0.26-0.172,0.432-0.172h0.345c0.238,0,0.356,0.118,0.356,0.355v6.348h1.32
			c0.228,0,0.355,0.12,0.355,0.356v0.216c0,0.238-0.129,0.355-0.355,0.355h-3.686c-0.238,0-0.356-0.118-0.356-0.355v-0.212H85.032z"
			/>
		<path d="M90.283,6.748c0-2.194,0.671-3.936,2.705-3.936c2.043,0,2.702,1.741,2.702,3.936c0,2.207-0.659,3.958-2.702,3.958
			C90.952,10.706,90.283,8.954,90.283,6.748z M94.587,6.748c0-1.654-0.346-2.954-1.601-2.954c-1.245,0-1.601,1.298-1.601,2.954
			c0,1.666,0.355,2.974,1.601,2.974C94.241,9.723,94.587,8.414,94.587,6.748z"/>
		<path d="M96.83,4.413c0-0.876,0.737-1.601,1.646-1.601c0.896,0,1.642,0.724,1.642,1.601c0,0.887-0.745,1.601-1.642,1.601
			C97.566,6.014,96.83,5.3,96.83,4.413z M102.682,3.147c0.107-0.14,0.237-0.205,0.432-0.205h0.195c0.303,0,0.399,0.195,0.216,0.433
			l-5.343,6.986c-0.117,0.15-0.237,0.216-0.432,0.216h-0.193c-0.305,0-0.401-0.196-0.218-0.434L102.682,3.147z M99.274,4.413
			c0-0.444-0.357-0.812-0.799-0.812c-0.456,0-0.803,0.368-0.803,0.812c0,0.454,0.347,0.799,0.803,0.799
			C98.917,5.212,99.274,4.867,99.274,4.413z M102.391,7.506c0.908,0,1.643,0.724,1.643,1.601c0,0.886-0.736,1.6-1.643,1.6
			c-0.909,0-1.635-0.714-1.635-1.6C100.756,8.23,101.481,7.506,102.391,7.506z M102.391,9.906c0.455,0,0.8-0.346,0.8-0.802
			c0-0.443-0.345-0.811-0.8-0.811c-0.444,0-0.789,0.368-0.789,0.811C101.602,9.561,101.946,9.906,102.391,9.906z"/>
	</g>
</g>
</svg>
