<?xml version="1.0" encoding="utf-8"?>
<!-- Generator: Adobe Illustrator 16.0.0, SVG Export Plug-In . SVG Version: 6.00 Build 0)  -->
<!DOCTYPE svg PUBLIC "-//W3C//DTD SVG 1.1//EN" "http://www.w3.org/Graphics/SVG/1.1/DTD/svg11.dtd">
<svg version="1.1" id="Layer_1" xmlns="http://www.w3.org/2000/svg" xmlns:xlink="http://www.w3.org/1999/xlink" x="0px" y="0px"
	 width="60px" height="60px" viewBox="0 0 60 60" enable-background="new 0 0 60 60" xml:space="preserve">
<g>
	<path fill="#339933" d="M59.951,30c0,16.54-13.41,29.951-29.951,29.951C13.458,59.951,0.049,46.54,0.049,30
		C0.049,13.458,13.458,0.049,30,0.049C46.541,0.049,59.951,13.458,59.951,30z"/>
	<path fill="#B1D9AE" d="M15.058,42.142c0,0.446-0.109,0.804-0.552,0.816v0.008c-0.238,0.019,0.057,0.027-0.134,0.027
		c-1.501,0-2.562-0.331-3.184-0.99c-0.622-0.661-0.932-1.778-0.932-3.357v-5.379c0-0.851-0.125-1.484-0.375-1.9
		c-0.246-0.413-0.677-0.709-1.29-0.892c-0.311-0.123-0.533-0.424-0.533-0.776c0-0.351,0.215-0.649,0.518-0.776v0
		c1.12-0.298,1.68-1.177,1.68-2.64v-5.738c0-1.426,0.319-2.453,0.961-3.085c0.64-0.631,1.692-0.946,3.155-0.946h0.134v0.001
		c0.459,0.002,0.583,0.375,0.583,0.833c0,0.459-0.124,0.576-0.583,0.579v0.009c-1.1,0.02-1.84,0.207-2.223,0.56
		c-0.383,0.354-0.574,1.038-0.574,2.051v5.85c0,0.66-0.086,1.267-0.259,1.82c-0.2,0.624-0.714,1.14-1.535,1.551
		c0.659,0.353,1.123,0.783,1.391,1.29c0.267,0.508,0.402,1.226,0.402,2.153v5.636c0,1.089,0.181,1.812,0.545,2.171
		c0.363,0.36,1.114,0.544,2.251,0.552v0.012C14.949,41.592,15.058,41.695,15.058,42.142z"/>
	<path fill="#B1D9AE" d="M45.494,41.58v-0.012c1.136-0.008,1.887-0.191,2.25-0.552c0.365-0.358,0.547-1.082,0.547-2.171V33.21
		c0-0.928,0.134-1.646,0.4-2.153c0.269-0.507,0.732-0.936,1.392-1.29c-0.822-0.411-1.335-0.928-1.536-1.551
		c-0.172-0.553-0.256-1.16-0.256-1.82v-5.85c0-1.014-0.191-1.697-0.577-2.05c-0.38-0.354-1.122-0.541-2.22-0.562v-0.009
		c-0.46-0.003-0.833-0.118-0.833-0.577c0-0.46,0.373-0.833,0.833-0.835v-0.001h0.133c1.463,0,2.516,0.315,3.156,0.946
		c0.641,0.633,0.962,1.661,0.962,3.085v5.738c0,1.463,0.56,2.342,1.679,2.64v0c0.303,0.127,0.517,0.425,0.517,0.776
		c0,0.353-0.221,0.654-0.532,0.776c-0.612,0.183-1.044,0.479-1.291,0.892c-0.249,0.416-0.372,1.05-0.372,1.9v5.379
		c0,1.579-0.313,2.696-0.934,3.357c-0.621,0.659-1.685,0.99-3.185,0.99c-0.192,0,0.104-0.009-0.133-0.027v-0.008
		c-0.445-0.013-0.802-0.37-0.802-0.816S45.049,41.592,45.494,41.58z"/>
	<path fill="#FFFFFF" d="M25.943,27.193c0.871,0,1.613-0.304,2.229-0.912c0.616-0.608,0.923-1.339,0.923-2.193
		c0-0.849-0.309-1.575-0.926-2.18c-0.618-0.604-1.359-0.907-2.226-0.907s-1.608,0.302-2.222,0.905
		c-0.613,0.602-0.919,1.329-0.919,2.182c0,0.854,0.307,1.585,0.919,2.193C24.335,26.889,25.077,27.193,25.943,27.193z M24.677,22.82
		c0.349-0.353,0.77-0.528,1.266-0.528c0.5,0,0.922,0.175,1.269,0.526c0.347,0.351,0.521,0.772,0.521,1.27
		c0,0.506-0.174,0.934-0.521,1.283c-0.347,0.351-0.769,0.526-1.269,0.526c-0.496,0-0.917-0.175-1.266-0.526
		c-0.35-0.349-0.525-0.774-0.525-1.271C24.152,23.601,24.328,23.173,24.677,22.82z M41.123,22.373c0.859,0,1.42,0.381,1.616,1.084
		h-3.202C39.791,22.754,40.34,22.373,41.123,22.373z M43.292,33.375c-0.565-0.591-1.262-0.887-2.088-0.887
		c-0.591,0-1.107,0.159-1.556,0.476c-0.111,0.084-0.206,0.16-0.28,0.226v-2.106l0,0c0-0.38-0.309-0.687-0.687-0.687
		c-0.379,0-0.687,0.307-0.687,0.687v6.956l0,0c0,0.354,0.29,0.643,0.644,0.643s0.641-0.288,0.643-0.643h0.007v-0.186
		c0.281,0.306,0.6,0.523,0.952,0.649c0.321,0.119,0.649,0.179,0.986,0.179c0.823,0,1.514-0.301,2.074-0.902
		c0.561-0.6,0.841-1.339,0.841-2.214C44.142,34.696,43.858,33.966,43.292,33.375z M42.21,36.807
		c-0.323,0.331-0.725,0.498-1.206,0.498c-0.479,0-0.883-0.162-1.206-0.482c-0.325-0.323-0.488-0.722-0.488-1.201
		c0-0.519,0.158-0.943,0.471-1.271c0.313-0.325,0.722-0.491,1.224-0.491c0.478,0,0.879,0.166,1.204,0.494
		c0.323,0.329,0.487,0.735,0.487,1.223C42.695,36.066,42.534,36.477,42.21,36.807z M35.465,33.194v4.845l0,0
		c-0.003,0.354-0.294,0.643-0.656,0.643c-0.36,0-0.655-0.288-0.655-0.644c0-0.024,0.004-0.045,0.006-0.067v-0.267
		c-0.12,0.158-0.216,0.275-0.286,0.351c-0.383,0.418-0.931,0.627-1.645,0.627c-0.471,0-0.901-0.102-1.284-0.301
		c-0.385-0.204-0.667-0.47-0.847-0.808c-0.16-0.299-0.257-0.662-0.292-1.097c-0.012-0.149-0.018-0.532-0.018-1.147v-2.133
		c0,0,0,0,0-0.002c0-0.378,0.312-0.685,0.7-0.685c0.386,0,0.698,0.307,0.698,0.685c0,0.039-0.005,0.075-0.012,0.112v2.022
		c0,0.401,0.005,0.646,0.012,0.729c0,0.278,0.054,0.527,0.159,0.751c0.178,0.387,0.554,0.58,1.124,0.58
		c1.064,0,1.599-0.687,1.599-2.061v-2.135l0,0c0-0.378,0.312-0.685,0.698-0.685S35.465,32.816,35.465,33.194z M35.857,18.985
		c-0.373,0-0.671,0.305-0.671,0.68l0,0v2.037c-0.326-0.279-0.646-0.471-0.965-0.574c-0.264-0.084-0.548-0.127-0.851-0.127
		c-0.822,0-1.513,0.296-2.068,0.886c-0.556,0.586-0.833,1.318-0.833,2.192c0,0.875,0.274,1.613,0.829,2.214
		c0.554,0.601,1.233,0.9,2.04,0.9c0.669,0,1.221-0.187,1.661-0.562c0.102-0.086,0.187-0.175,0.253-0.264v0.137h0.008
		c0,0.001,0,0.001,0,0.001c0,0.354,0.283,0.642,0.634,0.642s0.636-0.289,0.636-0.642c0,0,0,0,0-0.002l0,0v-6.839l0,0
		C36.53,19.29,36.228,18.985,35.857,18.985z M34.755,25.326c-0.317,0.327-0.716,0.49-1.197,0.49c-0.462,0-0.857-0.163-1.179-0.493
		c-0.32-0.33-0.482-0.733-0.482-1.211c0-0.494,0.161-0.907,0.48-1.239c0.32-0.333,0.714-0.499,1.181-0.499
		c0.496,0,0.898,0.161,1.208,0.482c0.31,0.322,0.465,0.735,0.465,1.245C35.23,24.589,35.072,24.999,34.755,25.326z M28.078,37.847
		c0,0.345-0.28,0.626-0.625,0.626h-3.459c-0.345,0-0.625-0.281-0.625-0.626c0-0.346,0.28-0.627,0.625-0.627c0.009,0,1.059,0,1.059,0
		v-5.323h-1.059v-0.005c-0.345,0-0.625-0.28-0.625-0.626c0-0.344,0.28-0.625,0.625-0.625h1.796c0.345,0,0.625,0.281,0.625,0.625
		c0,0.01-0.002,0.02-0.003,0.029h0.002v5.925c0,0,1.031,0,1.04,0C27.797,37.22,28.078,37.501,28.078,37.847z M17.706,34.315
		c-0.333,0.346-0.501,0.803-0.501,1.257c0,0.458,0.168,0.913,0.501,1.26c0.667,0.694,1.752,0.694,2.418,0
		c0.25-0.259,0.818-0.259,1.087,0c0.27,0.26,0.27,0.681,0,0.939c-0.626,0.606-1.452,0.91-2.276,0.91c-0.825,0-1.65-0.304-2.277-0.91
		c-1.255-1.212-1.255-3.184-0.001-4.396c1.256-1.212,3.3-1.212,4.554,0c0.27,0.26,0.27,0.68,0,0.94
		c-0.268,0.259-0.837,0.259-1.087,0C19.458,33.621,18.373,33.621,17.706,34.315z M17.685,22.829
		c-0.33,0.347-0.495,0.801-0.495,1.257c0,0.456,0.166,0.912,0.495,1.26c0.661,0.694,1.735,0.694,2.395,0
		c0.247-0.26,0.809-0.26,1.076,0c0.266,0.259,0.266,0.679,0,0.938c-0.621,0.608-1.438,0.909-2.254,0.909
		c-0.815,0-1.632-0.301-2.252-0.909c-1.242-1.211-1.242-3.184,0-4.396c1.242-1.213,3.265-1.213,4.506,0
		c0.268,0.26,0.268,0.679,0,0.94c-0.265,0.259-0.829,0.259-1.076,0C19.42,22.134,18.345,22.134,17.685,22.829z M43.763,26.339
		c0.276-0.268,0.276-0.705,0-0.975c-0.275-0.269-0.781-0.269-1.038,0l0.002,0c-0.328,0.292-0.785,0.441-1.187,0.451
		c-0.014,0-0.204,0-0.219,0c-0.474,0-0.874-0.108-1.195-0.327c-0.323-0.218-0.524-0.529-0.602-0.9h3.881
		c0.433,0,0.783-0.361,0.783-0.804c0-0.02-0.002-0.039-0.002-0.058c0-0.004,0.002-0.01,0.002-0.014
		c-0.084-0.709-0.362-1.294-0.83-1.794c-0.574-0.611-1.298-0.918-2.172-0.918c-0.854,0-1.577,0.305-2.189,0.91
		c-0.612,0.606-0.919,1.344-0.919,2.212c0,0.888,0.297,1.621,0.887,2.2c0.592,0.58,1.343,0.87,2.253,0.87c0.002,0,0.005,0,0.008,0
		c0.062,0,0.288,0,0.293,0c0.815,0,1.63-0.292,2.265-0.873L43.763,26.339z"/>
</g>
<g>
</g>
<g>
</g>
<g>
</g>
<g>
</g>
<g>
</g>
<g>
</g>
<g>
</g>
<g>
</g>
<g>
</g>
<g>
</g>
<g>
</g>
<g>
</g>
<g>
</g>
<g>
</g>
<g>
</g>
</svg>
