<svg xmlns="http://www.w3.org/2000/svg" width="300.593" height="99.375" viewBox="0 0 300.593 99.375"><path opacity=".6" fill="#F69220" stroke="#CCCBCB" stroke-miterlimit="10" d="M209.91 3.668h86.83v88.568h-86.83z"/><path opacity=".6" fill="none" stroke="#CCCBCB" stroke-miterlimit="10" d="M3.25 5.405h88.568v86.832H3.25z"/><path fill="#373A96" d="M80.417 49.21c0 18.193-14.748 32.94-32.937 32.94-18.19 0-32.94-14.747-32.94-32.94s14.75-32.938 32.94-32.938c18.19 0 32.937 14.747 32.937 32.94z"/><path fill="#B1D9AD" d="M31.046 62.562c0 .49-.12.885-.608.898v.007c-.26.02.064.032-.147.032-1.65 0-2.817-.362-3.5-1.09-.684-.724-1.026-1.953-1.026-3.69v-5.915c0-.937-.138-1.63-.412-2.09-.27-.454-.745-.778-1.418-.98a.92.92 0 0 1-.016-1.708v-.002c1.23-.326 1.846-1.294 1.846-2.903V38.81c0-1.566.35-2.696 1.058-3.39.7-.696 1.86-1.044 3.467-1.044h.146v.002c.505.004.643.41.643.917 0 .507-.14.633-.644.638v.01c-1.21.02-2.025.225-2.444.615-.42.39-.63 1.142-.63 2.256v6.434c0 .725-.096 1.396-.285 2.003-.22.686-.785 1.252-1.688 1.705.725.388 1.234.86 1.53 1.42.293.556.44 1.346.44 2.363v6.197c0 1.2.2 1.994.6 2.39.4.395 1.226.597 2.476.608v.014c.49.01.61.126.61.615zM64.517 61.947v-.014c1.252-.012 2.077-.214 2.477-.607.4-.396.6-1.19.6-2.39v-6.198c0-1.018.15-1.808.443-2.364.295-.558.804-1.03 1.53-1.42-.905-.452-1.468-1.02-1.69-1.703a6.738 6.738 0 0 1-.283-2.002v-6.434c0-1.114-.21-1.868-.63-2.256-.42-.39-1.237-.594-2.447-.615v-.01c-.503-.004-.913-.13-.913-.636s.41-.914.913-.917v-.002h.146c1.612 0 2.77.347 3.473 1.042.704.695 1.057 1.825 1.057 3.392v6.312c0 1.61.616 2.576 1.846 2.903v.002c.332.14.568.47.568.852 0 .39-.243.72-.587.854-.673.2-1.147.527-1.417.98-.273.46-.41 1.154-.41 2.09v5.916c0 1.736-.34 2.966-1.025 3.69-.684.728-1.85 1.09-3.504 1.09-.21 0 .117-.012-.146-.03v-.012a.9.9 0 0 1-.878-.898c-.004-.49.39-.605.877-.615z"/><path fill="#FFF" d="M43.017 46.122c.958 0 1.775-.334 2.45-1.002.68-.67 1.017-1.473 1.017-2.412 0-.935-.338-1.733-1.018-2.396a3.366 3.366 0 0 0-2.45-.997c-.952 0-1.767.33-2.44.992-.674.663-1.01 1.465-1.01 2.4 0 .94.336 1.742 1.01 2.413a3.34 3.34 0 0 0 2.44 1.002zm-1.392-4.81c.383-.385.847-.58 1.393-.58.55 0 1.014.192 1.396.58.383.385.573.85.573 1.397a1.92 1.92 0 0 1-.573 1.41c-.38.385-.846.577-1.396.577a1.89 1.89 0 0 1-1.393-.578 1.91 1.91 0 0 1-.577-1.4c0-.55.193-1.018.577-1.408zm18.088-.49c.943 0 1.56.418 1.777 1.192h-3.522c.278-.776.883-1.192 1.745-1.192zm2.383 12.1c-.622-.65-1.388-.978-2.296-.978-.647 0-1.217.177-1.71.526a8.662 8.662 0 0 0-.31.247V50.4a.754.754 0 0 0-1.507 0v7.65c0 .39.315.705.705.705a.71.71 0 0 0 .71-.706h.004v-.204c.312.34.66.576 1.05.712.35.133.712.197 1.084.197.905 0 1.666-.33 2.28-.99.617-.662.923-1.475.923-2.44 0-.952-.31-1.756-.934-2.403zm-1.19 3.774c-.353.363-.796.543-1.326.543-.527 0-.97-.176-1.325-.53-.36-.355-.54-.793-.54-1.32 0-.572.173-1.037.52-1.396.342-.362.79-.542 1.343-.542.524 0 .966.18 1.325.542.357.363.534.81.534 1.345.002.54-.175.99-.53 1.356zm-7.417-3.972v5.326a.713.713 0 0 1-.723.706.714.714 0 0 1-.72-.706c0-.028.002-.05.004-.074v-.292a5.255 5.255 0 0 1-.315.385c-.42.456-1.022.687-1.808.687-.52 0-.99-.108-1.414-.333-.422-.22-.733-.516-.93-.885-.178-.328-.283-.73-.324-1.21-.013-.16-.02-.582-.02-1.26v-2.346-.002c0-.416.343-.757.77-.757s.768.34.768.757c0 .04-.006.083-.012.122v2.225c0 .44.002.705.012.8 0 .31.058.583.174.827.195.426.61.638 1.235.638 1.17 0 1.758-.756 1.758-2.266v-2.35c0-.415.343-.755.768-.755.424 0 .776.343.776.76zm.43-15.627a.743.743 0 0 0-.74.747v2.24c-.357-.308-.71-.517-1.06-.63a3.025 3.025 0 0 0-.937-.14c-.905 0-1.664.323-2.275.97s-.917 1.453-.917 2.412c0 .963.304 1.774.914 2.436.61.662 1.356.99 2.242.99.736 0 1.344-.206 1.826-.617.114-.097.205-.192.28-.29v.15h.007c0 .39.312.708.696.708a.704.704 0 0 0 .698-.71v-7.52a.733.733 0 0 0-.735-.746zm-1.212 6.97c-.35.362-.79.542-1.316.542-.51 0-.943-.18-1.297-.542a1.836 1.836 0 0 1-.53-1.333c0-.543.175-.997.528-1.363.352-.366.782-.55 1.3-.55.544 0 .987.18 1.33.533.338.354.51.81.51 1.37-.002.535-.176.985-.525 1.343zm-7.345 13.77c0 .38-.307.687-.688.687h-3.803a.69.69 0 0 1 0-1.376h1.164v-5.853h-1.164v-.007a.69.69 0 0 1 0-1.375h1.972c.38 0 .688.31.688.69l-.003.03v6.517h1.143c.384 0 .69.306.69.686zm-11.404-3.88c-.367.38-.55.88-.55 1.383s.183 1.002.55 1.384a1.83 1.83 0 0 0 2.658 0c.274-.284.9-.284 1.195 0a.716.716 0 0 1 0 1.035c-.69.665-1.596 1-2.502 1a3.59 3.59 0 0 1-2.5-1 3.343 3.343 0 0 1 0-4.838c1.38-1.333 3.626-1.333 5.005 0a.715.715 0 0 1 0 1.036c-.293.285-.92.285-1.195 0a1.83 1.83 0 0 0-2.66-.002zm-.024-12.635a2 2 0 0 0-.545 1.384 2 2 0 0 0 .546 1.384 1.803 1.803 0 0 0 2.635 0c.27-.286.892-.286 1.184 0a.72.72 0 0 1 0 1.034 3.548 3.548 0 0 1-2.48.998 3.537 3.537 0 0 1-2.476-.998 3.363 3.363 0 0 1 0-4.835c1.366-1.335 3.59-1.335 4.957 0a.717.717 0 0 1 0 1.032c-.292.287-.913.287-1.183 0a1.806 1.806 0 0 0-2.636 0zm28.68 3.863a.743.743 0 0 0 0-1.07c-.305-.298-.86-.297-1.144 0l.002-.003c-.36.32-.863.485-1.304.498h-.243c-.52 0-.96-.12-1.313-.36-.358-.24-.58-.58-.662-.99h4.27c.475 0 .86-.397.86-.884 0-.023-.003-.042-.003-.063l.002-.014a3.36 3.36 0 0 0-.916-1.974c-.63-.674-1.425-1.01-2.388-1.01-.94 0-1.735.33-2.407.998-.673.666-1.01 1.478-1.01 2.435 0 .975.327 1.78.976 2.418.65.64 1.477.957 2.476.957h.332c.896 0 1.792-.32 2.49-.96l-.02.02z"/><path fill="#339847" d="M182.205 49.21c0 18.193-14.748 32.94-32.938 32.94-18.193 0-32.94-14.747-32.94-32.94s14.75-32.937 32.94-32.937c18.19-.002 32.938 14.746 32.938 32.938z"/><path fill="#B1D9AD" d="M132.833 62.562c0 .49-.12.885-.608.898v.007c-.26.02.064.032-.147.032-1.65 0-2.818-.362-3.5-1.09-.686-.724-1.027-1.953-1.027-3.69v-5.915c0-.937-.137-1.63-.41-2.09-.27-.454-.743-.778-1.418-.98a.92.92 0 0 1-.015-1.708v-.002c1.23-.326 1.846-1.294 1.846-2.903V38.81c0-1.566.352-2.696 1.058-3.39.702-.696 1.86-1.044 3.47-1.044h.148v.002c.506.004.643.41.643.917 0 .507-.136.633-.642.638v.01c-1.21.02-2.023.225-2.445.615-.418.39-.63 1.142-.63 2.256v6.434a6.76 6.76 0 0 1-.285 2.003c-.22.686-.785 1.252-1.688 1.705.726.388 1.234.86 1.53 1.42.294.556.44 1.346.44 2.363v6.197c0 1.2.2 1.994.598 2.39.4.395 1.227.597 2.477.608v.014c.488.01.608.126.608.615zM166.304 61.947v-.014c1.252-.012 2.076-.214 2.476-.607.4-.396.603-1.19.603-2.39v-6.198c0-1.018.15-1.808.44-2.364.296-.558.805-1.03 1.532-1.42-.906-.452-1.47-1.02-1.69-1.703a6.77 6.77 0 0 1-.282-2.002v-6.434c0-1.114-.21-1.868-.63-2.256-.42-.39-1.24-.594-2.445-.615v-.01c-.505-.004-.914-.13-.914-.636s.41-.914.914-.917v-.002h.146c1.61 0 2.768.347 3.473 1.042.702.695 1.056 1.825 1.056 3.392v6.312c0 1.61.613 2.576 1.845 2.903v.002c.334.14.57.47.57.852 0 .39-.244.72-.587.854-.673.2-1.145.527-1.417.98-.273.46-.41 1.154-.41 2.09v5.916c0 1.736-.34 2.966-1.024 3.69-.687.728-1.854 1.09-3.51 1.09-.206 0 .118-.012-.145-.03v-.012a.9.9 0 0 1-.88-.898c0-.49.39-.605.88-.615z"/><path fill="#FFF" d="M144.803 46.122c.96 0 1.775-.334 2.452-1.002.678-.67 1.015-1.473 1.015-2.412 0-.935-.34-1.733-1.018-2.396a3.368 3.368 0 0 0-2.45-.997c-.952 0-1.767.33-2.44.992-.676.663-1.013 1.465-1.013 2.4 0 .94.336 1.742 1.012 2.413a3.343 3.343 0 0 0 2.44 1.002zm-1.39-4.81c.383-.385.845-.58 1.39-.58.55 0 1.017.192 1.396.58.383.385.572.85.572 1.397 0 .554-.19 1.025-.573 1.41-.38.385-.847.577-1.397.577a1.885 1.885 0 0 1-1.39-.578 1.902 1.902 0 0 1-.577-1.4c0-.55.19-1.018.576-1.408zm18.086-.49c.942 0 1.558.418 1.774 1.192h-3.52c.278-.776.884-1.192 1.745-1.192zm2.384 12.1c-.622-.65-1.39-.978-2.298-.978-.646 0-1.215.177-1.71.526-.12.092-.224.176-.31.247V50.4a.752.752 0 0 0-1.506 0v7.65c0 .39.316.705.703.705.39 0 .704-.315.707-.706h.007v-.204c.313.34.66.576 1.05.712.353.133.716.197 1.086.197.903 0 1.665-.33 2.28-.99.612-.662.923-1.475.923-2.44.002-.952-.31-1.756-.932-2.403zm-1.19 3.774c-.355.363-.797.543-1.327.543-.527 0-.972-.176-1.325-.53a1.776 1.776 0 0 1-.54-1.32c0-.572.174-1.037.52-1.396.347-.362.794-.542 1.344-.542.525 0 .967.18 1.326.542.356.363.536.81.536 1.345 0 .54-.177.99-.533 1.356zm-7.418-3.972v5.326a.714.714 0 0 1-.722.706.715.715 0 0 1-.72-.706c0-.028.002-.05.005-.074v-.292a5.08 5.08 0 0 1-.315.385c-.42.456-1.023.687-1.81.687-.52 0-.99-.108-1.413-.333-.422-.22-.732-.516-.93-.885-.176-.328-.284-.73-.322-1.21-.012-.16-.02-.582-.02-1.26v-2.346-.002c0-.416.345-.757.77-.757.426 0 .77.34.77.757a.71.71 0 0 1-.012.122v2.225c0 .44.002.705.012.8 0 .31.06.583.174.827.196.426.61.638 1.235.638 1.17 0 1.757-.756 1.757-2.266v-2.35c0-.415.346-.755.77-.755.422 0 .77.343.77.76zm.432-15.627a.744.744 0 0 0-.74.747v2.24c-.355-.308-.71-.517-1.06-.63a3.02 3.02 0 0 0-.937-.14c-.902 0-1.662.323-2.273.97s-.917 1.453-.917 2.412c0 .963.304 1.774.913 2.436.61.662 1.357.99 2.243.99.736 0 1.343-.206 1.828-.617.112-.097.203-.192.278-.29v.15h.007c0 .39.312.708.697.708a.7.7 0 0 0 .697-.71v-7.52a.74.74 0 0 0-.736-.746zm-1.213 6.97c-.348.362-.785.542-1.316.542-.51 0-.943-.18-1.298-.542a1.835 1.835 0 0 1-.53-1.333c0-.543.176-.997.528-1.363s.783-.55 1.3-.55c.544 0 .988.18 1.327.533.34.354.513.81.513 1.37 0 .535-.175.985-.525 1.343zm-7.345 13.77c0 .38-.307.687-.688.687h-3.803a.69.69 0 0 1 0-1.376h1.164v-5.853h-1.165v-.007a.69.69 0 0 1 0-1.375h1.974c.38 0 .688.31.688.69l-.003.03v6.517h1.145c.38 0 .685.306.685.686zm-11.405-3.88c-.366.38-.55.88-.55 1.383s.184 1.002.55 1.384a1.83 1.83 0 0 0 2.66 0c.274-.284.9-.284 1.195 0a.716.716 0 0 1 0 1.035c-.69.665-1.596 1-2.505 1a3.6 3.6 0 0 1-2.503-1 3.343 3.343 0 0 1 0-4.838c1.38-1.333 3.63-1.333 5.008 0a.717.717 0 0 1 0 1.036c-.294.285-.92.285-1.195 0a1.83 1.83 0 0 0-2.66-.002zm-.022-12.635c-.363.382-.544.882-.544 1.384s.18 1.002.543 1.384a1.802 1.802 0 0 0 2.634 0c.27-.286.892-.286 1.183 0a.72.72 0 0 1 0 1.034 3.544 3.544 0 0 1-2.48.998 3.537 3.537 0 0 1-2.476-.998 3.363 3.363 0 0 1 0-4.835c1.367-1.335 3.59-1.335 4.956 0a.715.715 0 0 1 0 1.032c-.29.287-.91.287-1.183 0a1.803 1.803 0 0 0-2.634 0zm28.678 3.863a.74.74 0 0 0 0-1.07c-.302-.297-.857-.297-1.14 0v-.003c-.36.32-.86.485-1.302.498h-.244c-.52 0-.96-.12-1.312-.36a1.538 1.538 0 0 1-.662-.99h4.268c.477 0 .86-.397.86-.884 0-.023-.003-.042-.003-.063 0-.005.004-.01.004-.014a3.374 3.374 0 0 0-.913-1.974c-.633-.674-1.43-1.01-2.39-1.01-.938 0-1.735.33-2.407.998-.675.666-1.01 1.478-1.01 2.435 0 .975.325 1.78.975 2.418.647.64 1.477.957 2.478.957h.331c.896 0 1.792-.32 2.49-.96l-.023.02z"/><g><path d="M116.597 75.542c1.016 0 1.7.387 2.033.622.185.14.192.315.07.51l-.156.252c-.124.202-.29.22-.5.088-.272-.175-.763-.438-1.404-.438-1.36 0-2.087.99-2.087 2.14 0 1.166.755 2.228 2.098 2.228.703 0 1.237-.334 1.525-.544.193-.14.37-.14.51.062l.175.235c.132.177.124.36-.052.51a3.486 3.486 0 0 1-2.202.77c-1.955 0-3.22-1.41-3.22-3.244 0-1.803 1.325-3.19 3.21-3.19zM121.876 77.296c1.36 0 2.465.975 2.465 2.342 0 1.377-1.106 2.342-2.464 2.342-1.358 0-2.455-.965-2.455-2.342 0-1.367 1.096-2.342 2.456-2.342zm0 3.737c.728 0 1.334-.56 1.334-1.394 0-.825-.606-1.396-1.334-1.396s-1.325.57-1.325 1.395c0 .834.598 1.393 1.326 1.393zM126.928 77.296c.98 0 1.306.64 1.306.64h.018s-.018-.112-.018-.252v-1.667c0-.237.124-.368.36-.368h.385c.236 0 .358.13.358.367v5.49c0 .245-.122.37-.36.37h-.323c-.236 0-.36-.114-.36-.335v-.175c0-.086.02-.157.02-.157h-.02s-.376.77-1.403.77c-1.21 0-1.99-.954-1.99-2.342 0-1.42.842-2.342 2.026-2.342zm.21 3.748c.578 0 1.122-.42 1.122-1.413 0-.692-.36-1.376-1.115-1.376-.604 0-1.122.5-1.122 1.386 0 .85.456 1.404 1.115 1.404zM132.46 77.296c1.272 0 1.984.903 1.984 2.132 0 .19-.167.376-.386.376h-2.73c.07.81.67 1.228 1.342 1.228.412 0 .756-.157.966-.29.22-.104.377-.077.49.122l.106.175c.106.2.07.378-.12.49-.29.186-.817.447-1.52.447-1.482 0-2.402-1.068-2.402-2.343 0-1.372.928-2.338 2.27-2.338zm.878 1.835c-.018-.622-.394-.99-.902-.99-.57 0-.975.394-1.08.99h1.982zM140.46 75.542c1.018 0 1.7.387 2.035.622.185.14.192.315.07.51l-.157.252c-.123.202-.29.22-.5.088-.27-.175-.763-.438-1.403-.438-1.36 0-2.087.99-2.087 2.14 0 1.166.755 2.228 2.098 2.228.7 0 1.236-.334 1.524-.544.192-.14.368-.14.51.062l.175.235c.132.177.123.36-.052.51a3.49 3.49 0 0 1-2.202.77c-1.955 0-3.22-1.41-3.22-3.244 0-1.803 1.325-3.19 3.21-3.19zM143.59 76.017c0-.237.124-.368.36-.368h.388c.236 0 .36.13.36.367v4.38c0 .437.184.515.35.533.158.018.272.114.272.315v.3c0 .228-.105.377-.367.377-.598 0-1.36-.16-1.36-1.44v-4.465h-.002zM145.99 77.77c0-.234.13-.367.367-.367h.377c.247 0 .368.133.368.368v2.28c0 .544.14.912.692.912.81 0 1.254-.71 1.254-1.51V77.77c0-.235.123-.368.368-.368h.377c.238 0 .37.133.37.368v3.736c0 .246-.134.37-.37.37h-.342c-.235 0-.358-.124-.358-.37v-.26c0-.106.018-.2.018-.2h-.018c-.21.453-.79.937-1.553.937-.956 0-1.554-.482-1.554-1.7v-2.51h.003zM151.268 76.017c0-.237.133-.368.37-.368h.376c.244 0 .368.13.368.367v1.623c0 .22-.025.378-.025.378h.017s.394-.72 1.37-.72c1.183 0 1.972.956 1.972 2.333 0 1.43-.886 2.352-2.044 2.352-1.01 0-1.37-.753-1.37-.753h-.016s.017.068.017.19v.143c0 .19-.123.315-.367.315h-.3c-.234 0-.367-.124-.367-.368v-5.493h-.002zm2.186 5.027c.622 0 1.13-.502 1.13-1.388 0-.84-.455-1.402-1.104-1.402-.58 0-1.13.43-1.13 1.386-.003.727.377 1.404 1.104 1.404zM158.516 76.05c-.06-.245.05-.4.315-.4h.44c.21 0 .343.104.396.323l.902 3.982c.08.35.098.658.098.658h.018s.034-.3.132-.658l1.035-3.99c.062-.21.194-.316.41-.316h.3c.217 0 .35.104.395.314l1.026 3.99c.1.36.133.66.133.66h.018s.027-.31.107-.66l.957-3.98c.042-.22.174-.325.4-.325h.415c.262 0 .386.157.324.4l-1.43 5.52c-.06.21-.19.307-.412.307h-.62c-.22 0-.352-.106-.404-.316l-.885-3.366a8.69 8.69 0 0 1-.166-.815h-.027s-.062.41-.158.814l-.894 3.367c-.053.21-.185.317-.403.317h-.63c-.222 0-.354-.106-.404-.316l-1.384-5.51zM169.09 77.296c1.358 0 2.463.975 2.463 2.342 0 1.377-1.107 2.342-2.464 2.342-1.36 0-2.457-.965-2.457-2.342 0-1.367 1.096-2.342 2.456-2.342zm0 3.737c.727 0 1.332-.56 1.332-1.394 0-.825-.605-1.396-1.333-1.396s-1.327.57-1.327 1.395c0 .834.596 1.393 1.326 1.393zM172.375 77.77c0-.234.122-.367.36-.367h.342c.236 0 .368.133.368.368v.423c0 .167-.025.308-.025.308h.017c.177-.533.667-1.132 1.3-1.132.247 0 .332.123.332.37v.342c0 .234-.14.366-.378.366-.815 0-1.21.808-1.21 1.623v1.438c0 .244-.123.368-.36.368h-.383c-.24 0-.36-.124-.36-.368V77.77h-.005zM175.658 76.017c0-.237.126-.368.36-.368h.388c.236 0 .36.13.36.367v4.38c0 .437.185.515.35.533.158.018.272.114.272.315v.3c0 .228-.105.377-.366.377-.6 0-1.36-.16-1.36-1.44v-4.465h-.004zM179.883 77.296c.982 0 1.307.64 1.307.64h.02s-.02-.112-.02-.252v-1.667c0-.237.123-.368.36-.368h.384c.237 0 .36.13.36.367v5.49c0 .245-.123.37-.36.37h-.324c-.235 0-.36-.114-.36-.335v-.175c0-.086.018-.157.018-.157h-.017s-.377.77-1.4.77c-1.212 0-1.992-.954-1.992-2.342-.002-1.42.84-2.342 2.025-2.342zm.21 3.748c.58 0 1.122-.42 1.122-1.413 0-.692-.36-1.376-1.114-1.376-.604 0-1.12.5-1.12 1.386 0 .85.456 1.404 1.114 1.404z"/></g><g><path fill="#339847" d="M286.284 48.937c0 18.192-14.748 32.938-32.938 32.938-18.193 0-32.94-14.746-32.94-32.938S235.153 16 253.346 16c18.187 0 32.938 14.744 32.938 32.937z"/><path fill="#B1D9AD" d="M236.912 62.288c0 .49-.118.887-.607.897v.007c-.26.023.062.035-.148.035-1.65 0-2.82-.362-3.5-1.09-.688-.725-1.028-1.956-1.028-3.69V52.53c0-.932-.14-1.63-.412-2.088-.27-.455-.744-.78-1.417-.98a.92.92 0 0 1-.017-1.708v-.002c1.23-.325 1.846-1.293 1.846-2.903v-6.31c0-1.567.35-2.7 1.057-3.392.702-.694 1.86-1.042 3.467-1.042h.15c.504.003.64.413.64.92 0 .506-.136.63-.64.636v.01c-1.21.023-2.024.227-2.445.616-.42.388-.632 1.14-.632 2.256v6.433c0 .724-.095 1.394-.283 2.002-.22.683-.783 1.25-1.688 1.704.726.39 1.236.86 1.53 1.42.294.556.44 1.346.44 2.367v6.194c0 1.197.2 1.994.6 2.39.4.398 1.23.6 2.48.608v.01c.483.015.605.126.605.616zM270.38 61.673v-.014c1.255-.013 2.08-.21 2.478-.61.402-.395.603-1.19.603-2.39v-6.193c0-1.02.147-1.808.44-2.367.296-.557.805-1.027 1.53-1.418-.903-.453-1.468-1.02-1.688-1.705a6.705 6.705 0 0 1-.28-2.002V38.54c0-1.115-.212-1.87-.636-2.256-.417-.39-1.234-.594-2.442-.615v-.013c-.503-.005-.914-.13-.914-.636s.41-.914.914-.916v-.002h.147c1.612 0 2.77.348 3.475 1.042.7.693 1.053 1.825 1.053 3.393v6.31c0 1.61.618 2.576 1.848 2.902a.92.92 0 0 1 .567.854c0 .39-.24.72-.586.855-.672.198-1.146.526-1.418.978-.272.458-.412 1.157-.412 2.088v5.917c0 1.735-.34 2.967-1.023 3.692-.686.726-1.853 1.09-3.504 1.09-.21 0 .116-.013-.148-.037v-.007a.897.897 0 0 1-.88-.895c0-.492.393-.598.878-.612z"/><path fill="#FFF" d="M248.882 45.85c.957 0 1.772-.335 2.452-1.004.676-.668 1.015-1.473 1.015-2.41 0-.935-.34-1.733-1.02-2.398a3.374 3.374 0 0 0-2.448-.997c-.953 0-1.77.333-2.442.994a3.247 3.247 0 0 0-1.01 2.402c0 .94.335 1.742 1.01 2.41a3.343 3.343 0 0 0 2.442 1.004zm-1.39-4.81a1.88 1.88 0 0 1 1.39-.58c.552 0 1.018.19 1.4.58.382.385.57.852.57 1.4a1.92 1.92 0 0 1-.57 1.41 1.893 1.893 0 0 1-1.4.576 1.89 1.89 0 0 1-1.39-.577 1.9 1.9 0 0 1-.577-1.4c0-.553.19-1.02.576-1.41zm18.085-.493c.942 0 1.56.42 1.777 1.193h-3.522c.28-.774.883-1.193 1.745-1.193zm2.384 12.1c-.62-.65-1.386-.974-2.295-.974-.647 0-1.218.174-1.71.52a9.955 9.955 0 0 0-.31.25v-2.317a.752.752 0 0 0-.753-.753.752.752 0 0 0-.755.753v7.65a.707.707 0 0 0 1.414 0h.008v-.204c.31.338.658.575 1.048.714.352.13.714.197 1.084.197.904 0 1.665-.332 2.28-.994.616-.66.924-1.473.924-2.437.002-.95-.308-1.755-.933-2.405zm-1.19 3.775c-.352.363-.796.546-1.325.546-.527 0-.972-.178-1.326-.53a1.776 1.776 0 0 1-.54-1.32c0-.572.175-1.04.52-1.398.346-.36.793-.54 1.343-.54.525 0 .968.18 1.328.54.355.363.536.81.536 1.345 0 .543-.18.994-.535 1.357zm-7.414-3.972v5.328h-.004c0 .39-.322.706-.72.706a.718.718 0 0 1-.722-.71c0-.026.004-.047.007-.07v-.295a5.93 5.93 0 0 1-.315.386c-.42.458-1.022.688-1.808.688a3 3 0 0 1-1.41-.332c-.424-.22-.737-.518-.934-.886-.177-.33-.28-.732-.322-1.208-.012-.162-.02-.585-.02-1.262V52.45v-.002a.76.76 0 0 1 .77-.753.757.757 0 0 1 .756.877v2.222c0 .44.002.71.012.804 0 .307.058.58.175.826.197.424.61.638 1.24.638 1.17 0 1.756-.758 1.756-2.268V52.45a.76.76 0 0 1 .767-.753c.427 0 .773.336.773.753zm.43-15.628c-.41 0-.738.336-.738.747v2.24c-.356-.308-.71-.517-1.062-.63-.29-.094-.6-.14-.937-.14-.903 0-1.663.326-2.273.974-.614.647-.916 1.452-.916 2.41 0 .964.303 1.774.913 2.437.61.663 1.354.992 2.242.992.736 0 1.344-.206 1.826-.618.113-.096.207-.192.28-.29v.15h.008c0 .39.312.708.697.708a.7.7 0 0 0 .697-.71v-7.52a.74.74 0 0 0-.735-.75zm-1.214 6.973c-.35.36-.786.54-1.315.54-.51 0-.943-.18-1.296-.542s-.53-.806-.53-1.332c0-.542.175-.995.527-1.362.352-.366.782-.55 1.3-.55.544 0 .987.18 1.33.533.34.354.51.81.51 1.37 0 .537-.175.986-.525 1.345zm-7.343 13.768c0 .38-.31.687-.69.687h-3.802c-.38 0-.688-.31-.688-.687s.31-.687.688-.687h1.165v-5.854h-1.165v-.007a.69.69 0 0 1 0-1.377h1.975c.38 0 .688.31.688.69 0 .01-.003.02-.003.028v6.52h1.146a.69.69 0 0 1 .686.687zm-11.408-3.88c-.366.382-.548.88-.548 1.383s.182 1.004.548 1.387a1.832 1.832 0 0 0 2.66 0c.275-.288.9-.288 1.196 0a.713.713 0 0 1 0 1.033c-.69.665-1.598 1-2.505 1s-1.812-.335-2.5-1a3.34 3.34 0 0 1 0-4.835c1.38-1.332 3.625-1.332 5.005 0a.71.71 0 0 1 0 1.033c-.295.285-.92.285-1.195 0a1.83 1.83 0 0 0-2.66 0zm-.02-12.634a2.003 2.003 0 0 0-.546 1.382c0 .502.182 1.002.546 1.386a1.8 1.8 0 0 0 2.633 0c.27-.286.894-.286 1.185 0a.716.716 0 0 1 0 1.03c-.683.67-1.58 1.002-2.48 1.002a3.53 3.53 0 0 1-2.477-1 3.363 3.363 0 0 1 0-4.835c1.365-1.334 3.59-1.334 4.957 0a.715.715 0 0 1 0 1.033c-.29.284-.91.284-1.185 0a1.8 1.8 0 0 0-2.633 0zm28.678 3.862a.742.742 0 0 0 0-1.072c-.304-.297-.858-.295-1.144 0l.004-.002c-.36.32-.86.487-1.306.497h-.24c-.523 0-.96-.12-1.313-.36-.357-.24-.58-.58-.66-.99h4.267c.475 0 .86-.396.86-.885l-.002-.062c0-.005.003-.01.003-.016a3.373 3.373 0 0 0-.916-1.972c-.63-.675-1.424-1.01-2.388-1.01-.936 0-1.733.332-2.404.997-.676.667-1.01 1.478-1.01 2.435 0 .977.324 1.782.976 2.42.647.64 1.476.956 2.476.956h.333c.896 0 1.79-.32 2.49-.96l-.025.024z"/></g><path opacity=".6" fill="none" stroke="#CCCBCB" stroke-miterlimit="10" d="M105.712 5.405h86.83v86.832h-86.83z"/><g fill="#DF1F26"><path d="M287.302 19.127l-4.153-4.152L296.02 2.1l4.153 4.15z"/><path d="M300.6 14.977l-4.153 4.152-12.87-12.876 4.153-4.152z"/></g><g fill="#DF1F26"><path d="M181.898 19.128l-4.153-4.15L190.615 2.1l4.153 4.15z"/><path d="M195.184 14.96l-4.15 4.153L178.158 6.24l4.15-4.152z"/></g><g fill="#DF1F26"><path d="M79.8 19.117l-4.153-4.15L88.517 2.09l4.153 4.152z"/><path d="M93.083 14.972l-4.152 4.15L76.06 6.247l4.15-4.15z"/></g></svg>