<svg xmlns="http://www.w3.org/2000/svg" width="185.574" height="166.25" viewBox="0 0 185.574 166.25"><path opacity=".6" fill="none" stroke="#CCCBCB" stroke-miterlimit="10" d="M27.68 18.542h130.11V148.65H27.68z"/><path fill="none" stroke="#000" stroke-miterlimit="10" d="M158.645 85.308H28.537"/><path d="M2.6 98.036c0-.238.12-.357.355-.357h1.33v-4.93c0-.24.01-.465.01-.465h-.02s-.098.173-.336.41l-.486.477c-.173.163-.346.163-.5-.01l-.15-.152c-.172-.173-.162-.347 0-.51L4.19 91.15a.586.586 0 0 1 .43-.174h.346c.238 0 .356.117.356.354v6.35h1.32c.228 0 .356.12.356.354v.217c0 .237-.13.353-.356.353H2.957c-.238 0-.356-.116-.356-.354v-.215zM7.85 94.78c0-2.195.67-3.936 2.705-3.936 2.043 0 2.703 1.74 2.703 3.935 0 2.206-.66 3.957-2.703 3.957-2.036 0-2.705-1.75-2.705-3.958zm4.303 0c0-1.655-.346-2.953-1.6-2.953-1.246 0-1.602 1.298-1.602 2.952 0 1.665.357 2.972 1.602 2.972 1.256.004 1.6-1.307 1.6-2.973zM14.396 92.444c0-.876.735-1.6 1.643-1.6.896 0 1.643.724 1.643 1.6 0 .888-.747 1.6-1.644 1.6-.908 0-1.644-.712-1.644-1.6zm5.852-1.265a.494.494 0 0 1 .433-.205h.196c.303 0 .4.194.216.432l-5.343 6.988a.49.49 0 0 1-.433.214h-.194c-.304 0-.4-.195-.216-.433l5.34-6.998zm-3.408 1.264a.807.807 0 0 0-.8-.81.8.8 0 0 0-.8.81c0 .453.345.8.8.8a.79.79 0 0 0 .8-.8zm3.114 3.095c.91 0 1.644.72 1.644 1.6 0 .887-.735 1.6-1.644 1.6-.907 0-1.632-.713-1.632-1.6 0-.88.725-1.6 1.632-1.6zm0 2.398a.786.786 0 0 0 .802-.8.802.802 0 0 0-.802-.813.8.8 0 0 0-.79.812c0 .455.35.8.79.8zM166.572 87.21c0-.237.12-.354.356-.354h1.33v-4.932c0-.237.01-.464.01-.464h-.02s-.098.174-.335.412l-.486.476c-.173.163-.347.163-.498-.01l-.15-.152c-.174-.172-.163-.345 0-.508l1.385-1.353a.598.598 0 0 1 .432-.172h.344c.238 0 .358.117.358.355v6.347h1.32c.227 0 .355.12.355.357v.216c0 .237-.13.356-.356.356h-3.687c-.237 0-.355-.12-.355-.356v-.218h-.003zM171.823 83.955c0-2.195.67-3.936 2.704-3.936 2.046 0 2.704 1.74 2.704 3.935 0 2.206-.657 3.957-2.703 3.957-2.035 0-2.704-1.75-2.704-3.957zm4.304 0c0-1.653-.347-2.953-1.6-2.953-1.246 0-1.603 1.298-1.603 2.953 0 1.666.356 2.974 1.603 2.974 1.253 0 1.6-1.31 1.6-2.975zM178.37 81.62c0-.877.735-1.6 1.644-1.6.896 0 1.642.723 1.642 1.6 0 .887-.745 1.6-1.642 1.6-.91 0-1.645-.713-1.645-1.6zm5.85-1.266a.5.5 0 0 1 .435-.206h.194c.304 0 .398.196.217.435l-5.344 6.984a.492.492 0 0 1-.43.218h-.2c-.3 0-.398-.196-.213-.432l5.34-7zm-3.406 1.266a.8.8 0 0 0-1.6 0c0 .453.344.798.8.798a.79.79 0 0 0 .8-.798zm3.116 3.092c.91 0 1.645.726 1.645 1.602 0 .887-.737 1.602-1.645 1.602-.906 0-1.632-.715-1.632-1.602 0-.876.722-1.602 1.632-1.602zm0 2.4a.785.785 0 0 0 .802-.8.802.802 0 0 0-.802-.81.8.8 0 0 0-.79.81c0 .457.348.8.79.8z"/><path fill="none" stroke="#000" stroke-miterlimit="10" d="M29.393 81.027v6.848M157.79 81.027v6.848M94.446 17.686v130.107M90.167 146.938h8.56M90.167 18.542h8.56"/><g><path fill="#339847" d="M148.275 81.898c0 29.887-24.228 54.117-54.115 54.117-29.89 0-54.12-24.23-54.12-54.117s24.23-54.116 54.12-54.116c29.888 0 54.115 24.228 54.115 54.116z"/><path fill="#B1D9AD" d="M67.16 103.834c0 .808-.196 1.455-.997 1.475v.01c-.428.036.104.053-.243.053-2.71 0-4.63-.593-5.752-1.787-1.123-1.19-1.686-3.213-1.686-6.063v-9.72c0-1.535-.225-2.682-.675-3.435-.445-.745-1.225-1.278-2.332-1.61a1.513 1.513 0 0 1-.962-1.404c0-.632.387-1.173.936-1.4v-.003c2.02-.535 3.033-2.126 3.033-4.77V64.81c0-2.572.578-4.432 1.738-5.572 1.155-1.142 3.06-1.712 5.7-1.712h.243v.002c.83.005 1.056.678 1.056 1.506 0 .833-.227 1.04-1.057 1.047v.02c-1.987.034-3.324.37-4.017 1.01-.688.64-1.035 1.875-1.035 3.71v10.568c0 1.19-.154 2.29-.467 3.29-.36 1.125-1.287 2.058-2.773 2.8 1.192.64 2.03 1.418 2.516 2.334.483.917.726 2.212.726 3.888v10.18c0 1.973.327 3.28.983 3.93.656.65 2.014.977 4.068.997v.02c.8.018.998.205.998 1.007zM122.155 102.82v-.02c2.055-.018 3.41-.348 4.065-.998.66-.648.987-1.957.987-3.927v-10.18c0-1.676.243-2.972.726-3.888.484-.916 1.32-1.692 2.514-2.334-1.484-.742-2.41-1.675-2.773-2.8-.312-1-.466-2.1-.466-3.29V64.814c0-1.832-.345-3.068-1.037-3.708-.69-.64-2.032-.977-4.015-1.01v-.02c-.83-.007-1.5-.214-1.5-1.045s.67-1.503 1.5-1.508h.24c2.647 0 4.548.568 5.706 1.71 1.158 1.14 1.736 2.998 1.736 5.573v10.367c0 2.645 1.012 4.235 3.035 4.77v.005c.55.228.937.767.937 1.398 0 .64-.4 1.182-.963 1.403-1.106.334-1.888.87-2.334 1.613-.447.754-.674 1.897-.674 3.434v9.72c0 2.853-.56 4.874-1.683 6.064-1.124 1.196-3.043 1.788-5.758 1.788-.345 0 .19-.017-.24-.052v-.01a1.48 1.48 0 0 1-1.45-1.48c.002-.794.647-.98 1.45-1.005z"/><path fill="#FFF" d="M86.83 76.824c1.57 0 2.915-.55 4.026-1.646 1.11-1.1 1.667-2.42 1.667-3.962 0-1.533-.557-2.85-1.672-3.94-1.115-1.09-2.454-1.637-4.022-1.637-1.566 0-2.905.544-4.013 1.63-1.107 1.09-1.662 2.408-1.662 3.948 0 1.542.555 2.862 1.662 3.962 1.11 1.095 2.45 1.644 4.015 1.644zm-2.29-7.9a3.1 3.1 0 0 1 2.288-.955c.904 0 1.668.314 2.293.948.63.634.942 1.4.942 2.298 0 .912-.312 1.685-.94 2.318-.626.636-1.39.952-2.294.952a3.095 3.095 0 0 1-2.287-.952 3.126 3.126 0 0 1-.945-2.295c0-.91.315-1.678.946-2.316zm29.72-.808c1.55 0 2.563.686 2.92 1.96h-5.787c.458-1.274 1.45-1.96 2.868-1.96zm3.917 19.88c-1.02-1.07-2.28-1.603-3.772-1.603-1.062 0-2 .288-2.812.86-.2.15-.37.287-.508.404V83.85a1.236 1.236 0 0 0-2.474 0v12.57a1.16 1.16 0 0 0 2.32 0h.01v-.336c.513.555 1.088.944 1.724 1.172a5.107 5.107 0 0 0 1.782.322c1.486 0 2.734-.543 3.748-1.63 1.012-1.085 1.518-2.418 1.518-4.004 0-1.56-.51-2.882-1.535-3.95zm-1.953 6.198c-.583.597-1.312.896-2.18.896-.866 0-1.595-.29-2.18-.87-.588-.58-.882-1.304-.882-2.17 0-.94.284-1.7.853-2.293.567-.594 1.3-.89 2.21-.89.86 0 1.585.298 2.176.893.586.594.88 1.33.88 2.21 0 .888-.29 1.628-.876 2.224zm-12.188-6.524v8.755a1.172 1.172 0 0 1-1.186 1.157c-.653 0-1.186-.52-1.186-1.162 0-.042.007-.082.01-.12v-.48a8.88 8.88 0 0 1-.518.632c-.688.75-1.68 1.132-2.97 1.132-.855 0-1.628-.182-2.323-.543-.693-.363-1.205-.852-1.528-1.455-.29-.54-.466-1.204-.53-1.986-.022-.267-.032-.96-.032-2.072v-3.854-.003c0-.684.566-1.236 1.265-1.236.695 0 1.263.553 1.263 1.237 0 .072-.01.138-.02.204v3.653c0 .726.005 1.164.02 1.32 0 .504.096.953.287 1.355.32.7 1 1.05 2.032 1.05 1.922 0 2.887-1.242 2.887-3.723v-3.86c0-.685.564-1.237 1.262-1.237.698 0 1.266.552 1.266 1.237zm.71-25.676a1.22 1.22 0 0 0-1.215 1.228v3.683c-.586-.506-1.168-.85-1.743-1.038a5.03 5.03 0 0 0-1.536-.228c-1.483 0-2.732.532-3.737 1.595-1.003 1.064-1.505 2.386-1.505 3.96 0 1.583.5 2.917 1.5 4.002 1.002 1.087 2.227 1.628 3.684 1.628 1.21 0 2.21-.338 3.002-1.015.183-.16.335-.316.46-.477v.248h.012c0 .642.515 1.164 1.146 1.164.634 0 1.147-.522 1.147-1.163V63.223c0-.677-.545-1.228-1.215-1.228zM102.75 73.45c-.57.593-1.294.89-2.163.89a2.873 2.873 0 0 1-2.133-.893c-.578-.598-.87-1.326-.87-2.188 0-.893.288-1.64.865-2.242.578-.6 1.287-.9 2.135-.9.895 0 1.624.288 2.186.87.56.58.84 1.33.84 2.25-.002.883-.286 1.62-.86 2.212zM90.686 96.072c0 .623-.506 1.132-1.128 1.132h-6.25a1.13 1.13 0 0 1 0-2.26h1.913v-9.617H83.31v-.01a1.132 1.132 0 0 1 0-2.26h3.244c.622 0 1.127.504 1.127 1.13 0 .017-.004.035-.006.048l.004.005v10.703h1.88c.622 0 1.128.504 1.128 1.13zm-18.742-6.378c-.603.625-.905 1.45-.905 2.273s.302 1.648.904 2.275a3.008 3.008 0 0 0 4.37 0c.45-.47 1.48-.47 1.963 0a1.17 1.17 0 0 1 0 1.697c-1.133 1.092-2.623 1.64-4.114 1.64s-2.98-.548-4.11-1.64a5.486 5.486 0 0 1 0-7.946c2.27-2.188 5.958-2.188 8.225 0 .486.47.486 1.23 0 1.7-.484.47-1.512.47-1.963 0a3.01 3.01 0 0 0-4.37 0zm-.036-20.755c-.6.626-.895 1.447-.895 2.272s.296 1.646.895 2.275a2.96 2.96 0 0 0 4.326 0c.444-.472 1.462-.472 1.943 0a1.18 1.18 0 0 1 0 1.696 5.815 5.815 0 0 1-4.072 1.642 5.804 5.804 0 0 1-4.07-1.642c-2.245-2.19-2.245-5.752 0-7.943s5.898-2.19 8.143 0a1.178 1.178 0 0 1 0 1.698c-.48.467-1.498.467-1.943 0a2.96 2.96 0 0 0-4.327 0zm47.12 6.344a1.223 1.223 0 0 0 0-1.76c-.5-.486-1.412-.486-1.878 0l.003-.004c-.594.527-1.418.8-2.144.818h-.398c-.856 0-1.575-.198-2.157-.593a2.51 2.51 0 0 1-1.088-1.625h7.014c.783 0 1.415-.65 1.415-1.452 0-.037-.004-.068-.004-.103 0-.01.005-.018.005-.024-.154-1.283-.657-2.34-1.502-3.242-1.038-1.105-2.344-1.658-3.925-1.658-1.542 0-2.85.548-3.956 1.642-1.106 1.096-1.658 2.428-1.658 4 0 1.602.533 2.927 1.602 3.974 1.068 1.05 2.426 1.57 4.07 1.57h.544a6.025 6.025 0 0 0 4.09-1.578l-.03.036z"/></g><g><path d="M85.032 160.81c0-.237.12-.353.356-.353h1.33v-4.933c0-.237.01-.463.01-.463h-.02s-.1.173-.336.41l-.486.48c-.173.16-.346.16-.498-.013l-.15-.152c-.173-.174-.163-.346 0-.508l1.385-1.353c.13-.12.26-.172.432-.172h.345c.238 0 .356.117.356.354v6.35h1.32c.228 0 .355.118.355.354v.217c0 .237-.128.354-.354.354H85.39c-.238 0-.356-.116-.356-.353v-.217h-.002zM90.283 157.555c0-2.194.67-3.937 2.705-3.937 2.043 0 2.702 1.742 2.702 3.937 0 2.207-.66 3.958-2.702 3.958-2.036 0-2.705-1.75-2.705-3.958zm4.304 0c0-1.653-.346-2.954-1.6-2.954-1.246 0-1.602 1.3-1.602 2.955 0 1.665.355 2.975 1.6 2.975 1.256 0 1.602-1.31 1.602-2.975zM96.83 155.22c0-.876.737-1.602 1.646-1.602.896 0 1.642.726 1.642 1.602 0 .886-.745 1.602-1.642 1.602-.91-.005-1.646-.717-1.646-1.602zm5.852-1.264a.494.494 0 0 1 .432-.208h.195c.302 0 .398.196.215.435l-5.343 6.985a.493.493 0 0 1-.432.217h-.193c-.305 0-.4-.195-.218-.435l5.342-6.994zm-3.408 1.264a.81.81 0 0 0-.8-.812.802.802 0 0 0-.802.812c0 .454.347.8.803.8a.79.79 0 0 0 .8-.8zm3.117 3.092c.91 0 1.644.726 1.644 1.602 0 .886-.736 1.602-1.643 1.602-.908 0-1.634-.716-1.634-1.602 0-.876.725-1.602 1.635-1.602zm0 2.4c.456 0 .8-.343.8-.8a.8.8 0 0 0-.8-.81.798.798 0 0 0-.788.81c0 .457.344.8.79.8z"/></g><g><path d="M85.032 10.004c0-.238.12-.356.356-.356h1.33v-4.93c0-.238.01-.465.01-.465h-.02s-.1.173-.336.412l-.486.472c-.172.163-.345.163-.497-.01l-.15-.153c-.174-.173-.164-.346 0-.51l1.384-1.352a.6.6 0 0 1 .432-.172h.345c.24 0 .357.118.357.355v6.348h1.32c.228 0 .355.12.355.356v.215c0 .238-.13.355-.355.355H85.39c-.237 0-.355-.118-.355-.355v-.212h-.003zM90.283 6.748c0-2.194.67-3.936 2.705-3.936 2.043 0 2.702 1.74 2.702 3.936 0 2.207-.66 3.958-2.702 3.958-2.036 0-2.705-1.752-2.705-3.958zm4.304 0c0-1.654-.346-2.954-1.6-2.954-1.246 0-1.602 1.298-1.602 2.954 0 1.666.355 2.974 1.6 2.974 1.256 0 1.602-1.308 1.602-2.974zM96.83 4.413c0-.876.737-1.6 1.646-1.6.896 0 1.642.723 1.642 1.6 0 .887-.745 1.6-1.642 1.6-.91 0-1.646-.713-1.646-1.6zm5.852-1.266a.495.495 0 0 1 .432-.205h.195c.302 0 .398.195.215.433l-5.343 6.986a.492.492 0 0 1-.432.217h-.193c-.305 0-.4-.196-.218-.434l5.342-6.996zm-3.408 1.266a.808.808 0 0 0-.8-.812.802.802 0 0 0-.802.813c0 .454.347.8.803.8a.79.79 0 0 0 .8-.8zm3.117 3.093c.91 0 1.644.724 1.644 1.6 0 .887-.736 1.6-1.643 1.6-.908 0-1.634-.713-1.634-1.6 0-.876.725-1.6 1.635-1.6zm0 2.4c.456 0 .8-.346.8-.802a.8.8 0 0 0-.8-.81.798.798 0 0 0-.788.81.78.78 0 0 0 .79.802z"/></g></svg>