<?xml version="1.0" encoding="utf-8"?>
<!-- Generator: Adobe Illustrator 16.0.0, SVG Export Plug-In . SVG Version: 6.00 Build 0)  -->
<!DOCTYPE svg PUBLIC "-//W3C//DTD SVG 1.1//EN" "http://www.w3.org/Graphics/SVG/1.1/DTD/svg11.dtd">
<svg version="1.1" id="Layer_1" xmlns="http://www.w3.org/2000/svg" xmlns:xlink="http://www.w3.org/1999/xlink" x="0px" y="0px"
	 width="100px" height="100px" viewBox="0 0 100 100" enable-background="new 0 0 100 100" xml:space="preserve">
<path opacity="0.2" fill="#ED1C24" enable-background="new    " d="M9,0h5v100H9V0z M16,0h5v100h-5V0z M23,0h5v100h-5V0z M30,0h5
	v100h-5V0z M37,0h5v100h-5V0z M44,0h5v100h-5V0z M51,0h5v100h-5V0z M58,0h5v100h-5V0z M65,0h5v100h-5V0z M72,0h5v100h-5V0z M79,0h5
	v100h-5V0z M86,0h5v100h-5V0z"/>
</svg>
