<?xml version="1.0" encoding="utf-8"?>
<!-- Generator: Adobe Illustrator 16.0.0, SVG Export Plug-In . SVG Version: 6.00 Build 0)  -->
<!DOCTYPE svg PUBLIC "-//W3C//DTD SVG 1.1//EN" "http://www.w3.org/Graphics/SVG/1.1/DTD/svg11.dtd">
<svg version="1.1" id="Layer_1" xmlns="http://www.w3.org/2000/svg" xmlns:xlink="http://www.w3.org/1999/xlink" x="0px" y="0px"
	 width="100px" height="100px" viewBox="0 0 100 100" enable-background="new 0 0 100 100" xml:space="preserve">
<rect x="5" opacity="0.2" fill="#ED1C24" width="40" height="100"/>
<rect x="55" opacity="0.2" fill="#ED1C24" width="40" height="100"/>
<g opacity="0.5">
	<path d="M46.983,52.138v-0.499h0.914v2.267h-0.589v-1.768H46.983z"/>
	<path d="M50.551,52.772c0,0.589-0.286,1.223-0.962,1.223c-0.677,0-0.962-0.634-0.962-1.223c0-0.59,0.289-1.224,0.962-1.224
		S50.551,52.183,50.551,52.772z M49.213,52.769c0,0.22,0.072,0.707,0.376,0.707c0.303,0,0.375-0.487,0.375-0.707
		c0-0.219-0.072-0.7-0.375-0.7C49.285,52.068,49.213,52.55,49.213,52.769z"/>
	<path d="M51.91,52.159c0,0.366-0.273,0.559-0.619,0.559c-0.345,0-0.619-0.192-0.619-0.559c0-0.361,0.283-0.551,0.619-0.551
		C51.629,51.608,51.91,51.798,51.91,52.159z M51.036,52.165c0,0.141,0.114,0.252,0.255,0.252c0.143,0,0.256-0.111,0.256-0.252
		c0-0.142-0.113-0.256-0.256-0.256C51.15,51.909,51.036,52.023,51.036,52.165z M52.885,51.639l-1.316,2.267h-0.295l1.316-2.267
		H52.885z M53.488,53.376c0,0.367-0.273,0.56-0.619,0.56s-0.619-0.192-0.619-0.56c0-0.36,0.283-0.55,0.619-0.55
		C53.207,52.826,53.488,53.016,53.488,53.376z M52.613,53.382c0,0.142,0.115,0.253,0.256,0.253c0.143,0,0.256-0.111,0.256-0.253
		c0-0.141-0.113-0.255-0.256-0.255C52.729,53.127,52.613,53.241,52.613,53.382z"/>
</g>
<g opacity="0.5">
	<path d="M73.719,52.985v0.451h-0.273v0.469h-0.547v-0.469h-1.101v-0.376l0.875-1.422h0.772v1.347H73.719z M72.898,52.113h-0.006
		l-0.529,0.872h0.535V52.113z"/>
	<path d="M75.801,52.772c0,0.589-0.285,1.223-0.961,1.223c-0.678,0-0.963-0.634-0.963-1.223c0-0.59,0.289-1.224,0.963-1.224
		C75.513,51.549,75.801,52.183,75.801,52.772z M74.463,52.769c0,0.22,0.072,0.707,0.377,0.707c0.303,0,0.375-0.487,0.375-0.707
		c0-0.219-0.072-0.7-0.375-0.7C74.535,52.068,74.463,52.55,74.463,52.769z"/>
	<path d="M77.161,52.159c0,0.366-0.273,0.559-0.619,0.559s-0.619-0.192-0.619-0.559c0-0.361,0.282-0.551,0.619-0.551
		S77.161,51.798,77.161,52.159z M76.287,52.165c0,0.141,0.113,0.252,0.255,0.252s0.255-0.111,0.255-0.252
		c0-0.142-0.113-0.256-0.255-0.256S76.287,52.023,76.287,52.165z M78.135,51.639l-1.316,2.267h-0.295l1.317-2.267H78.135z
		 M78.739,53.376c0,0.367-0.273,0.56-0.619,0.56s-0.619-0.192-0.619-0.56c0-0.36,0.282-0.55,0.619-0.55S78.739,53.016,78.739,53.376
		z M77.864,53.382c0,0.142,0.114,0.253,0.256,0.253s0.256-0.111,0.256-0.253c0-0.141-0.114-0.255-0.256-0.255
		S77.864,53.241,77.864,53.382z"/>
</g>
<g opacity="0.5">
	<path d="M95.986,52.138l-0.039,0.259l0.186-0.016c0.463-0.036,0.803,0.343,0.803,0.812c0,0.238-0.105,0.46-0.291,0.613
		c-0.181,0.145-0.436,0.189-0.662,0.189c-0.258,0-0.52-0.062-0.738-0.204l0.086-0.556c0.175,0.156,0.397,0.261,0.632,0.261
		c0.187,0,0.36-0.135,0.36-0.333c0-0.273-0.262-0.388-0.496-0.388c-0.15,0-0.297,0.029-0.433,0.093l0.198-1.229h1.179v0.499H95.986z
		"/>
	<path d="M98.432,52.159c0,0.366-0.273,0.559-0.619,0.559s-0.619-0.192-0.619-0.559c0-0.361,0.283-0.551,0.619-0.551
		C98.149,51.608,98.432,51.798,98.432,52.159z M97.557,52.165c0,0.141,0.115,0.252,0.256,0.252c0.142,0,0.256-0.111,0.256-0.252
		c0-0.142-0.114-0.256-0.256-0.256C97.672,51.909,97.557,52.023,97.557,52.165z M99.406,51.639l-1.316,2.267h-0.295l1.316-2.267
		H99.406z M100.01,53.376c0,0.367-0.273,0.56-0.619,0.56s-0.619-0.192-0.619-0.56c0-0.36,0.283-0.55,0.619-0.55
		C99.728,52.826,100.01,53.016,100.01,53.376z M99.135,53.382c0,0.142,0.115,0.253,0.256,0.253c0.142,0,0.256-0.111,0.256-0.253
		c0-0.141-0.114-0.255-0.256-0.255C99.25,53.127,99.135,53.241,99.135,53.382z"/>
</g>
<g opacity="0.5">
	<path d="M24.135,52.985v0.451h-0.273v0.469h-0.547v-0.469h-1.101v-0.376l0.875-1.422h0.772v1.347H24.135z M23.314,52.113h-0.006
		l-0.529,0.872h0.535V52.113z"/>
	<path d="M26.217,52.772c0,0.589-0.286,1.223-0.962,1.223c-0.677,0-0.962-0.634-0.962-1.223c0-0.59,0.289-1.224,0.962-1.224
		S26.217,52.183,26.217,52.772z M24.879,52.769c0,0.22,0.072,0.707,0.376,0.707c0.303,0,0.375-0.487,0.375-0.707
		c0-0.219-0.072-0.7-0.375-0.7C24.952,52.068,24.879,52.55,24.879,52.769z"/>
	<path d="M27.577,52.159c0,0.366-0.273,0.559-0.619,0.559s-0.619-0.192-0.619-0.559c0-0.361,0.283-0.551,0.619-0.551
		C27.295,51.608,27.577,51.798,27.577,52.159z M26.703,52.165c0,0.141,0.114,0.252,0.255,0.252c0.142,0,0.255-0.111,0.255-0.252
		c0-0.142-0.114-0.256-0.255-0.256C26.817,51.909,26.703,52.023,26.703,52.165z M28.551,51.639l-1.316,2.267H26.94l1.317-2.267
		H28.551z M29.155,53.376c0,0.367-0.273,0.56-0.619,0.56s-0.619-0.192-0.619-0.56c0-0.36,0.282-0.55,0.619-0.55
		S29.155,53.016,29.155,53.376z M28.28,53.382c0,0.142,0.114,0.253,0.256,0.253s0.256-0.111,0.256-0.253
		c0-0.141-0.114-0.255-0.256-0.255S28.28,53.241,28.28,53.382z"/>
</g>
<g opacity="0.5">
	<path d="M0.767,52.138l-0.039,0.259l0.187-0.016c0.463-0.036,0.803,0.343,0.803,0.812c0,0.238-0.105,0.46-0.292,0.613
		c-0.18,0.145-0.436,0.189-0.661,0.189c-0.258,0-0.52-0.062-0.739-0.204l0.087-0.556c0.174,0.156,0.397,0.261,0.631,0.261
		c0.187,0,0.361-0.135,0.361-0.333c0-0.273-0.262-0.388-0.496-0.388c-0.15,0-0.298,0.029-0.433,0.093l0.199-1.229h1.178v0.499H0.767
		z"/>
	<path d="M3.213,52.159c0,0.366-0.273,0.559-0.619,0.559s-0.619-0.192-0.619-0.559c0-0.361,0.283-0.551,0.619-0.551
		C2.931,51.608,3.213,51.798,3.213,52.159z M2.338,52.165c0,0.141,0.114,0.252,0.255,0.252c0.142,0,0.255-0.111,0.255-0.252
		c0-0.142-0.114-0.256-0.255-0.256C2.453,51.909,2.338,52.023,2.338,52.165z M4.187,51.639l-1.316,2.267H2.576l1.317-2.267H4.187z
		 M4.791,53.376c0,0.367-0.273,0.56-0.619,0.56s-0.619-0.192-0.619-0.56c0-0.36,0.283-0.55,0.619-0.55
		C4.509,52.826,4.791,53.016,4.791,53.376z M3.917,53.382c0,0.142,0.114,0.253,0.255,0.253c0.142,0,0.255-0.111,0.255-0.253
		c0-0.141-0.114-0.255-0.255-0.255C4.031,53.127,3.917,53.241,3.917,53.382z"/>
</g>
<g>
</g>
<g>
</g>
<g>
</g>
<g>
</g>
<g>
</g>
<g>
</g>
<g>
</g>
<g>
</g>
<g>
</g>
<g>
</g>
<g>
</g>
<g>
</g>
<g>
</g>
<g>
</g>
<g>
</g>
</svg>
