<svg xmlns="http://www.w3.org/2000/svg" width="100" height="100" viewBox="0 0 100 100"><path opacity=".2" fill="#ED1C24" d="M5 0h40v100H5zM55 0h40v100H55z"/><g opacity=".5"><path d="M46.983 52.138v-.5h.914v2.268h-.59v-1.768h-.324zM50.55 52.772c0 .59-.285 1.223-.96 1.223-.678 0-.963-.634-.963-1.223 0-.59.29-1.224.962-1.224s.96.635.96 1.224zm-1.337-.003c0 .22.072.706.376.706.302 0 .374-.487.374-.707 0-.22-.072-.7-.375-.7-.305-.002-.377.48-.377.7zM51.91 52.16c0 .365-.273.558-.62.558-.344 0-.618-.192-.618-.56 0-.36.283-.55.62-.55s.618.19.618.55zm-.874.005c0 .14.114.252.255.252a.255.255 0 0 0 0-.508.255.255 0 0 0-.254.256zm1.85-.526l-1.317 2.266h-.296l1.316-2.267h.295zm.602 1.736c0 .367-.273.56-.62.56s-.618-.192-.618-.56c0-.36.283-.55.62-.55s.618.19.618.55zm-.875.006c0 .142.115.253.256.253a.254.254 0 0 0 0-.508.256.256 0 0 0-.257.255z"/></g><g opacity=".5"><path d="M73.72 52.985v.45h-.274v.47H72.9v-.47h-1.102v-.375l.875-1.422h.772v1.347h.274zm-.822-.872h-.006l-.53.872h.536v-.872zM75.8 52.772c0 .59-.284 1.223-.96 1.223-.678 0-.963-.634-.963-1.223 0-.59.29-1.224.963-1.224s.96.635.96 1.224zm-1.337-.003c0 .22.072.706.377.706.303 0 .375-.487.375-.707 0-.22-.072-.7-.375-.7-.305-.002-.377.48-.377.7zM77.16 52.16c0 .365-.272.558-.618.558s-.62-.192-.62-.56c0-.36.283-.55.62-.55s.62.19.62.55zm-.873.005c0 .14.113.252.255.252s.255-.11.255-.252c0-.142-.113-.256-.255-.256s-.255.113-.255.255zm1.848-.526l-1.316 2.266h-.296l1.317-2.267h.295zm.604 1.736c0 .367-.274.56-.62.56s-.62-.192-.62-.56c0-.36.283-.55.62-.55s.62.19.62.55zm-.876.006c0 .142.114.253.256.253s.256-.11.256-.253c0-.14-.114-.255-.256-.255s-.256.114-.256.255z"/></g><g opacity=".5"><path d="M95.986 52.138l-.04.26.187-.017c.463-.035.803.344.803.813a.79.79 0 0 1-.29.613c-.182.145-.437.19-.663.19-.258 0-.52-.063-.738-.205l.086-.555c.176.156.398.26.633.26.187 0 .36-.134.36-.332 0-.273-.262-.388-.496-.388-.15 0-.297.03-.433.093l.198-1.23h1.18v.5h-.786zM98.432 52.16c0 .365-.273.558-.62.558s-.618-.192-.618-.56c0-.36.283-.55.62-.55.335 0 .618.19.618.55zm-.875.005c0 .14.115.252.256.252.142 0 .256-.11.256-.252a.256.256 0 0 0-.512 0zm1.85-.526l-1.317 2.266h-.295l1.316-2.267h.296zm.603 1.736c0 .367-.273.56-.62.56s-.618-.192-.618-.56c0-.36.283-.55.62-.55.336 0 .618.19.618.55zm-.875.006c0 .142.115.253.256.253.143 0 .257-.11.257-.253a.256.256 0 0 0-.512 0z"/></g><g opacity=".5"><path d="M24.135 52.985v.45h-.273v.47h-.547v-.47h-1.1v-.375l.874-1.422h.77v1.347h.275zm-.82-.872h-.007l-.53.872h.536v-.872zM26.217 52.772c0 .59-.286 1.223-.962 1.223-.677 0-.962-.634-.962-1.223 0-.59.29-1.224.962-1.224s.962.635.962 1.224zm-1.338-.003c0 .22.07.706.375.706.303 0 .375-.487.375-.707 0-.22-.072-.7-.375-.7-.303-.002-.376.48-.376.7zM27.577 52.16c0 .365-.273.558-.62.558s-.618-.192-.618-.56c0-.36.282-.55.618-.55.337 0 .62.19.62.55zm-.874.005c0 .14.114.252.255.252.142 0 .255-.11.255-.252a.255.255 0 0 0-.51 0zm1.848-.526l-1.315 2.266h-.295l1.317-2.267h.294zm.605 1.736c0 .367-.273.56-.62.56s-.618-.192-.618-.56c0-.36.282-.55.62-.55s.618.19.618.55zm-.875.006c0 .142.114.253.256.253s.256-.11.256-.253c0-.14-.114-.255-.256-.255s-.256.114-.256.255z"/></g><g opacity=".5"><path d="M.767 52.138l-.04.26.188-.017c.463-.035.803.344.803.813 0 .238-.105.46-.292.613-.18.145-.436.19-.66.19-.26 0-.52-.063-.74-.205l.087-.555c.174.156.397.26.63.26.188 0 .362-.134.362-.332 0-.273-.262-.388-.496-.388-.15 0-.3.03-.434.093l.2-1.23h1.177v.5H.767zM3.213 52.16c0 .365-.273.558-.62.558s-.618-.192-.618-.56c0-.36.283-.55.62-.55.336 0 .618.19.618.55zm-.875.005c0 .14.114.252.255.252.142 0 .255-.11.255-.252a.255.255 0 0 0-.51 0zm1.85-.526L2.87 53.905h-.294l1.317-2.267h.294zm.603 1.736c0 .367-.272.56-.618.56s-.62-.192-.62-.56c0-.36.284-.55.62-.55.337 0 .62.19.62.55zm-.873.006c0 .142.114.253.255.253.142 0 .255-.11.255-.253a.255.255 0 0 0-.51 0z"/></g></svg>