<svg xmlns="http://www.w3.org/2000/svg" width="100" height="100" viewBox="0 0 100 100"><path opacity=".2" fill="#ED1C24" d="M67 0h26v100H67zM37 0h26v100H37zM7 0h26v100H7z"/><g opacity=".5"><path d="M48.42 53.406v.5h-1.822l.926-1.008c.132-.145.26-.35.26-.557 0-.143-.104-.293-.26-.293-.16 0-.247.123-.247.276 0 .03.003.063.01.096h-.65c.018-.52.35-.872.884-.872.476 0 .876.312.876.806 0 .324-.135.514-.367.725l-.353.326h.743zM48.77 52.138v-.5h1.862l-1.302 2.268h-.646l1.034-1.768h-.947zM51.91 52.16c0 .365-.273.558-.62.558-.344 0-.618-.192-.618-.56 0-.36.283-.55.62-.55s.618.19.618.55zm-.874.005c0 .14.114.252.255.252a.255.255 0 0 0 0-.508.255.255 0 0 0-.254.256zm1.85-.526l-1.317 2.266h-.296l1.316-2.267h.295zm.602 1.736c0 .367-.273.56-.62.56s-.618-.192-.618-.56c0-.36.283-.55.62-.55s.618.19.618.55zm-.875.006c0 .142.115.253.256.253a.254.254 0 0 0 0-.508.256.256 0 0 0-.257.255z"/></g><g opacity=".5"><path d="M73.67 53.406v.5h-1.82l.926-1.008c.132-.145.258-.35.258-.557 0-.143-.102-.293-.258-.293-.16 0-.247.123-.247.276 0 .03.002.063.008.096h-.648c.018-.52.348-.872.883-.872.476 0 .875.312.875.806 0 .324-.135.514-.366.725l-.353.326h.74zM74.02 52.138v-.5h1.862l-1.303 2.268h-.647l1.034-1.768h-.946zM77.16 52.16c0 .365-.272.558-.618.558s-.62-.192-.62-.56c0-.36.283-.55.62-.55s.62.19.62.55zm-.873.005c0 .14.113.252.255.252s.255-.11.255-.252c0-.142-.113-.256-.255-.256s-.255.113-.255.255zm1.848-.526l-1.316 2.266h-.296l1.317-2.267h.295zm.604 1.736c0 .367-.274.56-.62.56s-.62-.192-.62-.56c0-.36.283-.55.62-.55s.62.19.62.55zm-.876.006c0 .142.114.253.256.253s.256-.11.256-.253c0-.14-.114-.255-.256-.255s-.256.114-.256.255z"/></g><g opacity=".5"><path d="M95.29 52.138v-.5h1.862l-1.302 2.268h-.646l1.033-1.768h-.946zM98.432 52.16c0 .365-.273.558-.62.558s-.618-.192-.618-.56c0-.36.283-.55.62-.55.335 0 .618.19.618.55zm-.875.005c0 .14.115.252.256.252.142 0 .256-.11.256-.252a.256.256 0 0 0-.512 0zm1.85-.526l-1.317 2.266h-.295l1.316-2.267h.296zm.603 1.736c0 .367-.273.56-.62.56s-.618-.192-.618-.56c0-.36.283-.55.62-.55.336 0 .618.19.618.55zm-.875.006c0 .142.115.253.256.253.143 0 .257-.11.257-.253a.256.256 0 0 0-.512 0z"/></g><g opacity=".5"><path d="M24.087 53.406v.5h-1.822l.926-1.008c.133-.145.26-.35.26-.557 0-.143-.103-.293-.26-.293-.158 0-.246.123-.246.276 0 .03.003.063.01.096h-.65c.018-.52.35-.872.884-.872.475 0 .875.312.875.806 0 .324-.135.514-.367.725l-.352.326h.743zM24.438 52.138v-.5h1.86L25 53.907h-.647l1.035-1.768h-.947zM27.577 52.16c0 .365-.273.558-.62.558s-.618-.192-.618-.56c0-.36.282-.55.618-.55.337 0 .62.19.62.55zm-.874.005c0 .14.114.252.255.252.142 0 .255-.11.255-.252a.255.255 0 0 0-.51 0zm1.848-.526l-1.315 2.266h-.295l1.317-2.267h.294zm.605 1.736c0 .367-.273.56-.62.56s-.618-.192-.618-.56c0-.36.282-.55.62-.55s.618.19.618.55zm-.875.006c0 .142.114.253.256.253s.256-.11.256-.253c0-.14-.114-.255-.256-.255s-.256.114-.256.255z"/></g><g opacity=".5"><path d="M.073 52.138v-.5h1.86l-1.3 2.268h-.647l1.034-1.768H.073zM3.213 52.16c0 .365-.273.558-.62.558s-.618-.192-.618-.56c0-.36.283-.55.62-.55.336 0 .618.19.618.55zm-.875.005c0 .14.114.252.255.252.142 0 .255-.11.255-.252a.255.255 0 0 0-.51 0zm1.85-.526L2.87 53.905h-.294l1.317-2.267h.294zm.603 1.736c0 .367-.272.56-.618.56s-.62-.192-.62-.56c0-.36.284-.55.62-.55.337 0 .62.19.62.55zm-.873.006c0 .142.114.253.255.253.142 0 .255-.11.255-.253a.255.255 0 0 0-.51 0z"/></g><g opacity=".5"><path d="M33.86 53.573v.332h-1.212l.616-.67c.088-.096.172-.23.172-.37 0-.096-.068-.195-.172-.195-.106 0-.164.082-.164.184 0 .02.002.042.006.064h-.432c.012-.346.232-.58.588-.58.316 0 .582.208.582.536 0 .216-.09.342-.244.48l-.234.22h.493zM34.532 53.71a.234.234 0 0 1-.468 0c0-.13.104-.232.234-.232s.234.103.234.233zM35.244 52.73l-.026.17.124-.01c.308-.022.534.23.534.54 0 .16-.07.307-.194.408-.12.097-.29.126-.44.126a.91.91 0 0 1-.492-.136l.058-.37a.64.64 0 0 0 .42.175c.124 0 .24-.09.24-.223 0-.182-.174-.258-.33-.258-.1 0-.198.02-.288.062l.132-.817h.784v.33h-.522zM36.873 52.744c0 .243-.182.37-.412.37s-.41-.127-.41-.37c0-.24.187-.366.41-.366.226 0 .413.126.413.366zm-.58.004c0 .094.075.168.17.168.093 0 .17-.074.17-.168a.17.17 0 0 0-.34 0zm1.228-.35l-.874 1.507h-.196l.875-1.507h.196zm.403 1.156c0 .243-.182.37-.412.37-.228 0-.41-.127-.41-.37 0-.24.187-.366.41-.366.225 0 .413.125.413.366zm-.582.004c0 .094.077.168.17.168.095 0 .17-.074.17-.168a.17.17 0 0 0-.34 0z"/></g><g opacity=".5"><path d="M63.693 53.572v.332h-1.21l.614-.67c.088-.096.172-.23.172-.37 0-.096-.07-.195-.173-.195-.105 0-.164.08-.164.183 0 .02.002.042.006.064h-.433c.012-.346.232-.58.588-.58.316 0 .582.208.582.536 0 .216-.09.342-.244.48l-.234.22h.493zM64.365 53.71c0 .128-.104.234-.233.234s-.233-.106-.233-.234a.232.232 0 0 1 .466 0zM65.078 52.73l-.026.17.124-.01c.308-.023.533.23.533.54a.52.52 0 0 1-.194.407c-.12.097-.29.126-.44.126a.91.91 0 0 1-.49-.136l.058-.37a.637.637 0 0 0 .42.175c.123 0 .24-.09.24-.223 0-.183-.175-.26-.33-.26-.1 0-.2.022-.29.063l.134-.817h.782v.33h-.522zM66.707 52.743c0 .243-.182.37-.412.37-.23 0-.41-.127-.41-.37 0-.24.187-.366.41-.366.225 0 .412.126.412.366zm-.582.004c0 .094.076.168.17.168a.17.17 0 0 0 0-.338.17.17 0 0 0-.17.17zm1.23-.35l-.876 1.507h-.197l.876-1.507h.195zm.402 1.156c0 .243-.183.37-.412.37s-.41-.127-.41-.37c0-.24.187-.366.41-.366s.412.125.412.366zm-.582.004c0 .094.076.168.17.168a.17.17 0 0 0 0-.338.17.17 0 0 0-.17.17z"/></g></svg>