<?xml version="1.0" encoding="utf-8"?>
<!-- Generator: Adobe Illustrator 16.0.0, SVG Export Plug-In . SVG Version: 6.00 Build 0)  -->
<!DOCTYPE svg PUBLIC "-//W3C//DTD SVG 1.1//EN" "http://www.w3.org/Graphics/SVG/1.1/DTD/svg11.dtd">
<svg version="1.1" id="Layer_1" xmlns="http://www.w3.org/2000/svg" xmlns:xlink="http://www.w3.org/1999/xlink" x="0px" y="0px"
	 width="100px" height="100px" viewBox="0 0 100 100" enable-background="new 0 0 100 100" xml:space="preserve">
<rect x="67" opacity="0.2" fill="#ED1C24" width="26" height="100"/>
<rect x="37" opacity="0.2" fill="#ED1C24" width="26" height="100"/>
<rect x="7" opacity="0.2" fill="#ED1C24" width="26" height="100"/>
<g opacity="0.5">
	<path d="M48.42,53.406v0.499h-1.822l0.926-1.007c0.132-0.145,0.259-0.349,0.259-0.557c0-0.144-0.103-0.294-0.259-0.294
		c-0.159,0-0.247,0.123-0.247,0.276c0,0.03,0.003,0.063,0.009,0.096h-0.649c0.018-0.52,0.349-0.871,0.884-0.871
		c0.475,0,0.875,0.312,0.875,0.806c0,0.324-0.135,0.514-0.367,0.725l-0.352,0.327H48.42z"/>
	<path d="M48.771,52.138v-0.499h1.861l-1.302,2.267h-0.646l1.034-1.768H48.771z"/>
	<path d="M51.91,52.159c0,0.366-0.273,0.559-0.619,0.559c-0.345,0-0.619-0.192-0.619-0.559c0-0.361,0.283-0.551,0.619-0.551
		C51.629,51.608,51.91,51.798,51.91,52.159z M51.036,52.165c0,0.141,0.114,0.252,0.255,0.252c0.143,0,0.256-0.111,0.256-0.252
		c0-0.142-0.113-0.256-0.256-0.256C51.15,51.909,51.036,52.023,51.036,52.165z M52.885,51.639l-1.316,2.267h-0.295l1.316-2.267
		H52.885z M53.488,53.376c0,0.367-0.273,0.56-0.619,0.56s-0.619-0.192-0.619-0.56c0-0.36,0.283-0.55,0.619-0.55
		C53.207,52.826,53.488,53.016,53.488,53.376z M52.613,53.382c0,0.142,0.115,0.253,0.256,0.253c0.143,0,0.256-0.111,0.256-0.253
		c0-0.141-0.113-0.255-0.256-0.255C52.729,53.127,52.613,53.241,52.613,53.382z"/>
</g>
<g opacity="0.5">
	<path d="M73.671,53.406v0.499H71.85l0.926-1.007c0.132-0.145,0.258-0.349,0.258-0.557c0-0.144-0.102-0.294-0.258-0.294
		c-0.16,0-0.247,0.123-0.247,0.276c0,0.03,0.003,0.063,0.009,0.096h-0.648c0.018-0.52,0.348-0.871,0.883-0.871
		c0.476,0,0.875,0.312,0.875,0.806c0,0.324-0.135,0.514-0.366,0.725l-0.353,0.327H73.671z"/>
	<path d="M74.021,52.138v-0.499h1.861l-1.303,2.267h-0.646l1.034-1.768H74.021z"/>
	<path d="M77.161,52.159c0,0.366-0.273,0.559-0.619,0.559s-0.619-0.192-0.619-0.559c0-0.361,0.282-0.551,0.619-0.551
		S77.161,51.798,77.161,52.159z M76.287,52.165c0,0.141,0.113,0.252,0.255,0.252s0.255-0.111,0.255-0.252
		c0-0.142-0.113-0.256-0.255-0.256S76.287,52.023,76.287,52.165z M78.135,51.639l-1.316,2.267h-0.295l1.317-2.267H78.135z
		 M78.739,53.376c0,0.367-0.273,0.56-0.619,0.56s-0.619-0.192-0.619-0.56c0-0.36,0.282-0.55,0.619-0.55S78.739,53.016,78.739,53.376
		z M77.864,53.382c0,0.142,0.114,0.253,0.256,0.253s0.256-0.111,0.256-0.253c0-0.141-0.114-0.255-0.256-0.255
		S77.864,53.241,77.864,53.382z"/>
</g>
<g opacity="0.5">
	<path d="M95.291,52.138v-0.499h1.861l-1.302,2.267h-0.646l1.033-1.768H95.291z"/>
	<path d="M98.432,52.159c0,0.366-0.273,0.559-0.619,0.559s-0.619-0.192-0.619-0.559c0-0.361,0.283-0.551,0.619-0.551
		C98.149,51.608,98.432,51.798,98.432,52.159z M97.557,52.165c0,0.141,0.115,0.252,0.256,0.252c0.142,0,0.256-0.111,0.256-0.252
		c0-0.142-0.114-0.256-0.256-0.256C97.672,51.909,97.557,52.023,97.557,52.165z M99.406,51.639l-1.316,2.267h-0.295l1.316-2.267
		H99.406z M100.01,53.376c0,0.367-0.273,0.56-0.619,0.56s-0.619-0.192-0.619-0.56c0-0.36,0.283-0.55,0.619-0.55
		C99.728,52.826,100.01,53.016,100.01,53.376z M99.135,53.382c0,0.142,0.115,0.253,0.256,0.253c0.142,0,0.256-0.111,0.256-0.253
		c0-0.141-0.114-0.255-0.256-0.255C99.25,53.127,99.135,53.241,99.135,53.382z"/>
</g>
<g opacity="0.5">
	<path d="M24.087,53.406v0.499h-1.822l0.926-1.007c0.132-0.145,0.259-0.349,0.259-0.557c0-0.144-0.103-0.294-0.259-0.294
		c-0.159,0-0.247,0.123-0.247,0.276c0,0.03,0.003,0.063,0.009,0.096h-0.649c0.018-0.52,0.349-0.871,0.884-0.871
		c0.475,0,0.875,0.312,0.875,0.806c0,0.324-0.135,0.514-0.367,0.725l-0.352,0.327H24.087z"/>
	<path d="M24.438,52.138v-0.499h1.861l-1.302,2.267h-0.646l1.034-1.768H24.438z"/>
	<path d="M27.577,52.159c0,0.366-0.273,0.559-0.619,0.559s-0.619-0.192-0.619-0.559c0-0.361,0.283-0.551,0.619-0.551
		C27.295,51.608,27.577,51.798,27.577,52.159z M26.703,52.165c0,0.141,0.114,0.252,0.255,0.252c0.142,0,0.255-0.111,0.255-0.252
		c0-0.142-0.114-0.256-0.255-0.256C26.817,51.909,26.703,52.023,26.703,52.165z M28.551,51.639l-1.316,2.267H26.94l1.317-2.267
		H28.551z M29.155,53.376c0,0.367-0.273,0.56-0.619,0.56s-0.619-0.192-0.619-0.56c0-0.36,0.282-0.55,0.619-0.55
		S29.155,53.016,29.155,53.376z M28.28,53.382c0,0.142,0.114,0.253,0.256,0.253s0.256-0.111,0.256-0.253
		c0-0.141-0.114-0.255-0.256-0.255S28.28,53.241,28.28,53.382z"/>
</g>
<g opacity="0.5">
	<path d="M0.073,52.138v-0.499h1.861l-1.302,2.267h-0.646l1.034-1.768H0.073z"/>
	<path d="M3.213,52.159c0,0.366-0.273,0.559-0.619,0.559s-0.619-0.192-0.619-0.559c0-0.361,0.283-0.551,0.619-0.551
		C2.931,51.608,3.213,51.798,3.213,52.159z M2.338,52.165c0,0.141,0.114,0.252,0.255,0.252c0.142,0,0.255-0.111,0.255-0.252
		c0-0.142-0.114-0.256-0.255-0.256C2.453,51.909,2.338,52.023,2.338,52.165z M4.187,51.639l-1.316,2.267H2.576l1.317-2.267H4.187z
		 M4.791,53.376c0,0.367-0.273,0.56-0.619,0.56s-0.619-0.192-0.619-0.56c0-0.36,0.283-0.55,0.619-0.55
		C4.509,52.826,4.791,53.016,4.791,53.376z M3.917,53.382c0,0.142,0.114,0.253,0.255,0.253c0.142,0,0.255-0.111,0.255-0.253
		c0-0.141-0.114-0.255-0.255-0.255C4.031,53.127,3.917,53.241,3.917,53.382z"/>
</g>
<g opacity="0.5">
	<path d="M33.859,53.573v0.332h-1.211l0.616-0.67c0.088-0.096,0.172-0.231,0.172-0.369c0-0.097-0.068-0.196-0.172-0.196
		c-0.106,0-0.164,0.082-0.164,0.184c0,0.021,0.002,0.042,0.006,0.064h-0.432c0.012-0.346,0.232-0.58,0.588-0.58
		c0.316,0,0.582,0.208,0.582,0.536c0,0.216-0.09,0.342-0.244,0.481l-0.234,0.218H33.859z"/>
	<path d="M34.532,53.711c0,0.128-0.104,0.234-0.234,0.234s-0.234-0.106-0.234-0.234c0-0.13,0.104-0.233,0.234-0.233
		S34.532,53.581,34.532,53.711z"/>
	<path d="M35.244,52.729l-0.026,0.172l0.124-0.01c0.308-0.023,0.534,0.229,0.534,0.54c0,0.158-0.07,0.306-0.194,0.407
		c-0.12,0.097-0.29,0.126-0.44,0.126c-0.172,0-0.346-0.042-0.492-0.136l0.058-0.369c0.116,0.104,0.264,0.174,0.42,0.174
		c0.124,0,0.24-0.09,0.24-0.223c0-0.182-0.174-0.258-0.33-0.258c-0.1,0-0.198,0.021-0.288,0.062l0.132-0.817h0.784v0.331H35.244z"/>
	<path d="M36.873,52.744c0,0.243-0.182,0.371-0.412,0.371s-0.412-0.128-0.412-0.371c0-0.24,0.188-0.366,0.412-0.366
		C36.686,52.378,36.873,52.504,36.873,52.744z M36.292,52.748c0,0.094,0.076,0.168,0.17,0.168c0.094,0,0.17-0.074,0.17-0.168
		s-0.076-0.17-0.17-0.17C36.368,52.578,36.292,52.654,36.292,52.748z M37.521,52.398l-0.875,1.507H36.45l0.875-1.507H37.521z
		 M37.923,53.554c0,0.243-0.182,0.371-0.412,0.371c-0.229,0-0.412-0.128-0.412-0.371c0-0.24,0.188-0.366,0.412-0.366
		C37.735,53.188,37.923,53.313,37.923,53.554z M37.341,53.558c0,0.094,0.076,0.168,0.17,0.168c0.094,0,0.17-0.074,0.17-0.168
		s-0.076-0.17-0.17-0.17C37.417,53.388,37.341,53.464,37.341,53.558z"/>
</g>
<g opacity="0.5">
	<path d="M63.693,53.572v0.332h-1.211l0.615-0.67c0.088-0.096,0.172-0.231,0.172-0.369c0-0.097-0.068-0.196-0.172-0.196
		c-0.105,0-0.164,0.082-0.164,0.184c0,0.021,0.002,0.042,0.006,0.064h-0.432c0.012-0.346,0.232-0.58,0.588-0.58
		c0.316,0,0.582,0.208,0.582,0.536c0,0.216-0.09,0.342-0.244,0.481l-0.234,0.218H63.693z"/>
	<path d="M64.365,53.71c0,0.128-0.104,0.234-0.233,0.234s-0.233-0.106-0.233-0.234c0-0.13,0.104-0.233,0.233-0.233
		S64.365,53.58,64.365,53.71z"/>
	<path d="M65.078,52.729L65.052,52.9l0.124-0.01c0.308-0.023,0.533,0.229,0.533,0.54c0,0.158-0.069,0.306-0.193,0.407
		c-0.12,0.097-0.29,0.126-0.439,0.126c-0.172,0-0.346-0.042-0.492-0.136l0.059-0.369c0.115,0.104,0.264,0.174,0.42,0.174
		c0.123,0,0.239-0.09,0.239-0.223c0-0.182-0.174-0.258-0.33-0.258c-0.1,0-0.198,0.021-0.288,0.062l0.133-0.817H65.6v0.331H65.078z"
		/>
	<path d="M66.707,52.743c0,0.243-0.182,0.371-0.412,0.371c-0.229,0-0.411-0.128-0.411-0.371c0-0.24,0.188-0.366,0.411-0.366
		C66.52,52.377,66.707,52.503,66.707,52.743z M66.125,52.747c0,0.094,0.076,0.168,0.17,0.168c0.095,0,0.17-0.074,0.17-0.168
		s-0.075-0.17-0.17-0.17C66.201,52.577,66.125,52.653,66.125,52.747z M67.355,52.397l-0.876,1.507h-0.196l0.876-1.507H67.355z
		 M67.757,53.553c0,0.243-0.183,0.371-0.412,0.371s-0.411-0.128-0.411-0.371c0-0.24,0.188-0.366,0.411-0.366
		S67.757,53.312,67.757,53.553z M67.175,53.557c0,0.094,0.076,0.168,0.17,0.168c0.095,0,0.17-0.074,0.17-0.168
		s-0.075-0.17-0.17-0.17C67.251,53.387,67.175,53.463,67.175,53.557z"/>
</g>
<g>
</g>
<g>
</g>
<g>
</g>
<g>
</g>
<g>
</g>
<g>
</g>
<g>
</g>
<g>
</g>
<g>
</g>
<g>
</g>
<g>
</g>
<g>
</g>
<g>
</g>
<g>
</g>
<g>
</g>
</svg>
