<svg xmlns="http://www.w3.org/2000/svg" width="100" height="100" viewBox="0 0 100 100"><path opacity=".2" fill="#ED1C24" d="M9 0h5v100H9zM16 0h5v100h-5zM23 0h5v100h-5zM30 0h5v100h-5zM37 0h5v100h-5zM44 0h5v100h-5zM51 0h5v100h-5zM58 0h5v100h-5zM65 0h5v100h-5zM72 0h5v100h-5zM79 0h5v100h-5zM86 0h5v100h-5z"/><g opacity=".5"><path d="M3.49 48.393l.216-.256-.002-.002a.25.25 0 0 1-.106.023c-.15 0-.244-.127-.244-.268 0-.187.153-.287.327-.287.074 0 .16.018.217.065.062.05.102.13.102.21a.52.52 0 0 1-.123.3l-.162.213H3.49zm.07-.51c0 .07.052.126.122.126s.126-.056.126-.126a.126.126 0 0 0-.126-.125.12.12 0 0 0-.122.124zM4.455 47.808c0 .123-.092.187-.208.187s-.207-.065-.207-.187c0-.12.095-.185.208-.185s.207.064.207.185zm-.293.002c0 .047.038.084.085.084s.085-.037.085-.084-.038-.086-.085-.086-.085.038-.085.086zm.62-.177l-.442.76h-.1l.442-.76h.1zm.2.582c0 .123-.09.188-.207.188s-.208-.064-.208-.188c0-.12.095-.184.208-.184s.208.065.208.185zm-.292.002c0 .047.038.084.085.084s.085-.036.085-.083a.085.085 0 0 0-.17 0z"/></g><g opacity=".5"><path d="M11.036 47.8l-.013.087.062-.005c.155-.012.27.115.27.272 0 .08-.037.154-.1.206a.363.363 0 0 1-.22.063.46.46 0 0 1-.25-.068l.03-.187c.06.052.133.088.21.088.063 0 .122-.045.122-.112 0-.092-.088-.13-.166-.13-.05 0-.1.01-.144.03l.066-.41h.395v.166h-.26zM11.855 47.808c0 .123-.092.187-.208.187s-.208-.064-.208-.187c0-.12.094-.185.207-.185s.208.064.208.185zm-.293.002c0 .047.038.084.085.084s.085-.037.085-.084-.038-.086-.085-.086-.085.038-.085.086zm.62-.177l-.44.76h-.1l.44-.76h.1zm.202.582c0 .123-.092.188-.208.188s-.208-.064-.208-.188c0-.12.095-.184.208-.184s.208.065.208.185zm-.293.002c0 .047.04.084.086.084s.085-.036.085-.083a.085.085 0 0 0-.17 0z"/></g><g opacity=".5"><path d="M46.368 47.8l-.013.087.062-.005c.155-.012.27.115.27.272 0 .08-.037.154-.1.206a.363.363 0 0 1-.22.063.46.46 0 0 1-.25-.068l.03-.187c.06.052.133.088.21.088.063 0 .122-.045.122-.112 0-.092-.09-.13-.167-.13-.05 0-.1.01-.145.03l.066-.41h.395v.166h-.262zM47.188 47.808c0 .123-.092.187-.208.187s-.208-.064-.208-.187c0-.12.095-.185.208-.185s.208.064.208.185zm-.293.002c0 .047.038.084.085.084s.085-.037.085-.084-.038-.086-.085-.086-.085.038-.085.086zm.62-.177l-.442.76h-.1l.442-.76h.1zm.2.582c0 .123-.09.188-.207.188s-.208-.064-.208-.188c0-.12.095-.184.208-.184s.208.065.208.185zm-.292.002c0 .047.038.084.085.084s.085-.036.085-.083a.085.085 0 0 0-.17 0z"/></g><g opacity=".5"><path d="M38.904 47.8l-.013.087.063-.005c.155-.012.27.115.27.272 0 .08-.037.154-.1.206a.363.363 0 0 1-.22.063.46.46 0 0 1-.25-.068l.03-.187c.06.052.133.088.21.088.063 0 .122-.045.122-.112 0-.092-.088-.13-.166-.13-.052 0-.1.01-.146.03l.066-.41h.395v.166h-.26zM39.724 47.808c0 .123-.092.187-.208.187s-.208-.064-.208-.187c0-.12.095-.185.208-.185s.208.064.208.185zm-.293.002c0 .047.04.084.086.084s.085-.037.085-.084-.037-.086-.084-.086-.085.038-.085.086zm.62-.177l-.44.76h-.1l.44-.76h.1zm.202.582c0 .123-.092.188-.208.188s-.208-.064-.208-.188c0-.12.095-.184.208-.184s.208.065.208.185zm-.293.002c0 .047.037.084.084.084s.085-.036.085-.083a.085.085 0 0 0-.17 0z"/></g><g opacity=".5"><path d="M31.727 47.8l-.013.087.062-.005c.155-.012.27.115.27.272 0 .08-.037.154-.1.206a.363.363 0 0 1-.22.063.46.46 0 0 1-.25-.068l.03-.187c.06.052.133.088.21.088.063 0 .122-.045.122-.112 0-.092-.088-.13-.166-.13-.05 0-.1.01-.145.03l.066-.41h.395v.166h-.26zM32.546 47.808c0 .123-.092.187-.208.187s-.208-.064-.208-.187c0-.12.095-.185.208-.185s.208.064.208.185zm-.293.002c0 .047.038.084.085.084s.085-.037.085-.084-.038-.086-.085-.086-.085.038-.085.086zm.62-.177l-.44.76h-.1l.44-.76h.1zm.202.582c0 .123-.092.188-.208.188s-.208-.064-.208-.188c0-.12.094-.184.207-.184s.208.065.208.185zm-.293.002c0 .047.038.084.085.084s.085-.036.085-.083a.085.085 0 0 0-.17 0z"/></g><g opacity=".5"><path d="M25.013 47.8l-.013.087.062-.005c.155-.012.27.115.27.272 0 .08-.037.154-.1.206a.363.363 0 0 1-.22.063.46.46 0 0 1-.25-.068l.03-.187c.06.052.133.088.21.088.063 0 .122-.045.122-.112 0-.092-.088-.13-.166-.13-.05 0-.1.01-.145.03l.066-.41h.394v.166h-.26zM25.833 47.808c0 .123-.092.187-.208.187s-.208-.064-.208-.187c0-.12.095-.185.208-.185s.208.064.208.185zm-.293.002c0 .047.038.084.085.084s.085-.037.085-.084-.038-.086-.085-.086-.085.038-.085.086zm.62-.177l-.442.76h-.1l.442-.76h.1zm.2.582c0 .123-.09.188-.207.188s-.208-.064-.208-.188c0-.12.095-.184.208-.184s.208.065.208.185zm-.292.002c0 .047.038.084.085.084s.085-.036.085-.083a.085.085 0 0 0-.17 0z"/></g><g opacity=".5"><path d="M18.278 47.8l-.013.087.062-.005c.155-.012.27.115.27.272 0 .08-.037.154-.1.206a.363.363 0 0 1-.22.063.46.46 0 0 1-.25-.068l.03-.187c.06.052.133.088.21.088.063 0 .122-.045.122-.112 0-.092-.09-.13-.167-.13-.05 0-.1.01-.145.03l.066-.41h.395v.166h-.262zM19.098 47.808c0 .123-.092.187-.208.187s-.208-.064-.208-.187c0-.12.095-.185.208-.185s.208.064.208.185zm-.293.002c0 .047.038.084.085.084s.085-.037.085-.084-.038-.086-.085-.086-.085.038-.085.086zm.62-.177l-.442.76h-.1l.442-.76h.1zm.2.582c0 .123-.09.188-.207.188s-.208-.064-.208-.188c0-.12.095-.184.208-.184s.208.065.208.185zm-.292.002c0 .047.038.084.085.084s.085-.036.085-.083a.085.085 0 0 0-.17 0z"/></g><g opacity=".5"><path d="M53.187 47.8l-.013.087.062-.005c.155-.012.27.115.27.272 0 .08-.036.154-.1.206a.363.363 0 0 1-.22.063.458.458 0 0 1-.248-.068l.03-.187a.323.323 0 0 0 .21.088c.062 0 .12-.045.12-.112 0-.092-.087-.13-.165-.13-.05 0-.1.01-.146.03l.066-.41h.396v.166h-.263zM54.006 47.808c0 .123-.09.187-.207.187s-.208-.064-.208-.187c0-.12.095-.185.207-.185.112 0 .206.064.206.185zm-.293.002c0 .047.04.084.086.084s.085-.037.085-.084-.04-.086-.086-.086-.087.038-.087.086zm.62-.177l-.44.76h-.1l.44-.76h.1zm.202.582c0 .123-.092.188-.208.188-.115 0-.207-.064-.207-.188 0-.12.095-.184.207-.184.113 0 .208.065.208.185zm-.293.002c0 .047.038.084.085.084a.084.084 0 0 0 0-.168.085.085 0 0 0-.085.085z"/></g><g opacity=".5"><path d="M60.65 47.8l-.014.087.062-.005c.155-.012.27.115.27.272 0 .08-.036.154-.1.206a.363.363 0 0 1-.22.063.458.458 0 0 1-.248-.068l.03-.187a.323.323 0 0 0 .21.088c.062 0 .12-.045.12-.112 0-.092-.087-.13-.165-.13-.05 0-.1.01-.146.03l.065-.41h.396v.166h-.26zM61.47 47.808c0 .123-.092.187-.208.187s-.207-.064-.207-.187c0-.12.095-.185.207-.185.113 0 .207.064.207.185zm-.294.002c0 .047.04.084.086.084s.086-.037.086-.084-.04-.086-.086-.086-.086.038-.086.086zm.62-.177l-.44.76h-.1l.44-.76h.1zm.202.582c0 .123-.092.188-.208.188-.115 0-.207-.064-.207-.188 0-.12.095-.184.207-.184.113 0 .208.065.208.185zm-.293.002c0 .047.038.084.085.084a.084.084 0 0 0 0-.168.085.085 0 0 0-.085.085z"/></g><g opacity=".5"><path d="M67.47 47.8l-.014.087.062-.005c.155-.012.27.115.27.272 0 .08-.036.154-.1.206a.363.363 0 0 1-.22.063.458.458 0 0 1-.248-.068l.03-.187a.323.323 0 0 0 .21.088c.062 0 .12-.045.12-.112 0-.092-.087-.13-.165-.13-.05 0-.1.01-.146.03l.065-.41h.396v.166h-.26zM68.288 47.808c0 .123-.09.187-.207.187s-.206-.064-.206-.187c0-.12.095-.185.207-.185.114 0 .208.064.208.185zm-.293.002c0 .047.04.084.086.084.05 0 .087-.037.087-.084a.086.086 0 1 0-.172 0zm.62-.177l-.44.76h-.1l.44-.76h.1zm.202.582c0 .123-.092.188-.208.188-.116 0-.208-.064-.208-.188 0-.12.095-.184.207-.184.113 0 .207.065.207.185zm-.293.002c0 .047.038.084.085.084a.084.084 0 0 0 0-.168.085.085 0 0 0-.086.085z"/></g><g opacity=".5"><path d="M74.357 47.8l-.013.087.062-.005c.155-.012.27.115.27.272 0 .08-.036.154-.1.206a.363.363 0 0 1-.22.063.458.458 0 0 1-.248-.068l.03-.187a.323.323 0 0 0 .21.088c.062 0 .12-.045.12-.112 0-.092-.087-.13-.165-.13-.05 0-.1.01-.146.03l.066-.41h.396v.166h-.263zM75.177 47.808c0 .123-.09.187-.207.187s-.207-.064-.207-.187c0-.12.095-.185.207-.185.113 0 .207.064.207.185zm-.293.002c0 .047.04.084.086.084.048 0 .086-.037.086-.084a.086.086 0 1 0-.172 0zm.62-.177l-.44.76h-.1l.44-.76h.1zm.202.582c0 .123-.092.188-.208.188-.115 0-.207-.064-.207-.188 0-.12.096-.184.208-.184.113 0 .208.065.208.185zm-.293.002c0 .047.038.084.085.084a.084.084 0 0 0 0-.168.085.085 0 0 0-.085.085z"/></g><g opacity=".5"><path d="M81.895 47.8l-.013.087.062-.005c.155-.012.27.115.27.272 0 .08-.036.154-.1.206a.363.363 0 0 1-.22.063.458.458 0 0 1-.248-.068l.03-.187a.323.323 0 0 0 .21.088c.062 0 .12-.045.12-.112 0-.092-.087-.13-.165-.13-.05 0-.1.01-.145.03l.066-.41h.397v.166h-.262zM82.714 47.808c0 .123-.09.187-.207.187s-.207-.065-.207-.187c0-.12.095-.185.207-.185.113 0 .207.064.207.185zm-.293.002c0 .047.04.084.087.084.048 0 .086-.037.086-.084a.086.086 0 1 0-.172 0zm.62-.177l-.44.76h-.1l.442-.76h.1zm.203.582c0 .123-.092.188-.208.188-.115 0-.207-.064-.207-.188 0-.12.095-.184.207-.184.113 0 .208.065.208.185zm-.293.002c0 .047.038.084.085.084a.084.084 0 0 0 0-.168.085.085 0 0 0-.085.085z"/></g><g opacity=".5"><path d="M88.144 47.8l-.013.087.063-.005c.155-.012.27.115.27.272 0 .08-.036.154-.1.206a.363.363 0 0 1-.22.063.458.458 0 0 1-.248-.068l.03-.187a.323.323 0 0 0 .21.088c.062 0 .12-.045.12-.112 0-.092-.087-.13-.165-.13-.05 0-.1.01-.146.03l.066-.41h.396v.166h-.262zM88.963 47.808c0 .123-.09.187-.207.187s-.207-.064-.207-.187c0-.12.094-.185.206-.185.113 0 .207.064.207.185zm-.293.002c0 .047.04.084.086.084s.086-.037.086-.084-.04-.086-.086-.086-.086.038-.086.086zm.62-.177l-.44.76h-.1l.44-.76h.1zm.202.582c0 .123-.092.188-.208.188-.115 0-.207-.064-.207-.188 0-.12.095-.184.207-.184.113 0 .208.065.208.185zm-.293.002c0 .047.037.084.084.084a.084.084 0 0 0 0-.168.085.085 0 0 0-.085.085z"/></g><g opacity=".5"><path d="M14.644 48.226v.167h-.61l.31-.337c.044-.048.087-.117.087-.186 0-.05-.033-.1-.086-.1-.053 0-.083.043-.083.094 0 .01.002.02.004.032h-.217c.006-.174.117-.292.296-.292.16 0 .293.105.293.27 0 .108-.045.172-.123.243l-.118.11h.25zM15.124 47.808c0 .123-.092.187-.208.187s-.208-.064-.208-.187c0-.12.095-.185.208-.185s.208.064.208.185zm-.293.002c0 .047.04.084.086.084s.085-.037.085-.084-.037-.086-.084-.086-.085.038-.085.086zm.62-.177l-.44.76h-.1l.44-.76h.1zm.202.582c0 .123-.092.188-.208.188s-.208-.064-.208-.188c0-.12.095-.184.208-.184s.208.065.208.185zm-.293.002c0 .047.037.084.084.084s.085-.036.085-.083a.085.085 0 0 0-.17 0z"/></g><g opacity=".5"><path d="M50.08 48.226v.167h-.61l.31-.337c.045-.048.088-.117.088-.186 0-.05-.034-.1-.087-.1-.052 0-.082.043-.082.094 0 .01 0 .02.003.032h-.216c.006-.174.117-.292.296-.292.16 0 .293.105.293.27 0 .108-.045.172-.123.243l-.118.11h.25zM50.56 47.808c0 .123-.09.187-.207.187s-.208-.064-.208-.187c0-.12.095-.185.208-.185s.208.064.208.185zm-.292.002c0 .047.038.084.085.084s.085-.037.085-.084-.038-.086-.085-.086-.085.038-.085.086zm.62-.177l-.442.76h-.1l.442-.76h.1zm.2.582c0 .123-.09.188-.206.188s-.208-.064-.208-.188c0-.12.095-.184.208-.184s.207.065.207.185zm-.292.002c0 .047.038.084.085.084s.086-.036.086-.083a.085.085 0 0 0-.17 0z"/></g><g opacity=".5"><path d="M42.76 48.226v.167h-.61l.31-.337c.044-.048.087-.117.087-.186 0-.05-.034-.1-.087-.1-.053 0-.083.043-.083.094 0 .01 0 .02.003.032h-.217c.006-.174.117-.292.296-.292.158 0 .292.105.292.27 0 .108-.045.172-.123.243l-.12.11h.25zM43.24 47.808c0 .123-.092.187-.208.187s-.208-.064-.208-.187c0-.12.095-.185.208-.185s.208.064.208.185zm-.293.002c0 .047.038.084.085.084s.085-.037.085-.084-.038-.086-.085-.086-.085.038-.085.086zm.62-.177l-.442.76h-.1l.442-.76h.1zm.202.582c0 .123-.093.188-.21.188s-.207-.064-.207-.188c0-.12.095-.184.208-.184s.21.065.21.185zm-.294.002c0 .047.038.084.085.084s.086-.036.086-.083a.085.085 0 0 0-.17 0z"/></g><g opacity=".5"><path d="M35.798 48.226v.167h-.61l.31-.337c.044-.048.087-.117.087-.186 0-.05-.034-.1-.087-.1-.053 0-.083.043-.083.094 0 .01 0 .02.003.032H35.2c.007-.174.118-.292.297-.292.16 0 .293.105.293.27 0 .108-.045.172-.123.243l-.118.11h.248zM36.278 47.808c0 .123-.092.187-.208.187s-.208-.064-.208-.187c0-.12.095-.185.208-.185s.208.064.208.185zm-.293.002c0 .047.038.084.085.084s.085-.037.085-.084-.038-.086-.085-.086-.085.038-.085.086zm.62-.177l-.442.76h-.1l.442-.76h.1zm.202.582c0 .123-.092.188-.208.188s-.21-.064-.21-.188c0-.12.096-.184.21-.184s.207.065.207.185zm-.293.002c0 .047.038.084.085.084s.084-.036.084-.083a.085.085 0 0 0-.17 0z"/></g><g opacity=".5"><path d="M28.81 48.226v.167h-.61l.31-.337c.044-.048.087-.117.087-.186 0-.05-.034-.1-.087-.1-.053 0-.083.043-.083.094 0 .01 0 .02.003.032h-.217c.006-.174.117-.292.296-.292.158 0 .292.105.292.27 0 .108-.045.172-.123.243l-.12.11h.25zM29.29 47.808c0 .123-.09.187-.207.187s-.208-.064-.208-.187c0-.12.095-.185.208-.185s.208.064.208.185zM29 47.81c0 .047.038.084.085.084s.085-.037.085-.084-.038-.086-.085-.086-.085.038-.085.086zm.62-.177l-.442.76h-.1l.442-.76h.1zm.2.582c0 .123-.09.188-.207.188s-.207-.064-.207-.188c0-.12.095-.184.208-.184s.21.065.21.185zm-.292.002c0 .047.038.084.085.084s.086-.036.086-.083a.085.085 0 0 0-.17 0z"/></g><g opacity=".5"><path d="M21.926 48.226v.167h-.61l.31-.337c.044-.048.087-.117.087-.186 0-.05-.034-.1-.087-.1-.053 0-.083.043-.083.094 0 .01 0 .02.003.032h-.217c.005-.174.116-.292.295-.292.16 0 .293.105.293.27 0 .108-.045.172-.123.243l-.118.11h.25zM22.406 47.808c0 .123-.092.187-.208.187s-.208-.064-.208-.187c0-.12.095-.185.208-.185s.208.064.208.185zm-.293.002c0 .047.038.084.085.084s.085-.037.085-.084-.038-.086-.085-.086-.085.038-.085.086zm.62-.177l-.442.76h-.098l.44-.76h.1zm.202.582c0 .123-.092.188-.208.188s-.208-.064-.208-.188c0-.12.094-.184.207-.184s.208.065.208.185zm-.293.002c0 .047.038.084.085.084s.085-.036.085-.083a.085.085 0 0 0-.17 0z"/></g><g opacity=".5"><path d="M57.258 48.226v.167h-.61l.31-.337a.296.296 0 0 0 .087-.186c0-.05-.034-.1-.086-.1-.055 0-.084.043-.084.094 0 .01 0 .02.003.032h-.22c.007-.174.117-.292.297-.292.16 0 .293.105.293.27 0 .108-.046.172-.123.243l-.118.11h.248zM57.737 47.808c0 .123-.09.187-.207.187s-.207-.064-.207-.187c0-.12.095-.185.207-.185.114 0 .207.064.207.185zm-.293.002c0 .047.04.084.086.084.048 0 .086-.037.086-.084a.086.086 0 1 0-.172 0zm.62-.177l-.44.76h-.1l.44-.76h.1zm.203.582c0 .123-.092.188-.208.188-.116 0-.208-.064-.208-.188 0-.12.095-.184.207-.184.112 0 .207.065.207.185zm-.293.002c0 .047.038.084.085.084a.084.084 0 0 0 0-.168.085.085 0 0 0-.086.085z"/></g><g opacity=".5"><path d="M64.363 48.226v.167h-.61l.31-.337a.296.296 0 0 0 .087-.186c0-.05-.034-.1-.086-.1-.054 0-.083.043-.083.094 0 .01.002.02.004.032h-.218c.007-.174.117-.292.297-.292.16 0 .293.105.293.27 0 .108-.046.172-.123.243l-.118.11h.248zM64.843 47.808c0 .123-.09.187-.207.187s-.207-.064-.207-.187c0-.12.094-.185.206-.185.113 0 .207.064.207.185zm-.293.002c0 .047.04.084.086.084.048 0 .086-.037.086-.084a.086.086 0 1 0-.172 0zm.62-.177l-.44.76h-.1l.44-.76h.1zm.202.582c0 .123-.092.188-.208.188-.115 0-.207-.064-.207-.188 0-.12.095-.184.207-.184.113 0 .208.065.208.185zm-.293.002c0 .047.037.084.084.084a.084.084 0 0 0 0-.168.085.085 0 0 0-.085.085z"/></g><g opacity=".5"><path d="M70.957 48.226v.167h-.61l.31-.337a.296.296 0 0 0 .087-.186c0-.05-.034-.1-.086-.1-.054 0-.083.043-.083.094 0 .01 0 .02.003.032h-.218c.007-.174.117-.292.297-.292.16 0 .293.105.293.27 0 .108-.046.172-.123.243l-.118.11h.247zM71.437 47.808c0 .123-.09.187-.207.187s-.207-.064-.207-.187c0-.12.095-.185.207-.185.113 0 .207.064.207.185zm-.293.002c0 .047.04.084.086.084s.086-.037.086-.084-.04-.086-.086-.086-.086.038-.086.086zm.62-.177l-.44.76h-.1l.44-.76h.1zm.202.582c0 .123-.092.188-.208.188-.115 0-.207-.064-.207-.188 0-.12.096-.184.208-.184.113 0 .208.065.208.185zm-.293.002c0 .047.038.084.085.084a.084.084 0 0 0 0-.168.085.085 0 0 0-.085.085z"/></g><g opacity=".5"><path d="M77.788 48.226v.167h-.61l.31-.337a.296.296 0 0 0 .087-.186c0-.05-.034-.1-.086-.1-.055 0-.084.043-.084.094 0 .01 0 .02.003.032h-.22c.007-.174.117-.292.297-.292.16 0 .293.105.293.27 0 .108-.046.172-.123.243l-.118.11h.248zM78.268 47.808c0 .123-.09.187-.207.187s-.206-.064-.206-.187c0-.12.095-.185.207-.185.114 0 .208.064.208.185zm-.293.002c0 .047.04.084.086.084s.087-.037.087-.084-.04-.086-.086-.086-.085.038-.085.086zm.62-.177l-.44.76h-.1l.44-.76h.1zm.202.582c0 .123-.092.188-.208.188-.116 0-.208-.064-.208-.188 0-.12.095-.184.207-.184.112 0 .207.065.207.185zm-.293.002c0 .047.038.084.085.084a.084.084 0 0 0 0-.168.085.085 0 0 0-.086.085z"/></g><g opacity=".5"><path d="M84.967 48.226v.167h-.61l.31-.337a.296.296 0 0 0 .087-.186c0-.05-.034-.1-.086-.1-.054 0-.083.043-.083.094 0 .01 0 .02.003.032h-.218c.007-.174.117-.292.297-.292.16 0 .293.105.293.27 0 .108-.046.172-.123.243l-.118.11h.247zM85.446 47.808c0 .123-.09.187-.207.187s-.208-.064-.208-.187c0-.12.095-.185.207-.185.113 0 .206.064.206.185zm-.293.002c0 .047.04.084.086.084.047 0 .085-.037.085-.084a.086.086 0 1 0-.172 0zm.62-.177l-.44.76h-.1l.44-.76h.1zm.203.582c0 .123-.092.188-.208.188-.115 0-.207-.064-.207-.188 0-.12.096-.184.208-.184.113 0 .208.065.208.185zm-.293.002c0 .047.038.084.085.084a.084.084 0 0 0 0-.168.085.085 0 0 0-.085.085z"/></g><g opacity=".5"><path d="M94.985 48.393l.217-.256-.002-.002a.25.25 0 0 1-.107.023c-.148 0-.243-.127-.243-.268 0-.187.152-.287.326-.287.073 0 .158.018.217.065.06.05.102.13.102.21 0 .11-.057.214-.122.3l-.162.213h-.225zm.07-.51c0 .07.053.126.122.126s.126-.056.126-.126-.057-.125-.126-.125-.122.054-.122.124zM95.95 47.808c0 .123-.092.187-.208.187s-.207-.064-.207-.187c0-.12.095-.185.207-.185.113 0 .207.064.207.185zm-.294.002c0 .047.04.084.086.084s.086-.037.086-.084-.04-.086-.086-.086-.086.038-.086.086zm.62-.177l-.44.76h-.1l.44-.76h.1zm.203.582c0 .123-.093.188-.21.188-.114 0-.206-.064-.206-.188 0-.12.095-.184.207-.184.114 0 .21.065.21.185zm-.294.002c0 .047.038.084.085.084a.084.084 0 0 0 0-.168.085.085 0 0 0-.084.085z"/></g><path fill="none" stroke="#E6E6E6" stroke-miterlimit="10" d="M.5 47v2M99.5 47v2"/></svg>