<?xml version="1.0" encoding="utf-8"?>
<!-- Generator: Adobe Illustrator 16.0.0, SVG Export Plug-In . SVG Version: 6.00 Build 0)  -->
<!DOCTYPE svg PUBLIC "-//W3C//DTD SVG 1.1//EN" "http://www.w3.org/Graphics/SVG/1.1/DTD/svg11.dtd">
<svg version="1.1" id="Layer_1" xmlns="http://www.w3.org/2000/svg" xmlns:xlink="http://www.w3.org/1999/xlink" x="0px" y="0px"
	 width="100px" height="100px" viewBox="0 0 100 100" enable-background="new 0 0 100 100" xml:space="preserve">
<rect x="9" opacity="0.2" fill="#ED1C24" width="5" height="100"/>
<rect x="16" opacity="0.2" fill="#ED1C24" width="5" height="100"/>
<rect x="23" opacity="0.2" fill="#ED1C24" width="5" height="100"/>
<rect x="30" opacity="0.2" fill="#ED1C24" width="5" height="100"/>
<rect x="37" opacity="0.2" fill="#ED1C24" width="5" height="100"/>
<rect x="44" opacity="0.2" fill="#ED1C24" width="5" height="100"/>
<rect x="51" opacity="0.2" fill="#ED1C24" width="5" height="100"/>
<rect x="58" opacity="0.2" fill="#ED1C24" width="5" height="100"/>
<rect x="65" opacity="0.2" fill="#ED1C24" width="5" height="100"/>
<rect x="72" opacity="0.2" fill="#ED1C24" width="5" height="100"/>
<rect x="79" opacity="0.2" fill="#ED1C24" width="5" height="100"/>
<rect x="86" opacity="0.2" fill="#ED1C24" width="5" height="100"/>
<g opacity="0.5">
	<path d="M3.49,48.393l0.216-0.256l-0.002-0.002c-0.034,0.015-0.066,0.023-0.106,0.023c-0.149,0-0.244-0.127-0.244-0.268
		c0-0.187,0.153-0.287,0.327-0.287c0.073,0,0.158,0.018,0.216,0.065c0.062,0.049,0.102,0.13,0.102,0.209
		c0,0.11-0.056,0.215-0.122,0.302l-0.162,0.212H3.49z M3.56,47.884c0,0.07,0.052,0.125,0.122,0.125c0.069,0,0.126-0.055,0.126-0.125
		c0-0.069-0.057-0.125-0.126-0.125C3.612,47.759,3.56,47.814,3.56,47.884z"/>
	<path d="M4.455,47.808c0,0.123-0.092,0.187-0.208,0.187S4.04,47.93,4.04,47.808c0-0.121,0.095-0.185,0.208-0.185
		S4.455,47.687,4.455,47.808z M4.162,47.81c0,0.047,0.038,0.084,0.085,0.084s0.085-0.037,0.085-0.084s-0.038-0.086-0.085-0.086
		S4.162,47.762,4.162,47.81z M4.781,47.633L4.34,48.393H4.241l0.441-0.759H4.781z M4.983,48.215c0,0.123-0.092,0.188-0.208,0.188
		s-0.208-0.064-0.208-0.188c0-0.121,0.095-0.184,0.208-0.184S4.983,48.095,4.983,48.215z M4.69,48.217
		c0,0.047,0.038,0.084,0.085,0.084s0.085-0.037,0.085-0.084s-0.038-0.085-0.085-0.085S4.69,48.17,4.69,48.217z"/>
</g>
<g opacity="0.5">
	<path d="M11.036,47.8l-0.013,0.087l0.062-0.005c0.155-0.012,0.269,0.115,0.269,0.272c0,0.08-0.036,0.154-0.098,0.206
		c-0.061,0.048-0.146,0.063-0.222,0.063c-0.087,0-0.174-0.021-0.248-0.068l0.029-0.187c0.059,0.052,0.133,0.088,0.211,0.088
		c0.062,0,0.121-0.045,0.121-0.112c0-0.092-0.088-0.13-0.166-0.13c-0.051,0-0.1,0.01-0.145,0.031l0.066-0.412h0.395V47.8H11.036z"/>
	<path d="M11.855,47.808c0,0.123-0.092,0.187-0.208,0.187s-0.208-0.064-0.208-0.187c0-0.121,0.095-0.185,0.208-0.185
		S11.855,47.687,11.855,47.808z M11.562,47.81c0,0.047,0.038,0.084,0.085,0.084s0.085-0.037,0.085-0.084s-0.038-0.086-0.085-0.086
		S11.562,47.762,11.562,47.81z M12.182,47.633l-0.441,0.759h-0.099l0.441-0.759H12.182z M12.384,48.215
		c0,0.123-0.092,0.188-0.208,0.188s-0.208-0.064-0.208-0.188c0-0.121,0.095-0.184,0.208-0.184S12.384,48.095,12.384,48.215z
		 M12.091,48.217c0,0.047,0.038,0.084,0.085,0.084s0.085-0.037,0.085-0.084s-0.038-0.085-0.085-0.085S12.091,48.17,12.091,48.217z"
		/>
</g>
<g opacity="0.5">
	<path d="M46.368,47.8l-0.013,0.087l0.062-0.005c0.155-0.012,0.269,0.115,0.269,0.272c0,0.08-0.036,0.154-0.098,0.206
		c-0.061,0.048-0.146,0.063-0.222,0.063c-0.087,0-0.174-0.021-0.248-0.068l0.029-0.187c0.059,0.052,0.133,0.088,0.211,0.088
		c0.062,0,0.121-0.045,0.121-0.112c0-0.092-0.088-0.13-0.166-0.13c-0.051,0-0.1,0.01-0.145,0.031l0.066-0.412h0.395V47.8H46.368z"/>
	<path d="M47.188,47.808c0,0.123-0.092,0.187-0.208,0.187s-0.208-0.064-0.208-0.187c0-0.121,0.095-0.185,0.208-0.185
		S47.188,47.687,47.188,47.808z M46.895,47.81c0,0.047,0.038,0.084,0.085,0.084s0.085-0.037,0.085-0.084s-0.038-0.086-0.085-0.086
		S46.895,47.762,46.895,47.81z M47.514,47.633l-0.441,0.759h-0.099l0.441-0.759H47.514z M47.716,48.215
		c0,0.123-0.092,0.188-0.208,0.188s-0.208-0.064-0.208-0.188c0-0.121,0.095-0.184,0.208-0.184S47.716,48.095,47.716,48.215z
		 M47.423,48.217c0,0.047,0.038,0.084,0.085,0.084s0.085-0.037,0.085-0.084s-0.038-0.085-0.085-0.085S47.423,48.17,47.423,48.217z"
		/>
</g>
<g opacity="0.5">
	<path d="M38.904,47.8l-0.013,0.087l0.062-0.005c0.155-0.012,0.269,0.115,0.269,0.272c0,0.08-0.036,0.154-0.098,0.206
		c-0.061,0.048-0.146,0.063-0.222,0.063c-0.087,0-0.174-0.021-0.248-0.068l0.029-0.187c0.059,0.052,0.133,0.088,0.211,0.088
		c0.062,0,0.121-0.045,0.121-0.112c0-0.092-0.088-0.13-0.166-0.13c-0.051,0-0.1,0.01-0.145,0.031l0.066-0.412h0.395V47.8H38.904z"/>
	<path d="M39.724,47.808c0,0.123-0.092,0.187-0.208,0.187s-0.208-0.064-0.208-0.187c0-0.121,0.095-0.185,0.208-0.185
		S39.724,47.687,39.724,47.808z M39.431,47.81c0,0.047,0.038,0.084,0.085,0.084s0.085-0.037,0.085-0.084s-0.038-0.086-0.085-0.086
		S39.431,47.762,39.431,47.81z M40.05,47.633l-0.441,0.759H39.51l0.441-0.759H40.05z M40.252,48.215
		c0,0.123-0.092,0.188-0.208,0.188s-0.208-0.064-0.208-0.188c0-0.121,0.095-0.184,0.208-0.184S40.252,48.095,40.252,48.215z
		 M39.959,48.217c0,0.047,0.038,0.084,0.085,0.084s0.085-0.037,0.085-0.084s-0.038-0.085-0.085-0.085S39.959,48.17,39.959,48.217z"
		/>
</g>
<g opacity="0.5">
	<path d="M31.727,47.8l-0.013,0.087l0.062-0.005c0.155-0.012,0.269,0.115,0.269,0.272c0,0.08-0.036,0.154-0.098,0.206
		c-0.061,0.048-0.146,0.063-0.222,0.063c-0.087,0-0.174-0.021-0.248-0.068l0.029-0.187c0.059,0.052,0.133,0.088,0.211,0.088
		c0.062,0,0.121-0.045,0.121-0.112c0-0.092-0.088-0.13-0.166-0.13c-0.051,0-0.1,0.01-0.145,0.031l0.066-0.412h0.395V47.8H31.727z"/>
	<path d="M32.546,47.808c0,0.123-0.092,0.187-0.208,0.187s-0.208-0.064-0.208-0.187c0-0.121,0.095-0.185,0.208-0.185
		S32.546,47.687,32.546,47.808z M32.253,47.81c0,0.047,0.038,0.084,0.085,0.084s0.085-0.037,0.085-0.084s-0.038-0.086-0.085-0.086
		S32.253,47.762,32.253,47.81z M32.873,47.633l-0.441,0.759h-0.099l0.441-0.759H32.873z M33.075,48.215
		c0,0.123-0.092,0.188-0.208,0.188s-0.208-0.064-0.208-0.188c0-0.121,0.095-0.184,0.208-0.184S33.075,48.095,33.075,48.215z
		 M32.782,48.217c0,0.047,0.038,0.084,0.085,0.084s0.085-0.037,0.085-0.084s-0.038-0.085-0.085-0.085S32.782,48.17,32.782,48.217z"
		/>
</g>
<g opacity="0.5">
	<path d="M25.013,47.8L25,47.887l0.062-0.005c0.155-0.012,0.269,0.115,0.269,0.272c0,0.08-0.036,0.154-0.098,0.206
		c-0.061,0.048-0.146,0.063-0.222,0.063c-0.087,0-0.174-0.021-0.248-0.068l0.029-0.187c0.059,0.052,0.133,0.088,0.211,0.088
		c0.062,0,0.121-0.045,0.121-0.112c0-0.092-0.088-0.13-0.166-0.13c-0.051,0-0.1,0.01-0.145,0.031l0.066-0.412h0.395V47.8H25.013z"/>
	<path d="M25.833,47.808c0,0.123-0.092,0.187-0.208,0.187s-0.208-0.064-0.208-0.187c0-0.121,0.095-0.185,0.208-0.185
		S25.833,47.687,25.833,47.808z M25.54,47.81c0,0.047,0.038,0.084,0.085,0.084s0.085-0.037,0.085-0.084s-0.038-0.086-0.085-0.086
		S25.54,47.762,25.54,47.81z M26.159,47.633l-0.441,0.759h-0.099l0.441-0.759H26.159z M26.361,48.215
		c0,0.123-0.092,0.188-0.208,0.188s-0.208-0.064-0.208-0.188c0-0.121,0.095-0.184,0.208-0.184S26.361,48.095,26.361,48.215z
		 M26.068,48.217c0,0.047,0.038,0.084,0.085,0.084s0.085-0.037,0.085-0.084s-0.038-0.085-0.085-0.085S26.068,48.17,26.068,48.217z"
		/>
</g>
<g opacity="0.5">
	<path d="M18.278,47.8l-0.013,0.087l0.062-0.005c0.155-0.012,0.269,0.115,0.269,0.272c0,0.08-0.036,0.154-0.098,0.206
		c-0.061,0.048-0.146,0.063-0.222,0.063c-0.087,0-0.174-0.021-0.248-0.068l0.029-0.187c0.059,0.052,0.133,0.088,0.211,0.088
		c0.062,0,0.121-0.045,0.121-0.112c0-0.092-0.088-0.13-0.166-0.13c-0.051,0-0.1,0.01-0.145,0.031l0.066-0.412h0.395V47.8H18.278z"/>
	<path d="M19.098,47.808c0,0.123-0.092,0.187-0.208,0.187s-0.208-0.064-0.208-0.187c0-0.121,0.095-0.185,0.208-0.185
		S19.098,47.687,19.098,47.808z M18.805,47.81c0,0.047,0.038,0.084,0.085,0.084s0.085-0.037,0.085-0.084s-0.038-0.086-0.085-0.086
		S18.805,47.762,18.805,47.81z M19.424,47.633l-0.441,0.759h-0.099l0.441-0.759H19.424z M19.626,48.215
		c0,0.123-0.092,0.188-0.208,0.188s-0.208-0.064-0.208-0.188c0-0.121,0.095-0.184,0.208-0.184S19.626,48.095,19.626,48.215z
		 M19.333,48.217c0,0.047,0.038,0.084,0.085,0.084s0.085-0.037,0.085-0.084s-0.038-0.085-0.085-0.085S19.333,48.17,19.333,48.217z"
		/>
</g>
<g opacity="0.5">
	<path d="M53.187,47.8l-0.013,0.087l0.062-0.005c0.155-0.012,0.269,0.115,0.269,0.272c0,0.08-0.035,0.154-0.098,0.206
		c-0.061,0.048-0.146,0.063-0.222,0.063c-0.086,0-0.174-0.021-0.247-0.068l0.029-0.187c0.058,0.052,0.133,0.088,0.211,0.088
		c0.062,0,0.121-0.045,0.121-0.112c0-0.092-0.088-0.13-0.166-0.13c-0.051,0-0.1,0.01-0.146,0.031l0.066-0.412h0.396V47.8H53.187z"/>
	<path d="M54.006,47.808c0,0.123-0.091,0.187-0.207,0.187s-0.207-0.064-0.207-0.187c0-0.121,0.095-0.185,0.207-0.185
		C53.912,47.623,54.006,47.687,54.006,47.808z M53.713,47.81c0,0.047,0.039,0.084,0.086,0.084s0.086-0.037,0.086-0.084
		s-0.039-0.086-0.086-0.086S53.713,47.762,53.713,47.81z M54.333,47.633l-0.441,0.759h-0.099l0.441-0.759H54.333z M54.535,48.215
		c0,0.123-0.092,0.188-0.208,0.188c-0.115,0-0.207-0.064-0.207-0.188c0-0.121,0.095-0.184,0.207-0.184
		C54.44,48.031,54.535,48.095,54.535,48.215z M54.242,48.217c0,0.047,0.038,0.084,0.085,0.084c0.048,0,0.086-0.037,0.086-0.084
		s-0.038-0.085-0.086-0.085C54.28,48.132,54.242,48.17,54.242,48.217z"/>
</g>
<g opacity="0.5">
	<path d="M60.649,47.8l-0.013,0.087l0.062-0.005c0.155-0.012,0.269,0.115,0.269,0.272c0,0.08-0.035,0.154-0.098,0.206
		c-0.061,0.048-0.146,0.063-0.222,0.063c-0.086,0-0.174-0.021-0.247-0.068l0.029-0.187c0.058,0.052,0.133,0.088,0.211,0.088
		c0.062,0,0.121-0.045,0.121-0.112c0-0.092-0.088-0.13-0.166-0.13c-0.051,0-0.1,0.01-0.146,0.031l0.066-0.412h0.396V47.8H60.649z"/>
	<path d="M61.469,47.808c0,0.123-0.091,0.187-0.207,0.187s-0.207-0.064-0.207-0.187c0-0.121,0.095-0.185,0.207-0.185
		C61.375,47.623,61.469,47.687,61.469,47.808z M61.176,47.81c0,0.047,0.039,0.084,0.086,0.084s0.086-0.037,0.086-0.084
		s-0.039-0.086-0.086-0.086S61.176,47.762,61.176,47.81z M61.796,47.633l-0.441,0.759h-0.099l0.441-0.759H61.796z M61.998,48.215
		c0,0.123-0.092,0.188-0.208,0.188c-0.115,0-0.207-0.064-0.207-0.188c0-0.121,0.095-0.184,0.207-0.184
		C61.903,48.031,61.998,48.095,61.998,48.215z M61.705,48.217c0,0.047,0.038,0.084,0.085,0.084c0.048,0,0.086-0.037,0.086-0.084
		s-0.038-0.085-0.086-0.085C61.743,48.132,61.705,48.17,61.705,48.217z"/>
</g>
<g opacity="0.5">
	<path d="M67.469,47.8l-0.013,0.087l0.062-0.005c0.155-0.012,0.269,0.115,0.269,0.272c0,0.08-0.035,0.154-0.098,0.206
		c-0.061,0.048-0.146,0.063-0.222,0.063c-0.086,0-0.174-0.021-0.247-0.068l0.029-0.187c0.058,0.052,0.133,0.088,0.211,0.088
		c0.062,0,0.121-0.045,0.121-0.112c0-0.092-0.088-0.13-0.166-0.13c-0.051,0-0.1,0.01-0.146,0.031l0.066-0.412h0.396V47.8H67.469z"/>
	<path d="M68.288,47.808c0,0.123-0.091,0.187-0.207,0.187s-0.207-0.064-0.207-0.187c0-0.121,0.095-0.185,0.207-0.185
		C68.194,47.623,68.288,47.687,68.288,47.808z M67.995,47.81c0,0.047,0.039,0.084,0.086,0.084c0.048,0,0.086-0.037,0.086-0.084
		s-0.038-0.086-0.086-0.086C68.034,47.724,67.995,47.762,67.995,47.81z M68.615,47.633l-0.441,0.759h-0.099l0.441-0.759H68.615z
		 M68.817,48.215c0,0.123-0.092,0.188-0.208,0.188c-0.115,0-0.207-0.064-0.207-0.188c0-0.121,0.095-0.184,0.207-0.184
		C68.723,48.031,68.817,48.095,68.817,48.215z M68.524,48.217c0,0.047,0.038,0.084,0.085,0.084c0.048,0,0.086-0.037,0.086-0.084
		s-0.038-0.085-0.086-0.085C68.562,48.132,68.524,48.17,68.524,48.217z"/>
</g>
<g opacity="0.5">
	<path d="M74.357,47.8l-0.013,0.087l0.062-0.005c0.155-0.012,0.269,0.115,0.269,0.272c0,0.08-0.035,0.154-0.098,0.206
		c-0.061,0.048-0.146,0.063-0.222,0.063c-0.086,0-0.174-0.021-0.247-0.068l0.029-0.187c0.058,0.052,0.133,0.088,0.211,0.088
		c0.062,0,0.121-0.045,0.121-0.112c0-0.092-0.088-0.13-0.166-0.13c-0.051,0-0.1,0.01-0.146,0.031l0.066-0.412h0.396V47.8H74.357z"/>
	<path d="M75.177,47.808c0,0.123-0.091,0.187-0.207,0.187s-0.207-0.064-0.207-0.187c0-0.121,0.095-0.185,0.207-0.185
		C75.083,47.623,75.177,47.687,75.177,47.808z M74.884,47.81c0,0.047,0.039,0.084,0.086,0.084c0.048,0,0.086-0.037,0.086-0.084
		s-0.038-0.086-0.086-0.086C74.923,47.724,74.884,47.762,74.884,47.81z M75.504,47.633l-0.441,0.759h-0.099l0.441-0.759H75.504z
		 M75.706,48.215c0,0.123-0.092,0.188-0.208,0.188c-0.115,0-0.207-0.064-0.207-0.188c0-0.121,0.095-0.184,0.207-0.184
		C75.611,48.031,75.706,48.095,75.706,48.215z M75.413,48.217c0,0.047,0.038,0.084,0.085,0.084c0.048,0,0.086-0.037,0.086-0.084
		s-0.038-0.085-0.086-0.085C75.451,48.132,75.413,48.17,75.413,48.217z"/>
</g>
<g opacity="0.5">
	<path d="M81.895,47.8l-0.013,0.087l0.062-0.005c0.155-0.012,0.269,0.115,0.269,0.272c0,0.08-0.035,0.154-0.098,0.206
		c-0.061,0.048-0.146,0.063-0.222,0.063c-0.086,0-0.174-0.021-0.247-0.068l0.029-0.187c0.058,0.052,0.133,0.088,0.211,0.088
		c0.062,0,0.121-0.045,0.121-0.112c0-0.092-0.088-0.13-0.166-0.13c-0.051,0-0.1,0.01-0.146,0.031l0.066-0.412h0.396V47.8H81.895z"/>
	<path d="M82.714,47.808c0,0.123-0.091,0.187-0.207,0.187S82.3,47.93,82.3,47.808c0-0.121,0.095-0.185,0.207-0.185
		C82.62,47.623,82.714,47.687,82.714,47.808z M82.421,47.81c0,0.047,0.039,0.084,0.086,0.084c0.048,0,0.086-0.037,0.086-0.084
		s-0.038-0.086-0.086-0.086C82.46,47.724,82.421,47.762,82.421,47.81z M83.041,47.633L82.6,48.393h-0.099l0.441-0.759H83.041z
		 M83.243,48.215c0,0.123-0.092,0.188-0.208,0.188c-0.115,0-0.207-0.064-0.207-0.188c0-0.121,0.095-0.184,0.207-0.184
		C83.148,48.031,83.243,48.095,83.243,48.215z M82.95,48.217c0,0.047,0.038,0.084,0.085,0.084c0.048,0,0.086-0.037,0.086-0.084
		s-0.038-0.085-0.086-0.085C82.988,48.132,82.95,48.17,82.95,48.217z"/>
</g>
<g opacity="0.5">
	<path d="M88.144,47.8l-0.013,0.087l0.062-0.005c0.155-0.012,0.269,0.115,0.269,0.272c0,0.08-0.035,0.154-0.098,0.206
		c-0.061,0.048-0.146,0.063-0.222,0.063c-0.086,0-0.174-0.021-0.247-0.068l0.029-0.187c0.058,0.052,0.133,0.088,0.211,0.088
		c0.062,0,0.121-0.045,0.121-0.112c0-0.092-0.088-0.13-0.166-0.13c-0.051,0-0.1,0.01-0.146,0.031l0.066-0.412h0.396V47.8H88.144z"/>
	<path d="M88.963,47.808c0,0.123-0.091,0.187-0.207,0.187s-0.207-0.064-0.207-0.187c0-0.121,0.095-0.185,0.207-0.185
		C88.869,47.623,88.963,47.687,88.963,47.808z M88.67,47.81c0,0.047,0.039,0.084,0.086,0.084s0.086-0.037,0.086-0.084
		s-0.039-0.086-0.086-0.086S88.67,47.762,88.67,47.81z M89.29,47.633l-0.441,0.759H88.75l0.441-0.759H89.29z M89.492,48.215
		c0,0.123-0.092,0.188-0.208,0.188c-0.115,0-0.207-0.064-0.207-0.188c0-0.121,0.095-0.184,0.207-0.184
		C89.397,48.031,89.492,48.095,89.492,48.215z M89.199,48.217c0,0.047,0.038,0.084,0.085,0.084c0.048,0,0.086-0.037,0.086-0.084
		s-0.038-0.085-0.086-0.085C89.237,48.132,89.199,48.17,89.199,48.217z"/>
</g>
<g opacity="0.5">
	<path d="M14.644,48.226v0.167h-0.61l0.31-0.337c0.044-0.048,0.087-0.117,0.087-0.186c0-0.049-0.034-0.099-0.087-0.099
		c-0.053,0-0.083,0.042-0.083,0.093c0,0.01,0.001,0.021,0.003,0.032h-0.217c0.006-0.174,0.117-0.292,0.296-0.292
		c0.159,0,0.293,0.105,0.293,0.27c0,0.108-0.045,0.172-0.123,0.243l-0.118,0.11H14.644z"/>
	<path d="M15.124,47.808c0,0.123-0.092,0.187-0.208,0.187s-0.208-0.064-0.208-0.187c0-0.121,0.095-0.185,0.208-0.185
		S15.124,47.687,15.124,47.808z M14.831,47.81c0,0.047,0.038,0.084,0.085,0.084s0.085-0.037,0.085-0.084s-0.038-0.086-0.085-0.086
		S14.831,47.762,14.831,47.81z M15.45,47.633l-0.441,0.759H14.91l0.441-0.759H15.45z M15.652,48.215
		c0,0.123-0.092,0.188-0.208,0.188s-0.208-0.064-0.208-0.188c0-0.121,0.095-0.184,0.208-0.184S15.652,48.095,15.652,48.215z
		 M15.359,48.217c0,0.047,0.038,0.084,0.085,0.084s0.085-0.037,0.085-0.084s-0.038-0.085-0.085-0.085S15.359,48.17,15.359,48.217z"
		/>
</g>
<g opacity="0.5">
	<path d="M50.081,48.226v0.167h-0.61l0.31-0.337c0.044-0.048,0.087-0.117,0.087-0.186c0-0.049-0.034-0.099-0.087-0.099
		c-0.053,0-0.083,0.042-0.083,0.093c0,0.01,0.001,0.021,0.003,0.032h-0.217c0.006-0.174,0.117-0.292,0.296-0.292
		c0.159,0,0.293,0.105,0.293,0.27c0,0.108-0.045,0.172-0.123,0.243l-0.118,0.11H50.081z"/>
	<path d="M50.561,47.808c0,0.123-0.092,0.187-0.208,0.187s-0.208-0.064-0.208-0.187c0-0.121,0.095-0.185,0.208-0.185
		S50.561,47.687,50.561,47.808z M50.268,47.81c0,0.047,0.038,0.084,0.085,0.084s0.085-0.037,0.085-0.084s-0.038-0.086-0.085-0.086
		S50.268,47.762,50.268,47.81z M50.887,47.633l-0.441,0.759h-0.099l0.441-0.759H50.887z M51.089,48.215
		c0,0.123-0.091,0.188-0.207,0.188s-0.208-0.064-0.208-0.188c0-0.121,0.095-0.184,0.208-0.184S51.089,48.095,51.089,48.215z
		 M50.796,48.217c0,0.047,0.038,0.084,0.085,0.084s0.085-0.037,0.085-0.084s-0.038-0.085-0.085-0.085S50.796,48.17,50.796,48.217z"
		/>
</g>
<g opacity="0.5">
	<path d="M42.76,48.226v0.167h-0.61l0.31-0.337c0.044-0.048,0.087-0.117,0.087-0.186c0-0.049-0.034-0.099-0.087-0.099
		c-0.053,0-0.083,0.042-0.083,0.093c0,0.01,0.001,0.021,0.003,0.032h-0.217c0.006-0.174,0.117-0.292,0.296-0.292
		c0.159,0,0.293,0.105,0.293,0.27c0,0.108-0.045,0.172-0.123,0.243l-0.118,0.11H42.76z"/>
	<path d="M43.24,47.808c0,0.123-0.092,0.187-0.208,0.187s-0.208-0.064-0.208-0.187c0-0.121,0.095-0.185,0.208-0.185
		S43.24,47.687,43.24,47.808z M42.947,47.81c0,0.047,0.038,0.084,0.085,0.084s0.085-0.037,0.085-0.084s-0.038-0.086-0.085-0.086
		S42.947,47.762,42.947,47.81z M43.566,47.633l-0.441,0.759h-0.099l0.441-0.759H43.566z M43.769,48.215
		c0,0.123-0.092,0.188-0.208,0.188s-0.208-0.064-0.208-0.188c0-0.121,0.095-0.184,0.208-0.184S43.769,48.095,43.769,48.215z
		 M43.476,48.217c0,0.047,0.038,0.084,0.085,0.084s0.085-0.037,0.085-0.084s-0.038-0.085-0.085-0.085S43.476,48.17,43.476,48.217z"
		/>
</g>
<g opacity="0.5">
	<path d="M35.798,48.226v0.167h-0.61l0.31-0.337c0.044-0.048,0.087-0.117,0.087-0.186c0-0.049-0.034-0.099-0.087-0.099
		c-0.053,0-0.083,0.042-0.083,0.093c0,0.01,0.001,0.021,0.003,0.032h-0.217c0.006-0.174,0.117-0.292,0.296-0.292
		c0.159,0,0.293,0.105,0.293,0.27c0,0.108-0.045,0.172-0.123,0.243l-0.118,0.11H35.798z"/>
	<path d="M36.278,47.808c0,0.123-0.092,0.187-0.208,0.187s-0.208-0.064-0.208-0.187c0-0.121,0.095-0.185,0.208-0.185
		S36.278,47.687,36.278,47.808z M35.985,47.81c0,0.047,0.038,0.084,0.085,0.084s0.085-0.037,0.085-0.084s-0.038-0.086-0.085-0.086
		S35.985,47.762,35.985,47.81z M36.604,47.633l-0.441,0.759h-0.099l0.441-0.759H36.604z M36.807,48.215
		c0,0.123-0.092,0.188-0.208,0.188s-0.208-0.064-0.208-0.188c0-0.121,0.095-0.184,0.208-0.184S36.807,48.095,36.807,48.215z
		 M36.514,48.217c0,0.047,0.038,0.084,0.085,0.084s0.085-0.037,0.085-0.084s-0.038-0.085-0.085-0.085S36.514,48.17,36.514,48.217z"
		/>
</g>
<g opacity="0.5">
	<path d="M28.811,48.226v0.167H28.2l0.31-0.337c0.044-0.048,0.087-0.117,0.087-0.186c0-0.049-0.034-0.099-0.087-0.099
		c-0.053,0-0.083,0.042-0.083,0.093c0,0.01,0.001,0.021,0.003,0.032h-0.217c0.006-0.174,0.117-0.292,0.296-0.292
		c0.159,0,0.293,0.105,0.293,0.27c0,0.108-0.045,0.172-0.123,0.243l-0.118,0.11H28.811z"/>
	<path d="M29.291,47.808c0,0.123-0.092,0.187-0.208,0.187s-0.208-0.064-0.208-0.187c0-0.121,0.095-0.185,0.208-0.185
		S29.291,47.687,29.291,47.808z M28.998,47.81c0,0.047,0.038,0.084,0.085,0.084s0.085-0.037,0.085-0.084s-0.038-0.086-0.085-0.086
		S28.998,47.762,28.998,47.81z M29.617,47.633l-0.441,0.759h-0.099l0.441-0.759H29.617z M29.819,48.215
		c0,0.123-0.092,0.188-0.208,0.188s-0.208-0.064-0.208-0.188c0-0.121,0.095-0.184,0.208-0.184S29.819,48.095,29.819,48.215z
		 M29.526,48.217c0,0.047,0.038,0.084,0.085,0.084s0.085-0.037,0.085-0.084s-0.038-0.085-0.085-0.085S29.526,48.17,29.526,48.217z"
		/>
</g>
<g opacity="0.5">
	<path d="M21.926,48.226v0.167h-0.61l0.31-0.337c0.044-0.048,0.087-0.117,0.087-0.186c0-0.049-0.034-0.099-0.087-0.099
		c-0.053,0-0.083,0.042-0.083,0.093c0,0.01,0.001,0.021,0.003,0.032h-0.217c0.006-0.174,0.117-0.292,0.296-0.292
		c0.159,0,0.293,0.105,0.293,0.27c0,0.108-0.045,0.172-0.123,0.243l-0.118,0.11H21.926z"/>
	<path d="M22.406,47.808c0,0.123-0.092,0.187-0.208,0.187s-0.208-0.064-0.208-0.187c0-0.121,0.095-0.185,0.208-0.185
		S22.406,47.687,22.406,47.808z M22.113,47.81c0,0.047,0.038,0.084,0.085,0.084s0.085-0.037,0.085-0.084s-0.038-0.086-0.085-0.086
		S22.113,47.762,22.113,47.81z M22.732,47.633l-0.441,0.759h-0.099l0.441-0.759H22.732z M22.935,48.215
		c0,0.123-0.092,0.188-0.208,0.188s-0.208-0.064-0.208-0.188c0-0.121,0.095-0.184,0.208-0.184S22.935,48.095,22.935,48.215z
		 M22.642,48.217c0,0.047,0.038,0.084,0.085,0.084s0.085-0.037,0.085-0.084s-0.038-0.085-0.085-0.085S22.642,48.17,22.642,48.217z"
		/>
</g>
<g opacity="0.5">
	<path d="M57.258,48.226v0.167h-0.61l0.311-0.337c0.044-0.048,0.086-0.117,0.086-0.186c0-0.049-0.034-0.099-0.086-0.099
		c-0.054,0-0.083,0.042-0.083,0.093c0,0.01,0.001,0.021,0.003,0.032H56.66c0.007-0.174,0.117-0.292,0.297-0.292
		c0.159,0,0.293,0.105,0.293,0.27c0,0.108-0.046,0.172-0.123,0.243l-0.118,0.11H57.258z"/>
	<path d="M57.737,47.808c0,0.123-0.091,0.187-0.207,0.187s-0.207-0.064-0.207-0.187c0-0.121,0.095-0.185,0.207-0.185
		C57.644,47.623,57.737,47.687,57.737,47.808z M57.444,47.81c0,0.047,0.039,0.084,0.086,0.084c0.048,0,0.086-0.037,0.086-0.084
		s-0.038-0.086-0.086-0.086C57.483,47.724,57.444,47.762,57.444,47.81z M58.064,47.633l-0.441,0.759h-0.099l0.441-0.759H58.064z
		 M58.267,48.215c0,0.123-0.092,0.188-0.208,0.188c-0.115,0-0.207-0.064-0.207-0.188c0-0.121,0.095-0.184,0.207-0.184
		C58.172,48.031,58.267,48.095,58.267,48.215z M57.974,48.217c0,0.047,0.038,0.084,0.085,0.084c0.048,0,0.086-0.037,0.086-0.084
		s-0.038-0.085-0.086-0.085C58.012,48.132,57.974,48.17,57.974,48.217z"/>
</g>
<g opacity="0.5">
	<path d="M64.363,48.226v0.167h-0.61l0.311-0.337c0.044-0.048,0.086-0.117,0.086-0.186c0-0.049-0.034-0.099-0.086-0.099
		c-0.054,0-0.083,0.042-0.083,0.093c0,0.01,0.001,0.021,0.003,0.032h-0.218c0.007-0.174,0.117-0.292,0.297-0.292
		c0.159,0,0.293,0.105,0.293,0.27c0,0.108-0.046,0.172-0.123,0.243l-0.118,0.11H64.363z"/>
	<path d="M64.843,47.808c0,0.123-0.091,0.187-0.207,0.187s-0.207-0.064-0.207-0.187c0-0.121,0.095-0.185,0.207-0.185
		C64.749,47.623,64.843,47.687,64.843,47.808z M64.55,47.81c0,0.047,0.039,0.084,0.086,0.084c0.048,0,0.086-0.037,0.086-0.084
		s-0.038-0.086-0.086-0.086C64.589,47.724,64.55,47.762,64.55,47.81z M65.17,47.633l-0.441,0.759H64.63l0.441-0.759H65.17z
		 M65.372,48.215c0,0.123-0.092,0.188-0.208,0.188c-0.115,0-0.207-0.064-0.207-0.188c0-0.121,0.095-0.184,0.207-0.184
		C65.277,48.031,65.372,48.095,65.372,48.215z M65.079,48.217c0,0.047,0.038,0.084,0.085,0.084c0.048,0,0.086-0.037,0.086-0.084
		s-0.038-0.085-0.086-0.085C65.117,48.132,65.079,48.17,65.079,48.217z"/>
</g>
<g opacity="0.5">
	<path d="M70.957,48.226v0.167h-0.61l0.311-0.337c0.044-0.048,0.086-0.117,0.086-0.186c0-0.049-0.034-0.099-0.086-0.099
		c-0.054,0-0.083,0.042-0.083,0.093c0,0.01,0.001,0.021,0.003,0.032h-0.218c0.007-0.174,0.117-0.292,0.297-0.292
		c0.159,0,0.293,0.105,0.293,0.27c0,0.108-0.046,0.172-0.123,0.243l-0.118,0.11H70.957z"/>
	<path d="M71.437,47.808c0,0.123-0.091,0.187-0.207,0.187s-0.207-0.064-0.207-0.187c0-0.121,0.095-0.185,0.207-0.185
		C71.343,47.623,71.437,47.687,71.437,47.808z M71.144,47.81c0,0.047,0.039,0.084,0.086,0.084s0.086-0.037,0.086-0.084
		s-0.039-0.086-0.086-0.086S71.144,47.762,71.144,47.81z M71.764,47.633l-0.441,0.759h-0.099l0.441-0.759H71.764z M71.966,48.215
		c0,0.123-0.092,0.188-0.208,0.188c-0.115,0-0.207-0.064-0.207-0.188c0-0.121,0.095-0.184,0.207-0.184
		C71.871,48.031,71.966,48.095,71.966,48.215z M71.673,48.217c0,0.047,0.038,0.084,0.085,0.084c0.048,0,0.086-0.037,0.086-0.084
		s-0.038-0.085-0.086-0.085C71.711,48.132,71.673,48.17,71.673,48.217z"/>
</g>
<g opacity="0.5">
	<path d="M77.788,48.226v0.167h-0.61l0.311-0.337c0.044-0.048,0.086-0.117,0.086-0.186c0-0.049-0.034-0.099-0.086-0.099
		c-0.054,0-0.083,0.042-0.083,0.093c0,0.01,0.001,0.021,0.003,0.032H77.19c0.007-0.174,0.117-0.292,0.297-0.292
		c0.159,0,0.293,0.105,0.293,0.27c0,0.108-0.046,0.172-0.123,0.243l-0.118,0.11H77.788z"/>
	<path d="M78.268,47.808c0,0.123-0.091,0.187-0.207,0.187s-0.207-0.064-0.207-0.187c0-0.121,0.095-0.185,0.207-0.185
		C78.174,47.623,78.268,47.687,78.268,47.808z M77.975,47.81c0,0.047,0.039,0.084,0.086,0.084s0.086-0.037,0.086-0.084
		s-0.039-0.086-0.086-0.086S77.975,47.762,77.975,47.81z M78.595,47.633l-0.441,0.759h-0.099l0.441-0.759H78.595z M78.797,48.215
		c0,0.123-0.092,0.188-0.208,0.188c-0.115,0-0.207-0.064-0.207-0.188c0-0.121,0.095-0.184,0.207-0.184
		C78.702,48.031,78.797,48.095,78.797,48.215z M78.504,48.217c0,0.047,0.038,0.084,0.085,0.084c0.048,0,0.086-0.037,0.086-0.084
		s-0.038-0.085-0.086-0.085C78.542,48.132,78.504,48.17,78.504,48.217z"/>
</g>
<g opacity="0.5">
	<path d="M84.967,48.226v0.167h-0.61l0.311-0.337c0.044-0.048,0.086-0.117,0.086-0.186c0-0.049-0.034-0.099-0.086-0.099
		c-0.054,0-0.083,0.042-0.083,0.093c0,0.01,0.001,0.021,0.003,0.032h-0.218c0.007-0.174,0.117-0.292,0.297-0.292
		c0.159,0,0.293,0.105,0.293,0.27c0,0.108-0.046,0.172-0.123,0.243l-0.118,0.11H84.967z"/>
	<path d="M85.446,47.808c0,0.123-0.091,0.187-0.207,0.187s-0.207-0.064-0.207-0.187c0-0.121,0.095-0.185,0.207-0.185
		C85.353,47.623,85.446,47.687,85.446,47.808z M85.153,47.81c0,0.047,0.039,0.084,0.086,0.084c0.048,0,0.086-0.037,0.086-0.084
		s-0.038-0.086-0.086-0.086C85.192,47.724,85.153,47.762,85.153,47.81z M85.773,47.633l-0.441,0.759h-0.099l0.441-0.759H85.773z
		 M85.976,48.215c0,0.123-0.092,0.188-0.208,0.188c-0.115,0-0.207-0.064-0.207-0.188c0-0.121,0.095-0.184,0.207-0.184
		C85.881,48.031,85.976,48.095,85.976,48.215z M85.683,48.217c0,0.047,0.038,0.084,0.085,0.084c0.048,0,0.086-0.037,0.086-0.084
		s-0.038-0.085-0.086-0.085C85.721,48.132,85.683,48.17,85.683,48.217z"/>
</g>
<g opacity="0.5">
	<path d="M94.985,48.393l0.217-0.256L95.2,48.135c-0.034,0.015-0.066,0.023-0.107,0.023c-0.148,0-0.243-0.127-0.243-0.268
		c0-0.187,0.152-0.287,0.326-0.287c0.073,0,0.158,0.018,0.217,0.065c0.061,0.049,0.102,0.13,0.102,0.209
		c0,0.11-0.057,0.215-0.122,0.302l-0.162,0.212H94.985z M95.055,47.884c0,0.07,0.053,0.125,0.122,0.125s0.126-0.055,0.126-0.125
		c0-0.069-0.057-0.125-0.126-0.125S95.055,47.814,95.055,47.884z"/>
	<path d="M95.949,47.808c0,0.123-0.091,0.187-0.207,0.187s-0.207-0.064-0.207-0.187c0-0.121,0.095-0.185,0.207-0.185
		C95.855,47.623,95.949,47.687,95.949,47.808z M95.656,47.81c0,0.047,0.039,0.084,0.086,0.084s0.086-0.037,0.086-0.084
		s-0.039-0.086-0.086-0.086S95.656,47.762,95.656,47.81z M96.276,47.633l-0.441,0.759h-0.099l0.441-0.759H96.276z M96.479,48.215
		c0,0.123-0.092,0.188-0.208,0.188c-0.115,0-0.207-0.064-0.207-0.188c0-0.121,0.095-0.184,0.207-0.184
		C96.384,48.031,96.479,48.095,96.479,48.215z M96.186,48.217c0,0.047,0.038,0.084,0.085,0.084c0.048,0,0.086-0.037,0.086-0.084
		s-0.038-0.085-0.086-0.085C96.224,48.132,96.186,48.17,96.186,48.217z"/>
</g>
<line fill="none" stroke="#E6E6E6" stroke-miterlimit="10" x1="0.5" y1="47" x2="0.5" y2="49"/>
<line fill="none" stroke="#E6E6E6" stroke-miterlimit="10" x1="99.5" y1="47" x2="99.5" y2="49"/>
<g>
</g>
<g>
</g>
<g>
</g>
<g>
</g>
<g>
</g>
<g>
</g>
<g>
</g>
<g>
</g>
<g>
</g>
<g>
</g>
<g>
</g>
<g>
</g>
<g>
</g>
<g>
</g>
<g>
</g>
</svg>
