<?xml version="1.0" encoding="utf-8"?>
<!-- Generator: Adobe Illustrator 16.0.0, SVG Export Plug-In . SVG Version: 6.00 Build 0)  -->
<!DOCTYPE svg PUBLIC "-//W3C//DTD SVG 1.1//EN" "http://www.w3.org/Graphics/SVG/1.1/DTD/svg11.dtd">
<svg version="1.1" id="Layer_1" xmlns="http://www.w3.org/2000/svg" xmlns:xlink="http://www.w3.org/1999/xlink" x="0px" y="0px"
	 width="300px" height="529px" viewBox="0 0 300 529" enable-background="new 0 0 300 529" xml:space="preserve">
<rect y="17" fill="#339933" width="300" height="75"/>
<circle fill="#339933" cx="37.333" cy="8.333" r="5.333"/>
<rect x="-12.5" y="107.5" fill="#F5F6F9" stroke="#E0E0E0" stroke-miterlimit="10" width="324" height="393"/>
<rect y="363" fill="#5290D2" width="300" height="83"/>
<rect y="446" fill="#333333" width="300" height="83"/>
<g>
	<path fill="#FFFFFF" d="M269,222c0,2.209-1.791,4-4,4H35c-2.209,0-4-1.791-4-4v-86c0-2.209,1.791-4,4-4h230c2.209,0,4,1.791,4,4
		V222z"/>
	<path fill="none" stroke="#E0E0E0" stroke-miterlimit="10" d="M269.5,221.5c0,2.2-1.8,4-4,4h-230c-2.2,0-4-1.8-4-4v-86
		c0-2.2,1.8-4,4-4h230c2.2,0,4,1.8,4,4V221.5z"/>
</g>
<g>
	<path fill="#FFFFFF" d="M355,360c0,2.209-1.791,4-4,4H-50c-2.209,0-4-1.791-4-4V258c0-2.209,1.791-4,4-4h401c2.209,0,4,1.791,4,4
		V360z"/>
	<path fill="none" stroke="#E0E0E0" stroke-miterlimit="10" d="M354.5,359.5c0,2.209-1.791,4-4,4h-401c-2.209,0-4-1.791-4-4v-102
		c0-2.209,1.791-4,4-4h401c2.209,0,4,1.791,4,4V359.5z"/>
</g>
<circle fill="#E18932" cx="273.833" cy="13.167" r="12.667"/>
<g>
	<path fill="#FFFFFF" d="M271.183,15.828c0-0.324,0.168-0.492,0.492-0.492h1.354V10.61c0-0.288,0.013-0.576,0.013-0.576h-0.024
		c0,0-0.107,0.228-0.323,0.432l-0.372,0.36c-0.24,0.216-0.479,0.216-0.695-0.024l-0.229-0.24c-0.228-0.228-0.216-0.48,0.012-0.708
		l1.512-1.451c0.191-0.167,0.372-0.251,0.623-0.251h0.504c0.324,0,0.492,0.18,0.492,0.503v6.681h1.343
		c0.324,0,0.504,0.167,0.504,0.492v0.335c0,0.336-0.18,0.504-0.504,0.504h-4.209c-0.324,0-0.492-0.168-0.492-0.504V15.828z"/>
</g>
<circle fill="#E18932" cx="244.833" cy="58.167" r="12.667"/>
<g>
	<path fill="#FFFFFF" d="M242.183,60.912c0-3.07,3.981-3.562,3.981-5.253c0-0.744-0.575-1.188-1.295-1.188
		c-0.611,0-1.043,0.372-1.259,0.636c-0.229,0.228-0.468,0.312-0.708,0.108l-0.324-0.251c-0.252-0.192-0.312-0.42-0.132-0.672
		c0.372-0.492,1.164-1.283,2.555-1.283c1.487,0,2.771,0.912,2.771,2.519c0,2.734-3.813,3.202-3.886,4.81h3.514
		c0.336,0,0.504,0.167,0.504,0.492v0.335c0,0.336-0.168,0.504-0.504,0.504h-4.677c-0.312,0-0.54-0.168-0.54-0.504V60.912z"/>
</g>
<circle fill="#E18932" cx="276.833" cy="100.167" r="12.667"/>
<g>
	<path fill="#FFFFFF" d="M274.219,102.288l0.24-0.372c0.18-0.276,0.407-0.288,0.684-0.108c0.312,0.216,0.852,0.54,1.535,0.54
		c0.887,0,1.535-0.54,1.535-1.271c0-0.899-0.828-1.319-1.823-1.319h-0.18c-0.276,0-0.433-0.096-0.552-0.348l-0.048-0.096
		c-0.108-0.216-0.072-0.444,0.107-0.648l1.308-1.547c0.323-0.396,0.611-0.648,0.611-0.648v-0.024c0,0-0.264,0.036-0.756,0.036
		h-2.051c-0.323,0-0.491-0.168-0.491-0.492v-0.336c0-0.324,0.168-0.503,0.491-0.503h4.198c0.336,0,0.504,0.167,0.504,0.492v0.132
		c0,0.252-0.061,0.432-0.229,0.612l-1.858,2.146c1.187,0.168,2.326,1.007,2.326,2.483c0,1.451-1.091,2.794-2.998,2.794
		c-1.188,0-2.039-0.516-2.459-0.828C274.062,102.792,274.039,102.54,274.219,102.288z"/>
</g>
<circle fill="#E18932" cx="263.833" cy="253.167" r="12.667"/>
<g>
	<path fill="#FFFFFF" d="M260.907,253.98v-0.12c0-0.24,0.048-0.419,0.18-0.611l3.286-4.773c0.144-0.228,0.324-0.324,0.6-0.324h0.936
		c0.336,0,0.504,0.18,0.504,0.503v4.534h0.6c0.323,0,0.504,0.168,0.504,0.492v0.3c0,0.324-0.145,0.492-0.408,0.492h-0.695v1.691
		c0,0.336-0.168,0.504-0.504,0.504h-0.527c-0.324,0-0.492-0.168-0.492-0.504v-1.691h-3.49
		C261.075,254.472,260.907,254.304,260.907,253.98z M264.889,253.189v-2.639c0-0.42,0.06-0.887,0.06-0.887h-0.023
		c0,0-0.192,0.456-0.42,0.779l-1.967,2.723v0.024H264.889z"/>
</g>
<circle fill="#E18932" cx="260.833" cy="397.167" r="12.667"/>
<g>
	<path fill="#FFFFFF" d="M258.351,399.276l0.24-0.36c0.18-0.276,0.407-0.288,0.684-0.096c0.275,0.216,0.755,0.528,1.415,0.528
		c0.827,0,1.595-0.552,1.595-1.451c0-0.888-0.731-1.475-1.703-1.475c-0.432,0-0.779,0.132-0.983,0.216
		c-0.239,0.084-0.443,0.108-0.671,0.024l-0.108-0.036c-0.275-0.108-0.396-0.3-0.372-0.6l0.312-3.394
		c0.023-0.312,0.203-0.479,0.516-0.479h3.502c0.336,0,0.504,0.18,0.504,0.503v0.336c0,0.324-0.168,0.492-0.504,0.492h-2.639
		l-0.132,1.403c-0.012,0.228-0.061,0.396-0.061,0.396h0.024c0,0,0.396-0.192,0.911-0.192c1.884,0,2.999,1.26,2.999,2.795
		c0,1.679-1.308,2.926-3.07,2.926c-1.188,0-1.979-0.516-2.387-0.852C258.183,399.779,258.171,399.516,258.351,399.276z"/>
</g>
<circle fill="#E18932" cx="269.833" cy="494.167" r="12.667"/>
<g>
	<path fill="#FFFFFF" d="M270.177,489.008c0.516,0,1.007,0.096,1.283,0.192c0.3,0.096,0.407,0.312,0.3,0.636l-0.145,0.396
		c-0.107,0.336-0.3,0.384-0.587,0.324c-0.204-0.06-0.432-0.12-0.768-0.12c-1.38,0-2.075,1.139-2.291,2.351h0.024
		c0.275-0.348,0.887-0.671,1.715-0.671c1.619,0,2.639,1.247,2.639,2.734c0,1.607-1.115,2.962-2.807,2.962
		c-1.775,0-3.286-1.487-3.286-3.994C266.255,491.502,267.55,489.008,270.177,489.008z M269.541,496.396
		c0.779,0,1.283-0.611,1.283-1.451c0-0.852-0.527-1.559-1.631-1.559c-0.756,0-1.332,0.396-1.332,0.996
		C267.861,495.244,268.569,496.396,269.541,496.396z"/>
</g>
</svg>
