<svg xmlns="http://www.w3.org/2000/svg" width="300" height="529" viewBox="0 0 300 529"><path fill="#393" d="M0 17h300v75H0z"/><circle fill="#393" cx="37.333" cy="8.333" r="5.333"/><path fill="#F5F6F9" stroke="#E0E0E0" stroke-miterlimit="10" d="M-12.5 107.5h324v393h-324z"/><path fill="#5290D2" d="M0 363h300v83H0z"/><path fill="#333" d="M0 446h300v83H0z"/><path fill="#FFF" d="M269 222a4 4 0 0 1-4 4H35a4 4 0 0 1-4-4v-86a4 4 0 0 1 4-4h230a4 4 0 0 1 4 4v86z"/><path fill="none" stroke="#E0E0E0" stroke-miterlimit="10" d="M269.5 221.5c0 2.2-1.8 4-4 4h-230c-2.2 0-4-1.8-4-4v-86c0-2.2 1.8-4 4-4h230c2.2 0 4 1.8 4 4v86z"/><path fill="#FFF" d="M355 360a4 4 0 0 1-4 4H-50a4 4 0 0 1-4-4V258a4 4 0 0 1 4-4h401a4 4 0 0 1 4 4v102z"/><path fill="none" stroke="#E0E0E0" stroke-miterlimit="10" d="M354.5 359.5a4 4 0 0 1-4 4h-401a4 4 0 0 1-4-4v-102a4 4 0 0 1 4-4h401a4 4 0 0 1 4 4v102z"/><circle fill="#E18932" cx="273.833" cy="13.167" r="12.667"/><path fill="#FFF" d="M271.183 15.828c0-.324.168-.492.492-.492h1.354V10.61c0-.288.012-.576.012-.576h-.024s-.107.228-.323.432l-.372.36c-.24.216-.48.216-.695-.024l-.23-.24c-.227-.228-.215-.48.013-.708l1.513-1.45c.19-.168.372-.252.623-.252h.504c.324 0 .492.18.492.503v6.68h1.343c.324 0 .504.168.504.493v.335c0 .336-.18.504-.505.504h-4.21c-.323 0-.49-.168-.49-.504v-.335z"/><circle fill="#E18932" cx="244.833" cy="58.167" r="12.667"/><path fill="#FFF" d="M242.183 60.912c0-3.07 3.98-3.562 3.98-5.253 0-.745-.574-1.19-1.294-1.19-.612 0-1.044.373-1.26.637-.23.228-.468.312-.708.108l-.324-.25c-.252-.193-.312-.42-.132-.673.372-.492 1.164-1.283 2.555-1.283 1.488 0 2.772.91 2.772 2.518 0 2.734-3.813 3.202-3.886 4.81h3.514c.336 0 .504.167.504.492v.335c0 .336-.168.504-.504.504h-4.677c-.312 0-.54-.17-.54-.505v-.253z"/><circle fill="#E18932" cx="276.833" cy="100.167" r="12.667"/><path fill="#FFF" d="M274.22 102.288l.24-.372c.18-.276.406-.288.683-.108.312.216.852.54 1.535.54.887 0 1.535-.54 1.535-1.27 0-.9-.828-1.32-1.823-1.32h-.18c-.276 0-.433-.096-.552-.348l-.048-.096c-.108-.216-.072-.444.107-.648l1.308-1.547c.323-.397.61-.65.61-.65v-.023s-.263.036-.755.036h-2.05c-.324 0-.492-.168-.492-.492v-.335c0-.324.168-.503.49-.503h4.2c.335 0 .503.167.503.492v.132c0 .252-.06.432-.228.612l-1.858 2.146c1.187.168 2.326 1.007 2.326 2.483 0 1.45-1.09 2.794-2.998 2.794a4.12 4.12 0 0 1-2.46-.827c-.25-.19-.273-.443-.093-.695z"/><circle fill="#E18932" cx="263.833" cy="253.167" r="12.667"/><path fill="#FFF" d="M260.907 253.98v-.12c0-.24.048-.42.18-.61l3.286-4.774c.144-.228.324-.324.6-.324h.936c.335 0 .503.18.503.503v4.534h.6c.323 0 .504.167.504.49v.3c0 .325-.145.493-.408.493h-.696v1.69c0 .337-.168.505-.504.505h-.527c-.324 0-.492-.168-.492-.504v-1.69h-3.49c-.325-.002-.493-.17-.493-.494zm3.982-.79v-2.64c0-.42.06-.887.06-.887h-.024s-.192.456-.42.78l-1.967 2.722v.024h2.35z"/><circle fill="#E18932" cx="260.833" cy="397.167" r="12.667"/><path fill="#FFF" d="M258.35 399.276l.24-.36c.18-.276.408-.288.685-.096.275.216.755.528 1.415.528.827 0 1.595-.552 1.595-1.45 0-.89-.73-1.476-1.703-1.476-.432 0-.78.132-.983.216-.24.084-.444.108-.672.024l-.108-.036c-.275-.108-.396-.3-.372-.6l.312-3.394c.023-.312.203-.48.516-.48h3.502c.336 0 .504.18.504.504v.336c0 .324-.168.492-.504.492h-2.64l-.13 1.403c-.013.228-.062.396-.062.396h.024s.396-.192.91-.192c1.885 0 3 1.26 3 2.796 0 1.68-1.308 2.926-3.07 2.926a3.69 3.69 0 0 1-2.387-.852c-.24-.18-.252-.444-.072-.684z"/><circle fill="#E18932" cx="269.833" cy="494.167" r="12.667"/><g><path fill="#FFF" d="M270.177 489.008c.516 0 1.007.096 1.283.192.3.096.407.312.3.636l-.145.396c-.107.336-.3.384-.587.324a2.51 2.51 0 0 0-.768-.12c-1.38 0-2.075 1.14-2.29 2.35h.023c.275-.347.887-.67 1.715-.67 1.62 0 2.64 1.247 2.64 2.734 0 1.607-1.116 2.962-2.808 2.962-1.775 0-3.286-1.487-3.286-3.994 0-2.316 1.296-4.81 3.923-4.81zm-.636 7.388c.78 0 1.284-.61 1.284-1.45 0-.853-.527-1.56-1.63-1.56-.757 0-1.333.396-1.333.996 0 .862.71 2.014 1.68 2.014z"/></g></svg>