<svg xmlns="http://www.w3.org/2000/svg" width="300" height="308" viewBox="0 0 300 308"><circle fill="#393" cx="36.333" cy="8.333" r="5.333"/><path fill="#F5F6F9" stroke="#E0E0E0" stroke-miterlimit="10" d="M-11.5 16.5h324v306h-324z"/><path fill="#FFF" d="M81 84a4 4 0 0 1-4 4H35a4 4 0 0 1-4-4V45a4 4 0 0 1 4-4h42a4 4 0 0 1 4 4v39z"/><path fill="none" stroke="#E0E0E0" stroke-miterlimit="10" d="M81.5 83.5a4 4 0 0 1-4 4h-42a4 4 0 0 1-4-4v-39a4 4 0 0 1 4-4h42a4 4 0 0 1 4 4v39z"/><path fill="#FFF" d="M263 192a4 4 0 0 1-4 4H95a4 4 0 0 1-4-4V45a4 4 0 0 1 4-4h164a4 4 0 0 1 4 4v147z"/><path fill="none" stroke="#E0E0E0" stroke-miterlimit="10" d="M263.5 191.5a4 4 0 0 1-4 4h-164a4 4 0 0 1-4-4v-147a4 4 0 0 1 4-4h164a4 4 0 0 1 4 4v147z"/><path fill="#333" d="M0 225h300v83H0z"/><circle fill="#E18932" cx="275.833" cy="13.167" r="12.667"/><path fill="#FFF" d="M273.183 15.828c0-.324.168-.492.492-.492h1.354V10.61c0-.288.012-.576.012-.576h-.024s-.107.228-.323.432l-.372.36c-.24.216-.48.216-.695-.024l-.23-.24c-.227-.228-.215-.48.013-.708l1.513-1.45c.19-.168.372-.252.623-.252h.504c.324 0 .492.18.492.503v6.68h1.343c.324 0 .504.168.504.493v.335c0 .336-.18.504-.505.504h-4.21c-.323 0-.49-.168-.49-.504v-.335z"/><circle fill="#E18932" cx="178.833" cy="106.167" r="12.667"/><path fill="#FFF" d="M176.22 108.288l.24-.372c.18-.276.406-.288.683-.108.312.216.852.54 1.535.54.887 0 1.535-.54 1.535-1.27 0-.9-.828-1.32-1.823-1.32h-.18c-.276 0-.433-.096-.552-.348l-.048-.096c-.108-.216-.072-.444.107-.648l1.308-1.547c.323-.397.61-.65.61-.65v-.023s-.263.036-.755.036h-2.05c-.324 0-.492-.168-.492-.492v-.335c0-.324.168-.503.49-.503h4.2c.335 0 .503.167.503.492v.132c0 .252-.06.432-.228.612l-1.858 2.146c1.187.168 2.326 1.007 2.326 2.483 0 1.45-1.09 2.794-2.998 2.794a4.12 4.12 0 0 1-2.46-.827c-.25-.19-.273-.443-.093-.695z"/><circle fill="#E18932" cx="268.833" cy="268.167" r="12.667"/><path fill="#FFF" d="M266.22 270.288l.24-.372c.18-.276.406-.288.683-.108.312.216.852.54 1.535.54.887 0 1.535-.54 1.535-1.27 0-.9-.828-1.32-1.823-1.32h-.18c-.276 0-.433-.096-.552-.348l-.048-.096c-.108-.216-.072-.444.107-.648l1.308-1.547c.323-.397.61-.65.61-.65v-.023s-.263.036-.755.036h-2.05c-.324 0-.492-.168-.492-.492v-.335c0-.324.168-.503.49-.503h4.2c.335 0 .503.167.503.492v.132c0 .252-.06.432-.228.612l-1.858 2.146c1.187.168 2.326 1.007 2.326 2.483 0 1.45-1.09 2.794-2.998 2.794a4.12 4.12 0 0 1-2.46-.827c-.25-.19-.273-.443-.093-.695z"/><path fill="none" stroke="#E0E0E0" stroke-miterlimit="10" d="M31 52.5h50M31 64.5h50M31 75.5h50"/><circle fill="#E18932" cx="37.833" cy="89.167" r="12.667"/><g><path fill="#FFF" d="M35.183 91.912c0-3.07 3.98-3.562 3.98-5.253 0-.745-.574-1.19-1.294-1.19-.612 0-1.044.373-1.26.637-.23.228-.468.312-.708.108l-.324-.25c-.252-.193-.312-.42-.132-.673.372-.492 1.164-1.283 2.555-1.283 1.488 0 2.772.91 2.772 2.518 0 2.734-3.813 3.202-3.886 4.81H40.4c.336 0 .504.167.504.492v.335c0 .336-.168.504-.504.504h-4.677c-.312 0-.54-.17-.54-.505v-.253z"/></g></svg>