<svg xmlns="http://www.w3.org/2000/svg" width="387.542" height="216.167" viewBox="0 0 387.542 216.167"><path fill="#F38F2F" d="M64.167-11.167h-65l-3 3h-8l-3-3h-10c-1.65 0-3 1.537-3 3.188v16c0 1.65 1.35 2.813 3 2.813h10l3 3h8l3-3h65c1.65 0 3-1.163 3-2.813v-16c0-1.65-1.35-3.187-3-3.187M355.167-11.167h-65l-3 3h-8l-3-3h-10c-1.65 0-3 1.537-3 3.188v16c0 1.65 1.35 2.813 3 2.813h10l3 3h8l3-3h65c1.65 0 3-1.163 3-2.813v-16c0-1.65-1.35-3.187-3-3.187M64.167 36.833h-65l-3 3h-8l-3-3h-10c-1.65 0-3 1.537-3 3.188v16c0 1.65 1.35 2.813 3 2.813h10l3 3h8l3-3h65c1.65 0 3-1.163 3-2.813v-16c0-1.65-1.35-3.187-3-3.187M258.167-11.167h-65l-3 3h-8l-3-3h-10c-1.65 0-3 1.537-3 3.188v16c0 1.65 1.35 2.813 3 2.813h30l3 3h8l3-3h45c1.65 0 3-1.163 3-2.813v-16c0-1.65-1.35-3.187-3-3.187M275.167 36.833h-62l-3 3h-8l-3-3h-30c-1.65 0-3 1.537-3 3.188v16c0 1.65 1.35 2.813 3 2.813h30l3 3h8l3-3h62c1.65 0 3-1.163 3-2.813v-16c0-1.65-1.35-3.187-3-3.187M355.167 36.833h-45l-3 3h-8l-3-3h-13c-1.65 0-3 1.537-3 3.188v16c0 1.65 1.35 2.813 3 2.813h13l3 3h8l3-3h45c1.65 0 3-1.163 3-2.813v-16c0-1.65-1.35-3.187-3-3.187M161.167-11.167h-65l-3 3h-8l-3-3h-10c-1.65 0-3 1.537-3 3.188v16c0 1.65 1.35 2.813 3 2.813h10l3 3h8l3-3h65c1.65 0 3-1.163 3-2.813v-16c0-1.65-1.35-3.187-3-3.187M161.167 36.833h-65l-3 3h-8l-3-3h-10c-1.65 0-3 1.537-3 3.188v16c0 1.65 1.35 2.813 3 2.813h10l3 3h8l3-3h65c1.65 0 3-1.163 3-2.813v-16c0-1.65-1.35-3.187-3-3.187"/><path fill="#F38F2F" d="M44.167 12.833h-45l-3 3h-8l-3-3h-10c-1.65 0-3 1.537-3 3.188v16c0 1.65 1.35 2.813 3 2.813h10l3 3h8l3-3h45c1.65 0 3-1.163 3-2.813v-16c0-1.65-1.35-3.187-3-3.187M258.167 12.833h-45l-3 3h-8l-3-3h-10c-1.65 0-3 1.537-3 3.188v16c0 1.65 1.35 2.813 3 2.813h10l3 3h8l3-3h45c1.65 0 3-1.163 3-2.813v-16c0-1.65-1.35-3.187-3-3.187M335.167 12.833h-45l-3 3h-8l-3-3h-10c-1.65 0-3 1.537-3 3.188v16c0 1.65 1.35 2.813 3 2.813h30l3 3h8l3-3h25c1.65 0 3-1.163 3-2.813v-16c0-1.65-1.35-3.187-3-3.187M181.167 12.833h-85l-3 3h-8l-3-3h-30c-1.65 0-3 1.537-3 3.188v16c0 1.65 1.35 2.813 3 2.813h30l3 3h8l3-3h85c1.65 0 3-1.163 3-2.813v-16c0-1.65-1.35-3.187-3-3.187M44.167 60.833h-45l-3 3h-8l-3-3h-10c-1.65 0-3 1.537-3 3.188v16c0 1.65 1.35 2.813 3 2.813h10l3 3h8l3-3h45c1.65 0 3-1.163 3-2.813v-16c0-1.65-1.35-3.187-3-3.187M452.167-11.167h-65l-3 3h-8l-3-3h-10c-1.65 0-3 1.537-3 3.188v16c0 1.65 1.35 2.813 3 2.813h10l3 3h8l3-3h65c1.65 0 3-1.163 3-2.813v-16c0-1.65-1.35-3.187-3-3.187M452.167 36.833h-65l-3 3h-8l-3-3h-10c-1.65 0-3 1.537-3 3.188v16c0 1.65 1.35 2.813 3 2.813h10l3 3h8l3-3h65c1.65 0 3-1.163 3-2.813v-16c0-1.65-1.35-3.187-3-3.187"/><path fill="#F38F2F" d="M64.167 84.833h-65l-3 3h-8l-3-3h-10c-1.65 0-3 1.537-3 3.188v16c0 1.65 1.35 2.813 3 2.813h10l3 3h8l3-3h65c1.65 0 3-1.163 3-2.813v-16c0-1.65-1.35-3.187-3-3.187M275.167 84.833h-62l-3 3h-8l-3-3h-30c-1.65 0-3 1.537-3 3.188v16c0 1.65 1.35 2.813 3 2.813h30l3 3h8l3-3h62c1.65 0 3-1.163 3-2.813v-16c0-1.65-1.35-3.187-3-3.187M355.167 84.833h-45l-3 3h-8l-3-3h-13c-1.65 0-3 1.537-3 3.188v16c0 1.65 1.35 2.813 3 2.813h13l3 3h8l3-3h45c1.65 0 3-1.163 3-2.813v-16c0-1.65-1.35-3.187-3-3.187M161.167 84.833h-65l-3 3h-8l-3-3h-10c-1.65 0-3 1.537-3 3.188v16c0 1.65 1.35 2.813 3 2.813h10l3 3h8l3-3h65c1.65 0 3-1.163 3-2.813v-16c0-1.65-1.35-3.187-3-3.187M452.167 84.833h-65l-3 3h-8l-3-3h-10c-1.65 0-3 1.537-3 3.188v16c0 1.65 1.35 2.813 3 2.813h10l3 3h8l3-3h65c1.65 0 3-1.163 3-2.813v-16c0-1.65-1.35-3.187-3-3.187M64.167 132.833h-45l-3 3h-8l-3-3h-30c-1.65 0-3 1.537-3 3.188v16c0 1.65 1.35 2.812 3 2.812h10l3 3h8l3-3h65c1.65 0 3-1.163 3-2.813v-16c0-1.65-1.35-3.187-3-3.187M275.167 132.833h-42l-3 3h-8l-3-3h-50c-1.65 0-3 1.537-3 3.188v16c0 1.65 1.35 2.812 3 2.812h30l3 3h8l3-3h62c1.65 0 3-1.163 3-2.813v-16c0-1.65-1.35-3.187-3-3.187M355.167 132.833h-50l-3 3h-8l-3-3h-8c-1.65 0-3 1.537-3 3.188v16c0 1.65 1.35 2.812 3 2.812h13l3 3h8l3-3h45c1.65 0 3-1.163 3-2.813v-16c0-1.65-1.35-3.187-3-3.187M161.167 132.833h-45l-3 3h-8l-3-3h-30c-1.65 0-3 1.537-3 3.188v16c0 1.65 1.35 2.812 3 2.812h10l3 3h8l3-3h65c1.65 0 3-1.163 3-2.813v-16c0-1.65-1.35-3.187-3-3.187M452.167 132.833h-45l-3 3h-8l-3-3h-30c-1.65 0-3 1.537-3 3.188v16c0 1.65 1.35 2.812 3 2.812h10l3 3h8l3-3h65c1.65 0 3-1.163 3-2.813v-16c0-1.65-1.35-3.187-3-3.187M64.167 180.833h-59l-3 3h-8l-3-3h-16c-1.65 0-3 1.537-3 3.188v16c0 1.65 1.35 2.812 3 2.812h10l3 3h8l3-3h65c1.65 0 3-1.163 3-2.813v-16c0-1.65-1.35-3.187-3-3.187M275.167 180.833h-56l-3 3h-8l-3-3h-36c-1.65 0-3 1.537-3 3.188v16c0 1.65 1.35 2.812 3 2.812h30l3 3h8l3-3h62c1.65 0 3-1.163 3-2.813v-16c0-1.65-1.35-3.187-3-3.187M355.167 180.833h-50l-3 3h-8l-3-3h-8c-1.65 0-3 1.537-3 3.188v16c0 1.65 1.35 2.812 3 2.812h13l3 3h8l3-3h45c1.65 0 3-1.163 3-2.813v-16c0-1.65-1.35-3.187-3-3.187M161.167 180.833h-59l-3 3h-8l-3-3h-16c-1.65 0-3 1.537-3 3.188v16c0 1.65 1.35 2.812 3 2.812h10l3 3h8l3-3h65c1.65 0 3-1.163 3-2.813v-16c0-1.65-1.35-3.187-3-3.187M452.167 180.833h-59l-3 3h-8l-3-3h-16c-1.65 0-3 1.537-3 3.188v16c0 1.65 1.35 2.812 3 2.812h10l3 3h8l3-3h65c1.65 0 3-1.163 3-2.813v-16c0-1.65-1.35-3.187-3-3.187M432.167 12.833h-45l-3 3h-8l-3-3h-30c-1.65 0-3 1.537-3 3.188v16c0 1.65 1.35 2.813 3 2.813h30l3 3h8l3-3h45c1.65 0 3-1.163 3-2.813v-16c0-1.65-1.35-3.187-3-3.187"/><path fill="#F38F2F" d="M432.167 60.833h-45l-3 3h-8l-3-3h-30c-1.65 0-3 1.537-3 3.188v16c0 1.65 1.35 2.813 3 2.813h30l3 3h8l3-3h45c1.65 0 3-1.163 3-2.813v-16c0-1.65-1.35-3.187-3-3.187M258.167 60.833h-45l-3 3h-8l-3-3h-10c-1.65 0-3 1.537-3 3.188v16c0 1.65 1.35 2.813 3 2.813h10l3 3h8l3-3h45c1.65 0 3-1.163 3-2.813v-16c0-1.65-1.35-3.187-3-3.187M335.167 60.833h-25l-3 3h-8l-3-3h-30c-1.65 0-3 1.537-3 3.188v16c0 1.65 1.35 2.813 3 2.813h30l3 3h8l3-3h25c1.65 0 3-1.163 3-2.813v-16c0-1.65-1.35-3.187-3-3.187M181.167 60.833h-85l-3 3h-8l-3-3h-30c-1.65 0-3 1.537-3 3.188v16c0 1.65 1.35 2.813 3 2.813h30l3 3h8l3-3h85c1.65 0 3-1.163 3-2.813v-16c0-1.65-1.35-3.187-3-3.187M44.167 204.833h-45l-3 3h-8l-3-3h-10c-1.65 0-3 1.537-3 3.188v16c0 1.65 1.35 2.812 3 2.812h10l3 3h8l3-3h45c1.65 0 3-1.163 3-2.813v-16c0-1.65-1.35-3.187-3-3.187M432.167 204.833h-45l-3 3h-8l-3-3h-30c-1.65 0-3 1.537-3 3.188v16c0 1.65 1.35 2.812 3 2.812h30l3 3h8l3-3h45c1.65 0 3-1.163 3-2.813v-16c0-1.65-1.35-3.187-3-3.187M258.167 204.833h-45l-3 3h-8l-3-3h-10c-1.65 0-3 1.537-3 3.188v16c0 1.65 1.35 2.812 3 2.812h10l3 3h8l3-3h45c1.65 0 3-1.163 3-2.813v-16c0-1.65-1.35-3.187-3-3.187M335.167 204.833h-25l-3 3h-8l-3-3h-30c-1.65 0-3 1.537-3 3.188v16c0 1.65 1.35 2.812 3 2.812h30l3 3h8l3-3h25c1.65 0 3-1.163 3-2.813v-16c0-1.65-1.35-3.187-3-3.187M181.167 204.833h-85l-3 3h-8l-3-3h-30c-1.65 0-3 1.537-3 3.188v16c0 1.65 1.35 2.812 3 2.812h30l3 3h8l3-3h85c1.65 0 3-1.163 3-2.813v-16c0-1.65-1.35-3.187-3-3.187M44.167 108.833h-45l-3 3h-8l-3-3h-10c-1.65 0-3 1.537-3 3.188v16c0 1.65 1.35 2.812 3 2.812h30l3 3h8l3-3h25c1.65 0 3-1.163 3-2.813v-16c0-1.65-1.35-3.187-3-3.187M432.167 108.833h-45l-3 3h-8l-3-3h-30c-1.65 0-3 1.537-3 3.188v16c0 1.65 1.35 2.812 3 2.812h50l3 3h8l3-3h25c1.65 0 3-1.163 3-2.813v-16c0-1.65-1.35-3.187-3-3.187M258.167 108.833h-45l-3 3h-8l-3-3h-10c-1.65 0-3 1.537-3 3.188v16c0 1.65 1.35 2.812 3 2.812h30l3 3h8l3-3h25c1.65 0 3-1.163 3-2.813v-16c0-1.65-1.35-3.187-3-3.187M335.167 108.833h-25l-3 3h-8l-3-3h-30c-1.65 0-3 1.537-3 3.188v16c0 1.65 1.35 2.812 3 2.812h25l3 3h8l3-3h30c1.65 0 3-1.163 3-2.813v-16c0-1.65-1.35-3.187-3-3.187M181.167 108.833h-85l-3 3h-8l-3-3h-30c-1.65 0-3 1.537-3 3.188v16c0 1.65 1.35 2.812 3 2.812h50l3 3h8l3-3h65c1.65 0 3-1.163 3-2.813v-16c0-1.65-1.35-3.187-3-3.187M44.167 156.833h-45l-3 3h-8l-3-3h-10c-1.65 0-3 1.537-3 3.188v16c0 1.65 1.35 2.812 3 2.812h16l3 3h8l3-3h39c1.65 0 3-1.163 3-2.813v-16c0-1.65-1.35-3.187-3-3.187M432.167 156.833h-45l-3 3h-8l-3-3h-30c-1.65 0-3 1.537-3 3.188v16c0 1.65 1.35 2.812 3 2.812h36l3 3h8l3-3h39c1.65 0 3-1.163 3-2.813v-16c0-1.65-1.35-3.187-3-3.187M258.167 156.833h-45l-3 3h-8l-3-3h-10c-1.65 0-3 1.537-3 3.188v16c0 1.65 1.35 2.812 3 2.812h16l3 3h8l3-3h39c1.65 0 3-1.163 3-2.813v-16c0-1.65-1.35-3.187-3-3.187M335.167 156.833h-25l-3 3h-8l-3-3h-30c-1.65 0-3 1.537-3 3.188v16c0 1.65 1.35 2.812 3 2.812h25l3 3h8l3-3h30c1.65 0 3-1.163 3-2.813v-16c0-1.65-1.35-3.187-3-3.187M181.167 156.833h-85l-3 3h-8l-3-3h-30c-1.65 0-3 1.537-3 3.188v16c0 1.65 1.35 2.812 3 2.812h36l3 3h8l3-3h79c1.65 0 3-1.163 3-2.813v-16c0-1.65-1.35-3.187-3-3.187"/><path fill="none" d="M-27.833-11.167h483v241h-483z"/></svg>