<svg xmlns="http://www.w3.org/2000/svg" width="1620" height="879.895" viewBox="0 0 1620 879.895"><path fill="none" stroke="#000" stroke-width="3" stroke-miterlimit="10" d="M0-41.542c101.2 0 101.2 40 202.5 40 101.2 0 101.2-40 202.5-40 101.2 0 101.2 40 202.5 40 101.2 0 101.2-40 202.5-40 101.2 0 101.2 40 202.5 40 101.2 0 101.2-40 202.5-40s101.3 40 202.5 40c101.3 0 101.3-40 202.5-40"/><path fill="none" stroke="#00D09C" stroke-width="3" stroke-miterlimit="10" d="M0-1.542c101.2 0 101.2 40 202.5 40 101.2 0 101.2-40 202.5-40 101.2 0 101.2 40 202.5 40 101.2 0 101.2-40 202.5-40 101.2 0 101.2 40 202.5 40 101.2 0 101.2-40 202.5-40s101.3 40 202.5 40c101.3 0 101.3-40 202.5-40M0 38.458c101.2 0 101.2 40 202.5 40 101.2 0 101.2-40 202.5-40 101.2 0 101.2 40 202.5 40 101.2 0 101.2-40 202.5-40 101.2 0 101.2 40 202.5 40 101.2 0 101.2-40 202.5-40s101.3 40 202.5 40c101.3 0 101.3-40 202.5-40M0 78.458c101.2 0 101.2 40 202.5 40 101.2 0 101.2-40 202.5-40 101.2 0 101.2 40 202.5 40 101.2 0 101.2-40 202.5-40 101.2 0 101.2 40 202.5 40 101.2 0 101.2-40 202.5-40s101.3 40 202.5 40c101.3 0 101.3-40 202.5-40M0 118.458c101.2 0 101.2 40 202.5 40 101.2 0 101.2-40 202.5-40 101.2 0 101.2 40 202.5 40 101.2 0 101.2-40 202.5-40 101.2 0 101.2 40 202.5 40 101.2 0 101.2-40 202.5-40s101.3 40 202.5 40c101.3 0 101.3-40 202.5-40M0 158.458c101.2 0 101.2 40 202.5 40 101.2 0 101.2-40 202.5-40 101.2 0 101.2 40 202.5 40 101.2 0 101.2-40 202.5-40 101.2 0 101.2 40 202.5 40 101.2 0 101.2-40 202.5-40s101.3 40 202.5 40c101.3 0 101.3-40 202.5-40M0 198.458c101.2 0 101.2 40 202.5 40 101.2 0 101.2-40 202.5-40 101.2 0 101.2 40 202.5 40 101.2 0 101.2-40 202.5-40 101.2 0 101.2 40 202.5 40 101.2 0 101.2-40 202.5-40s101.3 40 202.5 40c101.3 0 101.3-40 202.5-40"/><path fill="none" stroke="#00D09C" stroke-width="3" stroke-miterlimit="10" d="M0 238.458c101.2 0 101.2 40 202.5 40 101.2 0 101.2-40 202.5-40 101.2 0 101.2 40 202.5 40 101.2 0 101.2-40 202.5-40 101.2 0 101.2 40 202.5 40 101.2 0 101.2-40 202.5-40s101.3 40 202.5 40c101.3 0 101.3-40 202.5-40M0 278.458c101.2 0 101.2 40 202.5 40 101.2 0 101.2-40 202.5-40 101.2 0 101.2 40 202.5 40 101.2 0 101.2-40 202.5-40 101.2 0 101.2 40 202.5 40 101.2 0 101.2-40 202.5-40s101.3 40 202.5 40c101.3 0 101.3-40 202.5-40M0 318.458c101.2 0 101.2 40 202.5 40 101.2 0 101.2-40 202.5-40 101.2 0 101.2 40 202.5 40 101.2 0 101.2-40 202.5-40 101.2 0 101.2 40 202.5 40 101.2 0 101.2-40 202.5-40s101.3 40 202.5 40c101.3 0 101.3-40 202.5-40M0 358.458c101.2 0 101.2 40 202.5 40 101.2 0 101.2-40 202.5-40 101.2 0 101.2 40 202.5 40 101.2 0 101.2-40 202.5-40 101.2 0 101.2 40 202.5 40 101.2 0 101.2-40 202.5-40s101.3 40 202.5 40c101.3 0 101.3-40 202.5-40M0 398.458c101.2 0 101.2 40 202.5 40 101.2 0 101.2-40 202.5-40 101.2 0 101.2 40 202.5 40 101.2 0 101.2-40 202.5-40 101.2 0 101.2 40 202.5 40 101.2 0 101.2-40 202.5-40s101.3 40 202.5 40c101.3 0 101.3-40 202.5-40M0 438.458c101.2 0 101.2 40 202.5 40 101.2 0 101.2-40 202.5-40 101.2 0 101.2 40 202.5 40 101.2 0 101.2-40 202.5-40 101.2 0 101.2 40 202.5 40 101.2 0 101.2-40 202.5-40s101.3 40 202.5 40c101.3 0 101.3-40 202.5-40M0 478.458c101.2 0 101.2 40 202.5 40 101.2 0 101.2-40 202.5-40 101.2 0 101.2 40 202.5 40 101.2 0 101.2-40 202.5-40 101.2 0 101.2 40 202.5 40 101.2 0 101.2-40 202.5-40s101.3 40 202.5 40c101.3 0 101.3-40 202.5-40"/><path fill="none" stroke="#00D09C" stroke-width="3" stroke-miterlimit="10" d="M0 518.458c101.2 0 101.2 40 202.5 40 101.2 0 101.2-40 202.5-40 101.2 0 101.2 40 202.5 40 101.2 0 101.2-40 202.5-40 101.2 0 101.2 40 202.5 40 101.2 0 101.2-40 202.5-40s101.3 40 202.5 40c101.3 0 101.3-40 202.5-40M0 558.458c101.2 0 101.2 40 202.5 40 101.2 0 101.2-40 202.5-40 101.2 0 101.2 40 202.5 40 101.2 0 101.2-40 202.5-40 101.2 0 101.2 40 202.5 40 101.2 0 101.2-40 202.5-40s101.3 40 202.5 40c101.3 0 101.3-40 202.5-40M0 598.458c101.2 0 101.2 40 202.5 40 101.2 0 101.2-40 202.5-40 101.2 0 101.2 40 202.5 40 101.2 0 101.2-40 202.5-40 101.2 0 101.2 40 202.5 40 101.2 0 101.2-40 202.5-40s101.3 40 202.5 40c101.3 0 101.3-40 202.5-40M0 638.458c101.2 0 101.2 40 202.5 40 101.2 0 101.2-40 202.5-40 101.2 0 101.2 40 202.5 40 101.2 0 101.2-40 202.5-40 101.2 0 101.2 40 202.5 40 101.2 0 101.2-40 202.5-40s101.3 40 202.5 40c101.3 0 101.3-40 202.5-40M0 678.458c101.2 0 101.2 40 202.5 40 101.2 0 101.2-40 202.5-40 101.2 0 101.2 40 202.5 40 101.2 0 101.2-40 202.5-40 101.2 0 101.2 40 202.5 40 101.2 0 101.2-40 202.5-40s101.3 40 202.5 40c101.3 0 101.3-40 202.5-40M0 718.458c101.2 0 101.2 40 202.5 40 101.2 0 101.2-40 202.5-40 101.2 0 101.2 40 202.5 40 101.2 0 101.2-40 202.5-40 101.2 0 101.2 40 202.5 40 101.2 0 101.2-40 202.5-40s101.3 40 202.5 40c101.3 0 101.3-40 202.5-40M0 758.458c101.2 0 101.2 40 202.5 40 101.2 0 101.2-40 202.5-40 101.2 0 101.2 40 202.5 40 101.2 0 101.2-40 202.5-40 101.2 0 101.2 40 202.5 40 101.2 0 101.2-40 202.5-40s101.3 40 202.5 40c101.3 0 101.3-40 202.5-40M0 798.458c101.2 0 101.2 40 202.5 40 101.2 0 101.2-40 202.5-40 101.2 0 101.2 40 202.5 40 101.2 0 101.2-40 202.5-40 101.2 0 101.2 40 202.5 40 101.2 0 101.2-40 202.5-40s101.3 40 202.5 40c101.3 0 101.3-40 202.5-40M0 838.458c101.2 0 101.2 40 202.5 40 101.2 0 101.2-40 202.5-40 101.2 0 101.2 40 202.5 40 101.2 0 101.2-40 202.5-40 101.2 0 101.2 40 202.5 40 101.2 0 101.2-40 202.5-40s101.3 40 202.5 40c101.3 0 101.3-40 202.5-40"/><path fill="none" stroke="#000" stroke-width="3" stroke-miterlimit="10" d="M0 878.458c101.2 0 101.2 40 202.5 40 101.2 0 101.2-40 202.5-40 101.2 0 101.2 40 202.5 40 101.2 0 101.2-40 202.5-40 101.2 0 101.2 40 202.5 40 101.2 0 101.2-40 202.5-40s101.3 40 202.5 40c101.3 0 101.3-40 202.5-40M0 918.458c101.2 0 101.2 40 202.5 40 101.2 0 101.2-40 202.5-40 101.2 0 101.2 40 202.5 40 101.2 0 101.2-40 202.5-40 101.2 0 101.2 40 202.5 40 101.2 0 101.2-40 202.5-40s101.3 40 202.5 40c101.3 0 101.3-40 202.5-40M0 958.458c101.2 0 101.2 40 202.5 40 101.2 0 101.2-40 202.5-40 101.2 0 101.2 40 202.5 40 101.2 0 101.2-40 202.5-40 101.2 0 101.2 40 202.5 40 101.2 0 101.2-40 202.5-40s101.3 40 202.5 40c101.3 0 101.3-40 202.5-40M0 998.458c101.2 0 101.2 40 202.5 40 101.2 0 101.2-40 202.5-40 101.2 0 101.2 40 202.5 40 101.2 0 101.2-40 202.5-40 101.2 0 101.2 40 202.5 40 101.2 0 101.2-40 202.5-40s101.3 40 202.5 40c101.3 0 101.3-40 202.5-40M0 1038.458c101.2 0 101.2 40 202.5 40 101.2 0 101.2-40 202.5-40 101.2 0 101.2 40 202.5 40 101.2 0 101.2-40 202.5-40 101.2 0 101.2 40 202.5 40 101.2 0 101.2-40 202.5-40s101.3 40 202.5 40c101.3 0 101.3-40 202.5-40M0 1078.458c101.2 0 101.2 40 202.5 40 101.2 0 101.2-40 202.5-40 101.2 0 101.2 40 202.5 40 101.2 0 101.2-40 202.5-40 101.2 0 101.2 40 202.5 40 101.2 0 101.2-40 202.5-40s101.3 40 202.5 40c101.3 0 101.3-40 202.5-40M0 1118.458c101.2 0 101.2 40 202.5 40 101.2 0 101.2-40 202.5-40 101.2 0 101.2 40 202.5 40 101.2 0 101.2-40 202.5-40 101.2 0 101.2 40 202.5 40 101.2 0 101.2-40 202.5-40s101.3 40 202.5 40c101.3 0 101.3-40 202.5-40M0 1158.458c101.2 0 101.2 40 202.5 40 101.2 0 101.2-40 202.5-40 101.2 0 101.2 40 202.5 40 101.2 0 101.2-40 202.5-40 101.2 0 101.2 40 202.5 40 101.2 0 101.2-40 202.5-40s101.3 40 202.5 40c101.3 0 101.3-40 202.5-40M0 1198.458c101.2 0 101.2 40 202.5 40 101.2 0 101.2-40 202.5-40 101.2 0 101.2 40 202.5 40 101.2 0 101.2-40 202.5-40 101.2 0 101.2 40 202.5 40 101.2 0 101.2-40 202.5-40s101.3 40 202.5 40c101.3 0 101.3-40 202.5-40"/></svg>