<svg xmlns="http://www.w3.org/2000/svg" width="40" height="15" viewBox="0 0 20 20">
  <path fill="#FF5252" d="M19.551 16.878l-4.783-4.783a7.785 7.785 0 0 0 1.137-4.065c0-4.324-3.747-8.072-8.072-8.072S0 3.464 0 7.79c0 4.325 3.747 8.072 8.072 8.072a7.788 7.788 0 0 0 3.942-1.065l4.812 4.809a1.204 1.204 0 0 0 1.704 0l1.191-1.192c.47-.473.3-1.065-.17-1.536zM2.41 7.79a5.421 5.421 0 0 1 5.421-5.422c2.995 0 5.663 2.668 5.663 5.663a5.422 5.422 0 0 1-5.422 5.421c-2.994 0-5.662-2.668-5.662-5.662z"/>
</svg>
