<?xml version="1.0" encoding="utf-8"?>
<!-- Generator: Adobe Illustrator 16.0.0, SVG Export Plug-In . SVG Version: 6.00 Build 0)  -->
<!DOCTYPE svg PUBLIC "-//W3C//DTD SVG 1.1//EN" "http://www.w3.org/Graphics/SVG/1.1/DTD/svg11.dtd">
<svg version="1.1" id="Layer_1" xmlns="http://www.w3.org/2000/svg" xmlns:xlink="http://www.w3.org/1999/xlink" x="0px" y="0px"
	 width="1620px" height="879.895px" viewBox="0 0 1620 879.895" enable-background="new 0 0 1620 879.895" xml:space="preserve">
<path opacity="0.2" fill="none" stroke="#FFFFFF" stroke-width="3" stroke-miterlimit="10" d="M0-41.542c101.2,0,101.2,40,202.5,40
	c101.2,0,101.2-40,202.5-40c101.2,0,101.2,40,202.5,40c101.2,0,101.2-40,202.5-40c101.2,0,101.2,40,202.5,40
	c101.2,0,101.2-40,202.5-40s101.3,40,202.5,40c101.3,0,101.3-40,202.5-40"/>
<path opacity="0.2" fill="none" stroke="#FFFFFF" stroke-width="3" stroke-miterlimit="10" d="M0-1.542c101.2,0,101.2,40,202.5,40
	c101.2,0,101.2-40,202.5-40c101.2,0,101.2,40,202.5,40c101.2,0,101.2-40,202.5-40c101.2,0,101.2,40,202.5,40
	c101.2,0,101.2-40,202.5-40s101.3,40,202.5,40c101.3,0,101.3-40,202.5-40 M0,38.458c101.2,0,101.2,40,202.5,40
	c101.2,0,101.2-40,202.5-40c101.2,0,101.2,40,202.5,40c101.2,0,101.2-40,202.5-40c101.2,0,101.2,40,202.5,40
	c101.2,0,101.2-40,202.5-40s101.3,40,202.5,40c101.3,0,101.3-40,202.5-40 M0,78.458c101.2,0,101.2,40,202.5,40
	c101.2,0,101.2-40,202.5-40c101.2,0,101.2,40,202.5,40c101.2,0,101.2-40,202.5-40c101.2,0,101.2,40,202.5,40
	c101.2,0,101.2-40,202.5-40s101.3,40,202.5,40c101.3,0,101.3-40,202.5-40 M0,118.458c101.2,0,101.2,40,202.5,40
	c101.2,0,101.2-40,202.5-40c101.2,0,101.2,40,202.5,40c101.2,0,101.2-40,202.5-40c101.2,0,101.2,40,202.5,40
	c101.2,0,101.2-40,202.5-40s101.3,40,202.5,40c101.3,0,101.3-40,202.5-40 M0,158.458c101.2,0,101.2,40,202.5,40
	c101.2,0,101.2-40,202.5-40c101.2,0,101.2,40,202.5,40c101.2,0,101.2-40,202.5-40c101.2,0,101.2,40,202.5,40
	c101.2,0,101.2-40,202.5-40s101.3,40,202.5,40c101.3,0,101.3-40,202.5-40 M0,198.458c101.2,0,101.2,40,202.5,40
	c101.2,0,101.2-40,202.5-40c101.2,0,101.2,40,202.5,40c101.2,0,101.2-40,202.5-40c101.2,0,101.2,40,202.5,40
	c101.2,0,101.2-40,202.5-40s101.3,40,202.5,40c101.3,0,101.3-40,202.5-40"/>
<path opacity="0.2" fill="none" stroke="#FFFFFF" stroke-width="3" stroke-miterlimit="10" d="M0,238.458c101.2,0,101.2,40,202.5,40
	c101.2,0,101.2-40,202.5-40c101.2,0,101.2,40,202.5,40c101.2,0,101.2-40,202.5-40c101.2,0,101.2,40,202.5,40
	c101.2,0,101.2-40,202.5-40s101.3,40,202.5,40c101.3,0,101.3-40,202.5-40 M0,278.458c101.2,0,101.2,40,202.5,40
	c101.2,0,101.2-40,202.5-40c101.2,0,101.2,40,202.5,40c101.2,0,101.2-40,202.5-40c101.2,0,101.2,40,202.5,40
	c101.2,0,101.2-40,202.5-40s101.3,40,202.5,40c101.3,0,101.3-40,202.5-40 M0,318.458c101.2,0,101.2,40,202.5,40
	c101.2,0,101.2-40,202.5-40c101.2,0,101.2,40,202.5,40c101.2,0,101.2-40,202.5-40c101.2,0,101.2,40,202.5,40
	c101.2,0,101.2-40,202.5-40s101.3,40,202.5,40c101.3,0,101.3-40,202.5-40 M0,358.458c101.2,0,101.2,40,202.5,40
	c101.2,0,101.2-40,202.5-40c101.2,0,101.2,40,202.5,40c101.2,0,101.2-40,202.5-40c101.2,0,101.2,40,202.5,40
	c101.2,0,101.2-40,202.5-40s101.3,40,202.5,40c101.3,0,101.3-40,202.5-40 M0,398.458c101.2,0,101.2,40,202.5,40
	c101.2,0,101.2-40,202.5-40c101.2,0,101.2,40,202.5,40c101.2,0,101.2-40,202.5-40c101.2,0,101.2,40,202.5,40
	c101.2,0,101.2-40,202.5-40s101.3,40,202.5,40c101.3,0,101.3-40,202.5-40 M0,438.458c101.2,0,101.2,40,202.5,40
	c101.2,0,101.2-40,202.5-40c101.2,0,101.2,40,202.5,40c101.2,0,101.2-40,202.5-40c101.2,0,101.2,40,202.5,40
	c101.2,0,101.2-40,202.5-40s101.3,40,202.5,40c101.3,0,101.3-40,202.5-40 M0,478.458c101.2,0,101.2,40,202.5,40
	c101.2,0,101.2-40,202.5-40c101.2,0,101.2,40,202.5,40c101.2,0,101.2-40,202.5-40c101.2,0,101.2,40,202.5,40
	c101.2,0,101.2-40,202.5-40s101.3,40,202.5,40c101.3,0,101.3-40,202.5-40"/>
<path opacity="0.2" fill="none" stroke="#FFFFFF" stroke-width="3" stroke-miterlimit="10" d="M0,518.458c101.2,0,101.2,40,202.5,40
	c101.2,0,101.2-40,202.5-40c101.2,0,101.2,40,202.5,40c101.2,0,101.2-40,202.5-40c101.2,0,101.2,40,202.5,40
	c101.2,0,101.2-40,202.5-40s101.3,40,202.5,40c101.3,0,101.3-40,202.5-40 M0,558.458c101.2,0,101.2,40,202.5,40
	c101.2,0,101.2-40,202.5-40c101.2,0,101.2,40,202.5,40c101.2,0,101.2-40,202.5-40c101.2,0,101.2,40,202.5,40
	c101.2,0,101.2-40,202.5-40s101.3,40,202.5,40c101.3,0,101.3-40,202.5-40 M0,598.458c101.2,0,101.2,40,202.5,40
	c101.2,0,101.2-40,202.5-40c101.2,0,101.2,40,202.5,40c101.2,0,101.2-40,202.5-40c101.2,0,101.2,40,202.5,40
	c101.2,0,101.2-40,202.5-40s101.3,40,202.5,40c101.3,0,101.3-40,202.5-40 M0,638.458c101.2,0,101.2,40,202.5,40
	c101.2,0,101.2-40,202.5-40c101.2,0,101.2,40,202.5,40c101.2,0,101.2-40,202.5-40c101.2,0,101.2,40,202.5,40
	c101.2,0,101.2-40,202.5-40s101.3,40,202.5,40c101.3,0,101.3-40,202.5-40 M0,678.458c101.2,0,101.2,40,202.5,40
	c101.2,0,101.2-40,202.5-40c101.2,0,101.2,40,202.5,40c101.2,0,101.2-40,202.5-40c101.2,0,101.2,40,202.5,40
	c101.2,0,101.2-40,202.5-40s101.3,40,202.5,40c101.3,0,101.3-40,202.5-40 M0,718.458c101.2,0,101.2,40,202.5,40
	c101.2,0,101.2-40,202.5-40c101.2,0,101.2,40,202.5,40c101.2,0,101.2-40,202.5-40c101.2,0,101.2,40,202.5,40
	c101.2,0,101.2-40,202.5-40s101.3,40,202.5,40c101.3,0,101.3-40,202.5-40 M0,758.458c101.2,0,101.2,40,202.5,40
	c101.2,0,101.2-40,202.5-40c101.2,0,101.2,40,202.5,40c101.2,0,101.2-40,202.5-40c101.2,0,101.2,40,202.5,40
	c101.2,0,101.2-40,202.5-40s101.3,40,202.5,40c101.3,0,101.3-40,202.5-40 M0,798.458c101.2,0,101.2,40,202.5,40
	c101.2,0,101.2-40,202.5-40c101.2,0,101.2,40,202.5,40c101.2,0,101.2-40,202.5-40c101.2,0,101.2,40,202.5,40
	c101.2,0,101.2-40,202.5-40s101.3,40,202.5,40c101.3,0,101.3-40,202.5-40 M0,838.458c101.2,0,101.2,40,202.5,40
	c101.2,0,101.2-40,202.5-40c101.2,0,101.2,40,202.5,40c101.2,0,101.2-40,202.5-40c101.2,0,101.2,40,202.5,40
	c101.2,0,101.2-40,202.5-40s101.3,40,202.5,40c101.3,0,101.3-40,202.5-40"/>
<path opacity="0.2" fill="none" stroke="#FFFFFF" stroke-width="3" stroke-miterlimit="10" d="M0,878.458c101.2,0,101.2,40,202.5,40
	c101.2,0,101.2-40,202.5-40c101.2,0,101.2,40,202.5,40c101.2,0,101.2-40,202.5-40c101.2,0,101.2,40,202.5,40
	c101.2,0,101.2-40,202.5-40s101.3,40,202.5,40c101.3,0,101.3-40,202.5-40 M0,918.458c101.2,0,101.2,40,202.5,40
	c101.2,0,101.2-40,202.5-40c101.2,0,101.2,40,202.5,40c101.2,0,101.2-40,202.5-40c101.2,0,101.2,40,202.5,40
	c101.2,0,101.2-40,202.5-40s101.3,40,202.5,40c101.3,0,101.3-40,202.5-40 M0,958.458c101.2,0,101.2,40,202.5,40
	c101.2,0,101.2-40,202.5-40c101.2,0,101.2,40,202.5,40c101.2,0,101.2-40,202.5-40c101.2,0,101.2,40,202.5,40
	c101.2,0,101.2-40,202.5-40s101.3,40,202.5,40c101.3,0,101.3-40,202.5-40 M0,998.458c101.2,0,101.2,40,202.5,40
	c101.2,0,101.2-40,202.5-40c101.2,0,101.2,40,202.5,40c101.2,0,101.2-40,202.5-40c101.2,0,101.2,40,202.5,40
	c101.2,0,101.2-40,202.5-40s101.3,40,202.5,40c101.3,0,101.3-40,202.5-40 M0,1038.458c101.2,0,101.2,40,202.5,40
	c101.2,0,101.2-40,202.5-40c101.2,0,101.2,40,202.5,40c101.2,0,101.2-40,202.5-40c101.2,0,101.2,40,202.5,40
	c101.2,0,101.2-40,202.5-40s101.3,40,202.5,40c101.3,0,101.3-40,202.5-40 M0,1078.458c101.2,0,101.2,40,202.5,40
	c101.2,0,101.2-40,202.5-40c101.2,0,101.2,40,202.5,40c101.2,0,101.2-40,202.5-40c101.2,0,101.2,40,202.5,40
	c101.2,0,101.2-40,202.5-40s101.3,40,202.5,40c101.3,0,101.3-40,202.5-40 M0,1118.458c101.2,0,101.2,40,202.5,40
	c101.2,0,101.2-40,202.5-40c101.2,0,101.2,40,202.5,40c101.2,0,101.2-40,202.5-40c101.2,0,101.2,40,202.5,40
	c101.2,0,101.2-40,202.5-40s101.3,40,202.5,40c101.3,0,101.3-40,202.5-40 M0,1158.458c101.2,0,101.2,40,202.5,40
	c101.2,0,101.2-40,202.5-40c101.2,0,101.2,40,202.5,40c101.2,0,101.2-40,202.5-40c101.2,0,101.2,40,202.5,40
	c101.2,0,101.2-40,202.5-40s101.3,40,202.5,40c101.3,0,101.3-40,202.5-40 M0,1198.458c101.2,0,101.2,40,202.5,40
	c101.2,0,101.2-40,202.5-40c101.2,0,101.2,40,202.5,40c101.2,0,101.2-40,202.5-40c101.2,0,101.2,40,202.5,40
	c101.2,0,101.2-40,202.5-40s101.3,40,202.5,40c101.3,0,101.3-40,202.5-40"/>
</svg>
