<svg xmlns="http://www.w3.org/2000/svg" width="1620" height="879.895" viewBox="0 0 1620 879.895"><path opacity=".2" fill="none" stroke="#FFF" stroke-width="3" stroke-miterlimit="10" d="M0-41.542c101.2 0 101.2 40 202.5 40 101.2 0 101.2-40 202.5-40 101.2 0 101.2 40 202.5 40 101.2 0 101.2-40 202.5-40 101.2 0 101.2 40 202.5 40 101.2 0 101.2-40 202.5-40s101.3 40 202.5 40c101.3 0 101.3-40 202.5-40M0-1.542c101.2 0 101.2 40 202.5 40 101.2 0 101.2-40 202.5-40 101.2 0 101.2 40 202.5 40 101.2 0 101.2-40 202.5-40 101.2 0 101.2 40 202.5 40 101.2 0 101.2-40 202.5-40s101.3 40 202.5 40c101.3 0 101.3-40 202.5-40m-1620 40c101.2 0 101.2 40 202.5 40 101.2 0 101.2-40 202.5-40 101.2 0 101.2 40 202.5 40 101.2 0 101.2-40 202.5-40 101.2 0 101.2 40 202.5 40 101.2 0 101.2-40 202.5-40s101.3 40 202.5 40c101.3 0 101.3-40 202.5-40m-1620 40c101.2 0 101.2 40 202.5 40 101.2 0 101.2-40 202.5-40 101.2 0 101.2 40 202.5 40 101.2 0 101.2-40 202.5-40 101.2 0 101.2 40 202.5 40 101.2 0 101.2-40 202.5-40s101.3 40 202.5 40c101.3 0 101.3-40 202.5-40m-1620 40c101.2 0 101.2 40 202.5 40 101.2 0 101.2-40 202.5-40 101.2 0 101.2 40 202.5 40 101.2 0 101.2-40 202.5-40 101.2 0 101.2 40 202.5 40 101.2 0 101.2-40 202.5-40s101.3 40 202.5 40c101.3 0 101.3-40 202.5-40m-1620 40c101.2 0 101.2 40 202.5 40 101.2 0 101.2-40 202.5-40 101.2 0 101.2 40 202.5 40 101.2 0 101.2-40 202.5-40 101.2 0 101.2 40 202.5 40 101.2 0 101.2-40 202.5-40s101.3 40 202.5 40c101.3 0 101.3-40 202.5-40m-1620 40c101.2 0 101.2 40 202.5 40 101.2 0 101.2-40 202.5-40 101.2 0 101.2 40 202.5 40 101.2 0 101.2-40 202.5-40 101.2 0 101.2 40 202.5 40 101.2 0 101.2-40 202.5-40s101.3 40 202.5 40c101.3 0 101.3-40 202.5-40"/><path opacity=".2" fill="none" stroke="#FFF" stroke-width="3" stroke-miterlimit="10" d="M0 238.458c101.2 0 101.2 40 202.5 40 101.2 0 101.2-40 202.5-40 101.2 0 101.2 40 202.5 40 101.2 0 101.2-40 202.5-40 101.2 0 101.2 40 202.5 40 101.2 0 101.2-40 202.5-40s101.3 40 202.5 40c101.3 0 101.3-40 202.5-40m-1620 40c101.2 0 101.2 40 202.5 40 101.2 0 101.2-40 202.5-40 101.2 0 101.2 40 202.5 40 101.2 0 101.2-40 202.5-40 101.2 0 101.2 40 202.5 40 101.2 0 101.2-40 202.5-40s101.3 40 202.5 40c101.3 0 101.3-40 202.5-40m-1620 40c101.2 0 101.2 40 202.5 40 101.2 0 101.2-40 202.5-40 101.2 0 101.2 40 202.5 40 101.2 0 101.2-40 202.5-40 101.2 0 101.2 40 202.5 40 101.2 0 101.2-40 202.5-40s101.3 40 202.5 40c101.3 0 101.3-40 202.5-40m-1620 40c101.2 0 101.2 40 202.5 40 101.2 0 101.2-40 202.5-40 101.2 0 101.2 40 202.5 40 101.2 0 101.2-40 202.5-40 101.2 0 101.2 40 202.5 40 101.2 0 101.2-40 202.5-40s101.3 40 202.5 40c101.3 0 101.3-40 202.5-40m-1620 40c101.2 0 101.2 40 202.5 40 101.2 0 101.2-40 202.5-40 101.2 0 101.2 40 202.5 40 101.2 0 101.2-40 202.5-40 101.2 0 101.2 40 202.5 40 101.2 0 101.2-40 202.5-40s101.3 40 202.5 40c101.3 0 101.3-40 202.5-40m-1620 40c101.2 0 101.2 40 202.5 40 101.2 0 101.2-40 202.5-40 101.2 0 101.2 40 202.5 40 101.2 0 101.2-40 202.5-40 101.2 0 101.2 40 202.5 40 101.2 0 101.2-40 202.5-40s101.3 40 202.5 40c101.3 0 101.3-40 202.5-40m-1620 40c101.2 0 101.2 40 202.5 40 101.2 0 101.2-40 202.5-40 101.2 0 101.2 40 202.5 40 101.2 0 101.2-40 202.5-40 101.2 0 101.2 40 202.5 40 101.2 0 101.2-40 202.5-40s101.3 40 202.5 40c101.3 0 101.3-40 202.5-40M0 518.458c101.2 0 101.2 40 202.5 40 101.2 0 101.2-40 202.5-40 101.2 0 101.2 40 202.5 40 101.2 0 101.2-40 202.5-40 101.2 0 101.2 40 202.5 40 101.2 0 101.2-40 202.5-40s101.3 40 202.5 40c101.3 0 101.3-40 202.5-40m-1620 40c101.2 0 101.2 40 202.5 40 101.2 0 101.2-40 202.5-40 101.2 0 101.2 40 202.5 40 101.2 0 101.2-40 202.5-40 101.2 0 101.2 40 202.5 40 101.2 0 101.2-40 202.5-40s101.3 40 202.5 40c101.3 0 101.3-40 202.5-40m-1620 40c101.2 0 101.2 40 202.5 40 101.2 0 101.2-40 202.5-40 101.2 0 101.2 40 202.5 40 101.2 0 101.2-40 202.5-40 101.2 0 101.2 40 202.5 40 101.2 0 101.2-40 202.5-40s101.3 40 202.5 40c101.3 0 101.3-40 202.5-40m-1620 40c101.2 0 101.2 40 202.5 40 101.2 0 101.2-40 202.5-40 101.2 0 101.2 40 202.5 40 101.2 0 101.2-40 202.5-40 101.2 0 101.2 40 202.5 40 101.2 0 101.2-40 202.5-40s101.3 40 202.5 40c101.3 0 101.3-40 202.5-40m-1620 40c101.2 0 101.2 40 202.5 40 101.2 0 101.2-40 202.5-40 101.2 0 101.2 40 202.5 40 101.2 0 101.2-40 202.5-40 101.2 0 101.2 40 202.5 40 101.2 0 101.2-40 202.5-40s101.3 40 202.5 40c101.3 0 101.3-40 202.5-40m-1620 40c101.2 0 101.2 40 202.5 40 101.2 0 101.2-40 202.5-40 101.2 0 101.2 40 202.5 40 101.2 0 101.2-40 202.5-40 101.2 0 101.2 40 202.5 40 101.2 0 101.2-40 202.5-40s101.3 40 202.5 40c101.3 0 101.3-40 202.5-40m-1620 40c101.2 0 101.2 40 202.5 40 101.2 0 101.2-40 202.5-40 101.2 0 101.2 40 202.5 40 101.2 0 101.2-40 202.5-40 101.2 0 101.2 40 202.5 40 101.2 0 101.2-40 202.5-40s101.3 40 202.5 40c101.3 0 101.3-40 202.5-40m-1620 40c101.2 0 101.2 40 202.5 40 101.2 0 101.2-40 202.5-40 101.2 0 101.2 40 202.5 40 101.2 0 101.2-40 202.5-40 101.2 0 101.2 40 202.5 40 101.2 0 101.2-40 202.5-40s101.3 40 202.5 40c101.3 0 101.3-40 202.5-40m-1620 40c101.2 0 101.2 40 202.5 40 101.2 0 101.2-40 202.5-40 101.2 0 101.2 40 202.5 40 101.2 0 101.2-40 202.5-40 101.2 0 101.2 40 202.5 40 101.2 0 101.2-40 202.5-40s101.3 40 202.5 40c101.3 0 101.3-40 202.5-40M0 878.458c101.2 0 101.2 40 202.5 40 101.2 0 101.2-40 202.5-40 101.2 0 101.2 40 202.5 40 101.2 0 101.2-40 202.5-40 101.2 0 101.2 40 202.5 40 101.2 0 101.2-40 202.5-40s101.3 40 202.5 40c101.3 0 101.3-40 202.5-40m-1620 40c101.2 0 101.2 40 202.5 40 101.2 0 101.2-40 202.5-40 101.2 0 101.2 40 202.5 40 101.2 0 101.2-40 202.5-40 101.2 0 101.2 40 202.5 40 101.2 0 101.2-40 202.5-40s101.3 40 202.5 40c101.3 0 101.3-40 202.5-40m-1620 40c101.2 0 101.2 40 202.5 40 101.2 0 101.2-40 202.5-40 101.2 0 101.2 40 202.5 40 101.2 0 101.2-40 202.5-40 101.2 0 101.2 40 202.5 40 101.2 0 101.2-40 202.5-40s101.3 40 202.5 40c101.3 0 101.3-40 202.5-40m-1620 40c101.2 0 101.2 40 202.5 40 101.2 0 101.2-40 202.5-40 101.2 0 101.2 40 202.5 40 101.2 0 101.2-40 202.5-40 101.2 0 101.2 40 202.5 40 101.2 0 101.2-40 202.5-40s101.3 40 202.5 40c101.3 0 101.3-40 202.5-40m-1620 40c101.2 0 101.2 40 202.5 40 101.2 0 101.2-40 202.5-40 101.2 0 101.2 40 202.5 40 101.2 0 101.2-40 202.5-40 101.2 0 101.2 40 202.5 40 101.2 0 101.2-40 202.5-40s101.3 40 202.5 40c101.3 0 101.3-40 202.5-40m-1620 40c101.2 0 101.2 40 202.5 40 101.2 0 101.2-40 202.5-40 101.2 0 101.2 40 202.5 40 101.2 0 101.2-40 202.5-40 101.2 0 101.2 40 202.5 40 101.2 0 101.2-40 202.5-40s101.3 40 202.5 40c101.3 0 101.3-40 202.5-40m-1620 40c101.2 0 101.2 40 202.5 40 101.2 0 101.2-40 202.5-40 101.2 0 101.2 40 202.5 40 101.2 0 101.2-40 202.5-40 101.2 0 101.2 40 202.5 40 101.2 0 101.2-40 202.5-40s101.3 40 202.5 40c101.3 0 101.3-40 202.5-40m-1620 40c101.2 0 101.2 40 202.5 40 101.2 0 101.2-40 202.5-40 101.2 0 101.2 40 202.5 40 101.2 0 101.2-40 202.5-40 101.2 0 101.2 40 202.5 40 101.2 0 101.2-40 202.5-40s101.3 40 202.5 40c101.3 0 101.3-40 202.5-40m-1620 40c101.2 0 101.2 40 202.5 40 101.2 0 101.2-40 202.5-40 101.2 0 101.2 40 202.5 40 101.2 0 101.2-40 202.5-40 101.2 0 101.2 40 202.5 40 101.2 0 101.2-40 202.5-40s101.3 40 202.5 40c101.3 0 101.3-40 202.5-40"/></svg>