<svg xmlns="http://www.w3.org/2000/svg" xmlns:xlink="http://www.w3.org/1999/xlink" width="500" height="250" viewBox="0 0 500 250"><path fill="#49BB92" d="M508 328a9 9 0 0 1-9 9H0a9 9 0 0 1-9-9v-429a9 9 0 0 1 9-9h499a9 9 0 0 1 9 9v429z"/><g opacity=".15"><defs><path id="a" d="M509 328c0 4.95-4.05 9-9 9H1c-4.95 0-9-4.05-9-9v-429c0-4.95 4.05-9 9-9h499c4.95 0 9 4.05 9 9v429z"/></defs><defs><path id="b" d="M509 328c0 4.95-4.05 9-9 9H1c-4.95 0-9-4.05-9-9v-429c0-4.95 4.05-9 9-9h499c4.95 0 9 4.05 9 9v429z"/></defs><clipPath id="c"><use xlink:href="#b" overflow="visible"/></clipPath><g clip-path="url(#c)"><path fill="none" stroke="#FFF" stroke-miterlimit="10" d="M-216.134-124.956c59.57 0 59.57 23.546 119.203 23.546 59.572 0 59.572-23.546 119.203-23.546 59.572 0 59.572 23.546 119.204 23.546 59.573 0 59.573-23.546 119.204-23.546 59.574 0 59.574 23.546 119.205 23.546 59.572 0 59.572-23.546 119.204-23.546 59.63 0 59.63 23.546 119.204 23.546 59.63 0 59.63-23.546 119.2-23.546M-216.134-101.41c59.57 0 59.57 23.547 119.203 23.547 59.572 0 59.572-23.546 119.203-23.546 59.572 0 59.572 23.547 119.204 23.547 59.573 0 59.573-23.546 119.204-23.546 59.574 0 59.574 23.547 119.205 23.547 59.572 0 59.572-23.546 119.204-23.546 59.63 0 59.63 23.547 119.204 23.547 59.63 0 59.63-23.546 119.2-23.546"/><path fill="none" stroke="#FFF" stroke-miterlimit="10" d="M-216.134-77.863c59.57 0 59.57 23.546 119.203 23.546 59.572 0 59.572-23.546 119.203-23.546 59.572 0 59.572 23.546 119.204 23.546 59.573 0 59.573-23.546 119.204-23.546 59.574 0 59.574 23.546 119.205 23.546 59.572 0 59.572-23.546 119.204-23.546 59.63 0 59.63 23.546 119.204 23.546 59.63 0 59.63-23.546 119.2-23.546M-216.134-54.316c59.57 0 59.57 23.546 119.203 23.546 59.572 0 59.572-23.546 119.203-23.546 59.572 0 59.572 23.546 119.204 23.546 59.573 0 59.573-23.546 119.204-23.546 59.574 0 59.574 23.546 119.205 23.546 59.572 0 59.572-23.546 119.204-23.546 59.63 0 59.63 23.546 119.204 23.546 59.63 0 59.63-23.546 119.2-23.546M-216.134-30.77c59.57 0 59.57 23.546 119.203 23.546 59.572 0 59.572-23.546 119.203-23.546 59.572 0 59.572 23.546 119.204 23.546 59.573 0 59.573-23.546 119.204-23.546 59.574 0 59.574 23.546 119.205 23.546 59.572 0 59.572-23.546 119.204-23.546 59.63 0 59.63 23.546 119.204 23.546 59.63 0 59.63-23.546 119.2-23.546M-216.134-7.224c59.57 0 59.57 23.548 119.203 23.548 59.572 0 59.572-23.548 119.203-23.548 59.572 0 59.572 23.548 119.204 23.548 59.573 0 59.573-23.548 119.204-23.548 59.574 0 59.574 23.548 119.205 23.548 59.572 0 59.572-23.548 119.204-23.548 59.63 0 59.63 23.548 119.204 23.548 59.63 0 59.63-23.548 119.2-23.548M-216.134 16.324c59.57 0 59.57 23.544 119.203 23.544 59.572 0 59.572-23.544 119.203-23.544 59.572 0 59.572 23.544 119.204 23.544 59.573 0 59.573-23.544 119.204-23.544 59.574 0 59.574 23.544 119.205 23.544 59.572 0 59.572-23.544 119.204-23.544 59.63 0 59.63 23.544 119.204 23.544 59.63 0 59.63-23.544 119.2-23.544"/><path fill="none" stroke="#FFF" stroke-miterlimit="10" d="M-216.134 39.87c59.57 0 59.57 23.547 119.203 23.547 59.572 0 59.572-23.548 119.203-23.548 59.572 0 59.572 23.547 119.204 23.547 59.573 0 59.573-23.548 119.204-23.548 59.574 0 59.574 23.547 119.205 23.547 59.572 0 59.572-23.548 119.204-23.548 59.63 0 59.63 23.547 119.204 23.547 59.63 0 59.63-23.548 119.2-23.548M-216.134 63.417c59.57 0 59.57 23.545 119.203 23.545 59.572 0 59.572-23.545 119.203-23.545 59.572 0 59.572 23.545 119.204 23.545 59.573 0 59.573-23.545 119.204-23.545 59.574 0 59.574 23.545 119.205 23.545 59.572 0 59.572-23.545 119.204-23.545 59.63 0 59.63 23.545 119.204 23.545 59.63 0 59.63-23.545 119.2-23.545"/><path fill="none" stroke="#FFF" stroke-miterlimit="10" d="M-216.134 86.96c59.57 0 59.57 23.55 119.203 23.55 59.572 0 59.572-23.55 119.203-23.55 59.572 0 59.572 23.55 119.204 23.55 59.573 0 59.573-23.55 119.204-23.55 59.574 0 59.574 23.55 119.205 23.55 59.572 0 59.572-23.55 119.204-23.55 59.63 0 59.63 23.55 119.204 23.55 59.63 0 59.63-23.55 119.2-23.55"/><path fill="none" stroke="#FFF" stroke-miterlimit="10" d="M-216.134 110.51c59.57 0 59.57 23.545 119.203 23.545 59.572 0 59.572-23.546 119.203-23.546 59.572 0 59.572 23.545 119.204 23.545 59.573 0 59.573-23.546 119.204-23.546 59.574 0 59.574 23.545 119.205 23.545 59.572 0 59.572-23.546 119.204-23.546 59.63 0 59.63 23.545 119.204 23.545 59.63 0 59.63-23.546 119.2-23.546M-216.134 134.056c59.57 0 59.57 23.546 119.203 23.546 59.572 0 59.572-23.546 119.203-23.546 59.572 0 59.572 23.546 119.204 23.546 59.573 0 59.573-23.546 119.204-23.546 59.574 0 59.574 23.546 119.205 23.546 59.572 0 59.572-23.546 119.204-23.546 59.63 0 59.63 23.546 119.204 23.546 59.63 0 59.63-23.546 119.2-23.546"/><path fill="none" stroke="#FFF" stroke-miterlimit="10" d="M-216.134 157.602c59.57 0 59.57 23.547 119.203 23.547 59.572 0 59.572-23.548 119.203-23.548 59.572 0 59.572 23.547 119.204 23.547 59.573 0 59.573-23.548 119.204-23.548 59.574 0 59.574 23.547 119.205 23.547 59.572 0 59.572-23.548 119.204-23.548 59.63 0 59.63 23.547 119.204 23.547 59.63 0 59.63-23.548 119.2-23.548"/><path fill="none" stroke="#FFF" stroke-miterlimit="10" d="M-216.134 181.148c59.57 0 59.57 23.546 119.203 23.546 59.572 0 59.572-23.546 119.203-23.546 59.572 0 59.572 23.546 119.204 23.546 59.573 0 59.573-23.546 119.204-23.546 59.574 0 59.574 23.546 119.205 23.546 59.572 0 59.572-23.546 119.204-23.546 59.63 0 59.63 23.546 119.204 23.546 59.63 0 59.63-23.546 119.2-23.546M-216.134 204.694c59.57 0 59.57 23.548 119.203 23.548 59.572 0 59.572-23.548 119.203-23.548 59.572 0 59.572 23.548 119.204 23.548 59.573 0 59.573-23.548 119.204-23.548 59.574 0 59.574 23.548 119.205 23.548 59.572 0 59.572-23.548 119.204-23.548 59.63 0 59.63 23.548 119.204 23.548 59.63 0 59.63-23.548 119.2-23.548"/><path fill="none" stroke="#FFF" stroke-miterlimit="10" d="M-216.134 228.242c59.57 0 59.57 23.547 119.203 23.547 59.572 0 59.572-23.548 119.203-23.548 59.572 0 59.572 23.547 119.204 23.547 59.573 0 59.573-23.548 119.204-23.548 59.574 0 59.574 23.547 119.205 23.547 59.572 0 59.572-23.548 119.204-23.548 59.63 0 59.63 23.547 119.204 23.547 59.63 0 59.63-23.548 119.2-23.548M-216.134 251.79c59.57 0 59.57 23.545 119.203 23.545 59.572 0 59.572-23.546 119.203-23.546 59.572 0 59.572 23.545 119.204 23.545 59.573 0 59.573-23.546 119.204-23.546 59.574 0 59.574 23.545 119.205 23.545 59.572 0 59.572-23.546 119.204-23.546 59.63 0 59.63 23.545 119.204 23.545 59.63 0 59.63-23.546 119.2-23.546M-216.134 275.335c59.57 0 59.57 23.546 119.203 23.546 59.572 0 59.572-23.545 119.203-23.545 59.572 0 59.572 23.546 119.204 23.546 59.573 0 59.573-23.545 119.204-23.545 59.574 0 59.574 23.546 119.205 23.546 59.572 0 59.572-23.545 119.204-23.545 59.63 0 59.63 23.546 119.204 23.546 59.63 0 59.63-23.545 119.2-23.545"/><path fill="none" stroke="#FFF" stroke-miterlimit="10" d="M-216.134 298.88c59.57 0 59.57 23.548 119.203 23.548 59.572 0 59.572-23.547 119.203-23.547 59.572 0 59.572 23.548 119.204 23.548 59.573 0 59.573-23.547 119.204-23.547 59.574 0 59.574 23.548 119.205 23.548 59.572 0 59.572-23.547 119.204-23.547 59.63 0 59.63 23.548 119.204 23.548 59.63 0 59.63-23.547 119.2-23.547"/><path fill="none" stroke="#FFF" stroke-miterlimit="10" d="M-216.134 322.428c59.57 0 59.57 23.546 119.203 23.546 59.572 0 59.572-23.546 119.203-23.546 59.572 0 59.572 23.546 119.204 23.546 59.573 0 59.573-23.546 119.204-23.546 59.574 0 59.574 23.546 119.205 23.546 59.572 0 59.572-23.546 119.204-23.546 59.63 0 59.63 23.546 119.204 23.546 59.63 0 59.63-23.546 119.2-23.546"/></g><g><defs><path id="d" d="M509 328c0 4.95-4.05 9-9 9H1c-4.95 0-9-4.05-9-9v-429c0-4.95 4.05-9 9-9h499c4.95 0 9 4.05 9 9v429z"/></defs></g></g></svg>