<svg xmlns="http://www.w3.org/2000/svg" xmlns:xlink="http://www.w3.org/1999/xlink" width="500" height="250" viewBox="0 0 500 250"><path fill="#E18932" d="M504 340a9 9 0 0 1-9 9H9a9 9 0 0 1-9-9V-78a9 9 0 0 1 9-9h486a9 9 0 0 1 9 9v418z"/><defs><path id="a" d="M502 342c0 4.95-4.05 9-9 9H7c-4.95 0-9-4.05-9-9V-76c0-4.95 4.05-9 9-9h486c4.95 0 9 4.05 9 9v418z"/></defs><defs><path id="b" d="M502 342c0 4.95-4.05 9-9 9H7c-4.95 0-9-4.05-9-9V-76c0-4.95 4.05-9 9-9h486c4.95 0 9 4.05 9 9v418z"/></defs><clipPath id="c"><use xlink:href="#b" overflow="visible"/></clipPath><g clip-path="url(#c)"><path fill="#E89442" d="M-35.087-99.434h-112.81c-4.95 0-10.266 1.265-11.812 2.81-1.545 1.547-6.184 2.812-10.307 2.812s-8.76-1.265-10.307-2.81c-1.546-1.547-6.86-2.812-11.81-2.812h-12.834c-1.39 3.285-2.53 10.023-2.53 14.973v24.073c3.093 1.2 9.673 2.18 14.623 2.18h.74c4.95 0 10.265 1.266 11.81 2.813s6.186 2.812 10.308 2.812c4.123 0 8.762-1.265 10.308-2.812s6.862-2.812 11.812-2.812h115.903c1.39-2.9 2.53-9.32 2.53-14.27V-93.46c0-3.093-2.53-5.974-5.622-5.974M510.253-99.434h-112.81c-4.95 0-10.266 1.265-11.813 2.81-1.546 1.547-6.184 2.812-10.307 2.812-4.124 0-8.762-1.265-10.31-2.81-1.545-1.547-6.86-2.812-11.81-2.812H340.37c-1.39 3.285-2.528 10.023-2.528 14.973v24.073c3.092 1.2 9.67 2.18 14.62 2.18h.74c4.95 0 10.266 1.266 11.812 2.813 1.547 1.546 6.185 2.812 10.31 2.812 4.122 0 8.76-1.265 10.306-2.812 1.547-1.546 6.86-2.812 11.812-2.812h115.905c1.392-2.9 2.53-9.32 2.53-14.27V-93.46c0-3.093-2.53-5.974-5.624-5.974M-35.087-9.48h-112.81c-4.95 0-10.266 1.265-11.812 2.81-1.545 1.547-6.184 2.812-10.307 2.812s-8.76-1.265-10.307-2.81c-1.546-1.547-6.86-2.812-11.81-2.812h-12.834c-1.39 3.285-2.53 10.022-2.53 14.973V29.57c3.093 1.198 9.673 2.18 14.623 2.18h.74c4.95 0 10.265 1.264 11.81 2.81 1.547 1.546 6.186 2.81 10.308 2.81 4.123 0 8.762-1.264 10.308-2.81 1.547-1.546 6.862-2.81 11.812-2.81h115.903c1.39-2.9 2.53-9.323 2.53-14.273V-3.508c0-3.092-2.53-5.972-5.622-5.972M328.473-99.434H215.66c-4.95 0-10.264 1.265-11.81 2.81-1.546 1.547-6.184 2.812-10.307 2.812s-8.76-1.265-10.306-2.81c-1.546-1.547-6.86-2.812-11.81-2.812H158.59c-1.39 3.285-2.53 10.023-2.53 14.973v24.073c3.093 1.2 9.673 2.18 14.623 2.18h38.22c4.95 0 10.265 1.266 11.81 2.813s6.186 2.812 10.31 2.812c4.122 0 8.76-1.265 10.306-2.812s6.862-2.812 11.812-2.812H331.566c1.39-2.9 2.53-9.32 2.53-14.27V-93.46c0-3.093-2.53-5.974-5.623-5.974M360.33-9.48H253.144c-4.95 0-10.265 1.265-11.81 2.81-1.547 1.547-6.186 2.812-10.308 2.812-4.123 0-8.762-1.265-10.308-2.81-1.546-1.547-6.86-2.812-11.81-2.812h-50.314c-1.39 3.285-2.53 10.022-2.53 14.973V29.57c3.093 1.198 9.673 2.18 14.623 2.18h38.22c4.95 0 10.265 1.264 11.81 2.81 1.547 1.546 6.186 2.81 10.31 2.81 4.122 0 8.76-1.264 10.306-2.81 1.546-1.546 6.86-2.81 11.81-2.81h110.282c1.39-2.9 2.53-9.323 2.53-14.273V-3.508c0-3.092-2.53-5.972-5.623-5.972M510.253-9.48h-75.33c-4.95 0-10.266 1.265-11.812 2.81-1.546 1.547-6.184 2.812-10.306 2.812-4.123 0-8.762-1.265-10.308-2.81-1.546-1.547-6.86-2.812-11.812-2.812H372.23C370.837-6.195 369.7.542 369.7 5.493V29.57c3.092 1.198 9.67 2.18 14.62 2.18h6.364c4.95 0 10.266 1.264 11.812 2.81 1.546 1.546 6.185 2.81 10.308 2.81 4.122 0 8.76-1.264 10.307-2.81 1.547-1.546 6.86-2.81 11.812-2.81h78.425c1.392-2.9 2.53-9.323 2.53-14.273V-3.508c0-3.092-2.53-5.972-5.624-5.972M146.692-99.434H33.882c-4.95 0-10.266 1.265-11.812 2.81-1.546 1.547-6.184 2.812-10.307 2.812s-8.76-1.265-10.307-2.81c-1.546-1.547-6.86-2.812-11.81-2.812H-23.19c-1.39 3.285-2.528 10.023-2.528 14.973v24.073c3.092 1.2 9.672 2.18 14.622 2.18h.74c4.95 0 10.266 1.266 11.812 2.813 1.546 1.546 6.184 2.812 10.307 2.812s8.76-1.265 10.307-2.812c1.546-1.546 6.86-2.812 11.81-2.812h115.905c1.39-2.9 2.53-9.32 2.53-14.27V-93.46c0-3.093-2.53-5.974-5.623-5.974M146.692-9.48H33.882c-4.95 0-10.266 1.265-11.812 2.81-1.546 1.547-6.184 2.812-10.307 2.812S3.003-5.124 1.456-6.67c-1.546-1.546-6.86-2.81-11.81-2.81H-23.19C-24.58-6.195-25.717.542-25.717 5.493V29.57c3.092 1.198 9.672 2.18 14.622 2.18h.74c4.95 0 10.266 1.264 11.812 2.81 1.546 1.546 6.184 2.81 10.307 2.81s8.76-1.264 10.307-2.81c1.546-1.546 6.86-2.81 11.81-2.81h115.905c1.39-2.9 2.53-9.323 2.53-14.273V-3.508c0-3.092-2.53-5.972-5.623-5.972"/><path fill="#E89442" d="M-72.567-54.457h-75.33c-4.95 0-10.266 1.265-11.812 2.81-1.545 1.547-6.184 2.812-10.307 2.812s-8.76-1.265-10.307-2.81c-1.546-1.547-6.86-2.812-11.81-2.812h-12.834c-1.39 3.285-2.53 10.023-2.53 14.973v24.074c3.093 1.2 9.673 2.18 14.623 2.18h.74c4.95 0 10.265 1.265 11.81 2.81s6.186 2.812 10.308 2.812c4.123 0 8.762-1.265 10.308-2.81s6.862-2.812 11.812-2.812H-69.474c1.392-2.898 2.53-9.32 2.53-14.27v-20.984c0-3.092-2.53-5.973-5.623-5.973M328.473-54.457h-75.33c-4.95 0-10.265 1.265-11.81 2.81-1.547 1.547-6.186 2.812-10.308 2.812-4.123 0-8.762-1.265-10.308-2.81-1.546-1.547-6.86-2.812-11.81-2.812H196.07c-1.39 3.285-2.53 10.023-2.53 14.973v24.074c3.093 1.2 9.672 2.18 14.623 2.18h.74c4.95 0 10.266 1.265 11.812 2.81s6.185 2.812 10.308 2.812 8.76-1.265 10.307-2.81 6.86-2.812 11.81-2.812h78.425c1.39-2.898 2.53-9.32 2.53-14.27v-20.984c0-3.092-2.53-5.973-5.624-5.973M472.772-54.457h-75.33c-4.95 0-10.265 1.265-11.812 2.81-1.546 1.547-6.184 2.812-10.307 2.812-4.124 0-8.762-1.265-10.31-2.81-1.545-1.547-6.86-2.812-11.81-2.812H340.37c-1.39 3.285-2.528 10.023-2.528 14.973v24.074c3.092 1.2 9.67 2.18 14.62 2.18h38.222c4.95 0 10.266 1.265 11.812 2.81s6.185 2.812 10.308 2.812c4.122 0 8.76-1.265 10.307-2.81 1.547-1.547 6.86-2.812 11.812-2.812h40.944c1.39-2.898 2.53-9.32 2.53-14.27v-20.984c0-3.092-2.53-5.973-5.624-5.973M184.174-54.457H33.88c-4.95 0-10.264 1.265-11.81 2.81-1.546 1.547-6.184 2.812-10.307 2.812s-8.76-1.265-10.307-2.81c-1.546-1.547-6.86-2.812-11.81-2.812H-60.67c-1.39 3.285-2.528 10.023-2.528 14.973v24.074c3.092 1.2 9.67 2.18 14.622 2.18h38.22c4.95 0 10.266 1.265 11.812 2.81C3.002-8.87 7.64-7.606 11.763-7.606s8.76-1.265 10.307-2.81c1.546-1.547 6.86-2.812 11.81-2.812H187.266c1.392-2.897 2.53-9.32 2.53-14.27v-20.983c0-3.093-2.53-5.974-5.62-5.974M-72.567 35.496h-75.33c-4.95 0-10.266 1.265-11.812 2.81-1.545 1.547-6.184 2.812-10.307 2.812s-8.76-1.265-10.307-2.81c-1.546-1.547-6.86-2.812-11.81-2.812h-12.834c-1.39 3.285-2.53 10.023-2.53 14.973v24.073c3.093 1.2 9.673 2.18 14.623 2.18h.74c4.95 0 10.265 1.265 11.81 2.81 1.547 1.547 6.186 2.812 10.308 2.812 4.123 0 8.762-1.265 10.308-2.81 1.547-1.547 6.862-2.812 11.812-2.812H-69.474c1.392-2.9 2.53-9.32 2.53-14.27V41.468c0-3.094-2.53-5.974-5.623-5.974M692.034-99.434h-112.81c-4.95 0-10.267 1.265-11.813 2.81-1.545 1.547-6.184 2.812-10.307 2.812-4.122 0-8.76-1.265-10.307-2.81-1.547-1.547-6.862-2.812-11.812-2.812h-12.831c-1.392 3.285-2.53 10.023-2.53 14.973v24.073c3.093 1.2 9.673 2.18 14.623 2.18h.738c4.95 0 10.266 1.266 11.812 2.813 1.546 1.546 6.185 2.812 10.307 2.812 4.123 0 8.762-1.265 10.308-2.812s6.862-2.812 11.813-2.812h115.905c1.39-2.9 2.528-9.32 2.528-14.27V-93.46c0-3.093-2.53-5.974-5.622-5.974M692.034-9.48h-112.81c-4.95 0-10.267 1.265-11.813 2.81-1.545 1.547-6.184 2.812-10.307 2.812-4.122 0-8.76-1.265-10.307-2.81-1.547-1.547-6.862-2.812-11.812-2.812h-12.831c-1.392 3.285-2.53 10.022-2.53 14.973V29.57c3.093 1.198 9.673 2.18 14.623 2.18h.738c4.95 0 10.266 1.264 11.812 2.81 1.546 1.546 6.185 2.81 10.307 2.81 4.123 0 8.762-1.264 10.308-2.81 1.547-1.546 6.862-2.81 11.813-2.81h115.905c1.39-2.9 2.528-9.323 2.528-14.273V-3.508c0-3.092-2.53-5.972-5.622-5.972"/><path fill="#E89442" d="M-35.087 80.472h-112.81c-4.95 0-10.266 1.265-11.812 2.81-1.545 1.547-6.184 2.812-10.307 2.812s-8.76-1.265-10.307-2.81c-1.546-1.547-6.86-2.812-11.81-2.812h-12.834c-1.39 3.285-2.53 10.023-2.53 14.973v24.075c3.093 1.2 9.673 2.18 14.623 2.18h.74c4.95 0 10.265 1.265 11.81 2.81 1.547 1.547 6.186 2.812 10.308 2.812 4.123 0 8.762-1.265 10.308-2.81 1.547-1.547 6.862-2.812 11.812-2.812h115.903c1.39-2.9 2.53-9.32 2.53-14.27V86.444c0-3.092-2.53-5.973-5.622-5.973M360.33 80.472H253.144c-4.95 0-10.265 1.265-11.81 2.81-1.547 1.547-6.186 2.812-10.308 2.812-4.123 0-8.762-1.265-10.308-2.81-1.546-1.547-6.86-2.812-11.81-2.812h-50.314c-1.39 3.285-2.53 10.023-2.53 14.973v24.075c3.093 1.2 9.673 2.18 14.623 2.18h38.22c4.95 0 10.265 1.265 11.81 2.81 1.547 1.547 6.186 2.812 10.31 2.812 4.122 0 8.76-1.265 10.306-2.81 1.546-1.547 6.86-2.812 11.81-2.812h110.282c1.39-2.9 2.53-9.32 2.53-14.27V86.444c0-3.092-2.53-5.973-5.623-5.973M510.253 80.472h-75.33c-4.95 0-10.266 1.265-11.812 2.81-1.546 1.547-6.184 2.812-10.306 2.812-4.123 0-8.762-1.265-10.308-2.81-1.546-1.547-6.86-2.812-11.812-2.812H372.23c-1.392 3.285-2.53 10.023-2.53 14.973v24.075c3.092 1.2 9.67 2.18 14.62 2.18h6.364c4.95 0 10.266 1.265 11.812 2.81 1.546 1.547 6.185 2.812 10.308 2.812 4.122 0 8.76-1.265 10.307-2.81 1.547-1.547 6.86-2.812 11.812-2.812h78.425c1.392-2.9 2.53-9.32 2.53-14.27V86.444c0-3.092-2.53-5.973-5.624-5.973M146.692 80.472H33.882c-4.95 0-10.266 1.265-11.812 2.81-1.546 1.547-6.184 2.812-10.307 2.812s-8.76-1.265-10.307-2.81c-1.546-1.547-6.86-2.812-11.81-2.812H-23.19c-1.39 3.285-2.528 10.023-2.528 14.973v24.075c3.092 1.2 9.672 2.18 14.622 2.18h.74c4.95 0 10.266 1.265 11.812 2.81 1.546 1.547 6.184 2.812 10.307 2.812s8.76-1.265 10.307-2.81c1.546-1.547 6.86-2.812 11.81-2.812h115.905c1.39-2.9 2.53-9.32 2.53-14.27V86.444c0-3.092-2.53-5.973-5.623-5.973M692.034 80.472h-112.81c-4.95 0-10.267 1.265-11.813 2.81-1.545 1.547-6.184 2.812-10.307 2.812-4.122 0-8.76-1.265-10.307-2.81-1.547-1.547-6.862-2.812-11.812-2.812h-12.831c-1.392 3.285-2.53 10.023-2.53 14.973v24.075c3.093 1.2 9.673 2.18 14.623 2.18h.738c4.95 0 10.266 1.265 11.812 2.81 1.546 1.547 6.185 2.812 10.307 2.812 4.123 0 8.762-1.265 10.308-2.81 1.547-1.547 6.862-2.812 11.813-2.812h115.905c1.39-2.9 2.528-9.32 2.528-14.27V86.444c0-3.092-2.53-5.973-5.622-5.973M-35.087 170.426h-75.33c-4.95 0-10.266 1.265-11.812 2.81-1.545 1.548-6.184 2.813-10.306 2.813-4.123 0-8.76-1.266-10.308-2.813-1.546-1.546-6.86-2.81-11.81-2.81h-50.315c-1.39 3.285-2.528 10.023-2.528 14.974v24.075c3.092 1.2 9.672 2.18 14.622 2.18h.74c4.95 0 10.265 1.265 11.81 2.81s6.186 2.812 10.308 2.812c4.123 0 8.762-1.265 10.308-2.81s6.86-2.812 11.81-2.812h115.904c1.39-2.9 2.53-9.32 2.53-14.27V176.4c0-3.093-2.53-5.974-5.62-5.974M360.33 170.426h-69.707c-4.95 0-10.265 1.265-11.81 2.81-1.548 1.548-6.186 2.813-10.31 2.813-4.123 0-8.76-1.266-10.307-2.813-1.547-1.546-6.86-2.81-11.812-2.81H158.59c-1.39 3.285-2.528 10.023-2.528 14.974v24.075c3.092 1.2 9.672 2.18 14.622 2.18h38.22c4.95 0 10.265 1.265 11.81 2.81s6.186 2.812 10.31 2.812c4.122 0 8.76-1.265 10.306-2.81s6.86-2.812 11.81-2.812h110.282c1.39-2.9 2.53-9.32 2.53-14.27V176.4c0-3.093-2.528-5.974-5.62-5.974M510.253 170.426h-84.7c-4.95 0-10.266 1.265-11.812 2.81-1.545 1.548-6.183 2.813-10.307 2.813-4.123 0-8.76-1.266-10.307-2.813-1.546-1.546-6.86-2.81-11.81-2.81h-9.085c-1.392 3.285-2.53 10.023-2.53 14.974v24.075c3.092 1.2 9.67 2.18 14.62 2.18h6.364c4.95 0 10.266 1.265 11.812 2.81s6.185 2.812 10.308 2.812c4.122 0 8.76-1.265 10.307-2.81 1.547-1.547 6.86-2.812 11.812-2.812h78.425c1.392-2.9 2.53-9.32 2.53-14.27V176.4c0-3.093-2.53-5.974-5.624-5.974M146.692 170.426h-75.33c-4.95 0-10.265 1.265-11.812 2.81-1.546 1.548-6.185 2.813-10.307 2.813s-8.76-1.266-10.308-2.813c-1.546-1.546-6.86-2.81-11.812-2.81H-23.19c-1.392 3.285-2.53 10.023-2.53 14.974v24.075c3.092 1.2 9.672 2.18 14.622 2.18h.74c4.95 0 10.266 1.265 11.812 2.81 1.546 1.547 6.184 2.812 10.307 2.812s8.762-1.265 10.308-2.81c1.546-1.547 6.86-2.812 11.81-2.812h115.905c1.39-2.9 2.53-9.32 2.53-14.27V176.4c0-3.093-2.528-5.974-5.62-5.974M692.034 170.426h-75.33c-4.95 0-10.267 1.265-11.813 2.81-1.545 1.548-6.184 2.813-10.307 2.813s-8.76-1.266-10.307-2.813c-1.547-1.546-6.86-2.81-11.812-2.81H522.15c-1.39 3.285-2.528 10.023-2.528 14.974v24.075c3.092 1.2 9.672 2.18 14.622 2.18h.738c4.95 0 10.266 1.265 11.812 2.81 1.546 1.547 6.185 2.812 10.307 2.812 4.124 0 8.763-1.265 10.31-2.81s6.86-2.812 11.81-2.812h115.906c1.39-2.9 2.528-9.32 2.528-14.27V176.4c0-3.093-2.527-5.974-5.62-5.974M-35.087 260.38h-101.567c-4.95 0-10.265 1.264-11.81 2.81-1.547 1.547-6.186 2.812-10.308 2.812-4.123 0-8.76-1.265-10.308-2.812-1.546-1.546-6.86-2.81-11.81-2.81h-24.078c-1.39 3.285-2.53 10.023-2.53 14.974v24.074c3.093 1.198 9.673 2.18 14.623 2.18h.74c4.95 0 10.265 1.264 11.81 2.81 1.547 1.547 6.186 2.812 10.308 2.812 4.123 0 8.762-1.265 10.308-2.81 1.547-1.548 6.862-2.813 11.812-2.813h115.903c1.39-2.9 2.53-9.32 2.53-14.27v-20.982c0-3.096-2.53-5.976-5.622-5.976M360.33 260.38h-95.944c-4.95 0-10.265 1.264-11.81 2.81-1.547 1.547-6.185 2.812-10.308 2.812s-8.76-1.265-10.308-2.812c-1.546-1.546-6.86-2.81-11.812-2.81H158.59c-1.39 3.285-2.528 10.023-2.528 14.974v24.074c3.092 1.198 9.672 2.18 14.622 2.18h38.22c4.95 0 10.265 1.264 11.81 2.81 1.547 1.547 6.186 2.812 10.31 2.812 4.122 0 8.76-1.265 10.306-2.81 1.546-1.548 6.86-2.813 11.81-2.813h110.282c1.39-2.9 2.53-9.32 2.53-14.27v-20.982c0-3.096-2.528-5.976-5.62-5.976M510.253 260.38h-84.7c-4.95 0-10.266 1.264-11.812 2.81-1.545 1.547-6.183 2.812-10.307 2.812-4.123 0-8.76-1.265-10.307-2.812-1.546-1.546-6.86-2.81-11.81-2.81h-9.085c-1.392 3.285-2.53 10.023-2.53 14.974v24.074c3.092 1.198 9.67 2.18 14.62 2.18h6.364c4.95 0 10.266 1.264 11.812 2.81 1.546 1.547 6.185 2.812 10.308 2.812 4.122 0 8.76-1.265 10.307-2.81 1.547-1.548 6.86-2.813 11.812-2.813h78.425c1.392-2.9 2.53-9.32 2.53-14.27v-20.982c0-3.096-2.53-5.976-5.624-5.976M146.692 260.38H45.125c-4.95 0-10.265 1.264-11.81 2.81-1.547 1.547-6.185 2.812-10.307 2.812-4.123 0-8.76-1.265-10.307-2.812-1.545-1.546-6.86-2.81-11.81-2.81H-23.19c-1.39 3.285-2.528 10.023-2.528 14.974v24.074c3.092 1.198 9.672 2.18 14.622 2.18h.74c4.95 0 10.266 1.264 11.812 2.81 1.546 1.547 6.184 2.812 10.307 2.812s8.76-1.265 10.307-2.81c1.546-1.548 6.86-2.813 11.81-2.813h115.905c1.39-2.9 2.53-9.32 2.53-14.27v-20.982c0-3.096-2.53-5.976-5.623-5.976M692.034 260.38H590.466c-4.95 0-10.265 1.264-11.81 2.81-1.547 1.547-6.185 2.812-10.308 2.812s-8.76-1.265-10.308-2.812c-1.546-1.546-6.86-2.81-11.81-2.81H522.15c-1.392 3.285-2.53 10.023-2.53 14.974v24.074c3.093 1.198 9.673 2.18 14.623 2.18h.738c4.95 0 10.266 1.264 11.812 2.81 1.546 1.547 6.185 2.812 10.307 2.812 4.123 0 8.762-1.265 10.308-2.81 1.546-1.548 6.86-2.813 11.812-2.813h115.905c1.39-2.9 2.528-9.32 2.528-14.27v-20.982c0-3.096-2.528-5.976-5.62-5.976M654.552-54.457h-75.33c-4.95 0-10.265 1.265-11.81 2.81-1.547 1.547-6.186 2.812-10.31 2.812-4.12 0-8.76-1.265-10.306-2.81-1.547-1.547-6.862-2.812-11.812-2.812H484.67c-1.39 3.285-2.528 10.023-2.528 14.973v24.074c3.092 1.2 9.67 2.18 14.62 2.18h38.222c4.95 0 10.266 1.265 11.812 2.81 1.546 1.547 6.185 2.812 10.307 2.812 4.123 0 8.762-1.265 10.308-2.81s6.862-2.812 11.813-2.812h78.423c1.392-2.898 2.53-9.32 2.53-14.27v-20.984c0-3.092-2.53-5.973-5.624-5.973"/><path fill="#E89442" d="M654.552 35.496h-75.33c-4.95 0-10.265 1.265-11.81 2.81-1.547 1.547-6.186 2.812-10.31 2.812-4.12 0-8.76-1.265-10.306-2.81-1.547-1.547-6.862-2.812-11.812-2.812H484.67c-1.39 3.285-2.528 10.023-2.528 14.973v24.073c3.092 1.2 9.67 2.18 14.62 2.18h38.222c4.95 0 10.266 1.265 11.812 2.81 1.546 1.547 6.185 2.812 10.307 2.812 4.123 0 8.762-1.265 10.308-2.81 1.547-1.547 6.862-2.812 11.813-2.812h78.423c1.392-2.9 2.53-9.32 2.53-14.27V41.468c0-3.094-2.53-5.974-5.624-5.974M328.473 35.496h-75.33c-4.95 0-10.265 1.265-11.81 2.81-1.547 1.547-6.186 2.812-10.308 2.812-4.123 0-8.762-1.265-10.308-2.81-1.546-1.547-6.86-2.812-11.81-2.812H196.07c-1.39 3.285-2.53 10.023-2.53 14.973v24.073c3.093 1.2 9.672 2.18 14.623 2.18h.74c4.95 0 10.266 1.265 11.812 2.81 1.546 1.547 6.185 2.812 10.308 2.812s8.76-1.265 10.307-2.81c1.546-1.547 6.86-2.812 11.81-2.812h78.425c1.39-2.9 2.53-9.32 2.53-14.27V41.468c0-3.094-2.53-5.974-5.624-5.974M472.772 35.496h-37.85c-4.95 0-10.266 1.265-11.812 2.81-1.547 1.547-6.185 2.812-10.307 2.812-4.123 0-8.762-1.265-10.308-2.81-1.546-1.547-6.86-2.812-11.812-2.812H340.37c-1.392 3.285-2.53 10.023-2.53 14.973v24.073c3.093 1.2 9.672 2.18 14.622 2.18h38.22c4.95 0 10.267 1.265 11.813 2.81 1.546 1.547 6.185 2.812 10.308 2.812 4.122 0 8.76-1.265 10.307-2.81 1.546-1.547 6.86-2.812 11.81-2.812H475.866c1.39-2.9 2.53-9.32 2.53-14.27V41.468c0-3.094-2.53-5.974-5.623-5.974M184.174 35.496H33.88c-4.95 0-10.264 1.265-11.81 2.81-1.546 1.547-6.184 2.812-10.307 2.812s-8.76-1.265-10.307-2.81c-1.546-1.547-6.86-2.812-11.81-2.812H-60.67c-1.39 3.285-2.528 10.023-2.528 14.973v24.073c3.092 1.2 9.67 2.18 14.622 2.18h38.22c4.95 0 10.266 1.265 11.812 2.81 1.546 1.547 6.184 2.812 10.307 2.812s8.76-1.265 10.307-2.81c1.546-1.547 6.86-2.812 11.81-2.812H187.266c1.392-2.9 2.53-9.32 2.53-14.27V41.468c0-3.094-2.53-5.974-5.62-5.974M-72.567 305.355h-75.33c-4.95 0-10.266 1.265-11.812 2.81s-6.184 2.812-10.307 2.812-8.76-1.265-10.307-2.81-6.86-2.812-11.81-2.812h-12.834c-1.39 3.286-2.53 10.025-2.53 14.976v24.074c3.093 1.2 9.673 2.18 14.623 2.18h.74c4.95 0 10.265 1.265 11.81 2.81s6.186 2.812 10.308 2.812c4.123 0 8.762-1.265 10.308-2.81s6.862-2.812 11.812-2.812H-69.474c1.392-2.9 2.53-9.323 2.53-14.273v-20.978c0-3.097-2.53-5.977-5.623-5.977M654.552 305.355h-75.33c-4.95 0-10.265 1.265-11.81 2.81s-6.186 2.812-10.31 2.812c-4.12 0-8.76-1.265-10.306-2.81-1.547-1.547-6.862-2.812-11.812-2.812H484.67c-1.39 3.286-2.528 10.025-2.528 14.976v24.074c3.092 1.2 9.67 2.18 14.62 2.18h38.222c4.95 0 10.266 1.265 11.812 2.81 1.546 1.547 6.185 2.812 10.307 2.812 4.123 0 8.762-1.265 10.308-2.81s6.862-2.812 11.813-2.812h78.423c1.392-2.9 2.53-9.323 2.53-14.273v-20.978c0-3.097-2.53-5.977-5.624-5.977M328.473 305.355h-75.33c-4.95 0-10.265 1.265-11.81 2.81s-6.186 2.812-10.308 2.812c-4.123 0-8.762-1.265-10.308-2.81s-6.86-2.812-11.81-2.812H196.07c-1.39 3.286-2.53 10.025-2.53 14.976v24.074c3.093 1.2 9.672 2.18 14.623 2.18h.74c4.95 0 10.266 1.265 11.812 2.81s6.185 2.812 10.308 2.812 8.76-1.265 10.307-2.81 6.86-2.812 11.81-2.812h78.425c1.39-2.9 2.53-9.323 2.53-14.273v-20.978c0-3.097-2.53-5.977-5.624-5.977M472.772 305.355h-37.85c-4.95 0-10.266 1.265-11.812 2.81-1.547 1.547-6.185 2.812-10.307 2.812-4.123 0-8.762-1.265-10.308-2.81s-6.86-2.812-11.812-2.812H340.37c-1.392 3.286-2.53 10.025-2.53 14.976v24.074c3.093 1.2 9.672 2.18 14.622 2.18h38.22c4.95 0 10.267 1.265 11.813 2.81s6.185 2.812 10.308 2.812c4.122 0 8.76-1.265 10.307-2.81 1.546-1.547 6.86-2.812 11.81-2.812H475.866c1.39-2.9 2.53-9.323 2.53-14.273v-20.978c0-3.097-2.53-5.977-5.623-5.977M184.174 305.355H33.88c-4.95 0-10.264 1.265-11.81 2.81-1.546 1.547-6.184 2.812-10.307 2.812s-8.76-1.265-10.307-2.81c-1.546-1.547-6.86-2.812-11.81-2.812H-60.67c-1.39 3.286-2.528 10.025-2.528 14.976v24.074c3.092 1.2 9.67 2.18 14.622 2.18h38.22c4.95 0 10.266 1.265 11.812 2.81 1.546 1.547 6.184 2.812 10.307 2.812s8.76-1.265 10.307-2.81c1.546-1.547 6.86-2.812 11.81-2.812H187.266c1.392-2.9 2.53-9.323 2.53-14.273v-20.978c0-3.097-2.53-5.977-5.62-5.977M-72.567 125.45h-75.33c-4.95 0-10.266 1.264-11.812 2.81s-6.184 2.81-10.307 2.81-8.76-1.264-10.307-2.81-6.86-2.81-11.81-2.81h-12.834c-1.39 3.285-2.53 10.023-2.53 14.974v24.073c3.093 1.2 9.673 2.18 14.623 2.18h38.22c4.95 0 10.266 1.266 11.812 2.812 1.546 1.545 6.185 2.81 10.308 2.81s8.76-1.265 10.307-2.81 6.86-2.813 11.81-2.813H-69.472c1.392-2.9 2.53-9.32 2.53-14.27v-20.982c-.002-3.095-2.532-5.976-5.624-5.976M654.552 125.45h-75.33c-4.95 0-10.265 1.264-11.81 2.81s-6.186 2.81-10.31 2.81c-4.12 0-8.76-1.264-10.306-2.81-1.547-1.546-6.862-2.81-11.812-2.81H484.67c-1.39 3.285-2.528 10.023-2.528 14.974v24.073c3.092 1.2 9.67 2.18 14.62 2.18h75.703c4.95 0 10.265 1.266 11.812 2.812 1.546 1.545 6.184 2.81 10.307 2.81s8.762-1.265 10.308-2.81 6.86-2.813 11.812-2.813h40.943c1.392-2.9 2.53-9.32 2.53-14.27v-20.982c-.002-3.095-2.53-5.976-5.625-5.976M328.473 125.45h-75.33c-4.95 0-10.265 1.264-11.81 2.81s-6.186 2.81-10.308 2.81c-4.123 0-8.762-1.264-10.308-2.81s-6.86-2.81-11.81-2.81H196.07c-1.39 3.285-2.53 10.023-2.53 14.974v24.073c3.093 1.2 9.672 2.18 14.623 2.18h38.22c4.95 0 10.266 1.266 11.813 2.812 1.546 1.545 6.184 2.81 10.307 2.81 4.124 0 8.762-1.265 10.31-2.81 1.545-1.547 6.86-2.813 11.81-2.813h40.944c1.39-2.9 2.528-9.32 2.528-14.27v-20.982c-.002-3.095-2.532-5.976-5.625-5.976M472.772 125.45h-37.85c-4.95 0-10.266 1.264-11.812 2.81-1.547 1.546-6.185 2.81-10.307 2.81-4.123 0-8.762-1.264-10.308-2.81s-6.86-2.81-11.812-2.81H340.37c-1.392 3.285-2.53 10.023-2.53 14.974v24.073c3.093 1.2 9.672 2.18 14.622 2.18h28.852c4.95 0 10.265 1.266 11.81 2.812s6.185 2.81 10.308 2.81c4.124 0 8.762-1.265 10.308-2.81s6.86-2.813 11.81-2.813h50.315c1.39-2.9 2.53-9.32 2.53-14.27v-20.982c0-3.095-2.53-5.976-5.623-5.976M184.174 125.45H33.88c-4.95 0-10.264 1.264-11.81 2.81-1.546 1.546-6.184 2.81-10.307 2.81s-8.76-1.264-10.307-2.81c-1.546-1.546-6.86-2.81-11.81-2.81H-60.67c-1.39 3.285-2.528 10.023-2.528 14.974v24.073c3.092 1.2 9.67 2.18 14.622 2.18h75.7c4.95 0 10.266 1.266 11.813 2.812 1.547 1.545 6.185 2.81 10.308 2.81s8.76-1.265 10.307-2.81 6.86-2.813 11.812-2.813h115.903c1.392-2.9 2.53-9.32 2.53-14.27v-20.982c0-3.095-2.53-5.976-5.623-5.976M-72.567 215.402h-75.33c-4.95 0-10.266 1.265-11.812 2.81s-6.184 2.812-10.307 2.812-8.76-1.265-10.307-2.81-6.86-2.812-11.81-2.812h-12.834c-1.39 3.286-2.53 10.024-2.53 14.975v24.073c3.093 1.2 9.673 2.182 14.623 2.182h11.984c4.95 0 10.264 1.265 11.81 2.81 1.546 1.547 6.185 2.812 10.308 2.812s8.76-1.265 10.307-2.81 6.86-2.812 11.81-2.812h67.181c1.392-2.9 2.53-9.324 2.53-14.274v-20.98c0-3.096-2.53-5.976-5.623-5.976M654.552 215.402h-75.33c-4.95 0-10.265 1.265-11.81 2.81s-6.186 2.812-10.31 2.812c-4.12 0-8.76-1.265-10.306-2.81-1.547-1.547-6.862-2.812-11.812-2.812H484.67c-1.39 3.286-2.528 10.024-2.528 14.975v24.073c3.092 1.2 9.67 2.182 14.62 2.182h49.468c4.95 0 10.265 1.265 11.81 2.81 1.548 1.547 6.186 2.812 10.31 2.812s8.76-1.265 10.306-2.81 6.86-2.812 11.81-2.812h67.181c1.392-2.9 2.53-9.324 2.53-14.274v-20.98c-.002-3.096-2.53-5.976-5.625-5.976M328.473 215.402h-75.33c-4.95 0-10.265 1.265-11.81 2.81s-6.186 2.812-10.308 2.812c-4.123 0-8.762-1.265-10.308-2.81s-6.86-2.812-11.81-2.812H196.07c-1.39 3.286-2.53 10.024-2.53 14.975v24.073c3.093 1.2 9.672 2.182 14.623 2.182h11.984c4.95 0 10.264 1.265 11.81 2.81 1.548 1.547 6.186 2.812 10.31 2.812s8.76-1.265 10.306-2.81 6.86-2.812 11.81-2.812H331.57c1.39-2.9 2.53-9.324 2.53-14.274v-20.98c-.002-3.096-2.532-5.976-5.625-5.976M472.772 215.402h-37.85c-4.95 0-10.266 1.265-11.812 2.81-1.547 1.547-6.185 2.812-10.307 2.812-4.123 0-8.762-1.265-10.308-2.81s-6.86-2.812-11.812-2.812H340.37c-1.392 3.286-2.53 10.024-2.53 14.975v24.073c3.093 1.2 9.672 2.182 14.622 2.182h28.852c4.95 0 10.265 1.265 11.81 2.81s6.185 2.812 10.308 2.812c4.124 0 8.762-1.265 10.308-2.81s6.86-2.812 11.81-2.812h50.315c1.39-2.9 2.53-9.324 2.53-14.274v-20.98c0-3.096-2.53-5.976-5.623-5.976M184.174 215.402H33.88c-4.95 0-10.264 1.265-11.81 2.81-1.546 1.547-6.184 2.812-10.307 2.812s-8.76-1.265-10.307-2.81c-1.546-1.547-6.86-2.812-11.81-2.812H-60.67c-1.39 3.286-2.528 10.024-2.528 14.975v24.073c3.092 1.2 9.67 2.182 14.622 2.182H.89c4.95 0 10.265 1.265 11.81 2.81s6.185 2.812 10.308 2.812c4.122 0 8.76-1.265 10.306-2.81s6.86-2.812 11.81-2.812H187.267c1.392-2.9 2.53-9.324 2.53-14.274v-20.98c0-3.096-2.53-5.976-5.622-5.976"/></g><g><defs><path id="d" d="M502 342c0 4.95-4.05 9-9 9H7c-4.95 0-9-4.05-9-9V-76c0-4.95 4.05-9 9-9h486c4.95 0 9 4.05 9 9v418z"/></defs></g></svg>