<svg xmlns="http://www.w3.org/2000/svg" xmlns:xlink="http://www.w3.org/1999/xlink" width="500" height="250" viewBox="0 0 500 250"><path fill="#3D98DA" d="M504 321a9 9 0 0 1-9 9H-4a9 9 0 0 1-9-9v-429a9 9 0 0 1 9-9h499a9 9 0 0 1 9 9v429z"/><g opacity=".2"><defs><path id="a" opacity=".2" d="M-13-117h517v447H-13z"/></defs><clipPath id="b"><use xlink:href="#a" overflow="visible"/></clipPath><g clip-path="url(#b)" fill="none" stroke="#FFF" stroke-miterlimit="10"><path d="M202.17-154.554c66.998 28.572 158.627 64.04 237.446 74.88 0 0 23.647 133.01 68.97 292.62 0 0-89.66 80.79-157.643 156.655 0 0-202.962-44.336-272.916-42.366 0 0-29.557-87.688-85.718-114.29 0 0 25.63-151.616 28.572-246.312 0 0 127.1-60.1 181.288-121.186z"/><path d="M61.28-4.795S59.305 129.2 39.602 194.227c0 0 59.113 25.617 66.01 99.51 0 0 137.938.986 229.566 32.514 0 0 69.952-98.523 125.128-133.01 0 0-45.322-160.595-54.19-241.385 0 0-136.95-23.647-198.036-55.176 0-.002-94.584 74.878-146.803 98.525z"/><path d="M217.934-53.073S138.128 8.012 101.674 20.82c0 0 6.896 103.452-14.778 154.687 0 0 58.13 30.542 49.263 76.85 0 0 113.304-7.883 179.315 21.675 0 0 61.088-87.156 99.512-96.555 0 0-52.22-150.744-43.353-187.2 0 0-101.482-13.793-153.7-43.35z"/><path d="M128.276 163.683s20.69-75.864 15.763-114.29c0 0 57.476-27.698 83.747-57.145 0 0 67.982 33.5 102.466 33.5 0 0 20.76 106.06 37.44 137.935 0 0-73.894 44.338-71.924 66.998 0 0-96.556-32.513-123.16-18.72 0 0-.983-43.35-44.334-48.277z"/><path d="M178.523 71.068s42.367-8.867 56.16-29.557c0 0 19.706 23.646 65.026 20.69 0 0 .985 71.925 23.645 83.747 0 0-47.292 14.78-47.292 42.367 0 0-39.876-26.246-73.895-10.838 0 0 3.94-37.44-23.646-38.426 0 0 21.558-39.632 0-67.982z"/><path d="M224.73 101.015s15.336-3.21 20.324-10.697c0 0 7.133 8.56 23.537 7.487 0 0 .36 26.033 8.56 30.31 0 0-17.115 5.35-17.115 15.335 0 0-14.434-9.5-26.745-3.924 0 0 1.425-13.548-8.56-13.903 0 0 7.802-14.348 0-24.608z"/><path d="M-88.152-103.322l336.136 220.698L581.9 240.133"/><path d="M6.104 412.952l241.88-295.576 248.62-259.18"/><path d="M185.094-249.797l62.89 367.173L376.88 428.834M-88.152 240.133l336.136-122.757"/></g></g></svg>