<svg xmlns="http://www.w3.org/2000/svg" xmlns:xlink="http://www.w3.org/1999/xlink" width="500" height="250" viewBox="0 0 500 250"><path fill="#49BB92" d="M508 328a9 9 0 0 1-9 9H0a9 9 0 0 1-9-9v-429a9 9 0 0 1 9-9h499a9 9 0 0 1 9 9v429z"/><g opacity=".15"><defs><path id="a" d="M509 328c0 4.95-4.05 9-9 9H1c-4.95 0-9-4.05-9-9v-429c0-4.95 4.05-9 9-9h499c4.95 0 9 4.05 9 9v429z"/></defs><clipPath id="b"><use xlink:href="#a" overflow="visible"/></clipPath><g clip-path="url(#b)" fill="none" stroke="#FFF" stroke-miterlimit="10"><path d="M-216.134-124.956c59.571 0 59.571 23.546 119.203 23.546 59.573 0 59.573-23.546 119.204-23.546 59.572 0 59.572 23.546 119.204 23.546 59.573 0 59.573-23.546 119.204-23.546 59.573 0 59.573 23.546 119.204 23.546 59.572 0 59.572-23.546 119.204-23.546 59.63 0 59.63 23.546 119.205 23.546 59.63 0 59.63-23.546 119.201-23.546m-953.629 23.547c59.571 0 59.571 23.546 119.203 23.546 59.573 0 59.573-23.546 119.204-23.546 59.572 0 59.572 23.546 119.204 23.546 59.573 0 59.573-23.546 119.204-23.546 59.573 0 59.573 23.546 119.204 23.546 59.572 0 59.572-23.546 119.204-23.546 59.63 0 59.63 23.546 119.205 23.546 59.63 0 59.63-23.546 119.201-23.546m-953.629 23.546c59.571 0 59.571 23.546 119.203 23.546 59.573 0 59.573-23.546 119.204-23.546 59.572 0 59.572 23.546 119.204 23.546 59.573 0 59.573-23.546 119.204-23.546 59.573 0 59.573 23.546 119.204 23.546 59.572 0 59.572-23.546 119.204-23.546 59.63 0 59.63 23.546 119.205 23.546 59.63 0 59.63-23.546 119.201-23.546m-953.629 23.547c59.571 0 59.571 23.546 119.203 23.546 59.573 0 59.573-23.546 119.204-23.546 59.572 0 59.572 23.546 119.204 23.546 59.573 0 59.573-23.546 119.204-23.546 59.573 0 59.573 23.546 119.204 23.546 59.572 0 59.572-23.546 119.204-23.546 59.63 0 59.63 23.546 119.205 23.546 59.63 0 59.63-23.546 119.201-23.546M-216.134-30.77c59.571 0 59.571 23.546 119.203 23.546 59.573 0 59.573-23.546 119.204-23.546 59.572 0 59.572 23.546 119.204 23.546 59.573 0 59.573-23.546 119.204-23.546 59.573 0 59.573 23.546 119.204 23.546 59.572 0 59.572-23.546 119.204-23.546 59.63 0 59.63 23.546 119.205 23.546 59.63 0 59.63-23.546 119.201-23.546M-216.134-7.224c59.571 0 59.571 23.548 119.203 23.548 59.573 0 59.573-23.548 119.204-23.548 59.572 0 59.572 23.548 119.204 23.548 59.573 0 59.573-23.548 119.204-23.548 59.573 0 59.573 23.548 119.204 23.548 59.572 0 59.572-23.548 119.204-23.548 59.63 0 59.63 23.548 119.205 23.548 59.63 0 59.63-23.548 119.201-23.548m-953.629 23.548c59.571 0 59.571 23.544 119.203 23.544 59.573 0 59.573-23.544 119.204-23.544 59.572 0 59.572 23.544 119.204 23.544 59.573 0 59.573-23.544 119.204-23.544 59.573 0 59.573 23.544 119.204 23.544 59.572 0 59.572-23.544 119.204-23.544 59.63 0 59.63 23.544 119.205 23.544 59.63 0 59.63-23.544 119.201-23.544m-953.629 23.545c59.571 0 59.571 23.548 119.203 23.548 59.573 0 59.573-23.548 119.204-23.548 59.572 0 59.572 23.548 119.204 23.548 59.573 0 59.573-23.548 119.204-23.548 59.573 0 59.573 23.548 119.204 23.548 59.572 0 59.572-23.548 119.204-23.548 59.63 0 59.63 23.548 119.205 23.548 59.63 0 59.63-23.548 119.201-23.548m-953.629 23.548c59.571 0 59.571 23.545 119.203 23.545 59.573 0 59.573-23.545 119.204-23.545 59.572 0 59.572 23.545 119.204 23.545 59.573 0 59.573-23.545 119.204-23.545 59.573 0 59.573 23.545 119.204 23.545 59.572 0 59.572-23.545 119.204-23.545 59.63 0 59.63 23.545 119.205 23.545 59.63 0 59.63-23.545 119.201-23.545"/><path d="M-216.134 86.961c59.571 0 59.571 23.548 119.203 23.548 59.573 0 59.573-23.548 119.204-23.548 59.572 0 59.572 23.548 119.204 23.548 59.573 0 59.573-23.548 119.204-23.548 59.573 0 59.573 23.548 119.204 23.548 59.572 0 59.572-23.548 119.204-23.548 59.63 0 59.63 23.548 119.205 23.548 59.63 0 59.63-23.548 119.201-23.548m-953.629 23.548c59.571 0 59.571 23.546 119.203 23.546 59.573 0 59.573-23.546 119.204-23.546 59.572 0 59.572 23.546 119.204 23.546 59.573 0 59.573-23.546 119.204-23.546 59.573 0 59.573 23.546 119.204 23.546 59.572 0 59.572-23.546 119.204-23.546 59.63 0 59.63 23.546 119.205 23.546 59.63 0 59.63-23.546 119.201-23.546m-953.629 23.547c59.571 0 59.571 23.546 119.203 23.546 59.573 0 59.573-23.546 119.204-23.546 59.572 0 59.572 23.546 119.204 23.546 59.573 0 59.573-23.546 119.204-23.546 59.573 0 59.573 23.546 119.204 23.546 59.572 0 59.572-23.546 119.204-23.546 59.63 0 59.63 23.546 119.205 23.546 59.63 0 59.63-23.546 119.201-23.546m-953.629 23.546c59.571 0 59.571 23.547 119.203 23.547 59.573 0 59.573-23.547 119.204-23.547 59.572 0 59.572 23.547 119.204 23.547 59.573 0 59.573-23.547 119.204-23.547 59.573 0 59.573 23.547 119.204 23.547 59.572 0 59.572-23.547 119.204-23.547 59.63 0 59.63 23.547 119.205 23.547 59.63 0 59.63-23.547 119.201-23.547"/><path d="M-216.134 181.148c59.571 0 59.571 23.546 119.203 23.546 59.573 0 59.573-23.546 119.204-23.546 59.572 0 59.572 23.546 119.204 23.546 59.573 0 59.573-23.546 119.204-23.546 59.573 0 59.573 23.546 119.204 23.546 59.572 0 59.572-23.546 119.204-23.546 59.63 0 59.63 23.546 119.205 23.546 59.63 0 59.63-23.546 119.201-23.546m-953.629 23.546c59.571 0 59.571 23.548 119.203 23.548 59.573 0 59.573-23.548 119.204-23.548 59.572 0 59.572 23.548 119.204 23.548 59.573 0 59.573-23.548 119.204-23.548 59.573 0 59.573 23.548 119.204 23.548 59.572 0 59.572-23.548 119.204-23.548 59.63 0 59.63 23.548 119.205 23.548 59.63 0 59.63-23.548 119.201-23.548m-953.629 23.548c59.571 0 59.571 23.547 119.203 23.547 59.573 0 59.573-23.547 119.204-23.547 59.572 0 59.572 23.547 119.204 23.547 59.573 0 59.573-23.547 119.204-23.547 59.573 0 59.573 23.547 119.204 23.547 59.572 0 59.572-23.547 119.204-23.547 59.63 0 59.63 23.547 119.205 23.547 59.63 0 59.63-23.547 119.201-23.547m-953.629 23.547c59.571 0 59.571 23.546 119.203 23.546 59.573 0 59.573-23.546 119.204-23.546 59.572 0 59.572 23.546 119.204 23.546 59.573 0 59.573-23.546 119.204-23.546 59.573 0 59.573 23.546 119.204 23.546 59.572 0 59.572-23.546 119.204-23.546 59.63 0 59.63 23.546 119.205 23.546 59.63 0 59.63-23.546 119.201-23.546m-953.629 23.546c59.571 0 59.571 23.546 119.203 23.546 59.573 0 59.573-23.546 119.204-23.546 59.572 0 59.572 23.546 119.204 23.546 59.573 0 59.573-23.546 119.204-23.546 59.573 0 59.573 23.546 119.204 23.546 59.572 0 59.572-23.546 119.204-23.546 59.63 0 59.63 23.546 119.205 23.546 59.63 0 59.63-23.546 119.201-23.546m-953.629 23.546c59.571 0 59.571 23.547 119.203 23.547 59.573 0 59.573-23.547 119.204-23.547 59.572 0 59.572 23.547 119.204 23.547 59.573 0 59.573-23.547 119.204-23.547 59.573 0 59.573 23.547 119.204 23.547 59.572 0 59.572-23.547 119.204-23.547 59.63 0 59.63 23.547 119.205 23.547 59.63 0 59.63-23.547 119.201-23.547m-953.629 23.547c59.571 0 59.571 23.546 119.203 23.546 59.573 0 59.573-23.546 119.204-23.546 59.572 0 59.572 23.546 119.204 23.546 59.573 0 59.573-23.546 119.204-23.546 59.573 0 59.573 23.546 119.204 23.546 59.572 0 59.572-23.546 119.204-23.546 59.63 0 59.63 23.546 119.205 23.546 59.63 0 59.63-23.546 119.201-23.546"/></g></g></svg>