<?xml version="1.0" encoding="utf-8"?>
<!-- Generator: Adobe Illustrator 16.0.0, SVG Export Plug-In . SVG Version: 6.00 Build 0)  -->
<!DOCTYPE svg PUBLIC "-//W3C//DTD SVG 1.1//EN" "http://www.w3.org/Graphics/SVG/1.1/DTD/svg11.dtd">
<svg version="1.1" id="Layer_1" xmlns="http://www.w3.org/2000/svg" xmlns:xlink="http://www.w3.org/1999/xlink" x="0px" y="0px"
	 width="323.63px" height="287.75px" viewBox="0 22.854 323.63 287.75" enable-background="new 0 22.854 323.63 287.75"
	 xml:space="preserve">
<path opacity="0.18" fill="none" stroke="#FFFFFF" stroke-miterlimit="10" d="M0-41.542c40.434,0,40.434,15.982,80.908,15.982
	c40.434,0,40.434-15.982,80.908-15.982c40.434,0,40.434,15.982,80.908,15.982c40.434,0,40.434-15.982,80.908-15.982
	c40.434,0,40.434,15.982,80.908,15.982c40.434,0,40.434-15.982,80.907-15.982c40.474,0,40.474,15.982,80.907,15.982
	c40.475,0,40.475-15.982,80.908-15.982"/>
<path opacity="0.18" fill="none" stroke="#FFFFFF" stroke-miterlimit="10" d="M0-25.56c40.434,0,40.434,15.981,80.908,15.981
	c40.434,0,40.434-15.981,80.908-15.981c40.434,0,40.434,15.981,80.908,15.981c40.434,0,40.434-15.981,80.908-15.981
	c40.434,0,40.434,15.981,80.908,15.981c40.434,0,40.434-15.981,80.907-15.981c40.474,0,40.474,15.981,80.907,15.981
	c40.475,0,40.475-15.981,80.908-15.981 M0-9.579c40.434,0,40.434,15.982,80.908,15.982c40.434,0,40.434-15.982,80.908-15.982
	c40.434,0,40.434,15.982,80.908,15.982c40.434,0,40.434-15.982,80.908-15.982c40.434,0,40.434,15.982,80.908,15.982
	c40.434,0,40.434-15.982,80.907-15.982c40.474,0,40.474,15.982,80.907,15.982c40.475,0,40.475-15.982,80.908-15.982 M0,6.403
	c40.434,0,40.434,15.982,80.908,15.982c40.434,0,40.434-15.982,80.908-15.982c40.434,0,40.434,15.982,80.908,15.982
	c40.434,0,40.434-15.982,80.908-15.982c40.434,0,40.434,15.982,80.908,15.982c40.434,0,40.434-15.982,80.907-15.982
	c40.474,0,40.474,15.982,80.907,15.982c40.475,0,40.475-15.982,80.908-15.982 M0,22.385c40.434,0,40.434,15.982,80.908,15.982
	c40.434,0,40.434-15.982,80.908-15.982c40.434,0,40.434,15.982,80.908,15.982c40.434,0,40.434-15.982,80.908-15.982
	c40.434,0,40.434,15.982,80.908,15.982c40.434,0,40.434-15.982,80.907-15.982c40.474,0,40.474,15.982,80.907,15.982
	c40.475,0,40.475-15.982,80.908-15.982 M0,38.367c40.434,0,40.434,15.981,80.908,15.981c40.434,0,40.434-15.981,80.908-15.981
	c40.434,0,40.434,15.981,80.908,15.981c40.434,0,40.434-15.981,80.908-15.981c40.434,0,40.434,15.981,80.908,15.981
	c40.434,0,40.434-15.981,80.907-15.981c40.474,0,40.474,15.981,80.907,15.981c40.475,0,40.475-15.981,80.908-15.981 M0,54.349
	c40.434,0,40.434,15.981,80.908,15.981c40.434,0,40.434-15.981,80.908-15.981c40.434,0,40.434,15.981,80.908,15.981
	c40.434,0,40.434-15.981,80.908-15.981c40.434,0,40.434,15.981,80.908,15.981c40.434,0,40.434-15.981,80.907-15.981
	c40.474,0,40.474,15.981,80.907,15.981c40.475,0,40.475-15.981,80.908-15.981"/>
<path opacity="0.18" fill="none" stroke="#FFFFFF" stroke-miterlimit="10" d="M0,70.33c40.434,0,40.434,15.982,80.908,15.982
	c40.434,0,40.434-15.982,80.908-15.982c40.434,0,40.434,15.982,80.908,15.982c40.434,0,40.434-15.982,80.908-15.982
	c40.434,0,40.434,15.982,80.908,15.982c40.434,0,40.434-15.982,80.907-15.982c40.474,0,40.474,15.982,80.907,15.982
	c40.475,0,40.475-15.982,80.908-15.982 M0,86.312c40.434,0,40.434,15.982,80.908,15.982c40.434,0,40.434-15.982,80.908-15.982
	c40.434,0,40.434,15.982,80.908,15.982c40.434,0,40.434-15.982,80.908-15.982c40.434,0,40.434,15.982,80.908,15.982
	c40.434,0,40.434-15.982,80.907-15.982c40.474,0,40.474,15.982,80.907,15.982c40.475,0,40.475-15.982,80.908-15.982 M0,102.294
	c40.434,0,40.434,15.982,80.908,15.982c40.434,0,40.434-15.982,80.908-15.982c40.434,0,40.434,15.982,80.908,15.982
	c40.434,0,40.434-15.982,80.908-15.982c40.434,0,40.434,15.982,80.908,15.982c40.434,0,40.434-15.982,80.907-15.982
	c40.474,0,40.474,15.982,80.907,15.982c40.475,0,40.475-15.982,80.908-15.982 M0,118.276c40.434,0,40.434,15.981,80.908,15.981
	c40.434,0,40.434-15.981,80.908-15.981c40.434,0,40.434,15.981,80.908,15.981c40.434,0,40.434-15.981,80.908-15.981
	c40.434,0,40.434,15.981,80.908,15.981c40.434,0,40.434-15.981,80.907-15.981c40.474,0,40.474,15.981,80.907,15.981
	c40.475,0,40.475-15.981,80.908-15.981 M0,134.257c40.434,0,40.434,15.982,80.908,15.982c40.434,0,40.434-15.982,80.908-15.982
	c40.434,0,40.434,15.982,80.908,15.982c40.434,0,40.434-15.982,80.908-15.982c40.434,0,40.434,15.982,80.908,15.982
	c40.434,0,40.434-15.982,80.907-15.982c40.474,0,40.474,15.982,80.907,15.982c40.475,0,40.475-15.982,80.908-15.982 M0,150.239
	c40.434,0,40.434,15.982,80.908,15.982c40.434,0,40.434-15.982,80.908-15.982c40.434,0,40.434,15.982,80.908,15.982
	c40.434,0,40.434-15.982,80.908-15.982c40.434,0,40.434,15.982,80.908,15.982c40.434,0,40.434-15.982,80.907-15.982
	c40.474,0,40.474,15.982,80.907,15.982c40.475,0,40.475-15.982,80.908-15.982 M0,166.222c40.434,0,40.434,15.981,80.908,15.981
	c40.434,0,40.434-15.981,80.908-15.981c40.434,0,40.434,15.981,80.908,15.981c40.434,0,40.434-15.981,80.908-15.981
	c40.434,0,40.434,15.981,80.908,15.981c40.434,0,40.434-15.981,80.907-15.981c40.474,0,40.474,15.981,80.907,15.981
	c40.475,0,40.475-15.981,80.908-15.981"/>
<path opacity="0.18" fill="none" stroke="#FFFFFF" stroke-miterlimit="10" d="M0,182.203c40.434,0,40.434,15.981,80.908,15.981
	c40.434,0,40.434-15.981,80.908-15.981c40.434,0,40.434,15.981,80.908,15.981c40.434,0,40.434-15.981,80.908-15.981
	c40.434,0,40.434,15.981,80.908,15.981c40.434,0,40.434-15.981,80.907-15.981c40.474,0,40.474,15.981,80.907,15.981
	c40.475,0,40.475-15.981,80.908-15.981 M0,198.184c40.434,0,40.434,15.982,80.908,15.982c40.434,0,40.434-15.982,80.908-15.982
	c40.434,0,40.434,15.982,80.908,15.982c40.434,0,40.434-15.982,80.908-15.982c40.434,0,40.434,15.982,80.908,15.982
	c40.434,0,40.434-15.982,80.907-15.982c40.474,0,40.474,15.982,80.907,15.982c40.475,0,40.475-15.982,80.908-15.982 M0,214.167
	c40.434,0,40.434,15.981,80.908,15.981c40.434,0,40.434-15.981,80.908-15.981c40.434,0,40.434,15.981,80.908,15.981
	c40.434,0,40.434-15.981,80.908-15.981c40.434,0,40.434,15.981,80.908,15.981c40.434,0,40.434-15.981,80.907-15.981
	c40.474,0,40.474,15.981,80.907,15.981c40.475,0,40.475-15.981,80.908-15.981 M0,230.147c40.434,0,40.434,15.982,80.908,15.982
	c40.434,0,40.434-15.982,80.908-15.982c40.434,0,40.434,15.982,80.908,15.982c40.434,0,40.434-15.982,80.908-15.982
	c40.434,0,40.434,15.982,80.908,15.982c40.434,0,40.434-15.982,80.907-15.982c40.474,0,40.474,15.982,80.907,15.982
	c40.475,0,40.475-15.982,80.908-15.982 M0,246.13c40.434,0,40.434,15.981,80.908,15.981c40.434,0,40.434-15.981,80.908-15.981
	c40.434,0,40.434,15.981,80.908,15.981c40.434,0,40.434-15.981,80.908-15.981c40.434,0,40.434,15.981,80.908,15.981
	c40.434,0,40.434-15.981,80.907-15.981c40.474,0,40.474,15.981,80.907,15.981c40.475,0,40.475-15.981,80.908-15.981 M0,262.111
	c40.434,0,40.434,15.982,80.908,15.982c40.434,0,40.434-15.982,80.908-15.982c40.434,0,40.434,15.982,80.908,15.982
	c40.434,0,40.434-15.982,80.908-15.982c40.434,0,40.434,15.982,80.908,15.982c40.434,0,40.434-15.982,80.907-15.982
	c40.474,0,40.474,15.982,80.907,15.982c40.475,0,40.475-15.982,80.908-15.982 M0,278.093c40.434,0,40.434,15.981,80.908,15.981
	c40.434,0,40.434-15.981,80.908-15.981c40.434,0,40.434,15.981,80.908,15.981c40.434,0,40.434-15.981,80.908-15.981
	c40.434,0,40.434,15.981,80.908,15.981c40.434,0,40.434-15.981,80.907-15.981c40.474,0,40.474,15.981,80.907,15.981
	c40.475,0,40.475-15.981,80.908-15.981 M0,294.075c40.434,0,40.434,15.982,80.908,15.982c40.434,0,40.434-15.982,80.908-15.982
	c40.434,0,40.434,15.982,80.908,15.982c40.434,0,40.434-15.982,80.908-15.982c40.434,0,40.434,15.982,80.908,15.982
	c40.434,0,40.434-15.982,80.907-15.982c40.474,0,40.474,15.982,80.907,15.982c40.475,0,40.475-15.982,80.908-15.982 M0,310.057
	c40.434,0,40.434,15.981,80.908,15.981c40.434,0,40.434-15.981,80.908-15.981c40.434,0,40.434,15.981,80.908,15.981
	c40.434,0,40.434-15.981,80.908-15.981c40.434,0,40.434,15.981,80.908,15.981c40.434,0,40.434-15.981,80.907-15.981
	c40.474,0,40.474,15.981,80.907,15.981c40.475,0,40.475-15.981,80.908-15.981"/>
<path opacity="0.18" fill="none" stroke="#FFFFFF" stroke-miterlimit="10" d="M0,326.039c40.434,0,40.434,15.982,80.908,15.982
	c40.434,0,40.434-15.982,80.908-15.982c40.434,0,40.434,15.982,80.908,15.982c40.434,0,40.434-15.982,80.908-15.982
	c40.434,0,40.434,15.982,80.908,15.982c40.434,0,40.434-15.982,80.907-15.982c40.474,0,40.474,15.982,80.907,15.982
	c40.475,0,40.475-15.982,80.908-15.982 M0,342.021c40.434,0,40.434,15.982,80.908,15.982c40.434,0,40.434-15.982,80.908-15.982
	c40.434,0,40.434,15.982,80.908,15.982c40.434,0,40.434-15.982,80.908-15.982c40.434,0,40.434,15.982,80.908,15.982
	c40.434,0,40.434-15.982,80.907-15.982c40.474,0,40.474,15.982,80.907,15.982c40.475,0,40.475-15.982,80.908-15.982 M0,358.002
	c40.434,0,40.434,15.981,80.908,15.981c40.434,0,40.434-15.981,80.908-15.981c40.434,0,40.434,15.981,80.908,15.981
	c40.434,0,40.434-15.981,80.908-15.981c40.434,0,40.434,15.981,80.908,15.981c40.434,0,40.434-15.981,80.907-15.981
	c40.474,0,40.474,15.981,80.907,15.981c40.475,0,40.475-15.981,80.908-15.981 M0,373.984c40.434,0,40.434,15.981,80.908,15.981
	c40.434,0,40.434-15.981,80.908-15.981c40.434,0,40.434,15.981,80.908,15.981c40.434,0,40.434-15.981,80.908-15.981
	c40.434,0,40.434,15.981,80.908,15.981c40.434,0,40.434-15.981,80.907-15.981c40.474,0,40.474,15.981,80.907,15.981
	c40.475,0,40.475-15.981,80.908-15.981 M0,389.965c40.434,0,40.434,15.982,80.908,15.982c40.434,0,40.434-15.982,80.908-15.982
	c40.434,0,40.434,15.982,80.908,15.982c40.434,0,40.434-15.982,80.908-15.982c40.434,0,40.434,15.982,80.908,15.982
	c40.434,0,40.434-15.982,80.907-15.982c40.474,0,40.474,15.982,80.907,15.982c40.475,0,40.475-15.982,80.908-15.982 M0,405.947
	c40.434,0,40.434,15.982,80.908,15.982c40.434,0,40.434-15.982,80.908-15.982c40.434,0,40.434,15.982,80.908,15.982
	c40.434,0,40.434-15.982,80.908-15.982c40.434,0,40.434,15.982,80.908,15.982c40.434,0,40.434-15.982,80.907-15.982
	c40.474,0,40.474,15.982,80.907,15.982c40.475,0,40.475-15.982,80.908-15.982 M0,421.93c40.434,0,40.434,15.981,80.908,15.981
	c40.434,0,40.434-15.981,80.908-15.981c40.434,0,40.434,15.981,80.908,15.981c40.434,0,40.434-15.981,80.908-15.981
	c40.434,0,40.434,15.981,80.908,15.981c40.434,0,40.434-15.981,80.907-15.981c40.474,0,40.474,15.981,80.907,15.981
	c40.475,0,40.475-15.981,80.908-15.981 M0,437.911c40.434,0,40.434,15.981,80.908,15.981c40.434,0,40.434-15.981,80.908-15.981
	c40.434,0,40.434,15.981,80.908,15.981c40.434,0,40.434-15.981,80.908-15.981c40.434,0,40.434,15.981,80.908,15.981
	c40.434,0,40.434-15.981,80.907-15.981c40.474,0,40.474,15.981,80.907,15.981c40.475,0,40.475-15.981,80.908-15.981 M0,453.893
	c40.434,0,40.434,15.981,80.908,15.981c40.434,0,40.434-15.981,80.908-15.981c40.434,0,40.434,15.981,80.908,15.981
	c40.434,0,40.434-15.981,80.908-15.981c40.434,0,40.434,15.981,80.908,15.981c40.434,0,40.434-15.981,80.907-15.981
	c40.474,0,40.474,15.981,80.907,15.981c40.475,0,40.475-15.981,80.908-15.981"/>
</svg>
