<?xml version="1.0" encoding="utf-8"?>
<!-- Generator: Adobe Illustrator 16.0.0, SVG Export Plug-In . SVG Version: 6.00 Build 0)  -->
<!DOCTYPE svg PUBLIC "-//W3C//DTD SVG 1.1//EN" "http://www.w3.org/Graphics/SVG/1.1/DTD/svg11.dtd">
<svg version="1.1" id="Layer_1" xmlns="http://www.w3.org/2000/svg" xmlns:xlink="http://www.w3.org/1999/xlink" x="0px" y="0px"
	 width="500px" height="250px" viewBox="0 0 500 250" enable-background="new 0 0 500 250" xml:space="preserve">
<g>
	<g>
		<path fill="#49BB92" d="M508,328c0,4.971-4.029,9-9,9H0c-4.971,0-9-4.029-9-9v-429c0-4.971,4.029-9,9-9h499c4.971,0,9,4.029,9,9
			V328z"/>
	</g>
	<g opacity="0.15">
		<g>
			<defs>
				<path id="SVGID_1_" d="M509,328c0,4.95-4.05,9-9,9H1c-4.95,0-9-4.05-9-9v-429c0-4.95,4.05-9,9-9h499c4.95,0,9,4.05,9,9V328z"/>
			</defs>
			<clipPath id="SVGID_2_">
				<use xlink:href="#SVGID_1_"  overflow="visible"/>
			</clipPath>
		</g>
		<g>
			<defs>
				<path id="SVGID_3_" d="M509,328c0,4.95-4.05,9-9,9H1c-4.95,0-9-4.05-9-9v-429c0-4.95,4.05-9,9-9h499c4.95,0,9,4.05,9,9V328z"/>
			</defs>
			<clipPath id="SVGID_4_">
				<use xlink:href="#SVGID_3_"  overflow="visible"/>
			</clipPath>
			<g clip-path="url(#SVGID_4_)">
				<g>
					<path fill="none" stroke="#FFFFFF" stroke-miterlimit="10" d="M-216.134-124.956c59.571,0,59.571,23.546,119.203,23.546
						c59.573,0,59.573-23.546,119.204-23.546c59.572,0,59.572,23.546,119.204,23.546c59.573,0,59.573-23.546,119.204-23.546
						c59.573,0,59.573,23.546,119.204,23.546c59.572,0,59.572-23.546,119.204-23.546c59.63,0,59.63,23.546,119.205,23.546
						c59.63,0,59.63-23.546,119.201-23.546"/>
				</g>
				<g>
					<path fill="none" stroke="#FFFFFF" stroke-miterlimit="10" d="M-216.134-101.409c59.571,0,59.571,23.546,119.203,23.546
						c59.573,0,59.573-23.546,119.204-23.546c59.572,0,59.572,23.546,119.204,23.546c59.573,0,59.573-23.546,119.204-23.546
						c59.573,0,59.573,23.546,119.204,23.546c59.572,0,59.572-23.546,119.204-23.546c59.63,0,59.63,23.546,119.205,23.546
						c59.63,0,59.63-23.546,119.201-23.546"/>
				</g>
				<g>
					<path fill="none" stroke="#FFFFFF" stroke-miterlimit="10" d="M-216.134-77.863c59.571,0,59.571,23.546,119.203,23.546
						c59.573,0,59.573-23.546,119.204-23.546c59.572,0,59.572,23.546,119.204,23.546c59.573,0,59.573-23.546,119.204-23.546
						c59.573,0,59.573,23.546,119.204,23.546c59.572,0,59.572-23.546,119.204-23.546c59.63,0,59.63,23.546,119.205,23.546
						c59.63,0,59.63-23.546,119.201-23.546"/>
				</g>
				<g>
					<path fill="none" stroke="#FFFFFF" stroke-miterlimit="10" d="M-216.134-54.316c59.571,0,59.571,23.546,119.203,23.546
						c59.573,0,59.573-23.546,119.204-23.546c59.572,0,59.572,23.546,119.204,23.546c59.573,0,59.573-23.546,119.204-23.546
						c59.573,0,59.573,23.546,119.204,23.546c59.572,0,59.572-23.546,119.204-23.546c59.63,0,59.63,23.546,119.205,23.546
						c59.63,0,59.63-23.546,119.201-23.546"/>
				</g>
				<g>
					<path fill="none" stroke="#FFFFFF" stroke-miterlimit="10" d="M-216.134-30.77c59.571,0,59.571,23.546,119.203,23.546
						c59.573,0,59.573-23.546,119.204-23.546c59.572,0,59.572,23.546,119.204,23.546c59.573,0,59.573-23.546,119.204-23.546
						c59.573,0,59.573,23.546,119.204,23.546c59.572,0,59.572-23.546,119.204-23.546c59.63,0,59.63,23.546,119.205,23.546
						c59.63,0,59.63-23.546,119.201-23.546"/>
				</g>
				<g>
					<path fill="none" stroke="#FFFFFF" stroke-miterlimit="10" d="M-216.134-7.224c59.571,0,59.571,23.548,119.203,23.548
						c59.573,0,59.573-23.548,119.204-23.548c59.572,0,59.572,23.548,119.204,23.548c59.573,0,59.573-23.548,119.204-23.548
						c59.573,0,59.573,23.548,119.204,23.548c59.572,0,59.572-23.548,119.204-23.548c59.63,0,59.63,23.548,119.205,23.548
						c59.63,0,59.63-23.548,119.201-23.548"/>
				</g>
				<g>
					<path fill="none" stroke="#FFFFFF" stroke-miterlimit="10" d="M-216.134,16.324c59.571,0,59.571,23.544,119.203,23.544
						c59.573,0,59.573-23.544,119.204-23.544c59.572,0,59.572,23.544,119.204,23.544c59.573,0,59.573-23.544,119.204-23.544
						c59.573,0,59.573,23.544,119.204,23.544c59.572,0,59.572-23.544,119.204-23.544c59.63,0,59.63,23.544,119.205,23.544
						c59.63,0,59.63-23.544,119.201-23.544"/>
				</g>
				<g>
					<path fill="none" stroke="#FFFFFF" stroke-miterlimit="10" d="M-216.134,39.869c59.571,0,59.571,23.548,119.203,23.548
						c59.573,0,59.573-23.548,119.204-23.548c59.572,0,59.572,23.548,119.204,23.548c59.573,0,59.573-23.548,119.204-23.548
						c59.573,0,59.573,23.548,119.204,23.548c59.572,0,59.572-23.548,119.204-23.548c59.63,0,59.63,23.548,119.205,23.548
						c59.63,0,59.63-23.548,119.201-23.548"/>
				</g>
				<g>
					<path fill="none" stroke="#FFFFFF" stroke-miterlimit="10" d="M-216.134,63.417c59.571,0,59.571,23.545,119.203,23.545
						c59.573,0,59.573-23.545,119.204-23.545c59.572,0,59.572,23.545,119.204,23.545c59.573,0,59.573-23.545,119.204-23.545
						c59.573,0,59.573,23.545,119.204,23.545c59.572,0,59.572-23.545,119.204-23.545c59.63,0,59.63,23.545,119.205,23.545
						c59.63,0,59.63-23.545,119.201-23.545"/>
				</g>
				<g>
					<path fill="none" stroke="#FFFFFF" stroke-miterlimit="10" d="M-216.134,86.961c59.571,0,59.571,23.548,119.203,23.548
						c59.573,0,59.573-23.548,119.204-23.548c59.572,0,59.572,23.548,119.204,23.548c59.573,0,59.573-23.548,119.204-23.548
						c59.573,0,59.573,23.548,119.204,23.548c59.572,0,59.572-23.548,119.204-23.548c59.63,0,59.63,23.548,119.205,23.548
						c59.63,0,59.63-23.548,119.201-23.548"/>
				</g>
				<g>
					<path fill="none" stroke="#FFFFFF" stroke-miterlimit="10" d="M-216.134,110.509c59.571,0,59.571,23.546,119.203,23.546
						c59.573,0,59.573-23.546,119.204-23.546c59.572,0,59.572,23.546,119.204,23.546c59.573,0,59.573-23.546,119.204-23.546
						c59.573,0,59.573,23.546,119.204,23.546c59.572,0,59.572-23.546,119.204-23.546c59.63,0,59.63,23.546,119.205,23.546
						c59.63,0,59.63-23.546,119.201-23.546"/>
				</g>
				<g>
					<path fill="none" stroke="#FFFFFF" stroke-miterlimit="10" d="M-216.134,134.056c59.571,0,59.571,23.546,119.203,23.546
						c59.573,0,59.573-23.546,119.204-23.546c59.572,0,59.572,23.546,119.204,23.546c59.573,0,59.573-23.546,119.204-23.546
						c59.573,0,59.573,23.546,119.204,23.546c59.572,0,59.572-23.546,119.204-23.546c59.63,0,59.63,23.546,119.205,23.546
						c59.63,0,59.63-23.546,119.201-23.546"/>
				</g>
				<g>
					<path fill="none" stroke="#FFFFFF" stroke-miterlimit="10" d="M-216.134,157.602c59.571,0,59.571,23.547,119.203,23.547
						c59.573,0,59.573-23.547,119.204-23.547c59.572,0,59.572,23.547,119.204,23.547c59.573,0,59.573-23.547,119.204-23.547
						c59.573,0,59.573,23.547,119.204,23.547c59.572,0,59.572-23.547,119.204-23.547c59.63,0,59.63,23.547,119.205,23.547
						c59.63,0,59.63-23.547,119.201-23.547"/>
				</g>
				<g>
					<path fill="none" stroke="#FFFFFF" stroke-miterlimit="10" d="M-216.134,181.148c59.571,0,59.571,23.546,119.203,23.546
						c59.573,0,59.573-23.546,119.204-23.546c59.572,0,59.572,23.546,119.204,23.546c59.573,0,59.573-23.546,119.204-23.546
						c59.573,0,59.573,23.546,119.204,23.546c59.572,0,59.572-23.546,119.204-23.546c59.63,0,59.63,23.546,119.205,23.546
						c59.63,0,59.63-23.546,119.201-23.546"/>
				</g>
				<g>
					<path fill="none" stroke="#FFFFFF" stroke-miterlimit="10" d="M-216.134,204.694c59.571,0,59.571,23.548,119.203,23.548
						c59.573,0,59.573-23.548,119.204-23.548c59.572,0,59.572,23.548,119.204,23.548c59.573,0,59.573-23.548,119.204-23.548
						c59.573,0,59.573,23.548,119.204,23.548c59.572,0,59.572-23.548,119.204-23.548c59.63,0,59.63,23.548,119.205,23.548
						c59.63,0,59.63-23.548,119.201-23.548"/>
				</g>
				<g>
					<path fill="none" stroke="#FFFFFF" stroke-miterlimit="10" d="M-216.134,228.242c59.571,0,59.571,23.547,119.203,23.547
						c59.573,0,59.573-23.547,119.204-23.547c59.572,0,59.572,23.547,119.204,23.547c59.573,0,59.573-23.547,119.204-23.547
						c59.573,0,59.573,23.547,119.204,23.547c59.572,0,59.572-23.547,119.204-23.547c59.63,0,59.63,23.547,119.205,23.547
						c59.63,0,59.63-23.547,119.201-23.547"/>
				</g>
				<g>
					<path fill="none" stroke="#FFFFFF" stroke-miterlimit="10" d="M-216.134,251.789c59.571,0,59.571,23.546,119.203,23.546
						c59.573,0,59.573-23.546,119.204-23.546c59.572,0,59.572,23.546,119.204,23.546c59.573,0,59.573-23.546,119.204-23.546
						c59.573,0,59.573,23.546,119.204,23.546c59.572,0,59.572-23.546,119.204-23.546c59.63,0,59.63,23.546,119.205,23.546
						c59.63,0,59.63-23.546,119.201-23.546"/>
				</g>
				<g>
					<path fill="none" stroke="#FFFFFF" stroke-miterlimit="10" d="M-216.134,275.335c59.571,0,59.571,23.546,119.203,23.546
						c59.573,0,59.573-23.546,119.204-23.546c59.572,0,59.572,23.546,119.204,23.546c59.573,0,59.573-23.546,119.204-23.546
						c59.573,0,59.573,23.546,119.204,23.546c59.572,0,59.572-23.546,119.204-23.546c59.63,0,59.63,23.546,119.205,23.546
						c59.63,0,59.63-23.546,119.201-23.546"/>
				</g>
				<g>
					<path fill="none" stroke="#FFFFFF" stroke-miterlimit="10" d="M-216.134,298.881c59.571,0,59.571,23.547,119.203,23.547
						c59.573,0,59.573-23.547,119.204-23.547c59.572,0,59.572,23.547,119.204,23.547c59.573,0,59.573-23.547,119.204-23.547
						c59.573,0,59.573,23.547,119.204,23.547c59.572,0,59.572-23.547,119.204-23.547c59.63,0,59.63,23.547,119.205,23.547
						c59.63,0,59.63-23.547,119.201-23.547"/>
				</g>
				<g>
					<path fill="none" stroke="#FFFFFF" stroke-miterlimit="10" d="M-216.134,322.428c59.571,0,59.571,23.546,119.203,23.546
						c59.573,0,59.573-23.546,119.204-23.546c59.572,0,59.572,23.546,119.204,23.546c59.573,0,59.573-23.546,119.204-23.546
						c59.573,0,59.573,23.546,119.204,23.546c59.572,0,59.572-23.546,119.204-23.546c59.63,0,59.63,23.546,119.205,23.546
						c59.63,0,59.63-23.546,119.201-23.546"/>
				</g>
			</g>
		</g>
		<g>
			<defs>
				<path id="SVGID_5_" d="M509,328c0,4.95-4.05,9-9,9H1c-4.95,0-9-4.05-9-9v-429c0-4.95,4.05-9,9-9h499c4.95,0,9,4.05,9,9V328z"/>
			</defs>
			<clipPath id="SVGID_6_">
				<use xlink:href="#SVGID_5_"  overflow="visible"/>
			</clipPath>
		</g>
	</g>
</g>
</svg>
