<?xml version="1.0" encoding="utf-8"?>
<!-- Generator: Adobe Illustrator 16.0.0, SVG Export Plug-In . SVG Version: 6.00 Build 0)  -->
<!DOCTYPE svg PUBLIC "-//W3C//DTD SVG 1.1//EN" "http://www.w3.org/Graphics/SVG/1.1/DTD/svg11.dtd">
<svg version="1.1" id="Layer_1" xmlns="http://www.w3.org/2000/svg" xmlns:xlink="http://www.w3.org/1999/xlink" x="0px" y="0px"
	 width="500px" height="250px" viewBox="0 0 500 250" enable-background="new 0 0 500 250" xml:space="preserve">
<g>
	<g>
		<path fill="#E18932" d="M504,340c0,4.971-4.029,9-9,9H9c-4.971,0-9-4.029-9-9V-78c0-4.971,4.029-9,9-9h486c4.971,0,9,4.029,9,9
			V340z"/>
	</g>
	<g>
		<g>
			<defs>
				<path id="SVGID_1_" d="M502,342c0,4.95-4.05,9-9,9H7c-4.95,0-9-4.05-9-9V-76c0-4.95,4.05-9,9-9h486c4.95,0,9,4.05,9,9V342z"/>
			</defs>
			<clipPath id="SVGID_2_">
				<use xlink:href="#SVGID_1_"  overflow="visible"/>
			</clipPath>
		</g>
		<g>
			<defs>
				<path id="SVGID_3_" d="M502,342c0,4.95-4.05,9-9,9H7c-4.95,0-9-4.05-9-9V-76c0-4.95,4.05-9,9-9h486c4.95,0,9,4.05,9,9V342z"/>
			</defs>
			<clipPath id="SVGID_4_">
				<use xlink:href="#SVGID_3_"  overflow="visible"/>
			</clipPath>
			<g clip-path="url(#SVGID_4_)">
				<g>
					<path fill="#E89442" d="M-35.087-99.434h-112.811c-4.95,0-10.265,1.265-11.811,2.811c-1.546,1.546-6.185,2.811-10.308,2.811
						c-4.123,0-8.761-1.265-10.307-2.811c-1.546-1.546-6.861-2.811-11.811-2.811h-9.74c-3.093,0-3.093,0-3.093,0
						c-1.391,3.285-2.529,10.023-2.529,14.973v20.984c0,3.091,0,3.091,0,3.091c3.092,1.199,9.672,2.18,14.622,2.18h0.74
						c4.95,0,10.265,1.265,11.811,2.812s6.185,2.812,10.307,2.812c4.123,0,8.762-1.265,10.308-2.812s6.861-2.812,11.811-2.812
						h112.811c3.092,0,3.092,0,3.092,0c1.391-2.899,2.529-9.321,2.529-14.271V-93.46C-29.465-96.553-31.995-99.434-35.087-99.434"/>
				</g>
				<g>
					<path fill="#E89442" d="M510.253-99.434H397.442c-4.95,0-10.265,1.265-11.812,2.811c-1.546,1.546-6.184,2.811-10.307,2.811
						c-4.124,0-8.762-1.265-10.309-2.811c-1.546-1.546-6.86-2.811-11.811-2.811h-9.74c-3.093,0-3.093,0-3.093,0
						c-1.391,3.285-2.528,10.023-2.528,14.973v20.984c0,3.091,0,3.091,0,3.091c3.092,1.199,9.671,2.18,14.621,2.18h0.74
						c4.95,0,10.265,1.265,11.811,2.812c1.547,1.546,6.185,2.812,10.309,2.812c4.123,0,8.761-1.265,10.307-2.812
						c1.547-1.546,6.861-2.812,11.812-2.812h112.811c3.094,0,3.094,0,3.094,0c1.392-2.899,2.529-9.321,2.529-14.271V-93.46
						C515.876-96.553,513.347-99.434,510.253-99.434"/>
				</g>
				<g>
					<path fill="#E89442" d="M-35.087-9.48h-112.811c-4.95,0-10.265,1.265-11.811,2.811c-1.546,1.546-6.185,2.811-10.308,2.811
						c-4.123,0-8.761-1.265-10.307-2.811c-1.546-1.546-6.861-2.811-11.811-2.811h-9.74c-3.093,0-3.093,0-3.093,0
						c-1.391,3.285-2.529,10.022-2.529,14.973v20.984c0,3.092,0,3.092,0,3.092c3.092,1.199,9.672,2.18,14.622,2.18h0.74
						c4.95,0,10.265,1.265,11.811,2.811c1.546,1.546,6.185,2.811,10.307,2.811c4.123,0,8.762-1.265,10.308-2.811
						c1.546-1.546,6.861-2.811,11.811-2.811h112.811c3.092,0,3.092,0,3.092,0c1.391-2.899,2.529-9.322,2.529-14.272V-3.508
						C-29.465-6.6-31.995-9.48-35.087-9.48"/>
				</g>
				<g>
					<path fill="#E89442" d="M328.473-99.434H215.661c-4.95,0-10.265,1.265-11.811,2.811c-1.546,1.546-6.184,2.811-10.307,2.811
						s-8.76-1.265-10.306-2.811c-1.546-1.546-6.861-2.811-11.811-2.811h-9.741c-3.093,0-3.093,0-3.093,0
						c-1.391,3.285-2.529,10.023-2.529,14.973v20.984c0,3.091,0,3.091,0,3.091c3.092,1.199,9.672,2.18,14.622,2.18h38.22
						c4.95,0,10.265,1.265,11.811,2.812s6.185,2.812,10.308,2.812c4.123,0,8.761-1.265,10.307-2.812s6.861-2.812,11.811-2.812h75.33
						c3.094,0,3.094,0,3.094,0c1.391-2.899,2.529-9.321,2.529-14.271V-93.46C334.096-96.553,331.566-99.434,328.473-99.434"/>
				</g>
				<g>
					<path fill="#E89442" d="M360.331-9.48H253.143c-4.95,0-10.265,1.265-11.811,2.811c-1.546,1.546-6.185,2.811-10.307,2.811
						c-4.123,0-8.762-1.265-10.308-2.811c-1.546-1.546-6.861-2.811-11.811-2.811h-47.22c-3.093,0-3.093,0-3.093,0
						c-1.391,3.285-2.529,10.022-2.529,14.973v20.984c0,3.092,0,3.092,0,3.092c3.092,1.199,9.672,2.18,14.622,2.18h38.22
						c4.95,0,10.265,1.265,11.811,2.811c1.546,1.546,6.185,2.811,10.308,2.811c4.123,0,8.761-1.265,10.307-2.811
						c1.546-1.546,6.861-2.811,11.811-2.811h107.188c3.093,0,3.093,0,3.093,0c1.391-2.899,2.529-9.322,2.529-14.272V-3.508
						C365.953-6.6,363.424-9.48,360.331-9.48"/>
				</g>
				<g>
					<path fill="#E89442" d="M510.253-9.48h-75.331c-4.95,0-10.265,1.265-11.811,2.811c-1.547,1.546-6.185,2.811-10.307,2.811
						c-4.123,0-8.762-1.265-10.308-2.811c-1.546-1.546-6.861-2.811-11.812-2.811h-15.363c-3.092,0-3.092,0-3.092,0
						c-1.391,3.285-2.529,10.022-2.529,14.973v20.984c0,3.092,0,3.092,0,3.092c3.092,1.199,9.671,2.18,14.621,2.18h6.363
						c4.95,0,10.266,1.265,11.812,2.811c1.546,1.546,6.185,2.811,10.308,2.811c4.122,0,8.76-1.265,10.307-2.811
						c1.546-1.546,6.86-2.811,11.811-2.811h75.331c3.094,0,3.094,0,3.094,0c1.392-2.899,2.529-9.322,2.529-14.272V-3.508
						C515.876-6.6,513.347-9.48,510.253-9.48"/>
				</g>
				<g>
					<path fill="#E89442" d="M146.692-99.434H33.881c-4.95,0-10.265,1.265-11.811,2.811c-1.546,1.546-6.184,2.811-10.307,2.811
						s-8.761-1.265-10.307-2.811c-1.546-1.546-6.861-2.811-11.811-2.811h-9.741c-3.093,0-3.093,0-3.093,0
						c-1.391,3.285-2.529,10.023-2.529,14.973v20.984c0,3.091,0,3.091,0,3.091c3.092,1.199,9.672,2.18,14.622,2.18h0.741
						c4.95,0,10.265,1.265,11.811,2.812c1.546,1.546,6.184,2.812,10.307,2.812s8.761-1.265,10.307-2.812
						c1.546-1.546,6.861-2.812,11.811-2.812h112.811c3.093,0,3.093,0,3.093,0c1.391-2.899,2.529-9.321,2.529-14.271V-93.46
						C152.314-96.553,149.785-99.434,146.692-99.434"/>
				</g>
				<g>
					<path fill="#E89442" d="M146.692-9.48H33.881c-4.95,0-10.265,1.265-11.811,2.811c-1.546,1.546-6.184,2.811-10.307,2.811
						S3.002-5.124,1.456-6.67C-0.09-8.216-5.405-9.48-10.355-9.48h-9.741c-3.093,0-3.093,0-3.093,0
						c-1.391,3.285-2.529,10.022-2.529,14.973v20.984c0,3.092,0,3.092,0,3.092c3.092,1.199,9.672,2.18,14.622,2.18h0.741
						c4.95,0,10.265,1.265,11.811,2.811c1.546,1.546,6.184,2.811,10.307,2.811s8.761-1.265,10.307-2.811
						c1.546-1.546,6.861-2.811,11.811-2.811h112.811c3.093,0,3.093,0,3.093,0c1.391-2.899,2.529-9.322,2.529-14.272V-3.508
						C152.314-6.6,149.785-9.48,146.692-9.48"/>
				</g>
				<g>
					<path fill="#E89442" d="M-72.567-54.457h-75.331c-4.95,0-10.265,1.265-11.811,2.811c-1.546,1.546-6.185,2.811-10.308,2.811
						c-4.123,0-8.761-1.265-10.307-2.811c-1.546-1.546-6.861-2.811-11.811-2.811h-9.74c-3.093,0-3.093,0-3.093,0
						c-1.391,3.285-2.529,10.023-2.529,14.973v20.984c0,3.091,0,3.091,0,3.091c3.092,1.198,9.672,2.179,14.622,2.179h0.74
						c4.95,0,10.265,1.265,11.811,2.811s6.185,2.811,10.307,2.811c4.123,0,8.762-1.265,10.308-2.811s6.861-2.811,11.811-2.811
						h75.331c3.093,0,3.093,0,3.093,0c1.392-2.898,2.53-9.32,2.53-14.27v-20.984C-66.945-51.576-69.475-54.457-72.567-54.457"/>
				</g>
				<g>
					<path fill="#E89442" d="M328.473-54.457h-75.33c-4.95,0-10.265,1.265-11.811,2.811c-1.546,1.546-6.185,2.811-10.307,2.811
						c-4.123,0-8.762-1.265-10.308-2.811c-1.546-1.546-6.861-2.811-11.811-2.811h-9.741c-3.093,0-3.093,0-3.093,0
						c-1.391,3.285-2.529,10.023-2.529,14.973v20.984c0,3.091,0,3.091,0,3.091c3.092,1.198,9.671,2.179,14.622,2.179h0.741
						c4.95,0,10.265,1.265,11.811,2.811s6.185,2.811,10.308,2.811c4.123,0,8.761-1.265,10.307-2.811s6.861-2.811,11.811-2.811h75.33
						c3.094,0,3.094,0,3.094,0c1.391-2.898,2.529-9.32,2.529-14.27v-20.984C334.096-51.576,331.566-54.457,328.473-54.457"/>
				</g>
				<g>
					<path fill="#E89442" d="M472.772-54.457h-75.33c-4.95,0-10.265,1.265-11.812,2.811c-1.546,1.546-6.184,2.811-10.307,2.811
						c-4.124,0-8.762-1.265-10.309-2.811c-1.546-1.546-6.86-2.811-11.811-2.811h-9.74c-3.093,0-3.093,0-3.093,0
						c-1.391,3.285-2.528,10.023-2.528,14.973v20.984c0,3.091,0,3.091,0,3.091c3.092,1.198,9.671,2.179,14.621,2.179h38.221
						c4.95,0,10.266,1.265,11.812,2.811s6.185,2.811,10.308,2.811c4.122,0,8.76-1.265,10.307-2.811
						c1.546-1.546,6.86-2.811,11.811-2.811h37.851c3.093,0,3.093,0,3.093,0c1.391-2.898,2.529-9.32,2.529-14.27v-20.984
						C478.395-51.576,475.865-54.457,472.772-54.457"/>
				</g>
				<g>
					<path fill="#E89442" d="M184.174-54.457H33.881c-4.95,0-10.265,1.265-11.811,2.811c-1.546,1.546-6.184,2.811-10.307,2.811
						S3.002-50.1,1.456-51.646c-1.546-1.546-6.861-2.811-11.811-2.811h-47.221c-3.093,0-3.093,0-3.093,0
						c-1.391,3.285-2.529,10.023-2.529,14.973v20.984c0,3.091,0,3.091,0,3.091c3.092,1.198,9.671,2.179,14.622,2.179h38.221
						c4.95,0,10.265,1.265,11.811,2.811C3.002-8.872,7.64-7.607,11.763-7.607s8.761-1.265,10.307-2.811
						c1.546-1.546,6.861-2.811,11.811-2.811h150.292c3.092,0,3.092,0,3.092,0c1.392-2.898,2.53-9.32,2.53-14.27v-20.984
						C189.796-51.576,187.266-54.457,184.174-54.457"/>
				</g>
				<g>
					<path fill="#E89442" d="M-72.567,35.496h-75.331c-4.95,0-10.265,1.265-11.811,2.811c-1.546,1.546-6.185,2.811-10.308,2.811
						c-4.123,0-8.761-1.265-10.307-2.811c-1.546-1.546-6.861-2.811-11.811-2.811h-9.74c-3.093,0-3.093,0-3.093,0
						c-1.391,3.285-2.529,10.023-2.529,14.973v20.984c0,3.091,0,3.091,0,3.091c3.092,1.199,9.672,2.179,14.622,2.179h0.74
						c4.95,0,10.265,1.265,11.811,2.811c1.546,1.546,6.185,2.811,10.307,2.811c4.123,0,8.762-1.265,10.308-2.811
						c1.546-1.546,6.861-2.811,11.811-2.811h75.331c3.093,0,3.093,0,3.093,0c1.392-2.899,2.53-9.32,2.53-14.271V41.469
						C-66.945,38.376-69.475,35.496-72.567,35.496"/>
				</g>
				<g>
					<path fill="#E89442" d="M692.034-99.434H579.223c-4.95,0-10.266,1.265-11.812,2.811c-1.546,1.546-6.185,2.811-10.308,2.811
						c-4.122,0-8.761-1.265-10.307-2.811c-1.547-1.546-6.862-2.811-11.812-2.811h-9.738c-3.093,0-3.093,0-3.093,0
						c-1.392,3.285-2.529,10.023-2.529,14.973v20.984c0,3.091,0,3.091,0,3.091c3.092,1.199,9.672,2.18,14.622,2.18h0.738
						c4.95,0,10.266,1.265,11.812,2.812c1.546,1.546,6.185,2.812,10.307,2.812c4.123,0,8.762-1.265,10.308-2.812
						s6.861-2.812,11.812-2.812h112.812c3.093,0,3.093,0,3.093,0c1.391-2.899,2.528-9.321,2.528-14.271V-93.46
						C697.655-96.553,695.127-99.434,692.034-99.434"/>
				</g>
				<g>
					<path fill="#E89442" d="M692.034-9.48H579.223c-4.95,0-10.266,1.265-11.812,2.811c-1.546,1.546-6.185,2.811-10.308,2.811
						c-4.122,0-8.761-1.265-10.307-2.811c-1.547-1.546-6.862-2.811-11.812-2.811h-9.738c-3.093,0-3.093,0-3.093,0
						c-1.392,3.285-2.529,10.022-2.529,14.973v20.984c0,3.092,0,3.092,0,3.092c3.092,1.199,9.672,2.18,14.622,2.18h0.738
						c4.95,0,10.266,1.265,11.812,2.811c1.546,1.546,6.185,2.811,10.307,2.811c4.123,0,8.762-1.265,10.308-2.811
						c1.546-1.546,6.861-2.811,11.812-2.811h112.812c3.093,0,3.093,0,3.093,0c1.391-2.899,2.528-9.322,2.528-14.272V-3.508
						C697.655-6.6,695.127-9.48,692.034-9.48"/>
				</g>
				<g>
					<path fill="#E89442" d="M-35.087,80.472h-112.811c-4.95,0-10.265,1.265-11.811,2.811c-1.546,1.546-6.185,2.811-10.308,2.811
						c-4.123,0-8.761-1.265-10.307-2.811c-1.546-1.546-6.861-2.811-11.811-2.811h-9.74c-3.093,0-3.093,0-3.093,0
						c-1.391,3.285-2.529,10.023-2.529,14.973v20.985c0,3.091,0,3.091,0,3.091c3.092,1.199,9.672,2.179,14.622,2.179h0.74
						c4.95,0,10.265,1.265,11.811,2.811c1.546,1.546,6.185,2.811,10.307,2.811c4.123,0,8.762-1.265,10.308-2.811
						c1.546-1.546,6.861-2.811,11.811-2.811h112.811c3.092,0,3.092,0,3.092,0c1.391-2.899,2.529-9.32,2.529-14.271V86.445
						C-29.465,83.353-31.995,80.472-35.087,80.472"/>
				</g>
				<g>
					<path fill="#E89442" d="M360.331,80.472H253.143c-4.95,0-10.265,1.265-11.811,2.811c-1.546,1.546-6.185,2.811-10.307,2.811
						c-4.123,0-8.762-1.265-10.308-2.811c-1.546-1.546-6.861-2.811-11.811-2.811h-47.22c-3.093,0-3.093,0-3.093,0
						c-1.391,3.285-2.529,10.023-2.529,14.973v20.985c0,3.091,0,3.091,0,3.091c3.092,1.199,9.672,2.179,14.622,2.179h38.22
						c4.95,0,10.265,1.265,11.811,2.811c1.546,1.546,6.185,2.811,10.308,2.811c4.123,0,8.761-1.265,10.307-2.811
						c1.546-1.546,6.861-2.811,11.811-2.811h107.188c3.093,0,3.093,0,3.093,0c1.391-2.899,2.529-9.32,2.529-14.271V86.445
						C365.953,83.353,363.424,80.472,360.331,80.472"/>
				</g>
				<g>
					<path fill="#E89442" d="M510.253,80.472h-75.331c-4.95,0-10.265,1.265-11.811,2.811c-1.547,1.546-6.185,2.811-10.307,2.811
						c-4.123,0-8.762-1.265-10.308-2.811c-1.546-1.546-6.861-2.811-11.812-2.811h-15.363c-3.092,0-3.092,0-3.092,0
						c-1.391,3.285-2.529,10.023-2.529,14.973v20.985c0,3.091,0,3.091,0,3.091c3.092,1.199,9.671,2.179,14.621,2.179h6.363
						c4.95,0,10.266,1.265,11.812,2.811c1.546,1.546,6.185,2.811,10.308,2.811c4.122,0,8.76-1.265,10.307-2.811
						c1.546-1.546,6.86-2.811,11.811-2.811h75.331c3.094,0,3.094,0,3.094,0c1.392-2.899,2.529-9.32,2.529-14.271V86.445
						C515.876,83.353,513.347,80.472,510.253,80.472"/>
				</g>
				<g>
					<path fill="#E89442" d="M146.692,80.472H33.881c-4.95,0-10.265,1.265-11.811,2.811c-1.546,1.546-6.184,2.811-10.307,2.811
						s-8.761-1.265-10.307-2.811c-1.546-1.546-6.861-2.811-11.811-2.811h-9.741c-3.093,0-3.093,0-3.093,0
						c-1.391,3.285-2.529,10.023-2.529,14.973v20.985c0,3.091,0,3.091,0,3.091c3.092,1.199,9.672,2.179,14.622,2.179h0.741
						c4.95,0,10.265,1.265,11.811,2.811c1.546,1.546,6.184,2.811,10.307,2.811s8.761-1.265,10.307-2.811
						c1.546-1.546,6.861-2.811,11.811-2.811h112.811c3.093,0,3.093,0,3.093,0c1.391-2.899,2.529-9.32,2.529-14.271V86.445
						C152.314,83.353,149.785,80.472,146.692,80.472"/>
				</g>
				<g>
					<path fill="#E89442" d="M692.034,80.472H579.223c-4.95,0-10.266,1.265-11.812,2.811c-1.546,1.546-6.185,2.811-10.308,2.811
						c-4.122,0-8.761-1.265-10.307-2.811c-1.547-1.546-6.862-2.811-11.812-2.811h-9.738c-3.093,0-3.093,0-3.093,0
						c-1.392,3.285-2.529,10.023-2.529,14.973v20.985c0,3.091,0,3.091,0,3.091c3.092,1.199,9.672,2.179,14.622,2.179h0.738
						c4.95,0,10.266,1.265,11.812,2.811c1.546,1.546,6.185,2.811,10.307,2.811c4.123,0,8.762-1.265,10.308-2.811
						c1.546-1.546,6.861-2.811,11.812-2.811h112.812c3.093,0,3.093,0,3.093,0c1.391-2.899,2.528-9.32,2.528-14.271V86.445
						C697.655,83.353,695.127,80.472,692.034,80.472"/>
				</g>
				<g>
					<path fill="#E89442" d="M-35.087,170.426h-75.331c-4.95,0-10.265,1.265-11.811,2.811c-1.546,1.547-6.185,2.812-10.307,2.812
						c-4.123,0-8.761-1.265-10.308-2.812c-1.546-1.546-6.86-2.811-11.811-2.811h-47.221c-3.093,0-3.093,0-3.093,0
						c-1.391,3.286-2.529,10.024-2.529,14.975v20.982c0,3.092,0,3.092,0,3.092c3.092,1.199,9.672,2.18,14.622,2.18h0.74
						c4.95,0,10.265,1.265,11.811,2.811s6.185,2.811,10.307,2.811c4.123,0,8.762-1.265,10.308-2.811s6.861-2.811,11.811-2.811
						h112.811c3.092,0,3.092,0,3.092,0c1.391-2.899,2.529-9.321,2.529-14.271V176.4C-29.465,173.307-31.995,170.426-35.087,170.426"
						/>
				</g>
				<g>
					<path fill="#E89442" d="M360.331,170.426h-69.708c-4.95,0-10.265,1.265-11.811,2.811c-1.547,1.547-6.185,2.812-10.309,2.812
						c-4.123,0-8.761-1.265-10.307-2.812c-1.547-1.546-6.861-2.811-11.812-2.811h-84.7c-3.093,0-3.093,0-3.093,0
						c-1.391,3.286-2.529,10.024-2.529,14.975v20.982c0,3.092,0,3.092,0,3.092c3.092,1.199,9.672,2.18,14.622,2.18h38.22
						c4.95,0,10.265,1.265,11.811,2.811s6.185,2.811,10.308,2.811c4.123,0,8.761-1.265,10.307-2.811s6.861-2.811,11.811-2.811
						h107.188c3.093,0,3.093,0,3.093,0c1.391-2.899,2.529-9.321,2.529-14.271V176.4
						C365.953,173.307,363.424,170.426,360.331,170.426"/>
				</g>
				<g>
					<path fill="#E89442" d="M510.253,170.426h-84.701c-4.95,0-10.265,1.265-11.811,2.811c-1.546,1.547-6.184,2.812-10.308,2.812
						c-4.123,0-8.761-1.265-10.307-2.812c-1.546-1.546-6.86-2.811-11.811-2.811h-5.994c-3.092,0-3.092,0-3.092,0
						c-1.391,3.286-2.529,10.024-2.529,14.975v20.982c0,3.092,0,3.092,0,3.092c3.092,1.199,9.671,2.18,14.621,2.18h6.363
						c4.95,0,10.266,1.265,11.812,2.811s6.185,2.811,10.308,2.811c4.122,0,8.76-1.265,10.307-2.811
						c1.546-1.546,6.86-2.811,11.811-2.811h75.331c3.094,0,3.094,0,3.094,0c1.392-2.899,2.529-9.321,2.529-14.271V176.4
						C515.876,173.307,513.347,170.426,510.253,170.426"/>
				</g>
				<g>
					<path fill="#E89442" d="M146.692,170.426h-75.33c-4.95,0-10.265,1.265-11.812,2.811c-1.546,1.547-6.185,2.812-10.307,2.812
						s-8.761-1.265-10.308-2.812c-1.546-1.546-6.861-2.811-11.812-2.811h-47.221c-3.093,0-3.093,0-3.093,0
						c-1.391,3.286-2.529,10.024-2.529,14.975v20.982c0,3.092,0,3.092,0,3.092c3.092,1.199,9.672,2.18,14.622,2.18h0.741
						c4.95,0,10.265,1.265,11.811,2.811c1.546,1.546,6.184,2.811,10.307,2.811s8.761-1.265,10.307-2.811
						c1.546-1.546,6.861-2.811,11.811-2.811h112.811c3.093,0,3.093,0,3.093,0c1.391-2.899,2.529-9.321,2.529-14.271V176.4
						C152.314,173.307,149.785,170.426,146.692,170.426"/>
				</g>
				<g>
					<path fill="#E89442" d="M692.034,170.426h-75.331c-4.95,0-10.266,1.265-11.812,2.811c-1.546,1.547-6.185,2.812-10.308,2.812
						s-8.761-1.265-10.307-2.812c-1.547-1.546-6.861-2.811-11.812-2.811h-47.22c-3.093,0-3.093,0-3.093,0
						c-1.392,3.286-2.529,10.024-2.529,14.975v20.982c0,3.092,0,3.092,0,3.092c3.092,1.199,9.672,2.18,14.622,2.18h0.738
						c4.95,0,10.266,1.265,11.812,2.811c1.546,1.546,6.185,2.811,10.307,2.811c4.123,0,8.762-1.265,10.308-2.811
						s6.861-2.811,11.812-2.811h112.812c3.093,0,3.093,0,3.093,0c1.391-2.899,2.528-9.321,2.528-14.271V176.4
						C697.655,173.307,695.127,170.426,692.034,170.426"/>
				</g>
				<g>
					<path fill="#E89442" d="M-35.087,260.379h-101.567c-4.95,0-10.265,1.265-11.811,2.811c-1.546,1.547-6.185,2.812-10.307,2.812
						c-4.123,0-8.761-1.265-10.308-2.812c-1.546-1.546-6.86-2.811-11.811-2.811h-20.984c-3.093,0-3.093,0-3.093,0
						c-1.391,3.286-2.529,10.024-2.529,14.975v20.981c0,3.093,0,3.093,0,3.093c3.092,1.198,9.672,2.179,14.622,2.179h0.74
						c4.95,0,10.265,1.265,11.811,2.812c1.546,1.546,6.185,2.811,10.307,2.811c4.123,0,8.762-1.265,10.308-2.811
						c1.546-1.547,6.861-2.812,11.811-2.812h112.811c3.092,0,3.092,0,3.092,0c1.391-2.899,2.529-9.321,2.529-14.271v-20.981
						C-29.465,263.259-31.995,260.379-35.087,260.379"/>
				</g>
				<g>
					<path fill="#E89442" d="M360.331,260.379h-95.945c-4.95,0-10.265,1.265-11.811,2.811c-1.546,1.547-6.184,2.812-10.307,2.812
						s-8.761-1.265-10.308-2.812c-1.546-1.546-6.861-2.811-11.812-2.811h-58.464c-3.093,0-3.093,0-3.093,0
						c-1.391,3.286-2.529,10.024-2.529,14.975v20.981c0,3.093,0,3.093,0,3.093c3.092,1.198,9.672,2.179,14.622,2.179h38.22
						c4.95,0,10.265,1.265,11.811,2.812c1.546,1.546,6.185,2.811,10.308,2.811c4.123,0,8.761-1.265,10.307-2.811
						c1.546-1.547,6.861-2.812,11.811-2.812h107.188c3.093,0,3.093,0,3.093,0c1.391-2.899,2.529-9.321,2.529-14.271v-20.981
						C365.953,263.259,363.424,260.379,360.331,260.379"/>
				</g>
				<g>
					<path fill="#E89442" d="M510.253,260.379h-84.701c-4.95,0-10.265,1.265-11.811,2.811c-1.546,1.547-6.184,2.812-10.308,2.812
						c-4.123,0-8.761-1.265-10.307-2.812c-1.546-1.546-6.86-2.811-11.811-2.811h-5.994c-3.092,0-3.092,0-3.092,0
						c-1.391,3.286-2.529,10.024-2.529,14.975v20.981c0,3.093,0,3.093,0,3.093c3.092,1.198,9.671,2.179,14.621,2.179h6.363
						c4.95,0,10.266,1.265,11.812,2.812c1.546,1.546,6.185,2.811,10.308,2.811c4.122,0,8.76-1.265,10.307-2.811
						c1.546-1.547,6.86-2.812,11.811-2.812h75.331c3.094,0,3.094,0,3.094,0c1.392-2.899,2.529-9.321,2.529-14.271v-20.981
						C515.876,263.259,513.347,260.379,510.253,260.379"/>
				</g>
				<g>
					<path fill="#E89442" d="M146.692,260.379H45.125c-4.95,0-10.265,1.265-11.811,2.811c-1.546,1.547-6.184,2.812-10.306,2.812
						c-4.123,0-8.761-1.265-10.307-2.812c-1.546-1.546-6.861-2.811-11.811-2.811h-20.986c-3.093,0-3.093,0-3.093,0
						c-1.391,3.286-2.529,10.024-2.529,14.975v20.981c0,3.093,0,3.093,0,3.093c3.092,1.198,9.672,2.179,14.622,2.179h0.741
						c4.95,0,10.265,1.265,11.811,2.812c1.546,1.546,6.184,2.811,10.307,2.811s8.761-1.265,10.307-2.811
						c1.546-1.547,6.861-2.812,11.811-2.812h112.811c3.093,0,3.093,0,3.093,0c1.391-2.899,2.529-9.321,2.529-14.271v-20.981
						C152.314,263.259,149.785,260.379,146.692,260.379"/>
				</g>
				<g>
					<path fill="#E89442" d="M692.034,260.379H590.466c-4.95,0-10.265,1.265-11.811,2.811c-1.546,1.547-6.184,2.812-10.307,2.812
						s-8.761-1.265-10.308-2.812c-1.546-1.546-6.86-2.811-11.811-2.811h-20.984c-3.093,0-3.093,0-3.093,0
						c-1.392,3.286-2.529,10.024-2.529,14.975v20.981c0,3.093,0,3.093,0,3.093c3.092,1.198,9.672,2.179,14.622,2.179h0.738
						c4.95,0,10.266,1.265,11.812,2.812c1.546,1.546,6.185,2.811,10.307,2.811c4.123,0,8.762-1.265,10.308-2.811
						c1.546-1.547,6.861-2.812,11.812-2.812h112.812c3.093,0,3.093,0,3.093,0c1.391-2.899,2.528-9.321,2.528-14.271v-20.981
						C697.655,263.259,695.127,260.379,692.034,260.379"/>
				</g>
				<g>
					<path fill="#E89442" d="M654.552-54.457h-75.329c-4.95,0-10.266,1.265-11.812,2.811c-1.546,1.546-6.185,2.811-10.308,2.811
						c-4.122,0-8.761-1.265-10.307-2.811c-1.547-1.546-6.862-2.811-11.812-2.811h-47.221c-3.092,0-3.092,0-3.092,0
						c-1.391,3.285-2.529,10.023-2.529,14.973v20.984c0,3.091,0,3.091,0,3.091c3.092,1.198,9.671,2.179,14.621,2.179h38.221
						c4.95,0,10.266,1.265,11.812,2.811c1.546,1.546,6.185,2.811,10.307,2.811c4.123,0,8.762-1.265,10.308-2.811
						s6.861-2.811,11.812-2.811h75.329c3.094,0,3.094,0,3.094,0c1.392-2.898,2.529-9.32,2.529-14.27v-20.984
						C660.175-51.576,657.646-54.457,654.552-54.457"/>
				</g>
				<g>
					<path fill="#E89442" d="M654.552,35.496h-75.329c-4.95,0-10.266,1.265-11.812,2.811c-1.546,1.546-6.185,2.811-10.308,2.811
						c-4.122,0-8.761-1.265-10.307-2.811c-1.547-1.546-6.862-2.811-11.812-2.811h-47.221c-3.092,0-3.092,0-3.092,0
						c-1.391,3.285-2.529,10.023-2.529,14.973v20.984c0,3.091,0,3.091,0,3.091c3.092,1.199,9.671,2.179,14.621,2.179h38.221
						c4.95,0,10.266,1.265,11.812,2.811c1.546,1.546,6.185,2.811,10.307,2.811c4.123,0,8.762-1.265,10.308-2.811
						c1.546-1.546,6.861-2.811,11.812-2.811h75.329c3.094,0,3.094,0,3.094,0c1.392-2.899,2.529-9.32,2.529-14.271V41.469
						C660.175,38.376,657.646,35.496,654.552,35.496"/>
				</g>
				<g>
					<path fill="#E89442" d="M328.473,35.496h-75.33c-4.95,0-10.265,1.265-11.811,2.811c-1.546,1.546-6.185,2.811-10.307,2.811
						c-4.123,0-8.762-1.265-10.308-2.811c-1.546-1.546-6.861-2.811-11.811-2.811h-9.741c-3.093,0-3.093,0-3.093,0
						c-1.391,3.285-2.529,10.023-2.529,14.973v20.984c0,3.091,0,3.091,0,3.091c3.092,1.199,9.671,2.179,14.622,2.179h0.741
						c4.95,0,10.265,1.265,11.811,2.811c1.546,1.546,6.185,2.811,10.308,2.811c4.123,0,8.761-1.265,10.307-2.811
						c1.546-1.546,6.861-2.811,11.811-2.811h75.33c3.094,0,3.094,0,3.094,0c1.391-2.899,2.529-9.32,2.529-14.271V41.469
						C334.096,38.376,331.566,35.496,328.473,35.496"/>
				</g>
				<g>
					<path fill="#E89442" d="M472.772,35.496h-37.851c-4.95,0-10.265,1.265-11.811,2.811c-1.547,1.546-6.185,2.811-10.307,2.811
						c-4.123,0-8.762-1.265-10.308-2.811c-1.546-1.546-6.861-2.811-11.812-2.811h-47.221c-3.093,0-3.093,0-3.093,0
						c-1.391,3.285-2.528,10.023-2.528,14.973v20.984c0,3.091,0,3.091,0,3.091c3.092,1.199,9.671,2.179,14.621,2.179h38.221
						c4.95,0,10.266,1.265,11.812,2.811c1.546,1.546,6.185,2.811,10.308,2.811c4.122,0,8.76-1.265,10.307-2.811
						c1.546-1.546,6.86-2.811,11.811-2.811h37.851c3.093,0,3.093,0,3.093,0c1.391-2.899,2.529-9.32,2.529-14.271V41.469
						C478.395,38.376,475.865,35.496,472.772,35.496"/>
				</g>
				<g>
					<path fill="#E89442" d="M184.174,35.496H33.881c-4.95,0-10.265,1.265-11.811,2.811c-1.546,1.546-6.184,2.811-10.307,2.811
						s-8.761-1.265-10.307-2.811c-1.546-1.546-6.861-2.811-11.811-2.811h-47.221c-3.093,0-3.093,0-3.093,0
						c-1.391,3.285-2.529,10.023-2.529,14.973v20.984c0,3.091,0,3.091,0,3.091c3.092,1.199,9.671,2.179,14.622,2.179h38.221
						c4.95,0,10.265,1.265,11.811,2.811c1.546,1.546,6.184,2.811,10.307,2.811s8.761-1.265,10.307-2.811
						c1.546-1.546,6.861-2.811,11.811-2.811h150.292c3.092,0,3.092,0,3.092,0c1.392-2.899,2.53-9.32,2.53-14.271V41.469
						C189.796,38.376,187.266,35.496,184.174,35.496"/>
				</g>
				<g>
					<path fill="#E89442" d="M-72.567,305.355h-75.331c-4.95,0-10.265,1.265-11.811,2.811s-6.185,2.811-10.308,2.811
						c-4.123,0-8.761-1.265-10.307-2.811s-6.861-2.811-11.811-2.811h-9.74c-3.093,0-3.093,0-3.093,0
						c-1.391,3.286-2.529,10.025-2.529,14.976v20.979c0,3.094,0,3.094,0,3.094c3.092,1.199,9.672,2.18,14.622,2.18h0.74
						c4.95,0,10.265,1.265,11.811,2.811s6.185,2.811,10.307,2.811c4.123,0,8.762-1.265,10.308-2.811s6.861-2.811,11.811-2.811
						h75.331c3.093,0,3.093,0,3.093,0c1.392-2.9,2.53-9.323,2.53-14.273v-20.979C-66.945,308.235-69.475,305.355-72.567,305.355"/>
				</g>
				<g>
					<path fill="#E89442" d="M654.552,305.355h-75.329c-4.95,0-10.266,1.265-11.812,2.811s-6.185,2.811-10.308,2.811
						c-4.122,0-8.761-1.265-10.307-2.811c-1.547-1.546-6.862-2.811-11.812-2.811h-47.221c-3.092,0-3.092,0-3.092,0
						c-1.391,3.286-2.529,10.025-2.529,14.976v20.979c0,3.094,0,3.094,0,3.094c3.092,1.199,9.671,2.18,14.621,2.18h38.221
						c4.95,0,10.266,1.265,11.812,2.811c1.546,1.546,6.185,2.811,10.307,2.811c4.123,0,8.762-1.265,10.308-2.811
						s6.861-2.811,11.812-2.811h75.329c3.094,0,3.094,0,3.094,0c1.392-2.9,2.529-9.323,2.529-14.273v-20.979
						C660.175,308.235,657.646,305.355,654.552,305.355"/>
				</g>
				<g>
					<path fill="#E89442" d="M328.473,305.355h-75.33c-4.95,0-10.265,1.265-11.811,2.811s-6.185,2.811-10.307,2.811
						c-4.123,0-8.762-1.265-10.308-2.811s-6.861-2.811-11.811-2.811h-9.741c-3.093,0-3.093,0-3.093,0
						c-1.391,3.286-2.529,10.025-2.529,14.976v20.979c0,3.094,0,3.094,0,3.094c3.092,1.199,9.671,2.18,14.622,2.18h0.741
						c4.95,0,10.265,1.265,11.811,2.811s6.185,2.811,10.308,2.811c4.123,0,8.761-1.265,10.307-2.811s6.861-2.811,11.811-2.811h75.33
						c3.094,0,3.094,0,3.094,0c1.391-2.9,2.529-9.323,2.529-14.273v-20.979C334.096,308.235,331.566,305.355,328.473,305.355"/>
				</g>
				<g>
					<path fill="#E89442" d="M472.772,305.355h-37.851c-4.95,0-10.265,1.265-11.811,2.811c-1.547,1.546-6.185,2.811-10.307,2.811
						c-4.123,0-8.762-1.265-10.308-2.811s-6.861-2.811-11.812-2.811h-47.221c-3.093,0-3.093,0-3.093,0
						c-1.391,3.286-2.528,10.025-2.528,14.976v20.979c0,3.094,0,3.094,0,3.094c3.092,1.199,9.671,2.18,14.621,2.18h38.221
						c4.95,0,10.266,1.265,11.812,2.811s6.185,2.811,10.308,2.811c4.122,0,8.76-1.265,10.307-2.811
						c1.546-1.546,6.86-2.811,11.811-2.811h37.851c3.093,0,3.093,0,3.093,0c1.391-2.9,2.529-9.323,2.529-14.273v-20.979
						C478.395,308.235,475.865,305.355,472.772,305.355"/>
				</g>
				<g>
					<path fill="#E89442" d="M184.174,305.355H33.881c-4.95,0-10.265,1.265-11.811,2.811c-1.546,1.546-6.184,2.811-10.307,2.811
						s-8.761-1.265-10.307-2.811c-1.546-1.546-6.861-2.811-11.811-2.811h-47.221c-3.093,0-3.093,0-3.093,0
						c-1.391,3.286-2.529,10.025-2.529,14.976v20.979c0,3.094,0,3.094,0,3.094c3.092,1.199,9.671,2.18,14.622,2.18h38.221
						c4.95,0,10.265,1.265,11.811,2.811c1.546,1.546,6.184,2.811,10.307,2.811s8.761-1.265,10.307-2.811
						c1.546-1.546,6.861-2.811,11.811-2.811h150.292c3.092,0,3.092,0,3.092,0c1.392-2.9,2.53-9.323,2.53-14.273v-20.979
						C189.796,308.235,187.266,305.355,184.174,305.355"/>
				</g>
				<g>
					<path fill="#E89442" d="M-72.567,125.449h-75.331c-4.95,0-10.265,1.265-11.811,2.811s-6.185,2.811-10.308,2.811
						c-4.123,0-8.761-1.265-10.307-2.811s-6.861-2.811-11.811-2.811h-9.74c-3.093,0-3.093,0-3.093,0
						c-1.391,3.286-2.529,10.024-2.529,14.975v20.981c0,3.092,0,3.092,0,3.092c3.092,1.199,9.672,2.18,14.622,2.18h38.221
						c4.95,0,10.265,1.266,11.811,2.812c1.546,1.546,6.185,2.812,10.308,2.812c4.123,0,8.761-1.266,10.307-2.812
						s6.861-2.812,11.811-2.812h37.851c3.093,0,3.093,0,3.093,0c1.392-2.899,2.53-9.321,2.53-14.271v-20.981
						C-66.945,128.33-69.475,125.449-72.567,125.449"/>
				</g>
				<g>
					<path fill="#E89442" d="M654.552,125.449h-75.329c-4.95,0-10.266,1.265-11.812,2.811s-6.185,2.811-10.308,2.811
						c-4.122,0-8.761-1.265-10.307-2.811c-1.547-1.546-6.862-2.811-11.812-2.811h-47.221c-3.092,0-3.092,0-3.092,0
						c-1.391,3.286-2.529,10.024-2.529,14.975v20.981c0,3.092,0,3.092,0,3.092c3.092,1.199,9.671,2.18,14.621,2.18h75.702
						c4.95,0,10.265,1.266,11.812,2.812c1.546,1.546,6.184,2.812,10.307,2.812s8.762-1.266,10.308-2.812s6.861-2.812,11.812-2.812
						h37.849c3.094,0,3.094,0,3.094,0c1.392-2.899,2.529-9.321,2.529-14.271v-20.981
						C660.175,128.33,657.646,125.449,654.552,125.449"/>
				</g>
				<g>
					<path fill="#E89442" d="M328.473,125.449h-75.33c-4.95,0-10.265,1.265-11.811,2.811s-6.185,2.811-10.307,2.811
						c-4.123,0-8.762-1.265-10.308-2.811s-6.861-2.811-11.811-2.811h-9.741c-3.093,0-3.093,0-3.093,0
						c-1.391,3.286-2.529,10.024-2.529,14.975v20.981c0,3.092,0,3.092,0,3.092c3.092,1.199,9.671,2.18,14.622,2.18h38.221
						c4.95,0,10.265,1.266,11.812,2.812c1.546,1.546,6.184,2.812,10.307,2.812c4.124,0,8.762-1.266,10.309-2.812
						c1.546-1.546,6.86-2.812,11.811-2.812h37.85c3.094,0,3.094,0,3.094,0c1.391-2.899,2.529-9.321,2.529-14.271v-20.981
						C334.096,128.33,331.566,125.449,328.473,125.449"/>
				</g>
				<g>
					<path fill="#E89442" d="M472.772,125.449h-37.851c-4.95,0-10.265,1.265-11.811,2.811c-1.547,1.546-6.185,2.811-10.307,2.811
						c-4.123,0-8.762-1.265-10.308-2.811s-6.861-2.811-11.812-2.811h-47.221c-3.093,0-3.093,0-3.093,0
						c-1.391,3.286-2.528,10.024-2.528,14.975v20.981c0,3.092,0,3.092,0,3.092c3.092,1.199,9.671,2.18,14.621,2.18h28.852
						c4.95,0,10.265,1.266,11.811,2.812s6.184,2.812,10.307,2.812c4.124,0,8.762-1.266,10.308-2.812s6.86-2.812,11.811-2.812h47.221
						c3.093,0,3.093,0,3.093,0c1.391-2.899,2.529-9.321,2.529-14.271v-20.981C478.395,128.33,475.865,125.449,472.772,125.449"/>
				</g>
				<g>
					<path fill="#E89442" d="M184.174,125.449H33.881c-4.95,0-10.265,1.265-11.811,2.811c-1.546,1.546-6.184,2.811-10.307,2.811
						s-8.761-1.265-10.307-2.811c-1.546-1.546-6.861-2.811-11.811-2.811h-47.221c-3.093,0-3.093,0-3.093,0
						c-1.391,3.286-2.529,10.024-2.529,14.975v20.981c0,3.092,0,3.092,0,3.092c3.092,1.199,9.671,2.18,14.622,2.18h75.701
						c4.95,0,10.265,1.266,11.812,2.812c1.547,1.546,6.185,2.812,10.308,2.812s8.761-1.266,10.307-2.812s6.861-2.812,11.812-2.812
						h112.811c3.092,0,3.092,0,3.092,0c1.392-2.899,2.53-9.321,2.53-14.271v-20.981C189.796,128.33,187.266,125.449,184.174,125.449
						"/>
				</g>
				<g>
					<path fill="#E89442" d="M-72.567,215.402h-75.331c-4.95,0-10.265,1.265-11.811,2.811s-6.185,2.811-10.308,2.811
						c-4.123,0-8.761-1.265-10.307-2.811s-6.861-2.811-11.811-2.811h-9.74c-3.093,0-3.093,0-3.093,0
						c-1.391,3.286-2.529,10.024-2.529,14.975v20.98c0,3.093,0,3.093,0,3.093c3.092,1.2,9.672,2.182,14.622,2.182h11.984
						c4.95,0,10.265,1.265,11.811,2.811c1.546,1.546,6.185,2.811,10.308,2.811c4.123,0,8.761-1.265,10.307-2.811
						s6.861-2.811,11.811-2.811h64.087c3.093,0,3.093,0,3.093,0c1.392-2.901,2.53-9.324,2.53-14.274v-20.98
						C-66.945,218.282-69.475,215.402-72.567,215.402"/>
				</g>
				<g>
					<path fill="#E89442" d="M654.552,215.402h-75.329c-4.95,0-10.266,1.265-11.812,2.811s-6.185,2.811-10.308,2.811
						c-4.122,0-8.761-1.265-10.307-2.811c-1.547-1.546-6.862-2.811-11.812-2.811h-47.221c-3.092,0-3.092,0-3.092,0
						c-1.391,3.286-2.529,10.024-2.529,14.975v20.98c0,3.093,0,3.093,0,3.093c3.092,1.2,9.671,2.182,14.621,2.182h49.467
						c4.95,0,10.265,1.265,11.811,2.811c1.547,1.546,6.185,2.811,10.308,2.811s8.761-1.265,10.307-2.811s6.86-2.811,11.811-2.811
						h64.086c3.094,0,3.094,0,3.094,0c1.392-2.901,2.529-9.324,2.529-14.274v-20.98
						C660.175,218.282,657.646,215.402,654.552,215.402"/>
				</g>
				<g>
					<path fill="#E89442" d="M328.473,215.402h-75.33c-4.95,0-10.265,1.265-11.811,2.811s-6.185,2.811-10.307,2.811
						c-4.123,0-8.762-1.265-10.308-2.811s-6.861-2.811-11.811-2.811h-9.741c-3.093,0-3.093,0-3.093,0
						c-1.391,3.286-2.529,10.024-2.529,14.975v20.98c0,3.093,0,3.093,0,3.093c3.092,1.2,9.671,2.182,14.622,2.182h11.984
						c4.95,0,10.265,1.265,11.812,2.811c1.547,1.546,6.185,2.811,10.308,2.811s8.761-1.265,10.307-2.811s6.86-2.811,11.811-2.811
						h64.087c3.094,0,3.094,0,3.094,0c1.391-2.901,2.529-9.324,2.529-14.274v-20.98
						C334.096,218.282,331.566,215.402,328.473,215.402"/>
				</g>
				<g>
					<path fill="#E89442" d="M472.772,215.402h-37.851c-4.95,0-10.265,1.265-11.811,2.811c-1.547,1.546-6.185,2.811-10.307,2.811
						c-4.123,0-8.762-1.265-10.308-2.811s-6.861-2.811-11.812-2.811h-47.221c-3.093,0-3.093,0-3.093,0
						c-1.391,3.286-2.528,10.024-2.528,14.975v20.98c0,3.093,0,3.093,0,3.093c3.092,1.2,9.671,2.182,14.621,2.182h28.852
						c4.95,0,10.265,1.265,11.811,2.811s6.184,2.811,10.307,2.811c4.124,0,8.762-1.265,10.308-2.811s6.86-2.811,11.811-2.811h47.221
						c3.093,0,3.093,0,3.093,0c1.391-2.901,2.529-9.324,2.529-14.274v-20.98C478.395,218.282,475.865,215.402,472.772,215.402"/>
				</g>
				<g>
					<path fill="#E89442" d="M184.174,215.402H33.881c-4.95,0-10.265,1.265-11.811,2.811c-1.546,1.546-6.184,2.811-10.307,2.811
						s-8.761-1.265-10.307-2.811c-1.546-1.546-6.861-2.811-11.811-2.811h-47.221c-3.093,0-3.093,0-3.093,0
						c-1.391,3.286-2.529,10.024-2.529,14.975v20.98c0,3.093,0,3.093,0,3.093c3.092,1.2,9.671,2.182,14.622,2.182H0.89
						c4.95,0,10.265,1.265,11.811,2.811s6.184,2.811,10.307,2.811c4.122,0,8.76-1.265,10.306-2.811s6.861-2.811,11.811-2.811
						h139.049c3.092,0,3.092,0,3.092,0c1.392-2.901,2.53-9.324,2.53-14.274v-20.98C189.796,218.282,187.266,215.402,184.174,215.402
						"/>
				</g>
			</g>
		</g>
		<g>
			<defs>
				<path id="SVGID_5_" d="M502,342c0,4.95-4.05,9-9,9H7c-4.95,0-9-4.05-9-9V-76c0-4.95,4.05-9,9-9h486c4.95,0,9,4.05,9,9V342z"/>
			</defs>
			<clipPath id="SVGID_6_">
				<use xlink:href="#SVGID_5_"  overflow="visible"/>
			</clipPath>
		</g>
	</g>
</g>
</svg>
