<?xml version="1.0" encoding="utf-8"?>
<!-- Generator: Adobe Illustrator 16.0.0, SVG Export Plug-In . SVG Version: 6.00 Build 0)  -->
<!DOCTYPE svg PUBLIC "-//W3C//DTD SVG 1.1//EN" "http://www.w3.org/Graphics/SVG/1.1/DTD/svg11.dtd">
<svg version="1.1" id="Layer_1" xmlns="http://www.w3.org/2000/svg" xmlns:xlink="http://www.w3.org/1999/xlink" x="0px" y="0px"
	 width="500px" height="250px" viewBox="0 0 500 250" enable-background="new 0 0 500 250" xml:space="preserve">
<g>
	<g>
		<path fill="#3D98DA" d="M504,321c0,4.971-4.029,9-9,9H-4c-4.971,0-9-4.029-9-9v-429c0-4.971,4.029-9,9-9h499c4.971,0,9,4.029,9,9
			V321z"/>
	</g>
	<g opacity="0.2">
		<defs>
			<rect id="SVGID_1_" x="-13" y="-117" opacity="0.2" width="517" height="447"/>
		</defs>
		<clipPath id="SVGID_2_">
			<use xlink:href="#SVGID_1_"  overflow="visible"/>
		</clipPath>
		<g clip-path="url(#SVGID_2_)">
			<path fill="none" stroke="#FFFFFF" stroke-miterlimit="10" d="M202.17-154.554c66.998,28.572,158.627,64.041,237.446,74.879
				c0,0,23.647,133.01,68.969,292.62c0,0-89.659,80.792-157.642,156.656c0,0-202.962-44.337-272.916-42.367
				c0,0-29.557-87.688-85.718-114.289c0,0,25.63-151.617,28.573-246.313C20.883-33.368,147.981-93.468,202.17-154.554z"/>
			<path fill="none" stroke="#FFFFFF" stroke-miterlimit="10" d="M61.279-4.795c0,0-1.973,133.995-21.676,199.022
				c0,0,59.113,25.617,66.011,99.511c0,0,137.937,0.985,229.565,32.513c0,0,69.953-98.524,125.129-133.01
				c0,0-45.322-160.596-54.191-241.386c0,0-136.949-23.647-198.035-55.176C208.082-103.322,113.498-28.442,61.279-4.795z"/>
			<path fill="none" stroke="#FFFFFF" stroke-miterlimit="10" d="M217.934-53.073c0,0-79.806,61.085-116.26,73.894
				c0,0,6.896,103.451-14.778,154.686c0,0,58.129,30.542,49.263,76.849c0,0,113.305-7.882,179.316,21.676
				c0,0,61.088-87.156,99.512-96.555c0,0-52.219-150.744-43.353-187.199C371.634-9.722,270.152-23.516,217.934-53.073z"/>
			<path fill="none" stroke="#FFFFFF" stroke-miterlimit="10" d="M128.276,163.683c0,0,20.69-75.864,15.763-114.289
				c0,0,57.477-27.699,83.748-57.146c0,0,67.982,33.5,102.466,33.5c0,0,20.761,106.059,37.44,137.935
				c0,0-73.894,44.338-71.924,66.998c0,0-96.555-32.514-123.158-18.721C172.611,211.96,171.627,168.609,128.276,163.683z"/>
			<path fill="none" stroke="#FFFFFF" stroke-miterlimit="10" d="M178.523,71.068c0,0,42.367-8.867,56.16-29.557
				c0,0,19.706,23.645,65.026,20.69c0,0,0.986,71.924,23.646,83.746c0,0-47.292,14.78-47.292,42.367
				c0,0-39.876-26.246-73.895-10.838c0,0,3.941-37.44-23.646-38.426C178.523,139.051,200.08,99.418,178.523,71.068z"/>
			<path fill="none" stroke="#FFFFFF" stroke-miterlimit="10" d="M224.731,101.015c0,0,15.335-3.21,20.323-10.697
				c0,0,7.133,8.559,23.537,7.487c0,0,0.358,26.033,8.559,30.31c0,0-17.115,5.351-17.115,15.335c0,0-14.434-9.5-26.745-3.924
				c0,0,1.425-13.548-8.559-13.903C224.731,125.623,232.532,111.275,224.731,101.015z"/>
			<polyline fill="none" stroke="#FFFFFF" stroke-miterlimit="10" points="-88.152,-103.322 247.984,117.376 581.9,240.133 			"/>
			<polyline fill="none" stroke="#FFFFFF" stroke-miterlimit="10" points="6.104,412.952 247.984,117.376 496.603,-141.804 			"/>
			<polyline fill="none" stroke="#FFFFFF" stroke-miterlimit="10" points="185.094,-249.797 247.985,117.376 376.88,428.834 			"/>
			<line fill="none" stroke="#FFFFFF" stroke-miterlimit="10" x1="-88.152" y1="240.133" x2="247.984" y2="117.376"/>
		</g>
	</g>
</g>
</svg>
