<?xml version="1.0" encoding="utf-8"?>
<!-- Generator: Adobe Illustrator 16.0.0, SVG Export Plug-In . SVG Version: 6.00 Build 0)  -->
<!DOCTYPE svg PUBLIC "-//W3C//DTD SVG 1.1//EN" "http://www.w3.org/Graphics/SVG/1.1/DTD/svg11.dtd">
<svg version="1.1" id="Layer_1" xmlns="http://www.w3.org/2000/svg" xmlns:xlink="http://www.w3.org/1999/xlink" x="0px" y="0px"
	 width="228.667px" height="225.333px" viewBox="0 0 228.667 225.333" enable-background="new 0 0 228.667 225.333"
	 xml:space="preserve">
<rect x="-22" y="-26" fill="#3E98DA" width="270.667" height="272"/>
<g opacity="0.15">
	<defs>
		<rect id="SVGID_1_" x="-55.333" y="-71.336" opacity="0.15" width="340.485" height="344.669"/>
	</defs>
	<clipPath id="SVGID_2_">
		<use xlink:href="#SVGID_1_"  overflow="visible"/>
	</clipPath>
	<path clip-path="url(#SVGID_2_)" fill="none" stroke="#FFFFFF" stroke-miterlimit="10" d="M92.274-22.918
		c33.999,14.5,80.499,32.5,120.499,38c0,0,12,67.5,35,148.5c0,0-45.5,41-79.999,79.5c0,0-103-22.5-138.5-21.5c0,0-15-44.5-43.5-58
		c0,0,13.006-76.942,14.5-125C0.274,38.582,64.774,8.082,92.274-22.918z"/>
	<path clip-path="url(#SVGID_2_)" fill="none" stroke="#FFFFFF" stroke-miterlimit="10" d="M20.774,53.082c0,0-1,68-11,101
		c0,0,30,13,33.5,50.5c0,0,70,0.5,116.501,16.5c0,0,35.497-50,63.497-67.5c0,0-23-81.5-27.5-122.5c0,0-69.5-12-100.499-28
		C95.274,3.082,47.274,41.082,20.774,53.082z"/>
	<path clip-path="url(#SVGID_2_)" fill="none" stroke="#FFFFFF" stroke-miterlimit="10" d="M100.274,28.582c0,0-40.5,31-59,37.5
		c0,0,3.5,52.5-7.5,78.5c0,0,29.5,15.5,25,39c0,0,57.5-4,91.001,11c0,0,31-44.23,50.498-49c0,0-26.5-76.5-22-95
		C178.273,50.582,126.773,43.582,100.274,28.582z"/>
	<path clip-path="url(#SVGID_2_)" fill="none" stroke="#FFFFFF" stroke-miterlimit="10" d="M54.774,138.581c0,0,10.5-38.5,8-58
		c0,0,29.167-14.057,42.5-29c0,0,34.499,17,52,17c0,0,10.535,53.824,18.999,70c0,0-37.5,22.5-36.5,34c0,0-48.999-16.5-62.499-9.5
		C77.274,163.081,76.774,141.081,54.774,138.581z"/>
	<path clip-path="url(#SVGID_2_)" fill="none" stroke="#FFFFFF" stroke-miterlimit="10" d="M80.274,91.582c0,0,21.5-4.5,28.5-15
		c0,0,10,12,33,10.5c0,0,0.5,36.5,12.002,42.5c0,0-24.002,7.5-24.002,21.5c0,0-20.235-13.318-37.499-5.5c0,0,2-19-12-19.5
		C80.274,126.081,91.213,105.968,80.274,91.582z"/>
	<path clip-path="url(#SVGID_2_)" fill="none" stroke="#FFFFFF" stroke-miterlimit="10" d="M103.723,106.779
		c0,0,7.782-1.629,10.315-5.429c0,0,3.619,4.343,11.944,3.8c0,0,0.182,13.21,4.342,15.382c0,0-8.685,2.715-8.685,7.781
		c0,0-7.324-4.82-13.573-1.99c0,0,0.724-6.877-4.343-7.057C103.723,119.267,107.682,111.985,103.723,106.779z"/>
	<polyline clip-path="url(#SVGID_2_)" fill="none" stroke="#FFFFFF" stroke-miterlimit="10" points="-55.059,3.082 115.524,115.082 
		284.98,177.378 	"/>
	<polyline clip-path="url(#SVGID_2_)" fill="none" stroke="#FFFFFF" stroke-miterlimit="10" points="-7.226,265.081 
		115.524,115.082 241.693,-16.447 	"/>
	<polyline clip-path="url(#SVGID_2_)" fill="none" stroke="#FFFFFF" stroke-miterlimit="10" points="83.607,-71.252 
		115.525,115.082 180.935,273.142 	"/>
	
		<line clip-path="url(#SVGID_2_)" fill="none" stroke="#FFFFFF" stroke-miterlimit="10" x1="-55.059" y1="177.378" x2="115.524" y2="115.082"/>
	<use xlink:href="#SVGID_1_"  overflow="visible" fill="none" stroke="#FFFFFF" stroke-miterlimit="10"/>
</g>
</svg>
