<svg xmlns="http://www.w3.org/2000/svg" width="20" height="120" viewBox="0 0 20 120"><path fill="#333" d="M16.35 10.157l1.084-1.083.402-.402c.383-.383.711-.842.934-1.337a5.033 5.033 0 0 0 .441-1.794 4.527 4.527 0 0 0-.215-1.63 4.77 4.77 0 0 0-2.242-2.724 4.805 4.805 0 0 0-3.408-.435c-.861.208-1.635.684-2.256 1.307l-2.38 2.38L7.688 5.46a5.012 5.012 0 0 0-1.274 2.06 4.653 4.653 0 0 0 .064 2.934c.097.269.213.535.354.784.142.253.319.481.5.706.365.454.848.834 1.36 1.108.449.241 1.018.109 1.278-.342.249-.432.107-1.039-.342-1.279a3.952 3.952 0 0 1-.515-.33l.19.146a3.943 3.943 0 0 1-.71-.704l.149.191a3.845 3.845 0 0 1-.5-.862l.097.232a3.834 3.834 0 0 1-.258-.969l.032.249a3.906 3.906 0 0 1 .004-.996l-.034.241c.045-.324.13-.639.254-.94l-.092.221c.125-.3.287-.58.482-.839l-.145.191c.239-.312.532-.582.81-.859l1.323-1.324 1.295-1.294c.27-.271.533-.556.836-.791a9.69 9.69 0 0 0-.191.149c.264-.204.551-.372.861-.5-.078.032-.156.064-.232.097.311-.127.637-.214.969-.257l-.25.032a3.86 3.86 0 0 1 .996.003l-.24-.033c.324.044.639.129.941.254l-.223-.093c.299.125.58.287.84.482l-.191-.145c.266.203.502.439.707.703l-.146-.192c.201.265.369.554.5.862-.033-.078-.064-.155-.098-.232.127.311.213.636.258.968-.012-.083-.021-.167-.031-.249.041.331.039.664-.004.995l.033-.241a4.031 4.031 0 0 1-.254.941c.029-.074.061-.147.092-.221-.125.299-.287.58-.482.838l.145-.19c-.277.363-.627.677-.949 1l-.875.874a.946.946 0 0 0 .008 1.324.94.94 0 0 0 1.32-.006z"/><path fill="#333" d="M3.65 9.842l-1.083 1.083-.402.402a4.514 4.514 0 0 0-.932 1.337 4.994 4.994 0 0 0-.443 1.794 4.55 4.55 0 0 0 .215 1.63 4.784 4.784 0 0 0 2.242 2.725 4.813 4.813 0 0 0 3.409.435c.862-.207 1.633-.684 2.256-1.306l2.379-2.38 1.023-1.021a5.062 5.062 0 0 0 1.273-2.062 4.67 4.67 0 0 0-.064-2.933 5.221 5.221 0 0 0-.354-.785 5.525 5.525 0 0 0-.5-.706 4.504 4.504 0 0 0-1.359-1.108c-.451-.241-1.019-.109-1.28.343-.25.432-.107 1.038.342 1.279.18.097.352.207.516.33l-.191-.146c.266.205.504.44.711.705-.051-.064-.098-.127-.148-.191.203.265.371.554.5.862-.033-.077-.064-.154-.098-.231.127.31.213.635.258.969l-.031-.25c.041.332.039.665-.004.996l.033-.24a3.83 3.83 0 0 1-.254.939c.029-.073.061-.146.092-.221-.125.299-.287.58-.482.838.049-.062.098-.127.145-.189-.238.312-.531.581-.809.858l-1.324 1.323-1.294 1.295c-.27.27-.533.556-.835.791.064-.05.127-.1.192-.148a3.884 3.884 0 0 1-.862.5l.232-.097a3.931 3.931 0 0 1-.969.258l.249-.032a3.952 3.952 0 0 1-.996-.004l.24.033a3.882 3.882 0 0 1-.94-.254c.073.031.146.062.221.092a3.852 3.852 0 0 1-.838-.481l.19.145a3.92 3.92 0 0 1-.708-.702l.149.191a3.906 3.906 0 0 1-.5-.862c.033.077.064.155.097.231a3.874 3.874 0 0 1-.257-.969l.032.249a3.899 3.899 0 0 1 .004-.995l-.034.24c.045-.322.13-.638.254-.94l-.092.222c.125-.299.287-.58.481-.839l-.145.19c.278-.363.627-.677.95-.999l.875-.874a.945.945 0 0 0-.007-1.324.944.944 0 0 0-1.325.004z"/><path fill="#C2C2C2" d="M16.35 30.157l1.084-1.083.402-.402c.383-.383.711-.842.934-1.337a5.033 5.033 0 0 0 .441-1.794 4.527 4.527 0 0 0-.215-1.63 4.77 4.77 0 0 0-2.242-2.724 4.805 4.805 0 0 0-3.408-.435c-.861.208-1.635.684-2.256 1.307l-2.38 2.38-1.022 1.021a5.043 5.043 0 0 0-1.274 2.061 4.66 4.66 0 0 0 .064 2.934c.097.269.213.535.354.784.142.253.319.481.5.706.365.454.848.834 1.36 1.108.449.241 1.018.109 1.278-.342.249-.432.107-1.039-.342-1.279a3.952 3.952 0 0 1-.515-.33l.19.146a3.943 3.943 0 0 1-.71-.704l.149.191a3.845 3.845 0 0 1-.5-.862l.097.232a3.876 3.876 0 0 1-.258-.969l.032.249a3.906 3.906 0 0 1 .004-.996l-.034.241c.045-.324.13-.639.254-.94l-.093.221c.125-.299.287-.58.482-.838l-.146.19c.239-.312.533-.582.81-.859l1.323-1.324 1.295-1.294c.27-.271.533-.556.836-.791a9.69 9.69 0 0 0-.191.149c.264-.204.551-.372.861-.5-.078.032-.156.064-.232.097.311-.127.637-.214.969-.257l-.25.032a3.86 3.86 0 0 1 .996.003l-.24-.033c.324.044.639.129.941.254l-.223-.093c.299.125.58.287.84.482l-.191-.145c.266.203.502.439.707.703l-.146-.192c.201.265.369.554.5.862-.033-.078-.064-.155-.098-.232.127.311.213.636.258.968-.012-.083-.021-.167-.031-.249.041.331.039.664-.004.995l.033-.241a4.031 4.031 0 0 1-.254.941c.029-.074.061-.147.092-.221-.125.299-.287.58-.482.838l.145-.19c-.277.363-.627.677-.949 1l-.875.874a.946.946 0 0 0 .008 1.324.944.944 0 0 0 1.322-.007z"/><path fill="#C2C2C2" d="M3.65 29.842l-1.083 1.083-.402.402a4.514 4.514 0 0 0-.932 1.337 4.994 4.994 0 0 0-.443 1.794 4.55 4.55 0 0 0 .215 1.63 4.784 4.784 0 0 0 2.242 2.725 4.813 4.813 0 0 0 3.409.435c.862-.207 1.633-.684 2.256-1.306l2.379-2.38 1.023-1.021a5.062 5.062 0 0 0 1.273-2.062 4.67 4.67 0 0 0-.064-2.933 5.221 5.221 0 0 0-.354-.785 5.525 5.525 0 0 0-.5-.706 4.504 4.504 0 0 0-1.359-1.108c-.451-.241-1.019-.109-1.28.343-.25.432-.107 1.038.342 1.279.18.097.352.207.516.33l-.191-.146c.266.205.504.44.711.705-.051-.064-.098-.127-.148-.191.203.265.371.554.5.862-.033-.077-.064-.154-.098-.231.127.31.213.635.258.969l-.031-.25c.041.332.039.665-.004.996l.033-.24a3.83 3.83 0 0 1-.254.939c.029-.073.061-.146.092-.221-.125.299-.287.58-.482.838.049-.062.098-.127.145-.189-.238.312-.531.581-.809.858l-1.324 1.323-1.294 1.295c-.27.27-.533.556-.835.791.064-.05.127-.1.192-.148a3.884 3.884 0 0 1-.862.5l.232-.097a3.931 3.931 0 0 1-.969.258l.249-.032a3.952 3.952 0 0 1-.996-.004l.24.033a3.882 3.882 0 0 1-.94-.254c.073.031.146.062.221.092a3.852 3.852 0 0 1-.838-.481l.19.145a3.92 3.92 0 0 1-.708-.702l.149.191a3.906 3.906 0 0 1-.5-.862c.033.077.064.155.097.231a3.874 3.874 0 0 1-.257-.969l.032.249a3.899 3.899 0 0 1 .004-.995l-.034.24c.045-.322.13-.638.254-.94l-.092.222c.125-.299.287-.58.481-.839l-.145.19c.278-.363.627-.677.95-.999l.875-.874a.945.945 0 0 0-.007-1.324.944.944 0 0 0-1.325.004z"/><path fill="none" stroke="#FFF" stroke-width="1.5" stroke-linecap="round" stroke-linejoin="round" stroke-miterlimit="10" d="M16.35 50.157l1.084-1.083.402-.402c.383-.383.711-.842.934-1.337a5.033 5.033 0 0 0 .441-1.794 4.527 4.527 0 0 0-.215-1.63 4.77 4.77 0 0 0-2.242-2.724 4.805 4.805 0 0 0-3.408-.435c-.861.208-1.635.684-2.256 1.307l-2.38 2.38-1.022 1.021a5.043 5.043 0 0 0-1.274 2.061 4.66 4.66 0 0 0 .064 2.934c.097.269.213.535.354.784.142.253.319.481.5.706.365.454.848.834 1.36 1.108.449.241 1.018.109 1.278-.342.249-.432.107-1.039-.342-1.279a3.952 3.952 0 0 1-.515-.33l.19.146a3.943 3.943 0 0 1-.71-.704l.149.191a3.845 3.845 0 0 1-.5-.862l.097.232a3.876 3.876 0 0 1-.258-.969l.032.249a3.906 3.906 0 0 1 .004-.996l-.034.241c.045-.324.13-.639.254-.94l-.093.221c.125-.299.287-.58.482-.838l-.146.19c.239-.312.533-.582.81-.859l1.323-1.324 1.295-1.294c.27-.271.533-.556.836-.791a9.69 9.69 0 0 0-.191.149c.264-.204.551-.372.861-.5-.078.032-.156.064-.232.097.311-.127.637-.214.969-.257l-.25.032a3.86 3.86 0 0 1 .996.003l-.24-.033c.324.044.639.129.941.254l-.223-.093c.299.125.58.287.84.482l-.191-.145c.266.203.502.439.707.703l-.146-.192c.201.265.369.554.5.862-.033-.078-.064-.155-.098-.232.127.311.213.636.258.968-.012-.083-.021-.167-.031-.249.041.331.039.664-.004.995l.033-.241a4.031 4.031 0 0 1-.254.941c.029-.074.061-.147.092-.221-.125.299-.287.58-.482.838l.145-.19c-.277.363-.627.677-.949 1l-.875.874a.946.946 0 0 0 .008 1.324.944.944 0 0 0 1.322-.007z"/><path fill="none" stroke="#FFF" stroke-width="1.5" stroke-linecap="round" stroke-linejoin="round" stroke-miterlimit="10" d="M3.65 49.842l-1.083 1.083-.402.402a4.514 4.514 0 0 0-.932 1.337 4.994 4.994 0 0 0-.443 1.794 4.55 4.55 0 0 0 .215 1.63 4.784 4.784 0 0 0 2.242 2.725 4.813 4.813 0 0 0 3.409.435c.862-.207 1.633-.684 2.256-1.306l2.379-2.38 1.023-1.021a5.062 5.062 0 0 0 1.273-2.062 4.67 4.67 0 0 0-.064-2.933 5.221 5.221 0 0 0-.354-.785 5.525 5.525 0 0 0-.5-.706 4.504 4.504 0 0 0-1.359-1.108c-.451-.241-1.019-.109-1.28.343-.25.432-.107 1.038.342 1.279.18.097.352.207.516.33l-.191-.146c.266.205.504.44.711.705-.051-.064-.098-.127-.148-.191.203.265.371.554.5.862-.033-.077-.064-.154-.098-.231.127.31.213.635.258.969l-.031-.25c.041.332.039.665-.004.996l.033-.24a3.83 3.83 0 0 1-.254.939c.029-.073.061-.146.092-.221-.125.299-.287.58-.482.838.049-.062.098-.127.145-.189-.238.312-.531.581-.809.858l-1.324 1.323-1.294 1.295c-.27.27-.533.556-.835.791.064-.05.127-.1.192-.148a3.884 3.884 0 0 1-.862.5l.232-.097a3.931 3.931 0 0 1-.969.258l.249-.032a3.952 3.952 0 0 1-.996-.004l.24.033a3.882 3.882 0 0 1-.94-.254c.073.031.146.062.221.092a3.852 3.852 0 0 1-.838-.481l.19.145a3.92 3.92 0 0 1-.708-.702l.149.191a3.906 3.906 0 0 1-.5-.862c.033.077.064.155.097.231a3.874 3.874 0 0 1-.257-.969l.032.249a3.899 3.899 0 0 1 .004-.995l-.034.24c.045-.322.13-.638.254-.94l-.092.222c.125-.299.287-.58.481-.839l-.145.19c.278-.363.627-.677.95-.999l.875-.874a.945.945 0 0 0-.007-1.324.944.944 0 0 0-1.325.004z"/><g fill="#393"><path d="M16.35 70.158l1.084-1.084c.135-.133.268-.268.402-.402.383-.383.711-.842.934-1.336a5.038 5.038 0 0 0 .441-1.795 4.525 4.525 0 0 0-.215-1.629 4.77 4.77 0 0 0-2.242-2.725 4.81 4.81 0 0 0-3.408-.436c-.861.209-1.635.684-2.256 1.307l-2.38 2.381-1.022 1.021a5.043 5.043 0 0 0-1.274 2.061 4.66 4.66 0 0 0 .064 2.934c.097.268.213.535.354.783.142.254.319.482.5.707.365.453.848.834 1.36 1.107.449.242 1.018.109 1.278-.342.249-.432.107-1.039-.342-1.279a3.85 3.85 0 0 1-.515-.33l.19.146a3.982 3.982 0 0 1-.71-.705l.149.191a3.86 3.86 0 0 1-.5-.861l.097.232a3.9 3.9 0 0 1-.258-.969l.032.248a3.906 3.906 0 0 1 .004-.996l-.034.242c.045-.324.13-.639.254-.941l-.093.221c.125-.299.287-.58.482-.838l-.146.19c.239-.312.533-.581.81-.858l1.323-1.324 1.295-1.294c.27-.271.533-.556.836-.791-.064.05-.129.099-.191.149.264-.205.551-.373.861-.501-.078.032-.156.063-.232.097.311-.127.637-.214.969-.258-.084.01-.166.021-.25.033.332-.042.666-.041.996.002l-.24-.032c.324.044.639.13.941.254l-.223-.093c.299.125.58.287.84.482l-.191-.145c.266.203.502.438.707.703l-.146-.192c.201.265.369.554.5.862l-.098-.232c.127.311.213.637.258.969-.012-.082-.021-.166-.031-.248.041.33.039.664-.004.994l.033-.24a4.018 4.018 0 0 1-.254.941c.029-.074.061-.148.092-.222-.125.3-.287.579-.482.839.049-.064.098-.127.145-.191-.277.363-.627.678-.949 1l-.875.875a.944.944 0 0 0 .008 1.323.942.942 0 0 0 1.322-.005z"/><path d="M3.65 69.843l-1.083 1.083-.402.402a4.506 4.506 0 0 0-.932 1.338 4.983 4.983 0 0 0-.443 1.793 4.552 4.552 0 0 0 .215 1.631 4.79 4.79 0 0 0 2.242 2.725 4.812 4.812 0 0 0 3.409.434c.862-.207 1.633-.684 2.256-1.305l2.379-2.381 1.023-1.021a5.052 5.052 0 0 0 1.273-2.061 4.674 4.674 0 0 0-.064-2.934 5.221 5.221 0 0 0-.354-.785 5.445 5.445 0 0 0-.5-.705 4.522 4.522 0 0 0-1.359-1.109c-.451-.24-1.019-.109-1.28.344-.25.432-.107 1.037.342 1.278.18.097.352.206.516.329l-.191-.145c.266.204.504.439.711.704-.051-.063-.098-.128-.148-.191.203.265.371.554.5.862l-.098-.232c.127.311.213.635.258.969l-.031-.25c.041.332.039.666-.004.996l.033-.24a3.817 3.817 0 0 1-.254.939l.092-.221c-.125.299-.287.58-.482.838.049-.062.098-.127.145-.189-.238.312-.531.582-.809.859L9.286 74.92l-1.294 1.295c-.27.27-.533.557-.835.791.064-.049.127-.1.192-.148a3.884 3.884 0 0 1-.862.5l.232-.096a3.976 3.976 0 0 1-.969.258c.082-.012.166-.021.249-.033a3.952 3.952 0 0 1-.996-.004l.24.033a3.837 3.837 0 0 1-.94-.254c.073.031.146.062.221.092a3.848 3.848 0 0 1-.838-.48l.19.145a3.926 3.926 0 0 1-.708-.703l.149.191a3.9 3.9 0 0 1-.5-.861l.097.23a3.863 3.863 0 0 1-.257-.969l.032.25a3.906 3.906 0 0 1 .004-.996l-.034.24c.045-.322.13-.637.254-.939-.031.074-.062.146-.092.221.125-.299.287-.58.481-.838-.048.062-.096.127-.145.189.278-.363.627-.676.95-.998l.875-.875a.945.945 0 0 0-.007-1.324.947.947 0 0 0-1.325.006z"/></g><g fill="#5290D2"><path d="M16.35 90.158l1.084-1.084c.135-.133.268-.268.402-.402.383-.383.711-.842.934-1.336a5.038 5.038 0 0 0 .441-1.795 4.525 4.525 0 0 0-.215-1.629 4.77 4.77 0 0 0-2.242-2.725 4.806 4.806 0 0 0-3.408-.436c-.861.209-1.635.684-2.256 1.307l-2.38 2.381-1.022 1.021a5.043 5.043 0 0 0-1.274 2.061 4.66 4.66 0 0 0 .064 2.934c.097.268.213.535.354.783.142.254.319.482.5.707.365.453.848.834 1.36 1.107.449.242 1.018.109 1.278-.342.249-.432.107-1.039-.342-1.279a3.85 3.85 0 0 1-.515-.33l.19.146a3.982 3.982 0 0 1-.71-.705l.149.191a3.86 3.86 0 0 1-.5-.861l.097.232a3.9 3.9 0 0 1-.258-.969l.032.248a3.906 3.906 0 0 1 .004-.996l-.034.242c.045-.324.13-.639.254-.941l-.093.221c.125-.299.287-.58.482-.838l-.146.19c.239-.312.533-.581.81-.858l1.323-1.324 1.295-1.294c.27-.271.533-.556.836-.791-.064.05-.129.099-.191.149.264-.205.551-.373.861-.501-.078.032-.156.063-.232.097.311-.127.637-.214.969-.258-.084.01-.166.021-.25.033.332-.042.666-.041.996.002l-.24-.032c.324.044.639.13.941.254l-.223-.093c.299.125.58.287.84.482l-.191-.145c.266.203.502.438.707.703l-.146-.192c.201.265.369.554.5.862l-.098-.232c.127.311.213.637.258.969-.012-.082-.021-.166-.031-.248.041.33.039.664-.004.994l.033-.24a4.018 4.018 0 0 1-.254.941c.029-.074.061-.148.092-.222-.125.3-.287.579-.482.839.049-.064.098-.127.145-.191-.277.363-.627.678-.949 1l-.875.875a.944.944 0 0 0 .008 1.323.942.942 0 0 0 1.322-.005z"/><path d="M3.65 89.843l-1.083 1.083-.402.402a4.506 4.506 0 0 0-.932 1.338 4.983 4.983 0 0 0-.443 1.793 4.552 4.552 0 0 0 .215 1.631 4.79 4.79 0 0 0 2.242 2.725 4.812 4.812 0 0 0 3.409.434c.862-.207 1.633-.684 2.256-1.305l2.379-2.381 1.023-1.021a5.052 5.052 0 0 0 1.273-2.061 4.674 4.674 0 0 0-.064-2.934 5.221 5.221 0 0 0-.354-.785 5.445 5.445 0 0 0-.5-.705 4.522 4.522 0 0 0-1.359-1.109c-.451-.24-1.019-.109-1.28.344-.25.432-.107 1.037.342 1.278.18.097.352.206.516.329l-.191-.145c.266.204.504.439.711.704-.051-.063-.098-.128-.148-.191.203.265.371.554.5.862l-.098-.232c.127.311.213.635.258.969l-.031-.25c.041.332.039.666-.004.996l.033-.24a3.817 3.817 0 0 1-.254.939l.092-.221c-.125.299-.287.58-.482.838.049-.062.098-.127.145-.189-.238.312-.531.582-.809.859L9.286 94.92l-1.294 1.295c-.27.27-.533.557-.835.791.064-.049.127-.1.192-.148a3.884 3.884 0 0 1-.862.5l.232-.096a3.976 3.976 0 0 1-.969.258c.082-.012.166-.021.249-.033a3.952 3.952 0 0 1-.996-.004l.24.033a3.837 3.837 0 0 1-.94-.254c.073.031.146.062.221.092a3.848 3.848 0 0 1-.838-.48l.19.145a3.926 3.926 0 0 1-.708-.703l.149.191a3.9 3.9 0 0 1-.5-.861l.097.23a3.863 3.863 0 0 1-.257-.969l.032.25a3.906 3.906 0 0 1 .004-.996l-.034.24c.045-.322.13-.637.254-.939-.031.074-.062.146-.092.221.125-.299.287-.58.481-.838-.048.062-.096.127-.145.189.278-.363.627-.676.95-.998l.875-.875a.945.945 0 0 0-.007-1.324.947.947 0 0 0-1.325.006z"/></g><g fill="#FF5252"><path d="M16.35 110.158l1.084-1.084c.135-.133.268-.268.402-.402.383-.383.711-.842.934-1.336a5.038 5.038 0 0 0 .441-1.795 4.525 4.525 0 0 0-.215-1.629 4.77 4.77 0 0 0-2.242-2.725 4.806 4.806 0 0 0-3.408-.436c-.861.209-1.635.684-2.256 1.307l-2.38 2.381-1.022 1.021a5.043 5.043 0 0 0-1.274 2.061 4.66 4.66 0 0 0 .064 2.934c.097.268.213.535.354.783.142.254.319.482.5.707.365.453.848.834 1.36 1.107.449.242 1.018.109 1.278-.342.249-.432.107-1.039-.342-1.279a3.85 3.85 0 0 1-.515-.33l.19.146a3.982 3.982 0 0 1-.71-.705l.149.191a3.86 3.86 0 0 1-.5-.861l.097.232a3.9 3.9 0 0 1-.258-.969l.032.248a3.906 3.906 0 0 1 .004-.996l-.034.242c.045-.324.13-.639.254-.941l-.093.221c.125-.299.287-.58.482-.838l-.146.19c.239-.312.533-.581.81-.858l1.323-1.324 1.295-1.294c.27-.271.533-.556.836-.791-.064.05-.129.099-.191.149.264-.205.551-.373.861-.501-.078.032-.156.063-.232.097.311-.127.637-.214.969-.258-.084.01-.166.021-.25.033.332-.042.666-.041.996.002l-.24-.032c.324.044.639.13.941.254l-.223-.093c.299.125.58.287.84.482l-.191-.145c.266.203.502.438.707.703l-.146-.192c.201.265.369.554.5.862l-.098-.232c.127.311.213.637.258.969-.012-.082-.021-.166-.031-.248.041.33.039.664-.004.994l.033-.24a4.018 4.018 0 0 1-.254.941c.029-.074.061-.148.092-.222-.125.3-.287.579-.482.839.049-.064.098-.127.145-.191-.277.363-.627.678-.949 1l-.875.875a.944.944 0 0 0 .008 1.323.942.942 0 0 0 1.322-.005z"/><path d="M3.65 109.843l-1.083 1.083-.402.402a4.506 4.506 0 0 0-.932 1.338 4.983 4.983 0 0 0-.443 1.793 4.552 4.552 0 0 0 .215 1.631 4.79 4.79 0 0 0 2.242 2.725 4.812 4.812 0 0 0 3.409.434c.862-.207 1.633-.684 2.256-1.305l2.379-2.381 1.023-1.021a5.052 5.052 0 0 0 1.273-2.061 4.674 4.674 0 0 0-.064-2.934 5.221 5.221 0 0 0-.354-.785 5.445 5.445 0 0 0-.5-.705 4.522 4.522 0 0 0-1.359-1.109c-.451-.24-1.019-.109-1.28.344-.25.432-.107 1.037.342 1.278.18.097.352.206.516.329l-.191-.145c.266.204.504.439.711.704-.051-.063-.098-.128-.148-.191.203.265.371.554.5.862l-.098-.232c.127.311.213.635.258.969l-.031-.25c.041.332.039.666-.004.996l.033-.24a3.817 3.817 0 0 1-.254.939l.092-.221c-.125.299-.287.58-.482.838.049-.062.098-.127.145-.189-.238.312-.531.582-.809.859l-1.324 1.322-1.294 1.295c-.27.27-.533.557-.835.791.064-.049.127-.1.192-.148a3.884 3.884 0 0 1-.862.5l.232-.096a3.976 3.976 0 0 1-.969.258c.082-.012.166-.021.249-.033a3.952 3.952 0 0 1-.996-.004l.24.033a3.837 3.837 0 0 1-.94-.254c.073.031.146.062.221.092a3.848 3.848 0 0 1-.838-.48l.19.145a3.926 3.926 0 0 1-.708-.703l.149.191a3.9 3.9 0 0 1-.5-.861l.097.23a3.863 3.863 0 0 1-.257-.969l.032.25a3.906 3.906 0 0 1 .004-.996l-.034.24c.045-.322.13-.637.254-.939-.031.074-.062.146-.092.221.125-.299.287-.58.481-.838-.048.062-.096.127-.145.189.278-.363.627-.676.95-.998l.875-.875a.945.945 0 0 0-.007-1.324.947.947 0 0 0-1.325.006z"/></g></svg>