<?xml version="1.0" encoding="utf-8"?>
<!-- Generator: Adobe Illustrator 16.0.0, SVG Export Plug-In . SVG Version: 6.00 Build 0)  -->
<!DOCTYPE svg PUBLIC "-//W3C//DTD SVG 1.1//EN" "http://www.w3.org/Graphics/SVG/1.1/DTD/svg11.dtd">
<svg version="1.1" id="Layer_1" xmlns="http://www.w3.org/2000/svg" xmlns:xlink="http://www.w3.org/1999/xlink" x="0px" y="0px"
	 width="19.966px" height="19.876px" viewBox="-18.708 -22.886 19.966 19.876"
	 enable-background="new -18.708 -22.886 19.966 19.876" xml:space="preserve">
<g>
	<path fill="#339933" d="M-2.743-20.886c1.103,0,2,0.897,2,2V-7.01c0,1.103-0.897,2-2,2h-11.966c-1.103,0-2-0.897-2-2v-11.876
		c0-1.103,0.897-2,2-2H-2.743 M-2.743-22.886h-11.966c-2.2,0-4,1.8-4,4V-7.01c0,2.2,1.8,4,4,4h11.966c2.2,0,4-1.8,4-4v-11.876
		C1.257-21.086-0.542-22.886-2.743-22.886L-2.743-22.886z"/>
</g>
<g>
	<g>
		<path fill="#339933" d="M-10.077-7.402c-0.345,0-0.671-0.162-0.881-0.438l-2.832-3.739c-0.368-0.486-0.272-1.179,0.214-1.547
			c0.487-0.369,1.179-0.272,1.547,0.214l1.862,2.459l4.684-7.521c0.322-0.517,1.003-0.676,1.522-0.354
			c0.518,0.322,0.676,1.003,0.354,1.521l-5.533,8.884c-0.192,0.309-0.524,0.503-0.887,0.52C-10.043-7.402-10.06-7.402-10.077-7.402z
			"/>
	</g>
</g>
</svg>
