<?xml version="1.0" encoding="utf-8"?>
<!-- Generator: Adobe Illustrator 16.0.0, SVG Export Plug-In . SVG Version: 6.00 Build 0)  -->
<!DOCTYPE svg PUBLIC "-//W3C//DTD SVG 1.1//EN" "http://www.w3.org/Graphics/SVG/1.1/DTD/svg11.dtd">
<svg version="1.1" id="Layer_1" xmlns="http://www.w3.org/2000/svg" xmlns:xlink="http://www.w3.org/1999/xlink" x="0px" y="0px"
	 width="100px" height="99.5px" viewBox="0 0 100 99.5" enable-background="new 0 0 100 99.5" xml:space="preserve">
<g>
	<defs>
		<rect id="SVGID_1_" width="100" height="99.5"/>
	</defs>
	<clipPath id="SVGID_2_">
		<use xlink:href="#SVGID_1_"  overflow="visible"/>
	</clipPath>
	<path clip-path="url(#SVGID_2_)" fill="#333333" d="M77.579,51.04C75.542,53.129,54.1,73.55,54.1,73.55
		c-1.087,1.115-2.513,1.674-3.938,1.674c-1.428,0-2.854-0.559-3.939-1.674c0,0-21.442-20.421-23.481-22.51
		c-2.037-2.09-2.176-5.848,0-8.078c2.174-2.23,5.211-2.406,7.879,0l19.542,18.734L69.7,42.962c2.67-2.406,5.705-2.23,7.879,0
		C79.757,45.192,79.618,48.95,77.579,51.04"/>
	<path clip-path="url(#SVGID_2_)" fill="#333333" d="M50.5,71c-3.038,0-5.5-2.462-5.5-5.5v-60C45,2.462,47.462,0,50.5,0
		S56,2.462,56,5.5v60C56,68.538,53.538,71,50.5,71"/>
	<path clip-path="url(#SVGID_2_)" fill="#333333" d="M5.5,99C2.462,99,0,96.537,0,93.5v-18C0,72.462,2.462,70,5.5,70
		s5.5,2.462,5.5,5.5v18C11,96.537,8.538,99,5.5,99"/>
	<path clip-path="url(#SVGID_2_)" fill="#333333" d="M94.5,99c-3.038,0-5.5-2.463-5.5-5.5v-18c0-3.038,2.462-5.5,5.5-5.5
		s5.5,2.462,5.5,5.5v18C100,96.537,97.538,99,94.5,99"/>
	<path clip-path="url(#SVGID_2_)" fill="#333333" d="M94,99.5H6c-3.038,0-5.5-2.463-5.5-5.5s2.462-5.5,5.5-5.5h88
		c3.038,0,5.5,2.463,5.5,5.5S97.038,99.5,94,99.5"/>
</g>
</svg>
